<?xml version="1.0" standalone="no"?>
 <!DOCTYPE svg PUBLIC "-//W3C//DTD SVG 1.1//EN" 
 "http://www.w3.org/Graphics/SVG/1.1/DTD/svg11.dtd"> 
<svg xmlns="http://www.w3.org/2000/svg" version="1.1" 
    width="29.7002cm" height="21.0007cm" viewBox="0 0 116930 82680 ">
<title>SVG Picture created as BSidesCBR2019-B.SilkS.svg date 2018/08/20 13:18:08 </title>
  <desc>Picture generated by PCBNEW </desc>
<g style="fill:#000000; fill-opacity:1;stroke:#000000; stroke-opacity:1;
stroke-linecap:round; stroke-linejoin:round; "
 transform="translate(0 0) scale(1 1)">
</g>
<g style="fill:#000000; fill-opacity:0.0; 
stroke:#000000; stroke-width:-0.000393701; stroke-opacity:1; 
stroke-linecap:round; stroke-linejoin:round;">
</g>
<g style="fill:#000000; fill-opacity:0.0; 
stroke:#000000; stroke-width:39.3701; stroke-opacity:1; 
stroke-linecap:round; stroke-linejoin:round;">
</g>
<g style="fill:#000000; fill-opacity:0.0; 
stroke:#000000; stroke-width:59.0551; stroke-opacity:1; 
stroke-linecap:round; stroke-linejoin:round;">
<rect x="69685.9" y="65357.2" width="42519.7" height="12598.4" rx="0" />
</g>
<g style="fill:#000000; fill-opacity:0.0; 
stroke:#000000; stroke-width:39.3701; stroke-opacity:1; 
stroke-linecap:round; stroke-linejoin:round;">
</g>
<g style="fill:#000000; fill-opacity:0.0; 
stroke:#000000; stroke-width:59.0551; stroke-opacity:1; 
stroke-linecap:round; stroke-linejoin:round;">
<rect x="3937.01" y="3937.01" width="109056" height="74806" rx="0" />
</g>
<g style="fill:#000000; fill-opacity:0.0; 
stroke:#000000; stroke-width:39.3701; stroke-opacity:1; 
stroke-linecap:round; stroke-linejoin:round;">
</g>
<g style="fill:#000000; fill-opacity:0.0; 
stroke:#000000; stroke-width:59.0551; stroke-opacity:1; 
stroke-linecap:round; stroke-linejoin:round;">
<rect x="4724.41" y="4724.41" width="107481" height="73231.2" rx="0" />
</g>
<g style="fill:#000000; fill-opacity:0.0; 
stroke:#000000; stroke-width:39.3701; stroke-opacity:1; 
stroke-linecap:round; stroke-linejoin:round;">
</g>
<g style="fill:#000000; fill-opacity:0.0; 
stroke:#000000; stroke-width:59.0551; stroke-opacity:1; 
stroke-linecap:round; stroke-linejoin:round;">
<path d="M23622 4724
L23622 3937
" />
</g>
<g style="fill:#000000; fill-opacity:0.0; 
stroke:#000000; stroke-width:39.3701; stroke-opacity:1; 
stroke-linecap:round; stroke-linejoin:round;">
</g>
<g style="fill:#000000; fill-opacity:0.0; 
stroke:#000000; stroke-width:59.0551; stroke-opacity:1; 
stroke-linecap:round; stroke-linejoin:round;">
<path d="M43307 4724
L43307 3937
" />
</g>
<g style="fill:#000000; fill-opacity:0.0; 
stroke:#000000; stroke-width:39.3701; stroke-opacity:1; 
stroke-linecap:round; stroke-linejoin:round;">
</g>
<g style="fill:#000000; fill-opacity:0.0; 
stroke:#000000; stroke-width:59.0551; stroke-opacity:1; 
stroke-linecap:round; stroke-linejoin:round;">
<path d="M62992 4724
L62992 3937
" />
</g>
<g style="fill:#000000; fill-opacity:0.0; 
stroke:#000000; stroke-width:39.3701; stroke-opacity:1; 
stroke-linecap:round; stroke-linejoin:round;">
</g>
<g style="fill:#000000; fill-opacity:0.0; 
stroke:#000000; stroke-width:59.0551; stroke-opacity:1; 
stroke-linecap:round; stroke-linejoin:round;">
<path d="M82677 4724
L82677 3937
" />
</g>
<g style="fill:#000000; fill-opacity:0.0; 
stroke:#000000; stroke-width:39.3701; stroke-opacity:1; 
stroke-linecap:round; stroke-linejoin:round;">
</g>
<g style="fill:#000000; fill-opacity:0.0; 
stroke:#000000; stroke-width:59.0551; stroke-opacity:1; 
stroke-linecap:round; stroke-linejoin:round;">
<path d="M102362 4724
L102362 3937
" />
</g>
<g style="fill:#000000; fill-opacity:0.0; 
stroke:#000000; stroke-width:39.3701; stroke-opacity:1; 
stroke-linecap:round; stroke-linejoin:round;">
</g>
<g style="fill:#000000; fill-opacity:0.0; 
stroke:#000000; stroke-width:59.0551; stroke-opacity:1; 
stroke-linecap:round; stroke-linejoin:round;">
<path d="M14169 4562
L13877 4562
" />
<path d="M14023 4562
L14023 4050
L13974 4123
L13925 4172
L13877 4196
" />
</g>
<g style="fill:#000000; fill-opacity:0.0; 
stroke:#000000; stroke-width:39.3701; stroke-opacity:1; 
stroke-linecap:round; stroke-linejoin:round;">
</g>
<g style="fill:#000000; fill-opacity:0.0; 
stroke:#000000; stroke-width:59.0551; stroke-opacity:1; 
stroke-linecap:round; stroke-linejoin:round;">
<path d="M33562 4099
L33586 4074
L33635 4050
L33757 4050
L33805 4074
L33830 4099
L33854 4147
L33854 4196
L33830 4269
L33537 4562
L33854 4562
" />
</g>
<g style="fill:#000000; fill-opacity:0.0; 
stroke:#000000; stroke-width:39.3701; stroke-opacity:1; 
stroke-linecap:round; stroke-linejoin:round;">
</g>
<g style="fill:#000000; fill-opacity:0.0; 
stroke:#000000; stroke-width:59.0551; stroke-opacity:1; 
stroke-linecap:round; stroke-linejoin:round;">
<path d="M53222 4050
L53539 4050
L53368 4245
L53442 4245
L53490 4269
L53515 4294
L53539 4342
L53539 4464
L53515 4513
L53490 4537
L53442 4562
L53295 4562
L53247 4537
L53222 4513
" />
</g>
<g style="fill:#000000; fill-opacity:0.0; 
stroke:#000000; stroke-width:39.3701; stroke-opacity:1; 
stroke-linecap:round; stroke-linejoin:round;">
</g>
<g style="fill:#000000; fill-opacity:0.0; 
stroke:#000000; stroke-width:59.0551; stroke-opacity:1; 
stroke-linecap:round; stroke-linejoin:round;">
<path d="M73175 4221
L73175 4562
" />
<path d="M73053 4026
L72932 4391
L73248 4391
" />
</g>
<g style="fill:#000000; fill-opacity:0.0; 
stroke:#000000; stroke-width:39.3701; stroke-opacity:1; 
stroke-linecap:round; stroke-linejoin:round;">
</g>
<g style="fill:#000000; fill-opacity:0.0; 
stroke:#000000; stroke-width:59.0551; stroke-opacity:1; 
stroke-linecap:round; stroke-linejoin:round;">
<path d="M92885 4050
L92641 4050
L92617 4294
L92641 4269
L92690 4245
L92812 4245
L92860 4269
L92885 4294
L92909 4342
L92909 4464
L92885 4513
L92860 4537
L92812 4562
L92690 4562
L92641 4537
L92617 4513
" />
</g>
<g style="fill:#000000; fill-opacity:0.0; 
stroke:#000000; stroke-width:39.3701; stroke-opacity:1; 
stroke-linecap:round; stroke-linejoin:round;">
</g>
<g style="fill:#000000; fill-opacity:0.0; 
stroke:#000000; stroke-width:59.0551; stroke-opacity:1; 
stroke-linecap:round; stroke-linejoin:round;">
<path d="M112545 4050
L112448 4050
L112399 4074
L112375 4099
L112326 4172
L112302 4269
L112302 4464
L112326 4513
L112350 4537
L112399 4562
L112497 4562
L112545 4537
L112570 4513
L112594 4464
L112594 4342
L112570 4294
L112545 4269
L112497 4245
L112399 4245
L112350 4269
L112326 4294
L112302 4342
" />
</g>
<g style="fill:#000000; fill-opacity:0.0; 
stroke:#000000; stroke-width:39.3701; stroke-opacity:1; 
stroke-linecap:round; stroke-linejoin:round;">
</g>
<g style="fill:#000000; fill-opacity:0.0; 
stroke:#000000; stroke-width:59.0551; stroke-opacity:1; 
stroke-linecap:round; stroke-linejoin:round;">
<path d="M23622 77955
L23622 78742
" />
</g>
<g style="fill:#000000; fill-opacity:0.0; 
stroke:#000000; stroke-width:39.3701; stroke-opacity:1; 
stroke-linecap:round; stroke-linejoin:round;">
</g>
<g style="fill:#000000; fill-opacity:0.0; 
stroke:#000000; stroke-width:59.0551; stroke-opacity:1; 
stroke-linecap:round; stroke-linejoin:round;">
<path d="M43307 77955
L43307 78742
" />
</g>
<g style="fill:#000000; fill-opacity:0.0; 
stroke:#000000; stroke-width:39.3701; stroke-opacity:1; 
stroke-linecap:round; stroke-linejoin:round;">
</g>
<g style="fill:#000000; fill-opacity:0.0; 
stroke:#000000; stroke-width:59.0551; stroke-opacity:1; 
stroke-linecap:round; stroke-linejoin:round;">
<path d="M62992 77955
L62992 78742
" />
</g>
<g style="fill:#000000; fill-opacity:0.0; 
stroke:#000000; stroke-width:39.3701; stroke-opacity:1; 
stroke-linecap:round; stroke-linejoin:round;">
</g>
<g style="fill:#000000; fill-opacity:0.0; 
stroke:#000000; stroke-width:59.0551; stroke-opacity:1; 
stroke-linecap:round; stroke-linejoin:round;">
<path d="M82677 77955
L82677 78742
" />
</g>
<g style="fill:#000000; fill-opacity:0.0; 
stroke:#000000; stroke-width:39.3701; stroke-opacity:1; 
stroke-linecap:round; stroke-linejoin:round;">
</g>
<g style="fill:#000000; fill-opacity:0.0; 
stroke:#000000; stroke-width:59.0551; stroke-opacity:1; 
stroke-linecap:round; stroke-linejoin:round;">
<path d="M102362 77955
L102362 78742
" />
</g>
<g style="fill:#000000; fill-opacity:0.0; 
stroke:#000000; stroke-width:39.3701; stroke-opacity:1; 
stroke-linecap:round; stroke-linejoin:round;">
</g>
<g style="fill:#000000; fill-opacity:0.0; 
stroke:#000000; stroke-width:59.0551; stroke-opacity:1; 
stroke-linecap:round; stroke-linejoin:round;">
<path d="M14169 78580
L13877 78580
" />
<path d="M14023 78580
L14023 78069
L13974 78142
L13925 78190
L13877 78215
" />
</g>
<g style="fill:#000000; fill-opacity:0.0; 
stroke:#000000; stroke-width:39.3701; stroke-opacity:1; 
stroke-linecap:round; stroke-linejoin:round;">
</g>
<g style="fill:#000000; fill-opacity:0.0; 
stroke:#000000; stroke-width:59.0551; stroke-opacity:1; 
stroke-linecap:round; stroke-linejoin:round;">
<path d="M33562 78117
L33586 78093
L33635 78069
L33757 78069
L33805 78093
L33830 78117
L33854 78166
L33854 78215
L33830 78288
L33537 78580
L33854 78580
" />
</g>
<g style="fill:#000000; fill-opacity:0.0; 
stroke:#000000; stroke-width:39.3701; stroke-opacity:1; 
stroke-linecap:round; stroke-linejoin:round;">
</g>
<g style="fill:#000000; fill-opacity:0.0; 
stroke:#000000; stroke-width:59.0551; stroke-opacity:1; 
stroke-linecap:round; stroke-linejoin:round;">
<path d="M53222 78069
L53539 78069
L53368 78263
L53442 78263
L53490 78288
L53515 78312
L53539 78361
L53539 78483
L53515 78532
L53490 78556
L53442 78580
L53295 78580
L53247 78556
L53222 78532
" />
</g>
<g style="fill:#000000; fill-opacity:0.0; 
stroke:#000000; stroke-width:39.3701; stroke-opacity:1; 
stroke-linecap:round; stroke-linejoin:round;">
</g>
<g style="fill:#000000; fill-opacity:0.0; 
stroke:#000000; stroke-width:59.0551; stroke-opacity:1; 
stroke-linecap:round; stroke-linejoin:round;">
<path d="M73175 78239
L73175 78580
" />
<path d="M73053 78044
L72932 78410
L73248 78410
" />
</g>
<g style="fill:#000000; fill-opacity:0.0; 
stroke:#000000; stroke-width:39.3701; stroke-opacity:1; 
stroke-linecap:round; stroke-linejoin:round;">
</g>
<g style="fill:#000000; fill-opacity:0.0; 
stroke:#000000; stroke-width:59.0551; stroke-opacity:1; 
stroke-linecap:round; stroke-linejoin:round;">
<path d="M92885 78069
L92641 78069
L92617 78312
L92641 78288
L92690 78263
L92812 78263
L92860 78288
L92885 78312
L92909 78361
L92909 78483
L92885 78532
L92860 78556
L92812 78580
L92690 78580
L92641 78556
L92617 78532
" />
</g>
<g style="fill:#000000; fill-opacity:0.0; 
stroke:#000000; stroke-width:39.3701; stroke-opacity:1; 
stroke-linecap:round; stroke-linejoin:round;">
</g>
<g style="fill:#000000; fill-opacity:0.0; 
stroke:#000000; stroke-width:59.0551; stroke-opacity:1; 
stroke-linecap:round; stroke-linejoin:round;">
<path d="M112545 78069
L112448 78069
L112399 78093
L112375 78117
L112326 78190
L112302 78288
L112302 78483
L112326 78532
L112350 78556
L112399 78580
L112497 78580
L112545 78556
L112570 78532
L112594 78483
L112594 78361
L112570 78312
L112545 78288
L112497 78263
L112399 78263
L112350 78288
L112326 78312
L112302 78361
" />
</g>
<g style="fill:#000000; fill-opacity:0.0; 
stroke:#000000; stroke-width:39.3701; stroke-opacity:1; 
stroke-linecap:round; stroke-linejoin:round;">
</g>
<g style="fill:#000000; fill-opacity:0.0; 
stroke:#000000; stroke-width:59.0551; stroke-opacity:1; 
stroke-linecap:round; stroke-linejoin:round;">
<path d="M3937 23622
L4724 23622
" />
</g>
<g style="fill:#000000; fill-opacity:0.0; 
stroke:#000000; stroke-width:39.3701; stroke-opacity:1; 
stroke-linecap:round; stroke-linejoin:round;">
</g>
<g style="fill:#000000; fill-opacity:0.0; 
stroke:#000000; stroke-width:59.0551; stroke-opacity:1; 
stroke-linecap:round; stroke-linejoin:round;">
<path d="M3937 43307
L4724 43307
" />
</g>
<g style="fill:#000000; fill-opacity:0.0; 
stroke:#000000; stroke-width:39.3701; stroke-opacity:1; 
stroke-linecap:round; stroke-linejoin:round;">
</g>
<g style="fill:#000000; fill-opacity:0.0; 
stroke:#000000; stroke-width:59.0551; stroke-opacity:1; 
stroke-linecap:round; stroke-linejoin:round;">
<path d="M3937 62992
L4724 62992
" />
</g>
<g style="fill:#000000; fill-opacity:0.0; 
stroke:#000000; stroke-width:39.3701; stroke-opacity:1; 
stroke-linecap:round; stroke-linejoin:round;">
</g>
<g style="fill:#000000; fill-opacity:0.0; 
stroke:#000000; stroke-width:59.0551; stroke-opacity:1; 
stroke-linecap:round; stroke-linejoin:round;">
<path d="M4208 13864
L4452 13864
" />
<path d="M4160 14011
L4330 13499
L4501 14011
" />
</g>
<g style="fill:#000000; fill-opacity:0.0; 
stroke:#000000; stroke-width:39.3701; stroke-opacity:1; 
stroke-linecap:round; stroke-linejoin:round;">
</g>
<g style="fill:#000000; fill-opacity:0.0; 
stroke:#000000; stroke-width:59.0551; stroke-opacity:1; 
stroke-linecap:round; stroke-linejoin:round;">
<path d="M4367 33428
L4440 33452
L4464 33476
L4489 33525
L4489 33598
L4464 33647
L4440 33671
L4391 33696
L4196 33696
L4196 33184
L4367 33184
L4416 33208
L4440 33233
L4464 33281
L4464 33330
L4440 33379
L4416 33403
L4367 33428
L4196 33428
" />
</g>
<g style="fill:#000000; fill-opacity:0.0; 
stroke:#000000; stroke-width:39.3701; stroke-opacity:1; 
stroke-linecap:round; stroke-linejoin:round;">
</g>
<g style="fill:#000000; fill-opacity:0.0; 
stroke:#000000; stroke-width:59.0551; stroke-opacity:1; 
stroke-linecap:round; stroke-linejoin:round;">
<path d="M4489 53332
L4464 53356
L4391 53381
L4342 53381
L4269 53356
L4221 53308
L4196 53259
L4172 53161
L4172 53088
L4196 52991
L4221 52942
L4269 52893
L4342 52869
L4391 52869
L4464 52893
L4489 52918
" />
</g>
<g style="fill:#000000; fill-opacity:0.0; 
stroke:#000000; stroke-width:39.3701; stroke-opacity:1; 
stroke-linecap:round; stroke-linejoin:round;">
</g>
<g style="fill:#000000; fill-opacity:0.0; 
stroke:#000000; stroke-width:59.0551; stroke-opacity:1; 
stroke-linecap:round; stroke-linejoin:round;">
<path d="M4196 73066
L4196 72554
L4318 72554
L4391 72578
L4440 72627
L4464 72676
L4489 72773
L4489 72846
L4464 72944
L4440 72993
L4391 73041
L4318 73066
L4196 73066
" />
</g>
<g style="fill:#000000; fill-opacity:0.0; 
stroke:#000000; stroke-width:39.3701; stroke-opacity:1; 
stroke-linecap:round; stroke-linejoin:round;">
</g>
<g style="fill:#000000; fill-opacity:0.0; 
stroke:#000000; stroke-width:59.0551; stroke-opacity:1; 
stroke-linecap:round; stroke-linejoin:round;">
<path d="M112992 23622
L112205 23622
" />
</g>
<g style="fill:#000000; fill-opacity:0.0; 
stroke:#000000; stroke-width:39.3701; stroke-opacity:1; 
stroke-linecap:round; stroke-linejoin:round;">
</g>
<g style="fill:#000000; fill-opacity:0.0; 
stroke:#000000; stroke-width:59.0551; stroke-opacity:1; 
stroke-linecap:round; stroke-linejoin:round;">
<path d="M112992 43307
L112205 43307
" />
</g>
<g style="fill:#000000; fill-opacity:0.0; 
stroke:#000000; stroke-width:39.3701; stroke-opacity:1; 
stroke-linecap:round; stroke-linejoin:round;">
</g>
<g style="fill:#000000; fill-opacity:0.0; 
stroke:#000000; stroke-width:59.0551; stroke-opacity:1; 
stroke-linecap:round; stroke-linejoin:round;">
<path d="M112992 62992
L112205 62992
" />
</g>
<g style="fill:#000000; fill-opacity:0.0; 
stroke:#000000; stroke-width:39.3701; stroke-opacity:1; 
stroke-linecap:round; stroke-linejoin:round;">
</g>
<g style="fill:#000000; fill-opacity:0.0; 
stroke:#000000; stroke-width:59.0551; stroke-opacity:1; 
stroke-linecap:round; stroke-linejoin:round;">
<path d="M112477 13864
L112721 13864
" />
<path d="M112428 14011
L112599 13499
L112769 14011
" />
</g>
<g style="fill:#000000; fill-opacity:0.0; 
stroke:#000000; stroke-width:39.3701; stroke-opacity:1; 
stroke-linecap:round; stroke-linejoin:round;">
</g>
<g style="fill:#000000; fill-opacity:0.0; 
stroke:#000000; stroke-width:59.0551; stroke-opacity:1; 
stroke-linecap:round; stroke-linejoin:round;">
<path d="M112635 33428
L112708 33452
L112733 33476
L112757 33525
L112757 33598
L112733 33647
L112708 33671
L112660 33696
L112465 33696
L112465 33184
L112635 33184
L112684 33208
L112708 33233
L112733 33281
L112733 33330
L112708 33379
L112684 33403
L112635 33428
L112465 33428
" />
</g>
<g style="fill:#000000; fill-opacity:0.0; 
stroke:#000000; stroke-width:39.3701; stroke-opacity:1; 
stroke-linecap:round; stroke-linejoin:round;">
</g>
<g style="fill:#000000; fill-opacity:0.0; 
stroke:#000000; stroke-width:59.0551; stroke-opacity:1; 
stroke-linecap:round; stroke-linejoin:round;">
<path d="M112757 53332
L112733 53356
L112660 53381
L112611 53381
L112538 53356
L112489 53308
L112465 53259
L112440 53161
L112440 53088
L112465 52991
L112489 52942
L112538 52893
L112611 52869
L112660 52869
L112733 52893
L112757 52918
" />
</g>
<g style="fill:#000000; fill-opacity:0.0; 
stroke:#000000; stroke-width:39.3701; stroke-opacity:1; 
stroke-linecap:round; stroke-linejoin:round;">
</g>
<g style="fill:#000000; fill-opacity:0.0; 
stroke:#000000; stroke-width:59.0551; stroke-opacity:1; 
stroke-linecap:round; stroke-linejoin:round;">
<path d="M112465 73066
L112465 72554
L112587 72554
L112660 72578
L112708 72627
L112733 72676
L112757 72773
L112757 72846
L112733 72944
L112708 72993
L112660 73041
L112587 73066
L112465 73066
" />
</g>
<g style="fill:#000000; fill-opacity:0.0; 
stroke:#000000; stroke-width:39.3701; stroke-opacity:1; 
stroke-linecap:round; stroke-linejoin:round;">
</g>
<g style="fill:#000000; fill-opacity:0.0; 
stroke:#000000; stroke-width:59.0551; stroke-opacity:1; 
stroke-linecap:round; stroke-linejoin:round;">
<path d="M78881 76293
L78881 75703
L79022 75703
L79106 75731
L79162 75787
L79190 75843
L79219 75956
L79219 76040
L79190 76153
L79162 76209
L79106 76265
L79022 76293
L78881 76293
" />
<path d="M79725 76293
L79725 75984
L79697 75928
L79640 75899
L79528 75899
L79472 75928
" />
<path d="M79725 76265
L79669 76293
L79528 76293
L79472 76265
L79444 76209
L79444 76153
L79472 76096
L79528 76068
L79669 76068
L79725 76040
" />
<path d="M79922 75899
L80147 75899
" />
<path d="M80006 75703
L80006 76209
L80034 76265
L80090 76293
L80147 76293
" />
<path d="M80568 76265
L80512 76293
L80400 76293
L80343 76265
L80315 76209
L80315 75984
L80343 75928
L80400 75899
L80512 75899
L80568 75928
L80597 75984
L80597 76040
L80315 76096
" />
<path d="M80850 76237
L80878 76265
L80850 76293
L80822 76265
L80850 76237
L80850 76293
" />
<path d="M80850 75928
L80878 75956
L80850 75984
L80822 75956
L80850 75928
L80850 75984
" />
</g>
<g style="fill:#000000; fill-opacity:0.0; 
stroke:#000000; stroke-width:39.3701; stroke-opacity:1; 
stroke-linecap:round; stroke-linejoin:round;">
</g>
<g style="fill:#000000; fill-opacity:0.0; 
stroke:#000000; stroke-width:59.0551; stroke-opacity:1; 
stroke-linecap:round; stroke-linejoin:round;">
<path d="M69685 76577
L112205 76577
" />
</g>
<g style="fill:#000000; fill-opacity:0.0; 
stroke:#000000; stroke-width:39.3701; stroke-opacity:1; 
stroke-linecap:round; stroke-linejoin:round;">
</g>
<g style="fill:#000000; fill-opacity:0.0; 
stroke:#000000; stroke-width:59.0551; stroke-opacity:1; 
stroke-linecap:round; stroke-linejoin:round;">
<path d="M70220 77395
L70220 76805
" />
<path d="M70557 77395
L70304 77058
" />
<path d="M70557 76805
L70220 77142
" />
<path d="M70810 77395
L70810 77002
" />
<path d="M70810 76805
L70782 76833
L70810 76861
L70838 76833
L70810 76805
L70810 76861
" />
<path d="M71429 77339
L71401 77367
L71316 77395
L71260 77395
L71176 77367
L71120 77311
L71091 77255
L71063 77142
L71063 77058
L71091 76946
L71120 76889
L71176 76833
L71260 76805
L71316 76805
L71401 76833
L71429 76861
" />
<path d="M71935 77395
L71935 77086
L71907 77030
L71851 77002
L71738 77002
L71682 77030
" />
<path d="M71935 77367
L71879 77395
L71738 77395
L71682 77367
L71654 77311
L71654 77255
L71682 77199
L71738 77171
L71879 77171
L71935 77142
" />
<path d="M72469 77395
L72469 76805
" />
<path d="M72469 77367
L72413 77395
L72301 77395
L72244 77367
L72216 77339
L72188 77283
L72188 77114
L72216 77058
L72244 77030
L72301 77002
L72413 77002
L72469 77030
" />
<path d="M73201 77086
L73397 77086
" />
<path d="M73482 77395
L73201 77395
L73201 76805
L73482 76805
" />
<path d="M73735 77339
L73763 77367
L73735 77395
L73707 77367
L73735 77339
L73735 77395
" />
<path d="M74016 77395
L74016 76805
L74157 76805
L74241 76833
L74297 76889
L74325 76946
L74354 77058
L74354 77142
L74325 77255
L74297 77311
L74241 77367
L74157 77395
L74016 77395
" />
<path d="M74607 77339
L74635 77367
L74607 77395
L74579 77367
L74607 77339
L74607 77395
" />
<path d="M74860 77227
L75141 77227
" />
<path d="M74804 77395
L75000 76805
L75197 77395
" />
<path d="M75394 77339
L75422 77367
L75394 77395
L75366 77367
L75394 77339
L75394 77395
" />
<path d="M76575 77395
L76575 76805
" />
<path d="M76631 77171
L76800 77395
" />
<path d="M76800 77002
L76575 77227
" />
<path d="M77053 77395
L77053 77002
" />
<path d="M77053 76805
L77025 76833
L77053 76861
L77081 76833
L77053 76805
L77053 76861
" />
<path d="M77588 77367
L77531 77395
L77419 77395
L77363 77367
L77334 77339
L77306 77283
L77306 77114
L77334 77058
L77363 77030
L77419 77002
L77531 77002
L77588 77030
" />
<path d="M78094 77395
L78094 77086
L78066 77030
L78009 77002
L77897 77002
L77841 77030
" />
<path d="M78094 77367
L78037 77395
L77897 77395
L77841 77367
L77813 77311
L77813 77255
L77841 77199
L77897 77171
L78037 77171
L78094 77142
" />
<path d="M78628 77395
L78628 76805
" />
<path d="M78628 77367
L78572 77395
L78459 77395
L78403 77367
L78375 77339
L78347 77283
L78347 77114
L78375 77058
L78403 77030
L78459 77002
L78572 77002
L78628 77030
" />
<path d="M79612 77002
L79612 77395
" />
<path d="M79472 76777
L79331 77199
L79697 77199
" />
<path d="M79922 77339
L79950 77367
L79922 77395
L79894 77367
L79922 77339
L79922 77395
" />
<path d="M80315 76805
L80372 76805
L80428 76833
L80456 76861
L80484 76917
L80512 77030
L80512 77171
L80484 77283
L80456 77339
L80428 77367
L80372 77395
L80315 77395
L80259 77367
L80231 77339
L80203 77283
L80175 77171
L80175 77030
L80203 76917
L80231 76861
L80259 76833
L80315 76805
" />
<path d="M80765 77339
L80793 77367
L80765 77395
L80737 77367
L80765 77339
L80765 77395
" />
<path d="M80990 76805
L81384 76805
L81131 77395
" />
</g>
<g style="fill:#000000; fill-opacity:0.0; 
stroke:#000000; stroke-width:39.3701; stroke-opacity:1; 
stroke-linecap:round; stroke-linejoin:round;">
</g>
<g style="fill:#000000; fill-opacity:0.0; 
stroke:#000000; stroke-width:59.0551; stroke-opacity:1; 
stroke-linecap:round; stroke-linejoin:round;">
<path d="M69685 75396
L112205 75396
" />
</g>
<g style="fill:#000000; fill-opacity:0.0; 
stroke:#000000; stroke-width:39.3701; stroke-opacity:1; 
stroke-linecap:round; stroke-linejoin:round;">
</g>
<g style="fill:#000000; fill-opacity:0.0; 
stroke:#000000; stroke-width:118.11; stroke-opacity:1; 
stroke-linecap:round; stroke-linejoin:round;">
<path d="M104022 76293
L103825 76012
" />
<path d="M103684 76293
L103684 75703
L103909 75703
L103965 75731
L103994 75759
L104022 75815
L104022 75899
L103994 75956
L103965 75984
L103909 76012
L103684 76012
" />
<path d="M104500 76265
L104444 76293
L104331 76293
L104275 76265
L104247 76209
L104247 75984
L104275 75928
L104331 75899
L104444 75899
L104500 75928
L104528 75984
L104528 76040
L104247 76096
" />
<path d="M104725 75899
L104865 76293
L105006 75899
" />
<path d="M105231 76237
L105259 76265
L105231 76293
L105203 76265
L105231 76237
L105231 76293
" />
<path d="M105231 75928
L105259 75956
L105231 75984
L105203 75956
L105231 75928
L105231 75984
" />
</g>
<g style="fill:#000000; fill-opacity:0.0; 
stroke:#000000; stroke-width:39.3701; stroke-opacity:1; 
stroke-linecap:round; stroke-linejoin:round;">
</g>
<g style="fill:#000000; fill-opacity:0.0; 
stroke:#000000; stroke-width:59.0551; stroke-opacity:1; 
stroke-linecap:round; stroke-linejoin:round;">
<path d="M70192 76265
L70276 76293
L70417 76293
L70473 76265
L70501 76237
L70529 76181
L70529 76124
L70501 76068
L70473 76040
L70417 76012
L70304 75984
L70248 75956
L70220 75928
L70192 75871
L70192 75815
L70220 75759
L70248 75731
L70304 75703
L70445 75703
L70529 75731
" />
<path d="M70782 76293
L70782 75899
" />
<path d="M70782 75703
L70754 75731
L70782 75759
L70810 75731
L70782 75703
L70782 75759
" />
<path d="M71007 75899
L71316 75899
L71007 76293
L71316 76293
" />
<path d="M71766 76265
L71710 76293
L71598 76293
L71541 76265
L71513 76209
L71513 75984
L71541 75928
L71598 75899
L71710 75899
L71766 75928
L71795 75984
L71795 76040
L71513 76096
" />
<path d="M72048 76237
L72076 76265
L72048 76293
L72019 76265
L72048 76237
L72048 76293
" />
<path d="M72048 75928
L72076 75956
L72048 75984
L72019 75956
L72048 75928
L72048 75984
" />
<path d="M72751 76124
L73032 76124
" />
<path d="M72694 76293
L72891 75703
L73088 76293
" />
<path d="M73538 75899
L73538 76293
" />
<path d="M73397 75674
L73257 76096
L73622 76096
" />
</g>
<g style="fill:#000000; fill-opacity:0.0; 
stroke:#000000; stroke-width:39.3701; stroke-opacity:1; 
stroke-linecap:round; stroke-linejoin:round;">
</g>
<g style="fill:#000000; fill-opacity:0.0; 
stroke:#000000; stroke-width:59.0551; stroke-opacity:1; 
stroke-linecap:round; stroke-linejoin:round;">
<path d="M103684 77395
L103684 76805
" />
<path d="M104219 77395
L104219 76805
" />
<path d="M104219 77367
L104162 77395
L104050 77395
L103994 77367
L103965 77339
L103937 77283
L103937 77114
L103965 77058
L103994 77030
L104050 77002
L104162 77002
L104219 77030
" />
<path d="M104500 77339
L104528 77367
L104500 77395
L104472 77367
L104500 77339
L104500 77395
" />
<path d="M104500 77030
L104528 77058
L104500 77086
L104472 77058
L104500 77030
L104500 77086
" />
<path d="M105540 77395
L105203 77395
" />
<path d="M105372 77395
L105372 76805
L105315 76889
L105259 76946
L105203 76974
" />
<path d="M106215 76777
L105709 77536
" />
<path d="M106721 77395
L106384 77395
" />
<path d="M106553 77395
L106553 76805
L106496 76889
L106440 76946
L106384 76974
" />
</g>
<g style="fill:#000000; fill-opacity:0.0; 
stroke:#000000; stroke-width:39.3701; stroke-opacity:1; 
stroke-linecap:round; stroke-linejoin:round;">
</g>
<g style="fill:#000000; fill-opacity:0.0; 
stroke:#000000; stroke-width:59.0551; stroke-opacity:1; 
stroke-linecap:round; stroke-linejoin:round;">
<path d="M69685 73821
L112205 73821
" />
</g>
<g style="fill:#000000; fill-opacity:0.0; 
stroke:#000000; stroke-width:39.3701; stroke-opacity:1; 
stroke-linecap:round; stroke-linejoin:round;">
</g>
<g style="fill:#000000; fill-opacity:0.0; 
stroke:#000000; stroke-width:157.48; stroke-opacity:1; 
stroke-linecap:round; stroke-linejoin:round;">
<path d="M70257 74099
L70707 74099
" />
<path d="M70384 74886
L70482 74099
" />
<path d="M70871 74886
L70937 74361
" />
<path d="M70970 74099
L70927 74136
L70960 74174
L71002 74136
L70970 74099
L70960 74174
" />
<path d="M71199 74361
L71499 74361
" />
<path d="M71345 74099
L71260 74774
L71288 74849
L71359 74886
L71434 74886
" />
<path d="M71809 74886
L71738 74849
L71710 74774
L71795 74099
" />
<path d="M72413 74849
L72334 74886
L72184 74886
L72113 74849
L72085 74774
L72123 74474
L72169 74399
L72249 74361
L72399 74361
L72469 74399
L72498 74474
L72488 74549
L72104 74624
" />
<path d="M72793 74811
L72826 74849
L72783 74886
L72751 74849
L72793 74811
L72783 74886
" />
<path d="M72844 74399
L72877 74436
L72835 74474
L72802 74436
L72844 74399
L72835 74474
" />
</g>
<g style="fill:#000000; fill-opacity:0.0; 
stroke:#000000; stroke-width:39.3701; stroke-opacity:1; 
stroke-linecap:round; stroke-linejoin:round;">
</g>
<g style="fill:#000000; fill-opacity:0.0; 
stroke:#000000; stroke-width:59.0551; stroke-opacity:1; 
stroke-linecap:round; stroke-linejoin:round;">
<path d="M70417 73070
L70220 73070
" />
<path d="M70220 73380
L70220 72789
L70501 72789
" />
<path d="M70726 73380
L70726 72986
" />
<path d="M70726 72789
L70698 72817
L70726 72845
L70754 72817
L70726 72789
L70726 72845
" />
<path d="M71091 73380
L71035 73352
L71007 73295
L71007 72789
" />
<path d="M71541 73352
L71485 73380
L71373 73380
L71316 73352
L71288 73295
L71288 73070
L71316 73014
L71373 72986
L71485 72986
L71541 73014
L71570 73070
L71570 73127
L71288 73183
" />
<path d="M71823 73323
L71851 73352
L71823 73380
L71795 73352
L71823 73323
L71823 73380
" />
<path d="M71823 73014
L71851 73042
L71823 73070
L71795 73042
L71823 73014
L71823 73070
" />
<path d="M72751 73070
L72835 73099
L72863 73127
L72891 73183
L72891 73267
L72863 73323
L72835 73352
L72779 73380
L72554 73380
L72554 72789
L72751 72789
L72807 72817
L72835 72845
L72863 72902
L72863 72958
L72835 73014
L72807 73042
L72751 73070
L72554 73070
" />
<path d="M73116 73352
L73201 73380
L73341 73380
L73397 73352
L73426 73323
L73454 73267
L73454 73211
L73426 73155
L73397 73127
L73341 73099
L73229 73070
L73172 73042
L73144 73014
L73116 72958
L73116 72902
L73144 72845
L73172 72817
L73229 72789
L73369 72789
L73454 72817
" />
<path d="M73707 73380
L73707 72986
" />
<path d="M73707 72789
L73679 72817
L73707 72845
L73735 72817
L73707 72789
L73707 72845
" />
<path d="M74241 73380
L74241 72789
" />
<path d="M74241 73352
L74185 73380
L74072 73380
L74016 73352
L73988 73323
L73960 73267
L73960 73099
L73988 73042
L74016 73014
L74072 72986
L74185 72986
L74241 73014
" />
<path d="M74747 73352
L74691 73380
L74579 73380
L74522 73352
L74494 73295
L74494 73070
L74522 73014
L74579 72986
L74691 72986
L74747 73014
L74775 73070
L74775 73127
L74494 73183
" />
<path d="M75000 73352
L75057 73380
L75169 73380
L75225 73352
L75253 73295
L75253 73267
L75225 73211
L75169 73183
L75085 73183
L75028 73155
L75000 73099
L75000 73070
L75028 73014
L75085 72986
L75169 72986
L75225 73014
" />
<path d="M75844 73323
L75816 73352
L75732 73380
L75675 73380
L75591 73352
L75535 73295
L75507 73239
L75478 73127
L75478 73042
L75507 72930
L75535 72874
L75591 72817
L75675 72789
L75732 72789
L75816 72817
L75844 72845
" />
<path d="M76294 73070
L76378 73099
L76406 73127
L76435 73183
L76435 73267
L76406 73323
L76378 73352
L76322 73380
L76097 73380
L76097 72789
L76294 72789
L76350 72817
L76378 72845
L76406 72902
L76406 72958
L76378 73014
L76350 73042
L76294 73070
L76097 73070
" />
<path d="M77025 73380
L76828 73099
" />
<path d="M76688 73380
L76688 72789
L76913 72789
L76969 72817
L76997 72845
L77025 72902
L77025 72986
L76997 73042
L76969 73070
L76913 73099
L76688 73099
" />
<path d="M77250 72845
L77278 72817
L77334 72789
L77475 72789
L77531 72817
L77559 72845
L77588 72902
L77588 72958
L77559 73042
L77222 73380
L77588 73380
" />
<path d="M77953 72789
L78009 72789
L78066 72817
L78094 72845
L78122 72902
L78150 73014
L78150 73155
L78122 73267
L78094 73323
L78066 73352
L78009 73380
L77953 73380
L77897 73352
L77869 73323
L77841 73267
L77813 73155
L77813 73014
L77841 72902
L77869 72845
L77897 72817
L77953 72789
" />
<path d="M78712 73380
L78375 73380
" />
<path d="M78544 73380
L78544 72789
L78487 72874
L78431 72930
L78375 72958
" />
<path d="M78994 73380
L79106 73380
L79162 73352
L79190 73323
L79247 73239
L79275 73127
L79275 72902
L79247 72845
L79219 72817
L79162 72789
L79050 72789
L78994 72817
L78965 72845
L78937 72902
L78937 73042
L78965 73099
L78994 73127
L79050 73155
L79162 73155
L79219 73127
L79247 73099
L79275 73042
" />
<path d="M79528 73323
L79556 73352
L79528 73380
L79500 73352
L79528 73323
L79528 73380
" />
<path d="M79809 73380
L79809 72789
" />
<path d="M79865 73155
L80034 73380
" />
<path d="M80034 72986
L79809 73211
" />
<path d="M80287 73380
L80287 72986
" />
<path d="M80287 72789
L80259 72817
L80287 72845
L80315 72817
L80287 72789
L80287 72845
" />
<path d="M80822 73352
L80765 73380
L80653 73380
L80597 73352
L80568 73323
L80540 73267
L80540 73099
L80568 73042
L80597 73014
L80653 72986
L80765 72986
L80822 73014
" />
<path d="M81328 73380
L81328 73070
L81300 73014
L81243 72986
L81131 72986
L81075 73014
" />
<path d="M81328 73352
L81271 73380
L81131 73380
L81075 73352
L81046 73295
L81046 73239
L81075 73183
L81131 73155
L81271 73155
L81328 73127
" />
<path d="M81862 73380
L81862 72789
" />
<path d="M81862 73352
L81806 73380
L81693 73380
L81637 73352
L81609 73323
L81581 73267
L81581 73099
L81609 73042
L81637 73014
L81693 72986
L81806 72986
L81862 73014
" />
<path d="M82003 73436
L82453 73436
" />
<path d="M82593 72986
L82593 73577
" />
<path d="M82593 73014
L82649 72986
L82762 72986
L82818 73014
L82846 73042
L82874 73099
L82874 73267
L82846 73323
L82818 73352
L82762 73380
L82649 73380
L82593 73352
" />
<path d="M83381 73352
L83324 73380
L83212 73380
L83156 73352
L83127 73323
L83099 73267
L83099 73099
L83127 73042
L83156 73014
L83212 72986
L83324 72986
L83381 73014
" />
<path d="M83634 73380
L83634 72789
" />
<path d="M83634 73014
L83690 72986
L83802 72986
L83859 73014
L83887 73042
L83915 73099
L83915 73267
L83887 73323
L83859 73352
L83802 73380
L83690 73380
L83634 73352
" />
</g>
<g style="fill:#000000; fill-opacity:0.0; 
stroke:#000000; stroke-width:39.3701; stroke-opacity:1; 
stroke-linecap:round; stroke-linejoin:round;">
</g>
<g style="fill:#000000; fill-opacity:0.0; 
stroke:#000000; stroke-width:59.0551; stroke-opacity:1; 
stroke-linecap:round; stroke-linejoin:round;">
<path d="M69685 71459
L112205 71459
" />
</g>
<g style="fill:#000000; fill-opacity:0.0; 
stroke:#000000; stroke-width:39.3701; stroke-opacity:1; 
stroke-linecap:round; stroke-linejoin:round;">
</g>
<g style="fill:#000000; fill-opacity:0.0; 
stroke:#000000; stroke-width:59.0551; stroke-opacity:1; 
stroke-linecap:round; stroke-linejoin:round;">
<path d="M70192 72289
L70276 72317
L70417 72317
L70473 72289
L70501 72260
L70529 72204
L70529 72148
L70501 72092
L70473 72064
L70417 72036
L70304 72007
L70248 71979
L70220 71951
L70192 71895
L70192 71839
L70220 71782
L70248 71754
L70304 71726
L70445 71726
L70529 71754
" />
<path d="M70782 72317
L70782 71726
" />
<path d="M71035 72317
L71035 72007
L71007 71951
L70951 71923
L70867 71923
L70810 71951
L70782 71979
" />
<path d="M71541 72289
L71485 72317
L71373 72317
L71316 72289
L71288 72232
L71288 72007
L71316 71951
L71373 71923
L71485 71923
L71541 71951
L71570 72007
L71570 72064
L71288 72120
" />
<path d="M72048 72289
L71991 72317
L71879 72317
L71823 72289
L71795 72232
L71795 72007
L71823 71951
L71879 71923
L71991 71923
L72048 71951
L72076 72007
L72076 72064
L71795 72120
" />
<path d="M72244 71923
L72469 71923
" />
<path d="M72329 71726
L72329 72232
L72357 72289
L72413 72317
L72469 72317
" />
<path d="M72666 72260
L72694 72289
L72666 72317
L72638 72289
L72666 72260
L72666 72317
" />
<path d="M72666 71951
L72694 71979
L72666 72007
L72638 71979
L72666 71951
L72666 72007
" />
</g>
<g style="fill:#000000; fill-opacity:0.0; 
stroke:#000000; stroke-width:39.3701; stroke-opacity:1; 
stroke-linecap:round; stroke-linejoin:round;">
</g>
<g style="fill:#000000; fill-opacity:0.0; 
stroke:#000000; stroke-width:59.0551; stroke-opacity:1; 
stroke-linecap:round; stroke-linejoin:round;">
<path d="M77559 75396
L77559 76577
" />
</g>
<g style="fill:#000000; fill-opacity:0.0; 
stroke:#000000; stroke-width:39.3701; stroke-opacity:1; 
stroke-linecap:round; stroke-linejoin:round;">
</g>
<g style="fill:#000000; fill-opacity:0.0; 
stroke:#000000; stroke-width:59.0551; stroke-opacity:1; 
stroke-linecap:round; stroke-linejoin:round;">
<path d="M102756 75396
L102756 77955
" />
</g>
<g style="fill:#840084; fill-opacity:0.0; 
stroke:#840084; stroke-width:59.0551; stroke-opacity:1; 
stroke-linecap:round; stroke-linejoin:round;">
</g>
<g style="fill:#840084; fill-opacity:0.0; 
stroke:#840084; stroke-width:118.11; stroke-opacity:1; 
stroke-linecap:round; stroke-linejoin:round;">
<path d="M24936 58939
L24992 58967
L25105 58967
L25161 58939
L25189 58883
L25189 58658
L25161 58602
L25105 58574
L24992 58574
L24936 58602
L24908 58658
L24908 58714
L25189 58771
" />
<path d="M25161 58349
L25133 58405
L25077 58433
L25020 58433
L24964 58405
L24936 58349
" />
<path d="M24627 58377
L24683 58489
" />
<path d="M24374 58967
L24374 58377
" />
<path d="M24317 58742
L24149 58967
" />
<path d="M24149 58574
L24374 58799
" />
<path d="M23811 58967
L23867 58939
L23895 58911
L23924 58855
L23924 58686
L23895 58630
L23867 58602
L23811 58574
L23727 58574
L23670 58602
L23642 58630
L23614 58686
L23614 58855
L23642 58911
L23670 58939
L23727 58967
L23811 58967
" />
<path d="M23895 58405
L23614 58405
" />
<path d="M22742 59192
L22771 59164
L22827 59080
L22855 59024
L22883 58939
L22911 58799
L22911 58686
L22883 58546
L22855 58461
L22827 58405
L22771 58321
L22742 58293
" />
<path d="M22293 58939
L22349 58967
L22461 58967
L22517 58939
L22546 58883
L22546 58658
L22517 58602
L22461 58574
L22349 58574
L22293 58602
L22264 58658
L22264 58714
L22546 58771
" />
<path d="M21758 58939
L21814 58967
L21927 58967
L21983 58939
L22011 58911
L22039 58855
L22039 58686
L22011 58630
L21983 58602
L21927 58574
L21814 58574
L21758 58602
" />
<path d="M21393 58377
L21336 58377
L21280 58405
L21252 58433
L21224 58489
L21196 58602
L21196 58742
L21224 58855
L21252 58911
L21280 58939
L21336 58967
L21393 58967
L21449 58939
L21477 58911
L21505 58855
L21533 58742
L21533 58602
L21505 58489
L21477 58433
L21449 58405
L21393 58377
" />
<path d="M20999 59192
L20971 59164
L20915 59080
L20886 59024
L20858 58939
L20830 58799
L20830 58686
L20858 58546
L20886 58461
L20915 58405
L20971 58321
L20999 58293
" />
<path d="M24219 59943
L24275 59971
L24388 59971
L24444 59943
L24472 59915
L24500 59859
L24500 59690
L24472 59634
L24444 59606
L24388 59578
L24275 59578
L24219 59606
" />
<path d="M23994 59943
L23938 59971
L23825 59971
L23769 59943
L23741 59887
L23741 59859
L23769 59803
L23825 59775
L23910 59775
L23966 59746
L23994 59690
L23994 59662
L23966 59606
L23910 59578
L23825 59578
L23769 59606
" />
<path d="M23488 59971
L23488 59578
" />
<path d="M23488 59381
L23516 59409
L23488 59437
L23460 59409
L23488 59381
L23488 59437
" />
<path d="M23206 59971
L23206 59578
" />
<path d="M23206 59690
L23178 59634
L23150 59606
L23094 59578
L23038 59578
" />
<path d="M22588 59971
L22588 59662
L22616 59606
L22672 59578
L22785 59578
L22841 59606
" />
<path d="M22588 59943
L22644 59971
L22785 59971
L22841 59943
L22869 59887
L22869 59831
L22841 59775
L22785 59746
L22644 59746
L22588 59718
" />
<path d="M22053 59943
L22110 59971
L22222 59971
L22278 59943
L22307 59915
L22335 59859
L22335 59690
L22307 59634
L22278 59606
L22222 59578
L22110 59578
L22053 59606
" />
<path d="M21829 59437
L21800 59409
L21744 59381
L21604 59381
L21547 59409
L21519 59437
L21491 59493
L21491 59550
L21519 59634
L21857 59971
L21491 59971
" />
<path d="M24008 60975
L24008 60385
L23783 60385
L23727 60413
L23699 60441
L23670 60497
L23670 60582
L23699 60638
L23727 60666
L23783 60694
L24008 60694
" />
<path d="M23192 60947
L23249 60975
L23361 60975
L23417 60947
L23446 60891
L23446 60666
L23417 60610
L23361 60582
L23249 60582
L23192 60610
L23164 60666
L23164 60722
L23446 60778
" />
<path d="M22996 60582
L22771 60582
" />
<path d="M22911 60385
L22911 60891
L22883 60947
L22827 60975
L22771 60975
" />
<path d="M22349 60947
L22405 60975
L22517 60975
L22574 60947
L22602 60891
L22602 60666
L22574 60610
L22517 60582
L22405 60582
L22349 60610
L22321 60666
L22321 60722
L22602 60778
" />
<path d="M22068 60975
L22068 60582
" />
<path d="M22068 60694
L22039 60638
L22011 60610
L21955 60582
L21899 60582
" />
</g>
<g style="fill:#840084; fill-opacity:0.0; 
stroke:#840084; stroke-width:78.7402; stroke-opacity:1; 
stroke-linecap:round; stroke-linejoin:round;">
<path d="M17417 42385
L17417 45385
" />
<path d="M15921 42385
L17417 42385
" />
<path d="M15417 42897
L15921 42385
" />
<path d="M15417 45393
L15417 42897
" />
<path d="M15874 45393
L15417 45393
" />
<path d="M15425 47354
L15425 45850
" />
<path d="M17417 47354
L15425 47354
" />
<path d="M17421 45385
L17417 47354
" />
<path d="M15885 45385
L17421 45385
" />
<path d="M15429 45850
L15885 45385
" />
<circle cx="15240.2" cy="42897.6" r="147.782" /> 
<circle cx="15232.3" cy="45811" r="63.4823" /> 
</g>
<g style="fill:#C2C200; fill-opacity:0.0; 
stroke:#C2C200; stroke-width:78.7402; stroke-opacity:1; 
stroke-linecap:round; stroke-linejoin:round;">
</g>
<g style="fill:#C2C200; fill-opacity:0.0; 
stroke:#C2C200; stroke-width:59.0551; stroke-opacity:1; 
stroke-linecap:round; stroke-linejoin:round;">
<path d="M31732 46535
L31653 49015
" />
<path d="M15098 50220
L15275 53149
" />
<circle cx="23602.4" cy="19547.2" r="1144.44" /> 
<path d="M14547 40964
L14606 42933
" />
<path d="M30748 60393
L31653 49015
" />
<path d="M15708 58503
L15807 59133
" />
<path d="M30649 60669
L30748 60393
" />
<path d="M29940 61377
L30649 60669
" />
<path d="M29547 61633
L29940 61377
" />
<path d="M29133 61811
L29547 61633
" />
<path d="M28149 62027
L29133 61811
" />
<path d="M26811 62165
L28149 62027
" />
<path d="M24035 62244
L26811 62165
" />
<path d="M21062 62224
L24035 62244
" />
<path d="M18681 62007
L21062 62224
" />
<path d="M18011 61850
L18681 62007
" />
<path d="M17480 61633
L18011 61850
" />
<path d="M17125 61377
L17480 61633
" />
<path d="M16751 61023
L17125 61377
" />
<path d="M16476 60649
L16751 61023
" />
<path d="M15944 59645
L16476 60649
" />
<path d="M15807 59133
L15944 59645
" />
<path d="M15629 57755
L15708 58503
" />
<path d="M15275 53149
L15629 57755
" />
<path d="M14921 47657
L15098 50216
" />
<path d="M14724 44901
L14921 47657
" />
<path d="M14606 42933
L14724 44901
" />
<path d="M14409 36988
L14547 40964
" />
<path d="M14409 35807
L14409 36988
" />
<path d="M14547 30511
L14409 35807
" />
<path d="M14803 25570
L14547 30511
" />
<path d="M15000 23444
L14803 25570
" />
<path d="M15295 21377
L15000 23444
" />
<path d="M15748 19291
L15295 21377
" />
<path d="M16003 18799
L15748 19291
" />
<path d="M16358 18444
L16003 18799
" />
<path d="M16850 18110
L16358 18444
" />
<path d="M17322 17893
L16850 18110
" />
<path d="M17874 17716
L17322 17893
" />
<path d="M18464 17598
L17874 17716
" />
<path d="M20728 17381
L18464 17598
" />
<path d="M22696 17322
L20728 17381
" />
<path d="M24645 17322
L22696 17322
" />
<path d="M26574 17440
L24645 17322
" />
<path d="M28622 17637
L26574 17440
" />
<path d="M29527 17913
L28622 17637
" />
<path d="M30531 18543
L29527 17913
" />
<path d="M31062 19448
L30531 18543
" />
<path d="M31240 20275
L31062 19448
" />
<path d="M31633 23070
L31240 20275
" />
<path d="M31811 25984
L31633 23070
" />
<path d="M31929 27952
L31811 25984
" />
<path d="M32027 29527
L31929 27952
" />
<path d="M32106 31496
L32027 29527
" />
<path d="M32047 35826
L32106 31496
" />
<path d="M32007 37401
L32047 35826
" />
<path d="M31909 40314
L32007 37401
" />
<path d="M31732 46535
L31909 40314
" />
</g>
<g style="fill:#840084; fill-opacity:0.0; 
stroke:#840084; stroke-width:59.0551; stroke-opacity:1; 
stroke-linecap:round; stroke-linejoin:round;">
<path d="M18989 58663
L18933 58682
L18839 58682
L18802 58663
L18783 58644
L18764 58607
L18764 58569
L18783 58532
L18802 58513
L18839 58494
L18914 58475
L18952 58457
L18970 58438
L18989 58400
L18989 58363
L18970 58325
L18952 58307
L18914 58288
L18820 58288
L18764 58307
" />
<path d="M18633 58288
L18539 58682
L18464 58400
L18389 58682
L18295 58288
" />
<path d="M17939 58682
L18164 58682
" />
<path d="M18052 58682
L18052 58288
L18089 58344
L18127 58382
L18164 58400
" />
<path d="M19036 55040
L19167 54852
" />
<path d="M19261 55040
L19261 54646
L19111 54646
L19073 54665
L19055 54684
L19036 54721
L19036 54777
L19055 54815
L19073 54834
L19111 54852
L19261 54852
" />
<path d="M18867 54834
L18736 54834
" />
<path d="M18680 55040
L18867 55040
L18867 54646
L18680 54646
" />
<path d="M18530 55021
L18473 55040
L18380 55040
L18342 55021
L18323 55002
L18305 54965
L18305 54927
L18323 54890
L18342 54871
L18380 54852
L18455 54834
L18492 54815
L18511 54796
L18530 54759
L18530 54721
L18511 54684
L18492 54665
L18455 54646
L18361 54646
L18305 54665
" />
<path d="M18136 54834
L18005 54834
" />
<path d="M17949 55040
L18136 55040
L18136 54646
L17949 54646
" />
<path d="M17836 54646
L17611 54646
" />
<path d="M17724 55040
L17724 54646
" />
</g>
<g style="fill:#840084; fill-opacity:0.0; 
stroke:#840084; stroke-width:100; stroke-opacity:1; 
stroke-linecap:round; stroke-linejoin:round;">
<path d="M23988 41765
L23988 41265
" />
<path d="M23464 41717
L23488 41741
L23559 41765
L23607 41765
L23678 41741
L23726 41694
L23750 41646
L23773 41551
L23773 41479
L23750 41384
L23726 41336
L23678 41289
L23607 41265
L23559 41265
L23488 41289
L23464 41313
" />
<path d="M22988 41765
L23273 41765
" />
<path d="M23130 41765
L23130 41265
L23178 41336
L23226 41384
L23273 41408
" />
<path d="M19816 41311
L20221 41311
L20269 41335
L20292 41359
L20316 41407
L20316 41502
L20292 41550
L20269 41573
L20221 41597
L19816 41597
" />
<path d="M20316 42097
L20316 41811
" />
<path d="M20316 41954
L19816 41954
L19888 41907
L19935 41859
L19959 41811
" />
</g>
<g style="fill:#840000; fill-opacity:0.0; 
stroke:#840000; stroke-width:100; stroke-opacity:1; 
stroke-linecap:round; stroke-linejoin:round;">
</g>
<g style="fill:#840000; fill-opacity:0.0; 
stroke:#840000; stroke-width:49.2126; stroke-opacity:1; 
stroke-linecap:round; stroke-linejoin:round;">
<path d="M18137 46679
L18146 46670
L18155 46642
L18155 46623
L18146 46595
L18127 46576
L18109 46567
L18071 46557
L18043 46557
L18005 46567
L17987 46576
L17968 46595
L17959 46623
L17959 46642
L17968 46670
L17977 46679
" />
<path d="M17959 46801
L17959 46820
L17968 46839
L17977 46848
L17996 46857
L18034 46867
L18080 46867
L18118 46857
L18137 46848
L18146 46839
L18155 46820
L18155 46801
L18146 46782
L18137 46773
L18118 46764
L18080 46754
L18034 46754
L17996 46764
L17977 46773
L17968 46782
L17959 46801
" />
</g>
<g style="fill:#840000; fill-opacity:0.0; 
stroke:#840000; stroke-width:59.0551; stroke-opacity:1; 
stroke-linecap:round; stroke-linejoin:round;">
<path d="M28463 40640
L28482 40659
L28538 40678
L28575 40678
L28631 40659
L28669 40621
L28688 40584
L28706 40509
L28706 40453
L28688 40378
L28669 40340
L28631 40303
L28575 40284
L28538 40284
L28482 40303
L28463 40321
" />
<path d="M28088 40678
L28313 40678
" />
<path d="M28200 40678
L28200 40284
L28238 40340
L28275 40378
L28313 40396
" />
<path d="M28494 42254
L28513 42273
L28569 42292
L28607 42292
L28663 42273
L28700 42236
L28719 42198
L28738 42123
L28738 42067
L28719 41992
L28700 41954
L28663 41917
L28607 41898
L28569 41898
L28513 41917
L28494 41936
" />
<path d="M28344 41936
L28326 41917
L28288 41898
L28194 41898
L28157 41917
L28138 41936
L28119 41973
L28119 42011
L28138 42067
L28363 42292
L28119 42292
" />
<path d="M28494 41424
L28513 41442
L28569 41461
L28607 41461
L28663 41442
L28700 41405
L28719 41367
L28738 41292
L28738 41236
L28719 41161
L28700 41124
L28663 41086
L28607 41067
L28569 41067
L28513 41086
L28494 41105
" />
<path d="M28363 41067
L28119 41067
L28251 41217
L28194 41217
L28157 41236
L28138 41255
L28119 41292
L28119 41386
L28138 41424
L28157 41442
L28194 41461
L28307 41461
L28344 41442
L28363 41424
" />
<path d="M28510 43097
L28529 43116
L28585 43134
L28622 43134
L28679 43116
L28716 43078
L28735 43041
L28754 42966
L28754 42909
L28735 42834
L28716 42797
L28679 42759
L28622 42741
L28585 42741
L28529 42759
L28510 42778
" />
<path d="M28173 42872
L28173 43134
" />
<path d="M28266 42722
L28360 43003
L28116 43003
" />
</g>
<g style="fill:#840000; fill-opacity:0.0; 
stroke:#840000; stroke-width:49.2126; stroke-opacity:1; 
stroke-linecap:round; stroke-linejoin:round;">
<path d="M20889 50047
L20898 50038
L20907 50010
L20907 49991
L20898 49963
L20879 49944
L20861 49935
L20823 49925
L20795 49925
L20757 49935
L20739 49944
L20720 49963
L20711 49991
L20711 50010
L20720 50038
L20729 50047
" />
<path d="M20907 50131
L20711 50131
L20851 50197
L20711 50263
L20907 50263
" />
<path d="M20907 50460
L20907 50347
" />
<path d="M20907 50403
L20711 50403
L20739 50385
L20757 50366
L20767 50347
" />
<path d="M19696 50000
L19705 49991
L19715 49962
L19715 49944
L19705 49916
L19686 49897
L19668 49887
L19630 49878
L19602 49878
L19565 49887
L19546 49897
L19527 49916
L19518 49944
L19518 49962
L19527 49991
L19536 50000
" />
<path d="M19715 50084
L19518 50084
L19658 50150
L19518 50215
L19715 50215
" />
<path d="M19536 50300
L19527 50309
L19518 50328
L19518 50375
L19527 50394
L19536 50403
L19555 50412
L19574 50412
L19602 50403
L19715 50290
L19715 50412
" />
<path d="M18487 50020
L18497 50010
L18506 49982
L18506 49963
L18497 49935
L18478 49916
L18459 49907
L18422 49898
L18393 49898
L18356 49907
L18337 49916
L18318 49935
L18309 49963
L18309 49982
L18318 50010
L18328 50020
" />
<path d="M18506 50104
L18309 50104
L18450 50170
L18309 50235
L18506 50235
" />
<path d="M18309 50310
L18309 50432
L18384 50366
L18384 50395
L18393 50413
L18403 50423
L18422 50432
L18468 50432
L18487 50423
L18497 50413
L18506 50395
L18506 50338
L18497 50320
L18487 50310
" />
<path d="M27556 43928
L27565 43946
L27593 43965
L27612 43965
L27640 43946
L27659 43909
L27668 43871
L27678 43796
L27678 43740
L27668 43665
L27659 43628
L27640 43590
L27612 43571
L27593 43571
L27565 43590
L27556 43609
" />
<path d="M27359 43965
L27425 43778
" />
<path d="M27472 43965
L27472 43571
L27397 43571
L27378 43590
L27368 43609
L27359 43646
L27359 43703
L27368 43740
L27378 43759
L27397 43778
L27472 43778
" />
<path d="M27172 43965
L27284 43965
" />
<path d="M27228 43965
L27228 43571
L27247 43628
L27265 43665
L27284 43684
" />
<path d="M21086 46561
L21095 46552
L21104 46524
L21104 46505
L21095 46477
L21076 46458
L21057 46449
L21020 46439
L20992 46439
L20954 46449
L20936 46458
L20917 46477
L20907 46505
L20907 46524
L20917 46552
L20926 46561
" />
<path d="M21104 46758
L21011 46692
" />
<path d="M21104 46646
L20907 46646
L20907 46721
L20917 46739
L20926 46749
L20945 46758
L20973 46758
L20992 46749
L21001 46739
L21011 46721
L21011 46646
" />
<path d="M20926 46833
L20917 46842
L20907 46861
L20907 46908
L20917 46927
L20926 46936
L20945 46946
L20964 46946
L20992 46936
L21104 46824
L21104 46946
" />
</g>
<g style="fill:#840084; fill-opacity:0.0; 
stroke:#840084; stroke-width:49.2126; stroke-opacity:1; 
stroke-linecap:round; stroke-linejoin:round;">
</g>
<g style="fill:#840084; fill-opacity:0.0; 
stroke:#840084; stroke-width:59.0551; stroke-opacity:1; 
stroke-linecap:round; stroke-linejoin:round;">
<path d="M17184 40729
L17184 40335
L17090 40335
L17034 40354
L16996 40391
L16978 40429
L16959 40504
L16959 40560
L16978 40635
L16996 40673
L17034 40710
L17090 40729
L17184 40729
" />
<path d="M16603 40335
L16790 40335
L16809 40523
L16790 40504
L16753 40485
L16659 40485
L16621 40504
L16603 40523
L16584 40560
L16584 40654
L16603 40691
L16621 40710
L16659 40729
L16753 40729
L16790 40710
L16809 40691
" />
</g>
<g style="fill:#840000; fill-opacity:0.0; 
stroke:#840000; stroke-width:59.0551; stroke-opacity:1; 
stroke-linecap:round; stroke-linejoin:round;">
</g>
<g style="fill:#840000; fill-opacity:0.0; 
stroke:#840000; stroke-width:49.2126; stroke-opacity:1; 
stroke-linecap:round; stroke-linejoin:round;">
<path d="M19183 46738
L19183 46645
L18986 46645
" />
<path d="M18986 46841
L18986 46860
L18996 46879
L19005 46888
L19024 46898
L19061 46907
L19108 46907
L19146 46898
L19164 46888
L19174 46879
L19183 46860
L19183 46841
L19174 46823
L19164 46813
L19146 46804
L19108 46795
L19061 46795
L19024 46804
L19005 46813
L18996 46823
L18986 46841
" />
</g>
<g style="fill:#840084; fill-opacity:0.0; 
stroke:#840084; stroke-width:49.2126; stroke-opacity:1; 
stroke-linecap:round; stroke-linejoin:round;">
</g>
<g style="fill:#840084; fill-opacity:0.0; 
stroke:#840084; stroke-width:29.5276; stroke-opacity:1; 
stroke-linecap:round; stroke-linejoin:round;">
<path d="M16553 48434
L16553 48340
L16356 48340
" />
<path d="M16544 48584
L16553 48565
L16553 48528
L16544 48509
L16534 48500
L16516 48490
L16459 48490
L16441 48500
L16431 48509
L16422 48528
L16422 48565
L16431 48584
" />
<path d="M16553 48668
L16356 48668
" />
<path d="M16553 48753
L16450 48753
L16431 48743
L16422 48724
L16422 48696
L16431 48678
L16441 48668
" />
<path d="M16553 48874
L16544 48856
L16534 48846
L16516 48837
L16459 48837
L16441 48846
L16431 48856
L16422 48874
L16422 48903
L16431 48921
L16441 48931
L16459 48940
L16516 48940
L16534 48931
L16544 48921
L16553 48903
L16553 48874
" />
<path d="M16553 49024
L16356 49024
" />
<path d="M16478 49043
L16553 49099
" />
<path d="M16422 49099
L16497 49024
" />
<path d="M16544 49259
L16553 49240
L16553 49203
L16544 49184
L16525 49174
L16450 49174
L16431 49184
L16422 49203
L16422 49240
L16431 49259
L16450 49268
L16469 49268
L16488 49174
" />
<path d="M16553 49456
L16553 49343
" />
<path d="M16553 49399
L16356 49399
L16384 49381
L16403 49362
L16413 49343
" />
<path d="M20873 48514
L20967 48514
L20967 48317
" />
<path d="M20808 48514
L20808 48317
L20742 48458
L20676 48317
L20676 48514
" />
<path d="M20479 48514
L20592 48514
" />
<path d="M20536 48514
L20536 48317
L20554 48345
L20573 48364
L20592 48373
" />
<path d="M18905 48514
L18998 48514
L18998 48317
" />
<path d="M18839 48514
L18839 48317
L18773 48458
L18708 48317
L18708 48514
" />
<path d="M18623 48336
L18614 48326
L18595 48317
L18548 48317
L18530 48326
L18520 48336
L18511 48354
L18511 48373
L18520 48401
L18633 48514
L18511 48514
" />
<path d="M19509 44967
L19602 44967
L19602 44770
" />
<path d="M19331 44967
L19396 44873
" />
<path d="M19443 44967
L19443 44770
L19368 44770
L19349 44779
L19340 44788
L19331 44807
L19331 44835
L19340 44854
L19349 44863
L19368 44873
L19443 44873
" />
<path d="M19143 44967
L19256 44967
" />
<path d="M19199 44967
L19199 44770
L19218 44798
L19237 44817
L19256 44826
" />
<path d="M20116 46616
L20116 46523
L19919 46523
" />
<path d="M20116 46794
L20022 46729
" />
<path d="M20116 46682
L19919 46682
L19919 46757
L19929 46776
L19938 46785
L19957 46794
L19985 46794
L20004 46785
L20013 46776
L20022 46757
L20022 46682
" />
<path d="M19938 46869
L19929 46879
L19919 46898
L19919 46944
L19929 46963
L19938 46973
L19957 46982
L19976 46982
L20004 46973
L20116 46860
L20116 46982
" />
</g>
<g style="fill:#840000; fill-opacity:0.0; 
stroke:#840000; stroke-width:29.5276; stroke-opacity:1; 
stroke-linecap:round; stroke-linejoin:round;">
</g>
<g style="fill:#840000; fill-opacity:0.0; 
stroke:#840000; stroke-width:59.0551; stroke-opacity:1; 
stroke-linecap:round; stroke-linejoin:round;">
<path d="M20056 38855
L19868 38724
" />
<path d="M20056 38630
L19662 38630
L19662 38780
L19681 38818
L19699 38836
L19737 38855
L19793 38855
L19831 38836
L19849 38818
L19868 38780
L19868 38630
" />
<path d="M20056 39230
L20056 39005
" />
<path d="M20056 39118
L19662 39118
L19718 39080
L19756 39043
L19774 39005
" />
<path d="M15229 38363
L15041 38232
" />
<path d="M15229 38138
L14835 38138
L14835 38288
L14854 38326
L14873 38344
L14910 38363
L14966 38363
L15004 38344
L15023 38326
L15041 38288
L15041 38138
" />
<path d="M14835 38494
L14835 38738
L14985 38607
L14985 38663
L15004 38700
L15023 38719
L15060 38738
L15154 38738
L15191 38719
L15210 38700
L15229 38663
L15229 38550
L15210 38513
L15191 38494
" />
<path d="M17439 41516
L17570 41329
" />
<path d="M17664 41516
L17664 41122
L17514 41122
L17477 41141
L17458 41160
L17439 41197
L17439 41254
L17458 41291
L17477 41310
L17514 41329
L17664 41329
" />
<path d="M17102 41254
L17102 41516
" />
<path d="M17195 41104
L17289 41385
L17045 41385
" />
</g>
<g style="fill:#840084; fill-opacity:0.0; 
stroke:#840084; stroke-width:59.0551; stroke-opacity:1; 
stroke-linecap:round; stroke-linejoin:round;">
</g>
<g style="fill:#840084; fill-opacity:0.0; 
stroke:#840084; stroke-width:29.5276; stroke-opacity:1; 
stroke-linecap:round; stroke-linejoin:round;">
<path d="M17207 51273
L17113 51207
" />
<path d="M17207 51161
L17010 51161
L17010 51236
L17019 51254
L17029 51264
L17047 51273
L17075 51273
L17094 51264
L17104 51254
L17113 51236
L17113 51161
" />
<path d="M17010 51395
L17010 51432
L17019 51451
L17038 51470
L17075 51479
L17141 51479
L17179 51470
L17197 51451
L17207 51432
L17207 51395
L17197 51376
L17179 51357
L17141 51348
L17075 51348
L17038 51357
L17019 51376
L17010 51395
" />
<path d="M17188 51676
L17197 51667
L17207 51639
L17207 51620
L17197 51592
L17179 51573
L17160 51564
L17122 51554
L17094 51554
L17057 51564
L17038 51573
L17019 51592
L17010 51620
L17010 51639
L17019 51667
L17029 51676
" />
<path d="M17207 51864
L17207 51751
" />
<path d="M17207 51807
L17010 51807
L17038 51789
L17057 51770
L17066 51751
" />
</g>
<g style="fill:#840000; fill-opacity:0.0; 
stroke:#840000; stroke-width:29.5276; stroke-opacity:1; 
stroke-linecap:round; stroke-linejoin:round;">
</g>
<g style="fill:#840000; fill-opacity:0.0; 
stroke:#840000; stroke-width:59.0551; stroke-opacity:1; 
stroke-linecap:round; stroke-linejoin:round;">
<path d="M26124 42333
L26124 42520
" />
<path d="M26255 42126
L26124 42333
L25993 42126
" />
<path d="M25880 42164
L25862 42145
L25824 42126
L25730 42126
L25693 42145
L25674 42164
L25655 42201
L25655 42239
L25674 42295
L25899 42520
L25655 42520
" />
<path d="M17797 38470
L17797 38658
" />
<path d="M17928 38264
L17797 38470
L17666 38264
" />
<path d="M17329 38658
L17553 38658
" />
<path d="M17441 38658
L17441 38264
L17479 38320
L17516 38358
L17553 38377
" />
<path d="M28754 32633
L28697 32652
L28679 32670
L28660 32708
L28660 32764
L28679 32802
L28697 32820
L28735 32839
L28885 32839
L28885 32445
L28754 32445
L28716 32464
L28697 32483
L28679 32520
L28679 32558
L28697 32595
L28716 32614
L28754 32633
L28885 32633
" />
<path d="M28547 32445
L28323 32445
" />
<path d="M28435 32839
L28435 32445
" />
<path d="M27985 32839
L28210 32839
" />
<path d="M28098 32839
L28098 32445
L28135 32502
L28173 32539
L28210 32558
" />
</g>
<g style="fill:#840084; fill-opacity:0.0; 
stroke:#840084; stroke-width:59.0551; stroke-opacity:1; 
stroke-linecap:round; stroke-linejoin:round;">
<path d="M15280 43547
L15280 43360
L14886 43360
" />
<path d="M15261 43660
L15280 43716
L15280 43810
L15261 43847
L15242 43866
L15205 43885
L15167 43885
L15130 43866
L15111 43847
L15092 43810
L15074 43735
L15055 43697
L15036 43678
L14999 43660
L14961 43660
L14924 43678
L14905 43697
L14886 43735
L14886 43828
L14905 43885
" />
<path d="M15167 44035
L15167 44222
" />
<path d="M15280 43997
L14886 44128
L15280 44260
" />
<path d="M14886 44466
L14886 44541
L14905 44578
L14943 44616
L15017 44634
L15149 44634
L15224 44616
L15261 44578
L15280 44541
L15280 44466
L15261 44428
L15224 44391
L15149 44372
L15017 44372
L14943 44391
L14905 44428
L14886 44466
" />
<path d="M16857 47871
L16801 47890
L16707 47890
L16670 47871
L16651 47853
L16632 47815
L16632 47778
L16651 47740
L16670 47721
L16707 47703
L16782 47684
L16820 47665
L16838 47646
L16857 47609
L16857 47571
L16838 47534
L16820 47515
L16782 47497
L16688 47497
L16632 47515
" />
<path d="M16482 47778
L16295 47778
" />
<path d="M16520 47890
L16388 47497
L16257 47890
" />
<path d="M16051 47497
L15976 47497
L15938 47515
L15901 47553
L15882 47628
L15882 47759
L15901 47834
L15938 47871
L15976 47890
L16051 47890
L16088 47871
L16126 47834
L16145 47759
L16145 47628
L16126 47553
L16088 47515
L16051 47497
" />
</g>
<g style="fill:#840084; fill-opacity:0.0; 
stroke:#840084; stroke-width:47.2441; stroke-opacity:1; 
stroke-linecap:round; stroke-linejoin:round;">
<path d="M19744 55649
L19744 55393
" />
<path d="M19744 55393
L17185 55393
" />
<path d="M17185 55393
L17185 55649
" />
<path d="M19744 57814
L19744 58070
" />
<path d="M19744 58070
L17185 58070
" />
<path d="M17185 58070
L17185 57814
" />
<path d="M19744 57224
L19744 56240
" />
<path d="M17185 57224
L17185 56240
" />
</g>
<g style="fill:#840084; fill-opacity:0.0; 
stroke:#840084; stroke-width:100; stroke-opacity:1; 
stroke-linecap:round; stroke-linejoin:round;">
<circle cx="24281.5" cy="42110.2" r="49.2126" /> 
</g>
<g style="fill:#840084; fill-opacity:0.0; 
stroke:#840084; stroke-width:78.7402; stroke-opacity:1; 
stroke-linecap:round; stroke-linejoin:round;">
<path d="M18850 40452
L18850 42933
" />
<path d="M18850 42933
L21330 42933
" />
<path d="M21330 42933
L21330 40452
" />
<path d="M21330 40452
L18850 40452
" />
</g>
<g style="fill:#840084; fill-opacity:0.0; 
stroke:#840084; stroke-width:100; stroke-opacity:1; 
stroke-linecap:round; stroke-linejoin:round;">
<circle cx="18515.7" cy="39881.9" r="78.7402" /> 
</g>
<g style="fill:#840084; fill-opacity:0.0; 
stroke:#840084; stroke-width:47.2441; stroke-opacity:1; 
stroke-linecap:round; stroke-linejoin:round;">
<path d="M18429 46527
L18429 46921
" />
<path d="M17759 46921
L17759 46527
" />
<path d="M28208 40141
L28602 40141
" />
<path d="M28602 40811
L28208 40811
" />
<path d="M28208 41755
L28602 41755
" />
<path d="M28602 42425
L28208 42425
" />
<path d="M28208 40929
L28602 40929
" />
<path d="M28602 41598
L28208 41598
" />
<path d="M28204 42598
L28598 42598
" />
<path d="M28598 43267
L28204 43267
" />
<path d="M20448 50370
L20448 49976
" />
<path d="M21118 49976
L21118 50370
" />
<path d="M19271 50358
L19271 49964
" />
<path d="M19940 49964
L19940 50358
" />
<path d="M18059 50358
L18059 49964
" />
<path d="M18728 49964
L18728 50358
" />
<path d="M27220 43437
L27614 43437
" />
<path d="M27614 44106
L27220 44106
" />
<path d="M20653 46897
L20653 46503
" />
<path d="M21322 46503
L21322 46897
" />
<path d="M14901 40885
L14901 40216
" />
<path d="M14901 40216
L16141 40216
" />
<path d="M14901 40885
L16141 40885
" />
<path d="M19417 46992
L19417 46519
" />
<path d="M18724 46519
L18724 46992
" />
<path d="M16748 48696
L16748 49169
" />
<path d="M17440 49169
L17440 48696
" />
<path d="M20964 48078
L20492 48078
" />
<path d="M20492 48771
L20964 48771
" />
<path d="M18523 48771
L18996 48771
" />
<path d="M18996 48078
L18523 48078
" />
<path d="M19614 44531
L19141 44531
" />
<path d="M19141 45224
L19614 45224
" />
<path d="M19681 46511
L19681 46984
" />
<path d="M20374 46984
L20374 46511
" />
<path d="M18838 38094
L18838 38566
" />
<path d="M19531 38566
L19531 38094
" />
<path d="M15401 38208
L15401 38681
" />
<path d="M16094 38681
L16094 38208
" />
<path d="M15767 41685
L16240 41685
" />
<path d="M16240 40992
L15767 40992
" />
<path d="M16771 51271
L16771 51744
" />
<path d="M17464 51744
L17464 51271
" />
<path d="M24874 42027
L24874 40255
" />
<path d="M24874 40255
L27000 40255
" />
<path d="M18720 36299
L18720 38070
" />
<path d="M18720 38070
L16594 38070
" />
<path d="M26580.9 37878.7 A4442.91 4442.91 0.0 0 0 27701.6 36106.3 " />
<path d="M20403.4 31491.4 A4442.91 4442.91 0.0 0 0 19282.7 33263.8 " />
<path d="M19282.7 36106.3 A4442.91 4442.91 0.0 0 0 20403.4 37878.7 " />
<path d="M27701.6 33263.8 A4442.91 4442.91 0.0 0 0 26580.9 31491.4 " />
<path d="M29125 35433
L29125 36106
" />
<path d="M27701 36106
L29125 36106
" />
<path d="M25011 37877
L26581 37877
" />
<path d="M24145 37011
L25011 37877
" />
<path d="M22838 37011
L24145 37011
" />
<path d="M22838 37011
L21972 37877
" />
<path d="M20402 37877
L21972 37877
" />
<path d="M17858 35433
L17858 36106
" />
<path d="M17858 36106
L19282 36106
" />
<path d="M19282 33263
L17858 33263
" />
<path d="M17858 33937
L17858 33263
" />
<path d="M26581 31492
L20402 31492
" />
<path d="M29125 33937
L29125 33263
" />
<path d="M29125 33263
L27701 33263
" />
</g> 
</svg>
