%FSLAX45Y45*%
G04 Gerber Fmt 4.5, Leading zero omitted, Abs format (unit mm)*
G04 Created by KiCad (PCBNEW 4.0.7) date Mon Aug 20 12:58:33 2018*
%MOMM*%
%LPD*%
G01*
G04 APERTURE LIST*
%ADD10C,0.127000*%
%ADD11C,0.150000*%
%ADD12C,0.200000*%
%ADD13C,0.300000*%
G04 APERTURE END LIST*
D10*
D11*
X8060000Y-11820000D02*
X8040000Y-12450000D01*
X3835000Y-12756000D02*
X3880000Y-13500000D01*
X6285689Y-4965000D02*
G75*
G03X6285689Y-4965000I-290689J0D01*
G01*
X3695000Y-10405000D02*
X3710000Y-10905000D01*
X7810000Y-15340000D02*
X8040000Y-12450000D01*
X3990000Y-14860000D02*
X4015000Y-15020000D01*
X7785000Y-15410000D02*
X7810000Y-15340000D01*
X7605000Y-15590000D02*
X7785000Y-15410000D01*
X7505000Y-15655000D02*
X7605000Y-15590000D01*
X7400000Y-15700000D02*
X7505000Y-15655000D01*
X7150000Y-15755000D02*
X7400000Y-15700000D01*
X6810000Y-15790000D02*
X7150000Y-15755000D01*
X6105000Y-15810000D02*
X6810000Y-15790000D01*
X5350000Y-15805000D02*
X6105000Y-15810000D01*
X4745000Y-15750000D02*
X5350000Y-15805000D01*
X4575000Y-15710000D02*
X4745000Y-15750000D01*
X4440000Y-15655000D02*
X4575000Y-15710000D01*
X4350000Y-15590000D02*
X4440000Y-15655000D01*
X4255000Y-15500000D02*
X4350000Y-15590000D01*
X4185000Y-15405000D02*
X4255000Y-15500000D01*
X4050000Y-15150000D02*
X4185000Y-15405000D01*
X4015000Y-15020000D02*
X4050000Y-15150000D01*
X3970000Y-14670000D02*
X3990000Y-14860000D01*
X3880000Y-13500000D02*
X3970000Y-14670000D01*
X3790000Y-12105000D02*
X3835000Y-12755000D01*
X3740000Y-11405000D02*
X3790000Y-12105000D01*
X3710000Y-10905000D02*
X3740000Y-11405000D01*
X3660000Y-9395000D02*
X3695000Y-10405000D01*
X3660000Y-9095000D02*
X3660000Y-9395000D01*
X3695000Y-7750000D02*
X3660000Y-9095000D01*
X3760000Y-6495000D02*
X3695000Y-7750000D01*
X3810000Y-5955000D02*
X3760000Y-6495000D01*
X3885000Y-5430000D02*
X3810000Y-5955000D01*
X4000000Y-4900000D02*
X3885000Y-5430000D01*
X4065000Y-4775000D02*
X4000000Y-4900000D01*
X4155000Y-4685000D02*
X4065000Y-4775000D01*
X4280000Y-4600000D02*
X4155000Y-4685000D01*
X4400000Y-4545000D02*
X4280000Y-4600000D01*
X4540000Y-4500000D02*
X4400000Y-4545000D01*
X4690000Y-4470000D02*
X4540000Y-4500000D01*
X5265000Y-4415000D02*
X4690000Y-4470000D01*
X5765000Y-4400000D02*
X5265000Y-4415000D01*
X6260000Y-4400000D02*
X5765000Y-4400000D01*
X6750000Y-4430000D02*
X6260000Y-4400000D01*
X7270000Y-4480000D02*
X6750000Y-4430000D01*
X7500000Y-4550000D02*
X7270000Y-4480000D01*
X7755000Y-4710000D02*
X7500000Y-4550000D01*
X7890000Y-4940000D02*
X7755000Y-4710000D01*
X7935000Y-5150000D02*
X7890000Y-4940000D01*
X8035000Y-5860000D02*
X7935000Y-5150000D01*
X8080000Y-6600000D02*
X8035000Y-5860000D01*
X8110000Y-7100000D02*
X8080000Y-6600000D01*
X8135000Y-7500000D02*
X8110000Y-7100000D01*
X8155000Y-8000000D02*
X8135000Y-7500000D01*
X8140000Y-9100000D02*
X8155000Y-8000000D01*
X8130000Y-9500000D02*
X8140000Y-9100000D01*
X8105000Y-10240000D02*
X8130000Y-9500000D01*
X8060000Y-11820000D02*
X8105000Y-10240000D01*
D12*
X3830000Y-10280000D02*
X3870000Y-10320000D01*
X3870000Y-10280000D02*
X3830000Y-10320000D01*
X4164997Y-9915000D02*
X4204997Y-9955000D01*
X4204997Y-9915000D02*
X4164997Y-9955000D01*
X4328000Y-13198000D02*
X4368000Y-13238000D01*
X4368000Y-13198000D02*
X4328000Y-13238000D01*
X4393610Y-10430001D02*
X4433610Y-10470001D01*
X4433610Y-10430001D02*
X4393610Y-10470001D01*
X4658000Y-10690000D02*
X4698000Y-10730000D01*
X4698000Y-10690000D02*
X4658000Y-10730000D01*
X4871551Y-10562270D02*
X4911551Y-10602270D01*
X4911551Y-10562270D02*
X4871551Y-10602270D01*
X4889755Y-10315000D02*
X4929755Y-10355000D01*
X4929755Y-10315000D02*
X4889755Y-10355000D01*
X4980000Y-10280000D02*
X5020000Y-10320000D01*
X5020000Y-10280000D02*
X4980000Y-10320000D01*
X4980000Y-10680000D02*
X5020000Y-10720000D01*
X5020000Y-10680000D02*
X4980000Y-10720000D01*
X5043000Y-10145000D02*
X5083000Y-10185000D01*
X5083000Y-10145000D02*
X5043000Y-10185000D01*
X5043000Y-10995000D02*
X5083000Y-11035000D01*
X5083000Y-10995000D02*
X5043000Y-11035000D01*
X5067000Y-11989000D02*
X5107000Y-12029000D01*
X5107000Y-11989000D02*
X5067000Y-12029000D01*
X5110000Y-12280000D02*
X5150000Y-12320000D01*
X5150000Y-12280000D02*
X5110000Y-12320000D01*
X5123000Y-10995000D02*
X5163000Y-11035000D01*
X5163000Y-10995000D02*
X5123000Y-11035000D01*
X5188000Y-10605000D02*
X5228000Y-10645000D01*
X5228000Y-10605000D02*
X5188000Y-10645000D01*
X5203000Y-10145000D02*
X5243000Y-10185000D01*
X5243000Y-10145000D02*
X5203000Y-10185000D01*
X5262962Y-10571038D02*
X5302962Y-10611038D01*
X5302962Y-10571038D02*
X5262962Y-10611038D01*
X5283000Y-10995000D02*
X5323000Y-11035000D01*
X5323000Y-10995000D02*
X5283000Y-11035000D01*
X5473000Y-11962000D02*
X5513000Y-12002000D01*
X5513000Y-11962000D02*
X5473000Y-12002000D01*
X5508000Y-10770000D02*
X5548000Y-10810000D01*
X5548000Y-10770000D02*
X5508000Y-10810000D01*
X5508000Y-10850000D02*
X5548000Y-10890000D01*
X5548000Y-10850000D02*
X5508000Y-10890000D01*
X5682000Y-10685999D02*
X5722000Y-10725999D01*
X5722000Y-10685999D02*
X5682000Y-10725999D01*
X5700000Y-7210000D02*
X5740000Y-7250000D01*
X5740000Y-7210000D02*
X5700000Y-7250000D01*
X5722516Y-10967265D02*
X5762516Y-11007265D01*
X5762516Y-10967265D02*
X5722516Y-11007265D01*
X5915000Y-9512000D02*
X5955000Y-9552000D01*
X5955000Y-9512000D02*
X5915000Y-9552000D01*
X5986000Y-11092000D02*
X6026000Y-11132000D01*
X6026000Y-11092000D02*
X5986000Y-11132000D01*
X6231000Y-10968000D02*
X6271000Y-11008000D01*
X6271000Y-10968000D02*
X6231000Y-11008000D01*
X6480000Y-9780000D02*
X6520000Y-9820000D01*
X6520000Y-9780000D02*
X6480000Y-9820000D01*
X6819000Y-11098000D02*
X6859000Y-11138000D01*
X6859000Y-11098000D02*
X6819000Y-11138000D01*
X7320000Y-10261000D02*
X7360000Y-10301000D01*
X7360000Y-10261000D02*
X7320000Y-10301000D01*
X7320000Y-10461000D02*
X7360000Y-10501000D01*
X7360000Y-10461000D02*
X7320000Y-10501000D01*
X7320000Y-10671000D02*
X7360000Y-10711000D01*
X7360000Y-10671000D02*
X7320000Y-10711000D01*
X7325000Y-10886000D02*
X7365000Y-10926000D01*
X7365000Y-10886000D02*
X7325000Y-10926000D01*
X7815000Y-8790000D02*
X7855000Y-8830000D01*
X7855000Y-8790000D02*
X7815000Y-8830000D01*
X4096000Y-10892000D02*
G75*
G03X4096000Y-10892000I-50000J0D01*
G01*
X4096000Y-11146000D02*
G75*
G03X4096000Y-11146000I-50000J0D01*
G01*
X4096000Y-11400000D02*
G75*
G03X4096000Y-11400000I-50000J0D01*
G01*
X4096000Y-11646000D02*
G75*
G03X4096000Y-11646000I-50000J0D01*
G01*
X4096000Y-11900000D02*
G75*
G03X4096000Y-11900000I-50000J0D01*
G01*
X4350000Y-10892000D02*
G75*
G03X4350000Y-10892000I-50000J0D01*
G01*
X4350000Y-11146000D02*
G75*
G03X4350000Y-11146000I-50000J0D01*
G01*
X4350000Y-11400000D02*
G75*
G03X4350000Y-11400000I-50000J0D01*
G01*
X4350000Y-11646000D02*
G75*
G03X4350000Y-11646000I-50000J0D01*
G01*
X4350000Y-11900000D02*
G75*
G03X4350000Y-11900000I-50000J0D01*
G01*
X4195000Y-7480000D02*
X4195000Y-7680000D01*
X4095000Y-7580000D02*
X4295000Y-7580000D01*
X7645000Y-10130000D02*
X7645000Y-10330000D01*
X7545000Y-10230000D02*
X7745000Y-10230000D01*
D13*
X3923928Y-16283214D02*
X3923928Y-15983214D01*
X3995357Y-15983214D01*
X4038214Y-15997500D01*
X4066786Y-16026071D01*
X4081071Y-16054643D01*
X4095357Y-16111786D01*
X4095357Y-16154643D01*
X4081071Y-16211786D01*
X4066786Y-16240357D01*
X4038214Y-16268929D01*
X3995357Y-16283214D01*
X3923928Y-16283214D01*
X4223929Y-16283214D02*
X4223929Y-16083214D01*
X4223929Y-16140357D02*
X4238214Y-16111786D01*
X4252500Y-16097500D01*
X4281071Y-16083214D01*
X4309643Y-16083214D01*
X4409643Y-16283214D02*
X4409643Y-16083214D01*
X4409643Y-15983214D02*
X4395357Y-15997500D01*
X4409643Y-16011786D01*
X4423929Y-15997500D01*
X4409643Y-15983214D01*
X4409643Y-16011786D01*
X4595357Y-16283214D02*
X4566786Y-16268929D01*
X4552500Y-16240357D01*
X4552500Y-15983214D01*
X4752500Y-16283214D02*
X4723929Y-16268929D01*
X4709643Y-16240357D01*
X4709643Y-15983214D01*
X5095357Y-16283214D02*
X5095357Y-15983214D01*
X5195357Y-16197500D01*
X5295357Y-15983214D01*
X5295357Y-16283214D01*
X5566786Y-16283214D02*
X5566786Y-16126071D01*
X5552500Y-16097500D01*
X5523929Y-16083214D01*
X5466786Y-16083214D01*
X5438214Y-16097500D01*
X5566786Y-16268929D02*
X5538214Y-16283214D01*
X5466786Y-16283214D01*
X5438214Y-16268929D01*
X5423929Y-16240357D01*
X5423929Y-16211786D01*
X5438214Y-16183214D01*
X5466786Y-16168929D01*
X5538214Y-16168929D01*
X5566786Y-16154643D01*
X5709643Y-16083214D02*
X5709643Y-16383214D01*
X5709643Y-16097500D02*
X5738214Y-16083214D01*
X5795357Y-16083214D01*
X5823928Y-16097500D01*
X5838214Y-16111786D01*
X5852500Y-16140357D01*
X5852500Y-16226071D01*
X5838214Y-16254643D01*
X5823928Y-16268929D01*
X5795357Y-16283214D01*
X5738214Y-16283214D01*
X5709643Y-16268929D01*
X5981071Y-16254643D02*
X5995357Y-16268929D01*
X5981071Y-16283214D01*
X5966786Y-16268929D01*
X5981071Y-16254643D01*
X5981071Y-16283214D01*
X5981071Y-16097500D02*
X5995357Y-16111786D01*
X5981071Y-16126071D01*
X5966786Y-16111786D01*
X5981071Y-16097500D01*
X5981071Y-16126071D01*
X3612500Y-16757500D02*
X3652500Y-16797500D01*
X3652500Y-16757500D02*
X3612500Y-16797500D01*
X3981071Y-16613214D02*
X4009643Y-16613214D01*
X4038214Y-16627500D01*
X4052500Y-16641786D01*
X4066786Y-16670357D01*
X4081071Y-16727500D01*
X4081071Y-16798929D01*
X4066786Y-16856072D01*
X4052500Y-16884643D01*
X4038214Y-16898929D01*
X4009643Y-16913214D01*
X3981071Y-16913214D01*
X3952500Y-16898929D01*
X3938214Y-16884643D01*
X3923928Y-16856072D01*
X3909643Y-16798929D01*
X3909643Y-16727500D01*
X3923928Y-16670357D01*
X3938214Y-16641786D01*
X3952500Y-16627500D01*
X3981071Y-16613214D01*
X4209643Y-16884643D02*
X4223929Y-16898929D01*
X4209643Y-16913214D01*
X4195357Y-16898929D01*
X4209643Y-16884643D01*
X4209643Y-16913214D01*
X4481071Y-16713214D02*
X4481071Y-16913214D01*
X4409643Y-16598929D02*
X4338214Y-16813214D01*
X4523928Y-16813214D01*
X4695357Y-16613214D02*
X4723929Y-16613214D01*
X4752500Y-16627500D01*
X4766786Y-16641786D01*
X4781071Y-16670357D01*
X4795357Y-16727500D01*
X4795357Y-16798929D01*
X4781071Y-16856072D01*
X4766786Y-16884643D01*
X4752500Y-16898929D01*
X4723929Y-16913214D01*
X4695357Y-16913214D01*
X4666786Y-16898929D01*
X4652500Y-16884643D01*
X4638214Y-16856072D01*
X4623929Y-16798929D01*
X4623929Y-16727500D01*
X4638214Y-16670357D01*
X4652500Y-16641786D01*
X4666786Y-16627500D01*
X4695357Y-16613214D01*
X4923929Y-16913214D02*
X4923929Y-16713214D01*
X4923929Y-16741786D02*
X4938214Y-16727500D01*
X4966786Y-16713214D01*
X5009643Y-16713214D01*
X5038214Y-16727500D01*
X5052500Y-16756071D01*
X5052500Y-16913214D01*
X5052500Y-16756071D02*
X5066786Y-16727500D01*
X5095357Y-16713214D01*
X5138214Y-16713214D01*
X5166786Y-16727500D01*
X5181071Y-16756071D01*
X5181071Y-16913214D01*
X5323929Y-16913214D02*
X5323929Y-16713214D01*
X5323929Y-16741786D02*
X5338214Y-16727500D01*
X5366786Y-16713214D01*
X5409643Y-16713214D01*
X5438214Y-16727500D01*
X5452500Y-16756071D01*
X5452500Y-16913214D01*
X5452500Y-16756071D02*
X5466786Y-16727500D01*
X5495357Y-16713214D01*
X5538214Y-16713214D01*
X5566786Y-16727500D01*
X5581071Y-16756071D01*
X5581071Y-16913214D01*
X6166786Y-16598929D02*
X5909643Y-16984643D01*
X6552500Y-16613214D02*
X6581071Y-16613214D01*
X6609643Y-16627500D01*
X6623928Y-16641786D01*
X6638214Y-16670357D01*
X6652500Y-16727500D01*
X6652500Y-16798929D01*
X6638214Y-16856072D01*
X6623928Y-16884643D01*
X6609643Y-16898929D01*
X6581071Y-16913214D01*
X6552500Y-16913214D01*
X6523928Y-16898929D01*
X6509643Y-16884643D01*
X6495357Y-16856072D01*
X6481071Y-16798929D01*
X6481071Y-16727500D01*
X6495357Y-16670357D01*
X6509643Y-16641786D01*
X6523928Y-16627500D01*
X6552500Y-16613214D01*
X6781071Y-16884643D02*
X6795357Y-16898929D01*
X6781071Y-16913214D01*
X6766786Y-16898929D01*
X6781071Y-16884643D01*
X6781071Y-16913214D01*
X6981071Y-16613214D02*
X7009643Y-16613214D01*
X7038214Y-16627500D01*
X7052500Y-16641786D01*
X7066785Y-16670357D01*
X7081071Y-16727500D01*
X7081071Y-16798929D01*
X7066785Y-16856072D01*
X7052500Y-16884643D01*
X7038214Y-16898929D01*
X7009643Y-16913214D01*
X6981071Y-16913214D01*
X6952500Y-16898929D01*
X6938214Y-16884643D01*
X6923928Y-16856072D01*
X6909643Y-16798929D01*
X6909643Y-16727500D01*
X6923928Y-16670357D01*
X6938214Y-16641786D01*
X6952500Y-16627500D01*
X6981071Y-16613214D01*
X7366785Y-16913214D02*
X7195357Y-16913214D01*
X7281071Y-16913214D02*
X7281071Y-16613214D01*
X7252500Y-16656071D01*
X7223928Y-16684643D01*
X7195357Y-16698929D01*
X7623928Y-16613214D02*
X7566785Y-16613214D01*
X7538214Y-16627500D01*
X7523928Y-16641786D01*
X7495357Y-16684643D01*
X7481071Y-16741786D01*
X7481071Y-16856072D01*
X7495357Y-16884643D01*
X7509643Y-16898929D01*
X7538214Y-16913214D01*
X7595357Y-16913214D01*
X7623928Y-16898929D01*
X7638214Y-16884643D01*
X7652500Y-16856072D01*
X7652500Y-16784643D01*
X7638214Y-16756071D01*
X7623928Y-16741786D01*
X7595357Y-16727500D01*
X7538214Y-16727500D01*
X7509643Y-16741786D01*
X7495357Y-16756071D01*
X7481071Y-16784643D01*
X7766786Y-16613214D02*
X7766786Y-16670357D01*
X7881071Y-16613214D02*
X7881071Y-16670357D01*
X8323928Y-17027500D02*
X8309643Y-17013214D01*
X8281071Y-16970357D01*
X8266785Y-16941786D01*
X8252500Y-16898929D01*
X8238214Y-16827500D01*
X8238214Y-16770357D01*
X8252500Y-16698929D01*
X8266785Y-16656071D01*
X8281071Y-16627500D01*
X8309643Y-16584643D01*
X8323928Y-16570357D01*
X8409643Y-16613214D02*
X8595357Y-16613214D01*
X8495357Y-16727500D01*
X8538214Y-16727500D01*
X8566786Y-16741786D01*
X8581071Y-16756071D01*
X8595357Y-16784643D01*
X8595357Y-16856072D01*
X8581071Y-16884643D01*
X8566786Y-16898929D01*
X8538214Y-16913214D01*
X8452500Y-16913214D01*
X8423928Y-16898929D01*
X8409643Y-16884643D01*
X8852500Y-16713214D02*
X8852500Y-16913214D01*
X8781071Y-16598929D02*
X8709643Y-16813214D01*
X8895357Y-16813214D01*
X9238214Y-16913214D02*
X9238214Y-16613214D01*
X9366786Y-16913214D02*
X9366786Y-16756071D01*
X9352500Y-16727500D01*
X9323928Y-16713214D01*
X9281071Y-16713214D01*
X9252500Y-16727500D01*
X9238214Y-16741786D01*
X9552500Y-16913214D02*
X9523928Y-16898929D01*
X9509643Y-16884643D01*
X9495357Y-16856072D01*
X9495357Y-16770357D01*
X9509643Y-16741786D01*
X9523928Y-16727500D01*
X9552500Y-16713214D01*
X9595357Y-16713214D01*
X9623928Y-16727500D01*
X9638214Y-16741786D01*
X9652500Y-16770357D01*
X9652500Y-16856072D01*
X9638214Y-16884643D01*
X9623928Y-16898929D01*
X9595357Y-16913214D01*
X9552500Y-16913214D01*
X9823928Y-16913214D02*
X9795357Y-16898929D01*
X9781071Y-16870357D01*
X9781071Y-16613214D01*
X10052500Y-16898929D02*
X10023929Y-16913214D01*
X9966786Y-16913214D01*
X9938214Y-16898929D01*
X9923929Y-16870357D01*
X9923929Y-16756071D01*
X9938214Y-16727500D01*
X9966786Y-16713214D01*
X10023929Y-16713214D01*
X10052500Y-16727500D01*
X10066786Y-16756071D01*
X10066786Y-16784643D01*
X9923929Y-16813214D01*
X10181071Y-16898929D02*
X10209643Y-16913214D01*
X10266786Y-16913214D01*
X10295357Y-16898929D01*
X10309643Y-16870357D01*
X10309643Y-16856072D01*
X10295357Y-16827500D01*
X10266786Y-16813214D01*
X10223929Y-16813214D01*
X10195357Y-16798929D01*
X10181071Y-16770357D01*
X10181071Y-16756071D01*
X10195357Y-16727500D01*
X10223929Y-16713214D01*
X10266786Y-16713214D01*
X10295357Y-16727500D01*
X10409643Y-17027500D02*
X10423929Y-17013214D01*
X10452500Y-16970357D01*
X10466786Y-16941786D01*
X10481071Y-16898929D01*
X10495357Y-16827500D01*
X10495357Y-16770357D01*
X10481071Y-16698929D01*
X10466786Y-16656071D01*
X10452500Y-16627500D01*
X10423929Y-16584643D01*
X10409643Y-16570357D01*
X3652500Y-17173500D02*
G75*
G03X3652500Y-17173500I-50000J0D01*
G01*
X4081071Y-17309214D02*
X3909643Y-17309214D01*
X3995357Y-17309214D02*
X3995357Y-17009214D01*
X3966786Y-17052072D01*
X3938214Y-17080643D01*
X3909643Y-17094929D01*
X4209643Y-17280643D02*
X4223929Y-17294929D01*
X4209643Y-17309214D01*
X4195357Y-17294929D01*
X4209643Y-17280643D01*
X4209643Y-17309214D01*
X4409643Y-17009214D02*
X4438214Y-17009214D01*
X4466786Y-17023500D01*
X4481071Y-17037786D01*
X4495357Y-17066357D01*
X4509643Y-17123500D01*
X4509643Y-17194929D01*
X4495357Y-17252072D01*
X4481071Y-17280643D01*
X4466786Y-17294929D01*
X4438214Y-17309214D01*
X4409643Y-17309214D01*
X4381071Y-17294929D01*
X4366786Y-17280643D01*
X4352500Y-17252072D01*
X4338214Y-17194929D01*
X4338214Y-17123500D01*
X4352500Y-17066357D01*
X4366786Y-17037786D01*
X4381071Y-17023500D01*
X4409643Y-17009214D01*
X4695357Y-17009214D02*
X4723929Y-17009214D01*
X4752500Y-17023500D01*
X4766786Y-17037786D01*
X4781071Y-17066357D01*
X4795357Y-17123500D01*
X4795357Y-17194929D01*
X4781071Y-17252072D01*
X4766786Y-17280643D01*
X4752500Y-17294929D01*
X4723929Y-17309214D01*
X4695357Y-17309214D01*
X4666786Y-17294929D01*
X4652500Y-17280643D01*
X4638214Y-17252072D01*
X4623929Y-17194929D01*
X4623929Y-17123500D01*
X4638214Y-17066357D01*
X4652500Y-17037786D01*
X4666786Y-17023500D01*
X4695357Y-17009214D01*
X4923929Y-17309214D02*
X4923929Y-17109214D01*
X4923929Y-17137786D02*
X4938214Y-17123500D01*
X4966786Y-17109214D01*
X5009643Y-17109214D01*
X5038214Y-17123500D01*
X5052500Y-17152072D01*
X5052500Y-17309214D01*
X5052500Y-17152072D02*
X5066786Y-17123500D01*
X5095357Y-17109214D01*
X5138214Y-17109214D01*
X5166786Y-17123500D01*
X5181071Y-17152072D01*
X5181071Y-17309214D01*
X5323929Y-17309214D02*
X5323929Y-17109214D01*
X5323929Y-17137786D02*
X5338214Y-17123500D01*
X5366786Y-17109214D01*
X5409643Y-17109214D01*
X5438214Y-17123500D01*
X5452500Y-17152072D01*
X5452500Y-17309214D01*
X5452500Y-17152072D02*
X5466786Y-17123500D01*
X5495357Y-17109214D01*
X5538214Y-17109214D01*
X5566786Y-17123500D01*
X5581071Y-17152072D01*
X5581071Y-17309214D01*
X6166786Y-16994929D02*
X5909643Y-17380643D01*
X6552500Y-17009214D02*
X6581071Y-17009214D01*
X6609643Y-17023500D01*
X6623928Y-17037786D01*
X6638214Y-17066357D01*
X6652500Y-17123500D01*
X6652500Y-17194929D01*
X6638214Y-17252072D01*
X6623928Y-17280643D01*
X6609643Y-17294929D01*
X6581071Y-17309214D01*
X6552500Y-17309214D01*
X6523928Y-17294929D01*
X6509643Y-17280643D01*
X6495357Y-17252072D01*
X6481071Y-17194929D01*
X6481071Y-17123500D01*
X6495357Y-17066357D01*
X6509643Y-17037786D01*
X6523928Y-17023500D01*
X6552500Y-17009214D01*
X6781071Y-17280643D02*
X6795357Y-17294929D01*
X6781071Y-17309214D01*
X6766786Y-17294929D01*
X6781071Y-17280643D01*
X6781071Y-17309214D01*
X6981071Y-17009214D02*
X7009643Y-17009214D01*
X7038214Y-17023500D01*
X7052500Y-17037786D01*
X7066785Y-17066357D01*
X7081071Y-17123500D01*
X7081071Y-17194929D01*
X7066785Y-17252072D01*
X7052500Y-17280643D01*
X7038214Y-17294929D01*
X7009643Y-17309214D01*
X6981071Y-17309214D01*
X6952500Y-17294929D01*
X6938214Y-17280643D01*
X6923928Y-17252072D01*
X6909643Y-17194929D01*
X6909643Y-17123500D01*
X6923928Y-17066357D01*
X6938214Y-17037786D01*
X6952500Y-17023500D01*
X6981071Y-17009214D01*
X7181071Y-17009214D02*
X7366785Y-17009214D01*
X7266785Y-17123500D01*
X7309643Y-17123500D01*
X7338214Y-17137786D01*
X7352500Y-17152072D01*
X7366785Y-17180643D01*
X7366785Y-17252072D01*
X7352500Y-17280643D01*
X7338214Y-17294929D01*
X7309643Y-17309214D01*
X7223928Y-17309214D01*
X7195357Y-17294929D01*
X7181071Y-17280643D01*
X7509643Y-17309214D02*
X7566785Y-17309214D01*
X7595357Y-17294929D01*
X7609643Y-17280643D01*
X7638214Y-17237786D01*
X7652500Y-17180643D01*
X7652500Y-17066357D01*
X7638214Y-17037786D01*
X7623928Y-17023500D01*
X7595357Y-17009214D01*
X7538214Y-17009214D01*
X7509643Y-17023500D01*
X7495357Y-17037786D01*
X7481071Y-17066357D01*
X7481071Y-17137786D01*
X7495357Y-17166357D01*
X7509643Y-17180643D01*
X7538214Y-17194929D01*
X7595357Y-17194929D01*
X7623928Y-17180643D01*
X7638214Y-17166357D01*
X7652500Y-17137786D01*
X7766786Y-17009214D02*
X7766786Y-17066357D01*
X7881071Y-17009214D02*
X7881071Y-17066357D01*
X8323928Y-17423500D02*
X8309643Y-17409214D01*
X8281071Y-17366357D01*
X8266785Y-17337786D01*
X8252500Y-17294929D01*
X8238214Y-17223500D01*
X8238214Y-17166357D01*
X8252500Y-17094929D01*
X8266785Y-17052072D01*
X8281071Y-17023500D01*
X8309643Y-16980643D01*
X8323928Y-16966357D01*
X8595357Y-17309214D02*
X8423928Y-17309214D01*
X8509643Y-17309214D02*
X8509643Y-17009214D01*
X8481071Y-17052072D01*
X8452500Y-17080643D01*
X8423928Y-17094929D01*
X8781071Y-17009214D02*
X8809643Y-17009214D01*
X8838214Y-17023500D01*
X8852500Y-17037786D01*
X8866786Y-17066357D01*
X8881071Y-17123500D01*
X8881071Y-17194929D01*
X8866786Y-17252072D01*
X8852500Y-17280643D01*
X8838214Y-17294929D01*
X8809643Y-17309214D01*
X8781071Y-17309214D01*
X8752500Y-17294929D01*
X8738214Y-17280643D01*
X8723928Y-17252072D01*
X8709643Y-17194929D01*
X8709643Y-17123500D01*
X8723928Y-17066357D01*
X8738214Y-17037786D01*
X8752500Y-17023500D01*
X8781071Y-17009214D01*
X9238214Y-17309214D02*
X9238214Y-17009214D01*
X9366786Y-17309214D02*
X9366786Y-17152072D01*
X9352500Y-17123500D01*
X9323928Y-17109214D01*
X9281071Y-17109214D01*
X9252500Y-17123500D01*
X9238214Y-17137786D01*
X9552500Y-17309214D02*
X9523928Y-17294929D01*
X9509643Y-17280643D01*
X9495357Y-17252072D01*
X9495357Y-17166357D01*
X9509643Y-17137786D01*
X9523928Y-17123500D01*
X9552500Y-17109214D01*
X9595357Y-17109214D01*
X9623928Y-17123500D01*
X9638214Y-17137786D01*
X9652500Y-17166357D01*
X9652500Y-17252072D01*
X9638214Y-17280643D01*
X9623928Y-17294929D01*
X9595357Y-17309214D01*
X9552500Y-17309214D01*
X9823928Y-17309214D02*
X9795357Y-17294929D01*
X9781071Y-17266357D01*
X9781071Y-17009214D01*
X10052500Y-17294929D02*
X10023929Y-17309214D01*
X9966786Y-17309214D01*
X9938214Y-17294929D01*
X9923929Y-17266357D01*
X9923929Y-17152072D01*
X9938214Y-17123500D01*
X9966786Y-17109214D01*
X10023929Y-17109214D01*
X10052500Y-17123500D01*
X10066786Y-17152072D01*
X10066786Y-17180643D01*
X9923929Y-17209214D01*
X10181071Y-17294929D02*
X10209643Y-17309214D01*
X10266786Y-17309214D01*
X10295357Y-17294929D01*
X10309643Y-17266357D01*
X10309643Y-17252072D01*
X10295357Y-17223500D01*
X10266786Y-17209214D01*
X10223929Y-17209214D01*
X10195357Y-17194929D01*
X10181071Y-17166357D01*
X10181071Y-17152072D01*
X10195357Y-17123500D01*
X10223929Y-17109214D01*
X10266786Y-17109214D01*
X10295357Y-17123500D01*
X10409643Y-17423500D02*
X10423929Y-17409214D01*
X10452500Y-17366357D01*
X10466786Y-17337786D01*
X10481071Y-17294929D01*
X10495357Y-17223500D01*
X10495357Y-17166357D01*
X10481071Y-17094929D01*
X10466786Y-17052072D01*
X10452500Y-17023500D01*
X10423929Y-16980643D01*
X10409643Y-16966357D01*
X3552500Y-17469500D02*
X3552500Y-17669500D01*
X3452500Y-17569500D02*
X3652500Y-17569500D01*
X3909643Y-17433786D02*
X3923928Y-17419500D01*
X3952500Y-17405214D01*
X4023928Y-17405214D01*
X4052500Y-17419500D01*
X4066786Y-17433786D01*
X4081071Y-17462357D01*
X4081071Y-17490929D01*
X4066786Y-17533786D01*
X3895357Y-17705214D01*
X4081071Y-17705214D01*
X4209643Y-17676643D02*
X4223929Y-17690929D01*
X4209643Y-17705214D01*
X4195357Y-17690929D01*
X4209643Y-17676643D01*
X4209643Y-17705214D01*
X4409643Y-17405214D02*
X4438214Y-17405214D01*
X4466786Y-17419500D01*
X4481071Y-17433786D01*
X4495357Y-17462357D01*
X4509643Y-17519500D01*
X4509643Y-17590929D01*
X4495357Y-17648072D01*
X4481071Y-17676643D01*
X4466786Y-17690929D01*
X4438214Y-17705214D01*
X4409643Y-17705214D01*
X4381071Y-17690929D01*
X4366786Y-17676643D01*
X4352500Y-17648072D01*
X4338214Y-17590929D01*
X4338214Y-17519500D01*
X4352500Y-17462357D01*
X4366786Y-17433786D01*
X4381071Y-17419500D01*
X4409643Y-17405214D01*
X4695357Y-17405214D02*
X4723929Y-17405214D01*
X4752500Y-17419500D01*
X4766786Y-17433786D01*
X4781071Y-17462357D01*
X4795357Y-17519500D01*
X4795357Y-17590929D01*
X4781071Y-17648072D01*
X4766786Y-17676643D01*
X4752500Y-17690929D01*
X4723929Y-17705214D01*
X4695357Y-17705214D01*
X4666786Y-17690929D01*
X4652500Y-17676643D01*
X4638214Y-17648072D01*
X4623929Y-17590929D01*
X4623929Y-17519500D01*
X4638214Y-17462357D01*
X4652500Y-17433786D01*
X4666786Y-17419500D01*
X4695357Y-17405214D01*
X4923929Y-17705214D02*
X4923929Y-17505214D01*
X4923929Y-17533786D02*
X4938214Y-17519500D01*
X4966786Y-17505214D01*
X5009643Y-17505214D01*
X5038214Y-17519500D01*
X5052500Y-17548072D01*
X5052500Y-17705214D01*
X5052500Y-17548072D02*
X5066786Y-17519500D01*
X5095357Y-17505214D01*
X5138214Y-17505214D01*
X5166786Y-17519500D01*
X5181071Y-17548072D01*
X5181071Y-17705214D01*
X5323929Y-17705214D02*
X5323929Y-17505214D01*
X5323929Y-17533786D02*
X5338214Y-17519500D01*
X5366786Y-17505214D01*
X5409643Y-17505214D01*
X5438214Y-17519500D01*
X5452500Y-17548072D01*
X5452500Y-17705214D01*
X5452500Y-17548072D02*
X5466786Y-17519500D01*
X5495357Y-17505214D01*
X5538214Y-17505214D01*
X5566786Y-17519500D01*
X5581071Y-17548072D01*
X5581071Y-17705214D01*
X6166786Y-17390929D02*
X5909643Y-17776643D01*
X6552500Y-17405214D02*
X6581071Y-17405214D01*
X6609643Y-17419500D01*
X6623928Y-17433786D01*
X6638214Y-17462357D01*
X6652500Y-17519500D01*
X6652500Y-17590929D01*
X6638214Y-17648072D01*
X6623928Y-17676643D01*
X6609643Y-17690929D01*
X6581071Y-17705214D01*
X6552500Y-17705214D01*
X6523928Y-17690929D01*
X6509643Y-17676643D01*
X6495357Y-17648072D01*
X6481071Y-17590929D01*
X6481071Y-17519500D01*
X6495357Y-17462357D01*
X6509643Y-17433786D01*
X6523928Y-17419500D01*
X6552500Y-17405214D01*
X6781071Y-17676643D02*
X6795357Y-17690929D01*
X6781071Y-17705214D01*
X6766786Y-17690929D01*
X6781071Y-17676643D01*
X6781071Y-17705214D01*
X6981071Y-17405214D02*
X7009643Y-17405214D01*
X7038214Y-17419500D01*
X7052500Y-17433786D01*
X7066785Y-17462357D01*
X7081071Y-17519500D01*
X7081071Y-17590929D01*
X7066785Y-17648072D01*
X7052500Y-17676643D01*
X7038214Y-17690929D01*
X7009643Y-17705214D01*
X6981071Y-17705214D01*
X6952500Y-17690929D01*
X6938214Y-17676643D01*
X6923928Y-17648072D01*
X6909643Y-17590929D01*
X6909643Y-17519500D01*
X6923928Y-17462357D01*
X6938214Y-17433786D01*
X6952500Y-17419500D01*
X6981071Y-17405214D01*
X7181071Y-17405214D02*
X7381071Y-17405214D01*
X7252500Y-17705214D01*
X7509643Y-17705214D02*
X7566785Y-17705214D01*
X7595357Y-17690929D01*
X7609643Y-17676643D01*
X7638214Y-17633786D01*
X7652500Y-17576643D01*
X7652500Y-17462357D01*
X7638214Y-17433786D01*
X7623928Y-17419500D01*
X7595357Y-17405214D01*
X7538214Y-17405214D01*
X7509643Y-17419500D01*
X7495357Y-17433786D01*
X7481071Y-17462357D01*
X7481071Y-17533786D01*
X7495357Y-17562357D01*
X7509643Y-17576643D01*
X7538214Y-17590929D01*
X7595357Y-17590929D01*
X7623928Y-17576643D01*
X7638214Y-17562357D01*
X7652500Y-17533786D01*
X7766786Y-17405214D02*
X7766786Y-17462357D01*
X7881071Y-17405214D02*
X7881071Y-17462357D01*
X8323928Y-17819500D02*
X8309643Y-17805214D01*
X8281071Y-17762357D01*
X8266785Y-17733786D01*
X8252500Y-17690929D01*
X8238214Y-17619500D01*
X8238214Y-17562357D01*
X8252500Y-17490929D01*
X8266785Y-17448072D01*
X8281071Y-17419500D01*
X8309643Y-17376643D01*
X8323928Y-17362357D01*
X8423928Y-17433786D02*
X8438214Y-17419500D01*
X8466786Y-17405214D01*
X8538214Y-17405214D01*
X8566786Y-17419500D01*
X8581071Y-17433786D01*
X8595357Y-17462357D01*
X8595357Y-17490929D01*
X8581071Y-17533786D01*
X8409643Y-17705214D01*
X8595357Y-17705214D01*
X8952500Y-17705214D02*
X8952500Y-17405214D01*
X9081071Y-17705214D02*
X9081071Y-17548072D01*
X9066786Y-17519500D01*
X9038214Y-17505214D01*
X8995357Y-17505214D01*
X8966786Y-17519500D01*
X8952500Y-17533786D01*
X9266786Y-17705214D02*
X9238214Y-17690929D01*
X9223928Y-17676643D01*
X9209643Y-17648072D01*
X9209643Y-17562357D01*
X9223928Y-17533786D01*
X9238214Y-17519500D01*
X9266786Y-17505214D01*
X9309643Y-17505214D01*
X9338214Y-17519500D01*
X9352500Y-17533786D01*
X9366786Y-17562357D01*
X9366786Y-17648072D01*
X9352500Y-17676643D01*
X9338214Y-17690929D01*
X9309643Y-17705214D01*
X9266786Y-17705214D01*
X9538214Y-17705214D02*
X9509643Y-17690929D01*
X9495357Y-17662357D01*
X9495357Y-17405214D01*
X9766786Y-17690929D02*
X9738214Y-17705214D01*
X9681071Y-17705214D01*
X9652500Y-17690929D01*
X9638214Y-17662357D01*
X9638214Y-17548072D01*
X9652500Y-17519500D01*
X9681071Y-17505214D01*
X9738214Y-17505214D01*
X9766786Y-17519500D01*
X9781071Y-17548072D01*
X9781071Y-17576643D01*
X9638214Y-17605214D01*
X9895357Y-17690929D02*
X9923929Y-17705214D01*
X9981071Y-17705214D01*
X10009643Y-17690929D01*
X10023929Y-17662357D01*
X10023929Y-17648072D01*
X10009643Y-17619500D01*
X9981071Y-17605214D01*
X9938214Y-17605214D01*
X9909643Y-17590929D01*
X9895357Y-17562357D01*
X9895357Y-17548072D01*
X9909643Y-17519500D01*
X9938214Y-17505214D01*
X9981071Y-17505214D01*
X10009643Y-17519500D01*
X10123928Y-17819500D02*
X10138214Y-17805214D01*
X10166786Y-17762357D01*
X10181071Y-17733786D01*
X10195357Y-17690929D01*
X10209643Y-17619500D01*
X10209643Y-17562357D01*
X10195357Y-17490929D01*
X10181071Y-17448072D01*
X10166786Y-17419500D01*
X10138214Y-17376643D01*
X10123928Y-17362357D01*
M02*
