<?xml version="1.0" encoding="UTF-8" standalone="no"?>
<!-- Created with Inkscape (http://www.inkscape.org/) -->

<svg
   xmlns:dc="http://purl.org/dc/elements/1.1/"
   xmlns:cc="http://creativecommons.org/ns#"
   xmlns:rdf="http://www.w3.org/1999/02/22-rdf-syntax-ns#"
   xmlns:svg="http://www.w3.org/2000/svg"
   xmlns="http://www.w3.org/2000/svg"
   xmlns:sodipodi="http://sodipodi.sourceforge.net/DTD/sodipodi-0.dtd"
   xmlns:inkscape="http://www.inkscape.org/namespaces/inkscape"
   width="210mm"
   height="297mm"
   viewBox="0 0 210 297"
   version="1.1"
   id="svg8"
   inkscape:version="0.92.3 (2405546, 2018-03-11)"
   sodipodi:docname="privasec.svg">
  <defs
     id="defs2" />
  <sodipodi:namedview
     id="base"
     pagecolor="#ffffff"
     bordercolor="#666666"
     borderopacity="1.0"
     inkscape:pageopacity="0.0"
     inkscape:pageshadow="2"
     inkscape:zoom="0.98994949"
     inkscape:cx="262.09078"
     inkscape:cy="922.44506"
     inkscape:document-units="mm"
     inkscape:current-layer="layer1"
     showgrid="false"
     inkscape:window-width="2560"
     inkscape:window-height="1011"
     inkscape:window-x="0"
     inkscape:window-y="48"
     inkscape:window-maximized="1" />
  <metadata
     id="metadata5">
    <rdf:RDF>
      <cc:Work
         rdf:about="">
        <dc:format>image/svg+xml</dc:format>
        <dc:type
           rdf:resource="http://purl.org/dc/dcmitype/StillImage" />
        <dc:title></dc:title>
      </cc:Work>
    </rdf:RDF>
  </metadata>
  <g
     inkscape:label="Layer 1"
     inkscape:groupmode="layer"
     id="layer1">
    <path
       style="fill:#000000;stroke-width:0.26458335"
       d="m 105.25821,121.89233 c -2.42912,-0.80731 -3.4588,-1.66447 -4.34339,-3.61567 -0.62036,-1.36836 -0.71405,-3.4968 -0.22567,-5.12686 0.47243,-1.57683 2.3693,-3.407 4.24826,-4.09887 2.1708,-0.79935 5.44061,-0.76531 8.09017,0.0842 l 0.62562,0.20058 -0.10075,-1.99508 c -0.0848,-1.67939 -0.20473,-2.10637 -0.75791,-2.69842 -1.06268,-1.13735 -2.09173,-1.54022 -3.96445,-1.55207 -2.0841,-0.0132 -3.44629,0.42417 -4.67146,1.49989 l -0.92191,0.80944 -1.10592,-1.12 -1.10592,-1.12 1.04046,-0.9117 c 1.79787,-1.57537 3.68067,-2.306342 6.28037,-2.438252 2.91397,-0.147857 4.77615,0.391272 6.45462,1.868732 2.33314,2.05371 2.35246,2.14136 2.44795,11.10592 l 0.0838,7.86897 -0.61298,0.26539 c -2.54574,1.10218 -9.33809,1.6793 -11.4609,0.97379 z m 7.50755,-2.98729 0.82683,-0.16536 v -3.36107 -3.36107 l -1.34311,-0.31003 c -3.51813,-0.81208 -6.74371,-0.14948 -7.77553,1.59726 -1.06525,1.80332 -0.42016,4.47102 1.28712,5.3227 0.85837,0.42821 5.35967,0.60658 7.00469,0.27757 z m 13.07334,2.95652 c -1.74601,-0.54567 -3.39458,-1.62878 -4.46219,-2.93165 -0.53895,-0.65772 -0.93333,-1.23172 -0.87639,-1.27555 0.0569,-0.0438 0.667,-0.47622 1.35569,-0.96086 l 1.25216,-0.88118 0.55312,0.70319 c 1.32363,1.68272 4.47569,2.73728 6.69575,2.24013 2.85298,-0.63888 3.73273,-3.83989 1.43874,-5.23495 -0.47288,-0.28757 -1.51765,-0.65333 -2.3217,-0.81278 -6.04163,-1.19812 -8.07746,-2.86476 -8.06458,-6.60209 0.006,-1.8745 0.38693,-2.83433 1.61717,-4.07971 1.90359,-1.92702 6.20209,-2.831478 9.01554,-1.897 1.39499,0.46334 3.78057,1.85682 3.76728,2.20057 -0.004,0.11235 -0.45644,0.72309 -1.00466,1.3572 l -0.99676,1.15293 -1.01107,-0.68613 c -1.72373,-1.16976 -3.38371,-1.462 -5.29314,-0.93186 -2.45574,0.68183 -3.39631,3.17004 -1.72872,4.57323 0.81606,0.68667 1.30754,0.85791 4.59943,1.60259 2.37957,0.53829 4.32146,1.64697 5.29833,3.02494 0.61967,0.8741 0.80383,1.45216 0.88905,2.79064 0.0601,0.94406 -0.0374,2.12724 -0.22124,2.68427 -0.50096,1.51793 -2.18969,3.18208 -3.86523,3.80898 -1.68575,0.63072 -4.87612,0.70527 -6.63658,0.15509 z m 19.46914,-0.0145 c -1.63482,-0.52425 -3.64853,-1.90694 -4.39094,-3.015 -1.0294,-1.53637 -1.17287,-2.67397 -1.08331,-8.58982 0.0934,-6.16967 0.15633,-6.43938 1.91269,-8.19574 3.37351,-3.373504 9.99775,-3.21334 13.18891,0.31889 1.36799,1.5142 1.78408,3.16912 1.78408,7.0958 v 3.25927 h -6.61458 -6.61459 v 1.73293 c 0,1.05551 0.16201,2.04621 0.41443,2.53433 0.55706,1.07725 2.22115,1.80497 4.14428,1.81235 2.00493,0.008 3.52463,-0.6286 4.40542,-1.84449 l 0.70811,-0.97752 1.51388,0.6538 c 0.83264,0.35959 1.51388,0.74703 1.51388,0.86098 0,0.11395 -0.47112,0.80321 -1.04695,1.53168 -2.0761,2.62646 -6.49353,3.89418 -9.83531,2.82254 z m 7.9155,-14.26399 c -0.0907,-1.41258 -0.27815,-2.15514 -0.6903,-2.73396 -1.56857,-2.20285 -5.90743,-2.52806 -8.06111,-0.60422 -0.81722,0.73001 -0.85297,0.84777 -0.93984,3.09587 l -0.0903,2.33699 4.953,-0.0777 4.953,-0.0777 -0.12445,-1.93931 z m 12.30286,14.27855 c -2.89972,-0.90623 -4.83012,-2.78269 -5.3483,-5.19883 -0.43886,-2.04635 -0.3647,-10.18788 0.10729,-11.77722 0.5217,-1.75677 1.93544,-3.34637 3.78308,-4.25367 1.38148,-0.67839 1.77025,-0.743733 4.42496,-0.743733 2.54721,0 3.059,0.07803 4.10104,0.625243 1.06446,0.55899 3.70458,3.01081 3.7039,3.43973 -1.5e-4,0.0926 -0.60105,0.50579 -1.33534,0.91821 l -1.33507,0.74985 -1.15014,-1.06016 c -0.86466,-0.79702 -1.45892,-1.10646 -2.39421,-1.24672 -1.73831,-0.26067 -3.71139,0.0236 -4.78984,0.69013 -1.56966,0.9701 -1.69525,1.49266 -1.69414,7.04922 7.9e-4,4.52128 0.0496,5.05376 0.53463,5.84936 0.72087,1.18237 2.35474,1.89123 4.35917,1.89123 2.42333,0 3.85712,-0.79469 5.05424,-2.80133 0.28014,-0.46957 0.34594,-0.46365 1.65365,0.14885 0.74904,0.35084 1.3619,0.77571 1.3619,0.94417 0,0.68002 -1.69263,2.79803 -2.8473,3.56285 -2.29678,1.52132 -5.62516,2.01424 -8.18952,1.21282 z M 34.21758,107.02448 V 92.043951 l 6.945313,0.09383 c 6.57859,0.08888 7.029032,0.127106 8.530862,0.723964 2.17223,0.863288 4.332618,3.033267 5.153352,5.176231 1.620933,4.232314 0.200299,9.134394 -3.323601,11.468534 -2.110255,1.39777 -3.340164,1.62639 -8.749511,1.62639 h -4.841291 l -0.07162,5.35781 -0.07162,5.35782 -1.785937,0.0782 -1.785938,0.0782 z m 14.746885,-0.37002 c 2.194341,-1.25686 3.264511,-3.83518 2.621209,-6.31518 -0.442734,-1.706781 -0.99622,-2.538894 -2.233304,-3.357558 -1.372581,-0.908331 -3.201312,-1.19465 -7.630278,-1.19465 h -3.800345 v 5.841448 5.84145 l 4.960938,-0.0868 c 4.684431,-0.0819 5.023409,-0.12254 6.08178,-0.72875 z m 9.647292,6.80595 c 0.07691,-8.23697 0.100927,-8.58475 0.665969,-9.64126 1.346641,-2.51795 4.246923,-4.063328 7.625822,-4.063328 h 1.97445 v 1.719788 1.7198 h -1.72829 c -1.971725,0 -3.14189,0.4123 -4.092543,1.44201 l -0.661459,0.71646 -0.132291,8.24733 -0.132292,8.24732 -1.799574,0.0785 -1.799574,0.0785 z m 13.176658,-2.4598 v -10.9802 h 1.719792 1.719792 v 10.9802 10.98021 h -1.719792 -1.719792 z m 10.451571,1.91823 c -1.997675,-4.98408 -3.690966,-9.2108 -3.76287,-9.3927 -0.09952,-0.25176 0.525897,-0.33073 2.619092,-0.33073 h 2.749823 l 2.079236,5.03292 c 1.14358,2.76812 2.110862,5.00054 2.149518,4.96094 0.03865,-0.0396 0.927706,-2.15558 1.97567,-4.7022 1.047964,-2.54661 2.653012,-6.41614 3.566769,-8.598956 0.913759,-2.182813 2.042665,-4.891485 2.508684,-6.019271 l 0.847307,-2.050521 h 2.621142 c 1.441633,0 2.621143,0.05883 2.621143,0.130733 0,0.177514 -11.638156,28.985605 -11.945454,29.568745 -0.200737,0.38093 -0.612241,0.46302 -2.32096,0.46302 h -2.07696 z M 71.644098,95.93139 c -0.477856,-0.477853 -0.649433,-0.935395 -0.649433,-1.731818 0,-1.489377 0.891873,-2.38125 2.38125,-2.38125 0.796422,0 1.253964,0.171578 1.731817,0.649432 0.477856,0.477853 0.649433,0.935395 0.649433,1.731818 0,1.489377 -0.891873,2.38125 -2.38125,2.38125 -0.796422,0 -1.253963,-0.171578 -1.731817,-0.649432 z"
       id="path899"
       inkscape:connector-curvature="0"
       sodipodi:nodetypes="cccccccsccccccscccsccccccccccccccccccccssccccccccccscccsssscccscccccscccccccccccscccscccccccccsccsssccssscsccccccccssccccccacscccaccccccacscccccccscscccccscsscscsasscssa"
       inkscape:export-filename="/home/ec0/Boards/BSidesCBR2019/privasec.png"
       inkscape:export-xdpi="1200"
       inkscape:export-ydpi="1200" />
  </g>
</svg>
