#define cybernats_pc_width 84
#define cybernats_pc_height 48
static unsigned char cybernats_pc_bits[] = {
   0x00, 0x00, 0x00, 0x00, 0x00, 0x8e, 0x31, 0x00, 0x00, 0x00, 0x00, 0x00,
   0x00, 0x00, 0x00, 0x20, 0xef, 0x9c, 0x10, 0x01, 0x00, 0x00, 0x00, 0x00,
   0x00, 0x00, 0x80, 0xff, 0x1e, 0x01, 0x00, 0x00, 0x00, 0x00, 0x00, 0x00,
   0x00, 0xc4, 0xe1, 0xef, 0x01, 0x08, 0x00, 0x00, 0x00, 0x00, 0x00, 0x00,
   0x60, 0x0c, 0xff, 0x12, 0x00, 0x00, 0x00, 0x00, 0x00, 0x00, 0x00, 0x02,
   0x7f, 0x76, 0x80, 0x00, 0x00, 0x00, 0x00, 0x00, 0x00, 0x80, 0xff, 0xff,
   0x3e, 0x0e, 0x00, 0x00, 0x00, 0x00, 0x00, 0x00, 0xe0, 0xff, 0xff, 0xbe,
   0x07, 0x01, 0x00, 0x00, 0x00, 0x00, 0x00, 0xfc, 0x7f, 0xff, 0xfc, 0x03,
   0x00, 0x00, 0x00, 0x00, 0x00, 0x00, 0x3f, 0xe6, 0xff, 0x6d, 0x13, 0x00,
   0x00, 0x00, 0x00, 0x00, 0x00, 0xfb, 0x8f, 0xff, 0xfd, 0x49, 0x04, 0x00,
   0x00, 0x00, 0x00, 0x00, 0x1b, 0x1d, 0xfe, 0xfd, 0x10, 0x00, 0x00, 0x00,
   0x00, 0x00, 0x40, 0xcf, 0x3f, 0xfe, 0xed, 0x0a, 0x00, 0x00, 0x00, 0x00,
   0x00, 0x20, 0x66, 0x3e, 0xfe, 0x7b, 0x2e, 0x00, 0x00, 0x00, 0x00, 0x00,
   0x88, 0xb3, 0x3f, 0xfe, 0xfb, 0x1f, 0x00, 0x00, 0x00, 0x00, 0x00, 0xc4,
   0xd8, 0x1f, 0xfe, 0xbb, 0x07, 0x00, 0x00, 0x00, 0x00, 0x00, 0xd0, 0xef,
   0x19, 0xfe, 0xfb, 0x06, 0x00, 0x00, 0x00, 0x00, 0x00, 0xc8, 0x7f, 0x1a,
   0xfe, 0xdb, 0x09, 0x00, 0x00, 0x00, 0x00, 0x00, 0xf0, 0x98, 0x1a, 0xfe,
   0xfb, 0x05, 0x00, 0x00, 0x00, 0x00, 0x00, 0x78, 0xb2, 0x1a, 0xfe, 0x7b,
   0x00, 0x00, 0x00, 0x00, 0x00, 0x00, 0x7c, 0xb7, 0x0e, 0xfe, 0xbb, 0x00,
   0x00, 0x00, 0x00, 0x00, 0x00, 0x6f, 0xa2, 0xfe, 0xff, 0x7b, 0x01, 0x00,
   0x00, 0x00, 0x00, 0x00, 0x6b, 0xad, 0xff, 0xff, 0x31, 0x00, 0x00, 0x00,
   0x00, 0x00, 0x00, 0xeb, 0x6c, 0x1f, 0xff, 0x04, 0x01, 0x00, 0x00, 0x00,
   0x00, 0x00, 0x5b, 0x41, 0xc3, 0xff, 0x07, 0x00, 0x00, 0x00, 0x00, 0x00,
   0x00, 0xf6, 0xc8, 0x3f, 0xf4, 0x03, 0x00, 0x00, 0x00, 0x00, 0x00, 0x00,
   0xd8, 0xdf, 0xe1, 0xff, 0x07, 0x00, 0x00, 0x00, 0x00, 0x00, 0x00, 0xf8,
   0xcb, 0x3f, 0xd0, 0x07, 0x00, 0x00, 0x00, 0x00, 0x00, 0x00, 0x80, 0xc7,
   0xff, 0xef, 0x07, 0x00, 0x00, 0x00, 0x00, 0x00, 0x00, 0x80, 0xfd, 0xff,
   0xff, 0x03, 0x00, 0x00, 0x00, 0x00, 0x00, 0x00, 0xc0, 0xfe, 0x1f, 0xff,
   0x01, 0x00, 0x00, 0x00, 0x00, 0x00, 0x00, 0xe0, 0xe4, 0xff, 0xff, 0x01,
   0x00, 0x00, 0x00, 0x00, 0x00, 0x00, 0x70, 0x50, 0xfd, 0xff, 0x00, 0x00,
   0x00, 0x00, 0x00, 0x00, 0x00, 0x38, 0xaf, 0xfa, 0xff, 0x00, 0x00, 0x00,
   0x00, 0x00, 0x00, 0x00, 0xf8, 0x45, 0x61, 0xff, 0x00, 0x00, 0x00, 0x00,
   0x00, 0x00, 0x00, 0xfc, 0xbb, 0xeb, 0x7f, 0x00, 0x00, 0x00, 0x00, 0x00,
   0x00, 0x00, 0xf0, 0x9f, 0x58, 0x3f, 0x00, 0x00, 0x00, 0x00, 0x00, 0x00,
   0x00, 0xc0, 0xff, 0xb7, 0x3f, 0x00, 0x00, 0x00, 0x00, 0x00, 0x00, 0x00,
   0x00, 0xff, 0xff, 0x1f, 0x00, 0x00, 0x00, 0x00, 0x00, 0x00, 0x00, 0x00,
   0xf8, 0xff, 0x1f, 0x00, 0x00, 0x00, 0x00, 0x00, 0x00, 0x00, 0x00, 0xe0,
   0xff, 0x0f, 0x00, 0x00, 0x00, 0x00, 0x00, 0x00, 0x00, 0x00, 0x00, 0xff,
   0x0f, 0x00, 0x00, 0x00, 0x00, 0x00, 0x00, 0x00, 0x00, 0x00, 0xf8, 0x07,
   0x00, 0x00, 0x00, 0x00, 0x00, 0x00, 0x00, 0x00, 0x00, 0xe0, 0x03, 0x00,
   0x00, 0x00, 0x00, 0x00, 0x00, 0x00, 0x00, 0x00, 0x00, 0x00, 0x00, 0x00,
   0x00, 0x00, 0x00, 0x00, 0x00, 0x00, 0x00, 0x00, 0x00, 0x00, 0x00, 0x00,
   0x00, 0x00, 0x00, 0x00, 0x00, 0x00, 0x00, 0x00, 0x00, 0x00, 0x00, 0x00,
   0x00, 0x00, 0x00, 0x00, 0x00, 0x00, 0x00, 0x00, 0x00, 0x00, 0x00, 0x00 };
