M48
;DRILL file {KiCad 4.0.6} date Sat Nov 10 09:16:11 2018
;FORMAT={-:-/ absolute / inch / decimal}
FMAT,2
INCH,TZ
T1C0.016
T2C0.039
T3C0.079
%
G90
G05
M72
T1
X1.5957Y-3.8055
X1.5957Y-3.8685
X1.5961Y-3.3504
X1.6835Y-3.9535
X1.7315Y-2.6606
X1.7331Y-3.2752
X1.7339Y-3.6055
X1.7376Y-4.1142
X1.7669Y-4.5
X1.7835Y-4.1685
X1.9455Y-4.0839
X1.9933Y-4.002
X1.9933Y-4.3409
X2.0142Y-3.4992
X2.0504Y-4.1831
X2.0563Y-4.002
X2.0566Y-4.1394
X2.0591Y-3.1846
X2.082Y-4.067
X2.0878Y-4.3409
X2.176Y-3.0059
X2.1764Y-4.1535
X2.1764Y-4.248
X2.1764Y-4.2795
X2.2449Y-4.3134
X2.248Y-4.146
X2.2551Y-2.7843
X2.3343Y-3.0051
X2.3736Y-3.0047
X2.402Y-4.264
X2.4122Y-4.0276
X2.4126Y-3.0051
X2.4512Y-4.028
X2.452Y-3.0047
X2.647Y-4.266
X2.697Y-4.775
X2.7256Y-3.498
X2.7533Y-4.266
X2.7795Y-2.0563
X2.789Y-4.898
X2.9142Y-3.6059
X2.9146Y-3.2764
X2.9161Y-3.4992
X2.9362Y-2.6606
X3.0756Y-3.2902
X3.0756Y-3.8669
T2
X1.5929Y-4.2882
X1.5929Y-4.3882
X1.5929Y-4.4882
X1.5929Y-4.585
X1.5929Y-4.685
X1.6929Y-4.2882
X1.6929Y-4.3882
X1.6929Y-4.4882
X1.6929Y-4.585
X1.6929Y-4.685
X2.899Y-4.549
X2.899Y-4.649
X2.899Y-4.749
X2.899Y-4.849
X2.899Y-4.949
X2.899Y-5.049
X2.899Y-5.149
X2.899Y-5.249
T3
X1.6547Y-3.0433
X3.013Y-4.0866
T0
M30
