G04 #@! TF.FileFunction,Soldermask,Top*
%FSLAX46Y46*%
G04 Gerber Fmt 4.6, Leading zero omitted, Abs format (unit mm)*
G04 Created by KiCad (PCBNEW 4.0.6) date Sat Nov 10 09:15:38 2018*
%MOMM*%
%LPD*%
G01*
G04 APERTURE LIST*
%ADD10C,0.100000*%
%ADD11R,1.200000X1.200000*%
%ADD12R,2.100000X2.100000*%
%ADD13O,2.100000X2.100000*%
%ADD14C,1.900000*%
%ADD15O,2.400000X4.900000*%
%ADD16R,1.000000X3.400000*%
%ADD17C,1.300000*%
%ADD18R,1.400000X3.150000*%
G04 APERTURE END LIST*
D10*
D11*
X78030000Y-85170000D03*
X78030000Y-83570000D03*
X77980000Y-96540000D03*
X77980000Y-98140000D03*
X40530000Y-96660000D03*
X40530000Y-98260000D03*
X40540000Y-83500000D03*
X40540000Y-85100000D03*
D12*
X40460000Y-108920000D03*
D13*
X43000000Y-108920000D03*
X40460000Y-111460000D03*
X43000000Y-111460000D03*
X40460000Y-114000000D03*
X43000000Y-114000000D03*
D12*
X40460000Y-116460000D03*
D13*
X43000000Y-116460000D03*
X40460000Y-119000000D03*
X43000000Y-119000000D03*
D14*
X79530000Y-94300000D03*
X79530000Y-93050000D03*
X39030000Y-94550000D03*
X39030000Y-93300000D03*
X39030000Y-95050000D03*
X39030000Y-92550000D03*
X39030000Y-75050000D03*
X39030000Y-74550000D03*
X39030000Y-72550000D03*
X39030000Y-73050000D03*
X79530000Y-95050000D03*
X79530000Y-92550000D03*
X79530000Y-74300000D03*
D15*
X79530000Y-93800000D03*
X39030000Y-93800000D03*
X79530000Y-73800000D03*
X39030000Y-73800000D03*
D16*
X63280000Y-73800000D03*
X62280000Y-73800000D03*
X61280000Y-73800000D03*
X60280000Y-73800000D03*
X55280000Y-73800000D03*
X56280000Y-73800000D03*
X59280000Y-73800000D03*
X58280000Y-73800000D03*
X57280000Y-73800000D03*
D14*
X79530000Y-72550000D03*
X79530000Y-75050000D03*
X79530000Y-73050000D03*
D17*
X68350000Y-50470000D03*
X71350000Y-50470000D03*
D12*
X73634600Y-133324600D03*
D13*
X73634600Y-130784600D03*
X73634600Y-128244600D03*
X73634600Y-125704600D03*
X73634600Y-123164600D03*
X73634600Y-120624600D03*
X73634600Y-118084600D03*
X73634600Y-115544600D03*
D18*
X48088800Y-119359400D03*
X48088800Y-113609400D03*
X52088800Y-113609400D03*
X52088800Y-119359400D03*
X56946800Y-119430800D03*
X56946800Y-113680800D03*
X60946800Y-113680800D03*
X60946800Y-119430800D03*
X65938400Y-119227600D03*
X65938400Y-113477600D03*
X69938400Y-113477600D03*
X69938400Y-119227600D03*
M02*
