G04 #@! TF.FileFunction,Legend,Bot*
%FSLAX46Y46*%
G04 Gerber Fmt 4.6, Leading zero omitted, Abs format (unit mm)*
G04 Created by KiCad (PCBNEW 4.0.6) date Sat Nov 10 09:15:38 2018*
%MOMM*%
%LPD*%
G01*
G04 APERTURE LIST*
%ADD10C,0.100000*%
%ADD11C,0.300000*%
%ADD12C,0.200000*%
%ADD13C,0.250000*%
%ADD14C,0.010000*%
%ADD15C,0.120000*%
%ADD16C,0.254000*%
%ADD17C,0.381000*%
%ADD18C,0.150000*%
%ADD19C,0.125000*%
%ADD20C,0.304800*%
G04 APERTURE END LIST*
D10*
D11*
X75423058Y-134206371D02*
X75423058Y-132706371D01*
X75780201Y-132706371D01*
X75994486Y-132777800D01*
X76137344Y-132920657D01*
X76208772Y-133063514D01*
X76280201Y-133349229D01*
X76280201Y-133563514D01*
X76208772Y-133849229D01*
X76137344Y-133992086D01*
X75994486Y-134134943D01*
X75780201Y-134206371D01*
X75423058Y-134206371D01*
X76994486Y-134206371D02*
X77280201Y-134206371D01*
X77423058Y-134134943D01*
X77494486Y-134063514D01*
X77637344Y-133849229D01*
X77708772Y-133563514D01*
X77708772Y-132992086D01*
X77637344Y-132849229D01*
X77565915Y-132777800D01*
X77423058Y-132706371D01*
X77137344Y-132706371D01*
X76994486Y-132777800D01*
X76923058Y-132849229D01*
X76851629Y-132992086D01*
X76851629Y-133349229D01*
X76923058Y-133492086D01*
X76994486Y-133563514D01*
X77137344Y-133634943D01*
X77423058Y-133634943D01*
X77565915Y-133563514D01*
X77637344Y-133492086D01*
X77708772Y-133349229D01*
X75292972Y-131539371D02*
X75292972Y-130039371D01*
X75650115Y-130039371D01*
X75864400Y-130110800D01*
X76007258Y-130253657D01*
X76078686Y-130396514D01*
X76150115Y-130682229D01*
X76150115Y-130896514D01*
X76078686Y-131182229D01*
X76007258Y-131325086D01*
X75864400Y-131467943D01*
X75650115Y-131539371D01*
X75292972Y-131539371D01*
X77578686Y-131539371D02*
X76721543Y-131539371D01*
X77150115Y-131539371D02*
X77150115Y-130039371D01*
X77007258Y-130253657D01*
X76864400Y-130396514D01*
X76721543Y-130467943D01*
X78507257Y-130039371D02*
X78650114Y-130039371D01*
X78792971Y-130110800D01*
X78864400Y-130182229D01*
X78935829Y-130325086D01*
X79007257Y-130610800D01*
X79007257Y-130967943D01*
X78935829Y-131253657D01*
X78864400Y-131396514D01*
X78792971Y-131467943D01*
X78650114Y-131539371D01*
X78507257Y-131539371D01*
X78364400Y-131467943D01*
X78292971Y-131396514D01*
X78221543Y-131253657D01*
X78150114Y-130967943D01*
X78150114Y-130610800D01*
X78221543Y-130325086D01*
X78292971Y-130182229D01*
X78364400Y-130110800D01*
X78507257Y-130039371D01*
X75267572Y-128520000D02*
X75981858Y-128520000D01*
X75124715Y-128948571D02*
X75624715Y-127448571D01*
X76124715Y-128948571D01*
X76624715Y-128948571D02*
X76624715Y-127448571D01*
X76981858Y-127448571D01*
X77196143Y-127520000D01*
X77339001Y-127662857D01*
X77410429Y-127805714D01*
X77481858Y-128091429D01*
X77481858Y-128305714D01*
X77410429Y-128591429D01*
X77339001Y-128734286D01*
X77196143Y-128877143D01*
X76981858Y-128948571D01*
X76624715Y-128948571D01*
X78410429Y-127448571D02*
X78553286Y-127448571D01*
X78696143Y-127520000D01*
X78767572Y-127591429D01*
X78839001Y-127734286D01*
X78910429Y-128020000D01*
X78910429Y-128377143D01*
X78839001Y-128662857D01*
X78767572Y-128805714D01*
X78696143Y-128877143D01*
X78553286Y-128948571D01*
X78410429Y-128948571D01*
X78267572Y-128877143D01*
X78196143Y-128805714D01*
X78124715Y-128662857D01*
X78053286Y-128377143D01*
X78053286Y-128020000D01*
X78124715Y-127734286D01*
X78196143Y-127591429D01*
X78267572Y-127520000D01*
X78410429Y-127448571D01*
X75369172Y-125980000D02*
X76083458Y-125980000D01*
X75226315Y-126408571D02*
X75726315Y-124908571D01*
X76226315Y-126408571D01*
X76726315Y-126408571D02*
X76726315Y-124908571D01*
X77083458Y-124908571D01*
X77297743Y-124980000D01*
X77440601Y-125122857D01*
X77512029Y-125265714D01*
X77583458Y-125551429D01*
X77583458Y-125765714D01*
X77512029Y-126051429D01*
X77440601Y-126194286D01*
X77297743Y-126337143D01*
X77083458Y-126408571D01*
X76726315Y-126408571D01*
X79012029Y-126408571D02*
X78154886Y-126408571D01*
X78583458Y-126408571D02*
X78583458Y-124908571D01*
X78440601Y-125122857D01*
X78297743Y-125265714D01*
X78154886Y-125337143D01*
X75292972Y-123567000D02*
X76007258Y-123567000D01*
X75150115Y-123995571D02*
X75650115Y-122495571D01*
X76150115Y-123995571D01*
X76650115Y-123995571D02*
X76650115Y-122495571D01*
X77007258Y-122495571D01*
X77221543Y-122567000D01*
X77364401Y-122709857D01*
X77435829Y-122852714D01*
X77507258Y-123138429D01*
X77507258Y-123352714D01*
X77435829Y-123638429D01*
X77364401Y-123781286D01*
X77221543Y-123924143D01*
X77007258Y-123995571D01*
X76650115Y-123995571D01*
X78007258Y-122495571D02*
X78935829Y-122495571D01*
X78435829Y-123067000D01*
X78650115Y-123067000D01*
X78792972Y-123138429D01*
X78864401Y-123209857D01*
X78935829Y-123352714D01*
X78935829Y-123709857D01*
X78864401Y-123852714D01*
X78792972Y-123924143D01*
X78650115Y-123995571D01*
X78221543Y-123995571D01*
X78078686Y-123924143D01*
X78007258Y-123852714D01*
X75369172Y-120747600D02*
X76083458Y-120747600D01*
X75226315Y-121176171D02*
X75726315Y-119676171D01*
X76226315Y-121176171D01*
X76726315Y-121176171D02*
X76726315Y-119676171D01*
X77083458Y-119676171D01*
X77297743Y-119747600D01*
X77440601Y-119890457D01*
X77512029Y-120033314D01*
X77583458Y-120319029D01*
X77583458Y-120533314D01*
X77512029Y-120819029D01*
X77440601Y-120961886D01*
X77297743Y-121104743D01*
X77083458Y-121176171D01*
X76726315Y-121176171D01*
X78154886Y-119819029D02*
X78226315Y-119747600D01*
X78369172Y-119676171D01*
X78726315Y-119676171D01*
X78869172Y-119747600D01*
X78940601Y-119819029D01*
X79012029Y-119961886D01*
X79012029Y-120104743D01*
X78940601Y-120319029D01*
X78083458Y-121176171D01*
X79012029Y-121176171D01*
X75509572Y-118410800D02*
X76223858Y-118410800D01*
X75366715Y-118839371D02*
X75866715Y-117339371D01*
X76366715Y-118839371D01*
X76723858Y-117339371D02*
X77723858Y-117339371D01*
X77081001Y-118839371D01*
X75585772Y-115870800D02*
X76300058Y-115870800D01*
X75442915Y-116299371D02*
X75942915Y-114799371D01*
X76442915Y-116299371D01*
X77585772Y-114799371D02*
X77300058Y-114799371D01*
X77157201Y-114870800D01*
X77085772Y-114942229D01*
X76942915Y-115156514D01*
X76871486Y-115442229D01*
X76871486Y-116013657D01*
X76942915Y-116156514D01*
X77014343Y-116227943D01*
X77157201Y-116299371D01*
X77442915Y-116299371D01*
X77585772Y-116227943D01*
X77657201Y-116156514D01*
X77728629Y-116013657D01*
X77728629Y-115656514D01*
X77657201Y-115513657D01*
X77585772Y-115442229D01*
X77442915Y-115370800D01*
X77157201Y-115370800D01*
X77014343Y-115442229D01*
X76942915Y-115513657D01*
X76871486Y-115656514D01*
D12*
X50746619Y-98130000D02*
G75*
G03X50746619Y-98130000I-116619J0D01*
G01*
D13*
X61695714Y-150304762D02*
X61790952Y-150352381D01*
X61981429Y-150352381D01*
X62076667Y-150304762D01*
X62124286Y-150209524D01*
X62124286Y-149828571D01*
X62076667Y-149733333D01*
X61981429Y-149685714D01*
X61790952Y-149685714D01*
X61695714Y-149733333D01*
X61648095Y-149828571D01*
X61648095Y-149923810D01*
X62124286Y-150019048D01*
X60790952Y-150304762D02*
X60886190Y-150352381D01*
X61076667Y-150352381D01*
X61171905Y-150304762D01*
X61219524Y-150257143D01*
X61267143Y-150161905D01*
X61267143Y-149876190D01*
X61219524Y-149780952D01*
X61171905Y-149733333D01*
X61076667Y-149685714D01*
X60886190Y-149685714D01*
X60790952Y-149733333D01*
X60171905Y-149352381D02*
X60076666Y-149352381D01*
X59981428Y-149400000D01*
X59933809Y-149447619D01*
X59886190Y-149542857D01*
X59838571Y-149733333D01*
X59838571Y-149971429D01*
X59886190Y-150161905D01*
X59933809Y-150257143D01*
X59981428Y-150304762D01*
X60076666Y-150352381D01*
X60171905Y-150352381D01*
X60267143Y-150304762D01*
X60314762Y-150257143D01*
X60362381Y-150161905D01*
X60410000Y-149971429D01*
X60410000Y-149733333D01*
X60362381Y-149542857D01*
X60314762Y-149447619D01*
X60267143Y-149400000D01*
X60171905Y-149352381D01*
X58362380Y-150733333D02*
X58410000Y-150685714D01*
X58505238Y-150542857D01*
X58552857Y-150447619D01*
X58600476Y-150304762D01*
X58648095Y-150066667D01*
X58648095Y-149876190D01*
X58600476Y-149638095D01*
X58552857Y-149495238D01*
X58505238Y-149400000D01*
X58410000Y-149257143D01*
X58362380Y-149209524D01*
X57600475Y-150304762D02*
X57695713Y-150352381D01*
X57886190Y-150352381D01*
X57981428Y-150304762D01*
X58029047Y-150209524D01*
X58029047Y-149828571D01*
X57981428Y-149733333D01*
X57886190Y-149685714D01*
X57695713Y-149685714D01*
X57600475Y-149733333D01*
X57552856Y-149828571D01*
X57552856Y-149923810D01*
X58029047Y-150019048D01*
X57981428Y-149304762D02*
X57933809Y-149400000D01*
X57838571Y-149447619D01*
X57743333Y-149447619D01*
X57648094Y-149400000D01*
X57600475Y-149304762D01*
X57076666Y-149352381D02*
X57171904Y-149542857D01*
X56648095Y-150352381D02*
X56648095Y-149352381D01*
X56552857Y-149971429D02*
X56267142Y-150352381D01*
X56267142Y-149685714D02*
X56648095Y-150066667D01*
X55695714Y-150352381D02*
X55790952Y-150304762D01*
X55838571Y-150257143D01*
X55886190Y-150161905D01*
X55886190Y-149876190D01*
X55838571Y-149780952D01*
X55790952Y-149733333D01*
X55695714Y-149685714D01*
X55552856Y-149685714D01*
X55457618Y-149733333D01*
X55409999Y-149780952D01*
X55362380Y-149876190D01*
X55362380Y-150161905D01*
X55409999Y-150257143D01*
X55457618Y-150304762D01*
X55552856Y-150352381D01*
X55695714Y-150352381D01*
X55838571Y-149400000D02*
X55362380Y-149400000D01*
X55029047Y-150733333D02*
X54981428Y-150685714D01*
X54886190Y-150542857D01*
X54838571Y-150447619D01*
X54790952Y-150304762D01*
X54743333Y-150066667D01*
X54743333Y-149876190D01*
X54790952Y-149638095D01*
X54838571Y-149495238D01*
X54886190Y-149400000D01*
X54981428Y-149257143D01*
X55029047Y-149209524D01*
X60481428Y-152054762D02*
X60576666Y-152102381D01*
X60767143Y-152102381D01*
X60862381Y-152054762D01*
X60910000Y-152007143D01*
X60957619Y-151911905D01*
X60957619Y-151626190D01*
X60910000Y-151530952D01*
X60862381Y-151483333D01*
X60767143Y-151435714D01*
X60576666Y-151435714D01*
X60481428Y-151483333D01*
X60100476Y-152054762D02*
X60005238Y-152102381D01*
X59814762Y-152102381D01*
X59719523Y-152054762D01*
X59671904Y-151959524D01*
X59671904Y-151911905D01*
X59719523Y-151816667D01*
X59814762Y-151769048D01*
X59957619Y-151769048D01*
X60052857Y-151721429D01*
X60100476Y-151626190D01*
X60100476Y-151578571D01*
X60052857Y-151483333D01*
X59957619Y-151435714D01*
X59814762Y-151435714D01*
X59719523Y-151483333D01*
X59243333Y-152102381D02*
X59243333Y-151435714D01*
X59243333Y-151102381D02*
X59290952Y-151150000D01*
X59243333Y-151197619D01*
X59195714Y-151150000D01*
X59243333Y-151102381D01*
X59243333Y-151197619D01*
X58767143Y-152102381D02*
X58767143Y-151435714D01*
X58767143Y-151626190D02*
X58719524Y-151530952D01*
X58671905Y-151483333D01*
X58576667Y-151435714D01*
X58481428Y-151435714D01*
X57719523Y-152102381D02*
X57719523Y-151578571D01*
X57767142Y-151483333D01*
X57862380Y-151435714D01*
X58052857Y-151435714D01*
X58148095Y-151483333D01*
X57719523Y-152054762D02*
X57814761Y-152102381D01*
X58052857Y-152102381D01*
X58148095Y-152054762D01*
X58195714Y-151959524D01*
X58195714Y-151864286D01*
X58148095Y-151769048D01*
X58052857Y-151721429D01*
X57814761Y-151721429D01*
X57719523Y-151673810D01*
X56814761Y-152054762D02*
X56909999Y-152102381D01*
X57100476Y-152102381D01*
X57195714Y-152054762D01*
X57243333Y-152007143D01*
X57290952Y-151911905D01*
X57290952Y-151626190D01*
X57243333Y-151530952D01*
X57195714Y-151483333D01*
X57100476Y-151435714D01*
X56909999Y-151435714D01*
X56814761Y-151483333D01*
X56433809Y-151197619D02*
X56386190Y-151150000D01*
X56290952Y-151102381D01*
X56052856Y-151102381D01*
X55957618Y-151150000D01*
X55909999Y-151197619D01*
X55862380Y-151292857D01*
X55862380Y-151388095D01*
X55909999Y-151530952D01*
X56481428Y-152102381D01*
X55862380Y-152102381D01*
X60124286Y-153852381D02*
X60124286Y-152852381D01*
X59743333Y-152852381D01*
X59648095Y-152900000D01*
X59600476Y-152947619D01*
X59552857Y-153042857D01*
X59552857Y-153185714D01*
X59600476Y-153280952D01*
X59648095Y-153328571D01*
X59743333Y-153376190D01*
X60124286Y-153376190D01*
X58743333Y-153804762D02*
X58838571Y-153852381D01*
X59029048Y-153852381D01*
X59124286Y-153804762D01*
X59171905Y-153709524D01*
X59171905Y-153328571D01*
X59124286Y-153233333D01*
X59029048Y-153185714D01*
X58838571Y-153185714D01*
X58743333Y-153233333D01*
X58695714Y-153328571D01*
X58695714Y-153423810D01*
X59171905Y-153519048D01*
X58410000Y-153185714D02*
X58029048Y-153185714D01*
X58267143Y-152852381D02*
X58267143Y-153709524D01*
X58219524Y-153804762D01*
X58124286Y-153852381D01*
X58029048Y-153852381D01*
X57314761Y-153804762D02*
X57409999Y-153852381D01*
X57600476Y-153852381D01*
X57695714Y-153804762D01*
X57743333Y-153709524D01*
X57743333Y-153328571D01*
X57695714Y-153233333D01*
X57600476Y-153185714D01*
X57409999Y-153185714D01*
X57314761Y-153233333D01*
X57267142Y-153328571D01*
X57267142Y-153423810D01*
X57743333Y-153519048D01*
X56838571Y-153852381D02*
X56838571Y-153185714D01*
X56838571Y-153376190D02*
X56790952Y-153280952D01*
X56743333Y-153233333D01*
X56648095Y-153185714D01*
X56552856Y-153185714D01*
D14*
G36*
X42304948Y-120276659D02*
X42257151Y-120302434D01*
X42237378Y-120350521D01*
X42235967Y-120374833D01*
X42251464Y-120439540D01*
X42295244Y-120475141D01*
X42330537Y-120480667D01*
X42372019Y-120491569D01*
X42426348Y-120518594D01*
X42480064Y-120553222D01*
X42519712Y-120586930D01*
X42532300Y-120608430D01*
X42514696Y-120625391D01*
X42492821Y-120628833D01*
X42437165Y-120646481D01*
X42377614Y-120692172D01*
X42326919Y-120755025D01*
X42311533Y-120783496D01*
X42291781Y-120844306D01*
X42272376Y-120934372D01*
X42255325Y-121040649D01*
X42242637Y-121150092D01*
X42236320Y-121249656D01*
X42235967Y-121274324D01*
X42252304Y-121372583D01*
X42298682Y-121445049D01*
X42371155Y-121487347D01*
X42436627Y-121496667D01*
X42496913Y-121491274D01*
X42549876Y-121470436D01*
X42611497Y-121427162D01*
X42630149Y-121412000D01*
X42687205Y-121367649D01*
X42733109Y-121336998D01*
X42755302Y-121327333D01*
X42788627Y-121311217D01*
X42832169Y-121271455D01*
X42874747Y-121220926D01*
X42905177Y-121172513D01*
X42913300Y-121145350D01*
X42896397Y-121091655D01*
X42853037Y-121059544D01*
X42794247Y-121050925D01*
X42731051Y-121067705D01*
X42680467Y-121105083D01*
X42641196Y-121140983D01*
X42611856Y-121157822D01*
X42609983Y-121158000D01*
X42581323Y-121169890D01*
X42535227Y-121199551D01*
X42519725Y-121211001D01*
X42474865Y-121240270D01*
X42445390Y-121250341D01*
X42440883Y-121248043D01*
X42437084Y-121214560D01*
X42442005Y-121153306D01*
X42453352Y-121077385D01*
X42468828Y-120999902D01*
X42486140Y-120933960D01*
X42502991Y-120892664D01*
X42503183Y-120892369D01*
X42546096Y-120850585D01*
X42601888Y-120820383D01*
X42691280Y-120773303D01*
X42754604Y-120707289D01*
X42784697Y-120630553D01*
X42786195Y-120608998D01*
X42775678Y-120544853D01*
X42741008Y-120482729D01*
X42677226Y-120415992D01*
X42588887Y-120345051D01*
X42519188Y-120298617D01*
X42460164Y-120275622D01*
X42393110Y-120269029D01*
X42386746Y-120269000D01*
X42304948Y-120276659D01*
X42304948Y-120276659D01*
G37*
X42304948Y-120276659D02*
X42257151Y-120302434D01*
X42237378Y-120350521D01*
X42235967Y-120374833D01*
X42251464Y-120439540D01*
X42295244Y-120475141D01*
X42330537Y-120480667D01*
X42372019Y-120491569D01*
X42426348Y-120518594D01*
X42480064Y-120553222D01*
X42519712Y-120586930D01*
X42532300Y-120608430D01*
X42514696Y-120625391D01*
X42492821Y-120628833D01*
X42437165Y-120646481D01*
X42377614Y-120692172D01*
X42326919Y-120755025D01*
X42311533Y-120783496D01*
X42291781Y-120844306D01*
X42272376Y-120934372D01*
X42255325Y-121040649D01*
X42242637Y-121150092D01*
X42236320Y-121249656D01*
X42235967Y-121274324D01*
X42252304Y-121372583D01*
X42298682Y-121445049D01*
X42371155Y-121487347D01*
X42436627Y-121496667D01*
X42496913Y-121491274D01*
X42549876Y-121470436D01*
X42611497Y-121427162D01*
X42630149Y-121412000D01*
X42687205Y-121367649D01*
X42733109Y-121336998D01*
X42755302Y-121327333D01*
X42788627Y-121311217D01*
X42832169Y-121271455D01*
X42874747Y-121220926D01*
X42905177Y-121172513D01*
X42913300Y-121145350D01*
X42896397Y-121091655D01*
X42853037Y-121059544D01*
X42794247Y-121050925D01*
X42731051Y-121067705D01*
X42680467Y-121105083D01*
X42641196Y-121140983D01*
X42611856Y-121157822D01*
X42609983Y-121158000D01*
X42581323Y-121169890D01*
X42535227Y-121199551D01*
X42519725Y-121211001D01*
X42474865Y-121240270D01*
X42445390Y-121250341D01*
X42440883Y-121248043D01*
X42437084Y-121214560D01*
X42442005Y-121153306D01*
X42453352Y-121077385D01*
X42468828Y-120999902D01*
X42486140Y-120933960D01*
X42502991Y-120892664D01*
X42503183Y-120892369D01*
X42546096Y-120850585D01*
X42601888Y-120820383D01*
X42691280Y-120773303D01*
X42754604Y-120707289D01*
X42784697Y-120630553D01*
X42786195Y-120608998D01*
X42775678Y-120544853D01*
X42741008Y-120482729D01*
X42677226Y-120415992D01*
X42588887Y-120345051D01*
X42519188Y-120298617D01*
X42460164Y-120275622D01*
X42393110Y-120269029D01*
X42386746Y-120269000D01*
X42304948Y-120276659D01*
G36*
X41701195Y-120233241D02*
X41675050Y-120247833D01*
X41645651Y-120264672D01*
X41613991Y-120269000D01*
X41556625Y-120289253D01*
X41497908Y-120347136D01*
X41442217Y-120438333D01*
X41407961Y-120499373D01*
X41372874Y-120550382D01*
X41369254Y-120554750D01*
X41339167Y-120601170D01*
X41315599Y-120665534D01*
X41297449Y-120753575D01*
X41283614Y-120871027D01*
X41272993Y-121023622D01*
X41270736Y-121067403D01*
X41265485Y-121195960D01*
X41264375Y-121288212D01*
X41267618Y-121350006D01*
X41275430Y-121387186D01*
X41282937Y-121400778D01*
X41329685Y-121428439D01*
X41387164Y-121429066D01*
X41427400Y-121407767D01*
X41441409Y-121373702D01*
X41450634Y-121312816D01*
X41452800Y-121262246D01*
X41455190Y-121181644D01*
X41461297Y-121107628D01*
X41466029Y-121075979D01*
X41480950Y-121029999D01*
X41510572Y-121012241D01*
X41549081Y-121009833D01*
X41612458Y-121014773D01*
X41691394Y-121027247D01*
X41724736Y-121034262D01*
X41795814Y-121056632D01*
X41835284Y-121089880D01*
X41851922Y-121145401D01*
X41854678Y-121203033D01*
X41871236Y-121265278D01*
X41917657Y-121298677D01*
X41975395Y-121302404D01*
X42005641Y-121297401D01*
X42023343Y-121284814D01*
X42031820Y-121255334D01*
X42034394Y-121199651D01*
X42034452Y-121136833D01*
X42026731Y-120994464D01*
X42006349Y-120843367D01*
X41995313Y-120791824D01*
X41791515Y-120791824D01*
X41772215Y-120799271D01*
X41721403Y-120802907D01*
X41649790Y-120802006D01*
X41644659Y-120801773D01*
X41567473Y-120796784D01*
X41524759Y-120789383D01*
X41508656Y-120777088D01*
X41510545Y-120759439D01*
X41531060Y-120721083D01*
X41566874Y-120667987D01*
X41580323Y-120650000D01*
X41624783Y-120587371D01*
X41662900Y-120525856D01*
X41669142Y-120514300D01*
X41700971Y-120452683D01*
X41716518Y-120556354D01*
X41732101Y-120631184D01*
X41753090Y-120697896D01*
X41761765Y-120717462D01*
X41782936Y-120763448D01*
X41791515Y-120791824D01*
X41995313Y-120791824D01*
X41976405Y-120703519D01*
X41957252Y-120639417D01*
X41940351Y-120582540D01*
X41920408Y-120505250D01*
X41908572Y-120454632D01*
X41877429Y-120344702D01*
X41840174Y-120272894D01*
X41793963Y-120235125D01*
X41749895Y-120226667D01*
X41701195Y-120233241D01*
X41701195Y-120233241D01*
G37*
X41701195Y-120233241D02*
X41675050Y-120247833D01*
X41645651Y-120264672D01*
X41613991Y-120269000D01*
X41556625Y-120289253D01*
X41497908Y-120347136D01*
X41442217Y-120438333D01*
X41407961Y-120499373D01*
X41372874Y-120550382D01*
X41369254Y-120554750D01*
X41339167Y-120601170D01*
X41315599Y-120665534D01*
X41297449Y-120753575D01*
X41283614Y-120871027D01*
X41272993Y-121023622D01*
X41270736Y-121067403D01*
X41265485Y-121195960D01*
X41264375Y-121288212D01*
X41267618Y-121350006D01*
X41275430Y-121387186D01*
X41282937Y-121400778D01*
X41329685Y-121428439D01*
X41387164Y-121429066D01*
X41427400Y-121407767D01*
X41441409Y-121373702D01*
X41450634Y-121312816D01*
X41452800Y-121262246D01*
X41455190Y-121181644D01*
X41461297Y-121107628D01*
X41466029Y-121075979D01*
X41480950Y-121029999D01*
X41510572Y-121012241D01*
X41549081Y-121009833D01*
X41612458Y-121014773D01*
X41691394Y-121027247D01*
X41724736Y-121034262D01*
X41795814Y-121056632D01*
X41835284Y-121089880D01*
X41851922Y-121145401D01*
X41854678Y-121203033D01*
X41871236Y-121265278D01*
X41917657Y-121298677D01*
X41975395Y-121302404D01*
X42005641Y-121297401D01*
X42023343Y-121284814D01*
X42031820Y-121255334D01*
X42034394Y-121199651D01*
X42034452Y-121136833D01*
X42026731Y-120994464D01*
X42006349Y-120843367D01*
X41995313Y-120791824D01*
X41791515Y-120791824D01*
X41772215Y-120799271D01*
X41721403Y-120802907D01*
X41649790Y-120802006D01*
X41644659Y-120801773D01*
X41567473Y-120796784D01*
X41524759Y-120789383D01*
X41508656Y-120777088D01*
X41510545Y-120759439D01*
X41531060Y-120721083D01*
X41566874Y-120667987D01*
X41580323Y-120650000D01*
X41624783Y-120587371D01*
X41662900Y-120525856D01*
X41669142Y-120514300D01*
X41700971Y-120452683D01*
X41716518Y-120556354D01*
X41732101Y-120631184D01*
X41753090Y-120697896D01*
X41761765Y-120717462D01*
X41782936Y-120763448D01*
X41791515Y-120791824D01*
X41995313Y-120791824D01*
X41976405Y-120703519D01*
X41957252Y-120639417D01*
X41940351Y-120582540D01*
X41920408Y-120505250D01*
X41908572Y-120454632D01*
X41877429Y-120344702D01*
X41840174Y-120272894D01*
X41793963Y-120235125D01*
X41749895Y-120226667D01*
X41701195Y-120233241D01*
G36*
X40692073Y-120240083D02*
X40616405Y-120287640D01*
X40546034Y-120348841D01*
X40415633Y-120471015D01*
X40415633Y-120720468D01*
X40418241Y-120867931D01*
X40427451Y-120981853D01*
X40445344Y-121070781D01*
X40474002Y-121143266D01*
X40515506Y-121207854D01*
X40542212Y-121240420D01*
X40585476Y-121288145D01*
X40621202Y-121316634D01*
X40663109Y-121331829D01*
X40724919Y-121339669D01*
X40780276Y-121343508D01*
X40937436Y-121353594D01*
X41004230Y-121252754D01*
X41041455Y-121191559D01*
X41068193Y-121132052D01*
X41086107Y-121065495D01*
X41096862Y-120983148D01*
X41102121Y-120876272D01*
X41103549Y-120736129D01*
X41103550Y-120731121D01*
X41102944Y-120658694D01*
X40901308Y-120658694D01*
X40900882Y-120720702D01*
X40896270Y-120800043D01*
X40883457Y-120920586D01*
X40863006Y-121020072D01*
X40836817Y-121092432D01*
X40806792Y-121131596D01*
X40790820Y-121136833D01*
X40756636Y-121122398D01*
X40717685Y-121089208D01*
X40668604Y-121007294D01*
X40638366Y-120889138D01*
X40627448Y-120736642D01*
X40627418Y-120728413D01*
X40629441Y-120647317D01*
X40638048Y-120594996D01*
X40656800Y-120557997D01*
X40679255Y-120532621D01*
X40731169Y-120491475D01*
X40775698Y-120486507D01*
X40822765Y-120518672D01*
X40850480Y-120549132D01*
X40878229Y-120584536D01*
X40894465Y-120617181D01*
X40901308Y-120658694D01*
X41102944Y-120658694D01*
X41102536Y-120609934D01*
X41096768Y-120521745D01*
X41082154Y-120457226D01*
X41054606Y-120407048D01*
X41010032Y-120361881D01*
X40944342Y-120312396D01*
X40909236Y-120287918D01*
X40829673Y-120241701D01*
X40760224Y-120225263D01*
X40692073Y-120240083D01*
X40692073Y-120240083D01*
G37*
X40692073Y-120240083D02*
X40616405Y-120287640D01*
X40546034Y-120348841D01*
X40415633Y-120471015D01*
X40415633Y-120720468D01*
X40418241Y-120867931D01*
X40427451Y-120981853D01*
X40445344Y-121070781D01*
X40474002Y-121143266D01*
X40515506Y-121207854D01*
X40542212Y-121240420D01*
X40585476Y-121288145D01*
X40621202Y-121316634D01*
X40663109Y-121331829D01*
X40724919Y-121339669D01*
X40780276Y-121343508D01*
X40937436Y-121353594D01*
X41004230Y-121252754D01*
X41041455Y-121191559D01*
X41068193Y-121132052D01*
X41086107Y-121065495D01*
X41096862Y-120983148D01*
X41102121Y-120876272D01*
X41103549Y-120736129D01*
X41103550Y-120731121D01*
X41102944Y-120658694D01*
X40901308Y-120658694D01*
X40900882Y-120720702D01*
X40896270Y-120800043D01*
X40883457Y-120920586D01*
X40863006Y-121020072D01*
X40836817Y-121092432D01*
X40806792Y-121131596D01*
X40790820Y-121136833D01*
X40756636Y-121122398D01*
X40717685Y-121089208D01*
X40668604Y-121007294D01*
X40638366Y-120889138D01*
X40627448Y-120736642D01*
X40627418Y-120728413D01*
X40629441Y-120647317D01*
X40638048Y-120594996D01*
X40656800Y-120557997D01*
X40679255Y-120532621D01*
X40731169Y-120491475D01*
X40775698Y-120486507D01*
X40822765Y-120518672D01*
X40850480Y-120549132D01*
X40878229Y-120584536D01*
X40894465Y-120617181D01*
X40901308Y-120658694D01*
X41102944Y-120658694D01*
X41102536Y-120609934D01*
X41096768Y-120521745D01*
X41082154Y-120457226D01*
X41054606Y-120407048D01*
X41010032Y-120361881D01*
X40944342Y-120312396D01*
X40909236Y-120287918D01*
X40829673Y-120241701D01*
X40760224Y-120225263D01*
X40692073Y-120240083D01*
G36*
X44761901Y-119877079D02*
X44727487Y-119904264D01*
X44710433Y-119936345D01*
X44697109Y-119993949D01*
X44686515Y-120082937D01*
X44678767Y-120190014D01*
X44671641Y-120286842D01*
X44663269Y-120366011D01*
X44654704Y-120419259D01*
X44647126Y-120438333D01*
X44620942Y-120429230D01*
X44569057Y-120405455D01*
X44507941Y-120374833D01*
X44397917Y-120327320D01*
X44314426Y-120312729D01*
X44257402Y-120331052D01*
X44251034Y-120336733D01*
X44228609Y-120385040D01*
X44230358Y-120445816D01*
X44254818Y-120497842D01*
X44262675Y-120505647D01*
X44298065Y-120529000D01*
X44354242Y-120559785D01*
X44417389Y-120591185D01*
X44473690Y-120616379D01*
X44509327Y-120628550D01*
X44512276Y-120628833D01*
X44535508Y-120639708D01*
X44580088Y-120667118D01*
X44602087Y-120681750D01*
X44671951Y-120716290D01*
X44746379Y-120733253D01*
X44811843Y-120731225D01*
X44854811Y-120708791D01*
X44855281Y-120708208D01*
X44862971Y-120679203D01*
X44871160Y-120615348D01*
X44879170Y-120524112D01*
X44886324Y-120412962D01*
X44890984Y-120314504D01*
X44895993Y-120179926D01*
X44898405Y-120081134D01*
X44897876Y-120011642D01*
X44894060Y-119964961D01*
X44886611Y-119934607D01*
X44875185Y-119914090D01*
X44869298Y-119907046D01*
X44816068Y-119871272D01*
X44761901Y-119877079D01*
X44761901Y-119877079D01*
G37*
X44761901Y-119877079D02*
X44727487Y-119904264D01*
X44710433Y-119936345D01*
X44697109Y-119993949D01*
X44686515Y-120082937D01*
X44678767Y-120190014D01*
X44671641Y-120286842D01*
X44663269Y-120366011D01*
X44654704Y-120419259D01*
X44647126Y-120438333D01*
X44620942Y-120429230D01*
X44569057Y-120405455D01*
X44507941Y-120374833D01*
X44397917Y-120327320D01*
X44314426Y-120312729D01*
X44257402Y-120331052D01*
X44251034Y-120336733D01*
X44228609Y-120385040D01*
X44230358Y-120445816D01*
X44254818Y-120497842D01*
X44262675Y-120505647D01*
X44298065Y-120529000D01*
X44354242Y-120559785D01*
X44417389Y-120591185D01*
X44473690Y-120616379D01*
X44509327Y-120628550D01*
X44512276Y-120628833D01*
X44535508Y-120639708D01*
X44580088Y-120667118D01*
X44602087Y-120681750D01*
X44671951Y-120716290D01*
X44746379Y-120733253D01*
X44811843Y-120731225D01*
X44854811Y-120708791D01*
X44855281Y-120708208D01*
X44862971Y-120679203D01*
X44871160Y-120615348D01*
X44879170Y-120524112D01*
X44886324Y-120412962D01*
X44890984Y-120314504D01*
X44895993Y-120179926D01*
X44898405Y-120081134D01*
X44897876Y-120011642D01*
X44894060Y-119964961D01*
X44886611Y-119934607D01*
X44875185Y-119914090D01*
X44869298Y-119907046D01*
X44816068Y-119871272D01*
X44761901Y-119877079D01*
G36*
X42327274Y-107849494D02*
X42140130Y-107850923D01*
X41967668Y-107853472D01*
X41816666Y-107857130D01*
X41693901Y-107861884D01*
X41606149Y-107867724D01*
X41600967Y-107868225D01*
X41510223Y-107875687D01*
X41389455Y-107883325D01*
X41250963Y-107890482D01*
X41107050Y-107896497D01*
X41018883Y-107899411D01*
X40883037Y-107903588D01*
X40782990Y-107907664D01*
X40712220Y-107912590D01*
X40664207Y-107919315D01*
X40632428Y-107928791D01*
X40610364Y-107941968D01*
X40591492Y-107959797D01*
X40589402Y-107962008D01*
X40549433Y-107997417D01*
X40518272Y-108013421D01*
X40516868Y-108013500D01*
X40488562Y-108028012D01*
X40439113Y-108067213D01*
X40375998Y-108124596D01*
X40306694Y-108193658D01*
X40291806Y-108209299D01*
X40261036Y-108240464D01*
X40209016Y-108291706D01*
X40145094Y-108353845D01*
X40119392Y-108378632D01*
X40048262Y-108448285D01*
X39980757Y-108516467D01*
X39928751Y-108571131D01*
X39918309Y-108582682D01*
X39879037Y-108626283D01*
X39819083Y-108691986D01*
X39746593Y-108770897D01*
X39669715Y-108854119D01*
X39669508Y-108854342D01*
X39484300Y-109054235D01*
X39484300Y-110098952D01*
X39483943Y-110305210D01*
X39482917Y-110498404D01*
X39481293Y-110674441D01*
X39479142Y-110829229D01*
X39476534Y-110958678D01*
X39473539Y-111058695D01*
X39470229Y-111125189D01*
X39466673Y-111154067D01*
X39466112Y-111154909D01*
X39461671Y-111177930D01*
X39457056Y-111238486D01*
X39452443Y-111331781D01*
X39448008Y-111453016D01*
X39443926Y-111597395D01*
X39440374Y-111760122D01*
X39437559Y-111934033D01*
X39434759Y-112135044D01*
X39432135Y-112298292D01*
X39429380Y-112428343D01*
X39426187Y-112529767D01*
X39422251Y-112607130D01*
X39417266Y-112665000D01*
X39410926Y-112707943D01*
X39402924Y-112740529D01*
X39392955Y-112767323D01*
X39380713Y-112792895D01*
X39379907Y-112794476D01*
X39364372Y-112826589D01*
X39352850Y-112857957D01*
X39344913Y-112894950D01*
X39340138Y-112943940D01*
X39338097Y-113011298D01*
X39338365Y-113103395D01*
X39340517Y-113226603D01*
X39343147Y-113344809D01*
X39347335Y-113488046D01*
X39352967Y-113624384D01*
X39359571Y-113745483D01*
X39366677Y-113843005D01*
X39373815Y-113908610D01*
X39375541Y-113919000D01*
X39390768Y-114010415D01*
X39405086Y-114112973D01*
X39410890Y-114162417D01*
X39420022Y-114236034D01*
X39429710Y-114295233D01*
X39436001Y-114321167D01*
X39442611Y-114362671D01*
X39443614Y-114422918D01*
X39443178Y-114432292D01*
X39445970Y-114487602D01*
X39460548Y-114511348D01*
X39463084Y-114511667D01*
X39478529Y-114531597D01*
X39483769Y-114588535D01*
X39483222Y-114612208D01*
X39482997Y-114679015D01*
X39487322Y-114731063D01*
X39490438Y-114744500D01*
X39499664Y-114783651D01*
X39509876Y-114846258D01*
X39514086Y-114878534D01*
X39528095Y-114956174D01*
X39548585Y-115028295D01*
X39556320Y-115047868D01*
X39583893Y-115115490D01*
X39605371Y-115176904D01*
X39628346Y-115225704D01*
X39654893Y-115252989D01*
X39697110Y-115273591D01*
X39734702Y-115292780D01*
X39783022Y-115305688D01*
X39862855Y-115313492D01*
X39963578Y-115315174D01*
X39967535Y-115315106D01*
X40055554Y-115314982D01*
X40130291Y-115317583D01*
X40179367Y-115322384D01*
X40188092Y-115324453D01*
X40239016Y-115341415D01*
X40257796Y-115347436D01*
X40279103Y-115365879D01*
X40270290Y-115395061D01*
X40244728Y-115429584D01*
X40196421Y-115484141D01*
X40131460Y-115552765D01*
X40055940Y-115629494D01*
X39975953Y-115708362D01*
X39897593Y-115783406D01*
X39826951Y-115848661D01*
X39770122Y-115898163D01*
X39733199Y-115925947D01*
X39723979Y-115929833D01*
X39686837Y-115942123D01*
X39634566Y-115973005D01*
X39613886Y-115988042D01*
X39556746Y-116029211D01*
X39505881Y-116061217D01*
X39494075Y-116067417D01*
X39456644Y-116094004D01*
X39404336Y-116141604D01*
X39358474Y-116189153D01*
X39267190Y-116289723D01*
X39283087Y-116834736D01*
X39289845Y-117074939D01*
X39294955Y-117280588D01*
X39298430Y-117459429D01*
X39300282Y-117619209D01*
X39300521Y-117767675D01*
X39299161Y-117912574D01*
X39296212Y-118061652D01*
X39291687Y-118222655D01*
X39285598Y-118403332D01*
X39285491Y-118406333D01*
X39279774Y-118584181D01*
X39276780Y-118724643D01*
X39276569Y-118832584D01*
X39279203Y-118912867D01*
X39284744Y-118970357D01*
X39293151Y-119009583D01*
X39302807Y-119058849D01*
X39312923Y-119141380D01*
X39322644Y-119248128D01*
X39331112Y-119370044D01*
X39335936Y-119461724D01*
X39342537Y-119609708D01*
X39350108Y-119721047D01*
X39363165Y-119801282D01*
X39386223Y-119855952D01*
X39423798Y-119890598D01*
X39480404Y-119910760D01*
X39560558Y-119921977D01*
X39668776Y-119929789D01*
X39720187Y-119933152D01*
X39827468Y-119941159D01*
X39921050Y-119949592D01*
X39991998Y-119957540D01*
X40031376Y-119964095D01*
X40034633Y-119965141D01*
X40071938Y-119972364D01*
X40145302Y-119979884D01*
X40248476Y-119987483D01*
X40375206Y-119994947D01*
X40519243Y-120002060D01*
X40674334Y-120008606D01*
X40834229Y-120014370D01*
X40992675Y-120019137D01*
X41143423Y-120022691D01*
X41280219Y-120024815D01*
X41396813Y-120025296D01*
X41486953Y-120023916D01*
X41544389Y-120020462D01*
X41559419Y-120017720D01*
X41622977Y-120003687D01*
X41721917Y-119990704D01*
X41849738Y-119978956D01*
X41999941Y-119968626D01*
X42166023Y-119959898D01*
X42341485Y-119952955D01*
X42519827Y-119947981D01*
X42694546Y-119945159D01*
X42859143Y-119944674D01*
X43007117Y-119946710D01*
X43131968Y-119951449D01*
X43227194Y-119959076D01*
X43283717Y-119968992D01*
X43343396Y-119979909D01*
X43431110Y-119987830D01*
X43538251Y-119992822D01*
X43656212Y-119994948D01*
X43776384Y-119994273D01*
X43890161Y-119990864D01*
X43988935Y-119984783D01*
X44064097Y-119976097D01*
X44107041Y-119964871D01*
X44110463Y-119962756D01*
X44156339Y-119937833D01*
X44185311Y-119931006D01*
X44225063Y-119920213D01*
X44254763Y-119886238D01*
X44276396Y-119823975D01*
X44291943Y-119728315D01*
X44300623Y-119634000D01*
X44306819Y-119523548D01*
X44311659Y-119382330D01*
X44315138Y-119218499D01*
X44317254Y-119040205D01*
X44317311Y-119025952D01*
X44104810Y-119025952D01*
X44102463Y-119216949D01*
X44097522Y-119379951D01*
X44089946Y-119508196D01*
X44088972Y-119519642D01*
X44079004Y-119615321D01*
X44064430Y-119684523D01*
X44039026Y-119731293D01*
X43996567Y-119759675D01*
X43930828Y-119773716D01*
X43835586Y-119777461D01*
X43704614Y-119774954D01*
X43696467Y-119774721D01*
X43559209Y-119769049D01*
X43403038Y-119759901D01*
X43251086Y-119748739D01*
X43167300Y-119741270D01*
X42972190Y-119728539D01*
X42738398Y-119724550D01*
X42468800Y-119729347D01*
X42034883Y-119743279D01*
X42034816Y-119119915D01*
X41851539Y-119119915D01*
X41849820Y-119282431D01*
X41845346Y-119430884D01*
X41844106Y-119458119D01*
X41829525Y-119758488D01*
X41709954Y-119772084D01*
X41621428Y-119783630D01*
X41531986Y-119797560D01*
X41495133Y-119804221D01*
X41454767Y-119809982D01*
X41401115Y-119813547D01*
X41330144Y-119814819D01*
X41237818Y-119813701D01*
X41120102Y-119810097D01*
X40972961Y-119803908D01*
X40792361Y-119795039D01*
X40574265Y-119783391D01*
X40532050Y-119781066D01*
X40401770Y-119773115D01*
X40275985Y-119764093D01*
X40165189Y-119754850D01*
X40079874Y-119746233D01*
X40045217Y-119741706D01*
X39952848Y-119730841D01*
X39845456Y-119722900D01*
X39770050Y-119720128D01*
X39691362Y-119716449D01*
X39627299Y-119708826D01*
X39591687Y-119698908D01*
X39591625Y-119698870D01*
X39579173Y-119680749D01*
X39569023Y-119640513D01*
X39560545Y-119573130D01*
X39553110Y-119473567D01*
X39546086Y-119336791D01*
X39545965Y-119334069D01*
X39539038Y-119209395D01*
X39530040Y-119092367D01*
X39519902Y-118992740D01*
X39509557Y-118920271D01*
X39504080Y-118895399D01*
X39496375Y-118859137D01*
X39491238Y-118810240D01*
X39488678Y-118743851D01*
X39488703Y-118655111D01*
X39491320Y-118539162D01*
X39496538Y-118391144D01*
X39504365Y-118206199D01*
X39505254Y-118186316D01*
X39512012Y-118018408D01*
X39517155Y-117854833D01*
X39520557Y-117703080D01*
X39522089Y-117570639D01*
X39521625Y-117464999D01*
X39519037Y-117393649D01*
X39518788Y-117390333D01*
X39513483Y-117309508D01*
X39507553Y-117197285D01*
X39501503Y-117064584D01*
X39495836Y-116922325D01*
X39491793Y-116805072D01*
X39478920Y-116399728D01*
X39617507Y-116264510D01*
X39685068Y-116201285D01*
X39746972Y-116148079D01*
X39793264Y-116113277D01*
X39805405Y-116106281D01*
X39864844Y-116078494D01*
X39907633Y-116058446D01*
X40022580Y-115999112D01*
X40097391Y-115947562D01*
X40133354Y-115902853D01*
X40136751Y-115890694D01*
X40154455Y-115853406D01*
X40195849Y-115796053D01*
X40254246Y-115725694D01*
X40322958Y-115649393D01*
X40395298Y-115574210D01*
X40464579Y-115507208D01*
X40524115Y-115455448D01*
X40567216Y-115425993D01*
X40580749Y-115421833D01*
X40605646Y-115404941D01*
X40613788Y-115390083D01*
X40641089Y-115361941D01*
X40656622Y-115358333D01*
X40688951Y-115344903D01*
X40694941Y-115335326D01*
X40717512Y-115326305D01*
X40771233Y-115319134D01*
X40844949Y-115314159D01*
X40927503Y-115311726D01*
X41007739Y-115312180D01*
X41074501Y-115315868D01*
X41114133Y-115322325D01*
X41183513Y-115337894D01*
X41281015Y-115353029D01*
X41392444Y-115366094D01*
X41503605Y-115375448D01*
X41600305Y-115379456D01*
X41609554Y-115379500D01*
X41765523Y-115379500D01*
X41774554Y-115532958D01*
X41776445Y-115597812D01*
X41776870Y-115696898D01*
X41775913Y-115822147D01*
X41773659Y-115965487D01*
X41770190Y-116118846D01*
X41767462Y-116215583D01*
X41758437Y-116512123D01*
X41750737Y-116770010D01*
X41744449Y-116992907D01*
X41739655Y-117184475D01*
X41736439Y-117348377D01*
X41734886Y-117488274D01*
X41735080Y-117607831D01*
X41737103Y-117710707D01*
X41741041Y-117800567D01*
X41746977Y-117881071D01*
X41754995Y-117955882D01*
X41765178Y-118028663D01*
X41777612Y-118103076D01*
X41792379Y-118182782D01*
X41809564Y-118271444D01*
X41815235Y-118300500D01*
X41825831Y-118378268D01*
X41834876Y-118490295D01*
X41842171Y-118628527D01*
X41847513Y-118784910D01*
X41850703Y-118951390D01*
X41851539Y-119119915D01*
X42034816Y-119119915D01*
X42034805Y-119027181D01*
X42034108Y-118797167D01*
X42032011Y-118606744D01*
X42028426Y-118453188D01*
X42023265Y-118333776D01*
X42016438Y-118245786D01*
X42007857Y-118186496D01*
X42007347Y-118184083D01*
X41980202Y-118051902D01*
X41959041Y-117931354D01*
X41943468Y-117815198D01*
X41933086Y-117696198D01*
X41927497Y-117567112D01*
X41926303Y-117420703D01*
X41929108Y-117249731D01*
X41935513Y-117046957D01*
X41939368Y-116945833D01*
X41946370Y-116754666D01*
X41952889Y-116550326D01*
X41958628Y-116344150D01*
X41963294Y-116147477D01*
X41966589Y-115971646D01*
X41968133Y-115841662D01*
X41971383Y-115383073D01*
X42214800Y-115367389D01*
X42333599Y-115363097D01*
X42484302Y-115362930D01*
X42656693Y-115366728D01*
X42840561Y-115374332D01*
X42913300Y-115378302D01*
X43075850Y-115387374D01*
X43250182Y-115396372D01*
X43422572Y-115404637D01*
X43579297Y-115411510D01*
X43699773Y-115416101D01*
X44031163Y-115427301D01*
X44058913Y-115525109D01*
X44068436Y-115582430D01*
X44075966Y-115676913D01*
X44081467Y-115803428D01*
X44084904Y-115956850D01*
X44086240Y-116132050D01*
X44085439Y-116323902D01*
X44082464Y-116527278D01*
X44077281Y-116737050D01*
X44069852Y-116948091D01*
X44069071Y-116967000D01*
X44063400Y-117211046D01*
X44065140Y-117485967D01*
X44074172Y-117780978D01*
X44079073Y-117887750D01*
X44089080Y-118117276D01*
X44096698Y-118352622D01*
X44101887Y-118587025D01*
X44104604Y-118813723D01*
X44104810Y-119025952D01*
X44317311Y-119025952D01*
X44318002Y-118855601D01*
X44317378Y-118672837D01*
X44315379Y-118500067D01*
X44312000Y-118345441D01*
X44307239Y-118217111D01*
X44301332Y-118125875D01*
X44282749Y-117919500D01*
X44335577Y-117919500D01*
X44398932Y-117899796D01*
X44447497Y-117844799D01*
X44469696Y-117787208D01*
X44482310Y-117752181D01*
X44505624Y-117734994D01*
X44552303Y-117729400D01*
X44587761Y-117729000D01*
X44649837Y-117730938D01*
X44680489Y-117740224D01*
X44690576Y-117762060D01*
X44691300Y-117778636D01*
X44708045Y-117833139D01*
X44748582Y-117878320D01*
X44798367Y-117898282D01*
X44800811Y-117898333D01*
X44839118Y-117883714D01*
X44867936Y-117859625D01*
X44890389Y-117810711D01*
X44902502Y-117733803D01*
X44904426Y-117641920D01*
X44896310Y-117548083D01*
X44889277Y-117515746D01*
X44644910Y-117515746D01*
X44634692Y-117535046D01*
X44617217Y-117538500D01*
X44590873Y-117527760D01*
X44589524Y-117515746D01*
X44611376Y-117493877D01*
X44617217Y-117492992D01*
X44642035Y-117509470D01*
X44644910Y-117515746D01*
X44889277Y-117515746D01*
X44878306Y-117465309D01*
X44862941Y-117426608D01*
X44824192Y-117343055D01*
X44809185Y-117287105D01*
X44817295Y-117251747D01*
X44845531Y-117230978D01*
X44867787Y-117217263D01*
X44882803Y-117193722D01*
X44892954Y-117151654D01*
X44900616Y-117082357D01*
X44906017Y-117009333D01*
X44914028Y-116903599D01*
X44923462Y-116797513D01*
X44929730Y-116737396D01*
X44731182Y-116737396D01*
X44716700Y-116759567D01*
X44696194Y-116800113D01*
X44691300Y-116833650D01*
X44682465Y-116874196D01*
X44658396Y-116876777D01*
X44622746Y-116841313D01*
X44618376Y-116835231D01*
X44598890Y-116800870D01*
X44604079Y-116773674D01*
X44637400Y-116736113D01*
X44638053Y-116735459D01*
X44678060Y-116702111D01*
X44705081Y-116699870D01*
X44716412Y-116708478D01*
X44731182Y-116737396D01*
X44929730Y-116737396D01*
X44932657Y-116709323D01*
X44935396Y-116686938D01*
X44942698Y-116607535D01*
X44935885Y-116554630D01*
X44908647Y-116522905D01*
X44854673Y-116507042D01*
X44767653Y-116501723D01*
X44715167Y-116501352D01*
X44532550Y-116501371D01*
X44453175Y-116583195D01*
X44406988Y-116634917D01*
X44383309Y-116679117D01*
X44374751Y-116734597D01*
X44373800Y-116785267D01*
X44375546Y-116850633D01*
X44385301Y-116896383D01*
X44409844Y-116937143D01*
X44455952Y-116987535D01*
X44477666Y-117009382D01*
X44534709Y-117070793D01*
X44560526Y-117110677D01*
X44557669Y-117133027D01*
X44557021Y-117133591D01*
X44538580Y-117159614D01*
X44506417Y-117215228D01*
X44465056Y-117291827D01*
X44419021Y-117380804D01*
X44372839Y-117473552D01*
X44331032Y-117561463D01*
X44323952Y-117576920D01*
X44301671Y-117625924D01*
X44282763Y-117576920D01*
X44277453Y-117539996D01*
X44274542Y-117467140D01*
X44274057Y-117364685D01*
X44276029Y-117238966D01*
X44280486Y-117096317D01*
X44280575Y-117094000D01*
X44285423Y-116946254D01*
X44289901Y-116768551D01*
X44293780Y-116573268D01*
X44296830Y-116372781D01*
X44298823Y-116179466D01*
X44299395Y-116078000D01*
X44300962Y-115882884D01*
X44304086Y-115721514D01*
X44308687Y-115595888D01*
X44314684Y-115508001D01*
X44321998Y-115459851D01*
X44324366Y-115453583D01*
X44331426Y-115419428D01*
X44338077Y-115345302D01*
X44344212Y-115233564D01*
X44349723Y-115086575D01*
X44354505Y-114906696D01*
X44358359Y-114702167D01*
X44361635Y-114506061D01*
X44364907Y-114346934D01*
X44368525Y-114219431D01*
X44372838Y-114118200D01*
X44378195Y-114037886D01*
X44384945Y-113973136D01*
X44393439Y-113918596D01*
X44404025Y-113868913D01*
X44415678Y-113823750D01*
X44434838Y-113747477D01*
X44447315Y-113678180D01*
X44454022Y-113604351D01*
X44455873Y-113514485D01*
X44453779Y-113397074D01*
X44452623Y-113358083D01*
X44447006Y-113229020D01*
X44438498Y-113095041D01*
X44428241Y-112971750D01*
X44417377Y-112874755D01*
X44417080Y-112872608D01*
X44406831Y-112765458D01*
X44400297Y-112625033D01*
X44397288Y-112460210D01*
X44397616Y-112279867D01*
X44401091Y-112092881D01*
X44407523Y-111908130D01*
X44416722Y-111734491D01*
X44428500Y-111580842D01*
X44442666Y-111456061D01*
X44448071Y-111421333D01*
X44469476Y-111262639D01*
X44482993Y-111090028D01*
X44488567Y-110914229D01*
X44488096Y-110881516D01*
X44302666Y-110881516D01*
X44299284Y-110955676D01*
X44290980Y-111050976D01*
X44277492Y-111175740D01*
X44268697Y-111252000D01*
X44253156Y-111378293D01*
X44237676Y-111491694D01*
X44223388Y-111584829D01*
X44211418Y-111650322D01*
X44203160Y-111680338D01*
X44197953Y-111710339D01*
X44193511Y-111775244D01*
X44189857Y-111868396D01*
X44187012Y-111983140D01*
X44184998Y-112112822D01*
X44183838Y-112250787D01*
X44183553Y-112390379D01*
X44184165Y-112524943D01*
X44185696Y-112647825D01*
X44188167Y-112752369D01*
X44191602Y-112831920D01*
X44196021Y-112879824D01*
X44199175Y-112890627D01*
X44210285Y-112920164D01*
X44222838Y-112982491D01*
X44235678Y-113068143D01*
X44247652Y-113167655D01*
X44257604Y-113271565D01*
X44264380Y-113370406D01*
X44266793Y-113444883D01*
X44260043Y-113582778D01*
X44235146Y-113696555D01*
X44191175Y-113797336D01*
X44181899Y-113822202D01*
X44174121Y-113862200D01*
X44167589Y-113921538D01*
X44162050Y-114004423D01*
X44157250Y-114115065D01*
X44152937Y-114257670D01*
X44148859Y-114436447D01*
X44146975Y-114532878D01*
X44134263Y-115210167D01*
X43938007Y-115210167D01*
X43858762Y-115208696D01*
X43746500Y-115204579D01*
X43610421Y-115198258D01*
X43459727Y-115190177D01*
X43303622Y-115180777D01*
X43237567Y-115176470D01*
X43047105Y-115165509D01*
X42848507Y-115157205D01*
X42655095Y-115151943D01*
X42480186Y-115150108D01*
X42365971Y-115151284D01*
X41998558Y-115159795D01*
X42011214Y-115042106D01*
X42018915Y-114962414D01*
X42027554Y-114860762D01*
X42035419Y-114757440D01*
X42036326Y-114744500D01*
X42043218Y-114658196D01*
X42050655Y-114586015D01*
X42057334Y-114540069D01*
X42059114Y-114532833D01*
X42066439Y-114489786D01*
X42071210Y-114420442D01*
X42073532Y-114334879D01*
X42073511Y-114254620D01*
X41874278Y-114254620D01*
X41871769Y-114334212D01*
X41866178Y-114434511D01*
X41856995Y-114564346D01*
X41844450Y-114706958D01*
X41830479Y-114841493D01*
X41821670Y-114913833D01*
X41809518Y-115007179D01*
X41799731Y-115085011D01*
X41793502Y-115137701D01*
X41791880Y-115154894D01*
X41772148Y-115161780D01*
X41719270Y-115163877D01*
X41642103Y-115161692D01*
X41549500Y-115155732D01*
X41450317Y-115146504D01*
X41353409Y-115134515D01*
X41304633Y-115126987D01*
X41238014Y-115119337D01*
X41141754Y-115112825D01*
X41028548Y-115108123D01*
X40911086Y-115105905D01*
X40906707Y-115105878D01*
X40780026Y-115106451D01*
X40687959Y-115110252D01*
X40622862Y-115117991D01*
X40577093Y-115130377D01*
X40559934Y-115138083D01*
X40518924Y-115156200D01*
X40480948Y-115161147D01*
X40430281Y-115152923D01*
X40374388Y-115138083D01*
X40284121Y-115120176D01*
X40169919Y-115108287D01*
X40058312Y-115104333D01*
X39934445Y-115100527D01*
X39849051Y-115088554D01*
X39798912Y-115067586D01*
X39780807Y-115036792D01*
X39780633Y-115032757D01*
X39771696Y-114995663D01*
X39750038Y-114943703D01*
X39748579Y-114940748D01*
X39735365Y-114897594D01*
X39719755Y-114819582D01*
X39702945Y-114714036D01*
X39686133Y-114588280D01*
X39674522Y-114487705D01*
X39657627Y-114338799D01*
X39638333Y-114180878D01*
X39618469Y-114028174D01*
X39599862Y-113894920D01*
X39590161Y-113830851D01*
X39555142Y-113503574D01*
X39547800Y-113251795D01*
X39548136Y-113131348D01*
X39549641Y-113047309D01*
X39553062Y-112993753D01*
X39559145Y-112964756D01*
X39568638Y-112954395D01*
X39582285Y-112956745D01*
X39584842Y-112957876D01*
X39641880Y-112972367D01*
X39731325Y-112981033D01*
X39843631Y-112983722D01*
X39969253Y-112980286D01*
X40098647Y-112970575D01*
X40135819Y-112966527D01*
X40254259Y-112954778D01*
X40346493Y-112951633D01*
X40427775Y-112957153D01*
X40495652Y-112967940D01*
X40570400Y-112984003D01*
X40628843Y-113000058D01*
X40657992Y-113012442D01*
X40691083Y-113024101D01*
X40746151Y-113029867D01*
X40755843Y-113030000D01*
X40822072Y-113038902D01*
X40900930Y-113061456D01*
X40936190Y-113075387D01*
X40981897Y-113093947D01*
X41025570Y-113106022D01*
X41076740Y-113112426D01*
X41144939Y-113113971D01*
X41239697Y-113111470D01*
X41319500Y-113108085D01*
X41427733Y-113101662D01*
X41523464Y-113093149D01*
X41597256Y-113083583D01*
X41639676Y-113074001D01*
X41642919Y-113072537D01*
X41672040Y-113061431D01*
X41684181Y-113076797D01*
X41687138Y-113119213D01*
X41690064Y-113172057D01*
X41696554Y-113252465D01*
X41705397Y-113345940D01*
X41708845Y-113379250D01*
X41720883Y-113495311D01*
X41733809Y-113623919D01*
X41745022Y-113739152D01*
X41746017Y-113749667D01*
X41767683Y-113894199D01*
X41804830Y-114014378D01*
X41822147Y-114053511D01*
X41846931Y-114107193D01*
X41863072Y-114151608D01*
X41871783Y-114197251D01*
X41874278Y-114254620D01*
X42073511Y-114254620D01*
X42073508Y-114243172D01*
X42071242Y-114155399D01*
X42066838Y-114081637D01*
X42060400Y-114031960D01*
X42053793Y-114016308D01*
X42030422Y-113988901D01*
X42004356Y-113929349D01*
X41978580Y-113847454D01*
X41956077Y-113753022D01*
X41939833Y-113655858D01*
X41937200Y-113633250D01*
X41929554Y-113555933D01*
X41919692Y-113449437D01*
X41908790Y-113326783D01*
X41898023Y-113200990D01*
X41896119Y-113178167D01*
X41885651Y-113067042D01*
X41874186Y-112970066D01*
X41862880Y-112895530D01*
X41852892Y-112851725D01*
X41849626Y-112844792D01*
X41809190Y-112823955D01*
X41743438Y-112819781D01*
X41665657Y-112831558D01*
X41589135Y-112858572D01*
X41588698Y-112858783D01*
X41523904Y-112881152D01*
X41434161Y-112900781D01*
X41336843Y-112913894D01*
X41334013Y-112914145D01*
X41241542Y-112920398D01*
X41175698Y-112918702D01*
X41121240Y-112907383D01*
X41062928Y-112884770D01*
X41061817Y-112884279D01*
X40983020Y-112857313D01*
X40901939Y-112841358D01*
X40872736Y-112839500D01*
X40804519Y-112831628D01*
X40747058Y-112812160D01*
X40738136Y-112806755D01*
X40693759Y-112783615D01*
X40664635Y-112778399D01*
X40627553Y-112773731D01*
X40575379Y-112756370D01*
X40574383Y-112755951D01*
X40530475Y-112746772D01*
X40457671Y-112741173D01*
X40365905Y-112738909D01*
X40265108Y-112739733D01*
X40165214Y-112743401D01*
X40076156Y-112749664D01*
X40007866Y-112758279D01*
X39970278Y-112768998D01*
X39967689Y-112770977D01*
X39941880Y-112775524D01*
X39887294Y-112775745D01*
X39817161Y-112772546D01*
X39744716Y-112766829D01*
X39683188Y-112759499D01*
X39645810Y-112751458D01*
X39640896Y-112748659D01*
X39640471Y-112727265D01*
X39640857Y-112667921D01*
X39641987Y-112575000D01*
X39643795Y-112452877D01*
X39646213Y-112305925D01*
X39649174Y-112138519D01*
X39652611Y-111955031D01*
X39654763Y-111844667D01*
X39658659Y-111644074D01*
X39662324Y-111448716D01*
X39665657Y-111264410D01*
X39668559Y-111096976D01*
X39670929Y-110952231D01*
X39672669Y-110835994D01*
X39673677Y-110754083D01*
X39673846Y-110733417D01*
X39675146Y-110521750D01*
X40103598Y-110517946D01*
X40245237Y-110515421D01*
X40382650Y-110510674D01*
X40506379Y-110504203D01*
X40606962Y-110496505D01*
X40674940Y-110488078D01*
X40676290Y-110487835D01*
X40737747Y-110478387D01*
X40799728Y-110473573D01*
X40871018Y-110473599D01*
X40960401Y-110478672D01*
X41076662Y-110489001D01*
X41181456Y-110499756D01*
X41291103Y-110510685D01*
X41392837Y-110519006D01*
X41493801Y-110524872D01*
X41601141Y-110528438D01*
X41721999Y-110529856D01*
X41863522Y-110529281D01*
X42032852Y-110526866D01*
X42237135Y-110522765D01*
X42243717Y-110522621D01*
X42435063Y-110518524D01*
X42589070Y-110515621D01*
X42710718Y-110514090D01*
X42804988Y-110514107D01*
X42876863Y-110515847D01*
X42931323Y-110519487D01*
X42973349Y-110525203D01*
X43007923Y-110533171D01*
X43040025Y-110543567D01*
X43061467Y-110551535D01*
X43151904Y-110574898D01*
X43272835Y-110590605D01*
X43413117Y-110598641D01*
X43561604Y-110598990D01*
X43707153Y-110591633D01*
X43838620Y-110576556D01*
X43944859Y-110553740D01*
X43947795Y-110552859D01*
X44044273Y-110528056D01*
X44118299Y-110520998D01*
X44173331Y-110527347D01*
X44257383Y-110544810D01*
X44285879Y-110702613D01*
X44295703Y-110763310D01*
X44301385Y-110820169D01*
X44302666Y-110881516D01*
X44488096Y-110881516D01*
X44486140Y-110745972D01*
X44475657Y-110595985D01*
X44457062Y-110474999D01*
X44453130Y-110458250D01*
X44424641Y-110330404D01*
X44399912Y-110192489D01*
X44379498Y-110051159D01*
X44363954Y-109913068D01*
X44353833Y-109784871D01*
X44349689Y-109673223D01*
X44352077Y-109584779D01*
X44361552Y-109526192D01*
X44373800Y-109505750D01*
X44389436Y-109476944D01*
X44394967Y-109434259D01*
X44401037Y-109379964D01*
X44416500Y-109306813D01*
X44427537Y-109266175D01*
X44452730Y-109196876D01*
X44478273Y-109162905D01*
X44499108Y-109156500D01*
X44535219Y-109140662D01*
X44579258Y-109100924D01*
X44594615Y-109082417D01*
X44634476Y-109037220D01*
X44658326Y-109018641D01*
X44258423Y-109018641D01*
X44255088Y-109092379D01*
X44247139Y-109142367D01*
X44245202Y-109147936D01*
X44221403Y-109206974D01*
X44203426Y-109251750D01*
X44185423Y-109302973D01*
X44172114Y-109358655D01*
X44162822Y-109426088D01*
X44156869Y-109512569D01*
X44153581Y-109625390D01*
X44152280Y-109771846D01*
X44152202Y-109804124D01*
X44153223Y-109952769D01*
X44156703Y-110072194D01*
X44162439Y-110158570D01*
X44170229Y-110208067D01*
X44174015Y-110216874D01*
X44197031Y-110258970D01*
X44189161Y-110288645D01*
X44146862Y-110308875D01*
X44066591Y-110322636D01*
X44045362Y-110324904D01*
X43957678Y-110337240D01*
X43875997Y-110354742D01*
X43823112Y-110371701D01*
X43745626Y-110392559D01*
X43639813Y-110404094D01*
X43518589Y-110406537D01*
X43394869Y-110400117D01*
X43281566Y-110385064D01*
X43191598Y-110361607D01*
X43188467Y-110360420D01*
X43156233Y-110348513D01*
X43124666Y-110339028D01*
X43088961Y-110331788D01*
X43044313Y-110326616D01*
X42985914Y-110323335D01*
X42908961Y-110321770D01*
X42808647Y-110321742D01*
X42680167Y-110323077D01*
X42518715Y-110325597D01*
X42331217Y-110328913D01*
X42071229Y-110332625D01*
X41848919Y-110333707D01*
X41665364Y-110332170D01*
X41521642Y-110328025D01*
X41418830Y-110321283D01*
X41399883Y-110319222D01*
X41283454Y-110306825D01*
X41157188Y-110296248D01*
X41028455Y-110287782D01*
X40904621Y-110281719D01*
X40793055Y-110278350D01*
X40701124Y-110277966D01*
X40636195Y-110280858D01*
X40605636Y-110287318D01*
X40605084Y-110287797D01*
X40578861Y-110294705D01*
X40516803Y-110302711D01*
X40425379Y-110311237D01*
X40311054Y-110319709D01*
X40180295Y-110327549D01*
X40129941Y-110330131D01*
X39674794Y-110352417D01*
X39674800Y-109159365D01*
X39817675Y-109005909D01*
X39916352Y-108901616D01*
X40026481Y-108788077D01*
X40142730Y-108670519D01*
X40259767Y-108554168D01*
X40372260Y-108444252D01*
X40474877Y-108345999D01*
X40562285Y-108264635D01*
X40629153Y-108205388D01*
X40658274Y-108181817D01*
X40764883Y-108101580D01*
X41124717Y-108091885D01*
X41268027Y-108086753D01*
X41419257Y-108079182D01*
X41563698Y-108070046D01*
X41686639Y-108060215D01*
X41727967Y-108056127D01*
X41805508Y-108050366D01*
X41913906Y-108045944D01*
X42047542Y-108042801D01*
X42200796Y-108040877D01*
X42368051Y-108040113D01*
X42543688Y-108040448D01*
X42722087Y-108041824D01*
X42897631Y-108044181D01*
X43064701Y-108047459D01*
X43217678Y-108051598D01*
X43350943Y-108056538D01*
X43458879Y-108062221D01*
X43535865Y-108068586D01*
X43576284Y-108075573D01*
X43576788Y-108075760D01*
X43622138Y-108088002D01*
X43696054Y-108102784D01*
X43785078Y-108117508D01*
X43817048Y-108122130D01*
X43922722Y-108139934D01*
X43992724Y-108161055D01*
X44033713Y-108189421D01*
X44052345Y-108228961D01*
X44055627Y-108262912D01*
X44066337Y-108310678D01*
X44093088Y-108379815D01*
X44129162Y-108456000D01*
X44167842Y-108524907D01*
X44198864Y-108568336D01*
X44219408Y-108609809D01*
X44218542Y-108636450D01*
X44216808Y-108669897D01*
X44223616Y-108679003D01*
X44235752Y-108706359D01*
X44245808Y-108765010D01*
X44253276Y-108843947D01*
X44257650Y-108932160D01*
X44258423Y-109018641D01*
X44658326Y-109018641D01*
X44667856Y-109011218D01*
X44676502Y-109008713D01*
X44700951Y-109025388D01*
X44738031Y-109068150D01*
X44769696Y-109112821D01*
X44811782Y-109172200D01*
X44843451Y-109201167D01*
X44873785Y-109206884D01*
X44886113Y-109204634D01*
X44953845Y-109172511D01*
X44985724Y-109119337D01*
X44981494Y-109046964D01*
X44940903Y-108957247D01*
X44923650Y-108930251D01*
X44859667Y-108835446D01*
X44890459Y-108798630D01*
X44532740Y-108798630D01*
X44512019Y-108858849D01*
X44506434Y-108865635D01*
X44478573Y-108893063D01*
X44464894Y-108886359D01*
X44455467Y-108856896D01*
X44446802Y-108806080D01*
X44440989Y-108734892D01*
X44439881Y-108701417D01*
X44438241Y-108595583D01*
X44478380Y-108647817D01*
X44521083Y-108724840D01*
X44532740Y-108798630D01*
X44890459Y-108798630D01*
X44950109Y-108727311D01*
X45040550Y-108619175D01*
X45046624Y-108812833D01*
X45050871Y-108909720D01*
X45059931Y-108975226D01*
X45079220Y-109020298D01*
X45114153Y-109055885D01*
X45170147Y-109092934D01*
X45191537Y-109105777D01*
X45206043Y-109118537D01*
X45206631Y-109136571D01*
X45189605Y-109165732D01*
X45151272Y-109211870D01*
X45087938Y-109280836D01*
X45066830Y-109303325D01*
X44980703Y-109400384D01*
X44926292Y-109476344D01*
X44901608Y-109535723D01*
X44904663Y-109583038D01*
X44928367Y-109617933D01*
X44965026Y-109640097D01*
X45008848Y-109635574D01*
X45064744Y-109601988D01*
X45137629Y-109536964D01*
X45175864Y-109498281D01*
X45242001Y-109432041D01*
X45302047Y-109376072D01*
X45346873Y-109338708D01*
X45360493Y-109329728D01*
X45383190Y-109320137D01*
X45397651Y-109325580D01*
X45407054Y-109353489D01*
X45414578Y-109411299D01*
X45420010Y-109468896D01*
X45429872Y-109550403D01*
X45442439Y-109616879D01*
X45455247Y-109655743D01*
X45457200Y-109658616D01*
X45499079Y-109681392D01*
X45553348Y-109682953D01*
X45592657Y-109664843D01*
X45598928Y-109637262D01*
X45603826Y-109570406D01*
X45607270Y-109467315D01*
X45609178Y-109331028D01*
X45609470Y-109164583D01*
X45608873Y-109056301D01*
X45606673Y-108775561D01*
X45410967Y-108775561D01*
X45410967Y-108944955D01*
X45342175Y-108917018D01*
X45293571Y-108889653D01*
X45272123Y-108849445D01*
X45266890Y-108812397D01*
X45271743Y-108738300D01*
X45294801Y-108671241D01*
X45330112Y-108623221D01*
X45369177Y-108606167D01*
X45390007Y-108609831D01*
X45402494Y-108626492D01*
X45408733Y-108664645D01*
X45410822Y-108732791D01*
X45410967Y-108775561D01*
X45606673Y-108775561D01*
X45604266Y-108468583D01*
X45555241Y-108442437D01*
X45509706Y-108429211D01*
X45437525Y-108419703D01*
X45354640Y-108415979D01*
X45268684Y-108418789D01*
X45208389Y-108432471D01*
X45161339Y-108464269D01*
X45115118Y-108521426D01*
X45078837Y-108576873D01*
X45059496Y-108604182D01*
X45053312Y-108594109D01*
X45052378Y-108573358D01*
X45035573Y-108514523D01*
X44994057Y-108484198D01*
X44934905Y-108482934D01*
X44865194Y-108511282D01*
X44808009Y-108554334D01*
X44761530Y-108595853D01*
X44731851Y-108611412D01*
X44708457Y-108597941D01*
X44680835Y-108552373D01*
X44659196Y-108510917D01*
X44629287Y-108480535D01*
X44574613Y-108469073D01*
X44553717Y-108468583D01*
X44493860Y-108474266D01*
X44459206Y-108496503D01*
X44443529Y-108521500D01*
X44424599Y-108555416D01*
X44417470Y-108552821D01*
X44416446Y-108531100D01*
X44406573Y-108491620D01*
X44380908Y-108428703D01*
X44344871Y-108355548D01*
X44342531Y-108351184D01*
X44305707Y-108275129D01*
X44279152Y-108205598D01*
X44268464Y-108157311D01*
X44268448Y-108156375D01*
X44262170Y-108114112D01*
X44249095Y-108098167D01*
X44230084Y-108080325D01*
X44217916Y-108049132D01*
X44189733Y-108002031D01*
X44157413Y-107977846D01*
X44095565Y-107957633D01*
X43999659Y-107936642D01*
X43877927Y-107916066D01*
X43738598Y-107897097D01*
X43589903Y-107880925D01*
X43440072Y-107868744D01*
X43378967Y-107865114D01*
X43246042Y-107859571D01*
X43087139Y-107855220D01*
X42909033Y-107852049D01*
X42718503Y-107850045D01*
X42522324Y-107849198D01*
X42327274Y-107849494D01*
X42327274Y-107849494D01*
G37*
X42327274Y-107849494D02*
X42140130Y-107850923D01*
X41967668Y-107853472D01*
X41816666Y-107857130D01*
X41693901Y-107861884D01*
X41606149Y-107867724D01*
X41600967Y-107868225D01*
X41510223Y-107875687D01*
X41389455Y-107883325D01*
X41250963Y-107890482D01*
X41107050Y-107896497D01*
X41018883Y-107899411D01*
X40883037Y-107903588D01*
X40782990Y-107907664D01*
X40712220Y-107912590D01*
X40664207Y-107919315D01*
X40632428Y-107928791D01*
X40610364Y-107941968D01*
X40591492Y-107959797D01*
X40589402Y-107962008D01*
X40549433Y-107997417D01*
X40518272Y-108013421D01*
X40516868Y-108013500D01*
X40488562Y-108028012D01*
X40439113Y-108067213D01*
X40375998Y-108124596D01*
X40306694Y-108193658D01*
X40291806Y-108209299D01*
X40261036Y-108240464D01*
X40209016Y-108291706D01*
X40145094Y-108353845D01*
X40119392Y-108378632D01*
X40048262Y-108448285D01*
X39980757Y-108516467D01*
X39928751Y-108571131D01*
X39918309Y-108582682D01*
X39879037Y-108626283D01*
X39819083Y-108691986D01*
X39746593Y-108770897D01*
X39669715Y-108854119D01*
X39669508Y-108854342D01*
X39484300Y-109054235D01*
X39484300Y-110098952D01*
X39483943Y-110305210D01*
X39482917Y-110498404D01*
X39481293Y-110674441D01*
X39479142Y-110829229D01*
X39476534Y-110958678D01*
X39473539Y-111058695D01*
X39470229Y-111125189D01*
X39466673Y-111154067D01*
X39466112Y-111154909D01*
X39461671Y-111177930D01*
X39457056Y-111238486D01*
X39452443Y-111331781D01*
X39448008Y-111453016D01*
X39443926Y-111597395D01*
X39440374Y-111760122D01*
X39437559Y-111934033D01*
X39434759Y-112135044D01*
X39432135Y-112298292D01*
X39429380Y-112428343D01*
X39426187Y-112529767D01*
X39422251Y-112607130D01*
X39417266Y-112665000D01*
X39410926Y-112707943D01*
X39402924Y-112740529D01*
X39392955Y-112767323D01*
X39380713Y-112792895D01*
X39379907Y-112794476D01*
X39364372Y-112826589D01*
X39352850Y-112857957D01*
X39344913Y-112894950D01*
X39340138Y-112943940D01*
X39338097Y-113011298D01*
X39338365Y-113103395D01*
X39340517Y-113226603D01*
X39343147Y-113344809D01*
X39347335Y-113488046D01*
X39352967Y-113624384D01*
X39359571Y-113745483D01*
X39366677Y-113843005D01*
X39373815Y-113908610D01*
X39375541Y-113919000D01*
X39390768Y-114010415D01*
X39405086Y-114112973D01*
X39410890Y-114162417D01*
X39420022Y-114236034D01*
X39429710Y-114295233D01*
X39436001Y-114321167D01*
X39442611Y-114362671D01*
X39443614Y-114422918D01*
X39443178Y-114432292D01*
X39445970Y-114487602D01*
X39460548Y-114511348D01*
X39463084Y-114511667D01*
X39478529Y-114531597D01*
X39483769Y-114588535D01*
X39483222Y-114612208D01*
X39482997Y-114679015D01*
X39487322Y-114731063D01*
X39490438Y-114744500D01*
X39499664Y-114783651D01*
X39509876Y-114846258D01*
X39514086Y-114878534D01*
X39528095Y-114956174D01*
X39548585Y-115028295D01*
X39556320Y-115047868D01*
X39583893Y-115115490D01*
X39605371Y-115176904D01*
X39628346Y-115225704D01*
X39654893Y-115252989D01*
X39697110Y-115273591D01*
X39734702Y-115292780D01*
X39783022Y-115305688D01*
X39862855Y-115313492D01*
X39963578Y-115315174D01*
X39967535Y-115315106D01*
X40055554Y-115314982D01*
X40130291Y-115317583D01*
X40179367Y-115322384D01*
X40188092Y-115324453D01*
X40239016Y-115341415D01*
X40257796Y-115347436D01*
X40279103Y-115365879D01*
X40270290Y-115395061D01*
X40244728Y-115429584D01*
X40196421Y-115484141D01*
X40131460Y-115552765D01*
X40055940Y-115629494D01*
X39975953Y-115708362D01*
X39897593Y-115783406D01*
X39826951Y-115848661D01*
X39770122Y-115898163D01*
X39733199Y-115925947D01*
X39723979Y-115929833D01*
X39686837Y-115942123D01*
X39634566Y-115973005D01*
X39613886Y-115988042D01*
X39556746Y-116029211D01*
X39505881Y-116061217D01*
X39494075Y-116067417D01*
X39456644Y-116094004D01*
X39404336Y-116141604D01*
X39358474Y-116189153D01*
X39267190Y-116289723D01*
X39283087Y-116834736D01*
X39289845Y-117074939D01*
X39294955Y-117280588D01*
X39298430Y-117459429D01*
X39300282Y-117619209D01*
X39300521Y-117767675D01*
X39299161Y-117912574D01*
X39296212Y-118061652D01*
X39291687Y-118222655D01*
X39285598Y-118403332D01*
X39285491Y-118406333D01*
X39279774Y-118584181D01*
X39276780Y-118724643D01*
X39276569Y-118832584D01*
X39279203Y-118912867D01*
X39284744Y-118970357D01*
X39293151Y-119009583D01*
X39302807Y-119058849D01*
X39312923Y-119141380D01*
X39322644Y-119248128D01*
X39331112Y-119370044D01*
X39335936Y-119461724D01*
X39342537Y-119609708D01*
X39350108Y-119721047D01*
X39363165Y-119801282D01*
X39386223Y-119855952D01*
X39423798Y-119890598D01*
X39480404Y-119910760D01*
X39560558Y-119921977D01*
X39668776Y-119929789D01*
X39720187Y-119933152D01*
X39827468Y-119941159D01*
X39921050Y-119949592D01*
X39991998Y-119957540D01*
X40031376Y-119964095D01*
X40034633Y-119965141D01*
X40071938Y-119972364D01*
X40145302Y-119979884D01*
X40248476Y-119987483D01*
X40375206Y-119994947D01*
X40519243Y-120002060D01*
X40674334Y-120008606D01*
X40834229Y-120014370D01*
X40992675Y-120019137D01*
X41143423Y-120022691D01*
X41280219Y-120024815D01*
X41396813Y-120025296D01*
X41486953Y-120023916D01*
X41544389Y-120020462D01*
X41559419Y-120017720D01*
X41622977Y-120003687D01*
X41721917Y-119990704D01*
X41849738Y-119978956D01*
X41999941Y-119968626D01*
X42166023Y-119959898D01*
X42341485Y-119952955D01*
X42519827Y-119947981D01*
X42694546Y-119945159D01*
X42859143Y-119944674D01*
X43007117Y-119946710D01*
X43131968Y-119951449D01*
X43227194Y-119959076D01*
X43283717Y-119968992D01*
X43343396Y-119979909D01*
X43431110Y-119987830D01*
X43538251Y-119992822D01*
X43656212Y-119994948D01*
X43776384Y-119994273D01*
X43890161Y-119990864D01*
X43988935Y-119984783D01*
X44064097Y-119976097D01*
X44107041Y-119964871D01*
X44110463Y-119962756D01*
X44156339Y-119937833D01*
X44185311Y-119931006D01*
X44225063Y-119920213D01*
X44254763Y-119886238D01*
X44276396Y-119823975D01*
X44291943Y-119728315D01*
X44300623Y-119634000D01*
X44306819Y-119523548D01*
X44311659Y-119382330D01*
X44315138Y-119218499D01*
X44317254Y-119040205D01*
X44317311Y-119025952D01*
X44104810Y-119025952D01*
X44102463Y-119216949D01*
X44097522Y-119379951D01*
X44089946Y-119508196D01*
X44088972Y-119519642D01*
X44079004Y-119615321D01*
X44064430Y-119684523D01*
X44039026Y-119731293D01*
X43996567Y-119759675D01*
X43930828Y-119773716D01*
X43835586Y-119777461D01*
X43704614Y-119774954D01*
X43696467Y-119774721D01*
X43559209Y-119769049D01*
X43403038Y-119759901D01*
X43251086Y-119748739D01*
X43167300Y-119741270D01*
X42972190Y-119728539D01*
X42738398Y-119724550D01*
X42468800Y-119729347D01*
X42034883Y-119743279D01*
X42034816Y-119119915D01*
X41851539Y-119119915D01*
X41849820Y-119282431D01*
X41845346Y-119430884D01*
X41844106Y-119458119D01*
X41829525Y-119758488D01*
X41709954Y-119772084D01*
X41621428Y-119783630D01*
X41531986Y-119797560D01*
X41495133Y-119804221D01*
X41454767Y-119809982D01*
X41401115Y-119813547D01*
X41330144Y-119814819D01*
X41237818Y-119813701D01*
X41120102Y-119810097D01*
X40972961Y-119803908D01*
X40792361Y-119795039D01*
X40574265Y-119783391D01*
X40532050Y-119781066D01*
X40401770Y-119773115D01*
X40275985Y-119764093D01*
X40165189Y-119754850D01*
X40079874Y-119746233D01*
X40045217Y-119741706D01*
X39952848Y-119730841D01*
X39845456Y-119722900D01*
X39770050Y-119720128D01*
X39691362Y-119716449D01*
X39627299Y-119708826D01*
X39591687Y-119698908D01*
X39591625Y-119698870D01*
X39579173Y-119680749D01*
X39569023Y-119640513D01*
X39560545Y-119573130D01*
X39553110Y-119473567D01*
X39546086Y-119336791D01*
X39545965Y-119334069D01*
X39539038Y-119209395D01*
X39530040Y-119092367D01*
X39519902Y-118992740D01*
X39509557Y-118920271D01*
X39504080Y-118895399D01*
X39496375Y-118859137D01*
X39491238Y-118810240D01*
X39488678Y-118743851D01*
X39488703Y-118655111D01*
X39491320Y-118539162D01*
X39496538Y-118391144D01*
X39504365Y-118206199D01*
X39505254Y-118186316D01*
X39512012Y-118018408D01*
X39517155Y-117854833D01*
X39520557Y-117703080D01*
X39522089Y-117570639D01*
X39521625Y-117464999D01*
X39519037Y-117393649D01*
X39518788Y-117390333D01*
X39513483Y-117309508D01*
X39507553Y-117197285D01*
X39501503Y-117064584D01*
X39495836Y-116922325D01*
X39491793Y-116805072D01*
X39478920Y-116399728D01*
X39617507Y-116264510D01*
X39685068Y-116201285D01*
X39746972Y-116148079D01*
X39793264Y-116113277D01*
X39805405Y-116106281D01*
X39864844Y-116078494D01*
X39907633Y-116058446D01*
X40022580Y-115999112D01*
X40097391Y-115947562D01*
X40133354Y-115902853D01*
X40136751Y-115890694D01*
X40154455Y-115853406D01*
X40195849Y-115796053D01*
X40254246Y-115725694D01*
X40322958Y-115649393D01*
X40395298Y-115574210D01*
X40464579Y-115507208D01*
X40524115Y-115455448D01*
X40567216Y-115425993D01*
X40580749Y-115421833D01*
X40605646Y-115404941D01*
X40613788Y-115390083D01*
X40641089Y-115361941D01*
X40656622Y-115358333D01*
X40688951Y-115344903D01*
X40694941Y-115335326D01*
X40717512Y-115326305D01*
X40771233Y-115319134D01*
X40844949Y-115314159D01*
X40927503Y-115311726D01*
X41007739Y-115312180D01*
X41074501Y-115315868D01*
X41114133Y-115322325D01*
X41183513Y-115337894D01*
X41281015Y-115353029D01*
X41392444Y-115366094D01*
X41503605Y-115375448D01*
X41600305Y-115379456D01*
X41609554Y-115379500D01*
X41765523Y-115379500D01*
X41774554Y-115532958D01*
X41776445Y-115597812D01*
X41776870Y-115696898D01*
X41775913Y-115822147D01*
X41773659Y-115965487D01*
X41770190Y-116118846D01*
X41767462Y-116215583D01*
X41758437Y-116512123D01*
X41750737Y-116770010D01*
X41744449Y-116992907D01*
X41739655Y-117184475D01*
X41736439Y-117348377D01*
X41734886Y-117488274D01*
X41735080Y-117607831D01*
X41737103Y-117710707D01*
X41741041Y-117800567D01*
X41746977Y-117881071D01*
X41754995Y-117955882D01*
X41765178Y-118028663D01*
X41777612Y-118103076D01*
X41792379Y-118182782D01*
X41809564Y-118271444D01*
X41815235Y-118300500D01*
X41825831Y-118378268D01*
X41834876Y-118490295D01*
X41842171Y-118628527D01*
X41847513Y-118784910D01*
X41850703Y-118951390D01*
X41851539Y-119119915D01*
X42034816Y-119119915D01*
X42034805Y-119027181D01*
X42034108Y-118797167D01*
X42032011Y-118606744D01*
X42028426Y-118453188D01*
X42023265Y-118333776D01*
X42016438Y-118245786D01*
X42007857Y-118186496D01*
X42007347Y-118184083D01*
X41980202Y-118051902D01*
X41959041Y-117931354D01*
X41943468Y-117815198D01*
X41933086Y-117696198D01*
X41927497Y-117567112D01*
X41926303Y-117420703D01*
X41929108Y-117249731D01*
X41935513Y-117046957D01*
X41939368Y-116945833D01*
X41946370Y-116754666D01*
X41952889Y-116550326D01*
X41958628Y-116344150D01*
X41963294Y-116147477D01*
X41966589Y-115971646D01*
X41968133Y-115841662D01*
X41971383Y-115383073D01*
X42214800Y-115367389D01*
X42333599Y-115363097D01*
X42484302Y-115362930D01*
X42656693Y-115366728D01*
X42840561Y-115374332D01*
X42913300Y-115378302D01*
X43075850Y-115387374D01*
X43250182Y-115396372D01*
X43422572Y-115404637D01*
X43579297Y-115411510D01*
X43699773Y-115416101D01*
X44031163Y-115427301D01*
X44058913Y-115525109D01*
X44068436Y-115582430D01*
X44075966Y-115676913D01*
X44081467Y-115803428D01*
X44084904Y-115956850D01*
X44086240Y-116132050D01*
X44085439Y-116323902D01*
X44082464Y-116527278D01*
X44077281Y-116737050D01*
X44069852Y-116948091D01*
X44069071Y-116967000D01*
X44063400Y-117211046D01*
X44065140Y-117485967D01*
X44074172Y-117780978D01*
X44079073Y-117887750D01*
X44089080Y-118117276D01*
X44096698Y-118352622D01*
X44101887Y-118587025D01*
X44104604Y-118813723D01*
X44104810Y-119025952D01*
X44317311Y-119025952D01*
X44318002Y-118855601D01*
X44317378Y-118672837D01*
X44315379Y-118500067D01*
X44312000Y-118345441D01*
X44307239Y-118217111D01*
X44301332Y-118125875D01*
X44282749Y-117919500D01*
X44335577Y-117919500D01*
X44398932Y-117899796D01*
X44447497Y-117844799D01*
X44469696Y-117787208D01*
X44482310Y-117752181D01*
X44505624Y-117734994D01*
X44552303Y-117729400D01*
X44587761Y-117729000D01*
X44649837Y-117730938D01*
X44680489Y-117740224D01*
X44690576Y-117762060D01*
X44691300Y-117778636D01*
X44708045Y-117833139D01*
X44748582Y-117878320D01*
X44798367Y-117898282D01*
X44800811Y-117898333D01*
X44839118Y-117883714D01*
X44867936Y-117859625D01*
X44890389Y-117810711D01*
X44902502Y-117733803D01*
X44904426Y-117641920D01*
X44896310Y-117548083D01*
X44889277Y-117515746D01*
X44644910Y-117515746D01*
X44634692Y-117535046D01*
X44617217Y-117538500D01*
X44590873Y-117527760D01*
X44589524Y-117515746D01*
X44611376Y-117493877D01*
X44617217Y-117492992D01*
X44642035Y-117509470D01*
X44644910Y-117515746D01*
X44889277Y-117515746D01*
X44878306Y-117465309D01*
X44862941Y-117426608D01*
X44824192Y-117343055D01*
X44809185Y-117287105D01*
X44817295Y-117251747D01*
X44845531Y-117230978D01*
X44867787Y-117217263D01*
X44882803Y-117193722D01*
X44892954Y-117151654D01*
X44900616Y-117082357D01*
X44906017Y-117009333D01*
X44914028Y-116903599D01*
X44923462Y-116797513D01*
X44929730Y-116737396D01*
X44731182Y-116737396D01*
X44716700Y-116759567D01*
X44696194Y-116800113D01*
X44691300Y-116833650D01*
X44682465Y-116874196D01*
X44658396Y-116876777D01*
X44622746Y-116841313D01*
X44618376Y-116835231D01*
X44598890Y-116800870D01*
X44604079Y-116773674D01*
X44637400Y-116736113D01*
X44638053Y-116735459D01*
X44678060Y-116702111D01*
X44705081Y-116699870D01*
X44716412Y-116708478D01*
X44731182Y-116737396D01*
X44929730Y-116737396D01*
X44932657Y-116709323D01*
X44935396Y-116686938D01*
X44942698Y-116607535D01*
X44935885Y-116554630D01*
X44908647Y-116522905D01*
X44854673Y-116507042D01*
X44767653Y-116501723D01*
X44715167Y-116501352D01*
X44532550Y-116501371D01*
X44453175Y-116583195D01*
X44406988Y-116634917D01*
X44383309Y-116679117D01*
X44374751Y-116734597D01*
X44373800Y-116785267D01*
X44375546Y-116850633D01*
X44385301Y-116896383D01*
X44409844Y-116937143D01*
X44455952Y-116987535D01*
X44477666Y-117009382D01*
X44534709Y-117070793D01*
X44560526Y-117110677D01*
X44557669Y-117133027D01*
X44557021Y-117133591D01*
X44538580Y-117159614D01*
X44506417Y-117215228D01*
X44465056Y-117291827D01*
X44419021Y-117380804D01*
X44372839Y-117473552D01*
X44331032Y-117561463D01*
X44323952Y-117576920D01*
X44301671Y-117625924D01*
X44282763Y-117576920D01*
X44277453Y-117539996D01*
X44274542Y-117467140D01*
X44274057Y-117364685D01*
X44276029Y-117238966D01*
X44280486Y-117096317D01*
X44280575Y-117094000D01*
X44285423Y-116946254D01*
X44289901Y-116768551D01*
X44293780Y-116573268D01*
X44296830Y-116372781D01*
X44298823Y-116179466D01*
X44299395Y-116078000D01*
X44300962Y-115882884D01*
X44304086Y-115721514D01*
X44308687Y-115595888D01*
X44314684Y-115508001D01*
X44321998Y-115459851D01*
X44324366Y-115453583D01*
X44331426Y-115419428D01*
X44338077Y-115345302D01*
X44344212Y-115233564D01*
X44349723Y-115086575D01*
X44354505Y-114906696D01*
X44358359Y-114702167D01*
X44361635Y-114506061D01*
X44364907Y-114346934D01*
X44368525Y-114219431D01*
X44372838Y-114118200D01*
X44378195Y-114037886D01*
X44384945Y-113973136D01*
X44393439Y-113918596D01*
X44404025Y-113868913D01*
X44415678Y-113823750D01*
X44434838Y-113747477D01*
X44447315Y-113678180D01*
X44454022Y-113604351D01*
X44455873Y-113514485D01*
X44453779Y-113397074D01*
X44452623Y-113358083D01*
X44447006Y-113229020D01*
X44438498Y-113095041D01*
X44428241Y-112971750D01*
X44417377Y-112874755D01*
X44417080Y-112872608D01*
X44406831Y-112765458D01*
X44400297Y-112625033D01*
X44397288Y-112460210D01*
X44397616Y-112279867D01*
X44401091Y-112092881D01*
X44407523Y-111908130D01*
X44416722Y-111734491D01*
X44428500Y-111580842D01*
X44442666Y-111456061D01*
X44448071Y-111421333D01*
X44469476Y-111262639D01*
X44482993Y-111090028D01*
X44488567Y-110914229D01*
X44488096Y-110881516D01*
X44302666Y-110881516D01*
X44299284Y-110955676D01*
X44290980Y-111050976D01*
X44277492Y-111175740D01*
X44268697Y-111252000D01*
X44253156Y-111378293D01*
X44237676Y-111491694D01*
X44223388Y-111584829D01*
X44211418Y-111650322D01*
X44203160Y-111680338D01*
X44197953Y-111710339D01*
X44193511Y-111775244D01*
X44189857Y-111868396D01*
X44187012Y-111983140D01*
X44184998Y-112112822D01*
X44183838Y-112250787D01*
X44183553Y-112390379D01*
X44184165Y-112524943D01*
X44185696Y-112647825D01*
X44188167Y-112752369D01*
X44191602Y-112831920D01*
X44196021Y-112879824D01*
X44199175Y-112890627D01*
X44210285Y-112920164D01*
X44222838Y-112982491D01*
X44235678Y-113068143D01*
X44247652Y-113167655D01*
X44257604Y-113271565D01*
X44264380Y-113370406D01*
X44266793Y-113444883D01*
X44260043Y-113582778D01*
X44235146Y-113696555D01*
X44191175Y-113797336D01*
X44181899Y-113822202D01*
X44174121Y-113862200D01*
X44167589Y-113921538D01*
X44162050Y-114004423D01*
X44157250Y-114115065D01*
X44152937Y-114257670D01*
X44148859Y-114436447D01*
X44146975Y-114532878D01*
X44134263Y-115210167D01*
X43938007Y-115210167D01*
X43858762Y-115208696D01*
X43746500Y-115204579D01*
X43610421Y-115198258D01*
X43459727Y-115190177D01*
X43303622Y-115180777D01*
X43237567Y-115176470D01*
X43047105Y-115165509D01*
X42848507Y-115157205D01*
X42655095Y-115151943D01*
X42480186Y-115150108D01*
X42365971Y-115151284D01*
X41998558Y-115159795D01*
X42011214Y-115042106D01*
X42018915Y-114962414D01*
X42027554Y-114860762D01*
X42035419Y-114757440D01*
X42036326Y-114744500D01*
X42043218Y-114658196D01*
X42050655Y-114586015D01*
X42057334Y-114540069D01*
X42059114Y-114532833D01*
X42066439Y-114489786D01*
X42071210Y-114420442D01*
X42073532Y-114334879D01*
X42073511Y-114254620D01*
X41874278Y-114254620D01*
X41871769Y-114334212D01*
X41866178Y-114434511D01*
X41856995Y-114564346D01*
X41844450Y-114706958D01*
X41830479Y-114841493D01*
X41821670Y-114913833D01*
X41809518Y-115007179D01*
X41799731Y-115085011D01*
X41793502Y-115137701D01*
X41791880Y-115154894D01*
X41772148Y-115161780D01*
X41719270Y-115163877D01*
X41642103Y-115161692D01*
X41549500Y-115155732D01*
X41450317Y-115146504D01*
X41353409Y-115134515D01*
X41304633Y-115126987D01*
X41238014Y-115119337D01*
X41141754Y-115112825D01*
X41028548Y-115108123D01*
X40911086Y-115105905D01*
X40906707Y-115105878D01*
X40780026Y-115106451D01*
X40687959Y-115110252D01*
X40622862Y-115117991D01*
X40577093Y-115130377D01*
X40559934Y-115138083D01*
X40518924Y-115156200D01*
X40480948Y-115161147D01*
X40430281Y-115152923D01*
X40374388Y-115138083D01*
X40284121Y-115120176D01*
X40169919Y-115108287D01*
X40058312Y-115104333D01*
X39934445Y-115100527D01*
X39849051Y-115088554D01*
X39798912Y-115067586D01*
X39780807Y-115036792D01*
X39780633Y-115032757D01*
X39771696Y-114995663D01*
X39750038Y-114943703D01*
X39748579Y-114940748D01*
X39735365Y-114897594D01*
X39719755Y-114819582D01*
X39702945Y-114714036D01*
X39686133Y-114588280D01*
X39674522Y-114487705D01*
X39657627Y-114338799D01*
X39638333Y-114180878D01*
X39618469Y-114028174D01*
X39599862Y-113894920D01*
X39590161Y-113830851D01*
X39555142Y-113503574D01*
X39547800Y-113251795D01*
X39548136Y-113131348D01*
X39549641Y-113047309D01*
X39553062Y-112993753D01*
X39559145Y-112964756D01*
X39568638Y-112954395D01*
X39582285Y-112956745D01*
X39584842Y-112957876D01*
X39641880Y-112972367D01*
X39731325Y-112981033D01*
X39843631Y-112983722D01*
X39969253Y-112980286D01*
X40098647Y-112970575D01*
X40135819Y-112966527D01*
X40254259Y-112954778D01*
X40346493Y-112951633D01*
X40427775Y-112957153D01*
X40495652Y-112967940D01*
X40570400Y-112984003D01*
X40628843Y-113000058D01*
X40657992Y-113012442D01*
X40691083Y-113024101D01*
X40746151Y-113029867D01*
X40755843Y-113030000D01*
X40822072Y-113038902D01*
X40900930Y-113061456D01*
X40936190Y-113075387D01*
X40981897Y-113093947D01*
X41025570Y-113106022D01*
X41076740Y-113112426D01*
X41144939Y-113113971D01*
X41239697Y-113111470D01*
X41319500Y-113108085D01*
X41427733Y-113101662D01*
X41523464Y-113093149D01*
X41597256Y-113083583D01*
X41639676Y-113074001D01*
X41642919Y-113072537D01*
X41672040Y-113061431D01*
X41684181Y-113076797D01*
X41687138Y-113119213D01*
X41690064Y-113172057D01*
X41696554Y-113252465D01*
X41705397Y-113345940D01*
X41708845Y-113379250D01*
X41720883Y-113495311D01*
X41733809Y-113623919D01*
X41745022Y-113739152D01*
X41746017Y-113749667D01*
X41767683Y-113894199D01*
X41804830Y-114014378D01*
X41822147Y-114053511D01*
X41846931Y-114107193D01*
X41863072Y-114151608D01*
X41871783Y-114197251D01*
X41874278Y-114254620D01*
X42073511Y-114254620D01*
X42073508Y-114243172D01*
X42071242Y-114155399D01*
X42066838Y-114081637D01*
X42060400Y-114031960D01*
X42053793Y-114016308D01*
X42030422Y-113988901D01*
X42004356Y-113929349D01*
X41978580Y-113847454D01*
X41956077Y-113753022D01*
X41939833Y-113655858D01*
X41937200Y-113633250D01*
X41929554Y-113555933D01*
X41919692Y-113449437D01*
X41908790Y-113326783D01*
X41898023Y-113200990D01*
X41896119Y-113178167D01*
X41885651Y-113067042D01*
X41874186Y-112970066D01*
X41862880Y-112895530D01*
X41852892Y-112851725D01*
X41849626Y-112844792D01*
X41809190Y-112823955D01*
X41743438Y-112819781D01*
X41665657Y-112831558D01*
X41589135Y-112858572D01*
X41588698Y-112858783D01*
X41523904Y-112881152D01*
X41434161Y-112900781D01*
X41336843Y-112913894D01*
X41334013Y-112914145D01*
X41241542Y-112920398D01*
X41175698Y-112918702D01*
X41121240Y-112907383D01*
X41062928Y-112884770D01*
X41061817Y-112884279D01*
X40983020Y-112857313D01*
X40901939Y-112841358D01*
X40872736Y-112839500D01*
X40804519Y-112831628D01*
X40747058Y-112812160D01*
X40738136Y-112806755D01*
X40693759Y-112783615D01*
X40664635Y-112778399D01*
X40627553Y-112773731D01*
X40575379Y-112756370D01*
X40574383Y-112755951D01*
X40530475Y-112746772D01*
X40457671Y-112741173D01*
X40365905Y-112738909D01*
X40265108Y-112739733D01*
X40165214Y-112743401D01*
X40076156Y-112749664D01*
X40007866Y-112758279D01*
X39970278Y-112768998D01*
X39967689Y-112770977D01*
X39941880Y-112775524D01*
X39887294Y-112775745D01*
X39817161Y-112772546D01*
X39744716Y-112766829D01*
X39683188Y-112759499D01*
X39645810Y-112751458D01*
X39640896Y-112748659D01*
X39640471Y-112727265D01*
X39640857Y-112667921D01*
X39641987Y-112575000D01*
X39643795Y-112452877D01*
X39646213Y-112305925D01*
X39649174Y-112138519D01*
X39652611Y-111955031D01*
X39654763Y-111844667D01*
X39658659Y-111644074D01*
X39662324Y-111448716D01*
X39665657Y-111264410D01*
X39668559Y-111096976D01*
X39670929Y-110952231D01*
X39672669Y-110835994D01*
X39673677Y-110754083D01*
X39673846Y-110733417D01*
X39675146Y-110521750D01*
X40103598Y-110517946D01*
X40245237Y-110515421D01*
X40382650Y-110510674D01*
X40506379Y-110504203D01*
X40606962Y-110496505D01*
X40674940Y-110488078D01*
X40676290Y-110487835D01*
X40737747Y-110478387D01*
X40799728Y-110473573D01*
X40871018Y-110473599D01*
X40960401Y-110478672D01*
X41076662Y-110489001D01*
X41181456Y-110499756D01*
X41291103Y-110510685D01*
X41392837Y-110519006D01*
X41493801Y-110524872D01*
X41601141Y-110528438D01*
X41721999Y-110529856D01*
X41863522Y-110529281D01*
X42032852Y-110526866D01*
X42237135Y-110522765D01*
X42243717Y-110522621D01*
X42435063Y-110518524D01*
X42589070Y-110515621D01*
X42710718Y-110514090D01*
X42804988Y-110514107D01*
X42876863Y-110515847D01*
X42931323Y-110519487D01*
X42973349Y-110525203D01*
X43007923Y-110533171D01*
X43040025Y-110543567D01*
X43061467Y-110551535D01*
X43151904Y-110574898D01*
X43272835Y-110590605D01*
X43413117Y-110598641D01*
X43561604Y-110598990D01*
X43707153Y-110591633D01*
X43838620Y-110576556D01*
X43944859Y-110553740D01*
X43947795Y-110552859D01*
X44044273Y-110528056D01*
X44118299Y-110520998D01*
X44173331Y-110527347D01*
X44257383Y-110544810D01*
X44285879Y-110702613D01*
X44295703Y-110763310D01*
X44301385Y-110820169D01*
X44302666Y-110881516D01*
X44488096Y-110881516D01*
X44486140Y-110745972D01*
X44475657Y-110595985D01*
X44457062Y-110474999D01*
X44453130Y-110458250D01*
X44424641Y-110330404D01*
X44399912Y-110192489D01*
X44379498Y-110051159D01*
X44363954Y-109913068D01*
X44353833Y-109784871D01*
X44349689Y-109673223D01*
X44352077Y-109584779D01*
X44361552Y-109526192D01*
X44373800Y-109505750D01*
X44389436Y-109476944D01*
X44394967Y-109434259D01*
X44401037Y-109379964D01*
X44416500Y-109306813D01*
X44427537Y-109266175D01*
X44452730Y-109196876D01*
X44478273Y-109162905D01*
X44499108Y-109156500D01*
X44535219Y-109140662D01*
X44579258Y-109100924D01*
X44594615Y-109082417D01*
X44634476Y-109037220D01*
X44658326Y-109018641D01*
X44258423Y-109018641D01*
X44255088Y-109092379D01*
X44247139Y-109142367D01*
X44245202Y-109147936D01*
X44221403Y-109206974D01*
X44203426Y-109251750D01*
X44185423Y-109302973D01*
X44172114Y-109358655D01*
X44162822Y-109426088D01*
X44156869Y-109512569D01*
X44153581Y-109625390D01*
X44152280Y-109771846D01*
X44152202Y-109804124D01*
X44153223Y-109952769D01*
X44156703Y-110072194D01*
X44162439Y-110158570D01*
X44170229Y-110208067D01*
X44174015Y-110216874D01*
X44197031Y-110258970D01*
X44189161Y-110288645D01*
X44146862Y-110308875D01*
X44066591Y-110322636D01*
X44045362Y-110324904D01*
X43957678Y-110337240D01*
X43875997Y-110354742D01*
X43823112Y-110371701D01*
X43745626Y-110392559D01*
X43639813Y-110404094D01*
X43518589Y-110406537D01*
X43394869Y-110400117D01*
X43281566Y-110385064D01*
X43191598Y-110361607D01*
X43188467Y-110360420D01*
X43156233Y-110348513D01*
X43124666Y-110339028D01*
X43088961Y-110331788D01*
X43044313Y-110326616D01*
X42985914Y-110323335D01*
X42908961Y-110321770D01*
X42808647Y-110321742D01*
X42680167Y-110323077D01*
X42518715Y-110325597D01*
X42331217Y-110328913D01*
X42071229Y-110332625D01*
X41848919Y-110333707D01*
X41665364Y-110332170D01*
X41521642Y-110328025D01*
X41418830Y-110321283D01*
X41399883Y-110319222D01*
X41283454Y-110306825D01*
X41157188Y-110296248D01*
X41028455Y-110287782D01*
X40904621Y-110281719D01*
X40793055Y-110278350D01*
X40701124Y-110277966D01*
X40636195Y-110280858D01*
X40605636Y-110287318D01*
X40605084Y-110287797D01*
X40578861Y-110294705D01*
X40516803Y-110302711D01*
X40425379Y-110311237D01*
X40311054Y-110319709D01*
X40180295Y-110327549D01*
X40129941Y-110330131D01*
X39674794Y-110352417D01*
X39674800Y-109159365D01*
X39817675Y-109005909D01*
X39916352Y-108901616D01*
X40026481Y-108788077D01*
X40142730Y-108670519D01*
X40259767Y-108554168D01*
X40372260Y-108444252D01*
X40474877Y-108345999D01*
X40562285Y-108264635D01*
X40629153Y-108205388D01*
X40658274Y-108181817D01*
X40764883Y-108101580D01*
X41124717Y-108091885D01*
X41268027Y-108086753D01*
X41419257Y-108079182D01*
X41563698Y-108070046D01*
X41686639Y-108060215D01*
X41727967Y-108056127D01*
X41805508Y-108050366D01*
X41913906Y-108045944D01*
X42047542Y-108042801D01*
X42200796Y-108040877D01*
X42368051Y-108040113D01*
X42543688Y-108040448D01*
X42722087Y-108041824D01*
X42897631Y-108044181D01*
X43064701Y-108047459D01*
X43217678Y-108051598D01*
X43350943Y-108056538D01*
X43458879Y-108062221D01*
X43535865Y-108068586D01*
X43576284Y-108075573D01*
X43576788Y-108075760D01*
X43622138Y-108088002D01*
X43696054Y-108102784D01*
X43785078Y-108117508D01*
X43817048Y-108122130D01*
X43922722Y-108139934D01*
X43992724Y-108161055D01*
X44033713Y-108189421D01*
X44052345Y-108228961D01*
X44055627Y-108262912D01*
X44066337Y-108310678D01*
X44093088Y-108379815D01*
X44129162Y-108456000D01*
X44167842Y-108524907D01*
X44198864Y-108568336D01*
X44219408Y-108609809D01*
X44218542Y-108636450D01*
X44216808Y-108669897D01*
X44223616Y-108679003D01*
X44235752Y-108706359D01*
X44245808Y-108765010D01*
X44253276Y-108843947D01*
X44257650Y-108932160D01*
X44258423Y-109018641D01*
X44658326Y-109018641D01*
X44667856Y-109011218D01*
X44676502Y-109008713D01*
X44700951Y-109025388D01*
X44738031Y-109068150D01*
X44769696Y-109112821D01*
X44811782Y-109172200D01*
X44843451Y-109201167D01*
X44873785Y-109206884D01*
X44886113Y-109204634D01*
X44953845Y-109172511D01*
X44985724Y-109119337D01*
X44981494Y-109046964D01*
X44940903Y-108957247D01*
X44923650Y-108930251D01*
X44859667Y-108835446D01*
X44890459Y-108798630D01*
X44532740Y-108798630D01*
X44512019Y-108858849D01*
X44506434Y-108865635D01*
X44478573Y-108893063D01*
X44464894Y-108886359D01*
X44455467Y-108856896D01*
X44446802Y-108806080D01*
X44440989Y-108734892D01*
X44439881Y-108701417D01*
X44438241Y-108595583D01*
X44478380Y-108647817D01*
X44521083Y-108724840D01*
X44532740Y-108798630D01*
X44890459Y-108798630D01*
X44950109Y-108727311D01*
X45040550Y-108619175D01*
X45046624Y-108812833D01*
X45050871Y-108909720D01*
X45059931Y-108975226D01*
X45079220Y-109020298D01*
X45114153Y-109055885D01*
X45170147Y-109092934D01*
X45191537Y-109105777D01*
X45206043Y-109118537D01*
X45206631Y-109136571D01*
X45189605Y-109165732D01*
X45151272Y-109211870D01*
X45087938Y-109280836D01*
X45066830Y-109303325D01*
X44980703Y-109400384D01*
X44926292Y-109476344D01*
X44901608Y-109535723D01*
X44904663Y-109583038D01*
X44928367Y-109617933D01*
X44965026Y-109640097D01*
X45008848Y-109635574D01*
X45064744Y-109601988D01*
X45137629Y-109536964D01*
X45175864Y-109498281D01*
X45242001Y-109432041D01*
X45302047Y-109376072D01*
X45346873Y-109338708D01*
X45360493Y-109329728D01*
X45383190Y-109320137D01*
X45397651Y-109325580D01*
X45407054Y-109353489D01*
X45414578Y-109411299D01*
X45420010Y-109468896D01*
X45429872Y-109550403D01*
X45442439Y-109616879D01*
X45455247Y-109655743D01*
X45457200Y-109658616D01*
X45499079Y-109681392D01*
X45553348Y-109682953D01*
X45592657Y-109664843D01*
X45598928Y-109637262D01*
X45603826Y-109570406D01*
X45607270Y-109467315D01*
X45609178Y-109331028D01*
X45609470Y-109164583D01*
X45608873Y-109056301D01*
X45606673Y-108775561D01*
X45410967Y-108775561D01*
X45410967Y-108944955D01*
X45342175Y-108917018D01*
X45293571Y-108889653D01*
X45272123Y-108849445D01*
X45266890Y-108812397D01*
X45271743Y-108738300D01*
X45294801Y-108671241D01*
X45330112Y-108623221D01*
X45369177Y-108606167D01*
X45390007Y-108609831D01*
X45402494Y-108626492D01*
X45408733Y-108664645D01*
X45410822Y-108732791D01*
X45410967Y-108775561D01*
X45606673Y-108775561D01*
X45604266Y-108468583D01*
X45555241Y-108442437D01*
X45509706Y-108429211D01*
X45437525Y-108419703D01*
X45354640Y-108415979D01*
X45268684Y-108418789D01*
X45208389Y-108432471D01*
X45161339Y-108464269D01*
X45115118Y-108521426D01*
X45078837Y-108576873D01*
X45059496Y-108604182D01*
X45053312Y-108594109D01*
X45052378Y-108573358D01*
X45035573Y-108514523D01*
X44994057Y-108484198D01*
X44934905Y-108482934D01*
X44865194Y-108511282D01*
X44808009Y-108554334D01*
X44761530Y-108595853D01*
X44731851Y-108611412D01*
X44708457Y-108597941D01*
X44680835Y-108552373D01*
X44659196Y-108510917D01*
X44629287Y-108480535D01*
X44574613Y-108469073D01*
X44553717Y-108468583D01*
X44493860Y-108474266D01*
X44459206Y-108496503D01*
X44443529Y-108521500D01*
X44424599Y-108555416D01*
X44417470Y-108552821D01*
X44416446Y-108531100D01*
X44406573Y-108491620D01*
X44380908Y-108428703D01*
X44344871Y-108355548D01*
X44342531Y-108351184D01*
X44305707Y-108275129D01*
X44279152Y-108205598D01*
X44268464Y-108157311D01*
X44268448Y-108156375D01*
X44262170Y-108114112D01*
X44249095Y-108098167D01*
X44230084Y-108080325D01*
X44217916Y-108049132D01*
X44189733Y-108002031D01*
X44157413Y-107977846D01*
X44095565Y-107957633D01*
X43999659Y-107936642D01*
X43877927Y-107916066D01*
X43738598Y-107897097D01*
X43589903Y-107880925D01*
X43440072Y-107868744D01*
X43378967Y-107865114D01*
X43246042Y-107859571D01*
X43087139Y-107855220D01*
X42909033Y-107852049D01*
X42718503Y-107850045D01*
X42522324Y-107849198D01*
X42327274Y-107849494D01*
G36*
X44425741Y-119133357D02*
X44374988Y-119157500D01*
X44353942Y-119201536D01*
X44352633Y-119221250D01*
X44369803Y-119279453D01*
X44418760Y-119311371D01*
X44459846Y-119316500D01*
X44535376Y-119335851D01*
X44595585Y-119387052D01*
X44629320Y-119459827D01*
X44631781Y-119474936D01*
X44633617Y-119525877D01*
X44620172Y-119546757D01*
X44603632Y-119549333D01*
X44564897Y-119538547D01*
X44553717Y-119528167D01*
X44522229Y-119511121D01*
X44471317Y-119508207D01*
X44421260Y-119518869D01*
X44399200Y-119532400D01*
X44375391Y-119582872D01*
X44385784Y-119642666D01*
X44422789Y-119693810D01*
X44458524Y-119719817D01*
X44504256Y-119733954D01*
X44573153Y-119739386D01*
X44614252Y-119739833D01*
X44694501Y-119737794D01*
X44746321Y-119729118D01*
X44783522Y-119709965D01*
X44811586Y-119684972D01*
X44840845Y-119652140D01*
X44855882Y-119619338D01*
X44859630Y-119573056D01*
X44855023Y-119499786D01*
X44854104Y-119489180D01*
X44838971Y-119376795D01*
X44813100Y-119295593D01*
X44771212Y-119234776D01*
X44708028Y-119183548D01*
X44703092Y-119180315D01*
X44621335Y-119140265D01*
X44530470Y-119126290D01*
X44511380Y-119126000D01*
X44425741Y-119133357D01*
X44425741Y-119133357D01*
G37*
X44425741Y-119133357D02*
X44374988Y-119157500D01*
X44353942Y-119201536D01*
X44352633Y-119221250D01*
X44369803Y-119279453D01*
X44418760Y-119311371D01*
X44459846Y-119316500D01*
X44535376Y-119335851D01*
X44595585Y-119387052D01*
X44629320Y-119459827D01*
X44631781Y-119474936D01*
X44633617Y-119525877D01*
X44620172Y-119546757D01*
X44603632Y-119549333D01*
X44564897Y-119538547D01*
X44553717Y-119528167D01*
X44522229Y-119511121D01*
X44471317Y-119508207D01*
X44421260Y-119518869D01*
X44399200Y-119532400D01*
X44375391Y-119582872D01*
X44385784Y-119642666D01*
X44422789Y-119693810D01*
X44458524Y-119719817D01*
X44504256Y-119733954D01*
X44573153Y-119739386D01*
X44614252Y-119739833D01*
X44694501Y-119737794D01*
X44746321Y-119729118D01*
X44783522Y-119709965D01*
X44811586Y-119684972D01*
X44840845Y-119652140D01*
X44855882Y-119619338D01*
X44859630Y-119573056D01*
X44855023Y-119499786D01*
X44854104Y-119489180D01*
X44838971Y-119376795D01*
X44813100Y-119295593D01*
X44771212Y-119234776D01*
X44708028Y-119183548D01*
X44703092Y-119180315D01*
X44621335Y-119140265D01*
X44530470Y-119126290D01*
X44511380Y-119126000D01*
X44425741Y-119133357D01*
G36*
X44521336Y-118246956D02*
X44480162Y-118268282D01*
X44461517Y-118305561D01*
X44458467Y-118341192D01*
X44469331Y-118399730D01*
X44506024Y-118434235D01*
X44574700Y-118449291D01*
X44605575Y-118450776D01*
X44677718Y-118455867D01*
X44740619Y-118466012D01*
X44754800Y-118469833D01*
X44784266Y-118480813D01*
X44778956Y-118486238D01*
X44735280Y-118488700D01*
X44728391Y-118488890D01*
X44650005Y-118505764D01*
X44560683Y-118554831D01*
X44543067Y-118567152D01*
X44470389Y-118627320D01*
X44430685Y-118685154D01*
X44417417Y-118753521D01*
X44419866Y-118809638D01*
X44428436Y-118850726D01*
X44450592Y-118883837D01*
X44495067Y-118918428D01*
X44552859Y-118953683D01*
X44648211Y-119000153D01*
X44741047Y-119029432D01*
X44821820Y-119039747D01*
X44880981Y-119029323D01*
X44897675Y-119017740D01*
X44921979Y-118966070D01*
X44914815Y-118907637D01*
X44887092Y-118869152D01*
X44844030Y-118840789D01*
X44783632Y-118808747D01*
X44768167Y-118801518D01*
X44717989Y-118777116D01*
X44700894Y-118759213D01*
X44711092Y-118737550D01*
X44723823Y-118722980D01*
X44771261Y-118692347D01*
X44845438Y-118681615D01*
X44856624Y-118681500D01*
X44945201Y-118669633D01*
X45020931Y-118628819D01*
X45023759Y-118626681D01*
X45068296Y-118588212D01*
X45087845Y-118551351D01*
X45090536Y-118497219D01*
X45089257Y-118474572D01*
X45082981Y-118417846D01*
X45067070Y-118380450D01*
X45031957Y-118348722D01*
X44977050Y-118314328D01*
X44912436Y-118280181D01*
X44849440Y-118259163D01*
X44771997Y-118247104D01*
X44696663Y-118241536D01*
X44591387Y-118238926D01*
X44521336Y-118246956D01*
X44521336Y-118246956D01*
G37*
X44521336Y-118246956D02*
X44480162Y-118268282D01*
X44461517Y-118305561D01*
X44458467Y-118341192D01*
X44469331Y-118399730D01*
X44506024Y-118434235D01*
X44574700Y-118449291D01*
X44605575Y-118450776D01*
X44677718Y-118455867D01*
X44740619Y-118466012D01*
X44754800Y-118469833D01*
X44784266Y-118480813D01*
X44778956Y-118486238D01*
X44735280Y-118488700D01*
X44728391Y-118488890D01*
X44650005Y-118505764D01*
X44560683Y-118554831D01*
X44543067Y-118567152D01*
X44470389Y-118627320D01*
X44430685Y-118685154D01*
X44417417Y-118753521D01*
X44419866Y-118809638D01*
X44428436Y-118850726D01*
X44450592Y-118883837D01*
X44495067Y-118918428D01*
X44552859Y-118953683D01*
X44648211Y-119000153D01*
X44741047Y-119029432D01*
X44821820Y-119039747D01*
X44880981Y-119029323D01*
X44897675Y-119017740D01*
X44921979Y-118966070D01*
X44914815Y-118907637D01*
X44887092Y-118869152D01*
X44844030Y-118840789D01*
X44783632Y-118808747D01*
X44768167Y-118801518D01*
X44717989Y-118777116D01*
X44700894Y-118759213D01*
X44711092Y-118737550D01*
X44723823Y-118722980D01*
X44771261Y-118692347D01*
X44845438Y-118681615D01*
X44856624Y-118681500D01*
X44945201Y-118669633D01*
X45020931Y-118628819D01*
X45023759Y-118626681D01*
X45068296Y-118588212D01*
X45087845Y-118551351D01*
X45090536Y-118497219D01*
X45089257Y-118474572D01*
X45082981Y-118417846D01*
X45067070Y-118380450D01*
X45031957Y-118348722D01*
X44977050Y-118314328D01*
X44912436Y-118280181D01*
X44849440Y-118259163D01*
X44771997Y-118247104D01*
X44696663Y-118241536D01*
X44591387Y-118238926D01*
X44521336Y-118246956D01*
G36*
X38808908Y-118582623D02*
X38761297Y-118584936D01*
X38650152Y-118592129D01*
X38551861Y-118601372D01*
X38475345Y-118611616D01*
X38429523Y-118621813D01*
X38423061Y-118624727D01*
X38390172Y-118666826D01*
X38386939Y-118721097D01*
X38409033Y-118761933D01*
X38444097Y-118774110D01*
X38517555Y-118781300D01*
X38625757Y-118783436D01*
X38765051Y-118780454D01*
X38931786Y-118772287D01*
X38943818Y-118771555D01*
X39035029Y-118761350D01*
X39091003Y-118741909D01*
X39118477Y-118709476D01*
X39124467Y-118670917D01*
X39120444Y-118632983D01*
X39104582Y-118606132D01*
X39071189Y-118589019D01*
X39014573Y-118580294D01*
X38929043Y-118578612D01*
X38808908Y-118582623D01*
X38808908Y-118582623D01*
G37*
X38808908Y-118582623D02*
X38761297Y-118584936D01*
X38650152Y-118592129D01*
X38551861Y-118601372D01*
X38475345Y-118611616D01*
X38429523Y-118621813D01*
X38423061Y-118624727D01*
X38390172Y-118666826D01*
X38386939Y-118721097D01*
X38409033Y-118761933D01*
X38444097Y-118774110D01*
X38517555Y-118781300D01*
X38625757Y-118783436D01*
X38765051Y-118780454D01*
X38931786Y-118772287D01*
X38943818Y-118771555D01*
X39035029Y-118761350D01*
X39091003Y-118741909D01*
X39118477Y-118709476D01*
X39124467Y-118670917D01*
X39120444Y-118632983D01*
X39104582Y-118606132D01*
X39071189Y-118589019D01*
X39014573Y-118580294D01*
X38929043Y-118578612D01*
X38808908Y-118582623D01*
G36*
X38814999Y-116532421D02*
X38781812Y-116566470D01*
X38766730Y-116631079D01*
X38764633Y-116685483D01*
X38764633Y-116797667D01*
X38652450Y-116797667D01*
X38567029Y-116804109D01*
X38515921Y-116826219D01*
X38492696Y-116868173D01*
X38489467Y-116903500D01*
X38499388Y-116958968D01*
X38533437Y-116992155D01*
X38598046Y-117007236D01*
X38652450Y-117009333D01*
X38764633Y-117009333D01*
X38764633Y-117164803D01*
X38766954Y-117252297D01*
X38775343Y-117308197D01*
X38791948Y-117343056D01*
X38803342Y-117355303D01*
X38859300Y-117387169D01*
X38911628Y-117377014D01*
X38941270Y-117351625D01*
X38962013Y-117313701D01*
X38973135Y-117251609D01*
X38976300Y-117161125D01*
X38976300Y-117009333D01*
X39056733Y-117009333D01*
X39133965Y-116998088D01*
X39176754Y-116963548D01*
X39187294Y-116915142D01*
X39168831Y-116849031D01*
X39118390Y-116808888D01*
X39053342Y-116797667D01*
X38976300Y-116797667D01*
X38976300Y-116685483D01*
X38969858Y-116600062D01*
X38947748Y-116548954D01*
X38905794Y-116525729D01*
X38870467Y-116522500D01*
X38814999Y-116532421D01*
X38814999Y-116532421D01*
G37*
X38814999Y-116532421D02*
X38781812Y-116566470D01*
X38766730Y-116631079D01*
X38764633Y-116685483D01*
X38764633Y-116797667D01*
X38652450Y-116797667D01*
X38567029Y-116804109D01*
X38515921Y-116826219D01*
X38492696Y-116868173D01*
X38489467Y-116903500D01*
X38499388Y-116958968D01*
X38533437Y-116992155D01*
X38598046Y-117007236D01*
X38652450Y-117009333D01*
X38764633Y-117009333D01*
X38764633Y-117164803D01*
X38766954Y-117252297D01*
X38775343Y-117308197D01*
X38791948Y-117343056D01*
X38803342Y-117355303D01*
X38859300Y-117387169D01*
X38911628Y-117377014D01*
X38941270Y-117351625D01*
X38962013Y-117313701D01*
X38973135Y-117251609D01*
X38976300Y-117161125D01*
X38976300Y-117009333D01*
X39056733Y-117009333D01*
X39133965Y-116998088D01*
X39176754Y-116963548D01*
X39187294Y-116915142D01*
X39168831Y-116849031D01*
X39118390Y-116808888D01*
X39053342Y-116797667D01*
X38976300Y-116797667D01*
X38976300Y-116685483D01*
X38969858Y-116600062D01*
X38947748Y-116548954D01*
X38905794Y-116525729D01*
X38870467Y-116522500D01*
X38814999Y-116532421D01*
G36*
X44573376Y-115592563D02*
X44545514Y-115640570D01*
X44543133Y-115666203D01*
X44552416Y-115706093D01*
X44584413Y-115744103D01*
X44645345Y-115785917D01*
X44716530Y-115824607D01*
X44777401Y-115863830D01*
X44796800Y-115895970D01*
X44775330Y-115918603D01*
X44713595Y-115929304D01*
X44690332Y-115929833D01*
X44602369Y-115947622D01*
X44544758Y-115984631D01*
X44503291Y-116026284D01*
X44484278Y-116070860D01*
X44479635Y-116137607D01*
X44479633Y-116139692D01*
X44494207Y-116230031D01*
X44540532Y-116298728D01*
X44622518Y-116350580D01*
X44665005Y-116367275D01*
X44741560Y-116389660D01*
X44793009Y-116391346D01*
X44831626Y-116371505D01*
X44848470Y-116354912D01*
X44877099Y-116297477D01*
X44865596Y-116237471D01*
X44815400Y-116180337D01*
X44799295Y-116168685D01*
X44727373Y-116120333D01*
X44806611Y-116120333D01*
X44887131Y-116105982D01*
X44947324Y-116076559D01*
X44980106Y-116050042D01*
X44998551Y-116020989D01*
X45006745Y-115976894D01*
X45008774Y-115905251D01*
X45008800Y-115888403D01*
X45003923Y-115791427D01*
X44984184Y-115724388D01*
X44941922Y-115675907D01*
X44869477Y-115634604D01*
X44824960Y-115615316D01*
X44715363Y-115579527D01*
X44630747Y-115572079D01*
X44573376Y-115592563D01*
X44573376Y-115592563D01*
G37*
X44573376Y-115592563D02*
X44545514Y-115640570D01*
X44543133Y-115666203D01*
X44552416Y-115706093D01*
X44584413Y-115744103D01*
X44645345Y-115785917D01*
X44716530Y-115824607D01*
X44777401Y-115863830D01*
X44796800Y-115895970D01*
X44775330Y-115918603D01*
X44713595Y-115929304D01*
X44690332Y-115929833D01*
X44602369Y-115947622D01*
X44544758Y-115984631D01*
X44503291Y-116026284D01*
X44484278Y-116070860D01*
X44479635Y-116137607D01*
X44479633Y-116139692D01*
X44494207Y-116230031D01*
X44540532Y-116298728D01*
X44622518Y-116350580D01*
X44665005Y-116367275D01*
X44741560Y-116389660D01*
X44793009Y-116391346D01*
X44831626Y-116371505D01*
X44848470Y-116354912D01*
X44877099Y-116297477D01*
X44865596Y-116237471D01*
X44815400Y-116180337D01*
X44799295Y-116168685D01*
X44727373Y-116120333D01*
X44806611Y-116120333D01*
X44887131Y-116105982D01*
X44947324Y-116076559D01*
X44980106Y-116050042D01*
X44998551Y-116020989D01*
X45006745Y-115976894D01*
X45008774Y-115905251D01*
X45008800Y-115888403D01*
X45003923Y-115791427D01*
X44984184Y-115724388D01*
X44941922Y-115675907D01*
X44869477Y-115634604D01*
X44824960Y-115615316D01*
X44715363Y-115579527D01*
X44630747Y-115572079D01*
X44573376Y-115592563D01*
G36*
X38919338Y-114661968D02*
X38854760Y-114669111D01*
X38817562Y-114682369D01*
X38806967Y-114691583D01*
X38766987Y-114718671D01*
X38744156Y-114723333D01*
X38698861Y-114740636D01*
X38657750Y-114781053D01*
X38637810Y-114827348D01*
X38637633Y-114831415D01*
X38626137Y-114870456D01*
X38602462Y-114912295D01*
X38527895Y-115035647D01*
X38485075Y-115152444D01*
X38469047Y-115277235D01*
X38468622Y-115305417D01*
X38471665Y-115432240D01*
X38482032Y-115526104D01*
X38502004Y-115596085D01*
X38533866Y-115651255D01*
X38564305Y-115685760D01*
X38612283Y-115738364D01*
X38649562Y-115787217D01*
X38657130Y-115799713D01*
X38674530Y-115823526D01*
X38701822Y-115836972D01*
X38749593Y-115842642D01*
X38828428Y-115843126D01*
X38834170Y-115843049D01*
X38929758Y-115838075D01*
X39000398Y-115823765D01*
X39063109Y-115796309D01*
X39076309Y-115788841D01*
X39127922Y-115751707D01*
X39188768Y-115697719D01*
X39250487Y-115635740D01*
X39304721Y-115574633D01*
X39343109Y-115523259D01*
X39357300Y-115490935D01*
X39371911Y-115460663D01*
X39389050Y-115443000D01*
X39407652Y-115411865D01*
X39417829Y-115352392D01*
X39420800Y-115262106D01*
X39412079Y-115096510D01*
X39384167Y-114960235D01*
X39334438Y-114843646D01*
X39287022Y-114770958D01*
X39204047Y-114659833D01*
X39018682Y-114659833D01*
X38919338Y-114661968D01*
X38919338Y-114661968D01*
G37*
X38919338Y-114661968D02*
X38854760Y-114669111D01*
X38817562Y-114682369D01*
X38806967Y-114691583D01*
X38766987Y-114718671D01*
X38744156Y-114723333D01*
X38698861Y-114740636D01*
X38657750Y-114781053D01*
X38637810Y-114827348D01*
X38637633Y-114831415D01*
X38626137Y-114870456D01*
X38602462Y-114912295D01*
X38527895Y-115035647D01*
X38485075Y-115152444D01*
X38469047Y-115277235D01*
X38468622Y-115305417D01*
X38471665Y-115432240D01*
X38482032Y-115526104D01*
X38502004Y-115596085D01*
X38533866Y-115651255D01*
X38564305Y-115685760D01*
X38612283Y-115738364D01*
X38649562Y-115787217D01*
X38657130Y-115799713D01*
X38674530Y-115823526D01*
X38701822Y-115836972D01*
X38749593Y-115842642D01*
X38828428Y-115843126D01*
X38834170Y-115843049D01*
X38929758Y-115838075D01*
X39000398Y-115823765D01*
X39063109Y-115796309D01*
X39076309Y-115788841D01*
X39127922Y-115751707D01*
X39188768Y-115697719D01*
X39250487Y-115635740D01*
X39304721Y-115574633D01*
X39343109Y-115523259D01*
X39357300Y-115490935D01*
X39371911Y-115460663D01*
X39389050Y-115443000D01*
X39407652Y-115411865D01*
X39417829Y-115352392D01*
X39420800Y-115262106D01*
X39412079Y-115096510D01*
X39384167Y-114960235D01*
X39334438Y-114843646D01*
X39287022Y-114770958D01*
X39204047Y-114659833D01*
X39018682Y-114659833D01*
X38919338Y-114661968D01*
G36*
X44609314Y-114204719D02*
X44545397Y-114217548D01*
X44498088Y-114232958D01*
X44487154Y-114239222D01*
X44465756Y-114274300D01*
X44448433Y-114342652D01*
X44434671Y-114447208D01*
X44423954Y-114590895D01*
X44423322Y-114602168D01*
X44413101Y-114787920D01*
X44501255Y-114893210D01*
X44552267Y-114951020D01*
X44591083Y-114982683D01*
X44630889Y-114995930D01*
X44680806Y-114998500D01*
X44747158Y-114992530D01*
X44793448Y-114968279D01*
X44827002Y-114933376D01*
X44857205Y-114891479D01*
X44873854Y-114846963D01*
X44880747Y-114785231D01*
X44881800Y-114722742D01*
X44879385Y-114687759D01*
X44667813Y-114687759D01*
X44651024Y-114690054D01*
X44638383Y-114681000D01*
X44616388Y-114641219D01*
X44608209Y-114580060D01*
X44608244Y-114577866D01*
X44609854Y-114501083D01*
X44638383Y-114575167D01*
X44663600Y-114649614D01*
X44667813Y-114687759D01*
X44879385Y-114687759D01*
X44871293Y-114570583D01*
X44841648Y-114431039D01*
X44795677Y-114315009D01*
X44763228Y-114263543D01*
X44726130Y-114219118D01*
X44693460Y-114200102D01*
X44647170Y-114199597D01*
X44609314Y-114204719D01*
X44609314Y-114204719D01*
G37*
X44609314Y-114204719D02*
X44545397Y-114217548D01*
X44498088Y-114232958D01*
X44487154Y-114239222D01*
X44465756Y-114274300D01*
X44448433Y-114342652D01*
X44434671Y-114447208D01*
X44423954Y-114590895D01*
X44423322Y-114602168D01*
X44413101Y-114787920D01*
X44501255Y-114893210D01*
X44552267Y-114951020D01*
X44591083Y-114982683D01*
X44630889Y-114995930D01*
X44680806Y-114998500D01*
X44747158Y-114992530D01*
X44793448Y-114968279D01*
X44827002Y-114933376D01*
X44857205Y-114891479D01*
X44873854Y-114846963D01*
X44880747Y-114785231D01*
X44881800Y-114722742D01*
X44879385Y-114687759D01*
X44667813Y-114687759D01*
X44651024Y-114690054D01*
X44638383Y-114681000D01*
X44616388Y-114641219D01*
X44608209Y-114580060D01*
X44608244Y-114577866D01*
X44609854Y-114501083D01*
X44638383Y-114575167D01*
X44663600Y-114649614D01*
X44667813Y-114687759D01*
X44879385Y-114687759D01*
X44871293Y-114570583D01*
X44841648Y-114431039D01*
X44795677Y-114315009D01*
X44763228Y-114263543D01*
X44726130Y-114219118D01*
X44693460Y-114200102D01*
X44647170Y-114199597D01*
X44609314Y-114204719D01*
G36*
X45642582Y-113253068D02*
X45634610Y-113261294D01*
X45620889Y-113280412D01*
X45611534Y-113306804D01*
X45606121Y-113347215D01*
X45604225Y-113408392D01*
X45605422Y-113497082D01*
X45609285Y-113620032D01*
X45610277Y-113647585D01*
X45615036Y-113784006D01*
X45620434Y-113948147D01*
X45626009Y-114125408D01*
X45631301Y-114301192D01*
X45635206Y-114437583D01*
X45640148Y-114580021D01*
X45646373Y-114703990D01*
X45653462Y-114803698D01*
X45660993Y-114873354D01*
X45668545Y-114907166D01*
X45669435Y-114908542D01*
X45713441Y-114932503D01*
X45769620Y-114927771D01*
X45820642Y-114896006D01*
X45822654Y-114893840D01*
X45834395Y-114877814D01*
X45843120Y-114855590D01*
X45849074Y-114821764D01*
X45852503Y-114770934D01*
X45853650Y-114697695D01*
X45852762Y-114596643D01*
X45850083Y-114462375D01*
X45847349Y-114348799D01*
X45843195Y-114199445D01*
X45838446Y-114057538D01*
X45833422Y-113930787D01*
X45828443Y-113826903D01*
X45823829Y-113753595D01*
X45821664Y-113729980D01*
X45815259Y-113665639D01*
X45816459Y-113636347D01*
X45827045Y-113635222D01*
X45842584Y-113649093D01*
X45869853Y-113686316D01*
X45876633Y-113707845D01*
X45888102Y-113739979D01*
X45916456Y-113788097D01*
X45924215Y-113799316D01*
X45965929Y-113863109D01*
X46002055Y-113926548D01*
X46003590Y-113929583D01*
X46034847Y-113974777D01*
X46078227Y-113991620D01*
X46108842Y-113993083D01*
X46166678Y-113984815D01*
X46201231Y-113954094D01*
X46209071Y-113940167D01*
X46222890Y-113916828D01*
X46230980Y-113918406D01*
X46234873Y-113950337D01*
X46236096Y-114018061D01*
X46236155Y-114036475D01*
X46239926Y-114120919D01*
X46249788Y-114183356D01*
X46261867Y-114211100D01*
X46302047Y-114230029D01*
X46358484Y-114235720D01*
X46411782Y-114228288D01*
X46441316Y-114210042D01*
X46446625Y-114180718D01*
X46450350Y-114116919D01*
X46452280Y-114026480D01*
X46452206Y-113917234D01*
X46451091Y-113844917D01*
X46447292Y-113702981D01*
X46441240Y-113597877D01*
X46430792Y-113524101D01*
X46413804Y-113476150D01*
X46388134Y-113448523D01*
X46351638Y-113435717D01*
X46302175Y-113432230D01*
X46290336Y-113432167D01*
X46210708Y-113442169D01*
X46165420Y-113473695D01*
X46151127Y-113526358D01*
X46137956Y-113578148D01*
X46119959Y-113610041D01*
X46096124Y-113637997D01*
X46083341Y-113631883D01*
X46074443Y-113610041D01*
X46051430Y-113569573D01*
X46006569Y-113506703D01*
X45946662Y-113430196D01*
X45878511Y-113348816D01*
X45825559Y-113289292D01*
X45759519Y-113235730D01*
X45698182Y-113223605D01*
X45642582Y-113253068D01*
X45642582Y-113253068D01*
G37*
X45642582Y-113253068D02*
X45634610Y-113261294D01*
X45620889Y-113280412D01*
X45611534Y-113306804D01*
X45606121Y-113347215D01*
X45604225Y-113408392D01*
X45605422Y-113497082D01*
X45609285Y-113620032D01*
X45610277Y-113647585D01*
X45615036Y-113784006D01*
X45620434Y-113948147D01*
X45626009Y-114125408D01*
X45631301Y-114301192D01*
X45635206Y-114437583D01*
X45640148Y-114580021D01*
X45646373Y-114703990D01*
X45653462Y-114803698D01*
X45660993Y-114873354D01*
X45668545Y-114907166D01*
X45669435Y-114908542D01*
X45713441Y-114932503D01*
X45769620Y-114927771D01*
X45820642Y-114896006D01*
X45822654Y-114893840D01*
X45834395Y-114877814D01*
X45843120Y-114855590D01*
X45849074Y-114821764D01*
X45852503Y-114770934D01*
X45853650Y-114697695D01*
X45852762Y-114596643D01*
X45850083Y-114462375D01*
X45847349Y-114348799D01*
X45843195Y-114199445D01*
X45838446Y-114057538D01*
X45833422Y-113930787D01*
X45828443Y-113826903D01*
X45823829Y-113753595D01*
X45821664Y-113729980D01*
X45815259Y-113665639D01*
X45816459Y-113636347D01*
X45827045Y-113635222D01*
X45842584Y-113649093D01*
X45869853Y-113686316D01*
X45876633Y-113707845D01*
X45888102Y-113739979D01*
X45916456Y-113788097D01*
X45924215Y-113799316D01*
X45965929Y-113863109D01*
X46002055Y-113926548D01*
X46003590Y-113929583D01*
X46034847Y-113974777D01*
X46078227Y-113991620D01*
X46108842Y-113993083D01*
X46166678Y-113984815D01*
X46201231Y-113954094D01*
X46209071Y-113940167D01*
X46222890Y-113916828D01*
X46230980Y-113918406D01*
X46234873Y-113950337D01*
X46236096Y-114018061D01*
X46236155Y-114036475D01*
X46239926Y-114120919D01*
X46249788Y-114183356D01*
X46261867Y-114211100D01*
X46302047Y-114230029D01*
X46358484Y-114235720D01*
X46411782Y-114228288D01*
X46441316Y-114210042D01*
X46446625Y-114180718D01*
X46450350Y-114116919D01*
X46452280Y-114026480D01*
X46452206Y-113917234D01*
X46451091Y-113844917D01*
X46447292Y-113702981D01*
X46441240Y-113597877D01*
X46430792Y-113524101D01*
X46413804Y-113476150D01*
X46388134Y-113448523D01*
X46351638Y-113435717D01*
X46302175Y-113432230D01*
X46290336Y-113432167D01*
X46210708Y-113442169D01*
X46165420Y-113473695D01*
X46151127Y-113526358D01*
X46137956Y-113578148D01*
X46119959Y-113610041D01*
X46096124Y-113637997D01*
X46083341Y-113631883D01*
X46074443Y-113610041D01*
X46051430Y-113569573D01*
X46006569Y-113506703D01*
X45946662Y-113430196D01*
X45878511Y-113348816D01*
X45825559Y-113289292D01*
X45759519Y-113235730D01*
X45698182Y-113223605D01*
X45642582Y-113253068D01*
G36*
X44818204Y-113169377D02*
X44782036Y-113204826D01*
X44779706Y-113260824D01*
X44811271Y-113334850D01*
X44876790Y-113424381D01*
X44881800Y-113430188D01*
X44932524Y-113491042D01*
X44969981Y-113540812D01*
X44987215Y-113570145D01*
X44987633Y-113572457D01*
X44973819Y-113596419D01*
X44937189Y-113641478D01*
X44884965Y-113698902D01*
X44871217Y-113713240D01*
X44754800Y-113833434D01*
X44754800Y-113982050D01*
X44757589Y-114058228D01*
X44765068Y-114110886D01*
X44775904Y-114130666D01*
X44775967Y-114130667D01*
X44794745Y-114147811D01*
X44797133Y-114162417D01*
X44808563Y-114190584D01*
X44818300Y-114194167D01*
X44836623Y-114211497D01*
X44839467Y-114228768D01*
X44853643Y-114256160D01*
X44892407Y-114306425D01*
X44950118Y-114372805D01*
X45021131Y-114448541D01*
X45033866Y-114461601D01*
X45130228Y-114556070D01*
X45205176Y-114619587D01*
X45263342Y-114654572D01*
X45309356Y-114663446D01*
X45347848Y-114648632D01*
X45364400Y-114634433D01*
X45383248Y-114595573D01*
X45389800Y-114548655D01*
X45382470Y-114512452D01*
X45357367Y-114468549D01*
X45309821Y-114410464D01*
X45235161Y-114331716D01*
X45228882Y-114325346D01*
X45154400Y-114247370D01*
X45084363Y-114169559D01*
X45028671Y-114103124D01*
X45005768Y-114072681D01*
X44971905Y-114017911D01*
X44959828Y-113974059D01*
X44972530Y-113932415D01*
X45013007Y-113884269D01*
X45084254Y-113820910D01*
X45095619Y-113811365D01*
X45204729Y-113720013D01*
X45192620Y-113575581D01*
X45182418Y-113493128D01*
X45163644Y-113426856D01*
X45130282Y-113364941D01*
X45076315Y-113295555D01*
X45016209Y-113228815D01*
X44951287Y-113174503D01*
X44889135Y-113157004D01*
X44888150Y-113157000D01*
X44818204Y-113169377D01*
X44818204Y-113169377D01*
G37*
X44818204Y-113169377D02*
X44782036Y-113204826D01*
X44779706Y-113260824D01*
X44811271Y-113334850D01*
X44876790Y-113424381D01*
X44881800Y-113430188D01*
X44932524Y-113491042D01*
X44969981Y-113540812D01*
X44987215Y-113570145D01*
X44987633Y-113572457D01*
X44973819Y-113596419D01*
X44937189Y-113641478D01*
X44884965Y-113698902D01*
X44871217Y-113713240D01*
X44754800Y-113833434D01*
X44754800Y-113982050D01*
X44757589Y-114058228D01*
X44765068Y-114110886D01*
X44775904Y-114130666D01*
X44775967Y-114130667D01*
X44794745Y-114147811D01*
X44797133Y-114162417D01*
X44808563Y-114190584D01*
X44818300Y-114194167D01*
X44836623Y-114211497D01*
X44839467Y-114228768D01*
X44853643Y-114256160D01*
X44892407Y-114306425D01*
X44950118Y-114372805D01*
X45021131Y-114448541D01*
X45033866Y-114461601D01*
X45130228Y-114556070D01*
X45205176Y-114619587D01*
X45263342Y-114654572D01*
X45309356Y-114663446D01*
X45347848Y-114648632D01*
X45364400Y-114634433D01*
X45383248Y-114595573D01*
X45389800Y-114548655D01*
X45382470Y-114512452D01*
X45357367Y-114468549D01*
X45309821Y-114410464D01*
X45235161Y-114331716D01*
X45228882Y-114325346D01*
X45154400Y-114247370D01*
X45084363Y-114169559D01*
X45028671Y-114103124D01*
X45005768Y-114072681D01*
X44971905Y-114017911D01*
X44959828Y-113974059D01*
X44972530Y-113932415D01*
X45013007Y-113884269D01*
X45084254Y-113820910D01*
X45095619Y-113811365D01*
X45204729Y-113720013D01*
X45192620Y-113575581D01*
X45182418Y-113493128D01*
X45163644Y-113426856D01*
X45130282Y-113364941D01*
X45076315Y-113295555D01*
X45016209Y-113228815D01*
X44951287Y-113174503D01*
X44889135Y-113157004D01*
X44888150Y-113157000D01*
X44818204Y-113169377D01*
G36*
X45345198Y-113562452D02*
X45320344Y-113576082D01*
X45303239Y-113605715D01*
X45292470Y-113657009D01*
X45286622Y-113735622D01*
X45284279Y-113847214D01*
X45283967Y-113940167D01*
X45284866Y-114076707D01*
X45288401Y-114176527D01*
X45295827Y-114245215D01*
X45308402Y-114288362D01*
X45327380Y-114311556D01*
X45354019Y-114320387D01*
X45369586Y-114321167D01*
X45410183Y-114306448D01*
X45439436Y-114282458D01*
X45453366Y-114260767D01*
X45463148Y-114226992D01*
X45469458Y-114174294D01*
X45472969Y-114095829D01*
X45474356Y-113984757D01*
X45474467Y-113926858D01*
X45473570Y-113793429D01*
X45469888Y-113696567D01*
X45461932Y-113630528D01*
X45448214Y-113589566D01*
X45427246Y-113567935D01*
X45397538Y-113559890D01*
X45379217Y-113559167D01*
X45345198Y-113562452D01*
X45345198Y-113562452D01*
G37*
X45345198Y-113562452D02*
X45320344Y-113576082D01*
X45303239Y-113605715D01*
X45292470Y-113657009D01*
X45286622Y-113735622D01*
X45284279Y-113847214D01*
X45283967Y-113940167D01*
X45284866Y-114076707D01*
X45288401Y-114176527D01*
X45295827Y-114245215D01*
X45308402Y-114288362D01*
X45327380Y-114311556D01*
X45354019Y-114320387D01*
X45369586Y-114321167D01*
X45410183Y-114306448D01*
X45439436Y-114282458D01*
X45453366Y-114260767D01*
X45463148Y-114226992D01*
X45469458Y-114174294D01*
X45472969Y-114095829D01*
X45474356Y-113984757D01*
X45474467Y-113926858D01*
X45473570Y-113793429D01*
X45469888Y-113696567D01*
X45461932Y-113630528D01*
X45448214Y-113589566D01*
X45427246Y-113567935D01*
X45397538Y-113559890D01*
X45379217Y-113559167D01*
X45345198Y-113562452D01*
G36*
X38820851Y-113188750D02*
X38760992Y-113304748D01*
X38726578Y-113391321D01*
X38705297Y-113485707D01*
X38697937Y-113576613D01*
X38705286Y-113652747D01*
X38728133Y-113702819D01*
X38732883Y-113707333D01*
X38759555Y-113739033D01*
X38764633Y-113754515D01*
X38752501Y-113779239D01*
X38719823Y-113829051D01*
X38672180Y-113895728D01*
X38636337Y-113943554D01*
X38572132Y-114031607D01*
X38533200Y-114095601D01*
X38515856Y-114142357D01*
X38514628Y-114168839D01*
X38525625Y-114208163D01*
X38555313Y-114226342D01*
X38597235Y-114232286D01*
X38638885Y-114232947D01*
X38671304Y-114221891D01*
X38704654Y-114192040D01*
X38749099Y-114136312D01*
X38764350Y-114115869D01*
X38841549Y-114015530D01*
X38905644Y-113939744D01*
X38953278Y-113892230D01*
X38980260Y-113876667D01*
X38990720Y-113895540D01*
X38996823Y-113943061D01*
X38997467Y-113967683D01*
X39006912Y-114048234D01*
X39036930Y-114094247D01*
X39090043Y-114109478D01*
X39092717Y-114109500D01*
X39136385Y-114102086D01*
X39164829Y-114075440D01*
X39180897Y-114022953D01*
X39187435Y-113938017D01*
X39188026Y-113888308D01*
X39191005Y-113780879D01*
X39198797Y-113656794D01*
X39209783Y-113541241D01*
X39210989Y-113531172D01*
X39218993Y-113462185D01*
X39018633Y-113462185D01*
X39012972Y-113535293D01*
X38997873Y-113584927D01*
X38978081Y-113601500D01*
X38951216Y-113590223D01*
X38922137Y-113571246D01*
X38897033Y-113549890D01*
X38892441Y-113527928D01*
X38908260Y-113490335D01*
X38921425Y-113465413D01*
X38959491Y-113409345D01*
X38990940Y-113391311D01*
X39011910Y-113411439D01*
X39018633Y-113462185D01*
X39218993Y-113462185D01*
X39221411Y-113441349D01*
X39225020Y-113381614D01*
X39220380Y-113340064D01*
X39206053Y-113304793D01*
X39180600Y-113263900D01*
X39178278Y-113260388D01*
X39122663Y-113176348D01*
X38820851Y-113188750D01*
X38820851Y-113188750D01*
G37*
X38820851Y-113188750D02*
X38760992Y-113304748D01*
X38726578Y-113391321D01*
X38705297Y-113485707D01*
X38697937Y-113576613D01*
X38705286Y-113652747D01*
X38728133Y-113702819D01*
X38732883Y-113707333D01*
X38759555Y-113739033D01*
X38764633Y-113754515D01*
X38752501Y-113779239D01*
X38719823Y-113829051D01*
X38672180Y-113895728D01*
X38636337Y-113943554D01*
X38572132Y-114031607D01*
X38533200Y-114095601D01*
X38515856Y-114142357D01*
X38514628Y-114168839D01*
X38525625Y-114208163D01*
X38555313Y-114226342D01*
X38597235Y-114232286D01*
X38638885Y-114232947D01*
X38671304Y-114221891D01*
X38704654Y-114192040D01*
X38749099Y-114136312D01*
X38764350Y-114115869D01*
X38841549Y-114015530D01*
X38905644Y-113939744D01*
X38953278Y-113892230D01*
X38980260Y-113876667D01*
X38990720Y-113895540D01*
X38996823Y-113943061D01*
X38997467Y-113967683D01*
X39006912Y-114048234D01*
X39036930Y-114094247D01*
X39090043Y-114109478D01*
X39092717Y-114109500D01*
X39136385Y-114102086D01*
X39164829Y-114075440D01*
X39180897Y-114022953D01*
X39187435Y-113938017D01*
X39188026Y-113888308D01*
X39191005Y-113780879D01*
X39198797Y-113656794D01*
X39209783Y-113541241D01*
X39210989Y-113531172D01*
X39218993Y-113462185D01*
X39018633Y-113462185D01*
X39012972Y-113535293D01*
X38997873Y-113584927D01*
X38978081Y-113601500D01*
X38951216Y-113590223D01*
X38922137Y-113571246D01*
X38897033Y-113549890D01*
X38892441Y-113527928D01*
X38908260Y-113490335D01*
X38921425Y-113465413D01*
X38959491Y-113409345D01*
X38990940Y-113391311D01*
X39011910Y-113411439D01*
X39018633Y-113462185D01*
X39218993Y-113462185D01*
X39221411Y-113441349D01*
X39225020Y-113381614D01*
X39220380Y-113340064D01*
X39206053Y-113304793D01*
X39180600Y-113263900D01*
X39178278Y-113260388D01*
X39122663Y-113176348D01*
X38820851Y-113188750D01*
G36*
X38329914Y-113496999D02*
X38267912Y-113507223D01*
X38239700Y-113521067D01*
X38213242Y-113571844D01*
X38220138Y-113625110D01*
X38254441Y-113667615D01*
X38310208Y-113686109D01*
X38313783Y-113686167D01*
X38353992Y-113696604D01*
X38358976Y-113719580D01*
X38326165Y-113742587D01*
X38325425Y-113742850D01*
X38285372Y-113765615D01*
X38236272Y-113804123D01*
X38230175Y-113809646D01*
X38197416Y-113844958D01*
X38179851Y-113883238D01*
X38172925Y-113939060D01*
X38171967Y-113995843D01*
X38174214Y-114072302D01*
X38183308Y-114118952D01*
X38202772Y-114148186D01*
X38219010Y-114161216D01*
X38275810Y-114185016D01*
X38344442Y-114193120D01*
X38407547Y-114185346D01*
X38446167Y-114163582D01*
X38465551Y-114111473D01*
X38453283Y-114056136D01*
X38413896Y-114016310D01*
X38410092Y-114014522D01*
X38369711Y-113990472D01*
X38370986Y-113970648D01*
X38414238Y-113953124D01*
X38420675Y-113951475D01*
X38477042Y-113927192D01*
X38530008Y-113888477D01*
X38566100Y-113846641D01*
X38574133Y-113822652D01*
X38588910Y-113788892D01*
X38605883Y-113770833D01*
X38630033Y-113727462D01*
X38638114Y-113662879D01*
X38630640Y-113594823D01*
X38608125Y-113541032D01*
X38598925Y-113530697D01*
X38556754Y-113511841D01*
X38488452Y-113499687D01*
X38408133Y-113494614D01*
X38329914Y-113496999D01*
X38329914Y-113496999D01*
G37*
X38329914Y-113496999D02*
X38267912Y-113507223D01*
X38239700Y-113521067D01*
X38213242Y-113571844D01*
X38220138Y-113625110D01*
X38254441Y-113667615D01*
X38310208Y-113686109D01*
X38313783Y-113686167D01*
X38353992Y-113696604D01*
X38358976Y-113719580D01*
X38326165Y-113742587D01*
X38325425Y-113742850D01*
X38285372Y-113765615D01*
X38236272Y-113804123D01*
X38230175Y-113809646D01*
X38197416Y-113844958D01*
X38179851Y-113883238D01*
X38172925Y-113939060D01*
X38171967Y-113995843D01*
X38174214Y-114072302D01*
X38183308Y-114118952D01*
X38202772Y-114148186D01*
X38219010Y-114161216D01*
X38275810Y-114185016D01*
X38344442Y-114193120D01*
X38407547Y-114185346D01*
X38446167Y-114163582D01*
X38465551Y-114111473D01*
X38453283Y-114056136D01*
X38413896Y-114016310D01*
X38410092Y-114014522D01*
X38369711Y-113990472D01*
X38370986Y-113970648D01*
X38414238Y-113953124D01*
X38420675Y-113951475D01*
X38477042Y-113927192D01*
X38530008Y-113888477D01*
X38566100Y-113846641D01*
X38574133Y-113822652D01*
X38588910Y-113788892D01*
X38605883Y-113770833D01*
X38630033Y-113727462D01*
X38638114Y-113662879D01*
X38630640Y-113594823D01*
X38608125Y-113541032D01*
X38598925Y-113530697D01*
X38556754Y-113511841D01*
X38488452Y-113499687D01*
X38408133Y-113494614D01*
X38329914Y-113496999D01*
G36*
X38215685Y-113079747D02*
X38095180Y-113107056D01*
X38064338Y-113116632D01*
X37958282Y-113156941D01*
X37890891Y-113196942D01*
X37858586Y-113239126D01*
X37854467Y-113262833D01*
X37872140Y-113308569D01*
X37913895Y-113349074D01*
X37962835Y-113368494D01*
X37967259Y-113368667D01*
X37997617Y-113371281D01*
X38002382Y-113373958D01*
X37997227Y-113395526D01*
X37984159Y-113445794D01*
X37970883Y-113495667D01*
X37948833Y-113600861D01*
X37940548Y-113694864D01*
X37946224Y-113767944D01*
X37964533Y-113808933D01*
X38013526Y-113832520D01*
X38067262Y-113824665D01*
X38101792Y-113794822D01*
X38116384Y-113758236D01*
X38136193Y-113690836D01*
X38158254Y-113603343D01*
X38173514Y-113535575D01*
X38200408Y-113421375D01*
X38226110Y-113343318D01*
X38254375Y-113295503D01*
X38288956Y-113272029D01*
X38333608Y-113266996D01*
X38343946Y-113267672D01*
X38410418Y-113256804D01*
X38454922Y-113216790D01*
X38468300Y-113165736D01*
X38449921Y-113116215D01*
X38398237Y-113084957D01*
X38318431Y-113072591D01*
X38215685Y-113079747D01*
X38215685Y-113079747D01*
G37*
X38215685Y-113079747D02*
X38095180Y-113107056D01*
X38064338Y-113116632D01*
X37958282Y-113156941D01*
X37890891Y-113196942D01*
X37858586Y-113239126D01*
X37854467Y-113262833D01*
X37872140Y-113308569D01*
X37913895Y-113349074D01*
X37962835Y-113368494D01*
X37967259Y-113368667D01*
X37997617Y-113371281D01*
X38002382Y-113373958D01*
X37997227Y-113395526D01*
X37984159Y-113445794D01*
X37970883Y-113495667D01*
X37948833Y-113600861D01*
X37940548Y-113694864D01*
X37946224Y-113767944D01*
X37964533Y-113808933D01*
X38013526Y-113832520D01*
X38067262Y-113824665D01*
X38101792Y-113794822D01*
X38116384Y-113758236D01*
X38136193Y-113690836D01*
X38158254Y-113603343D01*
X38173514Y-113535575D01*
X38200408Y-113421375D01*
X38226110Y-113343318D01*
X38254375Y-113295503D01*
X38288956Y-113272029D01*
X38333608Y-113266996D01*
X38343946Y-113267672D01*
X38410418Y-113256804D01*
X38454922Y-113216790D01*
X38468300Y-113165736D01*
X38449921Y-113116215D01*
X38398237Y-113084957D01*
X38318431Y-113072591D01*
X38215685Y-113079747D01*
G36*
X45960233Y-111174856D02*
X45924267Y-111193032D01*
X45923615Y-111193792D01*
X45912036Y-111225739D01*
X45899511Y-111288680D01*
X45888091Y-111371381D01*
X45883982Y-111410750D01*
X45866050Y-111601250D01*
X45801833Y-111506000D01*
X45737615Y-111410750D01*
X45586632Y-111404566D01*
X45435648Y-111398383D01*
X45376635Y-111475754D01*
X45345420Y-111521689D01*
X45327452Y-111566673D01*
X45319085Y-111625073D01*
X45316674Y-111711260D01*
X45316669Y-111712113D01*
X45317253Y-111794425D01*
X45322467Y-111846098D01*
X45335676Y-111878811D01*
X45360246Y-111904239D01*
X45375477Y-111916092D01*
X45410922Y-111938132D01*
X45452996Y-111951679D01*
X45512607Y-111958660D01*
X45600665Y-111960998D01*
X45630476Y-111961083D01*
X45825714Y-111961083D01*
X45824715Y-112056333D01*
X45826286Y-112115350D01*
X45837391Y-112144430D01*
X45865160Y-112155898D01*
X45883797Y-112158461D01*
X45934913Y-112157745D01*
X45974640Y-112139491D01*
X46004717Y-112099255D01*
X46026883Y-112032591D01*
X46042877Y-111935056D01*
X46054439Y-111802204D01*
X46057786Y-111743017D01*
X45664206Y-111743017D01*
X45660421Y-111764603D01*
X45640485Y-111767887D01*
X45593499Y-111754016D01*
X45585592Y-111751276D01*
X45533620Y-111728412D01*
X45513427Y-111702294D01*
X45513339Y-111673009D01*
X45529270Y-111615773D01*
X45555806Y-111599474D01*
X45593918Y-111623827D01*
X45611913Y-111644018D01*
X45645965Y-111694366D01*
X45663578Y-111737286D01*
X45664206Y-111743017D01*
X46057786Y-111743017D01*
X46059720Y-111708826D01*
X46070098Y-111498902D01*
X46110809Y-111560659D01*
X46139107Y-111616593D01*
X46151629Y-111667063D01*
X46151661Y-111668792D01*
X46160432Y-111711496D01*
X46172967Y-111728250D01*
X46186083Y-111755795D01*
X46193508Y-111809083D01*
X46194133Y-111831099D01*
X46202713Y-111908900D01*
X46231744Y-111953435D01*
X46286161Y-111970826D01*
X46307478Y-111971667D01*
X46359295Y-111960090D01*
X46415244Y-111921245D01*
X46454363Y-111883005D01*
X46538705Y-111794344D01*
X46525120Y-111920047D01*
X46510040Y-112063198D01*
X46499950Y-112170229D01*
X46494666Y-112247034D01*
X46494006Y-112299511D01*
X46497787Y-112333554D01*
X46505828Y-112355060D01*
X46511401Y-112362970D01*
X46555468Y-112389506D01*
X46609959Y-112392236D01*
X46653321Y-112370321D01*
X46654828Y-112368542D01*
X46670015Y-112338290D01*
X46682660Y-112285860D01*
X46693216Y-112207069D01*
X46702135Y-112097733D01*
X46709871Y-111953670D01*
X46715635Y-111807135D01*
X46719743Y-111665945D01*
X46719990Y-111561544D01*
X46715183Y-111488468D01*
X46704127Y-111441257D01*
X46685627Y-111414450D01*
X46658490Y-111402585D01*
X46626633Y-111400167D01*
X46576564Y-111419787D01*
X46510945Y-111478544D01*
X46486350Y-111505989D01*
X46427993Y-111570744D01*
X46390684Y-111603471D01*
X46370522Y-111606339D01*
X46363606Y-111581523D01*
X46363467Y-111574413D01*
X46348984Y-111527179D01*
X46307595Y-111454907D01*
X46242390Y-111362430D01*
X46167515Y-111267875D01*
X46114716Y-111209252D01*
X46072737Y-111178510D01*
X46029675Y-111167808D01*
X46014838Y-111167333D01*
X45960233Y-111174856D01*
X45960233Y-111174856D01*
G37*
X45960233Y-111174856D02*
X45924267Y-111193032D01*
X45923615Y-111193792D01*
X45912036Y-111225739D01*
X45899511Y-111288680D01*
X45888091Y-111371381D01*
X45883982Y-111410750D01*
X45866050Y-111601250D01*
X45801833Y-111506000D01*
X45737615Y-111410750D01*
X45586632Y-111404566D01*
X45435648Y-111398383D01*
X45376635Y-111475754D01*
X45345420Y-111521689D01*
X45327452Y-111566673D01*
X45319085Y-111625073D01*
X45316674Y-111711260D01*
X45316669Y-111712113D01*
X45317253Y-111794425D01*
X45322467Y-111846098D01*
X45335676Y-111878811D01*
X45360246Y-111904239D01*
X45375477Y-111916092D01*
X45410922Y-111938132D01*
X45452996Y-111951679D01*
X45512607Y-111958660D01*
X45600665Y-111960998D01*
X45630476Y-111961083D01*
X45825714Y-111961083D01*
X45824715Y-112056333D01*
X45826286Y-112115350D01*
X45837391Y-112144430D01*
X45865160Y-112155898D01*
X45883797Y-112158461D01*
X45934913Y-112157745D01*
X45974640Y-112139491D01*
X46004717Y-112099255D01*
X46026883Y-112032591D01*
X46042877Y-111935056D01*
X46054439Y-111802204D01*
X46057786Y-111743017D01*
X45664206Y-111743017D01*
X45660421Y-111764603D01*
X45640485Y-111767887D01*
X45593499Y-111754016D01*
X45585592Y-111751276D01*
X45533620Y-111728412D01*
X45513427Y-111702294D01*
X45513339Y-111673009D01*
X45529270Y-111615773D01*
X45555806Y-111599474D01*
X45593918Y-111623827D01*
X45611913Y-111644018D01*
X45645965Y-111694366D01*
X45663578Y-111737286D01*
X45664206Y-111743017D01*
X46057786Y-111743017D01*
X46059720Y-111708826D01*
X46070098Y-111498902D01*
X46110809Y-111560659D01*
X46139107Y-111616593D01*
X46151629Y-111667063D01*
X46151661Y-111668792D01*
X46160432Y-111711496D01*
X46172967Y-111728250D01*
X46186083Y-111755795D01*
X46193508Y-111809083D01*
X46194133Y-111831099D01*
X46202713Y-111908900D01*
X46231744Y-111953435D01*
X46286161Y-111970826D01*
X46307478Y-111971667D01*
X46359295Y-111960090D01*
X46415244Y-111921245D01*
X46454363Y-111883005D01*
X46538705Y-111794344D01*
X46525120Y-111920047D01*
X46510040Y-112063198D01*
X46499950Y-112170229D01*
X46494666Y-112247034D01*
X46494006Y-112299511D01*
X46497787Y-112333554D01*
X46505828Y-112355060D01*
X46511401Y-112362970D01*
X46555468Y-112389506D01*
X46609959Y-112392236D01*
X46653321Y-112370321D01*
X46654828Y-112368542D01*
X46670015Y-112338290D01*
X46682660Y-112285860D01*
X46693216Y-112207069D01*
X46702135Y-112097733D01*
X46709871Y-111953670D01*
X46715635Y-111807135D01*
X46719743Y-111665945D01*
X46719990Y-111561544D01*
X46715183Y-111488468D01*
X46704127Y-111441257D01*
X46685627Y-111414450D01*
X46658490Y-111402585D01*
X46626633Y-111400167D01*
X46576564Y-111419787D01*
X46510945Y-111478544D01*
X46486350Y-111505989D01*
X46427993Y-111570744D01*
X46390684Y-111603471D01*
X46370522Y-111606339D01*
X46363606Y-111581523D01*
X46363467Y-111574413D01*
X46348984Y-111527179D01*
X46307595Y-111454907D01*
X46242390Y-111362430D01*
X46167515Y-111267875D01*
X46114716Y-111209252D01*
X46072737Y-111178510D01*
X46029675Y-111167808D01*
X46014838Y-111167333D01*
X45960233Y-111174856D01*
G36*
X44938281Y-111004740D02*
X44885822Y-111027076D01*
X44862831Y-111068181D01*
X44860633Y-111093250D01*
X44877611Y-111151238D01*
X44926867Y-111182962D01*
X44972092Y-111188500D01*
X45032462Y-111196178D01*
X45073692Y-111210411D01*
X45106176Y-111245876D01*
X45113703Y-111292517D01*
X45096229Y-111332870D01*
X45074046Y-111346696D01*
X44984867Y-111396889D01*
X44911798Y-111484622D01*
X44855862Y-111607878D01*
X44818082Y-111764643D01*
X44804193Y-111878163D01*
X44791504Y-112028275D01*
X44861386Y-112078036D01*
X44909000Y-112105517D01*
X44965904Y-112122710D01*
X45045051Y-112132749D01*
X45102326Y-112136335D01*
X45202169Y-112138502D01*
X45265874Y-112132696D01*
X45298979Y-112118392D01*
X45299842Y-112117536D01*
X45321711Y-112074714D01*
X45326300Y-112044108D01*
X45317804Y-112001379D01*
X45287533Y-111972913D01*
X45228314Y-111954653D01*
X45149447Y-111944084D01*
X45080832Y-111935580D01*
X45030742Y-111926069D01*
X45013041Y-111919463D01*
X45009939Y-111892595D01*
X45016342Y-111838188D01*
X45029500Y-111769224D01*
X45046664Y-111698683D01*
X45065082Y-111639549D01*
X45078724Y-111609412D01*
X45114343Y-111574432D01*
X45169112Y-111540826D01*
X45177937Y-111536738D01*
X45246163Y-111505745D01*
X45287338Y-111479256D01*
X45308786Y-111445643D01*
X45317834Y-111393280D01*
X45321807Y-111310540D01*
X45321894Y-111308247D01*
X45322192Y-111224705D01*
X45317257Y-111153937D01*
X45308132Y-111109804D01*
X45306751Y-111106855D01*
X45260076Y-111059286D01*
X45182772Y-111022742D01*
X45086012Y-111001551D01*
X45025710Y-110998000D01*
X44938281Y-111004740D01*
X44938281Y-111004740D01*
G37*
X44938281Y-111004740D02*
X44885822Y-111027076D01*
X44862831Y-111068181D01*
X44860633Y-111093250D01*
X44877611Y-111151238D01*
X44926867Y-111182962D01*
X44972092Y-111188500D01*
X45032462Y-111196178D01*
X45073692Y-111210411D01*
X45106176Y-111245876D01*
X45113703Y-111292517D01*
X45096229Y-111332870D01*
X45074046Y-111346696D01*
X44984867Y-111396889D01*
X44911798Y-111484622D01*
X44855862Y-111607878D01*
X44818082Y-111764643D01*
X44804193Y-111878163D01*
X44791504Y-112028275D01*
X44861386Y-112078036D01*
X44909000Y-112105517D01*
X44965904Y-112122710D01*
X45045051Y-112132749D01*
X45102326Y-112136335D01*
X45202169Y-112138502D01*
X45265874Y-112132696D01*
X45298979Y-112118392D01*
X45299842Y-112117536D01*
X45321711Y-112074714D01*
X45326300Y-112044108D01*
X45317804Y-112001379D01*
X45287533Y-111972913D01*
X45228314Y-111954653D01*
X45149447Y-111944084D01*
X45080832Y-111935580D01*
X45030742Y-111926069D01*
X45013041Y-111919463D01*
X45009939Y-111892595D01*
X45016342Y-111838188D01*
X45029500Y-111769224D01*
X45046664Y-111698683D01*
X45065082Y-111639549D01*
X45078724Y-111609412D01*
X45114343Y-111574432D01*
X45169112Y-111540826D01*
X45177937Y-111536738D01*
X45246163Y-111505745D01*
X45287338Y-111479256D01*
X45308786Y-111445643D01*
X45317834Y-111393280D01*
X45321807Y-111310540D01*
X45321894Y-111308247D01*
X45322192Y-111224705D01*
X45317257Y-111153937D01*
X45308132Y-111109804D01*
X45306751Y-111106855D01*
X45260076Y-111059286D01*
X45182772Y-111022742D01*
X45086012Y-111001551D01*
X45025710Y-110998000D01*
X44938281Y-111004740D01*
G36*
X38215350Y-110833480D02*
X38179056Y-110856031D01*
X38158538Y-110906154D01*
X38149986Y-110989919D01*
X38149129Y-111027050D01*
X38146906Y-111095432D01*
X38142555Y-111138491D01*
X38136944Y-111148402D01*
X38135905Y-111146167D01*
X38105791Y-111095907D01*
X38058466Y-111046372D01*
X38007718Y-111009985D01*
X37972215Y-110998673D01*
X37906981Y-111016409D01*
X37867097Y-111060030D01*
X37856866Y-111118690D01*
X37880587Y-111181547D01*
X37893271Y-111197719D01*
X37921554Y-111241007D01*
X37953344Y-111305478D01*
X37981685Y-111374830D01*
X37999622Y-111432760D01*
X38002533Y-111453791D01*
X37990432Y-111478426D01*
X37957930Y-111528241D01*
X37910594Y-111594980D01*
X37875533Y-111642168D01*
X37802958Y-111745994D01*
X37761040Y-111826410D01*
X37748369Y-111887645D01*
X37763532Y-111933925D01*
X37774033Y-111946267D01*
X37826776Y-111972516D01*
X37888945Y-111964221D01*
X37949556Y-111923930D01*
X37969806Y-111900877D01*
X38003682Y-111852496D01*
X38023010Y-111817233D01*
X38024660Y-111810919D01*
X38037907Y-111784479D01*
X38070337Y-111740069D01*
X38088160Y-111718466D01*
X38126179Y-111675827D01*
X38144614Y-111663348D01*
X38150436Y-111678220D01*
X38150800Y-111693245D01*
X38147613Y-111738149D01*
X38139266Y-111809238D01*
X38127852Y-111889213D01*
X38116791Y-111975685D01*
X38116411Y-112030502D01*
X38126847Y-112063006D01*
X38130444Y-112067893D01*
X38175368Y-112093332D01*
X38234820Y-112095928D01*
X38288017Y-112076192D01*
X38301667Y-112063680D01*
X38310569Y-112044796D01*
X38317558Y-112009196D01*
X38322831Y-111952599D01*
X38326586Y-111870724D01*
X38329021Y-111759294D01*
X38330332Y-111614026D01*
X38330717Y-111433972D01*
X38330717Y-110839250D01*
X38271229Y-110832429D01*
X38215350Y-110833480D01*
X38215350Y-110833480D01*
G37*
X38215350Y-110833480D02*
X38179056Y-110856031D01*
X38158538Y-110906154D01*
X38149986Y-110989919D01*
X38149129Y-111027050D01*
X38146906Y-111095432D01*
X38142555Y-111138491D01*
X38136944Y-111148402D01*
X38135905Y-111146167D01*
X38105791Y-111095907D01*
X38058466Y-111046372D01*
X38007718Y-111009985D01*
X37972215Y-110998673D01*
X37906981Y-111016409D01*
X37867097Y-111060030D01*
X37856866Y-111118690D01*
X37880587Y-111181547D01*
X37893271Y-111197719D01*
X37921554Y-111241007D01*
X37953344Y-111305478D01*
X37981685Y-111374830D01*
X37999622Y-111432760D01*
X38002533Y-111453791D01*
X37990432Y-111478426D01*
X37957930Y-111528241D01*
X37910594Y-111594980D01*
X37875533Y-111642168D01*
X37802958Y-111745994D01*
X37761040Y-111826410D01*
X37748369Y-111887645D01*
X37763532Y-111933925D01*
X37774033Y-111946267D01*
X37826776Y-111972516D01*
X37888945Y-111964221D01*
X37949556Y-111923930D01*
X37969806Y-111900877D01*
X38003682Y-111852496D01*
X38023010Y-111817233D01*
X38024660Y-111810919D01*
X38037907Y-111784479D01*
X38070337Y-111740069D01*
X38088160Y-111718466D01*
X38126179Y-111675827D01*
X38144614Y-111663348D01*
X38150436Y-111678220D01*
X38150800Y-111693245D01*
X38147613Y-111738149D01*
X38139266Y-111809238D01*
X38127852Y-111889213D01*
X38116791Y-111975685D01*
X38116411Y-112030502D01*
X38126847Y-112063006D01*
X38130444Y-112067893D01*
X38175368Y-112093332D01*
X38234820Y-112095928D01*
X38288017Y-112076192D01*
X38301667Y-112063680D01*
X38310569Y-112044796D01*
X38317558Y-112009196D01*
X38322831Y-111952599D01*
X38326586Y-111870724D01*
X38329021Y-111759294D01*
X38330332Y-111614026D01*
X38330717Y-111433972D01*
X38330717Y-110839250D01*
X38271229Y-110832429D01*
X38215350Y-110833480D01*
G36*
X38831777Y-111014996D02*
X38793714Y-111053271D01*
X38785800Y-111094891D01*
X38800201Y-111147053D01*
X38846930Y-111182111D01*
X38902335Y-111199149D01*
X39008374Y-111229622D01*
X39039800Y-111242436D01*
X39066217Y-111252059D01*
X39096052Y-111262096D01*
X39142758Y-111291410D01*
X39150908Y-111332991D01*
X39120822Y-111382353D01*
X39085225Y-111413340D01*
X39020717Y-111465632D01*
X38959347Y-111522220D01*
X38948857Y-111532976D01*
X38914118Y-111575182D01*
X38897669Y-111617104D01*
X38894435Y-111675967D01*
X38895940Y-111712605D01*
X38903299Y-111785951D01*
X38919129Y-111831278D01*
X38948862Y-111862791D01*
X38955133Y-111867401D01*
X39011597Y-111894814D01*
X39083894Y-111913659D01*
X39157452Y-111922047D01*
X39217700Y-111918090D01*
X39246175Y-111905124D01*
X39264987Y-111866139D01*
X39272633Y-111811275D01*
X39261497Y-111747001D01*
X39223548Y-111709755D01*
X39156217Y-111693081D01*
X39092717Y-111685917D01*
X39143660Y-111643583D01*
X39230335Y-111571101D01*
X39289678Y-111518373D01*
X39326867Y-111478030D01*
X39347076Y-111442705D01*
X39355480Y-111405031D01*
X39357254Y-111357641D01*
X39357267Y-111339495D01*
X39348779Y-111242377D01*
X39326220Y-111159792D01*
X39320226Y-111146640D01*
X39294737Y-111104850D01*
X39261626Y-111076809D01*
X39208659Y-111054832D01*
X39145633Y-111036938D01*
X39006595Y-111007013D01*
X38902357Y-110999638D01*
X38831777Y-111014996D01*
X38831777Y-111014996D01*
G37*
X38831777Y-111014996D02*
X38793714Y-111053271D01*
X38785800Y-111094891D01*
X38800201Y-111147053D01*
X38846930Y-111182111D01*
X38902335Y-111199149D01*
X39008374Y-111229622D01*
X39039800Y-111242436D01*
X39066217Y-111252059D01*
X39096052Y-111262096D01*
X39142758Y-111291410D01*
X39150908Y-111332991D01*
X39120822Y-111382353D01*
X39085225Y-111413340D01*
X39020717Y-111465632D01*
X38959347Y-111522220D01*
X38948857Y-111532976D01*
X38914118Y-111575182D01*
X38897669Y-111617104D01*
X38894435Y-111675967D01*
X38895940Y-111712605D01*
X38903299Y-111785951D01*
X38919129Y-111831278D01*
X38948862Y-111862791D01*
X38955133Y-111867401D01*
X39011597Y-111894814D01*
X39083894Y-111913659D01*
X39157452Y-111922047D01*
X39217700Y-111918090D01*
X39246175Y-111905124D01*
X39264987Y-111866139D01*
X39272633Y-111811275D01*
X39261497Y-111747001D01*
X39223548Y-111709755D01*
X39156217Y-111693081D01*
X39092717Y-111685917D01*
X39143660Y-111643583D01*
X39230335Y-111571101D01*
X39289678Y-111518373D01*
X39326867Y-111478030D01*
X39347076Y-111442705D01*
X39355480Y-111405031D01*
X39357254Y-111357641D01*
X39357267Y-111339495D01*
X39348779Y-111242377D01*
X39326220Y-111159792D01*
X39320226Y-111146640D01*
X39294737Y-111104850D01*
X39261626Y-111076809D01*
X39208659Y-111054832D01*
X39145633Y-111036938D01*
X39006595Y-111007013D01*
X38902357Y-110999638D01*
X38831777Y-111014996D01*
G36*
X38471719Y-111299636D02*
X38420720Y-111312279D01*
X38409033Y-111319733D01*
X38383051Y-111367659D01*
X38393021Y-111414936D01*
X38433039Y-111454594D01*
X38497197Y-111479663D01*
X38548939Y-111484833D01*
X38606542Y-111488366D01*
X38635758Y-111503805D01*
X38650274Y-111538409D01*
X38650322Y-111538603D01*
X38646675Y-111599592D01*
X38610392Y-111648416D01*
X38551159Y-111673901D01*
X38531800Y-111675333D01*
X38472934Y-111691411D01*
X38425678Y-111731107D01*
X38404882Y-111781616D01*
X38404800Y-111784844D01*
X38424141Y-111834868D01*
X38478454Y-111869633D01*
X38562175Y-111886089D01*
X38590970Y-111887000D01*
X38661191Y-111883275D01*
X38710178Y-111866389D01*
X38758567Y-111827772D01*
X38776950Y-111809772D01*
X38854178Y-111732545D01*
X38845310Y-111547072D01*
X38837567Y-111449632D01*
X38825472Y-111374413D01*
X38810607Y-111330843D01*
X38808530Y-111327966D01*
X38773419Y-111310984D01*
X38709235Y-111299393D01*
X38628924Y-111293460D01*
X38545436Y-111293452D01*
X38471719Y-111299636D01*
X38471719Y-111299636D01*
G37*
X38471719Y-111299636D02*
X38420720Y-111312279D01*
X38409033Y-111319733D01*
X38383051Y-111367659D01*
X38393021Y-111414936D01*
X38433039Y-111454594D01*
X38497197Y-111479663D01*
X38548939Y-111484833D01*
X38606542Y-111488366D01*
X38635758Y-111503805D01*
X38650274Y-111538409D01*
X38650322Y-111538603D01*
X38646675Y-111599592D01*
X38610392Y-111648416D01*
X38551159Y-111673901D01*
X38531800Y-111675333D01*
X38472934Y-111691411D01*
X38425678Y-111731107D01*
X38404882Y-111781616D01*
X38404800Y-111784844D01*
X38424141Y-111834868D01*
X38478454Y-111869633D01*
X38562175Y-111886089D01*
X38590970Y-111887000D01*
X38661191Y-111883275D01*
X38710178Y-111866389D01*
X38758567Y-111827772D01*
X38776950Y-111809772D01*
X38854178Y-111732545D01*
X38845310Y-111547072D01*
X38837567Y-111449632D01*
X38825472Y-111374413D01*
X38810607Y-111330843D01*
X38808530Y-111327966D01*
X38773419Y-111310984D01*
X38709235Y-111299393D01*
X38628924Y-111293460D01*
X38545436Y-111293452D01*
X38471719Y-111299636D01*
G36*
X44717670Y-111191817D02*
X44668848Y-111226927D01*
X44632481Y-111293184D01*
X44619124Y-111347250D01*
X44599225Y-111487231D01*
X44590515Y-111590699D01*
X44592966Y-111661963D01*
X44606553Y-111705331D01*
X44616797Y-111717318D01*
X44676357Y-111746685D01*
X44733626Y-111741046D01*
X44762731Y-111719415D01*
X44787901Y-111674138D01*
X44803203Y-111622417D01*
X44825824Y-111494081D01*
X44841590Y-111400918D01*
X44850906Y-111336392D01*
X44854175Y-111293968D01*
X44851800Y-111267114D01*
X44844187Y-111249293D01*
X44831738Y-111233971D01*
X44827497Y-111229301D01*
X44772652Y-111191421D01*
X44717670Y-111191817D01*
X44717670Y-111191817D01*
G37*
X44717670Y-111191817D02*
X44668848Y-111226927D01*
X44632481Y-111293184D01*
X44619124Y-111347250D01*
X44599225Y-111487231D01*
X44590515Y-111590699D01*
X44592966Y-111661963D01*
X44606553Y-111705331D01*
X44616797Y-111717318D01*
X44676357Y-111746685D01*
X44733626Y-111741046D01*
X44762731Y-111719415D01*
X44787901Y-111674138D01*
X44803203Y-111622417D01*
X44825824Y-111494081D01*
X44841590Y-111400918D01*
X44850906Y-111336392D01*
X44854175Y-111293968D01*
X44851800Y-111267114D01*
X44844187Y-111249293D01*
X44831738Y-111233971D01*
X44827497Y-111229301D01*
X44772652Y-111191421D01*
X44717670Y-111191817D01*
G36*
X38598758Y-108320477D02*
X38555558Y-108338540D01*
X38535454Y-108370436D01*
X38531800Y-108403442D01*
X38542767Y-108453970D01*
X38579572Y-108484546D01*
X38648068Y-108498516D01*
X38701321Y-108500333D01*
X38787944Y-108503453D01*
X38842484Y-108517535D01*
X38869980Y-108549662D01*
X38875473Y-108606919D01*
X38864002Y-108696389D01*
X38859437Y-108722583D01*
X38843127Y-108830625D01*
X38829769Y-108951144D01*
X38819702Y-109076104D01*
X38813261Y-109197469D01*
X38810784Y-109307202D01*
X38812607Y-109397268D01*
X38819067Y-109459629D01*
X38827541Y-109483869D01*
X38869933Y-109508813D01*
X38926757Y-109515221D01*
X38977025Y-109502328D01*
X38992034Y-109489875D01*
X39001741Y-109458902D01*
X39011840Y-109395505D01*
X39021008Y-109309560D01*
X39026818Y-109230583D01*
X39036694Y-109103619D01*
X39051306Y-108962149D01*
X39068129Y-108829531D01*
X39075455Y-108780792D01*
X39110225Y-108563833D01*
X39240112Y-108563833D01*
X39314875Y-108559847D01*
X39372098Y-108549411D01*
X39395400Y-108538433D01*
X39416910Y-108495078D01*
X39417821Y-108443092D01*
X39398300Y-108404006D01*
X39394342Y-108401041D01*
X39358591Y-108389169D01*
X39289391Y-108375200D01*
X39195498Y-108360326D01*
X39085668Y-108345741D01*
X38968657Y-108332639D01*
X38853222Y-108322212D01*
X38779235Y-108317211D01*
X38671251Y-108314088D01*
X38598758Y-108320477D01*
X38598758Y-108320477D01*
G37*
X38598758Y-108320477D02*
X38555558Y-108338540D01*
X38535454Y-108370436D01*
X38531800Y-108403442D01*
X38542767Y-108453970D01*
X38579572Y-108484546D01*
X38648068Y-108498516D01*
X38701321Y-108500333D01*
X38787944Y-108503453D01*
X38842484Y-108517535D01*
X38869980Y-108549662D01*
X38875473Y-108606919D01*
X38864002Y-108696389D01*
X38859437Y-108722583D01*
X38843127Y-108830625D01*
X38829769Y-108951144D01*
X38819702Y-109076104D01*
X38813261Y-109197469D01*
X38810784Y-109307202D01*
X38812607Y-109397268D01*
X38819067Y-109459629D01*
X38827541Y-109483869D01*
X38869933Y-109508813D01*
X38926757Y-109515221D01*
X38977025Y-109502328D01*
X38992034Y-109489875D01*
X39001741Y-109458902D01*
X39011840Y-109395505D01*
X39021008Y-109309560D01*
X39026818Y-109230583D01*
X39036694Y-109103619D01*
X39051306Y-108962149D01*
X39068129Y-108829531D01*
X39075455Y-108780792D01*
X39110225Y-108563833D01*
X39240112Y-108563833D01*
X39314875Y-108559847D01*
X39372098Y-108549411D01*
X39395400Y-108538433D01*
X39416910Y-108495078D01*
X39417821Y-108443092D01*
X39398300Y-108404006D01*
X39394342Y-108401041D01*
X39358591Y-108389169D01*
X39289391Y-108375200D01*
X39195498Y-108360326D01*
X39085668Y-108345741D01*
X38968657Y-108332639D01*
X38853222Y-108322212D01*
X38779235Y-108317211D01*
X38671251Y-108314088D01*
X38598758Y-108320477D01*
G36*
X38595609Y-108671128D02*
X38520864Y-108706833D01*
X38498650Y-108722216D01*
X38422897Y-108779995D01*
X38375443Y-108735414D01*
X38315318Y-108699490D01*
X38257251Y-108696984D01*
X38209042Y-108720771D01*
X38178489Y-108763726D01*
X38173391Y-108818721D01*
X38201548Y-108878633D01*
X38209008Y-108887476D01*
X38232422Y-108918362D01*
X38226032Y-108939556D01*
X38193634Y-108963226D01*
X38093615Y-109037255D01*
X38031516Y-109103609D01*
X38004403Y-109165712D01*
X38002633Y-109186209D01*
X38014130Y-109259178D01*
X38047106Y-109296965D01*
X38099291Y-109299432D01*
X38168417Y-109266442D01*
X38248747Y-109201154D01*
X38357278Y-109098469D01*
X38441009Y-109238609D01*
X38504292Y-109329752D01*
X38561098Y-109379806D01*
X38612408Y-109389352D01*
X38653657Y-109364843D01*
X38677222Y-109313264D01*
X38675477Y-109237940D01*
X38649627Y-109148127D01*
X38616458Y-109079142D01*
X38552950Y-108966612D01*
X38632333Y-108918050D01*
X38692274Y-108882117D01*
X38743686Y-108852496D01*
X38754050Y-108846817D01*
X38789809Y-108806682D01*
X38803735Y-108748290D01*
X38792468Y-108691476D01*
X38782870Y-108676720D01*
X38739079Y-108654076D01*
X38672503Y-108652877D01*
X38595609Y-108671128D01*
X38595609Y-108671128D01*
G37*
X38595609Y-108671128D02*
X38520864Y-108706833D01*
X38498650Y-108722216D01*
X38422897Y-108779995D01*
X38375443Y-108735414D01*
X38315318Y-108699490D01*
X38257251Y-108696984D01*
X38209042Y-108720771D01*
X38178489Y-108763726D01*
X38173391Y-108818721D01*
X38201548Y-108878633D01*
X38209008Y-108887476D01*
X38232422Y-108918362D01*
X38226032Y-108939556D01*
X38193634Y-108963226D01*
X38093615Y-109037255D01*
X38031516Y-109103609D01*
X38004403Y-109165712D01*
X38002633Y-109186209D01*
X38014130Y-109259178D01*
X38047106Y-109296965D01*
X38099291Y-109299432D01*
X38168417Y-109266442D01*
X38248747Y-109201154D01*
X38357278Y-109098469D01*
X38441009Y-109238609D01*
X38504292Y-109329752D01*
X38561098Y-109379806D01*
X38612408Y-109389352D01*
X38653657Y-109364843D01*
X38677222Y-109313264D01*
X38675477Y-109237940D01*
X38649627Y-109148127D01*
X38616458Y-109079142D01*
X38552950Y-108966612D01*
X38632333Y-108918050D01*
X38692274Y-108882117D01*
X38743686Y-108852496D01*
X38754050Y-108846817D01*
X38789809Y-108806682D01*
X38803735Y-108748290D01*
X38792468Y-108691476D01*
X38782870Y-108676720D01*
X38739079Y-108654076D01*
X38672503Y-108652877D01*
X38595609Y-108671128D01*
G36*
X39330461Y-106976673D02*
X39248028Y-106978750D01*
X39188836Y-106984156D01*
X39143341Y-106994478D01*
X39101998Y-107011307D01*
X39055261Y-107036232D01*
X39042377Y-107043484D01*
X38956710Y-107096593D01*
X38866897Y-107159478D01*
X38820537Y-107195552D01*
X38717690Y-107280468D01*
X38727486Y-107482942D01*
X38737227Y-107607545D01*
X38755699Y-107701025D01*
X38787654Y-107774408D01*
X38837843Y-107838717D01*
X38908482Y-107902888D01*
X39018141Y-107980628D01*
X39128188Y-108029060D01*
X39248818Y-108050530D01*
X39390225Y-108047385D01*
X39484300Y-108035437D01*
X39550183Y-108017852D01*
X39633549Y-107985464D01*
X39722555Y-107944125D01*
X39805359Y-107899689D01*
X39870116Y-107858009D01*
X39902342Y-107828832D01*
X39915424Y-107789966D01*
X39924018Y-107713059D01*
X39928264Y-107596480D01*
X39928800Y-107521570D01*
X39927098Y-107389547D01*
X39920262Y-107290524D01*
X39905697Y-107215241D01*
X39880809Y-107154441D01*
X39843004Y-107098867D01*
X39795278Y-107045125D01*
X39729996Y-106976333D01*
X39445683Y-106976333D01*
X39330461Y-106976673D01*
X39330461Y-106976673D01*
G37*
X39330461Y-106976673D02*
X39248028Y-106978750D01*
X39188836Y-106984156D01*
X39143341Y-106994478D01*
X39101998Y-107011307D01*
X39055261Y-107036232D01*
X39042377Y-107043484D01*
X38956710Y-107096593D01*
X38866897Y-107159478D01*
X38820537Y-107195552D01*
X38717690Y-107280468D01*
X38727486Y-107482942D01*
X38737227Y-107607545D01*
X38755699Y-107701025D01*
X38787654Y-107774408D01*
X38837843Y-107838717D01*
X38908482Y-107902888D01*
X39018141Y-107980628D01*
X39128188Y-108029060D01*
X39248818Y-108050530D01*
X39390225Y-108047385D01*
X39484300Y-108035437D01*
X39550183Y-108017852D01*
X39633549Y-107985464D01*
X39722555Y-107944125D01*
X39805359Y-107899689D01*
X39870116Y-107858009D01*
X39902342Y-107828832D01*
X39915424Y-107789966D01*
X39924018Y-107713059D01*
X39928264Y-107596480D01*
X39928800Y-107521570D01*
X39927098Y-107389547D01*
X39920262Y-107290524D01*
X39905697Y-107215241D01*
X39880809Y-107154441D01*
X39843004Y-107098867D01*
X39795278Y-107045125D01*
X39729996Y-106976333D01*
X39445683Y-106976333D01*
X39330461Y-106976673D01*
G36*
X43200000Y-106472891D02*
X43170100Y-106490131D01*
X43149207Y-106525405D01*
X43135793Y-106584064D01*
X43128333Y-106671458D01*
X43125300Y-106792938D01*
X43124967Y-106873225D01*
X43126112Y-106987515D01*
X43129270Y-107087098D01*
X43134025Y-107164168D01*
X43139961Y-107210922D01*
X43143504Y-107220808D01*
X43156511Y-107252007D01*
X43169580Y-107309927D01*
X43175983Y-107352042D01*
X43189925Y-107463167D01*
X42992346Y-107463167D01*
X42883905Y-107466072D01*
X42808364Y-107474446D01*
X42770212Y-107487779D01*
X42769367Y-107488566D01*
X42747235Y-107534313D01*
X42748308Y-107588759D01*
X42770425Y-107627572D01*
X42800610Y-107636709D01*
X42864227Y-107646386D01*
X42952406Y-107655535D01*
X43056276Y-107663086D01*
X43072992Y-107664032D01*
X43187955Y-107669672D01*
X43268043Y-107671590D01*
X43320587Y-107669322D01*
X43352920Y-107662402D01*
X43372372Y-107650365D01*
X43377633Y-107644690D01*
X43392216Y-107600458D01*
X43395601Y-107518637D01*
X43387920Y-107402428D01*
X43369305Y-107255031D01*
X43358817Y-107188000D01*
X43351275Y-107120919D01*
X43344868Y-107024428D01*
X43340275Y-106911451D01*
X43338179Y-106795358D01*
X43336282Y-106670275D01*
X43331014Y-106581464D01*
X43320573Y-106522896D01*
X43303156Y-106488539D01*
X43276960Y-106472362D01*
X43240431Y-106468333D01*
X43200000Y-106472891D01*
X43200000Y-106472891D01*
G37*
X43200000Y-106472891D02*
X43170100Y-106490131D01*
X43149207Y-106525405D01*
X43135793Y-106584064D01*
X43128333Y-106671458D01*
X43125300Y-106792938D01*
X43124967Y-106873225D01*
X43126112Y-106987515D01*
X43129270Y-107087098D01*
X43134025Y-107164168D01*
X43139961Y-107210922D01*
X43143504Y-107220808D01*
X43156511Y-107252007D01*
X43169580Y-107309927D01*
X43175983Y-107352042D01*
X43189925Y-107463167D01*
X42992346Y-107463167D01*
X42883905Y-107466072D01*
X42808364Y-107474446D01*
X42770212Y-107487779D01*
X42769367Y-107488566D01*
X42747235Y-107534313D01*
X42748308Y-107588759D01*
X42770425Y-107627572D01*
X42800610Y-107636709D01*
X42864227Y-107646386D01*
X42952406Y-107655535D01*
X43056276Y-107663086D01*
X43072992Y-107664032D01*
X43187955Y-107669672D01*
X43268043Y-107671590D01*
X43320587Y-107669322D01*
X43352920Y-107662402D01*
X43372372Y-107650365D01*
X43377633Y-107644690D01*
X43392216Y-107600458D01*
X43395601Y-107518637D01*
X43387920Y-107402428D01*
X43369305Y-107255031D01*
X43358817Y-107188000D01*
X43351275Y-107120919D01*
X43344868Y-107024428D01*
X43340275Y-106911451D01*
X43338179Y-106795358D01*
X43336282Y-106670275D01*
X43331014Y-106581464D01*
X43320573Y-106522896D01*
X43303156Y-106488539D01*
X43276960Y-106472362D01*
X43240431Y-106468333D01*
X43200000Y-106472891D01*
G36*
X41370335Y-106517437D02*
X41352177Y-106520370D01*
X41301771Y-106532642D01*
X41262623Y-106555262D01*
X41223562Y-106597220D01*
X41178300Y-106660342D01*
X41136297Y-106723799D01*
X41105832Y-106773492D01*
X41093043Y-106799370D01*
X41092967Y-106800105D01*
X41080223Y-106825108D01*
X41053632Y-106858552D01*
X41024159Y-106904420D01*
X40993729Y-106971570D01*
X40980801Y-107008083D01*
X40925141Y-107188003D01*
X40884074Y-107332026D01*
X40857397Y-107443921D01*
X40844909Y-107527457D01*
X40846408Y-107586400D01*
X40861691Y-107624519D01*
X40890557Y-107645582D01*
X40932803Y-107653357D01*
X40946192Y-107653667D01*
X41010133Y-107634695D01*
X41038850Y-107606623D01*
X41063822Y-107560159D01*
X41071800Y-107528637D01*
X41077268Y-107492324D01*
X41091393Y-107430744D01*
X41105580Y-107377305D01*
X41139359Y-107256916D01*
X41243667Y-107244562D01*
X41309902Y-107234196D01*
X41360064Y-107221850D01*
X41373929Y-107215991D01*
X41423025Y-107197291D01*
X41453740Y-107216129D01*
X41465168Y-107248072D01*
X41502668Y-107369311D01*
X41565895Y-107496062D01*
X41587451Y-107531958D01*
X41627955Y-107591471D01*
X41661816Y-107621810D01*
X41700614Y-107632012D01*
X41716314Y-107632500D01*
X41784987Y-107622875D01*
X41822469Y-107592291D01*
X41829279Y-107538183D01*
X41805937Y-107457985D01*
X41768007Y-107377348D01*
X41730693Y-107300364D01*
X41699999Y-107227637D01*
X41684767Y-107182423D01*
X41671599Y-107129930D01*
X41652026Y-107050984D01*
X41629682Y-106960258D01*
X41623243Y-106934000D01*
X41617610Y-106912397D01*
X41372668Y-106912397D01*
X41372619Y-106962907D01*
X41354283Y-106987356D01*
X41315217Y-106999550D01*
X41257195Y-107011937D01*
X41229370Y-107014902D01*
X41220648Y-107008352D01*
X41219967Y-106998749D01*
X41235322Y-106970000D01*
X41240567Y-106966100D01*
X41262399Y-106939980D01*
X41290332Y-106891483D01*
X41296482Y-106878949D01*
X41325996Y-106831490D01*
X41349221Y-106825713D01*
X41365544Y-106861347D01*
X41372668Y-106912397D01*
X41617610Y-106912397D01*
X41600726Y-106847657D01*
X41579045Y-106773984D01*
X41561867Y-106725149D01*
X41557599Y-106716181D01*
X41544401Y-106677957D01*
X41546456Y-106661413D01*
X41540577Y-106636384D01*
X41513436Y-106593509D01*
X41498800Y-106574979D01*
X41458068Y-106531370D01*
X41421938Y-106514682D01*
X41370335Y-106517437D01*
X41370335Y-106517437D01*
G37*
X41370335Y-106517437D02*
X41352177Y-106520370D01*
X41301771Y-106532642D01*
X41262623Y-106555262D01*
X41223562Y-106597220D01*
X41178300Y-106660342D01*
X41136297Y-106723799D01*
X41105832Y-106773492D01*
X41093043Y-106799370D01*
X41092967Y-106800105D01*
X41080223Y-106825108D01*
X41053632Y-106858552D01*
X41024159Y-106904420D01*
X40993729Y-106971570D01*
X40980801Y-107008083D01*
X40925141Y-107188003D01*
X40884074Y-107332026D01*
X40857397Y-107443921D01*
X40844909Y-107527457D01*
X40846408Y-107586400D01*
X40861691Y-107624519D01*
X40890557Y-107645582D01*
X40932803Y-107653357D01*
X40946192Y-107653667D01*
X41010133Y-107634695D01*
X41038850Y-107606623D01*
X41063822Y-107560159D01*
X41071800Y-107528637D01*
X41077268Y-107492324D01*
X41091393Y-107430744D01*
X41105580Y-107377305D01*
X41139359Y-107256916D01*
X41243667Y-107244562D01*
X41309902Y-107234196D01*
X41360064Y-107221850D01*
X41373929Y-107215991D01*
X41423025Y-107197291D01*
X41453740Y-107216129D01*
X41465168Y-107248072D01*
X41502668Y-107369311D01*
X41565895Y-107496062D01*
X41587451Y-107531958D01*
X41627955Y-107591471D01*
X41661816Y-107621810D01*
X41700614Y-107632012D01*
X41716314Y-107632500D01*
X41784987Y-107622875D01*
X41822469Y-107592291D01*
X41829279Y-107538183D01*
X41805937Y-107457985D01*
X41768007Y-107377348D01*
X41730693Y-107300364D01*
X41699999Y-107227637D01*
X41684767Y-107182423D01*
X41671599Y-107129930D01*
X41652026Y-107050984D01*
X41629682Y-106960258D01*
X41623243Y-106934000D01*
X41617610Y-106912397D01*
X41372668Y-106912397D01*
X41372619Y-106962907D01*
X41354283Y-106987356D01*
X41315217Y-106999550D01*
X41257195Y-107011937D01*
X41229370Y-107014902D01*
X41220648Y-107008352D01*
X41219967Y-106998749D01*
X41235322Y-106970000D01*
X41240567Y-106966100D01*
X41262399Y-106939980D01*
X41290332Y-106891483D01*
X41296482Y-106878949D01*
X41325996Y-106831490D01*
X41349221Y-106825713D01*
X41365544Y-106861347D01*
X41372668Y-106912397D01*
X41617610Y-106912397D01*
X41600726Y-106847657D01*
X41579045Y-106773984D01*
X41561867Y-106725149D01*
X41557599Y-106716181D01*
X41544401Y-106677957D01*
X41546456Y-106661413D01*
X41540577Y-106636384D01*
X41513436Y-106593509D01*
X41498800Y-106574979D01*
X41458068Y-106531370D01*
X41421938Y-106514682D01*
X41370335Y-106517437D01*
G36*
X40202801Y-106619030D02*
X40155286Y-106631559D01*
X40113823Y-106661489D01*
X40078981Y-106696471D01*
X40037578Y-106742898D01*
X40015164Y-106782050D01*
X40006434Y-106829784D01*
X40006079Y-106901955D01*
X40006358Y-106913429D01*
X40009767Y-106989683D01*
X40015175Y-107051510D01*
X40020586Y-107082167D01*
X40031174Y-107120150D01*
X40046478Y-107182524D01*
X40056206Y-107224796D01*
X40078291Y-107299063D01*
X40106581Y-107363599D01*
X40121352Y-107386885D01*
X40149959Y-107429037D01*
X40161633Y-107457524D01*
X40175688Y-107484315D01*
X40209600Y-107522012D01*
X40210623Y-107522977D01*
X40241079Y-107546231D01*
X40278796Y-107560139D01*
X40334891Y-107566964D01*
X40420483Y-107568974D01*
X40436501Y-107569000D01*
X40613390Y-107569000D01*
X40705012Y-107473378D01*
X40796633Y-107377756D01*
X40796633Y-107153525D01*
X40606133Y-107153525D01*
X40603310Y-107224262D01*
X40590614Y-107269374D01*
X40561708Y-107305423D01*
X40541009Y-107323702D01*
X40489328Y-107355830D01*
X40432989Y-107374742D01*
X40384254Y-107378488D01*
X40355386Y-107365120D01*
X40352133Y-107353708D01*
X40339058Y-107319276D01*
X40320241Y-107293676D01*
X40300335Y-107257314D01*
X40275775Y-107192022D01*
X40251075Y-107110200D01*
X40244896Y-107086601D01*
X40220776Y-106978635D01*
X40214196Y-106904934D01*
X40227587Y-106860216D01*
X40263380Y-106839203D01*
X40324006Y-106836613D01*
X40358485Y-106839868D01*
X40426138Y-106848666D01*
X40477782Y-106856962D01*
X40494052Y-106860592D01*
X40528675Y-106890142D01*
X40561588Y-106949874D01*
X40588181Y-107027737D01*
X40603841Y-107111682D01*
X40606133Y-107153525D01*
X40796633Y-107153525D01*
X40796633Y-107149650D01*
X40795997Y-107047295D01*
X40792551Y-106975811D01*
X40783988Y-106923735D01*
X40768003Y-106879609D01*
X40742287Y-106831971D01*
X40727842Y-106807847D01*
X40686650Y-106745441D01*
X40649166Y-106698234D01*
X40627300Y-106678977D01*
X40556426Y-106654735D01*
X40460289Y-106634254D01*
X40355954Y-106620555D01*
X40274469Y-106616500D01*
X40202801Y-106619030D01*
X40202801Y-106619030D01*
G37*
X40202801Y-106619030D02*
X40155286Y-106631559D01*
X40113823Y-106661489D01*
X40078981Y-106696471D01*
X40037578Y-106742898D01*
X40015164Y-106782050D01*
X40006434Y-106829784D01*
X40006079Y-106901955D01*
X40006358Y-106913429D01*
X40009767Y-106989683D01*
X40015175Y-107051510D01*
X40020586Y-107082167D01*
X40031174Y-107120150D01*
X40046478Y-107182524D01*
X40056206Y-107224796D01*
X40078291Y-107299063D01*
X40106581Y-107363599D01*
X40121352Y-107386885D01*
X40149959Y-107429037D01*
X40161633Y-107457524D01*
X40175688Y-107484315D01*
X40209600Y-107522012D01*
X40210623Y-107522977D01*
X40241079Y-107546231D01*
X40278796Y-107560139D01*
X40334891Y-107566964D01*
X40420483Y-107568974D01*
X40436501Y-107569000D01*
X40613390Y-107569000D01*
X40705012Y-107473378D01*
X40796633Y-107377756D01*
X40796633Y-107153525D01*
X40606133Y-107153525D01*
X40603310Y-107224262D01*
X40590614Y-107269374D01*
X40561708Y-107305423D01*
X40541009Y-107323702D01*
X40489328Y-107355830D01*
X40432989Y-107374742D01*
X40384254Y-107378488D01*
X40355386Y-107365120D01*
X40352133Y-107353708D01*
X40339058Y-107319276D01*
X40320241Y-107293676D01*
X40300335Y-107257314D01*
X40275775Y-107192022D01*
X40251075Y-107110200D01*
X40244896Y-107086601D01*
X40220776Y-106978635D01*
X40214196Y-106904934D01*
X40227587Y-106860216D01*
X40263380Y-106839203D01*
X40324006Y-106836613D01*
X40358485Y-106839868D01*
X40426138Y-106848666D01*
X40477782Y-106856962D01*
X40494052Y-106860592D01*
X40528675Y-106890142D01*
X40561588Y-106949874D01*
X40588181Y-107027737D01*
X40603841Y-107111682D01*
X40606133Y-107153525D01*
X40796633Y-107153525D01*
X40796633Y-107149650D01*
X40795997Y-107047295D01*
X40792551Y-106975811D01*
X40783988Y-106923735D01*
X40768003Y-106879609D01*
X40742287Y-106831971D01*
X40727842Y-106807847D01*
X40686650Y-106745441D01*
X40649166Y-106698234D01*
X40627300Y-106678977D01*
X40556426Y-106654735D01*
X40460289Y-106634254D01*
X40355954Y-106620555D01*
X40274469Y-106616500D01*
X40202801Y-106619030D01*
G36*
X42016223Y-106602092D02*
X41962774Y-106613813D01*
X41932862Y-106635635D01*
X41920285Y-106669598D01*
X41918467Y-106699525D01*
X41924364Y-106747878D01*
X41946671Y-106779488D01*
X41992311Y-106797653D01*
X42068206Y-106805666D01*
X42144232Y-106807000D01*
X42250721Y-106811265D01*
X42338863Y-106822990D01*
X42388707Y-106837205D01*
X42448836Y-106862816D01*
X42498906Y-106883323D01*
X42500550Y-106883968D01*
X42502527Y-106892758D01*
X42464281Y-106901061D01*
X42387922Y-106908528D01*
X42331217Y-106912110D01*
X42229862Y-106918338D01*
X42158963Y-106926370D01*
X42106689Y-106940012D01*
X42061208Y-106963069D01*
X42010691Y-106999346D01*
X41976675Y-107026151D01*
X41926899Y-107070918D01*
X41903668Y-107112335D01*
X41897377Y-107169077D01*
X41897300Y-107180471D01*
X41904972Y-107245709D01*
X41932381Y-107290824D01*
X41986116Y-107320750D01*
X42072766Y-107340420D01*
X42119284Y-107346659D01*
X42214618Y-107362410D01*
X42319167Y-107386230D01*
X42373284Y-107401544D01*
X42469249Y-107428655D01*
X42536438Y-107438997D01*
X42584753Y-107433007D01*
X42622258Y-107412535D01*
X42655176Y-107365968D01*
X42649257Y-107309948D01*
X42605135Y-107250328D01*
X42604678Y-107249898D01*
X42567915Y-107217873D01*
X42547541Y-107204920D01*
X42546470Y-107205363D01*
X42526652Y-107203461D01*
X42483554Y-107189578D01*
X42480855Y-107188559D01*
X42418732Y-107170272D01*
X42343512Y-107154864D01*
X42327397Y-107152444D01*
X42262113Y-107140522D01*
X42236687Y-107128926D01*
X42248647Y-107118536D01*
X42295521Y-107110230D01*
X42374838Y-107104888D01*
X42465520Y-107103333D01*
X42583983Y-107101266D01*
X42666564Y-107092567D01*
X42719614Y-107073494D01*
X42749485Y-107040301D01*
X42762529Y-106989245D01*
X42765133Y-106926731D01*
X42759380Y-106855871D01*
X42736157Y-106801750D01*
X42695438Y-106751494D01*
X42634500Y-106694962D01*
X42565874Y-106654332D01*
X42481115Y-106626935D01*
X42371779Y-106610103D01*
X42229420Y-106601166D01*
X42218544Y-106600785D01*
X42099412Y-106598430D01*
X42016223Y-106602092D01*
X42016223Y-106602092D01*
G37*
X42016223Y-106602092D02*
X41962774Y-106613813D01*
X41932862Y-106635635D01*
X41920285Y-106669598D01*
X41918467Y-106699525D01*
X41924364Y-106747878D01*
X41946671Y-106779488D01*
X41992311Y-106797653D01*
X42068206Y-106805666D01*
X42144232Y-106807000D01*
X42250721Y-106811265D01*
X42338863Y-106822990D01*
X42388707Y-106837205D01*
X42448836Y-106862816D01*
X42498906Y-106883323D01*
X42500550Y-106883968D01*
X42502527Y-106892758D01*
X42464281Y-106901061D01*
X42387922Y-106908528D01*
X42331217Y-106912110D01*
X42229862Y-106918338D01*
X42158963Y-106926370D01*
X42106689Y-106940012D01*
X42061208Y-106963069D01*
X42010691Y-106999346D01*
X41976675Y-107026151D01*
X41926899Y-107070918D01*
X41903668Y-107112335D01*
X41897377Y-107169077D01*
X41897300Y-107180471D01*
X41904972Y-107245709D01*
X41932381Y-107290824D01*
X41986116Y-107320750D01*
X42072766Y-107340420D01*
X42119284Y-107346659D01*
X42214618Y-107362410D01*
X42319167Y-107386230D01*
X42373284Y-107401544D01*
X42469249Y-107428655D01*
X42536438Y-107438997D01*
X42584753Y-107433007D01*
X42622258Y-107412535D01*
X42655176Y-107365968D01*
X42649257Y-107309948D01*
X42605135Y-107250328D01*
X42604678Y-107249898D01*
X42567915Y-107217873D01*
X42547541Y-107204920D01*
X42546470Y-107205363D01*
X42526652Y-107203461D01*
X42483554Y-107189578D01*
X42480855Y-107188559D01*
X42418732Y-107170272D01*
X42343512Y-107154864D01*
X42327397Y-107152444D01*
X42262113Y-107140522D01*
X42236687Y-107128926D01*
X42248647Y-107118536D01*
X42295521Y-107110230D01*
X42374838Y-107104888D01*
X42465520Y-107103333D01*
X42583983Y-107101266D01*
X42666564Y-107092567D01*
X42719614Y-107073494D01*
X42749485Y-107040301D01*
X42762529Y-106989245D01*
X42765133Y-106926731D01*
X42759380Y-106855871D01*
X42736157Y-106801750D01*
X42695438Y-106751494D01*
X42634500Y-106694962D01*
X42565874Y-106654332D01*
X42481115Y-106626935D01*
X42371779Y-106610103D01*
X42229420Y-106601166D01*
X42218544Y-106600785D01*
X42099412Y-106598430D01*
X42016223Y-106602092D01*
D15*
X50117800Y-139496600D02*
X50117800Y-138846600D01*
X50117800Y-138846600D02*
X43617800Y-138846600D01*
X43617800Y-138846600D02*
X43617800Y-139496600D01*
X50117800Y-144996600D02*
X50117800Y-145646600D01*
X50117800Y-145646600D02*
X43617800Y-145646600D01*
X43617800Y-145646600D02*
X43617800Y-144996600D01*
X50117800Y-143496600D02*
X50117800Y-140996600D01*
X43617800Y-143496600D02*
X43617800Y-140996600D01*
D12*
X47880000Y-102750000D02*
X47880000Y-109050000D01*
X47880000Y-109050000D02*
X54180000Y-109050000D01*
X54180000Y-109050000D02*
X54180000Y-102750000D01*
X54180000Y-102750000D02*
X47880000Y-102750000D01*
D16*
X47230000Y-101300000D02*
G75*
G03X47230000Y-101300000I-200000J0D01*
G01*
D15*
X45830000Y-85030000D02*
X45830000Y-84030000D01*
X47530000Y-84030000D02*
X47530000Y-85030000D01*
X51490000Y-96310000D02*
X51490000Y-97510000D01*
X53250000Y-97510000D02*
X53250000Y-96310000D01*
X43140000Y-83940000D02*
X43140000Y-85140000D01*
X44900000Y-85140000D02*
X44900000Y-83940000D01*
X41880000Y-101170000D02*
X41880000Y-102370000D01*
X43640000Y-102370000D02*
X43640000Y-101170000D01*
X73150000Y-83970000D02*
X73150000Y-85170000D01*
X74910000Y-85170000D02*
X74910000Y-83970000D01*
X50180000Y-94640000D02*
X50180000Y-99140000D01*
X50180000Y-99140000D02*
X44780000Y-99140000D01*
D17*
X59280000Y-73676000D02*
X57121000Y-73803000D01*
X57121000Y-73803000D02*
X55343000Y-74184000D01*
X55343000Y-74184000D02*
X53565000Y-74819000D01*
X53565000Y-74819000D02*
X52168000Y-75454000D01*
X52168000Y-75454000D02*
X50771000Y-76343000D01*
X50771000Y-76343000D02*
X49628000Y-77232000D01*
X49628000Y-77232000D02*
X49120000Y-77359000D01*
X69440000Y-77359000D02*
X68932000Y-77232000D01*
X68932000Y-77232000D02*
X67789000Y-76343000D01*
X67789000Y-76343000D02*
X66392000Y-75454000D01*
X66392000Y-75454000D02*
X64995000Y-74819000D01*
X64995000Y-74819000D02*
X63217000Y-74184000D01*
X63217000Y-74184000D02*
X61439000Y-73803000D01*
X61439000Y-73803000D02*
X59280000Y-73676000D01*
X49120000Y-77359000D02*
G75*
G02X46580000Y-74819000I0J2540000D01*
G01*
X71980000Y-74819000D02*
G75*
G02X69440000Y-77359000I-2540000J0D01*
G01*
X51583800Y-55515000D02*
X46580000Y-60645800D01*
X46580000Y-60645800D02*
X46580000Y-74793600D01*
X66976200Y-55515000D02*
X71980000Y-60645800D01*
X71980000Y-60645800D02*
X71980000Y-74793600D01*
X66976200Y-54702200D02*
X66976200Y-55515000D01*
X51583800Y-54702200D02*
X51583800Y-55515000D01*
X66976200Y-54702200D02*
X51583800Y-54702200D01*
D15*
X74900000Y-90840000D02*
X74900000Y-89640000D01*
X73140000Y-89640000D02*
X73140000Y-90840000D01*
X44920000Y-90830000D02*
X44920000Y-89630000D01*
X43160000Y-89630000D02*
X43160000Y-90830000D01*
X71250000Y-51920000D02*
X71450000Y-51920000D01*
X68450000Y-47780000D02*
X68650000Y-47570000D01*
X69750000Y-47780000D02*
X69550000Y-47570000D01*
X68450000Y-49070000D02*
X68450000Y-47780000D01*
X68650000Y-47570000D02*
X69550000Y-47570000D01*
X69750000Y-47780000D02*
X69750000Y-49070000D01*
X67000000Y-49070000D02*
X72700000Y-49070000D01*
X68250000Y-51920000D02*
X69950000Y-51920000D01*
X66400000Y-50870000D02*
X66400000Y-50080000D01*
X73300000Y-50080000D02*
X73300000Y-50870000D01*
X61760800Y-109185600D02*
X62960800Y-109185600D01*
X62960800Y-107425600D02*
X61760800Y-107425600D01*
X67983800Y-109236400D02*
X69183800Y-109236400D01*
X69183800Y-107476400D02*
X67983800Y-107476400D01*
X40859600Y-102704200D02*
X40859600Y-101504200D01*
X39099600Y-101504200D02*
X39099600Y-102704200D01*
D18*
X48201133Y-147151362D02*
X48058276Y-147198981D01*
X47820180Y-147198981D01*
X47724942Y-147151362D01*
X47677323Y-147103743D01*
X47629704Y-147008505D01*
X47629704Y-146913267D01*
X47677323Y-146818029D01*
X47724942Y-146770410D01*
X47820180Y-146722790D01*
X48010657Y-146675171D01*
X48105895Y-146627552D01*
X48153514Y-146579933D01*
X48201133Y-146484695D01*
X48201133Y-146389457D01*
X48153514Y-146294219D01*
X48105895Y-146246600D01*
X48010657Y-146198981D01*
X47772561Y-146198981D01*
X47629704Y-146246600D01*
X47296371Y-146198981D02*
X47058276Y-147198981D01*
X46867799Y-146484695D01*
X46677323Y-147198981D01*
X46439228Y-146198981D01*
X45534466Y-147198981D02*
X46105895Y-147198981D01*
X45820181Y-147198981D02*
X45820181Y-146198981D01*
X45915419Y-146341838D01*
X46010657Y-146437076D01*
X46105895Y-146484695D01*
X48320181Y-137948981D02*
X48653515Y-137472790D01*
X48891610Y-137948981D02*
X48891610Y-136948981D01*
X48510657Y-136948981D01*
X48415419Y-136996600D01*
X48367800Y-137044219D01*
X48320181Y-137139457D01*
X48320181Y-137282314D01*
X48367800Y-137377552D01*
X48415419Y-137425171D01*
X48510657Y-137472790D01*
X48891610Y-137472790D01*
X47891610Y-137425171D02*
X47558276Y-137425171D01*
X47415419Y-137948981D02*
X47891610Y-137948981D01*
X47891610Y-136948981D01*
X47415419Y-136948981D01*
X47034467Y-137901362D02*
X46891610Y-137948981D01*
X46653514Y-137948981D01*
X46558276Y-137901362D01*
X46510657Y-137853743D01*
X46463038Y-137758505D01*
X46463038Y-137663267D01*
X46510657Y-137568029D01*
X46558276Y-137520410D01*
X46653514Y-137472790D01*
X46843991Y-137425171D01*
X46939229Y-137377552D01*
X46986848Y-137329933D01*
X47034467Y-137234695D01*
X47034467Y-137139457D01*
X46986848Y-137044219D01*
X46939229Y-136996600D01*
X46843991Y-136948981D01*
X46605895Y-136948981D01*
X46463038Y-136996600D01*
X46034467Y-137425171D02*
X45701133Y-137425171D01*
X45558276Y-137948981D02*
X46034467Y-137948981D01*
X46034467Y-136948981D01*
X45558276Y-136948981D01*
X45272562Y-136948981D02*
X44701133Y-136948981D01*
X44986848Y-137948981D02*
X44986848Y-136948981D01*
D16*
X50334524Y-104932381D02*
X51362619Y-104932381D01*
X51483571Y-104992857D01*
X51544048Y-105053333D01*
X51604524Y-105174286D01*
X51604524Y-105416190D01*
X51544048Y-105537143D01*
X51483571Y-105597619D01*
X51362619Y-105658095D01*
X50334524Y-105658095D01*
X51604524Y-106928095D02*
X51604524Y-106202381D01*
X51604524Y-106565238D02*
X50334524Y-106565238D01*
X50515952Y-106444286D01*
X50636905Y-106323333D01*
X50697381Y-106202381D01*
D18*
X47107143Y-84373334D02*
X47154762Y-84325715D01*
X47202381Y-84182858D01*
X47202381Y-84087620D01*
X47154762Y-83944762D01*
X47059524Y-83849524D01*
X46964286Y-83801905D01*
X46773810Y-83754286D01*
X46630952Y-83754286D01*
X46440476Y-83801905D01*
X46345238Y-83849524D01*
X46250000Y-83944762D01*
X46202381Y-84087620D01*
X46202381Y-84182858D01*
X46250000Y-84325715D01*
X46297619Y-84373334D01*
X47202381Y-85325715D02*
X47202381Y-84754286D01*
X47202381Y-85040000D02*
X46202381Y-85040000D01*
X46345238Y-84944762D01*
X46440476Y-84849524D01*
X46488095Y-84754286D01*
X48882381Y-83791905D02*
X48882381Y-83220476D01*
X48882381Y-83506190D02*
X47882381Y-83506190D01*
X48025238Y-83410952D01*
X48120476Y-83315714D01*
X48168095Y-83220476D01*
X47882381Y-84410952D02*
X47882381Y-84506191D01*
X47930000Y-84601429D01*
X47977619Y-84649048D01*
X48072857Y-84696667D01*
X48263333Y-84744286D01*
X48501429Y-84744286D01*
X48691905Y-84696667D01*
X48787143Y-84649048D01*
X48834762Y-84601429D01*
X48882381Y-84506191D01*
X48882381Y-84410952D01*
X48834762Y-84315714D01*
X48787143Y-84268095D01*
X48691905Y-84220476D01*
X48501429Y-84172857D01*
X48263333Y-84172857D01*
X48072857Y-84220476D01*
X47977619Y-84268095D01*
X47930000Y-84315714D01*
X47882381Y-84410952D01*
X47882381Y-85363333D02*
X47882381Y-85458572D01*
X47930000Y-85553810D01*
X47977619Y-85601429D01*
X48072857Y-85649048D01*
X48263333Y-85696667D01*
X48501429Y-85696667D01*
X48691905Y-85649048D01*
X48787143Y-85601429D01*
X48834762Y-85553810D01*
X48882381Y-85458572D01*
X48882381Y-85363333D01*
X48834762Y-85268095D01*
X48787143Y-85220476D01*
X48691905Y-85172857D01*
X48501429Y-85125238D01*
X48263333Y-85125238D01*
X48072857Y-85172857D01*
X47977619Y-85220476D01*
X47930000Y-85268095D01*
X47882381Y-85363333D01*
X48215714Y-86125238D02*
X48882381Y-86125238D01*
X48310952Y-86125238D02*
X48263333Y-86172857D01*
X48215714Y-86268095D01*
X48215714Y-86410953D01*
X48263333Y-86506191D01*
X48358571Y-86553810D01*
X48882381Y-86553810D01*
X54662381Y-95213334D02*
X54186190Y-94880000D01*
X54662381Y-94641905D02*
X53662381Y-94641905D01*
X53662381Y-95022858D01*
X53710000Y-95118096D01*
X53757619Y-95165715D01*
X53852857Y-95213334D01*
X53995714Y-95213334D01*
X54090952Y-95165715D01*
X54138571Y-95118096D01*
X54186190Y-95022858D01*
X54186190Y-94641905D01*
X54662381Y-96165715D02*
X54662381Y-95594286D01*
X54662381Y-95880000D02*
X53662381Y-95880000D01*
X53805238Y-95784762D01*
X53900476Y-95689524D01*
X53948095Y-95594286D01*
D19*
X42836190Y-85806667D02*
X42598095Y-85640000D01*
X42836190Y-85520953D02*
X42336190Y-85520953D01*
X42336190Y-85711429D01*
X42360000Y-85759048D01*
X42383810Y-85782857D01*
X42431429Y-85806667D01*
X42502857Y-85806667D01*
X42550476Y-85782857D01*
X42574286Y-85759048D01*
X42598095Y-85711429D01*
X42598095Y-85520953D01*
X42383810Y-85997143D02*
X42360000Y-86020953D01*
X42336190Y-86068572D01*
X42336190Y-86187619D01*
X42360000Y-86235238D01*
X42383810Y-86259048D01*
X42431429Y-86282857D01*
X42479048Y-86282857D01*
X42550476Y-86259048D01*
X42836190Y-85973334D01*
X42836190Y-86282857D01*
D18*
X43212381Y-105083334D02*
X42736190Y-104750000D01*
X43212381Y-104511905D02*
X42212381Y-104511905D01*
X42212381Y-104892858D01*
X42260000Y-104988096D01*
X42307619Y-105035715D01*
X42402857Y-105083334D01*
X42545714Y-105083334D01*
X42640952Y-105035715D01*
X42688571Y-104988096D01*
X42736190Y-104892858D01*
X42736190Y-104511905D01*
X42545714Y-105940477D02*
X43212381Y-105940477D01*
X42164762Y-105702381D02*
X42879048Y-105464286D01*
X42879048Y-106083334D01*
D19*
X72866190Y-84506667D02*
X72628095Y-84340000D01*
X72866190Y-84220953D02*
X72366190Y-84220953D01*
X72366190Y-84411429D01*
X72390000Y-84459048D01*
X72413810Y-84482857D01*
X72461429Y-84506667D01*
X72532857Y-84506667D01*
X72580476Y-84482857D01*
X72604286Y-84459048D01*
X72628095Y-84411429D01*
X72628095Y-84220953D01*
X72366190Y-84959048D02*
X72366190Y-84720953D01*
X72604286Y-84697143D01*
X72580476Y-84720953D01*
X72556667Y-84768572D01*
X72556667Y-84887619D01*
X72580476Y-84935238D01*
X72604286Y-84959048D01*
X72651905Y-84982857D01*
X72770952Y-84982857D01*
X72818571Y-84959048D01*
X72842381Y-84935238D01*
X72866190Y-84887619D01*
X72866190Y-84768572D01*
X72842381Y-84720953D01*
X72818571Y-84697143D01*
D18*
X47936191Y-93576190D02*
X47936191Y-94052381D01*
X48269524Y-93052381D02*
X47936191Y-93576190D01*
X47602857Y-93052381D01*
X46745714Y-94052381D02*
X47317143Y-94052381D01*
X47031429Y-94052381D02*
X47031429Y-93052381D01*
X47126667Y-93195238D01*
X47221905Y-93290476D01*
X47317143Y-93338095D01*
D20*
X60477429Y-59471143D02*
X60259715Y-59543714D01*
X60187143Y-59616286D01*
X60114572Y-59761429D01*
X60114572Y-59979143D01*
X60187143Y-60124286D01*
X60259715Y-60196857D01*
X60404857Y-60269429D01*
X60985429Y-60269429D01*
X60985429Y-58745429D01*
X60477429Y-58745429D01*
X60332286Y-58818000D01*
X60259715Y-58890571D01*
X60187143Y-59035714D01*
X60187143Y-59180857D01*
X60259715Y-59326000D01*
X60332286Y-59398571D01*
X60477429Y-59471143D01*
X60985429Y-59471143D01*
X59679143Y-58745429D02*
X58808286Y-58745429D01*
X59243715Y-60269429D02*
X59243715Y-58745429D01*
X57502000Y-60269429D02*
X58372857Y-60269429D01*
X57937429Y-60269429D02*
X57937429Y-58745429D01*
X58082572Y-58963143D01*
X58227714Y-59108286D01*
X58372857Y-59180857D01*
X62473144Y-78924286D02*
X62545715Y-78996857D01*
X62763429Y-79069429D01*
X62908572Y-79069429D01*
X63126287Y-78996857D01*
X63271429Y-78851714D01*
X63344001Y-78706571D01*
X63416572Y-78416286D01*
X63416572Y-78198571D01*
X63344001Y-77908286D01*
X63271429Y-77763143D01*
X63126287Y-77618000D01*
X62908572Y-77545429D01*
X62763429Y-77545429D01*
X62545715Y-77618000D01*
X62473144Y-77690571D01*
X60949144Y-79069429D02*
X61457144Y-78343714D01*
X61820001Y-79069429D02*
X61820001Y-77545429D01*
X61239429Y-77545429D01*
X61094287Y-77618000D01*
X61021715Y-77690571D01*
X60949144Y-77835714D01*
X60949144Y-78053429D01*
X61021715Y-78198571D01*
X61094287Y-78271143D01*
X61239429Y-78343714D01*
X61820001Y-78343714D01*
X60368572Y-77690571D02*
X60296001Y-77618000D01*
X60150858Y-77545429D01*
X59788001Y-77545429D01*
X59642858Y-77618000D01*
X59570287Y-77690571D01*
X59497715Y-77835714D01*
X59497715Y-77980857D01*
X59570287Y-78198571D01*
X60441144Y-79069429D01*
X59497715Y-79069429D01*
X58554286Y-77545429D02*
X58409143Y-77545429D01*
X58264000Y-77618000D01*
X58191429Y-77690571D01*
X58118858Y-77835714D01*
X58046286Y-78126000D01*
X58046286Y-78488857D01*
X58118858Y-78779143D01*
X58191429Y-78924286D01*
X58264000Y-78996857D01*
X58409143Y-79069429D01*
X58554286Y-79069429D01*
X58699429Y-78996857D01*
X58772000Y-78924286D01*
X58844572Y-78779143D01*
X58917143Y-78488857D01*
X58917143Y-78126000D01*
X58844572Y-77835714D01*
X58772000Y-77690571D01*
X58699429Y-77618000D01*
X58554286Y-77545429D01*
X57538286Y-77545429D02*
X56594857Y-77545429D01*
X57102857Y-78126000D01*
X56885143Y-78126000D01*
X56740000Y-78198571D01*
X56667429Y-78271143D01*
X56594857Y-78416286D01*
X56594857Y-78779143D01*
X56667429Y-78924286D01*
X56740000Y-78996857D01*
X56885143Y-79069429D01*
X57320571Y-79069429D01*
X57465714Y-78996857D01*
X57538286Y-78924286D01*
X56014285Y-77690571D02*
X55941714Y-77618000D01*
X55796571Y-77545429D01*
X55433714Y-77545429D01*
X55288571Y-77618000D01*
X55216000Y-77690571D01*
X55143428Y-77835714D01*
X55143428Y-77980857D01*
X55216000Y-78198571D01*
X56086857Y-79069429D01*
X55143428Y-79069429D01*
D18*
X72772381Y-90073334D02*
X72296190Y-89740000D01*
X72772381Y-89501905D02*
X71772381Y-89501905D01*
X71772381Y-89882858D01*
X71820000Y-89978096D01*
X71867619Y-90025715D01*
X71962857Y-90073334D01*
X72105714Y-90073334D01*
X72200952Y-90025715D01*
X72248571Y-89978096D01*
X72296190Y-89882858D01*
X72296190Y-89501905D01*
X71772381Y-90406667D02*
X71772381Y-91025715D01*
X72153333Y-90692381D01*
X72153333Y-90835239D01*
X72200952Y-90930477D01*
X72248571Y-90978096D01*
X72343810Y-91025715D01*
X72581905Y-91025715D01*
X72677143Y-90978096D01*
X72724762Y-90930477D01*
X72772381Y-90835239D01*
X72772381Y-90549524D01*
X72724762Y-90454286D01*
X72677143Y-90406667D01*
X42792381Y-90063334D02*
X42316190Y-89730000D01*
X42792381Y-89491905D02*
X41792381Y-89491905D01*
X41792381Y-89872858D01*
X41840000Y-89968096D01*
X41887619Y-90015715D01*
X41982857Y-90063334D01*
X42125714Y-90063334D01*
X42220952Y-90015715D01*
X42268571Y-89968096D01*
X42316190Y-89872858D01*
X42316190Y-89491905D01*
X41792381Y-90920477D02*
X41792381Y-90730000D01*
X41840000Y-90634762D01*
X41887619Y-90587143D01*
X42030476Y-90491905D01*
X42220952Y-90444286D01*
X42601905Y-90444286D01*
X42697143Y-90491905D01*
X42744762Y-90539524D01*
X42792381Y-90634762D01*
X42792381Y-90825239D01*
X42744762Y-90920477D01*
X42697143Y-90968096D01*
X42601905Y-91015715D01*
X42363810Y-91015715D01*
X42268571Y-90968096D01*
X42220952Y-90920477D01*
X42173333Y-90825239D01*
X42173333Y-90634762D01*
X42220952Y-90539524D01*
X42268571Y-90491905D01*
X42363810Y-90444286D01*
X72159524Y-54452381D02*
X72159524Y-53452381D01*
X71778571Y-53452381D01*
X71683333Y-53500000D01*
X71635714Y-53547619D01*
X71588095Y-53642857D01*
X71588095Y-53785714D01*
X71635714Y-53880952D01*
X71683333Y-53928571D01*
X71778571Y-53976190D01*
X72159524Y-53976190D01*
X70969048Y-53452381D02*
X70778571Y-53452381D01*
X70683333Y-53500000D01*
X70588095Y-53595238D01*
X70540476Y-53785714D01*
X70540476Y-54119048D01*
X70588095Y-54309524D01*
X70683333Y-54404762D01*
X70778571Y-54452381D01*
X70969048Y-54452381D01*
X71064286Y-54404762D01*
X71159524Y-54309524D01*
X71207143Y-54119048D01*
X71207143Y-53785714D01*
X71159524Y-53595238D01*
X71064286Y-53500000D01*
X70969048Y-53452381D01*
X70207143Y-53452381D02*
X69969048Y-54452381D01*
X69778571Y-53738095D01*
X69588095Y-54452381D01*
X69350000Y-53452381D01*
X68969048Y-53928571D02*
X68635714Y-53928571D01*
X68492857Y-54452381D02*
X68969048Y-54452381D01*
X68969048Y-53452381D01*
X68492857Y-53452381D01*
X67492857Y-54452381D02*
X67826191Y-53976190D01*
X68064286Y-54452381D02*
X68064286Y-53452381D01*
X67683333Y-53452381D01*
X67588095Y-53500000D01*
X67540476Y-53547619D01*
X67492857Y-53642857D01*
X67492857Y-53785714D01*
X67540476Y-53880952D01*
X67588095Y-53928571D01*
X67683333Y-53976190D01*
X68064286Y-53976190D01*
X62527466Y-107057981D02*
X62860800Y-106581790D01*
X63098895Y-107057981D02*
X63098895Y-106057981D01*
X62717942Y-106057981D01*
X62622704Y-106105600D01*
X62575085Y-106153219D01*
X62527466Y-106248457D01*
X62527466Y-106391314D01*
X62575085Y-106486552D01*
X62622704Y-106534171D01*
X62717942Y-106581790D01*
X63098895Y-106581790D01*
X62194133Y-106057981D02*
X61527466Y-106057981D01*
X61956038Y-107057981D01*
X68750466Y-107108781D02*
X69083800Y-106632590D01*
X69321895Y-107108781D02*
X69321895Y-106108781D01*
X68940942Y-106108781D01*
X68845704Y-106156400D01*
X68798085Y-106204019D01*
X68750466Y-106299257D01*
X68750466Y-106442114D01*
X68798085Y-106537352D01*
X68845704Y-106584971D01*
X68940942Y-106632590D01*
X69321895Y-106632590D01*
X68179038Y-106537352D02*
X68274276Y-106489733D01*
X68321895Y-106442114D01*
X68369514Y-106346876D01*
X68369514Y-106299257D01*
X68321895Y-106204019D01*
X68274276Y-106156400D01*
X68179038Y-106108781D01*
X67988561Y-106108781D01*
X67893323Y-106156400D01*
X67845704Y-106204019D01*
X67798085Y-106299257D01*
X67798085Y-106346876D01*
X67845704Y-106442114D01*
X67893323Y-106489733D01*
X67988561Y-106537352D01*
X68179038Y-106537352D01*
X68274276Y-106584971D01*
X68321895Y-106632590D01*
X68369514Y-106727829D01*
X68369514Y-106918305D01*
X68321895Y-107013543D01*
X68274276Y-107061162D01*
X68179038Y-107108781D01*
X67988561Y-107108781D01*
X67893323Y-107061162D01*
X67845704Y-107013543D01*
X67798085Y-106918305D01*
X67798085Y-106727829D01*
X67845704Y-106632590D01*
X67893323Y-106584971D01*
X67988561Y-106537352D01*
X38730181Y-99883934D02*
X38253990Y-99550600D01*
X38730181Y-99312505D02*
X37730181Y-99312505D01*
X37730181Y-99693458D01*
X37777800Y-99788696D01*
X37825419Y-99836315D01*
X37920657Y-99883934D01*
X38063514Y-99883934D01*
X38158752Y-99836315D01*
X38206371Y-99788696D01*
X38253990Y-99693458D01*
X38253990Y-99312505D01*
X38730181Y-100360124D02*
X38730181Y-100550600D01*
X38682562Y-100645839D01*
X38634943Y-100693458D01*
X38492086Y-100788696D01*
X38301610Y-100836315D01*
X37920657Y-100836315D01*
X37825419Y-100788696D01*
X37777800Y-100741077D01*
X37730181Y-100645839D01*
X37730181Y-100455362D01*
X37777800Y-100360124D01*
X37825419Y-100312505D01*
X37920657Y-100264886D01*
X38158752Y-100264886D01*
X38253990Y-100312505D01*
X38301610Y-100360124D01*
X38349229Y-100455362D01*
X38349229Y-100645839D01*
X38301610Y-100741077D01*
X38253990Y-100788696D01*
X38158752Y-100836315D01*
M02*
