M48
;DRILL file {KiCad 4.0.6} date Sat Nov 10 09:16:11 2018
;FORMAT={-:-/ absolute / inch / decimal}
FMAT,2
INCH,TZ
T1C0.035
T2C0.059
%
G90
G05
M72
T1
X2.6909Y-1.987
X2.8091Y-1.987
T2
X1.5366Y-2.8563
X1.5366Y-2.876
X1.5366Y-2.9055
X1.5366Y-2.935
X1.5366Y-2.9547
X1.5366Y-3.6437
X1.5366Y-3.6732
X1.5366Y-3.6929
X1.5366Y-3.7224
X1.5366Y-3.7421
X3.1311Y-2.8563
X3.1311Y-2.876
X3.1311Y-2.9055
X3.1311Y-2.9252
X3.1311Y-2.9547
X3.1311Y-3.6437
X3.1311Y-3.6634
X3.1311Y-3.6929
X3.1311Y-3.7126
X3.1311Y-3.7421
T0
M30
