G04 #@! TF.FileFunction,Soldermask,Bot*
%FSLAX46Y46*%
G04 Gerber Fmt 4.6, Leading zero omitted, Abs format (unit mm)*
G04 Created by KiCad (PCBNEW 4.0.7) date Mon Aug 27 18:32:32 2018*
%MOMM*%
%LPD*%
G01*
G04 APERTURE LIST*
%ADD10C,0.100000*%
%ADD11R,1.400000X1.400000*%
%ADD12R,2.100000X2.100000*%
%ADD13O,2.100000X2.100000*%
%ADD14R,3.150000X1.400000*%
%ADD15C,1.900000*%
%ADD16R,1.900000X3.400000*%
%ADD17O,2.400000X4.900000*%
%ADD18R,0.950000X0.700000*%
%ADD19R,0.700000X0.950000*%
%ADD20R,2.200000X2.200000*%
%ADD21R,1.000000X1.900000*%
%ADD22R,1.900000X1.000000*%
%ADD23R,1.650000X1.900000*%
%ADD24R,1.900000X1.650000*%
%ADD25R,1.700000X1.900000*%
%ADD26R,1.900000X1.700000*%
%ADD27R,2.500000X2.200000*%
%ADD28R,6.400000X5.900000*%
%ADD29R,8.400000X8.400000*%
G04 APERTURE END LIST*
D10*
D11*
X42090000Y-103160000D03*
X44590000Y-103160000D03*
D12*
X40460000Y-108920000D03*
D13*
X43000000Y-108920000D03*
X40460000Y-111460000D03*
X43000000Y-111460000D03*
X40460000Y-114000000D03*
X43000000Y-114000000D03*
D12*
X40460000Y-116460000D03*
D13*
X43000000Y-116460000D03*
X40460000Y-119000000D03*
X43000000Y-119000000D03*
D14*
X44025000Y-146100000D03*
X49775000Y-146100000D03*
X49775000Y-142100000D03*
X44025000Y-142100000D03*
D15*
X38850000Y-82050000D03*
X38850000Y-83300000D03*
X79350000Y-81800000D03*
X79350000Y-83050000D03*
X79350000Y-81300000D03*
X79350000Y-83800000D03*
X79350000Y-101300000D03*
X79350000Y-101800000D03*
X79350000Y-103800000D03*
X79350000Y-103300000D03*
X38850000Y-81300000D03*
X38850000Y-83800000D03*
X38850000Y-102050000D03*
D16*
X40100000Y-102550000D03*
X40100000Y-82550000D03*
X78100000Y-82550000D03*
X78100000Y-102550000D03*
D17*
X38850000Y-82550000D03*
X79350000Y-82550000D03*
X38850000Y-102550000D03*
X79350000Y-102550000D03*
D15*
X38850000Y-103800000D03*
X38850000Y-101300000D03*
X38850000Y-103300000D03*
D18*
X61400000Y-107710000D03*
X61400000Y-108210000D03*
X61400000Y-108710000D03*
X61400000Y-109210000D03*
X61400000Y-109710000D03*
D19*
X60800000Y-110310000D03*
X60300000Y-110310000D03*
X59800000Y-110310000D03*
X59300000Y-110310000D03*
X58800000Y-110310000D03*
D18*
X58200000Y-109710000D03*
X58200000Y-109210000D03*
X58200000Y-108710000D03*
X58200000Y-108210000D03*
X58200000Y-107710000D03*
D19*
X58800000Y-107110000D03*
X59300000Y-107110000D03*
X59800000Y-107110000D03*
X60300000Y-107110000D03*
X60800000Y-107110000D03*
D20*
X59800000Y-108710000D03*
D21*
X48230000Y-101650000D03*
X49030000Y-101650000D03*
X49830000Y-101650000D03*
X50630000Y-101650000D03*
X51430000Y-101650000D03*
X52230000Y-101650000D03*
X53030000Y-101650000D03*
X53830000Y-101650000D03*
D22*
X55280000Y-103100000D03*
X55280000Y-103900000D03*
X55280000Y-104700000D03*
X55280000Y-105500000D03*
X55280000Y-106300000D03*
X55280000Y-107100000D03*
X55280000Y-107900000D03*
X55280000Y-108700000D03*
D21*
X53830000Y-110150000D03*
X53030000Y-110150000D03*
X52230000Y-110150000D03*
X51430000Y-110150000D03*
X50630000Y-110150000D03*
X49830000Y-110150000D03*
X49030000Y-110150000D03*
X48230000Y-110150000D03*
D22*
X46780000Y-108700000D03*
X46780000Y-107900000D03*
X46780000Y-107100000D03*
X46780000Y-106300000D03*
X46780000Y-105500000D03*
X46780000Y-104700000D03*
X46780000Y-103900000D03*
X46780000Y-103100000D03*
D23*
X45960000Y-119930000D03*
X45960000Y-117430000D03*
X75760000Y-105420000D03*
X75760000Y-107920000D03*
D24*
X73400000Y-106910000D03*
X70900000Y-106910000D03*
X73400000Y-104810000D03*
X70900000Y-104810000D03*
X73390000Y-109050000D03*
X70890000Y-109050000D03*
D23*
X52790000Y-126190000D03*
X52790000Y-128690000D03*
X49800000Y-126160000D03*
X49800000Y-128660000D03*
X46720000Y-126160000D03*
X46720000Y-128660000D03*
D24*
X70890000Y-111180000D03*
X68390000Y-111180000D03*
D23*
X53310000Y-117370000D03*
X53310000Y-119870000D03*
D25*
X48440000Y-117410000D03*
X48440000Y-120110000D03*
X43420000Y-125640000D03*
X43420000Y-122940000D03*
D26*
X51300000Y-123000000D03*
X54000000Y-123000000D03*
X49000000Y-123000000D03*
X46300000Y-123000000D03*
X47870000Y-113990000D03*
X50570000Y-113990000D03*
D25*
X50870000Y-120090000D03*
X50870000Y-117390000D03*
X48730000Y-98710000D03*
X48730000Y-96010000D03*
X43400000Y-100890000D03*
X43400000Y-98190000D03*
X39710000Y-95560000D03*
X39710000Y-98260000D03*
X43480000Y-132180000D03*
X43480000Y-129480000D03*
D27*
X64430000Y-103350000D03*
X67330000Y-103350000D03*
X67330000Y-105650000D03*
X64430000Y-105650000D03*
X46300000Y-95600000D03*
X43400000Y-95600000D03*
X43400000Y-93300000D03*
X46300000Y-93300000D03*
D28*
X75300000Y-68000000D03*
X44700000Y-68000000D03*
D29*
X60000000Y-68000000D03*
M02*
