G04 #@! TF.FileFunction,Copper,L2,Bot,Signal*
%FSLAX46Y46*%
G04 Gerber Fmt 4.6, Leading zero omitted, Abs format (unit mm)*
G04 Created by KiCad (PCBNEW 4.0.7) date Wed Aug 22 22:50:22 2018*
%MOMM*%
%LPD*%
G01*
G04 APERTURE LIST*
%ADD10C,0.100000*%
%ADD11R,1.700000X1.700000*%
%ADD12O,1.700000X1.700000*%
%ADD13R,2.750000X1.000000*%
%ADD14C,2.000000*%
%ADD15R,1.500000X3.000000*%
%ADD16O,2.000000X4.500000*%
%ADD17R,0.550000X0.300000*%
%ADD18R,0.300000X0.550000*%
%ADD19R,1.800000X1.800000*%
%ADD20R,0.600000X1.500000*%
%ADD21R,1.500000X0.600000*%
%ADD22R,1.250000X1.500000*%
%ADD23R,1.500000X1.250000*%
%ADD24R,1.000000X1.000000*%
%ADD25R,1.300000X1.500000*%
%ADD26R,1.500000X1.300000*%
%ADD27R,2.100000X1.800000*%
%ADD28R,6.000000X5.500000*%
%ADD29R,8.000000X8.000000*%
%ADD30C,0.600000*%
%ADD31C,0.300000*%
%ADD32C,0.254000*%
G04 APERTURE END LIST*
D10*
D11*
X40460000Y-108920000D03*
D12*
X43000000Y-108920000D03*
X40460000Y-111460000D03*
X43000000Y-111460000D03*
X40460000Y-114000000D03*
X43000000Y-114000000D03*
D11*
X40460000Y-116460000D03*
D12*
X43000000Y-116460000D03*
X40460000Y-119000000D03*
X43000000Y-119000000D03*
D13*
X44025000Y-146100000D03*
X49775000Y-146100000D03*
X49775000Y-142100000D03*
X44025000Y-142100000D03*
D14*
X41850000Y-72550000D03*
D15*
X40100000Y-102550000D03*
X40100000Y-82550000D03*
X78100000Y-82550000D03*
X78100000Y-102550000D03*
D16*
X38850000Y-82550000D03*
X79350000Y-82550000D03*
X38850000Y-102550000D03*
X79350000Y-102550000D03*
D14*
X76350000Y-99050000D03*
D17*
X61400000Y-107710000D03*
X61400000Y-108210000D03*
X61400000Y-108710000D03*
X61400000Y-109210000D03*
X61400000Y-109710000D03*
D18*
X60800000Y-110310000D03*
X60300000Y-110310000D03*
X59800000Y-110310000D03*
X59300000Y-110310000D03*
X58800000Y-110310000D03*
D17*
X58200000Y-109710000D03*
X58200000Y-109210000D03*
X58200000Y-108710000D03*
X58200000Y-108210000D03*
X58200000Y-107710000D03*
D18*
X58800000Y-107110000D03*
X59300000Y-107110000D03*
X59800000Y-107110000D03*
X60300000Y-107110000D03*
X60800000Y-107110000D03*
D19*
X59800000Y-108710000D03*
D20*
X48230000Y-101650000D03*
X49030000Y-101650000D03*
X49830000Y-101650000D03*
X50630000Y-101650000D03*
X51430000Y-101650000D03*
X52230000Y-101650000D03*
X53030000Y-101650000D03*
X53830000Y-101650000D03*
D21*
X55280000Y-103100000D03*
X55280000Y-103900000D03*
X55280000Y-104700000D03*
X55280000Y-105500000D03*
X55280000Y-106300000D03*
X55280000Y-107100000D03*
X55280000Y-107900000D03*
X55280000Y-108700000D03*
D20*
X53830000Y-110150000D03*
X53030000Y-110150000D03*
X52230000Y-110150000D03*
X51430000Y-110150000D03*
X50630000Y-110150000D03*
X49830000Y-110150000D03*
X49030000Y-110150000D03*
X48230000Y-110150000D03*
D21*
X46780000Y-108700000D03*
X46780000Y-107900000D03*
X46780000Y-107100000D03*
X46780000Y-106300000D03*
X46780000Y-105500000D03*
X46780000Y-104700000D03*
X46780000Y-103900000D03*
X46780000Y-103100000D03*
D22*
X45960000Y-119930000D03*
X45960000Y-117430000D03*
X75760000Y-105420000D03*
X75760000Y-107920000D03*
D23*
X73400000Y-106910000D03*
X70900000Y-106910000D03*
X73400000Y-104810000D03*
X70900000Y-104810000D03*
X73390000Y-109050000D03*
X70890000Y-109050000D03*
D22*
X52790000Y-126190000D03*
X52790000Y-128690000D03*
X49800000Y-126160000D03*
X49800000Y-128660000D03*
X46720000Y-126160000D03*
X46720000Y-128660000D03*
D23*
X70890000Y-111180000D03*
X68390000Y-111180000D03*
D22*
X53310000Y-117370000D03*
X53310000Y-119870000D03*
D24*
X42090000Y-103160000D03*
X44590000Y-103160000D03*
D25*
X48440000Y-117410000D03*
X48440000Y-120110000D03*
X43420000Y-125640000D03*
X43420000Y-122940000D03*
D26*
X51300000Y-123000000D03*
X54000000Y-123000000D03*
X49000000Y-123000000D03*
X46300000Y-123000000D03*
X47870000Y-113990000D03*
X50570000Y-113990000D03*
D25*
X50870000Y-120090000D03*
X50870000Y-117390000D03*
X48730000Y-98710000D03*
X48730000Y-96010000D03*
X43400000Y-100890000D03*
X43400000Y-98190000D03*
X39710000Y-95560000D03*
X39710000Y-98260000D03*
X43480000Y-132180000D03*
X43480000Y-129480000D03*
D27*
X64430000Y-103350000D03*
X67330000Y-103350000D03*
X67330000Y-105650000D03*
X64430000Y-105650000D03*
X46300000Y-95600000D03*
X43400000Y-95600000D03*
X43400000Y-93300000D03*
X46300000Y-93300000D03*
D28*
X75300000Y-68000000D03*
X44700000Y-68000000D03*
D29*
X60000000Y-68000000D03*
D30*
X67330000Y-103350000D03*
X61100000Y-102550000D03*
X50630000Y-110150000D03*
X75300000Y-68000000D03*
X44700000Y-68000000D03*
X75760000Y-105420000D03*
X39710000Y-98260000D03*
X41220000Y-105360000D03*
X53610010Y-103350000D03*
X43480000Y-132180000D03*
X52230000Y-101650000D03*
X50630000Y-101650000D03*
X73450000Y-109060000D03*
X73400000Y-106910000D03*
X73400000Y-104810000D03*
X60060000Y-111120000D03*
X57425158Y-109872654D03*
X57020000Y-107059992D03*
X44136096Y-104500012D03*
X52080000Y-106250000D03*
X55280000Y-108700000D03*
X53810000Y-105350000D03*
X55280000Y-107900000D03*
X59205380Y-105455380D03*
X52080000Y-104150000D03*
X49690000Y-107250000D03*
X49259200Y-104180001D03*
X48340000Y-105450000D03*
X51300000Y-123000000D03*
X50870000Y-120090000D03*
X54930000Y-119820000D03*
X68390000Y-111180000D03*
X62510000Y-109880000D03*
X46780000Y-107100000D03*
D31*
X41450000Y-95000000D02*
X41450000Y-95450000D01*
X41450000Y-95450000D02*
X41600000Y-95600000D01*
X41600000Y-95600000D02*
X42050000Y-95600000D01*
X42050000Y-95600000D02*
X43400000Y-95600000D01*
X42050000Y-95600000D02*
X41450000Y-95000000D01*
X60800000Y-110310000D02*
X60800000Y-111342002D01*
X60800000Y-111342002D02*
X60372001Y-111770001D01*
X60372001Y-111770001D02*
X59747999Y-111770001D01*
X59747999Y-111770001D02*
X59300000Y-111322002D01*
X61400000Y-107710000D02*
X62350000Y-107710000D01*
X49830000Y-101650000D02*
X49830000Y-103230000D01*
X43400000Y-95600000D02*
X43400000Y-98190000D01*
X49830000Y-101650000D02*
X49830000Y-100769998D01*
X49830000Y-100769998D02*
X50049999Y-100549999D01*
X50049999Y-100549999D02*
X51379999Y-100549999D01*
X51379999Y-100549999D02*
X51430000Y-100600000D01*
X51430000Y-100600000D02*
X51430000Y-101650000D01*
X50630000Y-110150000D02*
X50630000Y-108407998D01*
X59300000Y-111322002D02*
X50752002Y-111322002D01*
X50752002Y-111322002D02*
X50630000Y-111200000D01*
X50630000Y-111200000D02*
X50630000Y-110150000D01*
X59300000Y-111322002D02*
X59300000Y-110310000D01*
X49830000Y-101650000D02*
X49830000Y-100360000D01*
X51430000Y-101650000D02*
X51430000Y-100260000D01*
X50630000Y-101650000D02*
X50630000Y-102700000D01*
X52230000Y-102700000D02*
X52230000Y-101650000D01*
X50630000Y-102700000D02*
X50680001Y-102750001D01*
X50680001Y-102750001D02*
X52189999Y-102750001D01*
X52189999Y-102750001D02*
X52230000Y-102710000D01*
X52230000Y-102710000D02*
X52230000Y-102700000D01*
X51480001Y-109049999D02*
X52250000Y-109049999D01*
X52250000Y-109049999D02*
X52979999Y-109049999D01*
X52230000Y-101650000D02*
X52230000Y-103037998D01*
X51429999Y-106900877D02*
X52250000Y-107720878D01*
X52230000Y-103037998D02*
X51290000Y-103977998D01*
X51290000Y-103977998D02*
X51290000Y-104507998D01*
X51290000Y-104507998D02*
X51430001Y-104647999D01*
X51430001Y-104647999D02*
X51430001Y-105937997D01*
X51430001Y-105937997D02*
X51429999Y-105937999D01*
X51429999Y-105937999D02*
X51429999Y-106900877D01*
X52250000Y-107720878D02*
X52250000Y-109049999D01*
X51430000Y-110150000D02*
X51430000Y-109100000D01*
X51430000Y-109100000D02*
X51480001Y-109049999D01*
X52979999Y-109049999D02*
X53030000Y-109100000D01*
X53030000Y-109100000D02*
X53030000Y-110150000D01*
X41519999Y-105050001D02*
X42090000Y-104480000D01*
X42090000Y-104480000D02*
X42090000Y-103160000D01*
X41220000Y-105360000D02*
X41519999Y-105060001D01*
X41519999Y-105060001D02*
X41519999Y-105050001D01*
X52230000Y-102700000D02*
X52880000Y-103350000D01*
X52880000Y-103350000D02*
X53610010Y-103350000D01*
X60060000Y-110310000D02*
X60300000Y-110310000D01*
X59800000Y-110310000D02*
X60060000Y-110310000D01*
X60060000Y-110310000D02*
X60060000Y-111120000D01*
X57425158Y-109872654D02*
X57425158Y-109409842D01*
X57425158Y-109409842D02*
X57625000Y-109210000D01*
X57625000Y-109210000D02*
X58200000Y-109210000D01*
X55280000Y-107100000D02*
X56979992Y-107100000D01*
X56979992Y-107100000D02*
X57020000Y-107059992D01*
X53830000Y-110150000D02*
X53830000Y-108000000D01*
X53830000Y-108000000D02*
X52080000Y-106250000D01*
X58200000Y-108710000D02*
X57417880Y-108710000D01*
X56204998Y-109922882D02*
X56204998Y-110150000D01*
X57417880Y-108710000D02*
X56204998Y-109922882D01*
X53830000Y-110150000D02*
X56204998Y-110150000D01*
X55130000Y-108550000D02*
X55280000Y-108700000D01*
X58200000Y-108210000D02*
X56727120Y-108210000D01*
X56727120Y-108210000D02*
X56237120Y-108700000D01*
X56237120Y-108700000D02*
X55280000Y-108700000D01*
X55280000Y-107900000D02*
X54437120Y-107900000D01*
X54437120Y-107900000D02*
X53810000Y-107272880D01*
X53810000Y-107272880D02*
X53810000Y-105350000D01*
X55280000Y-107900000D02*
X56330000Y-107900000D01*
X56330000Y-107900000D02*
X56520008Y-107709992D01*
X56520008Y-107709992D02*
X57849992Y-107709992D01*
X57849992Y-107709992D02*
X57850000Y-107710000D01*
X57850000Y-107710000D02*
X58200000Y-107710000D01*
X55280000Y-106300000D02*
X58115000Y-106300000D01*
X58115000Y-106300000D02*
X58800000Y-106985000D01*
X58800000Y-106985000D02*
X58800000Y-107110000D01*
X46300000Y-95600000D02*
X48320000Y-95600000D01*
X48320000Y-95600000D02*
X48730000Y-96010000D01*
X53830000Y-101650000D02*
X53830000Y-100402880D01*
X53830000Y-100402880D02*
X48937110Y-95509990D01*
X48937110Y-95509990D02*
X48522890Y-95509990D01*
X48522890Y-95509990D02*
X48376440Y-95656440D01*
X48730000Y-96110000D02*
X48730000Y-96010000D01*
X55280000Y-105500000D02*
X59160760Y-105500000D01*
X59160760Y-105500000D02*
X59205380Y-105455380D01*
X55290000Y-105510000D02*
X55280000Y-105500000D01*
X55280000Y-104700000D02*
X52630000Y-104700000D01*
X52630000Y-104700000D02*
X52080000Y-104150000D01*
X49690000Y-107250000D02*
X48230000Y-108710000D01*
X48230000Y-108710000D02*
X48230000Y-110150000D01*
X47840000Y-107650000D02*
X48990001Y-106499999D01*
X48990001Y-104449200D02*
X49259200Y-104180001D01*
X48990001Y-106499999D02*
X48990001Y-104449200D01*
X47840000Y-107900000D02*
X47840000Y-107650000D01*
X46780000Y-107900000D02*
X47840000Y-107900000D01*
X40460000Y-114000000D02*
X39259999Y-112799999D01*
X39259999Y-112799999D02*
X39259999Y-107789999D01*
X39259999Y-107789999D02*
X41039997Y-106010001D01*
X41039997Y-106010001D02*
X41664105Y-106010001D01*
X41664105Y-106010001D02*
X44514106Y-103160000D01*
X44514106Y-103160000D02*
X44590000Y-103160000D01*
X46780000Y-105500000D02*
X48290000Y-105500000D01*
X48290000Y-105500000D02*
X48340000Y-105450000D01*
X41330000Y-97849998D02*
X41330000Y-98720000D01*
X41330000Y-98720000D02*
X43400000Y-100790000D01*
X43400000Y-100790000D02*
X43400000Y-100890000D01*
X39710000Y-95560000D02*
X39499990Y-95770010D01*
X39499990Y-95770010D02*
X39499990Y-96507110D01*
X39499990Y-96507110D02*
X40152879Y-97159999D01*
X40152879Y-97159999D02*
X40640001Y-97159999D01*
X40640001Y-97159999D02*
X41330000Y-97849998D01*
X44590000Y-103160000D02*
X43790000Y-103160000D01*
X43400000Y-100890000D02*
X43400000Y-102770000D01*
X43400000Y-102770000D02*
X43790000Y-103160000D01*
X41690000Y-135870000D02*
X41799999Y-135760001D01*
X41799999Y-115339999D02*
X40460000Y-114000000D01*
X41799999Y-135760001D02*
X41799999Y-115339999D01*
X42350000Y-146100000D02*
X41690000Y-145440000D01*
X41690000Y-145440000D02*
X41690000Y-135870000D01*
X44025000Y-146100000D02*
X42350000Y-146100000D01*
X44025000Y-146100000D02*
X49775000Y-146100000D01*
X43000000Y-108920000D02*
X43000000Y-107430000D01*
X43000000Y-107430000D02*
X45730000Y-104700000D01*
X45730000Y-104700000D02*
X46780000Y-104700000D01*
X40460000Y-108920000D02*
X40678110Y-108920000D01*
X40678110Y-108920000D02*
X45698110Y-103900000D01*
X45698110Y-103900000D02*
X46780000Y-103900000D01*
X40852880Y-108920000D02*
X40460000Y-108920000D01*
X40460000Y-108920000D02*
X41080000Y-108920000D01*
X45960000Y-117430000D02*
X48420000Y-117430000D01*
X48420000Y-117430000D02*
X48440000Y-117410000D01*
X50870000Y-120090000D02*
X50870000Y-119990000D01*
X51400000Y-123000000D02*
X51300000Y-123000000D01*
X50870000Y-120090000D02*
X53090000Y-120090000D01*
X53090000Y-120090000D02*
X53310000Y-119870000D01*
X48440000Y-120110000D02*
X50850000Y-120110000D01*
X50850000Y-120110000D02*
X50870000Y-120090000D01*
X52790000Y-126190000D02*
X51865000Y-126190000D01*
X51865000Y-126190000D02*
X51300000Y-125625000D01*
X51300000Y-125625000D02*
X51300000Y-123000000D01*
X49000000Y-123000000D02*
X49000000Y-122050000D01*
X49000000Y-122050000D02*
X49050001Y-121999999D01*
X49050001Y-121999999D02*
X52899999Y-121999999D01*
X52899999Y-121999999D02*
X53900000Y-123000000D01*
X53900000Y-123000000D02*
X54000000Y-123000000D01*
X49800000Y-126160000D02*
X49800000Y-125110000D01*
X49800000Y-125110000D02*
X49000000Y-124310000D01*
X49000000Y-124310000D02*
X49000000Y-123000000D01*
X46300000Y-123000000D02*
X46300000Y-122050000D01*
X46300000Y-122050000D02*
X46850011Y-121499989D01*
X46850011Y-121499989D02*
X54000011Y-121499989D01*
X54000011Y-121499989D02*
X54930000Y-120570000D01*
X54930000Y-120570000D02*
X54930000Y-119820000D01*
X46400000Y-123000000D02*
X46300000Y-123000000D01*
X46720000Y-126160000D02*
X46720000Y-123420000D01*
X46720000Y-123420000D02*
X46300000Y-123000000D01*
X43420000Y-125640000D02*
X43420000Y-129420000D01*
X43420000Y-129420000D02*
X43480000Y-129480000D01*
X43280000Y-94850000D02*
X43280000Y-93650000D01*
X48730000Y-98710000D02*
X48730000Y-98610000D01*
X48730000Y-98610000D02*
X46970001Y-96850001D01*
X46970001Y-96850001D02*
X44969999Y-96850001D01*
X44969999Y-96850001D02*
X44899999Y-96780001D01*
X44899999Y-96780001D02*
X44899999Y-94562879D01*
X44899999Y-94562879D02*
X43487110Y-93149990D01*
X43487110Y-93149990D02*
X43400000Y-93149990D01*
X48730000Y-98710000D02*
X51140000Y-98710000D01*
X51140000Y-98710000D02*
X53030000Y-100600000D01*
X53030000Y-100600000D02*
X53030000Y-101650000D01*
X46090000Y-115170000D02*
X46090000Y-111820000D01*
X46090000Y-111820000D02*
X46460000Y-111450000D01*
X44730000Y-116530000D02*
X46090000Y-115170000D01*
X45035000Y-119930000D02*
X44730000Y-119625000D01*
X44730000Y-119625000D02*
X44730000Y-116530000D01*
X45960000Y-119930000D02*
X45035000Y-119930000D01*
X50992891Y-112270011D02*
X60579111Y-112270011D01*
X46460000Y-111450000D02*
X50172880Y-111450000D01*
X50172880Y-111450000D02*
X50992891Y-112270011D01*
X60579111Y-112270011D02*
X61400000Y-111449122D01*
X61400000Y-111449122D02*
X61400000Y-109710000D01*
X43420000Y-122940000D02*
X43420000Y-122840000D01*
X43420000Y-122840000D02*
X45960000Y-120300000D01*
X45960000Y-120300000D02*
X45960000Y-119930000D01*
X47870000Y-113990000D02*
X47870000Y-113040000D01*
X47870000Y-113040000D02*
X48139979Y-112770021D01*
X48139979Y-112770021D02*
X60786221Y-112770021D01*
X60786221Y-112770021D02*
X62510000Y-111046242D01*
X62510000Y-111046242D02*
X62510000Y-109880000D01*
X61400000Y-109210000D02*
X61840000Y-109210000D01*
X61840000Y-109210000D02*
X62510000Y-109880000D01*
X50870000Y-117390000D02*
X50870000Y-117290000D01*
X50870000Y-117290000D02*
X47870000Y-114290000D01*
X47870000Y-114290000D02*
X47870000Y-113990000D01*
X50570000Y-113990000D02*
X60273362Y-113990000D01*
X63160001Y-111103361D02*
X63160001Y-109590001D01*
X60273362Y-113990000D02*
X63160001Y-111103361D01*
X63160001Y-109590001D02*
X62280000Y-108710000D01*
X62280000Y-108710000D02*
X61400000Y-108710000D01*
X50570000Y-113990000D02*
X50670000Y-113990000D01*
X50670000Y-113990000D02*
X53310000Y-116630000D01*
X53310000Y-116630000D02*
X53310000Y-117370000D01*
X59300000Y-107110000D02*
X59300000Y-106280000D01*
X59300000Y-106280000D02*
X62230000Y-103350000D01*
X62230000Y-103350000D02*
X64430000Y-103350000D01*
X61860000Y-105920000D02*
X63510000Y-107570000D01*
X63510000Y-107570000D02*
X65260000Y-107570000D01*
X67180000Y-105650000D02*
X67330000Y-105650000D01*
X65260000Y-107570000D02*
X67180000Y-105650000D01*
X60415000Y-105920000D02*
X61860000Y-105920000D01*
X59800000Y-107110000D02*
X59800000Y-106535000D01*
X59800000Y-106535000D02*
X60415000Y-105920000D01*
X46630001Y-107249999D02*
X46780000Y-107100000D01*
X43000000Y-119000000D02*
X43000000Y-118236002D01*
X43000000Y-118236002D02*
X44229990Y-117006012D01*
X44229990Y-117006012D02*
X44229990Y-110173132D01*
X45660000Y-106300000D02*
X46780000Y-106300000D01*
X44229990Y-110173132D02*
X44700011Y-109703111D01*
X44700011Y-109703111D02*
X44700011Y-108136889D01*
X44700011Y-108136889D02*
X44280000Y-107716878D01*
X44280000Y-107716878D02*
X44280000Y-107680000D01*
X44280000Y-107680000D02*
X45660000Y-106300000D01*
D32*
G36*
X67444321Y-45007921D02*
X72561283Y-45499936D01*
X74702773Y-46151694D01*
X77025573Y-47609138D01*
X78229743Y-49660686D01*
X78650464Y-51624050D01*
X79643016Y-58671172D01*
X80091309Y-66043096D01*
X80391275Y-71042524D01*
X80391503Y-71043396D01*
X80391383Y-71044289D01*
X80640884Y-75036310D01*
X80839806Y-80009361D01*
X80832090Y-80575210D01*
X80506120Y-80087360D01*
X79975687Y-79732937D01*
X79350000Y-79608480D01*
X78724313Y-79732937D01*
X78193880Y-80087360D01*
X77983271Y-80402560D01*
X77350000Y-80402560D01*
X77114683Y-80446838D01*
X76898559Y-80585910D01*
X76753569Y-80798110D01*
X76702560Y-81050000D01*
X76702560Y-84050000D01*
X76746838Y-84285317D01*
X76885910Y-84501441D01*
X77098110Y-84646431D01*
X77350000Y-84697440D01*
X77983271Y-84697440D01*
X78193880Y-85012640D01*
X78724313Y-85367063D01*
X79350000Y-85491520D01*
X79975687Y-85367063D01*
X80506120Y-85012640D01*
X80777110Y-84607073D01*
X80690121Y-90986306D01*
X80590300Y-94979132D01*
X80419676Y-100029600D01*
X79975687Y-99732937D01*
X79350000Y-99608480D01*
X78724313Y-99732937D01*
X78193880Y-100087360D01*
X77983271Y-100402560D01*
X77350000Y-100402560D01*
X77299892Y-100411988D01*
X77735278Y-99977363D01*
X77984716Y-99376648D01*
X77985284Y-98726205D01*
X77736894Y-98125057D01*
X77277363Y-97664722D01*
X76676648Y-97415284D01*
X76026205Y-97414716D01*
X75425057Y-97663106D01*
X74964722Y-98122637D01*
X74715284Y-98723352D01*
X74714716Y-99373795D01*
X74963106Y-99974943D01*
X75422637Y-100435278D01*
X76023352Y-100684716D01*
X76673795Y-100685284D01*
X76892368Y-100594971D01*
X76753569Y-100798110D01*
X76702560Y-101050000D01*
X76702560Y-104050000D01*
X76717338Y-104128537D01*
X76636890Y-104073569D01*
X76385000Y-104022560D01*
X75135000Y-104022560D01*
X74899683Y-104066838D01*
X74788650Y-104138286D01*
X74753162Y-103949683D01*
X74614090Y-103733559D01*
X74401890Y-103588569D01*
X74150000Y-103537560D01*
X72650000Y-103537560D01*
X72414683Y-103581838D01*
X72198559Y-103720910D01*
X72152031Y-103789006D01*
X72009698Y-103646673D01*
X71776309Y-103550000D01*
X71185750Y-103550000D01*
X71027000Y-103708750D01*
X71027000Y-104683000D01*
X71047000Y-104683000D01*
X71047000Y-104937000D01*
X71027000Y-104937000D01*
X71027000Y-106783000D01*
X71047000Y-106783000D01*
X71047000Y-107037000D01*
X71027000Y-107037000D01*
X71027000Y-107938750D01*
X71017000Y-107948750D01*
X71017000Y-108923000D01*
X71037000Y-108923000D01*
X71037000Y-109177000D01*
X71017000Y-109177000D01*
X71017000Y-111053000D01*
X72116250Y-111053000D01*
X72275000Y-110894250D01*
X72275000Y-110428690D01*
X72178327Y-110195301D01*
X72098026Y-110115000D01*
X72140936Y-110072090D01*
X72175910Y-110126441D01*
X72388110Y-110271431D01*
X72640000Y-110322440D01*
X74140000Y-110322440D01*
X74375317Y-110278162D01*
X74591441Y-110139090D01*
X74736431Y-109926890D01*
X74787440Y-109675000D01*
X74787440Y-109213355D01*
X75008690Y-109305000D01*
X75474250Y-109305000D01*
X75633000Y-109146250D01*
X75633000Y-108047000D01*
X75887000Y-108047000D01*
X75887000Y-109146250D01*
X76045750Y-109305000D01*
X76511310Y-109305000D01*
X76744699Y-109208327D01*
X76923327Y-109029698D01*
X77020000Y-108796309D01*
X77020000Y-108205750D01*
X76861250Y-108047000D01*
X75887000Y-108047000D01*
X75633000Y-108047000D01*
X75613000Y-108047000D01*
X75613000Y-107793000D01*
X75633000Y-107793000D01*
X75633000Y-107773000D01*
X75887000Y-107773000D01*
X75887000Y-107793000D01*
X76861250Y-107793000D01*
X77020000Y-107634250D01*
X77020000Y-107043691D01*
X76923327Y-106810302D01*
X76782090Y-106669064D01*
X76836441Y-106634090D01*
X76981431Y-106421890D01*
X77032440Y-106170000D01*
X77032440Y-104670000D01*
X77017662Y-104591463D01*
X77098110Y-104646431D01*
X77350000Y-104697440D01*
X77983271Y-104697440D01*
X78193880Y-105012640D01*
X78724313Y-105367063D01*
X79350000Y-105491520D01*
X79975687Y-105367063D01*
X80260630Y-105176671D01*
X79890319Y-118178708D01*
X79690895Y-124460543D01*
X77399705Y-153249843D01*
X77235061Y-153710847D01*
X75600615Y-155345293D01*
X74714225Y-155921446D01*
X73781956Y-156320990D01*
X71387004Y-156847880D01*
X68053507Y-157191034D01*
X61042283Y-157389934D01*
X53534556Y-157340214D01*
X47564011Y-156797437D01*
X45966565Y-156421567D01*
X44746698Y-155924585D01*
X43954006Y-155352085D01*
X43084135Y-154527997D01*
X42452842Y-153671242D01*
X41164836Y-151238345D01*
X40845563Y-150052474D01*
X40604235Y-148507969D01*
X40407144Y-146635606D01*
X39508354Y-134951327D01*
X39058705Y-127517135D01*
X39057045Y-127510813D01*
X39058305Y-127500963D01*
X38608305Y-121000964D01*
X38608097Y-121000200D01*
X38608196Y-120999414D01*
X38490873Y-119356890D01*
X39018524Y-119356890D01*
X39188355Y-119766924D01*
X39578642Y-120195183D01*
X40103108Y-120441486D01*
X40333000Y-120320819D01*
X40333000Y-119127000D01*
X39139845Y-119127000D01*
X39018524Y-119356890D01*
X38490873Y-119356890D01*
X38108479Y-114003377D01*
X37809363Y-109018110D01*
X37688979Y-105005305D01*
X37693880Y-105012640D01*
X38224313Y-105367063D01*
X38850000Y-105491520D01*
X39475687Y-105367063D01*
X40006120Y-105012640D01*
X40216729Y-104697440D01*
X40560272Y-104697440D01*
X40427808Y-104829673D01*
X40285162Y-105173201D01*
X40284838Y-105545167D01*
X40316952Y-105622888D01*
X38704920Y-107234920D01*
X38534754Y-107489592D01*
X38490912Y-107710000D01*
X38474999Y-107789999D01*
X38474999Y-112799999D01*
X38534754Y-113100406D01*
X38704920Y-113355078D01*
X39012924Y-113663082D01*
X38945907Y-114000000D01*
X39058946Y-114568285D01*
X39358804Y-115017056D01*
X39158559Y-115145910D01*
X39013569Y-115358110D01*
X38962560Y-115610000D01*
X38962560Y-117310000D01*
X39006838Y-117545317D01*
X39145910Y-117761441D01*
X39358110Y-117906431D01*
X39466107Y-117928301D01*
X39188355Y-118233076D01*
X39018524Y-118643110D01*
X39139845Y-118873000D01*
X40333000Y-118873000D01*
X40333000Y-118853000D01*
X40587000Y-118853000D01*
X40587000Y-118873000D01*
X40607000Y-118873000D01*
X40607000Y-119127000D01*
X40587000Y-119127000D01*
X40587000Y-120320819D01*
X40816892Y-120441486D01*
X41014999Y-120348450D01*
X41014999Y-135494397D01*
X40964755Y-135569593D01*
X40964755Y-135569594D01*
X40905000Y-135870000D01*
X40905000Y-145440000D01*
X40964755Y-145740407D01*
X41134921Y-145995079D01*
X41794921Y-146655079D01*
X42044274Y-146821691D01*
X42046838Y-146835317D01*
X42185910Y-147051441D01*
X42398110Y-147196431D01*
X42650000Y-147247440D01*
X45400000Y-147247440D01*
X45635317Y-147203162D01*
X45851441Y-147064090D01*
X45973808Y-146885000D01*
X47828808Y-146885000D01*
X47935910Y-147051441D01*
X48148110Y-147196431D01*
X48400000Y-147247440D01*
X51150000Y-147247440D01*
X51385317Y-147203162D01*
X51601441Y-147064090D01*
X51746431Y-146851890D01*
X51797440Y-146600000D01*
X51797440Y-145600000D01*
X51753162Y-145364683D01*
X51614090Y-145148559D01*
X51401890Y-145003569D01*
X51150000Y-144952560D01*
X48400000Y-144952560D01*
X48164683Y-144996838D01*
X47948559Y-145135910D01*
X47826192Y-145315000D01*
X45971192Y-145315000D01*
X45864090Y-145148559D01*
X45651890Y-145003569D01*
X45400000Y-144952560D01*
X42650000Y-144952560D01*
X42475000Y-144985489D01*
X42475000Y-143214832D01*
X42523691Y-143235000D01*
X43739250Y-143235000D01*
X43898000Y-143076250D01*
X43898000Y-142227000D01*
X44152000Y-142227000D01*
X44152000Y-143076250D01*
X44310750Y-143235000D01*
X45526309Y-143235000D01*
X45759698Y-143138327D01*
X45938327Y-142959699D01*
X46035000Y-142726310D01*
X46035000Y-142385750D01*
X47765000Y-142385750D01*
X47765000Y-142726310D01*
X47861673Y-142959699D01*
X48040302Y-143138327D01*
X48273691Y-143235000D01*
X49489250Y-143235000D01*
X49648000Y-143076250D01*
X49648000Y-142227000D01*
X49902000Y-142227000D01*
X49902000Y-143076250D01*
X50060750Y-143235000D01*
X51276309Y-143235000D01*
X51509698Y-143138327D01*
X51688327Y-142959699D01*
X51785000Y-142726310D01*
X51785000Y-142385750D01*
X51626250Y-142227000D01*
X49902000Y-142227000D01*
X49648000Y-142227000D01*
X47923750Y-142227000D01*
X47765000Y-142385750D01*
X46035000Y-142385750D01*
X45876250Y-142227000D01*
X44152000Y-142227000D01*
X43898000Y-142227000D01*
X43878000Y-142227000D01*
X43878000Y-141973000D01*
X43898000Y-141973000D01*
X43898000Y-141123750D01*
X44152000Y-141123750D01*
X44152000Y-141973000D01*
X45876250Y-141973000D01*
X46035000Y-141814250D01*
X46035000Y-141473690D01*
X47765000Y-141473690D01*
X47765000Y-141814250D01*
X47923750Y-141973000D01*
X49648000Y-141973000D01*
X49648000Y-141123750D01*
X49902000Y-141123750D01*
X49902000Y-141973000D01*
X51626250Y-141973000D01*
X51785000Y-141814250D01*
X51785000Y-141473690D01*
X51688327Y-141240301D01*
X51509698Y-141061673D01*
X51276309Y-140965000D01*
X50060750Y-140965000D01*
X49902000Y-141123750D01*
X49648000Y-141123750D01*
X49489250Y-140965000D01*
X48273691Y-140965000D01*
X48040302Y-141061673D01*
X47861673Y-141240301D01*
X47765000Y-141473690D01*
X46035000Y-141473690D01*
X45938327Y-141240301D01*
X45759698Y-141061673D01*
X45526309Y-140965000D01*
X44310750Y-140965000D01*
X44152000Y-141123750D01*
X43898000Y-141123750D01*
X43739250Y-140965000D01*
X42523691Y-140965000D01*
X42475000Y-140985168D01*
X42475000Y-136135604D01*
X42525244Y-136060408D01*
X42584999Y-135760001D01*
X42584999Y-133527826D01*
X42830000Y-133577440D01*
X44130000Y-133577440D01*
X44365317Y-133533162D01*
X44581441Y-133394090D01*
X44726431Y-133181890D01*
X44777440Y-132930000D01*
X44777440Y-131430000D01*
X44733162Y-131194683D01*
X44594090Y-130978559D01*
X44381890Y-130833569D01*
X44368803Y-130830919D01*
X44581441Y-130694090D01*
X44726431Y-130481890D01*
X44777440Y-130230000D01*
X44777440Y-128945750D01*
X45460000Y-128945750D01*
X45460000Y-129536309D01*
X45556673Y-129769698D01*
X45735301Y-129948327D01*
X45968690Y-130045000D01*
X46434250Y-130045000D01*
X46593000Y-129886250D01*
X46593000Y-128787000D01*
X46847000Y-128787000D01*
X46847000Y-129886250D01*
X47005750Y-130045000D01*
X47471310Y-130045000D01*
X47704699Y-129948327D01*
X47883327Y-129769698D01*
X47980000Y-129536309D01*
X47980000Y-128945750D01*
X48540000Y-128945750D01*
X48540000Y-129536309D01*
X48636673Y-129769698D01*
X48815301Y-129948327D01*
X49048690Y-130045000D01*
X49514250Y-130045000D01*
X49673000Y-129886250D01*
X49673000Y-128787000D01*
X49927000Y-128787000D01*
X49927000Y-129886250D01*
X50085750Y-130045000D01*
X50551310Y-130045000D01*
X50784699Y-129948327D01*
X50963327Y-129769698D01*
X51060000Y-129536309D01*
X51060000Y-128975750D01*
X51530000Y-128975750D01*
X51530000Y-129566309D01*
X51626673Y-129799698D01*
X51805301Y-129978327D01*
X52038690Y-130075000D01*
X52504250Y-130075000D01*
X52663000Y-129916250D01*
X52663000Y-128817000D01*
X52917000Y-128817000D01*
X52917000Y-129916250D01*
X53075750Y-130075000D01*
X53541310Y-130075000D01*
X53774699Y-129978327D01*
X53953327Y-129799698D01*
X54050000Y-129566309D01*
X54050000Y-128975750D01*
X53891250Y-128817000D01*
X52917000Y-128817000D01*
X52663000Y-128817000D01*
X51688750Y-128817000D01*
X51530000Y-128975750D01*
X51060000Y-128975750D01*
X51060000Y-128945750D01*
X50901250Y-128787000D01*
X49927000Y-128787000D01*
X49673000Y-128787000D01*
X48698750Y-128787000D01*
X48540000Y-128945750D01*
X47980000Y-128945750D01*
X47821250Y-128787000D01*
X46847000Y-128787000D01*
X46593000Y-128787000D01*
X45618750Y-128787000D01*
X45460000Y-128945750D01*
X44777440Y-128945750D01*
X44777440Y-128730000D01*
X44733162Y-128494683D01*
X44594090Y-128278559D01*
X44381890Y-128133569D01*
X44205000Y-128097748D01*
X44205000Y-127012038D01*
X44305317Y-126993162D01*
X44521441Y-126854090D01*
X44666431Y-126641890D01*
X44717440Y-126390000D01*
X44717440Y-124890000D01*
X44673162Y-124654683D01*
X44534090Y-124438559D01*
X44321890Y-124293569D01*
X44308803Y-124290919D01*
X44521441Y-124154090D01*
X44666431Y-123941890D01*
X44717440Y-123690000D01*
X44717440Y-122652718D01*
X44902560Y-122467598D01*
X44902560Y-123650000D01*
X44946838Y-123885317D01*
X45085910Y-124101441D01*
X45298110Y-124246431D01*
X45550000Y-124297440D01*
X45935000Y-124297440D01*
X45935000Y-124792666D01*
X45859683Y-124806838D01*
X45643559Y-124945910D01*
X45498569Y-125158110D01*
X45447560Y-125410000D01*
X45447560Y-126910000D01*
X45491838Y-127145317D01*
X45630910Y-127361441D01*
X45699006Y-127407969D01*
X45556673Y-127550302D01*
X45460000Y-127783691D01*
X45460000Y-128374250D01*
X45618750Y-128533000D01*
X46593000Y-128533000D01*
X46593000Y-128513000D01*
X46847000Y-128513000D01*
X46847000Y-128533000D01*
X47821250Y-128533000D01*
X47980000Y-128374250D01*
X47980000Y-127783691D01*
X47883327Y-127550302D01*
X47742090Y-127409064D01*
X47796441Y-127374090D01*
X47941431Y-127161890D01*
X47992440Y-126910000D01*
X47992440Y-125410000D01*
X47948162Y-125174683D01*
X47809090Y-124958559D01*
X47596890Y-124813569D01*
X47505000Y-124794961D01*
X47505000Y-124108881D01*
X47646431Y-123901890D01*
X47649081Y-123888803D01*
X47785910Y-124101441D01*
X47998110Y-124246431D01*
X48215000Y-124290352D01*
X48215000Y-124310000D01*
X48274755Y-124610407D01*
X48444921Y-124865079D01*
X48643265Y-125063423D01*
X48578569Y-125158110D01*
X48527560Y-125410000D01*
X48527560Y-126910000D01*
X48571838Y-127145317D01*
X48710910Y-127361441D01*
X48779006Y-127407969D01*
X48636673Y-127550302D01*
X48540000Y-127783691D01*
X48540000Y-128374250D01*
X48698750Y-128533000D01*
X49673000Y-128533000D01*
X49673000Y-128513000D01*
X49927000Y-128513000D01*
X49927000Y-128533000D01*
X50901250Y-128533000D01*
X51060000Y-128374250D01*
X51060000Y-127783691D01*
X50963327Y-127550302D01*
X50822090Y-127409064D01*
X50876441Y-127374090D01*
X51021431Y-127161890D01*
X51072440Y-126910000D01*
X51072440Y-126507598D01*
X51309921Y-126745079D01*
X51517560Y-126883818D01*
X51517560Y-126940000D01*
X51561838Y-127175317D01*
X51700910Y-127391441D01*
X51769006Y-127437969D01*
X51626673Y-127580302D01*
X51530000Y-127813691D01*
X51530000Y-128404250D01*
X51688750Y-128563000D01*
X52663000Y-128563000D01*
X52663000Y-128543000D01*
X52917000Y-128543000D01*
X52917000Y-128563000D01*
X53891250Y-128563000D01*
X54050000Y-128404250D01*
X54050000Y-127813691D01*
X53953327Y-127580302D01*
X53812090Y-127439064D01*
X53866441Y-127404090D01*
X54011431Y-127191890D01*
X54062440Y-126940000D01*
X54062440Y-125440000D01*
X54018162Y-125204683D01*
X53879090Y-124988559D01*
X53666890Y-124843569D01*
X53415000Y-124792560D01*
X52165000Y-124792560D01*
X52085000Y-124807613D01*
X52085000Y-124290854D01*
X52285317Y-124253162D01*
X52501441Y-124114090D01*
X52646431Y-123901890D01*
X52649081Y-123888803D01*
X52785910Y-124101441D01*
X52998110Y-124246431D01*
X53250000Y-124297440D01*
X54750000Y-124297440D01*
X54985317Y-124253162D01*
X55201441Y-124114090D01*
X55346431Y-123901890D01*
X55397440Y-123650000D01*
X55397440Y-122350000D01*
X55353162Y-122114683D01*
X55214090Y-121898559D01*
X55001890Y-121753569D01*
X54881058Y-121729100D01*
X55485079Y-121125079D01*
X55655245Y-120870407D01*
X55715000Y-120570000D01*
X55715000Y-120357506D01*
X55722192Y-120350327D01*
X55864838Y-120006799D01*
X55865162Y-119634833D01*
X55723117Y-119291057D01*
X55460327Y-119027808D01*
X55116799Y-118885162D01*
X54744833Y-118884838D01*
X54553098Y-118964061D01*
X54538162Y-118884683D01*
X54399090Y-118668559D01*
X54329289Y-118620866D01*
X54386441Y-118584090D01*
X54531431Y-118371890D01*
X54582440Y-118120000D01*
X54582440Y-116620000D01*
X54538162Y-116384683D01*
X54399090Y-116168559D01*
X54186890Y-116023569D01*
X53935000Y-115972560D01*
X53762718Y-115972560D01*
X52565158Y-114775000D01*
X60273362Y-114775000D01*
X60573769Y-114715245D01*
X60828441Y-114545079D01*
X63715080Y-111658440D01*
X63885246Y-111403768D01*
X63945001Y-111103361D01*
X63945001Y-110555000D01*
X66992560Y-110555000D01*
X66992560Y-111805000D01*
X67036838Y-112040317D01*
X67175910Y-112256441D01*
X67388110Y-112401431D01*
X67640000Y-112452440D01*
X69140000Y-112452440D01*
X69375317Y-112408162D01*
X69591441Y-112269090D01*
X69637969Y-112200994D01*
X69780302Y-112343327D01*
X70013691Y-112440000D01*
X70604250Y-112440000D01*
X70763000Y-112281250D01*
X70763000Y-111307000D01*
X71017000Y-111307000D01*
X71017000Y-112281250D01*
X71175750Y-112440000D01*
X71766309Y-112440000D01*
X71999698Y-112343327D01*
X72178327Y-112164699D01*
X72275000Y-111931310D01*
X72275000Y-111465750D01*
X72116250Y-111307000D01*
X71017000Y-111307000D01*
X70763000Y-111307000D01*
X70743000Y-111307000D01*
X70743000Y-111053000D01*
X70763000Y-111053000D01*
X70763000Y-109177000D01*
X69663750Y-109177000D01*
X69505000Y-109335750D01*
X69505000Y-109801310D01*
X69601673Y-110034699D01*
X69681974Y-110115000D01*
X69639064Y-110157910D01*
X69604090Y-110103559D01*
X69391890Y-109958569D01*
X69140000Y-109907560D01*
X67640000Y-109907560D01*
X67404683Y-109951838D01*
X67188559Y-110090910D01*
X67043569Y-110303110D01*
X66992560Y-110555000D01*
X63945001Y-110555000D01*
X63945001Y-109590001D01*
X63929168Y-109510406D01*
X63885246Y-109289594D01*
X63715080Y-109034922D01*
X62835079Y-108154921D01*
X62580407Y-107984755D01*
X62297700Y-107928521D01*
X62278162Y-107824683D01*
X62154204Y-107632046D01*
X62308046Y-107478204D01*
X62954921Y-108125079D01*
X63209593Y-108295245D01*
X63510000Y-108355000D01*
X65260000Y-108355000D01*
X65543087Y-108298690D01*
X69505000Y-108298690D01*
X69505000Y-108764250D01*
X69663750Y-108923000D01*
X70763000Y-108923000D01*
X70763000Y-108021250D01*
X70773000Y-108011250D01*
X70773000Y-107037000D01*
X69673750Y-107037000D01*
X69515000Y-107195750D01*
X69515000Y-107661310D01*
X69611673Y-107894699D01*
X69691974Y-107975000D01*
X69601673Y-108065301D01*
X69505000Y-108298690D01*
X65543087Y-108298690D01*
X65560407Y-108295245D01*
X65815079Y-108125079D01*
X66742718Y-107197440D01*
X68380000Y-107197440D01*
X68615317Y-107153162D01*
X68831441Y-107014090D01*
X68976431Y-106801890D01*
X69027440Y-106550000D01*
X69027440Y-105095750D01*
X69515000Y-105095750D01*
X69515000Y-105561310D01*
X69611673Y-105794699D01*
X69676974Y-105860000D01*
X69611673Y-105925301D01*
X69515000Y-106158690D01*
X69515000Y-106624250D01*
X69673750Y-106783000D01*
X70773000Y-106783000D01*
X70773000Y-104937000D01*
X69673750Y-104937000D01*
X69515000Y-105095750D01*
X69027440Y-105095750D01*
X69027440Y-104750000D01*
X68983162Y-104514683D01*
X68967662Y-104490595D01*
X69015000Y-104376310D01*
X69015000Y-104058690D01*
X69515000Y-104058690D01*
X69515000Y-104524250D01*
X69673750Y-104683000D01*
X70773000Y-104683000D01*
X70773000Y-103708750D01*
X70614250Y-103550000D01*
X70023691Y-103550000D01*
X69790302Y-103646673D01*
X69611673Y-103825301D01*
X69515000Y-104058690D01*
X69015000Y-104058690D01*
X69015000Y-103635750D01*
X68856250Y-103477000D01*
X67457000Y-103477000D01*
X67457000Y-103497000D01*
X67203000Y-103497000D01*
X67203000Y-103477000D01*
X67183000Y-103477000D01*
X67183000Y-103223000D01*
X67203000Y-103223000D01*
X67203000Y-101973750D01*
X67457000Y-101973750D01*
X67457000Y-103223000D01*
X68856250Y-103223000D01*
X69015000Y-103064250D01*
X69015000Y-102323690D01*
X68918327Y-102090301D01*
X68739698Y-101911673D01*
X68506309Y-101815000D01*
X67615750Y-101815000D01*
X67457000Y-101973750D01*
X67203000Y-101973750D01*
X67044250Y-101815000D01*
X66153691Y-101815000D01*
X65920302Y-101911673D01*
X65878340Y-101953634D01*
X65731890Y-101853569D01*
X65480000Y-101802560D01*
X63380000Y-101802560D01*
X63144683Y-101846838D01*
X62928559Y-101985910D01*
X62783569Y-102198110D01*
X62732560Y-102450000D01*
X62732560Y-102565000D01*
X62230000Y-102565000D01*
X61929594Y-102624755D01*
X61674921Y-102794921D01*
X59771150Y-104698692D01*
X59735707Y-104663188D01*
X59392179Y-104520542D01*
X59020213Y-104520218D01*
X58676437Y-104662263D01*
X58623608Y-104715000D01*
X56677440Y-104715000D01*
X56677440Y-104400000D01*
X56657933Y-104296329D01*
X56677440Y-104200000D01*
X56677440Y-103600000D01*
X56657933Y-103496329D01*
X56677440Y-103400000D01*
X56677440Y-102800000D01*
X56633162Y-102564683D01*
X56494090Y-102348559D01*
X56281890Y-102203569D01*
X56030000Y-102152560D01*
X54777440Y-102152560D01*
X54777440Y-100900000D01*
X54733162Y-100664683D01*
X54615000Y-100481054D01*
X54615000Y-100402880D01*
X54555245Y-100102474D01*
X54385079Y-99847801D01*
X50027440Y-95490162D01*
X50027440Y-95260000D01*
X49983162Y-95024683D01*
X49844090Y-94808559D01*
X49631890Y-94663569D01*
X49380000Y-94612560D01*
X48080000Y-94612560D01*
X47984373Y-94630554D01*
X47953162Y-94464683D01*
X47945658Y-94453021D01*
X47946431Y-94451890D01*
X47997440Y-94200000D01*
X47997440Y-92400000D01*
X47953162Y-92164683D01*
X47814090Y-91948559D01*
X47601890Y-91803569D01*
X47350000Y-91752560D01*
X45250000Y-91752560D01*
X45014683Y-91796838D01*
X44848523Y-91903759D01*
X44701890Y-91803569D01*
X44450000Y-91752560D01*
X42350000Y-91752560D01*
X42114683Y-91796838D01*
X41898559Y-91935910D01*
X41753569Y-92148110D01*
X41702560Y-92400000D01*
X41702560Y-94200000D01*
X41746838Y-94435317D01*
X41762338Y-94459405D01*
X41715000Y-94573690D01*
X41715000Y-95314250D01*
X41873750Y-95473000D01*
X42826573Y-95473000D01*
X42979594Y-95575245D01*
X43280000Y-95635000D01*
X43547000Y-95581890D01*
X43547000Y-95727000D01*
X43527000Y-95727000D01*
X43527000Y-98063000D01*
X44526250Y-98063000D01*
X44685000Y-97904250D01*
X44685000Y-97578311D01*
X44969999Y-97635001D01*
X46644843Y-97635001D01*
X47432560Y-98422718D01*
X47432560Y-99460000D01*
X47476838Y-99695317D01*
X47615910Y-99911441D01*
X47828110Y-100056431D01*
X48080000Y-100107440D01*
X49380000Y-100107440D01*
X49615317Y-100063162D01*
X49831441Y-99924090D01*
X49976431Y-99711890D01*
X50020352Y-99495000D01*
X50814842Y-99495000D01*
X51647221Y-100327379D01*
X51478559Y-100435910D01*
X51430866Y-100505711D01*
X51394090Y-100448559D01*
X51184823Y-100305573D01*
X51144250Y-100265000D01*
X51003691Y-100265000D01*
X50999665Y-100266668D01*
X50930000Y-100252560D01*
X50330000Y-100252560D01*
X50258676Y-100265981D01*
X50256309Y-100265000D01*
X50115750Y-100265000D01*
X50064471Y-100316279D01*
X49878559Y-100435910D01*
X49830866Y-100505711D01*
X49794090Y-100448559D01*
X49584823Y-100305573D01*
X49544250Y-100265000D01*
X49403691Y-100265000D01*
X49399665Y-100266668D01*
X49330000Y-100252560D01*
X48730000Y-100252560D01*
X48626329Y-100272067D01*
X48530000Y-100252560D01*
X47930000Y-100252560D01*
X47694683Y-100296838D01*
X47478559Y-100435910D01*
X47333569Y-100648110D01*
X47282560Y-100900000D01*
X47282560Y-102152560D01*
X46030000Y-102152560D01*
X45794683Y-102196838D01*
X45619207Y-102309754D01*
X45554090Y-102208559D01*
X45341890Y-102063569D01*
X45090000Y-102012560D01*
X44563981Y-102012560D01*
X44646431Y-101891890D01*
X44697440Y-101640000D01*
X44697440Y-100140000D01*
X44653162Y-99904683D01*
X44514090Y-99688559D01*
X44301890Y-99543569D01*
X44268510Y-99536809D01*
X44409699Y-99478327D01*
X44588327Y-99299698D01*
X44685000Y-99066309D01*
X44685000Y-98475750D01*
X44526250Y-98317000D01*
X43527000Y-98317000D01*
X43527000Y-98337000D01*
X43273000Y-98337000D01*
X43273000Y-98317000D01*
X42273750Y-98317000D01*
X42155454Y-98435296D01*
X42115000Y-98394842D01*
X42115000Y-97904250D01*
X42273750Y-98063000D01*
X43273000Y-98063000D01*
X43273000Y-95727000D01*
X41873750Y-95727000D01*
X41715000Y-95885750D01*
X41715000Y-96626310D01*
X41811673Y-96859699D01*
X41990302Y-97038327D01*
X42194094Y-97122741D01*
X42115000Y-97313691D01*
X42115000Y-97849998D01*
X42055245Y-97549592D01*
X41885079Y-97294919D01*
X41195080Y-96604920D01*
X40977199Y-96459337D01*
X41007440Y-96310000D01*
X41007440Y-94810000D01*
X40963162Y-94574683D01*
X40824090Y-94358559D01*
X40611890Y-94213569D01*
X40360000Y-94162560D01*
X39060000Y-94162560D01*
X38824683Y-94206838D01*
X38608559Y-94345910D01*
X38463569Y-94558110D01*
X38412560Y-94810000D01*
X38412560Y-96310000D01*
X38456838Y-96545317D01*
X38595910Y-96761441D01*
X38808110Y-96906431D01*
X38821197Y-96909081D01*
X38608559Y-97045910D01*
X38463569Y-97258110D01*
X38412560Y-97510000D01*
X38412560Y-99010000D01*
X38456838Y-99245317D01*
X38595910Y-99461441D01*
X38808110Y-99606431D01*
X38833972Y-99611668D01*
X38224313Y-99732937D01*
X37693880Y-100087360D01*
X37531527Y-100330339D01*
X37310000Y-93937704D01*
X37310000Y-90959247D01*
X37473334Y-84682568D01*
X37693880Y-85012640D01*
X38224313Y-85367063D01*
X38850000Y-85491520D01*
X39475687Y-85367063D01*
X40006120Y-85012640D01*
X40216729Y-84697440D01*
X40850000Y-84697440D01*
X41085317Y-84653162D01*
X41301441Y-84514090D01*
X41446431Y-84301890D01*
X41497440Y-84050000D01*
X41497440Y-81050000D01*
X41453162Y-80814683D01*
X41314090Y-80598559D01*
X41101890Y-80453569D01*
X40850000Y-80402560D01*
X40216729Y-80402560D01*
X40006120Y-80087360D01*
X39475687Y-79732937D01*
X38850000Y-79608480D01*
X38224313Y-79732937D01*
X37693880Y-80087360D01*
X37588820Y-80244594D01*
X37659522Y-77527605D01*
X37900556Y-72873795D01*
X40214716Y-72873795D01*
X40463106Y-73474943D01*
X40922637Y-73935278D01*
X41523352Y-74184716D01*
X42173795Y-74185284D01*
X42774943Y-73936894D01*
X43235278Y-73477363D01*
X43484716Y-72876648D01*
X43485284Y-72226205D01*
X43236894Y-71625057D01*
X43009675Y-71397440D01*
X47700000Y-71397440D01*
X47935317Y-71353162D01*
X48151441Y-71214090D01*
X48296431Y-71001890D01*
X48347440Y-70750000D01*
X48347440Y-68285750D01*
X55365000Y-68285750D01*
X55365000Y-72126310D01*
X55461673Y-72359699D01*
X55640302Y-72538327D01*
X55873691Y-72635000D01*
X59714250Y-72635000D01*
X59873000Y-72476250D01*
X59873000Y-68127000D01*
X60127000Y-68127000D01*
X60127000Y-72476250D01*
X60285750Y-72635000D01*
X64126309Y-72635000D01*
X64359698Y-72538327D01*
X64538327Y-72359699D01*
X64635000Y-72126310D01*
X64635000Y-68285750D01*
X64476250Y-68127000D01*
X60127000Y-68127000D01*
X59873000Y-68127000D01*
X55523750Y-68127000D01*
X55365000Y-68285750D01*
X48347440Y-68285750D01*
X48347440Y-65250000D01*
X48303162Y-65014683D01*
X48164090Y-64798559D01*
X47951890Y-64653569D01*
X47700000Y-64602560D01*
X41700000Y-64602560D01*
X41464683Y-64646838D01*
X41248559Y-64785910D01*
X41103569Y-64998110D01*
X41052560Y-65250000D01*
X41052560Y-70750000D01*
X41096838Y-70985317D01*
X41151133Y-71069693D01*
X40925057Y-71163106D01*
X40464722Y-71622637D01*
X40215284Y-72223352D01*
X40214716Y-72873795D01*
X37900556Y-72873795D01*
X38308305Y-65001107D01*
X38412695Y-63873690D01*
X55365000Y-63873690D01*
X55365000Y-67714250D01*
X55523750Y-67873000D01*
X59873000Y-67873000D01*
X59873000Y-63523750D01*
X60127000Y-63523750D01*
X60127000Y-67873000D01*
X64476250Y-67873000D01*
X64635000Y-67714250D01*
X64635000Y-65250000D01*
X71652560Y-65250000D01*
X71652560Y-70750000D01*
X71696838Y-70985317D01*
X71835910Y-71201441D01*
X72048110Y-71346431D01*
X72300000Y-71397440D01*
X78300000Y-71397440D01*
X78535317Y-71353162D01*
X78751441Y-71214090D01*
X78896431Y-71001890D01*
X78947440Y-70750000D01*
X78947440Y-65250000D01*
X78903162Y-65014683D01*
X78764090Y-64798559D01*
X78551890Y-64653569D01*
X78300000Y-64602560D01*
X72300000Y-64602560D01*
X72064683Y-64646838D01*
X71848559Y-64785910D01*
X71703569Y-64998110D01*
X71652560Y-65250000D01*
X64635000Y-65250000D01*
X64635000Y-63873690D01*
X64538327Y-63640301D01*
X64359698Y-63461673D01*
X64126309Y-63365000D01*
X60285750Y-63365000D01*
X60127000Y-63523750D01*
X59873000Y-63523750D01*
X59714250Y-63365000D01*
X55873691Y-63365000D01*
X55640302Y-63461673D01*
X55461673Y-63640301D01*
X55365000Y-63873690D01*
X38412695Y-63873690D01*
X38805354Y-59632982D01*
X39549259Y-54425641D01*
X40585483Y-49650000D01*
X56333112Y-49650000D01*
X56608431Y-51034123D01*
X57392474Y-52207526D01*
X58565877Y-52991569D01*
X59950000Y-53266888D01*
X61334123Y-52991569D01*
X62507526Y-52207526D01*
X63291569Y-51034123D01*
X63566888Y-49650000D01*
X63291569Y-48265877D01*
X62507526Y-47092474D01*
X61334123Y-46308431D01*
X59950000Y-46033112D01*
X58565877Y-46308431D01*
X57392474Y-47092474D01*
X56608431Y-48265877D01*
X56333112Y-49650000D01*
X40585483Y-49650000D01*
X40673723Y-49243331D01*
X41229433Y-48174659D01*
X42004659Y-47399433D01*
X43149979Y-46620615D01*
X44257454Y-46113023D01*
X45578830Y-45688294D01*
X47003693Y-45403322D01*
X52694489Y-44858985D01*
X57660657Y-44710000D01*
X62578286Y-44710000D01*
X67444321Y-45007921D01*
X67444321Y-45007921D01*
G37*
X67444321Y-45007921D02*
X72561283Y-45499936D01*
X74702773Y-46151694D01*
X77025573Y-47609138D01*
X78229743Y-49660686D01*
X78650464Y-51624050D01*
X79643016Y-58671172D01*
X80091309Y-66043096D01*
X80391275Y-71042524D01*
X80391503Y-71043396D01*
X80391383Y-71044289D01*
X80640884Y-75036310D01*
X80839806Y-80009361D01*
X80832090Y-80575210D01*
X80506120Y-80087360D01*
X79975687Y-79732937D01*
X79350000Y-79608480D01*
X78724313Y-79732937D01*
X78193880Y-80087360D01*
X77983271Y-80402560D01*
X77350000Y-80402560D01*
X77114683Y-80446838D01*
X76898559Y-80585910D01*
X76753569Y-80798110D01*
X76702560Y-81050000D01*
X76702560Y-84050000D01*
X76746838Y-84285317D01*
X76885910Y-84501441D01*
X77098110Y-84646431D01*
X77350000Y-84697440D01*
X77983271Y-84697440D01*
X78193880Y-85012640D01*
X78724313Y-85367063D01*
X79350000Y-85491520D01*
X79975687Y-85367063D01*
X80506120Y-85012640D01*
X80777110Y-84607073D01*
X80690121Y-90986306D01*
X80590300Y-94979132D01*
X80419676Y-100029600D01*
X79975687Y-99732937D01*
X79350000Y-99608480D01*
X78724313Y-99732937D01*
X78193880Y-100087360D01*
X77983271Y-100402560D01*
X77350000Y-100402560D01*
X77299892Y-100411988D01*
X77735278Y-99977363D01*
X77984716Y-99376648D01*
X77985284Y-98726205D01*
X77736894Y-98125057D01*
X77277363Y-97664722D01*
X76676648Y-97415284D01*
X76026205Y-97414716D01*
X75425057Y-97663106D01*
X74964722Y-98122637D01*
X74715284Y-98723352D01*
X74714716Y-99373795D01*
X74963106Y-99974943D01*
X75422637Y-100435278D01*
X76023352Y-100684716D01*
X76673795Y-100685284D01*
X76892368Y-100594971D01*
X76753569Y-100798110D01*
X76702560Y-101050000D01*
X76702560Y-104050000D01*
X76717338Y-104128537D01*
X76636890Y-104073569D01*
X76385000Y-104022560D01*
X75135000Y-104022560D01*
X74899683Y-104066838D01*
X74788650Y-104138286D01*
X74753162Y-103949683D01*
X74614090Y-103733559D01*
X74401890Y-103588569D01*
X74150000Y-103537560D01*
X72650000Y-103537560D01*
X72414683Y-103581838D01*
X72198559Y-103720910D01*
X72152031Y-103789006D01*
X72009698Y-103646673D01*
X71776309Y-103550000D01*
X71185750Y-103550000D01*
X71027000Y-103708750D01*
X71027000Y-104683000D01*
X71047000Y-104683000D01*
X71047000Y-104937000D01*
X71027000Y-104937000D01*
X71027000Y-106783000D01*
X71047000Y-106783000D01*
X71047000Y-107037000D01*
X71027000Y-107037000D01*
X71027000Y-107938750D01*
X71017000Y-107948750D01*
X71017000Y-108923000D01*
X71037000Y-108923000D01*
X71037000Y-109177000D01*
X71017000Y-109177000D01*
X71017000Y-111053000D01*
X72116250Y-111053000D01*
X72275000Y-110894250D01*
X72275000Y-110428690D01*
X72178327Y-110195301D01*
X72098026Y-110115000D01*
X72140936Y-110072090D01*
X72175910Y-110126441D01*
X72388110Y-110271431D01*
X72640000Y-110322440D01*
X74140000Y-110322440D01*
X74375317Y-110278162D01*
X74591441Y-110139090D01*
X74736431Y-109926890D01*
X74787440Y-109675000D01*
X74787440Y-109213355D01*
X75008690Y-109305000D01*
X75474250Y-109305000D01*
X75633000Y-109146250D01*
X75633000Y-108047000D01*
X75887000Y-108047000D01*
X75887000Y-109146250D01*
X76045750Y-109305000D01*
X76511310Y-109305000D01*
X76744699Y-109208327D01*
X76923327Y-109029698D01*
X77020000Y-108796309D01*
X77020000Y-108205750D01*
X76861250Y-108047000D01*
X75887000Y-108047000D01*
X75633000Y-108047000D01*
X75613000Y-108047000D01*
X75613000Y-107793000D01*
X75633000Y-107793000D01*
X75633000Y-107773000D01*
X75887000Y-107773000D01*
X75887000Y-107793000D01*
X76861250Y-107793000D01*
X77020000Y-107634250D01*
X77020000Y-107043691D01*
X76923327Y-106810302D01*
X76782090Y-106669064D01*
X76836441Y-106634090D01*
X76981431Y-106421890D01*
X77032440Y-106170000D01*
X77032440Y-104670000D01*
X77017662Y-104591463D01*
X77098110Y-104646431D01*
X77350000Y-104697440D01*
X77983271Y-104697440D01*
X78193880Y-105012640D01*
X78724313Y-105367063D01*
X79350000Y-105491520D01*
X79975687Y-105367063D01*
X80260630Y-105176671D01*
X79890319Y-118178708D01*
X79690895Y-124460543D01*
X77399705Y-153249843D01*
X77235061Y-153710847D01*
X75600615Y-155345293D01*
X74714225Y-155921446D01*
X73781956Y-156320990D01*
X71387004Y-156847880D01*
X68053507Y-157191034D01*
X61042283Y-157389934D01*
X53534556Y-157340214D01*
X47564011Y-156797437D01*
X45966565Y-156421567D01*
X44746698Y-155924585D01*
X43954006Y-155352085D01*
X43084135Y-154527997D01*
X42452842Y-153671242D01*
X41164836Y-151238345D01*
X40845563Y-150052474D01*
X40604235Y-148507969D01*
X40407144Y-146635606D01*
X39508354Y-134951327D01*
X39058705Y-127517135D01*
X39057045Y-127510813D01*
X39058305Y-127500963D01*
X38608305Y-121000964D01*
X38608097Y-121000200D01*
X38608196Y-120999414D01*
X38490873Y-119356890D01*
X39018524Y-119356890D01*
X39188355Y-119766924D01*
X39578642Y-120195183D01*
X40103108Y-120441486D01*
X40333000Y-120320819D01*
X40333000Y-119127000D01*
X39139845Y-119127000D01*
X39018524Y-119356890D01*
X38490873Y-119356890D01*
X38108479Y-114003377D01*
X37809363Y-109018110D01*
X37688979Y-105005305D01*
X37693880Y-105012640D01*
X38224313Y-105367063D01*
X38850000Y-105491520D01*
X39475687Y-105367063D01*
X40006120Y-105012640D01*
X40216729Y-104697440D01*
X40560272Y-104697440D01*
X40427808Y-104829673D01*
X40285162Y-105173201D01*
X40284838Y-105545167D01*
X40316952Y-105622888D01*
X38704920Y-107234920D01*
X38534754Y-107489592D01*
X38490912Y-107710000D01*
X38474999Y-107789999D01*
X38474999Y-112799999D01*
X38534754Y-113100406D01*
X38704920Y-113355078D01*
X39012924Y-113663082D01*
X38945907Y-114000000D01*
X39058946Y-114568285D01*
X39358804Y-115017056D01*
X39158559Y-115145910D01*
X39013569Y-115358110D01*
X38962560Y-115610000D01*
X38962560Y-117310000D01*
X39006838Y-117545317D01*
X39145910Y-117761441D01*
X39358110Y-117906431D01*
X39466107Y-117928301D01*
X39188355Y-118233076D01*
X39018524Y-118643110D01*
X39139845Y-118873000D01*
X40333000Y-118873000D01*
X40333000Y-118853000D01*
X40587000Y-118853000D01*
X40587000Y-118873000D01*
X40607000Y-118873000D01*
X40607000Y-119127000D01*
X40587000Y-119127000D01*
X40587000Y-120320819D01*
X40816892Y-120441486D01*
X41014999Y-120348450D01*
X41014999Y-135494397D01*
X40964755Y-135569593D01*
X40964755Y-135569594D01*
X40905000Y-135870000D01*
X40905000Y-145440000D01*
X40964755Y-145740407D01*
X41134921Y-145995079D01*
X41794921Y-146655079D01*
X42044274Y-146821691D01*
X42046838Y-146835317D01*
X42185910Y-147051441D01*
X42398110Y-147196431D01*
X42650000Y-147247440D01*
X45400000Y-147247440D01*
X45635317Y-147203162D01*
X45851441Y-147064090D01*
X45973808Y-146885000D01*
X47828808Y-146885000D01*
X47935910Y-147051441D01*
X48148110Y-147196431D01*
X48400000Y-147247440D01*
X51150000Y-147247440D01*
X51385317Y-147203162D01*
X51601441Y-147064090D01*
X51746431Y-146851890D01*
X51797440Y-146600000D01*
X51797440Y-145600000D01*
X51753162Y-145364683D01*
X51614090Y-145148559D01*
X51401890Y-145003569D01*
X51150000Y-144952560D01*
X48400000Y-144952560D01*
X48164683Y-144996838D01*
X47948559Y-145135910D01*
X47826192Y-145315000D01*
X45971192Y-145315000D01*
X45864090Y-145148559D01*
X45651890Y-145003569D01*
X45400000Y-144952560D01*
X42650000Y-144952560D01*
X42475000Y-144985489D01*
X42475000Y-143214832D01*
X42523691Y-143235000D01*
X43739250Y-143235000D01*
X43898000Y-143076250D01*
X43898000Y-142227000D01*
X44152000Y-142227000D01*
X44152000Y-143076250D01*
X44310750Y-143235000D01*
X45526309Y-143235000D01*
X45759698Y-143138327D01*
X45938327Y-142959699D01*
X46035000Y-142726310D01*
X46035000Y-142385750D01*
X47765000Y-142385750D01*
X47765000Y-142726310D01*
X47861673Y-142959699D01*
X48040302Y-143138327D01*
X48273691Y-143235000D01*
X49489250Y-143235000D01*
X49648000Y-143076250D01*
X49648000Y-142227000D01*
X49902000Y-142227000D01*
X49902000Y-143076250D01*
X50060750Y-143235000D01*
X51276309Y-143235000D01*
X51509698Y-143138327D01*
X51688327Y-142959699D01*
X51785000Y-142726310D01*
X51785000Y-142385750D01*
X51626250Y-142227000D01*
X49902000Y-142227000D01*
X49648000Y-142227000D01*
X47923750Y-142227000D01*
X47765000Y-142385750D01*
X46035000Y-142385750D01*
X45876250Y-142227000D01*
X44152000Y-142227000D01*
X43898000Y-142227000D01*
X43878000Y-142227000D01*
X43878000Y-141973000D01*
X43898000Y-141973000D01*
X43898000Y-141123750D01*
X44152000Y-141123750D01*
X44152000Y-141973000D01*
X45876250Y-141973000D01*
X46035000Y-141814250D01*
X46035000Y-141473690D01*
X47765000Y-141473690D01*
X47765000Y-141814250D01*
X47923750Y-141973000D01*
X49648000Y-141973000D01*
X49648000Y-141123750D01*
X49902000Y-141123750D01*
X49902000Y-141973000D01*
X51626250Y-141973000D01*
X51785000Y-141814250D01*
X51785000Y-141473690D01*
X51688327Y-141240301D01*
X51509698Y-141061673D01*
X51276309Y-140965000D01*
X50060750Y-140965000D01*
X49902000Y-141123750D01*
X49648000Y-141123750D01*
X49489250Y-140965000D01*
X48273691Y-140965000D01*
X48040302Y-141061673D01*
X47861673Y-141240301D01*
X47765000Y-141473690D01*
X46035000Y-141473690D01*
X45938327Y-141240301D01*
X45759698Y-141061673D01*
X45526309Y-140965000D01*
X44310750Y-140965000D01*
X44152000Y-141123750D01*
X43898000Y-141123750D01*
X43739250Y-140965000D01*
X42523691Y-140965000D01*
X42475000Y-140985168D01*
X42475000Y-136135604D01*
X42525244Y-136060408D01*
X42584999Y-135760001D01*
X42584999Y-133527826D01*
X42830000Y-133577440D01*
X44130000Y-133577440D01*
X44365317Y-133533162D01*
X44581441Y-133394090D01*
X44726431Y-133181890D01*
X44777440Y-132930000D01*
X44777440Y-131430000D01*
X44733162Y-131194683D01*
X44594090Y-130978559D01*
X44381890Y-130833569D01*
X44368803Y-130830919D01*
X44581441Y-130694090D01*
X44726431Y-130481890D01*
X44777440Y-130230000D01*
X44777440Y-128945750D01*
X45460000Y-128945750D01*
X45460000Y-129536309D01*
X45556673Y-129769698D01*
X45735301Y-129948327D01*
X45968690Y-130045000D01*
X46434250Y-130045000D01*
X46593000Y-129886250D01*
X46593000Y-128787000D01*
X46847000Y-128787000D01*
X46847000Y-129886250D01*
X47005750Y-130045000D01*
X47471310Y-130045000D01*
X47704699Y-129948327D01*
X47883327Y-129769698D01*
X47980000Y-129536309D01*
X47980000Y-128945750D01*
X48540000Y-128945750D01*
X48540000Y-129536309D01*
X48636673Y-129769698D01*
X48815301Y-129948327D01*
X49048690Y-130045000D01*
X49514250Y-130045000D01*
X49673000Y-129886250D01*
X49673000Y-128787000D01*
X49927000Y-128787000D01*
X49927000Y-129886250D01*
X50085750Y-130045000D01*
X50551310Y-130045000D01*
X50784699Y-129948327D01*
X50963327Y-129769698D01*
X51060000Y-129536309D01*
X51060000Y-128975750D01*
X51530000Y-128975750D01*
X51530000Y-129566309D01*
X51626673Y-129799698D01*
X51805301Y-129978327D01*
X52038690Y-130075000D01*
X52504250Y-130075000D01*
X52663000Y-129916250D01*
X52663000Y-128817000D01*
X52917000Y-128817000D01*
X52917000Y-129916250D01*
X53075750Y-130075000D01*
X53541310Y-130075000D01*
X53774699Y-129978327D01*
X53953327Y-129799698D01*
X54050000Y-129566309D01*
X54050000Y-128975750D01*
X53891250Y-128817000D01*
X52917000Y-128817000D01*
X52663000Y-128817000D01*
X51688750Y-128817000D01*
X51530000Y-128975750D01*
X51060000Y-128975750D01*
X51060000Y-128945750D01*
X50901250Y-128787000D01*
X49927000Y-128787000D01*
X49673000Y-128787000D01*
X48698750Y-128787000D01*
X48540000Y-128945750D01*
X47980000Y-128945750D01*
X47821250Y-128787000D01*
X46847000Y-128787000D01*
X46593000Y-128787000D01*
X45618750Y-128787000D01*
X45460000Y-128945750D01*
X44777440Y-128945750D01*
X44777440Y-128730000D01*
X44733162Y-128494683D01*
X44594090Y-128278559D01*
X44381890Y-128133569D01*
X44205000Y-128097748D01*
X44205000Y-127012038D01*
X44305317Y-126993162D01*
X44521441Y-126854090D01*
X44666431Y-126641890D01*
X44717440Y-126390000D01*
X44717440Y-124890000D01*
X44673162Y-124654683D01*
X44534090Y-124438559D01*
X44321890Y-124293569D01*
X44308803Y-124290919D01*
X44521441Y-124154090D01*
X44666431Y-123941890D01*
X44717440Y-123690000D01*
X44717440Y-122652718D01*
X44902560Y-122467598D01*
X44902560Y-123650000D01*
X44946838Y-123885317D01*
X45085910Y-124101441D01*
X45298110Y-124246431D01*
X45550000Y-124297440D01*
X45935000Y-124297440D01*
X45935000Y-124792666D01*
X45859683Y-124806838D01*
X45643559Y-124945910D01*
X45498569Y-125158110D01*
X45447560Y-125410000D01*
X45447560Y-126910000D01*
X45491838Y-127145317D01*
X45630910Y-127361441D01*
X45699006Y-127407969D01*
X45556673Y-127550302D01*
X45460000Y-127783691D01*
X45460000Y-128374250D01*
X45618750Y-128533000D01*
X46593000Y-128533000D01*
X46593000Y-128513000D01*
X46847000Y-128513000D01*
X46847000Y-128533000D01*
X47821250Y-128533000D01*
X47980000Y-128374250D01*
X47980000Y-127783691D01*
X47883327Y-127550302D01*
X47742090Y-127409064D01*
X47796441Y-127374090D01*
X47941431Y-127161890D01*
X47992440Y-126910000D01*
X47992440Y-125410000D01*
X47948162Y-125174683D01*
X47809090Y-124958559D01*
X47596890Y-124813569D01*
X47505000Y-124794961D01*
X47505000Y-124108881D01*
X47646431Y-123901890D01*
X47649081Y-123888803D01*
X47785910Y-124101441D01*
X47998110Y-124246431D01*
X48215000Y-124290352D01*
X48215000Y-124310000D01*
X48274755Y-124610407D01*
X48444921Y-124865079D01*
X48643265Y-125063423D01*
X48578569Y-125158110D01*
X48527560Y-125410000D01*
X48527560Y-126910000D01*
X48571838Y-127145317D01*
X48710910Y-127361441D01*
X48779006Y-127407969D01*
X48636673Y-127550302D01*
X48540000Y-127783691D01*
X48540000Y-128374250D01*
X48698750Y-128533000D01*
X49673000Y-128533000D01*
X49673000Y-128513000D01*
X49927000Y-128513000D01*
X49927000Y-128533000D01*
X50901250Y-128533000D01*
X51060000Y-128374250D01*
X51060000Y-127783691D01*
X50963327Y-127550302D01*
X50822090Y-127409064D01*
X50876441Y-127374090D01*
X51021431Y-127161890D01*
X51072440Y-126910000D01*
X51072440Y-126507598D01*
X51309921Y-126745079D01*
X51517560Y-126883818D01*
X51517560Y-126940000D01*
X51561838Y-127175317D01*
X51700910Y-127391441D01*
X51769006Y-127437969D01*
X51626673Y-127580302D01*
X51530000Y-127813691D01*
X51530000Y-128404250D01*
X51688750Y-128563000D01*
X52663000Y-128563000D01*
X52663000Y-128543000D01*
X52917000Y-128543000D01*
X52917000Y-128563000D01*
X53891250Y-128563000D01*
X54050000Y-128404250D01*
X54050000Y-127813691D01*
X53953327Y-127580302D01*
X53812090Y-127439064D01*
X53866441Y-127404090D01*
X54011431Y-127191890D01*
X54062440Y-126940000D01*
X54062440Y-125440000D01*
X54018162Y-125204683D01*
X53879090Y-124988559D01*
X53666890Y-124843569D01*
X53415000Y-124792560D01*
X52165000Y-124792560D01*
X52085000Y-124807613D01*
X52085000Y-124290854D01*
X52285317Y-124253162D01*
X52501441Y-124114090D01*
X52646431Y-123901890D01*
X52649081Y-123888803D01*
X52785910Y-124101441D01*
X52998110Y-124246431D01*
X53250000Y-124297440D01*
X54750000Y-124297440D01*
X54985317Y-124253162D01*
X55201441Y-124114090D01*
X55346431Y-123901890D01*
X55397440Y-123650000D01*
X55397440Y-122350000D01*
X55353162Y-122114683D01*
X55214090Y-121898559D01*
X55001890Y-121753569D01*
X54881058Y-121729100D01*
X55485079Y-121125079D01*
X55655245Y-120870407D01*
X55715000Y-120570000D01*
X55715000Y-120357506D01*
X55722192Y-120350327D01*
X55864838Y-120006799D01*
X55865162Y-119634833D01*
X55723117Y-119291057D01*
X55460327Y-119027808D01*
X55116799Y-118885162D01*
X54744833Y-118884838D01*
X54553098Y-118964061D01*
X54538162Y-118884683D01*
X54399090Y-118668559D01*
X54329289Y-118620866D01*
X54386441Y-118584090D01*
X54531431Y-118371890D01*
X54582440Y-118120000D01*
X54582440Y-116620000D01*
X54538162Y-116384683D01*
X54399090Y-116168559D01*
X54186890Y-116023569D01*
X53935000Y-115972560D01*
X53762718Y-115972560D01*
X52565158Y-114775000D01*
X60273362Y-114775000D01*
X60573769Y-114715245D01*
X60828441Y-114545079D01*
X63715080Y-111658440D01*
X63885246Y-111403768D01*
X63945001Y-111103361D01*
X63945001Y-110555000D01*
X66992560Y-110555000D01*
X66992560Y-111805000D01*
X67036838Y-112040317D01*
X67175910Y-112256441D01*
X67388110Y-112401431D01*
X67640000Y-112452440D01*
X69140000Y-112452440D01*
X69375317Y-112408162D01*
X69591441Y-112269090D01*
X69637969Y-112200994D01*
X69780302Y-112343327D01*
X70013691Y-112440000D01*
X70604250Y-112440000D01*
X70763000Y-112281250D01*
X70763000Y-111307000D01*
X71017000Y-111307000D01*
X71017000Y-112281250D01*
X71175750Y-112440000D01*
X71766309Y-112440000D01*
X71999698Y-112343327D01*
X72178327Y-112164699D01*
X72275000Y-111931310D01*
X72275000Y-111465750D01*
X72116250Y-111307000D01*
X71017000Y-111307000D01*
X70763000Y-111307000D01*
X70743000Y-111307000D01*
X70743000Y-111053000D01*
X70763000Y-111053000D01*
X70763000Y-109177000D01*
X69663750Y-109177000D01*
X69505000Y-109335750D01*
X69505000Y-109801310D01*
X69601673Y-110034699D01*
X69681974Y-110115000D01*
X69639064Y-110157910D01*
X69604090Y-110103559D01*
X69391890Y-109958569D01*
X69140000Y-109907560D01*
X67640000Y-109907560D01*
X67404683Y-109951838D01*
X67188559Y-110090910D01*
X67043569Y-110303110D01*
X66992560Y-110555000D01*
X63945001Y-110555000D01*
X63945001Y-109590001D01*
X63929168Y-109510406D01*
X63885246Y-109289594D01*
X63715080Y-109034922D01*
X62835079Y-108154921D01*
X62580407Y-107984755D01*
X62297700Y-107928521D01*
X62278162Y-107824683D01*
X62154204Y-107632046D01*
X62308046Y-107478204D01*
X62954921Y-108125079D01*
X63209593Y-108295245D01*
X63510000Y-108355000D01*
X65260000Y-108355000D01*
X65543087Y-108298690D01*
X69505000Y-108298690D01*
X69505000Y-108764250D01*
X69663750Y-108923000D01*
X70763000Y-108923000D01*
X70763000Y-108021250D01*
X70773000Y-108011250D01*
X70773000Y-107037000D01*
X69673750Y-107037000D01*
X69515000Y-107195750D01*
X69515000Y-107661310D01*
X69611673Y-107894699D01*
X69691974Y-107975000D01*
X69601673Y-108065301D01*
X69505000Y-108298690D01*
X65543087Y-108298690D01*
X65560407Y-108295245D01*
X65815079Y-108125079D01*
X66742718Y-107197440D01*
X68380000Y-107197440D01*
X68615317Y-107153162D01*
X68831441Y-107014090D01*
X68976431Y-106801890D01*
X69027440Y-106550000D01*
X69027440Y-105095750D01*
X69515000Y-105095750D01*
X69515000Y-105561310D01*
X69611673Y-105794699D01*
X69676974Y-105860000D01*
X69611673Y-105925301D01*
X69515000Y-106158690D01*
X69515000Y-106624250D01*
X69673750Y-106783000D01*
X70773000Y-106783000D01*
X70773000Y-104937000D01*
X69673750Y-104937000D01*
X69515000Y-105095750D01*
X69027440Y-105095750D01*
X69027440Y-104750000D01*
X68983162Y-104514683D01*
X68967662Y-104490595D01*
X69015000Y-104376310D01*
X69015000Y-104058690D01*
X69515000Y-104058690D01*
X69515000Y-104524250D01*
X69673750Y-104683000D01*
X70773000Y-104683000D01*
X70773000Y-103708750D01*
X70614250Y-103550000D01*
X70023691Y-103550000D01*
X69790302Y-103646673D01*
X69611673Y-103825301D01*
X69515000Y-104058690D01*
X69015000Y-104058690D01*
X69015000Y-103635750D01*
X68856250Y-103477000D01*
X67457000Y-103477000D01*
X67457000Y-103497000D01*
X67203000Y-103497000D01*
X67203000Y-103477000D01*
X67183000Y-103477000D01*
X67183000Y-103223000D01*
X67203000Y-103223000D01*
X67203000Y-101973750D01*
X67457000Y-101973750D01*
X67457000Y-103223000D01*
X68856250Y-103223000D01*
X69015000Y-103064250D01*
X69015000Y-102323690D01*
X68918327Y-102090301D01*
X68739698Y-101911673D01*
X68506309Y-101815000D01*
X67615750Y-101815000D01*
X67457000Y-101973750D01*
X67203000Y-101973750D01*
X67044250Y-101815000D01*
X66153691Y-101815000D01*
X65920302Y-101911673D01*
X65878340Y-101953634D01*
X65731890Y-101853569D01*
X65480000Y-101802560D01*
X63380000Y-101802560D01*
X63144683Y-101846838D01*
X62928559Y-101985910D01*
X62783569Y-102198110D01*
X62732560Y-102450000D01*
X62732560Y-102565000D01*
X62230000Y-102565000D01*
X61929594Y-102624755D01*
X61674921Y-102794921D01*
X59771150Y-104698692D01*
X59735707Y-104663188D01*
X59392179Y-104520542D01*
X59020213Y-104520218D01*
X58676437Y-104662263D01*
X58623608Y-104715000D01*
X56677440Y-104715000D01*
X56677440Y-104400000D01*
X56657933Y-104296329D01*
X56677440Y-104200000D01*
X56677440Y-103600000D01*
X56657933Y-103496329D01*
X56677440Y-103400000D01*
X56677440Y-102800000D01*
X56633162Y-102564683D01*
X56494090Y-102348559D01*
X56281890Y-102203569D01*
X56030000Y-102152560D01*
X54777440Y-102152560D01*
X54777440Y-100900000D01*
X54733162Y-100664683D01*
X54615000Y-100481054D01*
X54615000Y-100402880D01*
X54555245Y-100102474D01*
X54385079Y-99847801D01*
X50027440Y-95490162D01*
X50027440Y-95260000D01*
X49983162Y-95024683D01*
X49844090Y-94808559D01*
X49631890Y-94663569D01*
X49380000Y-94612560D01*
X48080000Y-94612560D01*
X47984373Y-94630554D01*
X47953162Y-94464683D01*
X47945658Y-94453021D01*
X47946431Y-94451890D01*
X47997440Y-94200000D01*
X47997440Y-92400000D01*
X47953162Y-92164683D01*
X47814090Y-91948559D01*
X47601890Y-91803569D01*
X47350000Y-91752560D01*
X45250000Y-91752560D01*
X45014683Y-91796838D01*
X44848523Y-91903759D01*
X44701890Y-91803569D01*
X44450000Y-91752560D01*
X42350000Y-91752560D01*
X42114683Y-91796838D01*
X41898559Y-91935910D01*
X41753569Y-92148110D01*
X41702560Y-92400000D01*
X41702560Y-94200000D01*
X41746838Y-94435317D01*
X41762338Y-94459405D01*
X41715000Y-94573690D01*
X41715000Y-95314250D01*
X41873750Y-95473000D01*
X42826573Y-95473000D01*
X42979594Y-95575245D01*
X43280000Y-95635000D01*
X43547000Y-95581890D01*
X43547000Y-95727000D01*
X43527000Y-95727000D01*
X43527000Y-98063000D01*
X44526250Y-98063000D01*
X44685000Y-97904250D01*
X44685000Y-97578311D01*
X44969999Y-97635001D01*
X46644843Y-97635001D01*
X47432560Y-98422718D01*
X47432560Y-99460000D01*
X47476838Y-99695317D01*
X47615910Y-99911441D01*
X47828110Y-100056431D01*
X48080000Y-100107440D01*
X49380000Y-100107440D01*
X49615317Y-100063162D01*
X49831441Y-99924090D01*
X49976431Y-99711890D01*
X50020352Y-99495000D01*
X50814842Y-99495000D01*
X51647221Y-100327379D01*
X51478559Y-100435910D01*
X51430866Y-100505711D01*
X51394090Y-100448559D01*
X51184823Y-100305573D01*
X51144250Y-100265000D01*
X51003691Y-100265000D01*
X50999665Y-100266668D01*
X50930000Y-100252560D01*
X50330000Y-100252560D01*
X50258676Y-100265981D01*
X50256309Y-100265000D01*
X50115750Y-100265000D01*
X50064471Y-100316279D01*
X49878559Y-100435910D01*
X49830866Y-100505711D01*
X49794090Y-100448559D01*
X49584823Y-100305573D01*
X49544250Y-100265000D01*
X49403691Y-100265000D01*
X49399665Y-100266668D01*
X49330000Y-100252560D01*
X48730000Y-100252560D01*
X48626329Y-100272067D01*
X48530000Y-100252560D01*
X47930000Y-100252560D01*
X47694683Y-100296838D01*
X47478559Y-100435910D01*
X47333569Y-100648110D01*
X47282560Y-100900000D01*
X47282560Y-102152560D01*
X46030000Y-102152560D01*
X45794683Y-102196838D01*
X45619207Y-102309754D01*
X45554090Y-102208559D01*
X45341890Y-102063569D01*
X45090000Y-102012560D01*
X44563981Y-102012560D01*
X44646431Y-101891890D01*
X44697440Y-101640000D01*
X44697440Y-100140000D01*
X44653162Y-99904683D01*
X44514090Y-99688559D01*
X44301890Y-99543569D01*
X44268510Y-99536809D01*
X44409699Y-99478327D01*
X44588327Y-99299698D01*
X44685000Y-99066309D01*
X44685000Y-98475750D01*
X44526250Y-98317000D01*
X43527000Y-98317000D01*
X43527000Y-98337000D01*
X43273000Y-98337000D01*
X43273000Y-98317000D01*
X42273750Y-98317000D01*
X42155454Y-98435296D01*
X42115000Y-98394842D01*
X42115000Y-97904250D01*
X42273750Y-98063000D01*
X43273000Y-98063000D01*
X43273000Y-95727000D01*
X41873750Y-95727000D01*
X41715000Y-95885750D01*
X41715000Y-96626310D01*
X41811673Y-96859699D01*
X41990302Y-97038327D01*
X42194094Y-97122741D01*
X42115000Y-97313691D01*
X42115000Y-97849998D01*
X42055245Y-97549592D01*
X41885079Y-97294919D01*
X41195080Y-96604920D01*
X40977199Y-96459337D01*
X41007440Y-96310000D01*
X41007440Y-94810000D01*
X40963162Y-94574683D01*
X40824090Y-94358559D01*
X40611890Y-94213569D01*
X40360000Y-94162560D01*
X39060000Y-94162560D01*
X38824683Y-94206838D01*
X38608559Y-94345910D01*
X38463569Y-94558110D01*
X38412560Y-94810000D01*
X38412560Y-96310000D01*
X38456838Y-96545317D01*
X38595910Y-96761441D01*
X38808110Y-96906431D01*
X38821197Y-96909081D01*
X38608559Y-97045910D01*
X38463569Y-97258110D01*
X38412560Y-97510000D01*
X38412560Y-99010000D01*
X38456838Y-99245317D01*
X38595910Y-99461441D01*
X38808110Y-99606431D01*
X38833972Y-99611668D01*
X38224313Y-99732937D01*
X37693880Y-100087360D01*
X37531527Y-100330339D01*
X37310000Y-93937704D01*
X37310000Y-90959247D01*
X37473334Y-84682568D01*
X37693880Y-85012640D01*
X38224313Y-85367063D01*
X38850000Y-85491520D01*
X39475687Y-85367063D01*
X40006120Y-85012640D01*
X40216729Y-84697440D01*
X40850000Y-84697440D01*
X41085317Y-84653162D01*
X41301441Y-84514090D01*
X41446431Y-84301890D01*
X41497440Y-84050000D01*
X41497440Y-81050000D01*
X41453162Y-80814683D01*
X41314090Y-80598559D01*
X41101890Y-80453569D01*
X40850000Y-80402560D01*
X40216729Y-80402560D01*
X40006120Y-80087360D01*
X39475687Y-79732937D01*
X38850000Y-79608480D01*
X38224313Y-79732937D01*
X37693880Y-80087360D01*
X37588820Y-80244594D01*
X37659522Y-77527605D01*
X37900556Y-72873795D01*
X40214716Y-72873795D01*
X40463106Y-73474943D01*
X40922637Y-73935278D01*
X41523352Y-74184716D01*
X42173795Y-74185284D01*
X42774943Y-73936894D01*
X43235278Y-73477363D01*
X43484716Y-72876648D01*
X43485284Y-72226205D01*
X43236894Y-71625057D01*
X43009675Y-71397440D01*
X47700000Y-71397440D01*
X47935317Y-71353162D01*
X48151441Y-71214090D01*
X48296431Y-71001890D01*
X48347440Y-70750000D01*
X48347440Y-68285750D01*
X55365000Y-68285750D01*
X55365000Y-72126310D01*
X55461673Y-72359699D01*
X55640302Y-72538327D01*
X55873691Y-72635000D01*
X59714250Y-72635000D01*
X59873000Y-72476250D01*
X59873000Y-68127000D01*
X60127000Y-68127000D01*
X60127000Y-72476250D01*
X60285750Y-72635000D01*
X64126309Y-72635000D01*
X64359698Y-72538327D01*
X64538327Y-72359699D01*
X64635000Y-72126310D01*
X64635000Y-68285750D01*
X64476250Y-68127000D01*
X60127000Y-68127000D01*
X59873000Y-68127000D01*
X55523750Y-68127000D01*
X55365000Y-68285750D01*
X48347440Y-68285750D01*
X48347440Y-65250000D01*
X48303162Y-65014683D01*
X48164090Y-64798559D01*
X47951890Y-64653569D01*
X47700000Y-64602560D01*
X41700000Y-64602560D01*
X41464683Y-64646838D01*
X41248559Y-64785910D01*
X41103569Y-64998110D01*
X41052560Y-65250000D01*
X41052560Y-70750000D01*
X41096838Y-70985317D01*
X41151133Y-71069693D01*
X40925057Y-71163106D01*
X40464722Y-71622637D01*
X40215284Y-72223352D01*
X40214716Y-72873795D01*
X37900556Y-72873795D01*
X38308305Y-65001107D01*
X38412695Y-63873690D01*
X55365000Y-63873690D01*
X55365000Y-67714250D01*
X55523750Y-67873000D01*
X59873000Y-67873000D01*
X59873000Y-63523750D01*
X60127000Y-63523750D01*
X60127000Y-67873000D01*
X64476250Y-67873000D01*
X64635000Y-67714250D01*
X64635000Y-65250000D01*
X71652560Y-65250000D01*
X71652560Y-70750000D01*
X71696838Y-70985317D01*
X71835910Y-71201441D01*
X72048110Y-71346431D01*
X72300000Y-71397440D01*
X78300000Y-71397440D01*
X78535317Y-71353162D01*
X78751441Y-71214090D01*
X78896431Y-71001890D01*
X78947440Y-70750000D01*
X78947440Y-65250000D01*
X78903162Y-65014683D01*
X78764090Y-64798559D01*
X78551890Y-64653569D01*
X78300000Y-64602560D01*
X72300000Y-64602560D01*
X72064683Y-64646838D01*
X71848559Y-64785910D01*
X71703569Y-64998110D01*
X71652560Y-65250000D01*
X64635000Y-65250000D01*
X64635000Y-63873690D01*
X64538327Y-63640301D01*
X64359698Y-63461673D01*
X64126309Y-63365000D01*
X60285750Y-63365000D01*
X60127000Y-63523750D01*
X59873000Y-63523750D01*
X59714250Y-63365000D01*
X55873691Y-63365000D01*
X55640302Y-63461673D01*
X55461673Y-63640301D01*
X55365000Y-63873690D01*
X38412695Y-63873690D01*
X38805354Y-59632982D01*
X39549259Y-54425641D01*
X40585483Y-49650000D01*
X56333112Y-49650000D01*
X56608431Y-51034123D01*
X57392474Y-52207526D01*
X58565877Y-52991569D01*
X59950000Y-53266888D01*
X61334123Y-52991569D01*
X62507526Y-52207526D01*
X63291569Y-51034123D01*
X63566888Y-49650000D01*
X63291569Y-48265877D01*
X62507526Y-47092474D01*
X61334123Y-46308431D01*
X59950000Y-46033112D01*
X58565877Y-46308431D01*
X57392474Y-47092474D01*
X56608431Y-48265877D01*
X56333112Y-49650000D01*
X40585483Y-49650000D01*
X40673723Y-49243331D01*
X41229433Y-48174659D01*
X42004659Y-47399433D01*
X43149979Y-46620615D01*
X44257454Y-46113023D01*
X45578830Y-45688294D01*
X47003693Y-45403322D01*
X52694489Y-44858985D01*
X57660657Y-44710000D01*
X62578286Y-44710000D01*
X67444321Y-45007921D01*
G36*
X49865910Y-102851441D02*
X49876573Y-102858727D01*
X49904755Y-103000407D01*
X50074921Y-103255079D01*
X50124922Y-103305080D01*
X50379594Y-103475246D01*
X50662373Y-103531495D01*
X50564755Y-103677591D01*
X50524703Y-103878943D01*
X50505000Y-103977998D01*
X50505000Y-104507998D01*
X50564755Y-104808405D01*
X50645001Y-104928502D01*
X50645001Y-105937989D01*
X50644999Y-105937999D01*
X50644999Y-106900877D01*
X50704754Y-107201284D01*
X50874920Y-107455956D01*
X51465000Y-108046035D01*
X51465000Y-108267983D01*
X51179594Y-108324754D01*
X50924922Y-108494920D01*
X50874921Y-108544921D01*
X50704755Y-108799593D01*
X50677262Y-108937808D01*
X50630866Y-109005711D01*
X50594090Y-108948559D01*
X50384823Y-108805573D01*
X50344250Y-108765000D01*
X50203691Y-108765000D01*
X50199665Y-108766668D01*
X50130000Y-108752560D01*
X49530000Y-108752560D01*
X49426329Y-108772067D01*
X49330000Y-108752560D01*
X49297598Y-108752560D01*
X49865005Y-108185153D01*
X49875167Y-108185162D01*
X50218943Y-108043117D01*
X50482192Y-107780327D01*
X50624838Y-107436799D01*
X50625162Y-107064833D01*
X50483117Y-106721057D01*
X50220327Y-106457808D01*
X49876799Y-106315162D01*
X49775001Y-106315073D01*
X49775001Y-104978548D01*
X49788143Y-104973118D01*
X50051392Y-104710328D01*
X50194038Y-104366800D01*
X50194362Y-103994834D01*
X50052317Y-103651058D01*
X49789527Y-103387809D01*
X49445999Y-103245163D01*
X49074033Y-103244839D01*
X48730257Y-103386884D01*
X48467008Y-103649674D01*
X48324362Y-103993202D01*
X48324304Y-104059673D01*
X48264756Y-104148793D01*
X48219500Y-104376310D01*
X48205001Y-104449200D01*
X48205001Y-104514882D01*
X48177440Y-104514858D01*
X48177440Y-104400000D01*
X48157933Y-104296329D01*
X48177440Y-104200000D01*
X48177440Y-103600000D01*
X48157933Y-103496329D01*
X48177440Y-103400000D01*
X48177440Y-103047440D01*
X48530000Y-103047440D01*
X48633671Y-103027933D01*
X48730000Y-103047440D01*
X49330000Y-103047440D01*
X49401324Y-103034019D01*
X49403691Y-103035000D01*
X49544250Y-103035000D01*
X49595529Y-102983721D01*
X49781441Y-102864090D01*
X49829134Y-102794289D01*
X49865910Y-102851441D01*
X49865910Y-102851441D01*
G37*
X49865910Y-102851441D02*
X49876573Y-102858727D01*
X49904755Y-103000407D01*
X50074921Y-103255079D01*
X50124922Y-103305080D01*
X50379594Y-103475246D01*
X50662373Y-103531495D01*
X50564755Y-103677591D01*
X50524703Y-103878943D01*
X50505000Y-103977998D01*
X50505000Y-104507998D01*
X50564755Y-104808405D01*
X50645001Y-104928502D01*
X50645001Y-105937989D01*
X50644999Y-105937999D01*
X50644999Y-106900877D01*
X50704754Y-107201284D01*
X50874920Y-107455956D01*
X51465000Y-108046035D01*
X51465000Y-108267983D01*
X51179594Y-108324754D01*
X50924922Y-108494920D01*
X50874921Y-108544921D01*
X50704755Y-108799593D01*
X50677262Y-108937808D01*
X50630866Y-109005711D01*
X50594090Y-108948559D01*
X50384823Y-108805573D01*
X50344250Y-108765000D01*
X50203691Y-108765000D01*
X50199665Y-108766668D01*
X50130000Y-108752560D01*
X49530000Y-108752560D01*
X49426329Y-108772067D01*
X49330000Y-108752560D01*
X49297598Y-108752560D01*
X49865005Y-108185153D01*
X49875167Y-108185162D01*
X50218943Y-108043117D01*
X50482192Y-107780327D01*
X50624838Y-107436799D01*
X50625162Y-107064833D01*
X50483117Y-106721057D01*
X50220327Y-106457808D01*
X49876799Y-106315162D01*
X49775001Y-106315073D01*
X49775001Y-104978548D01*
X49788143Y-104973118D01*
X50051392Y-104710328D01*
X50194038Y-104366800D01*
X50194362Y-103994834D01*
X50052317Y-103651058D01*
X49789527Y-103387809D01*
X49445999Y-103245163D01*
X49074033Y-103244839D01*
X48730257Y-103386884D01*
X48467008Y-103649674D01*
X48324362Y-103993202D01*
X48324304Y-104059673D01*
X48264756Y-104148793D01*
X48219500Y-104376310D01*
X48205001Y-104449200D01*
X48205001Y-104514882D01*
X48177440Y-104514858D01*
X48177440Y-104400000D01*
X48157933Y-104296329D01*
X48177440Y-104200000D01*
X48177440Y-103600000D01*
X48157933Y-103496329D01*
X48177440Y-103400000D01*
X48177440Y-103047440D01*
X48530000Y-103047440D01*
X48633671Y-103027933D01*
X48730000Y-103047440D01*
X49330000Y-103047440D01*
X49401324Y-103034019D01*
X49403691Y-103035000D01*
X49544250Y-103035000D01*
X49595529Y-102983721D01*
X49781441Y-102864090D01*
X49829134Y-102794289D01*
X49865910Y-102851441D01*
M02*
