G04 #@! TF.FileFunction,Copper,L1,Top,Signal*
%FSLAX46Y46*%
G04 Gerber Fmt 4.6, Leading zero omitted, Abs format (unit mm)*
G04 Created by KiCad (PCBNEW 4.0.7) date Sun Sep  2 09:00:49 2018*
%MOMM*%
%LPD*%
G01*
G04 APERTURE LIST*
%ADD10C,0.100000*%
%ADD11R,1.700000X1.700000*%
%ADD12O,1.700000X1.700000*%
%ADD13R,1.500000X1.300000*%
%ADD14C,2.000000*%
%ADD15R,0.600000X3.000000*%
%ADD16R,0.500000X2.000000*%
%ADD17R,0.500000X1.000000*%
%ADD18C,0.600000*%
%ADD19C,0.300000*%
%ADD20C,0.254000*%
G04 APERTURE END LIST*
D10*
G36*
X74680000Y-118820000D02*
X54680000Y-118820000D01*
X54680000Y-120820000D01*
X74680000Y-120820000D01*
X74680000Y-118820000D01*
X74680000Y-118820000D01*
G37*
G36*
X74680000Y-112820000D02*
X54680000Y-112820000D01*
X54680000Y-113820000D01*
X74680000Y-113820000D01*
X74680000Y-112820000D01*
X74680000Y-112820000D01*
G37*
G36*
X74680000Y-113820000D02*
X73680000Y-113820000D01*
X73680000Y-118820000D01*
X74680000Y-118820000D01*
X74680000Y-113820000D01*
X74680000Y-113820000D01*
G37*
G36*
X74680000Y-120820000D02*
X73680000Y-120820000D01*
X73680000Y-124820000D01*
X74680000Y-124820000D01*
X74680000Y-120820000D01*
X74680000Y-120820000D01*
G37*
G36*
X74680000Y-124820000D02*
X63680000Y-124820000D01*
X63680000Y-125820000D01*
X74680000Y-125820000D01*
X74680000Y-124820000D01*
X74680000Y-124820000D01*
G37*
G36*
X63680000Y-124820000D02*
X62680000Y-124820000D01*
X62680000Y-130820000D01*
X63680000Y-130820000D01*
X63680000Y-124820000D01*
X63680000Y-124820000D01*
G37*
G36*
X74680000Y-129820000D02*
X63680000Y-129820000D01*
X63680000Y-130820000D01*
X74680000Y-130820000D01*
X74680000Y-129820000D01*
X74680000Y-129820000D01*
G37*
G36*
X74680000Y-130820000D02*
X73680000Y-130820000D01*
X73680000Y-134820000D01*
X74680000Y-134820000D01*
X74680000Y-130820000D01*
X74680000Y-130820000D01*
G37*
G36*
X74680000Y-134820000D02*
X63680000Y-134820000D01*
X63680000Y-135820000D01*
X74680000Y-135820000D01*
X74680000Y-134820000D01*
X74680000Y-134820000D01*
G37*
G36*
X63680000Y-134820000D02*
X62680000Y-134820000D01*
X62680000Y-140820000D01*
X63680000Y-140820000D01*
X63680000Y-134820000D01*
X63680000Y-134820000D01*
G37*
G36*
X74680000Y-139820000D02*
X63680000Y-139820000D01*
X63680000Y-140820000D01*
X74680000Y-140820000D01*
X74680000Y-139820000D01*
X74680000Y-139820000D01*
G37*
G36*
X74680000Y-140820000D02*
X73680000Y-140820000D01*
X73680000Y-144820000D01*
X74680000Y-144820000D01*
X74680000Y-140820000D01*
X74680000Y-140820000D01*
G37*
G36*
X74680000Y-144820000D02*
X63680000Y-144820000D01*
X63680000Y-145820000D01*
X74680000Y-145820000D01*
X74680000Y-144820000D01*
X74680000Y-144820000D01*
G37*
G36*
X63680000Y-144820000D02*
X62680000Y-144820000D01*
X62680000Y-150820000D01*
X63680000Y-150820000D01*
X63680000Y-144820000D01*
X63680000Y-144820000D01*
G37*
G36*
X74680000Y-149820000D02*
X63680000Y-149820000D01*
X63680000Y-150820000D01*
X74680000Y-150820000D01*
X74680000Y-149820000D01*
X74680000Y-149820000D01*
G37*
G36*
X74680000Y-150820000D02*
X73680000Y-150820000D01*
X73680000Y-154820000D01*
X74680000Y-154820000D01*
X74680000Y-150820000D01*
X74680000Y-150820000D01*
G37*
G36*
X74680000Y-154820000D02*
X65680000Y-154820000D01*
X65680000Y-155820000D01*
X74680000Y-155820000D01*
X74680000Y-154820000D01*
X74680000Y-154820000D01*
G37*
D11*
X40460000Y-108920000D03*
D12*
X43000000Y-108920000D03*
X40460000Y-111460000D03*
X43000000Y-111460000D03*
X40460000Y-114000000D03*
X43000000Y-114000000D03*
D11*
X40460000Y-116460000D03*
D12*
X43000000Y-116460000D03*
X40460000Y-119000000D03*
X43000000Y-119000000D03*
D13*
X51410000Y-102530000D03*
X48710000Y-102530000D03*
X66800000Y-102480000D03*
X69500000Y-102480000D03*
D14*
X41850000Y-72550000D03*
D15*
X55100000Y-102550000D03*
X56100000Y-102550000D03*
X57100000Y-102550000D03*
X58100000Y-102550000D03*
X63100000Y-102550000D03*
X62100000Y-102550000D03*
X59100000Y-102550000D03*
X60100000Y-102550000D03*
X61100000Y-102550000D03*
D14*
X76350000Y-99050000D03*
D13*
X46500000Y-102530000D03*
X43800000Y-102530000D03*
X74250000Y-102460000D03*
X71550000Y-102460000D03*
D16*
X54930000Y-119820000D03*
D17*
X54430000Y-113320000D03*
D18*
X67330000Y-103350000D03*
X61100000Y-102550000D03*
X50630000Y-110150000D03*
X53030000Y-110150000D03*
X60290000Y-110580000D03*
X75300000Y-68000000D03*
X44700000Y-68000000D03*
X75760000Y-105420000D03*
X39710000Y-98260000D03*
X41220000Y-105360000D03*
X53610010Y-103350000D03*
X43480000Y-132180000D03*
X52230000Y-101650000D03*
X50630000Y-101650000D03*
X73450000Y-109060000D03*
X73400000Y-106910000D03*
X73400000Y-104810000D03*
X57425158Y-109872654D03*
X57020000Y-107059992D03*
X44136096Y-104500012D03*
X52080000Y-106250000D03*
X55280000Y-108700000D03*
X53810000Y-105350000D03*
X55280000Y-107900000D03*
X59205380Y-105455380D03*
X52080000Y-104150000D03*
X49690000Y-107250000D03*
X49259200Y-104180001D03*
X48340000Y-105450000D03*
X51300000Y-123000000D03*
X50870000Y-120090000D03*
X54930000Y-119820000D03*
X68390000Y-111180000D03*
X62510000Y-109880000D03*
X46780000Y-107100000D03*
D19*
X66800000Y-102480000D02*
X66800000Y-102820000D01*
X66800000Y-102820000D02*
X67330000Y-103350000D01*
X54430000Y-113320000D02*
X53637998Y-113320000D01*
X53637998Y-113320000D02*
X50630000Y-110312002D01*
X50630000Y-110312002D02*
X50630000Y-110150000D01*
X71550000Y-102460000D02*
X69520000Y-102460000D01*
X69520000Y-102460000D02*
X69500000Y-102480000D01*
X46500000Y-102530000D02*
X48710000Y-102530000D01*
X53610010Y-103350000D02*
X54300000Y-103350000D01*
X54300000Y-103350000D02*
X55100000Y-102550000D01*
X40460000Y-116460000D02*
X39310000Y-116460000D01*
X39310000Y-116460000D02*
X38500000Y-115650000D01*
X50630000Y-101650000D02*
X52230000Y-101650000D01*
X57020000Y-107059992D02*
X57020000Y-109467496D01*
X57020000Y-109467496D02*
X57425158Y-109872654D01*
X52080000Y-106250000D02*
X52379999Y-105950001D01*
X52379999Y-105950001D02*
X52379999Y-105817999D01*
X52379999Y-105817999D02*
X53797997Y-104400001D01*
X53797997Y-104400001D02*
X56049999Y-104400001D01*
X56049999Y-104400001D02*
X56100000Y-104350000D01*
X56100000Y-104350000D02*
X56100000Y-102550000D01*
X52080000Y-106250000D02*
X51780001Y-105950001D01*
X51780001Y-105950001D02*
X50070001Y-105950001D01*
X50070001Y-105950001D02*
X48620012Y-104500012D01*
X40460000Y-111460000D02*
X41660001Y-110259999D01*
X41660001Y-110259999D02*
X41660001Y-106976107D01*
X41660001Y-106976107D02*
X44136096Y-104500012D01*
X44136096Y-104500012D02*
X48620012Y-104500012D01*
X43000000Y-114000000D02*
X46129999Y-110870001D01*
X46467999Y-106449999D02*
X47092001Y-106449999D01*
X46129999Y-110870001D02*
X46129999Y-106787999D01*
X46129999Y-106787999D02*
X46467999Y-106449999D01*
X47092001Y-106449999D02*
X49342002Y-108700000D01*
X49342002Y-108700000D02*
X55280000Y-108700000D01*
X53810000Y-105350000D02*
X56100000Y-105350000D01*
X56100000Y-105350000D02*
X57100000Y-104350000D01*
X57100000Y-104350000D02*
X57100000Y-102550000D01*
X43000000Y-111460000D02*
X45629989Y-108830011D01*
X45629989Y-108830011D02*
X45629989Y-106580889D01*
X45629989Y-106580889D02*
X46260889Y-105949989D01*
X46260889Y-105949989D02*
X47299111Y-105949989D01*
X49249122Y-107900000D02*
X55280000Y-107900000D01*
X47299111Y-105949989D02*
X49249122Y-107900000D01*
X59205380Y-105455380D02*
X59629644Y-105455380D01*
X59629644Y-105455380D02*
X59684264Y-105510000D01*
X59684264Y-105510000D02*
X62749814Y-105510000D01*
X63100000Y-102550000D02*
X63100000Y-105159814D01*
X63100000Y-105159814D02*
X62749814Y-105510000D01*
X52080000Y-104150000D02*
X51460001Y-103530001D01*
X51460001Y-103530001D02*
X44900001Y-103530001D01*
X44900001Y-103530001D02*
X43900000Y-102530000D01*
X43900000Y-102530000D02*
X43800000Y-102530000D01*
X49690000Y-107250000D02*
X49790000Y-107350000D01*
X49790000Y-107350000D02*
X54680000Y-107350000D01*
X54680000Y-107350000D02*
X56179990Y-105850010D01*
X56179990Y-105850010D02*
X57599990Y-105850010D01*
X57599990Y-105850010D02*
X59100000Y-104350000D01*
X59100000Y-104350000D02*
X59100000Y-102550000D01*
X59100000Y-102550000D02*
X59100000Y-103980002D01*
X49259200Y-104180001D02*
X49559199Y-104480000D01*
X52960010Y-104231992D02*
X52960010Y-102259988D01*
X54519999Y-100699999D02*
X57680001Y-100699999D01*
X49559199Y-104480000D02*
X50300000Y-104480000D01*
X50300000Y-104480000D02*
X50780000Y-104960000D01*
X50780000Y-104960000D02*
X52232002Y-104960000D01*
X52232002Y-104960000D02*
X52960010Y-104231992D01*
X52960010Y-102259988D02*
X54519999Y-100699999D01*
X57680001Y-100699999D02*
X58100000Y-101119998D01*
X58100000Y-101119998D02*
X58100000Y-102550000D01*
X48340000Y-105450000D02*
X47506242Y-105450000D01*
X46053779Y-105449979D02*
X44890000Y-106613758D01*
X47506242Y-105450000D02*
X47506221Y-105449979D01*
X41660001Y-111023997D02*
X41660001Y-112799999D01*
X47506221Y-105449979D02*
X46053779Y-105449979D01*
X41660001Y-112799999D02*
X40460000Y-114000000D01*
X44890000Y-106613758D02*
X44890000Y-108860000D01*
X44890000Y-108860000D02*
X43490001Y-110259999D01*
X42423999Y-110259999D02*
X41660001Y-111023997D01*
X43490001Y-110259999D02*
X42423999Y-110259999D01*
X51300000Y-123000000D02*
X51300000Y-120520000D01*
X51300000Y-120520000D02*
X50870000Y-120090000D01*
X62510000Y-109880000D02*
X63810000Y-111180000D01*
X63810000Y-111180000D02*
X68390000Y-111180000D01*
X43000000Y-116460000D02*
X46780000Y-112680000D01*
X46780000Y-112680000D02*
X46780000Y-107100000D01*
X72389999Y-100699999D02*
X58387121Y-100699999D01*
X58387121Y-100699999D02*
X57887111Y-100199989D01*
X57887111Y-100199989D02*
X51118009Y-100199989D01*
X50360000Y-102530000D02*
X51410000Y-102530000D01*
X51118009Y-100199989D02*
X49979999Y-101337999D01*
X49979999Y-101337999D02*
X49979999Y-102149999D01*
X49979999Y-102149999D02*
X50360000Y-102530000D01*
X72389999Y-100699999D02*
X74150000Y-102460000D01*
X74150000Y-102460000D02*
X74250000Y-102460000D01*
D20*
G36*
X67444321Y-45007921D02*
X72561283Y-45499936D01*
X74702773Y-46151694D01*
X77025573Y-47609138D01*
X78229743Y-49660686D01*
X78650464Y-51624050D01*
X79643016Y-58671172D01*
X80091309Y-66043096D01*
X80391275Y-71042524D01*
X80391503Y-71043396D01*
X80391383Y-71044289D01*
X80640884Y-75036310D01*
X80839806Y-80009361D01*
X80690121Y-90986306D01*
X80590300Y-94979132D01*
X80407208Y-100398657D01*
X80135564Y-100126539D01*
X79626702Y-99915241D01*
X79075715Y-99914760D01*
X78566485Y-100125169D01*
X78176539Y-100514436D01*
X77965241Y-101023298D01*
X77964760Y-101574285D01*
X77965196Y-101575339D01*
X77964760Y-102074285D01*
X78006217Y-102174618D01*
X77965241Y-102273298D01*
X77964760Y-102824285D01*
X78006217Y-102924618D01*
X77965241Y-103023298D01*
X77964760Y-103574285D01*
X77965196Y-103575339D01*
X77964760Y-104074285D01*
X78175169Y-104583515D01*
X78564436Y-104973461D01*
X79073298Y-105184759D01*
X79624285Y-105185240D01*
X80133515Y-104974831D01*
X80270267Y-104838318D01*
X79890319Y-118178708D01*
X79690895Y-124460543D01*
X77399705Y-153249843D01*
X77235061Y-153710847D01*
X75780494Y-155165414D01*
X78376765Y-112557724D01*
X78368375Y-112503996D01*
X78341150Y-112461566D01*
X78299563Y-112433071D01*
X78250166Y-112423000D01*
X75161068Y-112418960D01*
X75129013Y-112370987D01*
X74923004Y-112233336D01*
X74680000Y-112185000D01*
X54741431Y-112185000D01*
X54680000Y-112172560D01*
X54180000Y-112172560D01*
X53944683Y-112216838D01*
X53762333Y-112334177D01*
X51565012Y-110136856D01*
X51565162Y-109964833D01*
X51423117Y-109621057D01*
X51287297Y-109485000D01*
X54742494Y-109485000D01*
X54749673Y-109492192D01*
X55093201Y-109634838D01*
X55465167Y-109635162D01*
X55808943Y-109493117D01*
X56072192Y-109230327D01*
X56214838Y-108886799D01*
X56215162Y-108514833D01*
X56126352Y-108299896D01*
X56214838Y-108086799D01*
X56215162Y-107714833D01*
X56073117Y-107371057D01*
X55921242Y-107218916D01*
X56085004Y-107055154D01*
X56084838Y-107245159D01*
X56226883Y-107588935D01*
X56235000Y-107597066D01*
X56235000Y-109467496D01*
X56294755Y-109767903D01*
X56464921Y-110022575D01*
X56490005Y-110047659D01*
X56489996Y-110057821D01*
X56632041Y-110401597D01*
X56894831Y-110664846D01*
X57238359Y-110807492D01*
X57610325Y-110807816D01*
X57954101Y-110665771D01*
X58217350Y-110402981D01*
X58357623Y-110065167D01*
X61574838Y-110065167D01*
X61716883Y-110408943D01*
X61979673Y-110672192D01*
X62323201Y-110814838D01*
X62334690Y-110814848D01*
X63254921Y-111735079D01*
X63509594Y-111905245D01*
X63810000Y-111965001D01*
X63810005Y-111965000D01*
X67852494Y-111965000D01*
X67859673Y-111972192D01*
X68203201Y-112114838D01*
X68575167Y-112115162D01*
X68918943Y-111973117D01*
X69182192Y-111710327D01*
X69324838Y-111366799D01*
X69325162Y-110994833D01*
X69183117Y-110651057D01*
X68920327Y-110387808D01*
X68576799Y-110245162D01*
X68204833Y-110244838D01*
X67861057Y-110386883D01*
X67852926Y-110395000D01*
X64135158Y-110395000D01*
X63445153Y-109704995D01*
X63445162Y-109694833D01*
X63303117Y-109351057D01*
X63040327Y-109087808D01*
X62696799Y-108945162D01*
X62324833Y-108944838D01*
X61981057Y-109086883D01*
X61717808Y-109349673D01*
X61575162Y-109693201D01*
X61574838Y-110065167D01*
X58357623Y-110065167D01*
X58359996Y-110059453D01*
X58360320Y-109687487D01*
X58218275Y-109343711D01*
X57955485Y-109080462D01*
X57805000Y-109017975D01*
X57805000Y-107597498D01*
X57812192Y-107590319D01*
X57954838Y-107246791D01*
X57955162Y-106874825D01*
X57836624Y-106587940D01*
X57900397Y-106575255D01*
X58155069Y-106405089D01*
X58493978Y-106066180D01*
X58675053Y-106247572D01*
X59018581Y-106390218D01*
X59390547Y-106390542D01*
X59642083Y-106286610D01*
X59684264Y-106295000D01*
X62749814Y-106295000D01*
X63050221Y-106235245D01*
X63304893Y-106065079D01*
X63655079Y-105714893D01*
X63825245Y-105460220D01*
X63885000Y-105159814D01*
X63885000Y-104464975D01*
X63996431Y-104301890D01*
X64047440Y-104050000D01*
X64047440Y-101484999D01*
X65517189Y-101484999D01*
X65453569Y-101578110D01*
X65402560Y-101830000D01*
X65402560Y-103130000D01*
X65446838Y-103365317D01*
X65585910Y-103581441D01*
X65798110Y-103726431D01*
X66050000Y-103777440D01*
X66494943Y-103777440D01*
X66536883Y-103878943D01*
X66799673Y-104142192D01*
X67143201Y-104284838D01*
X67515167Y-104285162D01*
X67858943Y-104143117D01*
X68122192Y-103880327D01*
X68261836Y-103544029D01*
X68285910Y-103581441D01*
X68498110Y-103726431D01*
X68750000Y-103777440D01*
X70250000Y-103777440D01*
X70485317Y-103733162D01*
X70537803Y-103699388D01*
X70548110Y-103706431D01*
X70800000Y-103757440D01*
X72300000Y-103757440D01*
X72535317Y-103713162D01*
X72751441Y-103574090D01*
X72896431Y-103361890D01*
X72899081Y-103348803D01*
X73035910Y-103561441D01*
X73248110Y-103706431D01*
X73500000Y-103757440D01*
X75000000Y-103757440D01*
X75235317Y-103713162D01*
X75451441Y-103574090D01*
X75596431Y-103361890D01*
X75647440Y-103110000D01*
X75647440Y-101810000D01*
X75603162Y-101574683D01*
X75464090Y-101358559D01*
X75251890Y-101213569D01*
X75000000Y-101162560D01*
X73962718Y-101162560D01*
X72945078Y-100144920D01*
X72690406Y-99974754D01*
X72389999Y-99914999D01*
X58712279Y-99914999D01*
X58442190Y-99644910D01*
X58187518Y-99474744D01*
X57887111Y-99414989D01*
X51118009Y-99414989D01*
X50817602Y-99474744D01*
X50562930Y-99644910D01*
X49424920Y-100782920D01*
X49254754Y-101037592D01*
X49254754Y-101037593D01*
X49215972Y-101232560D01*
X47960000Y-101232560D01*
X47724683Y-101276838D01*
X47604873Y-101353934D01*
X47501890Y-101283569D01*
X47250000Y-101232560D01*
X45750000Y-101232560D01*
X45514683Y-101276838D01*
X45298559Y-101415910D01*
X45153569Y-101628110D01*
X45150919Y-101641197D01*
X45014090Y-101428559D01*
X44801890Y-101283569D01*
X44550000Y-101232560D01*
X43050000Y-101232560D01*
X42814683Y-101276838D01*
X42598559Y-101415910D01*
X42453569Y-101628110D01*
X42402560Y-101880000D01*
X42402560Y-103180000D01*
X42446838Y-103415317D01*
X42585910Y-103631441D01*
X42798110Y-103776431D01*
X43050000Y-103827440D01*
X43486397Y-103827440D01*
X43343904Y-103969685D01*
X43201258Y-104313213D01*
X43201248Y-104324702D01*
X41104922Y-106421028D01*
X40934756Y-106675700D01*
X40934756Y-106675701D01*
X40875001Y-106976107D01*
X40875001Y-107422560D01*
X39610000Y-107422560D01*
X39374683Y-107466838D01*
X39158559Y-107605910D01*
X39013569Y-107818110D01*
X38962560Y-108070000D01*
X38962560Y-109770000D01*
X39006838Y-110005317D01*
X39145910Y-110221441D01*
X39358110Y-110366431D01*
X39425541Y-110380086D01*
X39380853Y-110409946D01*
X39058946Y-110891715D01*
X38945907Y-111460000D01*
X39058946Y-112028285D01*
X39380853Y-112510054D01*
X39710026Y-112730000D01*
X39380853Y-112949946D01*
X39058946Y-113431715D01*
X38945907Y-114000000D01*
X39058946Y-114568285D01*
X39363867Y-115024633D01*
X39250302Y-115071673D01*
X39071673Y-115250301D01*
X38975000Y-115483690D01*
X38975000Y-116174250D01*
X39133750Y-116333000D01*
X40333000Y-116333000D01*
X40333000Y-116313000D01*
X40587000Y-116313000D01*
X40587000Y-116333000D01*
X40607000Y-116333000D01*
X40607000Y-116587000D01*
X40587000Y-116587000D01*
X40587000Y-116607000D01*
X40333000Y-116607000D01*
X40333000Y-116587000D01*
X39133750Y-116587000D01*
X38975000Y-116745750D01*
X38975000Y-117436310D01*
X39071673Y-117669699D01*
X39250302Y-117848327D01*
X39424777Y-117920597D01*
X39380853Y-117949946D01*
X39058946Y-118431715D01*
X38945907Y-119000000D01*
X39058946Y-119568285D01*
X39380853Y-120050054D01*
X39862622Y-120371961D01*
X40430907Y-120485000D01*
X40489093Y-120485000D01*
X41057378Y-120371961D01*
X41539147Y-120050054D01*
X41730000Y-119764422D01*
X41920853Y-120050054D01*
X42402622Y-120371961D01*
X42970907Y-120485000D01*
X43029093Y-120485000D01*
X43597378Y-120371961D01*
X43742240Y-120275167D01*
X49934838Y-120275167D01*
X50076883Y-120618943D01*
X50339673Y-120882192D01*
X50515000Y-120954994D01*
X50515000Y-122462494D01*
X50507808Y-122469673D01*
X50365162Y-122813201D01*
X50364838Y-123185167D01*
X50506883Y-123528943D01*
X50769673Y-123792192D01*
X51113201Y-123934838D01*
X51485167Y-123935162D01*
X51828943Y-123793117D01*
X52092192Y-123530327D01*
X52234838Y-123186799D01*
X52235162Y-122814833D01*
X52093117Y-122471057D01*
X52085000Y-122462926D01*
X52085000Y-120520000D01*
X52025245Y-120219594D01*
X51855079Y-119964921D01*
X51805153Y-119914995D01*
X51805162Y-119904833D01*
X51663117Y-119561057D01*
X51400327Y-119297808D01*
X51056799Y-119155162D01*
X50684833Y-119154838D01*
X50341057Y-119296883D01*
X50077808Y-119559673D01*
X49935162Y-119903201D01*
X49934838Y-120275167D01*
X43742240Y-120275167D01*
X44079147Y-120050054D01*
X44401054Y-119568285D01*
X44514093Y-119000000D01*
X44401054Y-118431715D01*
X44079147Y-117949946D01*
X43749974Y-117730000D01*
X44079147Y-117510054D01*
X44401054Y-117028285D01*
X44514093Y-116460000D01*
X44447076Y-116123082D01*
X47335079Y-113235079D01*
X47505245Y-112980407D01*
X47565000Y-112680000D01*
X47565000Y-108033156D01*
X48786923Y-109255079D01*
X49041596Y-109425245D01*
X49342002Y-109485000D01*
X49972716Y-109485000D01*
X49837808Y-109619673D01*
X49695162Y-109963201D01*
X49694838Y-110335167D01*
X49836883Y-110678943D01*
X50099673Y-110942192D01*
X50185792Y-110977952D01*
X53082919Y-113875079D01*
X53337592Y-114045245D01*
X53604524Y-114098342D01*
X53715910Y-114271441D01*
X53928110Y-114416431D01*
X54180000Y-114467440D01*
X54680000Y-114467440D01*
X54746113Y-114455000D01*
X55281838Y-114455000D01*
X55472683Y-118185000D01*
X55241431Y-118185000D01*
X55180000Y-118172560D01*
X54680000Y-118172560D01*
X54444683Y-118216838D01*
X54228559Y-118355910D01*
X54083569Y-118568110D01*
X54032560Y-118820000D01*
X54032560Y-119543137D01*
X53995162Y-119633201D01*
X53994838Y-120005167D01*
X54032560Y-120096461D01*
X54032560Y-120820000D01*
X54076838Y-121055317D01*
X54215910Y-121271441D01*
X54428110Y-121416431D01*
X54680000Y-121467440D01*
X55180000Y-121467440D01*
X55246113Y-121455000D01*
X55639993Y-121455000D01*
X57423166Y-156306489D01*
X57430307Y-156342458D01*
X57456256Y-156385680D01*
X57496976Y-156415401D01*
X57546051Y-156426939D01*
X71314892Y-156855303D01*
X68053507Y-157191034D01*
X61042283Y-157389934D01*
X53534556Y-157340214D01*
X47564011Y-156797437D01*
X45966565Y-156421567D01*
X44746698Y-155924585D01*
X43954006Y-155352085D01*
X43084135Y-154527997D01*
X42452842Y-153671242D01*
X41164836Y-151238345D01*
X40845563Y-150052474D01*
X40604235Y-148507969D01*
X40407144Y-146635606D01*
X39508354Y-134951327D01*
X39058705Y-127517135D01*
X39057045Y-127510813D01*
X39058305Y-127500963D01*
X38608305Y-121000964D01*
X38608097Y-121000200D01*
X38608196Y-120999414D01*
X38108479Y-114003377D01*
X37809363Y-109018110D01*
X37676361Y-104584709D01*
X38064436Y-104973461D01*
X38573298Y-105184759D01*
X39124285Y-105185240D01*
X39633515Y-104974831D01*
X40023461Y-104585564D01*
X40234759Y-104076702D01*
X40235240Y-103525715D01*
X40234804Y-103524661D01*
X40235240Y-103025715D01*
X40193783Y-102925382D01*
X40234759Y-102826702D01*
X40235240Y-102275715D01*
X40234804Y-102274661D01*
X40235240Y-101775715D01*
X40193783Y-101675382D01*
X40234759Y-101576702D01*
X40235240Y-101025715D01*
X40024831Y-100516485D01*
X39635564Y-100126539D01*
X39126702Y-99915241D01*
X38575715Y-99914760D01*
X38066485Y-100125169D01*
X37676539Y-100514436D01*
X37548585Y-100822584D01*
X37498380Y-99373795D01*
X74714716Y-99373795D01*
X74963106Y-99974943D01*
X75422637Y-100435278D01*
X76023352Y-100684716D01*
X76673795Y-100685284D01*
X77274943Y-100436894D01*
X77735278Y-99977363D01*
X77984716Y-99376648D01*
X77985284Y-98726205D01*
X77736894Y-98125057D01*
X77277363Y-97664722D01*
X76676648Y-97415284D01*
X76026205Y-97414716D01*
X75425057Y-97663106D01*
X74964722Y-98122637D01*
X74715284Y-98723352D01*
X74714716Y-99373795D01*
X37498380Y-99373795D01*
X37310000Y-93937704D01*
X37310000Y-90959247D01*
X37487717Y-84129845D01*
X37675169Y-84583515D01*
X38064436Y-84973461D01*
X38573298Y-85184759D01*
X39124285Y-85185240D01*
X39633515Y-84974831D01*
X40023461Y-84585564D01*
X40234759Y-84076702D01*
X40235240Y-83525715D01*
X40234804Y-83524661D01*
X40235240Y-83025715D01*
X40193783Y-82925382D01*
X40234759Y-82826702D01*
X40235240Y-82275715D01*
X40234804Y-82274661D01*
X40235240Y-81775715D01*
X40193783Y-81675382D01*
X40234759Y-81576702D01*
X40234761Y-81574285D01*
X77964760Y-81574285D01*
X77965196Y-81575339D01*
X77964760Y-82074285D01*
X78006217Y-82174618D01*
X77965241Y-82273298D01*
X77964760Y-82824285D01*
X77965196Y-82825339D01*
X77964760Y-83324285D01*
X78006217Y-83424618D01*
X77965241Y-83523298D01*
X77964760Y-84074285D01*
X78175169Y-84583515D01*
X78564436Y-84973461D01*
X79073298Y-85184759D01*
X79624285Y-85185240D01*
X80133515Y-84974831D01*
X80523461Y-84585564D01*
X80734759Y-84076702D01*
X80735240Y-83525715D01*
X80693783Y-83425382D01*
X80734759Y-83326702D01*
X80735240Y-82775715D01*
X80734804Y-82774661D01*
X80735240Y-82275715D01*
X80693783Y-82175382D01*
X80734759Y-82076702D01*
X80735240Y-81525715D01*
X80734804Y-81524661D01*
X80735240Y-81025715D01*
X80524831Y-80516485D01*
X80135564Y-80126539D01*
X79626702Y-79915241D01*
X79075715Y-79914760D01*
X78566485Y-80125169D01*
X78176539Y-80514436D01*
X77965241Y-81023298D01*
X77964760Y-81574285D01*
X40234761Y-81574285D01*
X40235240Y-81025715D01*
X40024831Y-80516485D01*
X39635564Y-80126539D01*
X39126702Y-79915241D01*
X38575715Y-79914760D01*
X38066485Y-80125169D01*
X37676539Y-80514436D01*
X37575464Y-80757852D01*
X37659522Y-77527605D01*
X37900556Y-72873795D01*
X40214716Y-72873795D01*
X40463106Y-73474943D01*
X40922637Y-73935278D01*
X41523352Y-74184716D01*
X42173795Y-74185284D01*
X42774943Y-73936894D01*
X43235278Y-73477363D01*
X43484716Y-72876648D01*
X43485284Y-72226205D01*
X43236894Y-71625057D01*
X42777363Y-71164722D01*
X42176648Y-70915284D01*
X41526205Y-70914716D01*
X40925057Y-71163106D01*
X40464722Y-71622637D01*
X40215284Y-72223352D01*
X40214716Y-72873795D01*
X37900556Y-72873795D01*
X38308305Y-65001107D01*
X38805354Y-59632982D01*
X39549259Y-54425641D01*
X40585483Y-49650000D01*
X56333112Y-49650000D01*
X56608431Y-51034123D01*
X57392474Y-52207526D01*
X58565877Y-52991569D01*
X59950000Y-53266888D01*
X61334123Y-52991569D01*
X62507526Y-52207526D01*
X63291569Y-51034123D01*
X63566888Y-49650000D01*
X63291569Y-48265877D01*
X62507526Y-47092474D01*
X61334123Y-46308431D01*
X59950000Y-46033112D01*
X58565877Y-46308431D01*
X57392474Y-47092474D01*
X56608431Y-48265877D01*
X56333112Y-49650000D01*
X40585483Y-49650000D01*
X40673723Y-49243331D01*
X41229433Y-48174659D01*
X42004659Y-47399433D01*
X43149979Y-46620615D01*
X44257454Y-46113023D01*
X45578830Y-45688294D01*
X47003693Y-45403322D01*
X52694489Y-44858985D01*
X57660657Y-44710000D01*
X62578286Y-44710000D01*
X67444321Y-45007921D01*
X67444321Y-45007921D01*
G37*
X67444321Y-45007921D02*
X72561283Y-45499936D01*
X74702773Y-46151694D01*
X77025573Y-47609138D01*
X78229743Y-49660686D01*
X78650464Y-51624050D01*
X79643016Y-58671172D01*
X80091309Y-66043096D01*
X80391275Y-71042524D01*
X80391503Y-71043396D01*
X80391383Y-71044289D01*
X80640884Y-75036310D01*
X80839806Y-80009361D01*
X80690121Y-90986306D01*
X80590300Y-94979132D01*
X80407208Y-100398657D01*
X80135564Y-100126539D01*
X79626702Y-99915241D01*
X79075715Y-99914760D01*
X78566485Y-100125169D01*
X78176539Y-100514436D01*
X77965241Y-101023298D01*
X77964760Y-101574285D01*
X77965196Y-101575339D01*
X77964760Y-102074285D01*
X78006217Y-102174618D01*
X77965241Y-102273298D01*
X77964760Y-102824285D01*
X78006217Y-102924618D01*
X77965241Y-103023298D01*
X77964760Y-103574285D01*
X77965196Y-103575339D01*
X77964760Y-104074285D01*
X78175169Y-104583515D01*
X78564436Y-104973461D01*
X79073298Y-105184759D01*
X79624285Y-105185240D01*
X80133515Y-104974831D01*
X80270267Y-104838318D01*
X79890319Y-118178708D01*
X79690895Y-124460543D01*
X77399705Y-153249843D01*
X77235061Y-153710847D01*
X75780494Y-155165414D01*
X78376765Y-112557724D01*
X78368375Y-112503996D01*
X78341150Y-112461566D01*
X78299563Y-112433071D01*
X78250166Y-112423000D01*
X75161068Y-112418960D01*
X75129013Y-112370987D01*
X74923004Y-112233336D01*
X74680000Y-112185000D01*
X54741431Y-112185000D01*
X54680000Y-112172560D01*
X54180000Y-112172560D01*
X53944683Y-112216838D01*
X53762333Y-112334177D01*
X51565012Y-110136856D01*
X51565162Y-109964833D01*
X51423117Y-109621057D01*
X51287297Y-109485000D01*
X54742494Y-109485000D01*
X54749673Y-109492192D01*
X55093201Y-109634838D01*
X55465167Y-109635162D01*
X55808943Y-109493117D01*
X56072192Y-109230327D01*
X56214838Y-108886799D01*
X56215162Y-108514833D01*
X56126352Y-108299896D01*
X56214838Y-108086799D01*
X56215162Y-107714833D01*
X56073117Y-107371057D01*
X55921242Y-107218916D01*
X56085004Y-107055154D01*
X56084838Y-107245159D01*
X56226883Y-107588935D01*
X56235000Y-107597066D01*
X56235000Y-109467496D01*
X56294755Y-109767903D01*
X56464921Y-110022575D01*
X56490005Y-110047659D01*
X56489996Y-110057821D01*
X56632041Y-110401597D01*
X56894831Y-110664846D01*
X57238359Y-110807492D01*
X57610325Y-110807816D01*
X57954101Y-110665771D01*
X58217350Y-110402981D01*
X58357623Y-110065167D01*
X61574838Y-110065167D01*
X61716883Y-110408943D01*
X61979673Y-110672192D01*
X62323201Y-110814838D01*
X62334690Y-110814848D01*
X63254921Y-111735079D01*
X63509594Y-111905245D01*
X63810000Y-111965001D01*
X63810005Y-111965000D01*
X67852494Y-111965000D01*
X67859673Y-111972192D01*
X68203201Y-112114838D01*
X68575167Y-112115162D01*
X68918943Y-111973117D01*
X69182192Y-111710327D01*
X69324838Y-111366799D01*
X69325162Y-110994833D01*
X69183117Y-110651057D01*
X68920327Y-110387808D01*
X68576799Y-110245162D01*
X68204833Y-110244838D01*
X67861057Y-110386883D01*
X67852926Y-110395000D01*
X64135158Y-110395000D01*
X63445153Y-109704995D01*
X63445162Y-109694833D01*
X63303117Y-109351057D01*
X63040327Y-109087808D01*
X62696799Y-108945162D01*
X62324833Y-108944838D01*
X61981057Y-109086883D01*
X61717808Y-109349673D01*
X61575162Y-109693201D01*
X61574838Y-110065167D01*
X58357623Y-110065167D01*
X58359996Y-110059453D01*
X58360320Y-109687487D01*
X58218275Y-109343711D01*
X57955485Y-109080462D01*
X57805000Y-109017975D01*
X57805000Y-107597498D01*
X57812192Y-107590319D01*
X57954838Y-107246791D01*
X57955162Y-106874825D01*
X57836624Y-106587940D01*
X57900397Y-106575255D01*
X58155069Y-106405089D01*
X58493978Y-106066180D01*
X58675053Y-106247572D01*
X59018581Y-106390218D01*
X59390547Y-106390542D01*
X59642083Y-106286610D01*
X59684264Y-106295000D01*
X62749814Y-106295000D01*
X63050221Y-106235245D01*
X63304893Y-106065079D01*
X63655079Y-105714893D01*
X63825245Y-105460220D01*
X63885000Y-105159814D01*
X63885000Y-104464975D01*
X63996431Y-104301890D01*
X64047440Y-104050000D01*
X64047440Y-101484999D01*
X65517189Y-101484999D01*
X65453569Y-101578110D01*
X65402560Y-101830000D01*
X65402560Y-103130000D01*
X65446838Y-103365317D01*
X65585910Y-103581441D01*
X65798110Y-103726431D01*
X66050000Y-103777440D01*
X66494943Y-103777440D01*
X66536883Y-103878943D01*
X66799673Y-104142192D01*
X67143201Y-104284838D01*
X67515167Y-104285162D01*
X67858943Y-104143117D01*
X68122192Y-103880327D01*
X68261836Y-103544029D01*
X68285910Y-103581441D01*
X68498110Y-103726431D01*
X68750000Y-103777440D01*
X70250000Y-103777440D01*
X70485317Y-103733162D01*
X70537803Y-103699388D01*
X70548110Y-103706431D01*
X70800000Y-103757440D01*
X72300000Y-103757440D01*
X72535317Y-103713162D01*
X72751441Y-103574090D01*
X72896431Y-103361890D01*
X72899081Y-103348803D01*
X73035910Y-103561441D01*
X73248110Y-103706431D01*
X73500000Y-103757440D01*
X75000000Y-103757440D01*
X75235317Y-103713162D01*
X75451441Y-103574090D01*
X75596431Y-103361890D01*
X75647440Y-103110000D01*
X75647440Y-101810000D01*
X75603162Y-101574683D01*
X75464090Y-101358559D01*
X75251890Y-101213569D01*
X75000000Y-101162560D01*
X73962718Y-101162560D01*
X72945078Y-100144920D01*
X72690406Y-99974754D01*
X72389999Y-99914999D01*
X58712279Y-99914999D01*
X58442190Y-99644910D01*
X58187518Y-99474744D01*
X57887111Y-99414989D01*
X51118009Y-99414989D01*
X50817602Y-99474744D01*
X50562930Y-99644910D01*
X49424920Y-100782920D01*
X49254754Y-101037592D01*
X49254754Y-101037593D01*
X49215972Y-101232560D01*
X47960000Y-101232560D01*
X47724683Y-101276838D01*
X47604873Y-101353934D01*
X47501890Y-101283569D01*
X47250000Y-101232560D01*
X45750000Y-101232560D01*
X45514683Y-101276838D01*
X45298559Y-101415910D01*
X45153569Y-101628110D01*
X45150919Y-101641197D01*
X45014090Y-101428559D01*
X44801890Y-101283569D01*
X44550000Y-101232560D01*
X43050000Y-101232560D01*
X42814683Y-101276838D01*
X42598559Y-101415910D01*
X42453569Y-101628110D01*
X42402560Y-101880000D01*
X42402560Y-103180000D01*
X42446838Y-103415317D01*
X42585910Y-103631441D01*
X42798110Y-103776431D01*
X43050000Y-103827440D01*
X43486397Y-103827440D01*
X43343904Y-103969685D01*
X43201258Y-104313213D01*
X43201248Y-104324702D01*
X41104922Y-106421028D01*
X40934756Y-106675700D01*
X40934756Y-106675701D01*
X40875001Y-106976107D01*
X40875001Y-107422560D01*
X39610000Y-107422560D01*
X39374683Y-107466838D01*
X39158559Y-107605910D01*
X39013569Y-107818110D01*
X38962560Y-108070000D01*
X38962560Y-109770000D01*
X39006838Y-110005317D01*
X39145910Y-110221441D01*
X39358110Y-110366431D01*
X39425541Y-110380086D01*
X39380853Y-110409946D01*
X39058946Y-110891715D01*
X38945907Y-111460000D01*
X39058946Y-112028285D01*
X39380853Y-112510054D01*
X39710026Y-112730000D01*
X39380853Y-112949946D01*
X39058946Y-113431715D01*
X38945907Y-114000000D01*
X39058946Y-114568285D01*
X39363867Y-115024633D01*
X39250302Y-115071673D01*
X39071673Y-115250301D01*
X38975000Y-115483690D01*
X38975000Y-116174250D01*
X39133750Y-116333000D01*
X40333000Y-116333000D01*
X40333000Y-116313000D01*
X40587000Y-116313000D01*
X40587000Y-116333000D01*
X40607000Y-116333000D01*
X40607000Y-116587000D01*
X40587000Y-116587000D01*
X40587000Y-116607000D01*
X40333000Y-116607000D01*
X40333000Y-116587000D01*
X39133750Y-116587000D01*
X38975000Y-116745750D01*
X38975000Y-117436310D01*
X39071673Y-117669699D01*
X39250302Y-117848327D01*
X39424777Y-117920597D01*
X39380853Y-117949946D01*
X39058946Y-118431715D01*
X38945907Y-119000000D01*
X39058946Y-119568285D01*
X39380853Y-120050054D01*
X39862622Y-120371961D01*
X40430907Y-120485000D01*
X40489093Y-120485000D01*
X41057378Y-120371961D01*
X41539147Y-120050054D01*
X41730000Y-119764422D01*
X41920853Y-120050054D01*
X42402622Y-120371961D01*
X42970907Y-120485000D01*
X43029093Y-120485000D01*
X43597378Y-120371961D01*
X43742240Y-120275167D01*
X49934838Y-120275167D01*
X50076883Y-120618943D01*
X50339673Y-120882192D01*
X50515000Y-120954994D01*
X50515000Y-122462494D01*
X50507808Y-122469673D01*
X50365162Y-122813201D01*
X50364838Y-123185167D01*
X50506883Y-123528943D01*
X50769673Y-123792192D01*
X51113201Y-123934838D01*
X51485167Y-123935162D01*
X51828943Y-123793117D01*
X52092192Y-123530327D01*
X52234838Y-123186799D01*
X52235162Y-122814833D01*
X52093117Y-122471057D01*
X52085000Y-122462926D01*
X52085000Y-120520000D01*
X52025245Y-120219594D01*
X51855079Y-119964921D01*
X51805153Y-119914995D01*
X51805162Y-119904833D01*
X51663117Y-119561057D01*
X51400327Y-119297808D01*
X51056799Y-119155162D01*
X50684833Y-119154838D01*
X50341057Y-119296883D01*
X50077808Y-119559673D01*
X49935162Y-119903201D01*
X49934838Y-120275167D01*
X43742240Y-120275167D01*
X44079147Y-120050054D01*
X44401054Y-119568285D01*
X44514093Y-119000000D01*
X44401054Y-118431715D01*
X44079147Y-117949946D01*
X43749974Y-117730000D01*
X44079147Y-117510054D01*
X44401054Y-117028285D01*
X44514093Y-116460000D01*
X44447076Y-116123082D01*
X47335079Y-113235079D01*
X47505245Y-112980407D01*
X47565000Y-112680000D01*
X47565000Y-108033156D01*
X48786923Y-109255079D01*
X49041596Y-109425245D01*
X49342002Y-109485000D01*
X49972716Y-109485000D01*
X49837808Y-109619673D01*
X49695162Y-109963201D01*
X49694838Y-110335167D01*
X49836883Y-110678943D01*
X50099673Y-110942192D01*
X50185792Y-110977952D01*
X53082919Y-113875079D01*
X53337592Y-114045245D01*
X53604524Y-114098342D01*
X53715910Y-114271441D01*
X53928110Y-114416431D01*
X54180000Y-114467440D01*
X54680000Y-114467440D01*
X54746113Y-114455000D01*
X55281838Y-114455000D01*
X55472683Y-118185000D01*
X55241431Y-118185000D01*
X55180000Y-118172560D01*
X54680000Y-118172560D01*
X54444683Y-118216838D01*
X54228559Y-118355910D01*
X54083569Y-118568110D01*
X54032560Y-118820000D01*
X54032560Y-119543137D01*
X53995162Y-119633201D01*
X53994838Y-120005167D01*
X54032560Y-120096461D01*
X54032560Y-120820000D01*
X54076838Y-121055317D01*
X54215910Y-121271441D01*
X54428110Y-121416431D01*
X54680000Y-121467440D01*
X55180000Y-121467440D01*
X55246113Y-121455000D01*
X55639993Y-121455000D01*
X57423166Y-156306489D01*
X57430307Y-156342458D01*
X57456256Y-156385680D01*
X57496976Y-156415401D01*
X57546051Y-156426939D01*
X71314892Y-156855303D01*
X68053507Y-157191034D01*
X61042283Y-157389934D01*
X53534556Y-157340214D01*
X47564011Y-156797437D01*
X45966565Y-156421567D01*
X44746698Y-155924585D01*
X43954006Y-155352085D01*
X43084135Y-154527997D01*
X42452842Y-153671242D01*
X41164836Y-151238345D01*
X40845563Y-150052474D01*
X40604235Y-148507969D01*
X40407144Y-146635606D01*
X39508354Y-134951327D01*
X39058705Y-127517135D01*
X39057045Y-127510813D01*
X39058305Y-127500963D01*
X38608305Y-121000964D01*
X38608097Y-121000200D01*
X38608196Y-120999414D01*
X38108479Y-114003377D01*
X37809363Y-109018110D01*
X37676361Y-104584709D01*
X38064436Y-104973461D01*
X38573298Y-105184759D01*
X39124285Y-105185240D01*
X39633515Y-104974831D01*
X40023461Y-104585564D01*
X40234759Y-104076702D01*
X40235240Y-103525715D01*
X40234804Y-103524661D01*
X40235240Y-103025715D01*
X40193783Y-102925382D01*
X40234759Y-102826702D01*
X40235240Y-102275715D01*
X40234804Y-102274661D01*
X40235240Y-101775715D01*
X40193783Y-101675382D01*
X40234759Y-101576702D01*
X40235240Y-101025715D01*
X40024831Y-100516485D01*
X39635564Y-100126539D01*
X39126702Y-99915241D01*
X38575715Y-99914760D01*
X38066485Y-100125169D01*
X37676539Y-100514436D01*
X37548585Y-100822584D01*
X37498380Y-99373795D01*
X74714716Y-99373795D01*
X74963106Y-99974943D01*
X75422637Y-100435278D01*
X76023352Y-100684716D01*
X76673795Y-100685284D01*
X77274943Y-100436894D01*
X77735278Y-99977363D01*
X77984716Y-99376648D01*
X77985284Y-98726205D01*
X77736894Y-98125057D01*
X77277363Y-97664722D01*
X76676648Y-97415284D01*
X76026205Y-97414716D01*
X75425057Y-97663106D01*
X74964722Y-98122637D01*
X74715284Y-98723352D01*
X74714716Y-99373795D01*
X37498380Y-99373795D01*
X37310000Y-93937704D01*
X37310000Y-90959247D01*
X37487717Y-84129845D01*
X37675169Y-84583515D01*
X38064436Y-84973461D01*
X38573298Y-85184759D01*
X39124285Y-85185240D01*
X39633515Y-84974831D01*
X40023461Y-84585564D01*
X40234759Y-84076702D01*
X40235240Y-83525715D01*
X40234804Y-83524661D01*
X40235240Y-83025715D01*
X40193783Y-82925382D01*
X40234759Y-82826702D01*
X40235240Y-82275715D01*
X40234804Y-82274661D01*
X40235240Y-81775715D01*
X40193783Y-81675382D01*
X40234759Y-81576702D01*
X40234761Y-81574285D01*
X77964760Y-81574285D01*
X77965196Y-81575339D01*
X77964760Y-82074285D01*
X78006217Y-82174618D01*
X77965241Y-82273298D01*
X77964760Y-82824285D01*
X77965196Y-82825339D01*
X77964760Y-83324285D01*
X78006217Y-83424618D01*
X77965241Y-83523298D01*
X77964760Y-84074285D01*
X78175169Y-84583515D01*
X78564436Y-84973461D01*
X79073298Y-85184759D01*
X79624285Y-85185240D01*
X80133515Y-84974831D01*
X80523461Y-84585564D01*
X80734759Y-84076702D01*
X80735240Y-83525715D01*
X80693783Y-83425382D01*
X80734759Y-83326702D01*
X80735240Y-82775715D01*
X80734804Y-82774661D01*
X80735240Y-82275715D01*
X80693783Y-82175382D01*
X80734759Y-82076702D01*
X80735240Y-81525715D01*
X80734804Y-81524661D01*
X80735240Y-81025715D01*
X80524831Y-80516485D01*
X80135564Y-80126539D01*
X79626702Y-79915241D01*
X79075715Y-79914760D01*
X78566485Y-80125169D01*
X78176539Y-80514436D01*
X77965241Y-81023298D01*
X77964760Y-81574285D01*
X40234761Y-81574285D01*
X40235240Y-81025715D01*
X40024831Y-80516485D01*
X39635564Y-80126539D01*
X39126702Y-79915241D01*
X38575715Y-79914760D01*
X38066485Y-80125169D01*
X37676539Y-80514436D01*
X37575464Y-80757852D01*
X37659522Y-77527605D01*
X37900556Y-72873795D01*
X40214716Y-72873795D01*
X40463106Y-73474943D01*
X40922637Y-73935278D01*
X41523352Y-74184716D01*
X42173795Y-74185284D01*
X42774943Y-73936894D01*
X43235278Y-73477363D01*
X43484716Y-72876648D01*
X43485284Y-72226205D01*
X43236894Y-71625057D01*
X42777363Y-71164722D01*
X42176648Y-70915284D01*
X41526205Y-70914716D01*
X40925057Y-71163106D01*
X40464722Y-71622637D01*
X40215284Y-72223352D01*
X40214716Y-72873795D01*
X37900556Y-72873795D01*
X38308305Y-65001107D01*
X38805354Y-59632982D01*
X39549259Y-54425641D01*
X40585483Y-49650000D01*
X56333112Y-49650000D01*
X56608431Y-51034123D01*
X57392474Y-52207526D01*
X58565877Y-52991569D01*
X59950000Y-53266888D01*
X61334123Y-52991569D01*
X62507526Y-52207526D01*
X63291569Y-51034123D01*
X63566888Y-49650000D01*
X63291569Y-48265877D01*
X62507526Y-47092474D01*
X61334123Y-46308431D01*
X59950000Y-46033112D01*
X58565877Y-46308431D01*
X57392474Y-47092474D01*
X56608431Y-48265877D01*
X56333112Y-49650000D01*
X40585483Y-49650000D01*
X40673723Y-49243331D01*
X41229433Y-48174659D01*
X42004659Y-47399433D01*
X43149979Y-46620615D01*
X44257454Y-46113023D01*
X45578830Y-45688294D01*
X47003693Y-45403322D01*
X52694489Y-44858985D01*
X57660657Y-44710000D01*
X62578286Y-44710000D01*
X67444321Y-45007921D01*
G36*
X54165000Y-102264250D02*
X54323750Y-102423000D01*
X54973000Y-102423000D01*
X54973000Y-102403000D01*
X55152560Y-102403000D01*
X55152560Y-102697000D01*
X54973000Y-102697000D01*
X54973000Y-102677000D01*
X54323750Y-102677000D01*
X54165000Y-102835750D01*
X54165000Y-103615001D01*
X53797997Y-103615001D01*
X53745010Y-103625541D01*
X53745010Y-102585146D01*
X54165000Y-102165156D01*
X54165000Y-102264250D01*
X54165000Y-102264250D01*
G37*
X54165000Y-102264250D02*
X54323750Y-102423000D01*
X54973000Y-102423000D01*
X54973000Y-102403000D01*
X55152560Y-102403000D01*
X55152560Y-102697000D01*
X54973000Y-102697000D01*
X54973000Y-102677000D01*
X54323750Y-102677000D01*
X54165000Y-102835750D01*
X54165000Y-103615001D01*
X53797997Y-103615001D01*
X53745010Y-103625541D01*
X53745010Y-102585146D01*
X54165000Y-102165156D01*
X54165000Y-102264250D01*
M02*
