G04 #@! TF.FileFunction,Soldermask,Top*
%FSLAX46Y46*%
G04 Gerber Fmt 4.6, Leading zero omitted, Abs format (unit mm)*
G04 Created by KiCad (PCBNEW 4.0.7) date Sun Sep  2 09:00:50 2018*
%MOMM*%
%LPD*%
G01*
G04 APERTURE LIST*
%ADD10C,0.100000*%
%ADD11R,2.100000X2.100000*%
%ADD12O,2.100000X2.100000*%
%ADD13R,1.900000X1.700000*%
%ADD14C,1.900000*%
%ADD15O,2.400000X4.900000*%
%ADD16R,1.000000X3.400000*%
%ADD17R,0.900000X2.400000*%
%ADD18R,0.900000X1.400000*%
G04 APERTURE END LIST*
D10*
D11*
X40460000Y-108920000D03*
D12*
X43000000Y-108920000D03*
X40460000Y-111460000D03*
X43000000Y-111460000D03*
X40460000Y-114000000D03*
X43000000Y-114000000D03*
D11*
X40460000Y-116460000D03*
D12*
X43000000Y-116460000D03*
X40460000Y-119000000D03*
X43000000Y-119000000D03*
D13*
X51410000Y-102530000D03*
X48710000Y-102530000D03*
X66800000Y-102480000D03*
X69500000Y-102480000D03*
D14*
X38850000Y-82050000D03*
X38850000Y-83300000D03*
X79350000Y-81800000D03*
X79350000Y-83050000D03*
X79350000Y-81300000D03*
X79350000Y-83800000D03*
X79350000Y-101300000D03*
X79350000Y-101800000D03*
X79350000Y-103800000D03*
X79350000Y-103300000D03*
X38850000Y-81300000D03*
X38850000Y-83800000D03*
X38850000Y-102050000D03*
D15*
X38850000Y-82550000D03*
X79350000Y-82550000D03*
X38850000Y-102550000D03*
X79350000Y-102550000D03*
D16*
X55100000Y-102550000D03*
X56100000Y-102550000D03*
X57100000Y-102550000D03*
X58100000Y-102550000D03*
X63100000Y-102550000D03*
X62100000Y-102550000D03*
X59100000Y-102550000D03*
X60100000Y-102550000D03*
X61100000Y-102550000D03*
D14*
X38850000Y-103800000D03*
X38850000Y-101300000D03*
X38850000Y-103300000D03*
D13*
X46500000Y-102530000D03*
X43800000Y-102530000D03*
X74250000Y-102460000D03*
X71550000Y-102460000D03*
D17*
X54930000Y-119820000D03*
D18*
X54430000Y-113320000D03*
M02*
