M48
;DRILL file {KiCad 4.0.7} date Sun Sep  2 09:00:28 2018
;FORMAT={-:-/ absolute / inch / decimal}
FMAT,2
INCH,TZ
T1C0.016
T2C0.039
T3C0.079
%
G90
G05
M72
T1
X1.5634Y-3.8685
X1.6228Y-4.148
X1.7118Y-5.2039
X1.7376Y-4.1142
X1.7598Y-2.6772
X1.8417Y-4.2165
X1.9031Y-4.1516
X1.9393Y-4.1016
X1.9563Y-4.2224
X1.9933Y-4.002
X1.9933Y-4.3366
X2.0028Y-4.728
X2.0197Y-4.8425
X2.0504Y-4.1004
X2.0504Y-4.1831
X2.0563Y-4.002
X2.0878Y-4.3366
X2.1106Y-4.0689
X2.1185Y-4.1476
X2.1626Y-4.7173
X2.1764Y-4.248
X2.1764Y-4.2795
X2.2449Y-4.215
X2.2608Y-4.3257
X2.3309Y-4.1518
X2.3736Y-4.3535
X2.4055Y-4.0374
X2.461Y-4.326
X2.6508Y-4.0689
X2.6925Y-4.3772
X2.8898Y-4.1264
X2.8898Y-4.2091
X2.8917Y-4.2937
X2.9646Y-2.6772
X2.9827Y-4.1504
T2
X1.5929Y-4.2882
X1.5929Y-4.3882
X1.5929Y-4.4882
X1.5929Y-4.585
X1.5929Y-4.685
X1.6929Y-4.2882
X1.6929Y-4.3882
X1.6929Y-4.4882
X1.6929Y-4.585
X1.6929Y-4.685
T3
X1.6476Y-2.8563
X3.0059Y-3.8996
T0
M30
