G04 #@! TF.GenerationSoftware,KiCad,Pcbnew,5.0.1+dfsg1-3*
G04 #@! TF.CreationDate,2018-12-15T17:15:27+11:00*
G04 #@! TF.ProjectId,BSidesCBR2019,425369646573434252323031392E6B69,rev?*
G04 #@! TF.SameCoordinates,Original*
G04 #@! TF.FileFunction,Soldermask,Bot*
G04 #@! TF.FilePolarity,Negative*
%FSLAX46Y46*%
G04 Gerber Fmt 4.6, Leading zero omitted, Abs format (unit mm)*
G04 Created by KiCad (PCBNEW 5.0.1+dfsg1-3) date Sat 15 Dec 2018 17:15:27 AEDT*
%MOMM*%
%LPD*%
G01*
G04 APERTURE LIST*
%ADD10C,0.100000*%
G04 APERTURE END LIST*
D10*
G36*
X51317800Y-144946600D02*
X48167800Y-144946600D01*
X48167800Y-143546600D01*
X51317800Y-143546600D01*
X51317800Y-144946600D01*
X51317800Y-144946600D01*
G37*
G36*
X45567800Y-144946600D02*
X42417800Y-144946600D01*
X42417800Y-143546600D01*
X45567800Y-143546600D01*
X45567800Y-144946600D01*
X45567800Y-144946600D01*
G37*
G36*
X45567800Y-140946600D02*
X42417800Y-140946600D01*
X42417800Y-139546600D01*
X45567800Y-139546600D01*
X45567800Y-140946600D01*
X45567800Y-140946600D01*
G37*
G36*
X51317800Y-140946600D02*
X48167800Y-140946600D01*
X48167800Y-139546600D01*
X51317800Y-139546600D01*
X51317800Y-140946600D01*
X51317800Y-140946600D01*
G37*
G36*
X74684600Y-134374600D02*
X72584600Y-134374600D01*
X72584600Y-132274600D01*
X74684600Y-132274600D01*
X74684600Y-134374600D01*
X74684600Y-134374600D01*
G37*
G36*
X73763307Y-129742197D02*
X73840436Y-129749793D01*
X73972387Y-129789820D01*
X74038363Y-129809833D01*
X74220772Y-129907333D01*
X74380654Y-130038546D01*
X74511867Y-130198428D01*
X74609367Y-130380837D01*
X74609367Y-130380838D01*
X74669407Y-130578764D01*
X74689680Y-130784600D01*
X74669407Y-130990436D01*
X74629380Y-131122387D01*
X74609367Y-131188363D01*
X74511867Y-131370772D01*
X74380654Y-131530654D01*
X74220772Y-131661867D01*
X74038363Y-131759367D01*
X73972387Y-131779380D01*
X73840436Y-131819407D01*
X73763307Y-131827003D01*
X73686180Y-131834600D01*
X73583020Y-131834600D01*
X73505893Y-131827003D01*
X73428764Y-131819407D01*
X73296813Y-131779380D01*
X73230837Y-131759367D01*
X73048428Y-131661867D01*
X72888546Y-131530654D01*
X72757333Y-131370772D01*
X72659833Y-131188363D01*
X72639820Y-131122387D01*
X72599793Y-130990436D01*
X72579520Y-130784600D01*
X72599793Y-130578764D01*
X72659833Y-130380838D01*
X72659833Y-130380837D01*
X72757333Y-130198428D01*
X72888546Y-130038546D01*
X73048428Y-129907333D01*
X73230837Y-129809833D01*
X73296813Y-129789820D01*
X73428764Y-129749793D01*
X73505893Y-129742197D01*
X73583020Y-129734600D01*
X73686180Y-129734600D01*
X73763307Y-129742197D01*
X73763307Y-129742197D01*
G37*
G36*
X73763307Y-127202197D02*
X73840436Y-127209793D01*
X73972387Y-127249820D01*
X74038363Y-127269833D01*
X74220772Y-127367333D01*
X74380654Y-127498546D01*
X74511867Y-127658428D01*
X74609367Y-127840837D01*
X74609367Y-127840838D01*
X74669407Y-128038764D01*
X74689680Y-128244600D01*
X74669407Y-128450436D01*
X74629380Y-128582387D01*
X74609367Y-128648363D01*
X74511867Y-128830772D01*
X74380654Y-128990654D01*
X74220772Y-129121867D01*
X74038363Y-129219367D01*
X73972387Y-129239380D01*
X73840436Y-129279407D01*
X73763307Y-129287003D01*
X73686180Y-129294600D01*
X73583020Y-129294600D01*
X73505893Y-129287003D01*
X73428764Y-129279407D01*
X73296813Y-129239380D01*
X73230837Y-129219367D01*
X73048428Y-129121867D01*
X72888546Y-128990654D01*
X72757333Y-128830772D01*
X72659833Y-128648363D01*
X72639820Y-128582387D01*
X72599793Y-128450436D01*
X72579520Y-128244600D01*
X72599793Y-128038764D01*
X72659833Y-127840838D01*
X72659833Y-127840837D01*
X72757333Y-127658428D01*
X72888546Y-127498546D01*
X73048428Y-127367333D01*
X73230837Y-127269833D01*
X73296813Y-127249820D01*
X73428764Y-127209793D01*
X73505893Y-127202197D01*
X73583020Y-127194600D01*
X73686180Y-127194600D01*
X73763307Y-127202197D01*
X73763307Y-127202197D01*
G37*
G36*
X73763307Y-124662197D02*
X73840436Y-124669793D01*
X73972387Y-124709820D01*
X74038363Y-124729833D01*
X74220772Y-124827333D01*
X74380654Y-124958546D01*
X74511867Y-125118428D01*
X74609367Y-125300837D01*
X74609367Y-125300838D01*
X74669407Y-125498764D01*
X74689680Y-125704600D01*
X74669407Y-125910436D01*
X74629380Y-126042387D01*
X74609367Y-126108363D01*
X74511867Y-126290772D01*
X74380654Y-126450654D01*
X74220772Y-126581867D01*
X74038363Y-126679367D01*
X73972387Y-126699380D01*
X73840436Y-126739407D01*
X73763307Y-126747003D01*
X73686180Y-126754600D01*
X73583020Y-126754600D01*
X73505893Y-126747003D01*
X73428764Y-126739407D01*
X73296813Y-126699380D01*
X73230837Y-126679367D01*
X73048428Y-126581867D01*
X72888546Y-126450654D01*
X72757333Y-126290772D01*
X72659833Y-126108363D01*
X72639820Y-126042387D01*
X72599793Y-125910436D01*
X72579520Y-125704600D01*
X72599793Y-125498764D01*
X72659833Y-125300838D01*
X72659833Y-125300837D01*
X72757333Y-125118428D01*
X72888546Y-124958546D01*
X73048428Y-124827333D01*
X73230837Y-124729833D01*
X73296813Y-124709820D01*
X73428764Y-124669793D01*
X73505893Y-124662197D01*
X73583020Y-124654600D01*
X73686180Y-124654600D01*
X73763307Y-124662197D01*
X73763307Y-124662197D01*
G37*
G36*
X73763307Y-122122196D02*
X73840436Y-122129793D01*
X73972387Y-122169820D01*
X74038363Y-122189833D01*
X74220772Y-122287333D01*
X74380654Y-122418546D01*
X74511867Y-122578428D01*
X74609367Y-122760837D01*
X74609367Y-122760838D01*
X74669407Y-122958764D01*
X74689680Y-123164600D01*
X74669407Y-123370436D01*
X74629380Y-123502387D01*
X74609367Y-123568363D01*
X74511867Y-123750772D01*
X74380654Y-123910654D01*
X74220772Y-124041867D01*
X74038363Y-124139367D01*
X73972387Y-124159380D01*
X73840436Y-124199407D01*
X73763307Y-124207004D01*
X73686180Y-124214600D01*
X73583020Y-124214600D01*
X73505893Y-124207004D01*
X73428764Y-124199407D01*
X73296813Y-124159380D01*
X73230837Y-124139367D01*
X73048428Y-124041867D01*
X72888546Y-123910654D01*
X72757333Y-123750772D01*
X72659833Y-123568363D01*
X72639820Y-123502387D01*
X72599793Y-123370436D01*
X72579520Y-123164600D01*
X72599793Y-122958764D01*
X72659833Y-122760838D01*
X72659833Y-122760837D01*
X72757333Y-122578428D01*
X72888546Y-122418546D01*
X73048428Y-122287333D01*
X73230837Y-122189833D01*
X73296813Y-122169820D01*
X73428764Y-122129793D01*
X73505893Y-122122196D01*
X73583020Y-122114600D01*
X73686180Y-122114600D01*
X73763307Y-122122196D01*
X73763307Y-122122196D01*
G37*
G36*
X73763307Y-119582196D02*
X73840436Y-119589793D01*
X73972387Y-119629820D01*
X74038363Y-119649833D01*
X74220772Y-119747333D01*
X74380654Y-119878546D01*
X74511867Y-120038428D01*
X74609367Y-120220837D01*
X74609367Y-120220838D01*
X74669407Y-120418764D01*
X74689680Y-120624600D01*
X74669407Y-120830436D01*
X74629380Y-120962387D01*
X74609367Y-121028363D01*
X74511867Y-121210772D01*
X74380654Y-121370654D01*
X74220772Y-121501867D01*
X74038363Y-121599367D01*
X73972387Y-121619380D01*
X73840436Y-121659407D01*
X73763307Y-121667004D01*
X73686180Y-121674600D01*
X73583020Y-121674600D01*
X73505893Y-121667004D01*
X73428764Y-121659407D01*
X73296813Y-121619380D01*
X73230837Y-121599367D01*
X73048428Y-121501867D01*
X72888546Y-121370654D01*
X72757333Y-121210772D01*
X72659833Y-121028363D01*
X72639820Y-120962387D01*
X72599793Y-120830436D01*
X72579520Y-120624600D01*
X72599793Y-120418764D01*
X72659833Y-120220838D01*
X72659833Y-120220837D01*
X72757333Y-120038428D01*
X72888546Y-119878546D01*
X73048428Y-119747333D01*
X73230837Y-119649833D01*
X73296813Y-119629820D01*
X73428764Y-119589793D01*
X73505893Y-119582196D01*
X73583020Y-119574600D01*
X73686180Y-119574600D01*
X73763307Y-119582196D01*
X73763307Y-119582196D01*
G37*
G36*
X40588707Y-117957596D02*
X40665836Y-117965193D01*
X40797787Y-118005220D01*
X40863763Y-118025233D01*
X41046172Y-118122733D01*
X41206054Y-118253946D01*
X41337267Y-118413828D01*
X41434767Y-118596237D01*
X41434767Y-118596238D01*
X41494807Y-118794164D01*
X41515080Y-119000000D01*
X41494807Y-119205836D01*
X41454780Y-119337787D01*
X41434767Y-119403763D01*
X41337267Y-119586172D01*
X41206054Y-119746054D01*
X41046172Y-119877267D01*
X40863763Y-119974767D01*
X40797787Y-119994780D01*
X40665836Y-120034807D01*
X40588707Y-120042404D01*
X40511580Y-120050000D01*
X40408420Y-120050000D01*
X40331293Y-120042404D01*
X40254164Y-120034807D01*
X40122213Y-119994780D01*
X40056237Y-119974767D01*
X39873828Y-119877267D01*
X39713946Y-119746054D01*
X39582733Y-119586172D01*
X39485233Y-119403763D01*
X39465220Y-119337787D01*
X39425193Y-119205836D01*
X39404920Y-119000000D01*
X39425193Y-118794164D01*
X39485233Y-118596238D01*
X39485233Y-118596237D01*
X39582733Y-118413828D01*
X39713946Y-118253946D01*
X39873828Y-118122733D01*
X40056237Y-118025233D01*
X40122213Y-118005220D01*
X40254164Y-117965193D01*
X40331293Y-117957596D01*
X40408420Y-117950000D01*
X40511580Y-117950000D01*
X40588707Y-117957596D01*
X40588707Y-117957596D01*
G37*
G36*
X43128707Y-117957596D02*
X43205836Y-117965193D01*
X43337787Y-118005220D01*
X43403763Y-118025233D01*
X43586172Y-118122733D01*
X43746054Y-118253946D01*
X43877267Y-118413828D01*
X43974767Y-118596237D01*
X43974767Y-118596238D01*
X44034807Y-118794164D01*
X44055080Y-119000000D01*
X44034807Y-119205836D01*
X43994780Y-119337787D01*
X43974767Y-119403763D01*
X43877267Y-119586172D01*
X43746054Y-119746054D01*
X43586172Y-119877267D01*
X43403763Y-119974767D01*
X43337787Y-119994780D01*
X43205836Y-120034807D01*
X43128707Y-120042404D01*
X43051580Y-120050000D01*
X42948420Y-120050000D01*
X42871293Y-120042404D01*
X42794164Y-120034807D01*
X42662213Y-119994780D01*
X42596237Y-119974767D01*
X42413828Y-119877267D01*
X42253946Y-119746054D01*
X42122733Y-119586172D01*
X42025233Y-119403763D01*
X42005220Y-119337787D01*
X41965193Y-119205836D01*
X41944920Y-119000000D01*
X41965193Y-118794164D01*
X42025233Y-118596238D01*
X42025233Y-118596237D01*
X42122733Y-118413828D01*
X42253946Y-118253946D01*
X42413828Y-118122733D01*
X42596237Y-118025233D01*
X42662213Y-118005220D01*
X42794164Y-117965193D01*
X42871293Y-117957596D01*
X42948420Y-117950000D01*
X43051580Y-117950000D01*
X43128707Y-117957596D01*
X43128707Y-117957596D01*
G37*
G36*
X73763307Y-117042196D02*
X73840436Y-117049793D01*
X73972387Y-117089820D01*
X74038363Y-117109833D01*
X74220772Y-117207333D01*
X74380654Y-117338546D01*
X74511867Y-117498428D01*
X74609367Y-117680837D01*
X74609367Y-117680838D01*
X74669407Y-117878764D01*
X74689680Y-118084600D01*
X74669407Y-118290436D01*
X74631977Y-118413828D01*
X74609367Y-118488363D01*
X74511867Y-118670772D01*
X74380654Y-118830654D01*
X74220772Y-118961867D01*
X74038363Y-119059367D01*
X73972387Y-119079380D01*
X73840436Y-119119407D01*
X73763307Y-119127003D01*
X73686180Y-119134600D01*
X73583020Y-119134600D01*
X73505893Y-119127003D01*
X73428764Y-119119407D01*
X73296813Y-119079380D01*
X73230837Y-119059367D01*
X73048428Y-118961867D01*
X72888546Y-118830654D01*
X72757333Y-118670772D01*
X72659833Y-118488363D01*
X72637223Y-118413828D01*
X72599793Y-118290436D01*
X72579520Y-118084600D01*
X72599793Y-117878764D01*
X72659833Y-117680838D01*
X72659833Y-117680837D01*
X72757333Y-117498428D01*
X72888546Y-117338546D01*
X73048428Y-117207333D01*
X73230837Y-117109833D01*
X73296813Y-117089820D01*
X73428764Y-117049793D01*
X73505893Y-117042196D01*
X73583020Y-117034600D01*
X73686180Y-117034600D01*
X73763307Y-117042196D01*
X73763307Y-117042196D01*
G37*
G36*
X41510000Y-117510000D02*
X39410000Y-117510000D01*
X39410000Y-115410000D01*
X41510000Y-115410000D01*
X41510000Y-117510000D01*
X41510000Y-117510000D01*
G37*
G36*
X43128707Y-115417597D02*
X43205836Y-115425193D01*
X43337787Y-115465220D01*
X43403763Y-115485233D01*
X43586172Y-115582733D01*
X43746054Y-115713946D01*
X43877267Y-115873828D01*
X43974767Y-116056237D01*
X43974767Y-116056238D01*
X44034807Y-116254164D01*
X44055080Y-116460000D01*
X44034807Y-116665836D01*
X43994780Y-116797787D01*
X43974767Y-116863763D01*
X43877267Y-117046172D01*
X43746054Y-117206054D01*
X43586172Y-117337267D01*
X43403763Y-117434767D01*
X43337787Y-117454780D01*
X43205836Y-117494807D01*
X43128707Y-117502404D01*
X43051580Y-117510000D01*
X42948420Y-117510000D01*
X42871293Y-117502404D01*
X42794164Y-117494807D01*
X42662213Y-117454780D01*
X42596237Y-117434767D01*
X42413828Y-117337267D01*
X42253946Y-117206054D01*
X42122733Y-117046172D01*
X42025233Y-116863763D01*
X42005220Y-116797787D01*
X41965193Y-116665836D01*
X41944920Y-116460000D01*
X41965193Y-116254164D01*
X42025233Y-116056238D01*
X42025233Y-116056237D01*
X42122733Y-115873828D01*
X42253946Y-115713946D01*
X42413828Y-115582733D01*
X42596237Y-115485233D01*
X42662213Y-115465220D01*
X42794164Y-115425193D01*
X42871293Y-115417597D01*
X42948420Y-115410000D01*
X43051580Y-115410000D01*
X43128707Y-115417597D01*
X43128707Y-115417597D01*
G37*
G36*
X73763307Y-114502197D02*
X73840436Y-114509793D01*
X73972387Y-114549820D01*
X74038363Y-114569833D01*
X74220772Y-114667333D01*
X74380654Y-114798546D01*
X74511867Y-114958428D01*
X74609367Y-115140837D01*
X74609367Y-115140838D01*
X74669407Y-115338764D01*
X74689680Y-115544600D01*
X74669407Y-115750436D01*
X74631977Y-115873828D01*
X74609367Y-115948363D01*
X74511867Y-116130772D01*
X74380654Y-116290654D01*
X74220772Y-116421867D01*
X74038363Y-116519367D01*
X73972387Y-116539380D01*
X73840436Y-116579407D01*
X73763307Y-116587003D01*
X73686180Y-116594600D01*
X73583020Y-116594600D01*
X73505893Y-116587003D01*
X73428764Y-116579407D01*
X73296813Y-116539380D01*
X73230837Y-116519367D01*
X73048428Y-116421867D01*
X72888546Y-116290654D01*
X72757333Y-116130772D01*
X72659833Y-115948363D01*
X72637223Y-115873828D01*
X72599793Y-115750436D01*
X72579520Y-115544600D01*
X72599793Y-115338764D01*
X72659833Y-115140838D01*
X72659833Y-115140837D01*
X72757333Y-114958428D01*
X72888546Y-114798546D01*
X73048428Y-114667333D01*
X73230837Y-114569833D01*
X73296813Y-114549820D01*
X73428764Y-114509793D01*
X73505893Y-114502197D01*
X73583020Y-114494600D01*
X73686180Y-114494600D01*
X73763307Y-114502197D01*
X73763307Y-114502197D01*
G37*
G36*
X43128707Y-112957596D02*
X43205836Y-112965193D01*
X43337787Y-113005220D01*
X43403763Y-113025233D01*
X43586172Y-113122733D01*
X43746054Y-113253946D01*
X43877267Y-113413828D01*
X43974767Y-113596237D01*
X43974767Y-113596238D01*
X44034807Y-113794164D01*
X44055080Y-114000000D01*
X44034807Y-114205836D01*
X43994780Y-114337787D01*
X43974767Y-114403763D01*
X43877267Y-114586172D01*
X43746054Y-114746054D01*
X43586172Y-114877267D01*
X43403763Y-114974767D01*
X43337787Y-114994780D01*
X43205836Y-115034807D01*
X43128707Y-115042403D01*
X43051580Y-115050000D01*
X42948420Y-115050000D01*
X42871293Y-115042403D01*
X42794164Y-115034807D01*
X42662213Y-114994780D01*
X42596237Y-114974767D01*
X42413828Y-114877267D01*
X42253946Y-114746054D01*
X42122733Y-114586172D01*
X42025233Y-114403763D01*
X42005220Y-114337787D01*
X41965193Y-114205836D01*
X41944920Y-114000000D01*
X41965193Y-113794164D01*
X42025233Y-113596238D01*
X42025233Y-113596237D01*
X42122733Y-113413828D01*
X42253946Y-113253946D01*
X42413828Y-113122733D01*
X42596237Y-113025233D01*
X42662213Y-113005220D01*
X42794164Y-112965193D01*
X42871293Y-112957596D01*
X42948420Y-112950000D01*
X43051580Y-112950000D01*
X43128707Y-112957596D01*
X43128707Y-112957596D01*
G37*
G36*
X40588707Y-112957596D02*
X40665836Y-112965193D01*
X40797787Y-113005220D01*
X40863763Y-113025233D01*
X41046172Y-113122733D01*
X41206054Y-113253946D01*
X41337267Y-113413828D01*
X41434767Y-113596237D01*
X41434767Y-113596238D01*
X41494807Y-113794164D01*
X41515080Y-114000000D01*
X41494807Y-114205836D01*
X41454780Y-114337787D01*
X41434767Y-114403763D01*
X41337267Y-114586172D01*
X41206054Y-114746054D01*
X41046172Y-114877267D01*
X40863763Y-114974767D01*
X40797787Y-114994780D01*
X40665836Y-115034807D01*
X40588707Y-115042403D01*
X40511580Y-115050000D01*
X40408420Y-115050000D01*
X40331293Y-115042403D01*
X40254164Y-115034807D01*
X40122213Y-114994780D01*
X40056237Y-114974767D01*
X39873828Y-114877267D01*
X39713946Y-114746054D01*
X39582733Y-114586172D01*
X39485233Y-114403763D01*
X39465220Y-114337787D01*
X39425193Y-114205836D01*
X39404920Y-114000000D01*
X39425193Y-113794164D01*
X39485233Y-113596238D01*
X39485233Y-113596237D01*
X39582733Y-113413828D01*
X39713946Y-113253946D01*
X39873828Y-113122733D01*
X40056237Y-113025233D01*
X40122213Y-113005220D01*
X40254164Y-112965193D01*
X40331293Y-112957596D01*
X40408420Y-112950000D01*
X40511580Y-112950000D01*
X40588707Y-112957596D01*
X40588707Y-112957596D01*
G37*
G36*
X43128707Y-110417597D02*
X43205836Y-110425193D01*
X43337787Y-110465220D01*
X43403763Y-110485233D01*
X43586172Y-110582733D01*
X43746054Y-110713946D01*
X43877267Y-110873828D01*
X43974767Y-111056237D01*
X43974767Y-111056238D01*
X44034807Y-111254164D01*
X44055080Y-111460000D01*
X44034807Y-111665836D01*
X43994780Y-111797787D01*
X43974767Y-111863763D01*
X43877267Y-112046172D01*
X43746054Y-112206054D01*
X43586172Y-112337267D01*
X43403763Y-112434767D01*
X43337787Y-112454780D01*
X43205836Y-112494807D01*
X43128707Y-112502403D01*
X43051580Y-112510000D01*
X42948420Y-112510000D01*
X42871293Y-112502403D01*
X42794164Y-112494807D01*
X42662213Y-112454780D01*
X42596237Y-112434767D01*
X42413828Y-112337267D01*
X42253946Y-112206054D01*
X42122733Y-112046172D01*
X42025233Y-111863763D01*
X42005220Y-111797787D01*
X41965193Y-111665836D01*
X41944920Y-111460000D01*
X41965193Y-111254164D01*
X42025233Y-111056238D01*
X42025233Y-111056237D01*
X42122733Y-110873828D01*
X42253946Y-110713946D01*
X42413828Y-110582733D01*
X42596237Y-110485233D01*
X42662213Y-110465220D01*
X42794164Y-110425193D01*
X42871293Y-110417597D01*
X42948420Y-110410000D01*
X43051580Y-110410000D01*
X43128707Y-110417597D01*
X43128707Y-110417597D01*
G37*
G36*
X40588707Y-110417597D02*
X40665836Y-110425193D01*
X40797787Y-110465220D01*
X40863763Y-110485233D01*
X41046172Y-110582733D01*
X41206054Y-110713946D01*
X41337267Y-110873828D01*
X41434767Y-111056237D01*
X41434767Y-111056238D01*
X41494807Y-111254164D01*
X41515080Y-111460000D01*
X41494807Y-111665836D01*
X41454780Y-111797787D01*
X41434767Y-111863763D01*
X41337267Y-112046172D01*
X41206054Y-112206054D01*
X41046172Y-112337267D01*
X40863763Y-112434767D01*
X40797787Y-112454780D01*
X40665836Y-112494807D01*
X40588707Y-112502403D01*
X40511580Y-112510000D01*
X40408420Y-112510000D01*
X40331293Y-112502403D01*
X40254164Y-112494807D01*
X40122213Y-112454780D01*
X40056237Y-112434767D01*
X39873828Y-112337267D01*
X39713946Y-112206054D01*
X39582733Y-112046172D01*
X39485233Y-111863763D01*
X39465220Y-111797787D01*
X39425193Y-111665836D01*
X39404920Y-111460000D01*
X39425193Y-111254164D01*
X39485233Y-111056238D01*
X39485233Y-111056237D01*
X39582733Y-110873828D01*
X39713946Y-110713946D01*
X39873828Y-110582733D01*
X40056237Y-110485233D01*
X40122213Y-110465220D01*
X40254164Y-110425193D01*
X40331293Y-110417597D01*
X40408420Y-110410000D01*
X40511580Y-110410000D01*
X40588707Y-110417597D01*
X40588707Y-110417597D01*
G37*
G36*
X54330000Y-102475000D02*
X54332402Y-102499386D01*
X54339515Y-102522835D01*
X54351066Y-102544446D01*
X54366612Y-102563388D01*
X54385554Y-102578934D01*
X54407165Y-102590485D01*
X54430614Y-102597598D01*
X54455000Y-102600000D01*
X56230000Y-102600000D01*
X56230000Y-109200000D01*
X54455000Y-109200000D01*
X54430614Y-109202402D01*
X54407165Y-109209515D01*
X54385554Y-109221066D01*
X54366612Y-109236612D01*
X54351066Y-109255554D01*
X54339515Y-109277165D01*
X54332402Y-109300614D01*
X54330000Y-109325000D01*
X54330000Y-111100000D01*
X47730000Y-111100000D01*
X47730000Y-109325000D01*
X47727598Y-109300614D01*
X47720485Y-109277165D01*
X47708934Y-109255554D01*
X47693388Y-109236612D01*
X47674446Y-109221066D01*
X47652835Y-109209515D01*
X47629386Y-109202402D01*
X47605000Y-109200000D01*
X45830000Y-109200000D01*
X45830000Y-102725000D01*
X47730000Y-102725000D01*
X47730000Y-109075000D01*
X47732402Y-109099386D01*
X47739515Y-109122835D01*
X47751066Y-109144446D01*
X47766612Y-109163388D01*
X47785554Y-109178934D01*
X47807165Y-109190485D01*
X47830614Y-109197598D01*
X47855000Y-109200000D01*
X54205000Y-109200000D01*
X54229386Y-109197598D01*
X54252835Y-109190485D01*
X54274446Y-109178934D01*
X54293388Y-109163388D01*
X54308934Y-109144446D01*
X54320485Y-109122835D01*
X54327598Y-109099386D01*
X54330000Y-109075000D01*
X54330000Y-102725000D01*
X54327598Y-102700614D01*
X54320485Y-102677165D01*
X54308934Y-102655554D01*
X54293388Y-102636612D01*
X54274446Y-102621066D01*
X54252835Y-102609515D01*
X54229386Y-102602402D01*
X54205000Y-102600000D01*
X47855000Y-102600000D01*
X47830614Y-102602402D01*
X47807165Y-102609515D01*
X47785554Y-102621066D01*
X47766612Y-102636612D01*
X47751066Y-102655554D01*
X47739515Y-102677165D01*
X47732402Y-102700614D01*
X47730000Y-102725000D01*
X45830000Y-102725000D01*
X45830000Y-102600000D01*
X47605000Y-102600000D01*
X47629386Y-102597598D01*
X47652835Y-102590485D01*
X47674446Y-102578934D01*
X47693388Y-102563388D01*
X47708934Y-102544446D01*
X47720485Y-102522835D01*
X47727598Y-102499386D01*
X47730000Y-102475000D01*
X47730000Y-100700000D01*
X54330000Y-100700000D01*
X54330000Y-102475000D01*
X54330000Y-102475000D01*
G37*
G36*
X41510000Y-109970000D02*
X39410000Y-109970000D01*
X39410000Y-107870000D01*
X41510000Y-107870000D01*
X41510000Y-109970000D01*
X41510000Y-109970000D01*
G37*
G36*
X43128707Y-107877597D02*
X43205836Y-107885193D01*
X43337787Y-107925220D01*
X43403763Y-107945233D01*
X43586172Y-108042733D01*
X43746054Y-108173946D01*
X43877267Y-108333828D01*
X43974767Y-108516237D01*
X43974767Y-108516238D01*
X44034807Y-108714164D01*
X44055080Y-108920000D01*
X44034807Y-109125836D01*
X43995458Y-109255554D01*
X43974767Y-109323763D01*
X43877267Y-109506172D01*
X43746054Y-109666054D01*
X43586172Y-109797267D01*
X43403763Y-109894767D01*
X43337787Y-109914780D01*
X43205836Y-109954807D01*
X43128707Y-109962403D01*
X43051580Y-109970000D01*
X42948420Y-109970000D01*
X42871293Y-109962403D01*
X42794164Y-109954807D01*
X42662213Y-109914780D01*
X42596237Y-109894767D01*
X42413828Y-109797267D01*
X42253946Y-109666054D01*
X42122733Y-109506172D01*
X42025233Y-109323763D01*
X42004542Y-109255554D01*
X41965193Y-109125836D01*
X41944920Y-108920000D01*
X41965193Y-108714164D01*
X42025233Y-108516238D01*
X42025233Y-108516237D01*
X42122733Y-108333828D01*
X42253946Y-108173946D01*
X42413828Y-108042733D01*
X42596237Y-107945233D01*
X42662213Y-107925220D01*
X42794164Y-107885193D01*
X42871293Y-107877597D01*
X42948420Y-107870000D01*
X43051580Y-107870000D01*
X43128707Y-107877597D01*
X43128707Y-107877597D01*
G37*
G36*
X43610000Y-104070000D02*
X41910000Y-104070000D01*
X41910000Y-102170000D01*
X43610000Y-102170000D01*
X43610000Y-104070000D01*
X43610000Y-104070000D01*
G37*
G36*
X43610000Y-101370000D02*
X41910000Y-101370000D01*
X41910000Y-99470000D01*
X43610000Y-99470000D01*
X43610000Y-101370000D01*
X43610000Y-101370000D01*
G37*
G36*
X53220000Y-99210000D02*
X51520000Y-99210000D01*
X51520000Y-97310000D01*
X53220000Y-97310000D01*
X53220000Y-99210000D01*
X53220000Y-99210000D01*
G37*
G36*
X50180000Y-99140000D02*
X47680000Y-99140000D01*
X47680000Y-94640000D01*
X50180000Y-94640000D01*
X50180000Y-99140000D01*
X50180000Y-99140000D01*
G37*
G36*
X47280000Y-99140000D02*
X44780000Y-99140000D01*
X44780000Y-94640000D01*
X47280000Y-94640000D01*
X47280000Y-99140000D01*
X47280000Y-99140000D01*
G37*
G36*
X53220000Y-96510000D02*
X51520000Y-96510000D01*
X51520000Y-94610000D01*
X53220000Y-94610000D01*
X53220000Y-96510000D01*
X53220000Y-96510000D01*
G37*
G36*
X39265240Y-91367363D02*
X39491441Y-91435981D01*
X39491443Y-91435982D01*
X39491446Y-91435983D01*
X39699905Y-91547406D01*
X39699908Y-91547408D01*
X39699909Y-91547409D01*
X39882634Y-91697366D01*
X39882635Y-91697368D01*
X39882637Y-91697369D01*
X40032592Y-91880090D01*
X40114817Y-92033924D01*
X40128430Y-92054299D01*
X40145758Y-92071626D01*
X40166132Y-92085240D01*
X40188771Y-92094617D01*
X40212804Y-92099398D01*
X40225057Y-92100000D01*
X41230000Y-92100000D01*
X41230000Y-95500000D01*
X40225057Y-95500000D01*
X40200671Y-95502402D01*
X40177222Y-95509515D01*
X40155611Y-95521066D01*
X40136669Y-95536612D01*
X40121123Y-95555554D01*
X40114817Y-95566076D01*
X40032592Y-95719910D01*
X39882634Y-95902634D01*
X39699910Y-96052592D01*
X39491447Y-96164017D01*
X39491444Y-96164018D01*
X39491442Y-96164019D01*
X39265241Y-96232637D01*
X39030000Y-96255806D01*
X38794760Y-96232637D01*
X38568559Y-96164019D01*
X38568557Y-96164018D01*
X38568554Y-96164017D01*
X38360091Y-96052592D01*
X38177367Y-95902634D01*
X38027409Y-95719910D01*
X37915984Y-95511447D01*
X37915982Y-95511442D01*
X37847364Y-95285241D01*
X37830001Y-95108950D01*
X37830000Y-92491051D01*
X37847363Y-92314760D01*
X37915981Y-92088559D01*
X37915982Y-92088557D01*
X37915983Y-92088554D01*
X38027406Y-91880095D01*
X38177364Y-91697369D01*
X38177366Y-91697366D01*
X38177368Y-91697365D01*
X38177369Y-91697363D01*
X38360090Y-91547408D01*
X38568553Y-91435983D01*
X38568556Y-91435982D01*
X38568558Y-91435981D01*
X38794759Y-91367363D01*
X39030000Y-91344194D01*
X39265240Y-91367363D01*
X39265240Y-91367363D01*
G37*
G36*
X79765240Y-91367363D02*
X79991441Y-91435981D01*
X79991443Y-91435982D01*
X79991446Y-91435983D01*
X80199905Y-91547406D01*
X80199908Y-91547408D01*
X80199909Y-91547409D01*
X80382634Y-91697366D01*
X80382635Y-91697368D01*
X80382637Y-91697369D01*
X80532592Y-91880090D01*
X80644017Y-92088553D01*
X80644017Y-92088554D01*
X80644019Y-92088558D01*
X80712637Y-92314759D01*
X80730000Y-92491050D01*
X80730000Y-95108950D01*
X80712637Y-95285241D01*
X80644019Y-95511442D01*
X80644017Y-95511447D01*
X80532592Y-95719910D01*
X80382634Y-95902634D01*
X80199910Y-96052592D01*
X79991447Y-96164017D01*
X79991444Y-96164018D01*
X79991442Y-96164019D01*
X79765241Y-96232637D01*
X79530000Y-96255806D01*
X79294760Y-96232637D01*
X79068559Y-96164019D01*
X79068557Y-96164018D01*
X79068554Y-96164017D01*
X78860091Y-96052592D01*
X78677367Y-95902634D01*
X78527409Y-95719910D01*
X78445184Y-95566076D01*
X78431571Y-95545701D01*
X78414243Y-95528374D01*
X78393869Y-95514760D01*
X78371230Y-95505383D01*
X78347197Y-95500602D01*
X78334944Y-95500000D01*
X77330000Y-95500000D01*
X77330000Y-92100000D01*
X78334943Y-92100000D01*
X78359329Y-92097598D01*
X78382778Y-92090485D01*
X78404389Y-92078934D01*
X78423331Y-92063388D01*
X78438877Y-92044446D01*
X78445183Y-92033925D01*
X78527408Y-91880093D01*
X78527409Y-91880091D01*
X78677366Y-91697366D01*
X78677368Y-91697365D01*
X78677369Y-91697363D01*
X78860090Y-91547408D01*
X79068553Y-91435983D01*
X79068556Y-91435982D01*
X79068558Y-91435981D01*
X79294759Y-91367363D01*
X79530000Y-91344194D01*
X79765240Y-91367363D01*
X79765240Y-91367363D01*
G37*
G36*
X74870000Y-92540000D02*
X73170000Y-92540000D01*
X73170000Y-90640000D01*
X74870000Y-90640000D01*
X74870000Y-92540000D01*
X74870000Y-92540000D01*
G37*
G36*
X44890000Y-92530000D02*
X43190000Y-92530000D01*
X43190000Y-90630000D01*
X44890000Y-90630000D01*
X44890000Y-92530000D01*
X44890000Y-92530000D01*
G37*
G36*
X74870000Y-89840000D02*
X73170000Y-89840000D01*
X73170000Y-87940000D01*
X74870000Y-87940000D01*
X74870000Y-89840000D01*
X74870000Y-89840000D01*
G37*
G36*
X44890000Y-89830000D02*
X43190000Y-89830000D01*
X43190000Y-87930000D01*
X44890000Y-87930000D01*
X44890000Y-89830000D01*
X44890000Y-89830000D01*
G37*
G36*
X74880000Y-86870000D02*
X73180000Y-86870000D01*
X73180000Y-84970000D01*
X74880000Y-84970000D01*
X74880000Y-86870000D01*
X74880000Y-86870000D01*
G37*
G36*
X44870000Y-86840000D02*
X43170000Y-86840000D01*
X43170000Y-84940000D01*
X44870000Y-84940000D01*
X44870000Y-86840000D01*
X44870000Y-86840000D01*
G37*
G36*
X47505000Y-86730000D02*
X45855000Y-86730000D01*
X45855000Y-84830000D01*
X47505000Y-84830000D01*
X47505000Y-86730000D01*
X47505000Y-86730000D01*
G37*
G36*
X47505000Y-84230000D02*
X45855000Y-84230000D01*
X45855000Y-82330000D01*
X47505000Y-82330000D01*
X47505000Y-84230000D01*
X47505000Y-84230000D01*
G37*
G36*
X74880000Y-84170000D02*
X73180000Y-84170000D01*
X73180000Y-82270000D01*
X74880000Y-82270000D01*
X74880000Y-84170000D01*
X74880000Y-84170000D01*
G37*
G36*
X44870000Y-84140000D02*
X43170000Y-84140000D01*
X43170000Y-82240000D01*
X44870000Y-82240000D01*
X44870000Y-84140000D01*
X44870000Y-84140000D01*
G37*
G36*
X79765240Y-71367363D02*
X79991441Y-71435981D01*
X79991443Y-71435982D01*
X79991446Y-71435983D01*
X80199905Y-71547406D01*
X80199908Y-71547408D01*
X80199909Y-71547409D01*
X80382634Y-71697366D01*
X80382635Y-71697368D01*
X80382637Y-71697369D01*
X80532592Y-71880090D01*
X80644017Y-72088553D01*
X80644017Y-72088554D01*
X80644019Y-72088558D01*
X80712637Y-72314759D01*
X80730000Y-72491050D01*
X80730000Y-75108950D01*
X80712637Y-75285241D01*
X80644019Y-75511442D01*
X80644017Y-75511447D01*
X80532592Y-75719910D01*
X80382634Y-75902634D01*
X80199910Y-76052592D01*
X79991447Y-76164017D01*
X79991444Y-76164018D01*
X79991442Y-76164019D01*
X79765241Y-76232637D01*
X79530000Y-76255806D01*
X79294760Y-76232637D01*
X79068559Y-76164019D01*
X79068557Y-76164018D01*
X79068554Y-76164017D01*
X78860091Y-76052592D01*
X78677367Y-75902634D01*
X78527409Y-75719910D01*
X78445184Y-75566076D01*
X78431571Y-75545701D01*
X78414243Y-75528374D01*
X78393869Y-75514760D01*
X78371230Y-75505383D01*
X78347197Y-75500602D01*
X78334944Y-75500000D01*
X77330000Y-75500000D01*
X77330000Y-72100000D01*
X78334943Y-72100000D01*
X78359329Y-72097598D01*
X78382778Y-72090485D01*
X78404389Y-72078934D01*
X78423331Y-72063388D01*
X78438877Y-72044446D01*
X78445183Y-72033925D01*
X78527408Y-71880093D01*
X78527409Y-71880091D01*
X78677366Y-71697366D01*
X78677368Y-71697365D01*
X78677369Y-71697363D01*
X78860090Y-71547408D01*
X79068553Y-71435983D01*
X79068556Y-71435982D01*
X79068558Y-71435981D01*
X79294759Y-71367363D01*
X79530000Y-71344194D01*
X79765240Y-71367363D01*
X79765240Y-71367363D01*
G37*
G36*
X39265240Y-71367363D02*
X39491441Y-71435981D01*
X39491443Y-71435982D01*
X39491446Y-71435983D01*
X39699905Y-71547406D01*
X39699908Y-71547408D01*
X39699909Y-71547409D01*
X39882634Y-71697366D01*
X39882635Y-71697368D01*
X39882637Y-71697369D01*
X40032592Y-71880090D01*
X40114817Y-72033924D01*
X40128430Y-72054299D01*
X40145758Y-72071626D01*
X40166132Y-72085240D01*
X40188771Y-72094617D01*
X40212804Y-72099398D01*
X40225057Y-72100000D01*
X41230000Y-72100000D01*
X41230000Y-75500000D01*
X40225057Y-75500000D01*
X40200671Y-75502402D01*
X40177222Y-75509515D01*
X40155611Y-75521066D01*
X40136669Y-75536612D01*
X40121123Y-75555554D01*
X40114817Y-75566076D01*
X40032592Y-75719910D01*
X39882634Y-75902634D01*
X39699910Y-76052592D01*
X39491447Y-76164017D01*
X39491444Y-76164018D01*
X39491442Y-76164019D01*
X39265241Y-76232637D01*
X39030000Y-76255806D01*
X38794760Y-76232637D01*
X38568559Y-76164019D01*
X38568557Y-76164018D01*
X38568554Y-76164017D01*
X38360091Y-76052592D01*
X38177367Y-75902634D01*
X38027409Y-75719910D01*
X37915984Y-75511447D01*
X37915982Y-75511442D01*
X37847364Y-75285241D01*
X37830001Y-75108950D01*
X37830000Y-72491051D01*
X37847363Y-72314760D01*
X37915981Y-72088559D01*
X37915982Y-72088557D01*
X37915983Y-72088554D01*
X38027406Y-71880095D01*
X38177364Y-71697369D01*
X38177366Y-71697366D01*
X38177368Y-71697365D01*
X38177369Y-71697363D01*
X38360090Y-71547408D01*
X38568553Y-71435983D01*
X38568556Y-71435982D01*
X38568558Y-71435981D01*
X38794759Y-71367363D01*
X39030000Y-71344194D01*
X39265240Y-71367363D01*
X39265240Y-71367363D01*
G37*
G36*
X63480000Y-71780000D02*
X55080000Y-71780000D01*
X55080000Y-63380000D01*
X63480000Y-63380000D01*
X63480000Y-71780000D01*
X63480000Y-71780000D01*
G37*
G36*
X77780000Y-70530000D02*
X71380000Y-70530000D01*
X71380000Y-64630000D01*
X77780000Y-64630000D01*
X77780000Y-70530000D01*
X77780000Y-70530000D01*
G37*
G36*
X47180000Y-70530000D02*
X40780000Y-70530000D01*
X40780000Y-64630000D01*
X47180000Y-64630000D01*
X47180000Y-70530000D01*
X47180000Y-70530000D01*
G37*
G36*
X71497738Y-49836653D02*
X71539598Y-49844979D01*
X71574245Y-49859330D01*
X71657890Y-49893977D01*
X71764354Y-49965114D01*
X71854886Y-50055646D01*
X71926023Y-50162110D01*
X71975021Y-50280403D01*
X72000000Y-50405979D01*
X72000000Y-50534021D01*
X71975021Y-50659597D01*
X71926023Y-50777890D01*
X71854886Y-50884354D01*
X71764354Y-50974886D01*
X71650342Y-51051066D01*
X71631400Y-51066611D01*
X71615855Y-51085553D01*
X71604303Y-51107164D01*
X71597190Y-51130613D01*
X71594788Y-51155000D01*
X71597190Y-51179386D01*
X71604303Y-51202835D01*
X71615854Y-51224446D01*
X71631399Y-51243388D01*
X71650341Y-51258933D01*
X71671952Y-51270485D01*
X71695401Y-51277598D01*
X71719788Y-51280000D01*
X72675000Y-51280000D01*
X72699386Y-51277598D01*
X72722835Y-51270485D01*
X72744446Y-51258934D01*
X72763388Y-51243388D01*
X72778934Y-51224446D01*
X72790485Y-51202835D01*
X72797598Y-51179386D01*
X72800000Y-51155000D01*
X72800000Y-50980000D01*
X74200000Y-50980000D01*
X74200000Y-52180000D01*
X72775000Y-52180000D01*
X72750614Y-52182402D01*
X72727165Y-52189515D01*
X72705554Y-52201066D01*
X72686612Y-52216612D01*
X72671066Y-52235554D01*
X72659515Y-52257165D01*
X72652402Y-52280614D01*
X72650000Y-52305000D01*
X72650000Y-53180000D01*
X71550000Y-53180000D01*
X71550000Y-51245000D01*
X71547598Y-51220614D01*
X71540485Y-51197165D01*
X71528934Y-51175554D01*
X71513388Y-51156612D01*
X71494446Y-51141066D01*
X71472835Y-51129515D01*
X71449386Y-51122402D01*
X71425000Y-51120000D01*
X71275000Y-51120000D01*
X71250614Y-51122402D01*
X71227165Y-51129515D01*
X71205554Y-51141066D01*
X71186612Y-51156612D01*
X71171066Y-51175554D01*
X71159515Y-51197165D01*
X71152402Y-51220614D01*
X71150000Y-51245000D01*
X71150000Y-53180000D01*
X70050000Y-53180000D01*
X70050000Y-51280000D01*
X70980212Y-51280000D01*
X71004598Y-51277598D01*
X71028047Y-51270485D01*
X71049658Y-51258934D01*
X71068600Y-51243388D01*
X71084146Y-51224446D01*
X71095697Y-51202835D01*
X71102810Y-51179386D01*
X71105212Y-51155000D01*
X71102810Y-51130614D01*
X71095697Y-51107165D01*
X71084146Y-51085554D01*
X71068600Y-51066612D01*
X71049658Y-51051066D01*
X70935646Y-50974886D01*
X70845114Y-50884354D01*
X70773977Y-50777890D01*
X70724979Y-50659597D01*
X70700000Y-50534021D01*
X70700000Y-50405979D01*
X70724979Y-50280403D01*
X70773977Y-50162110D01*
X70845114Y-50055646D01*
X70935646Y-49965114D01*
X71042110Y-49893977D01*
X71125755Y-49859330D01*
X71160402Y-49844979D01*
X71202262Y-49836653D01*
X71285979Y-49820000D01*
X71414021Y-49820000D01*
X71497738Y-49836653D01*
X71497738Y-49836653D01*
G37*
G36*
X68497738Y-49836653D02*
X68539598Y-49844979D01*
X68574245Y-49859330D01*
X68657890Y-49893977D01*
X68764354Y-49965114D01*
X68854886Y-50055646D01*
X68926023Y-50162110D01*
X68975021Y-50280403D01*
X69000000Y-50405979D01*
X69000000Y-50534021D01*
X68975021Y-50659597D01*
X68926023Y-50777890D01*
X68854886Y-50884354D01*
X68764354Y-50974886D01*
X68657890Y-51046023D01*
X68574245Y-51080670D01*
X68539598Y-51095021D01*
X68497738Y-51103347D01*
X68414021Y-51120000D01*
X68275000Y-51120000D01*
X68250614Y-51122402D01*
X68227165Y-51129515D01*
X68205554Y-51141066D01*
X68186612Y-51156612D01*
X68171066Y-51175554D01*
X68159515Y-51197165D01*
X68152402Y-51220614D01*
X68150000Y-51245000D01*
X68150000Y-53180000D01*
X67050000Y-53180000D01*
X67050000Y-52305000D01*
X67047598Y-52280614D01*
X67040485Y-52257165D01*
X67028934Y-52235554D01*
X67013388Y-52216612D01*
X66994446Y-52201066D01*
X66972835Y-52189515D01*
X66949386Y-52182402D01*
X66925000Y-52180000D01*
X65500000Y-52180000D01*
X65500000Y-50980000D01*
X66900000Y-50980000D01*
X66900000Y-51155000D01*
X66902402Y-51179386D01*
X66909515Y-51202835D01*
X66921066Y-51224446D01*
X66936612Y-51243388D01*
X66955554Y-51258934D01*
X66977165Y-51270485D01*
X67000614Y-51277598D01*
X67025000Y-51280000D01*
X67980212Y-51280000D01*
X68004598Y-51277598D01*
X68028047Y-51270485D01*
X68049658Y-51258934D01*
X68068600Y-51243388D01*
X68084146Y-51224446D01*
X68095697Y-51202835D01*
X68102810Y-51179386D01*
X68105212Y-51155000D01*
X68102810Y-51130614D01*
X68095697Y-51107165D01*
X68084146Y-51085554D01*
X68068600Y-51066612D01*
X68049658Y-51051066D01*
X67935646Y-50974886D01*
X67845114Y-50884354D01*
X67773977Y-50777890D01*
X67724979Y-50659597D01*
X67700000Y-50534021D01*
X67700000Y-50405979D01*
X67724979Y-50280403D01*
X67773977Y-50162110D01*
X67845114Y-50055646D01*
X67935646Y-49965114D01*
X68042110Y-49893977D01*
X68125755Y-49859330D01*
X68160402Y-49844979D01*
X68202262Y-49836653D01*
X68285979Y-49820000D01*
X68414021Y-49820000D01*
X68497738Y-49836653D01*
X68497738Y-49836653D01*
G37*
G36*
X66900000Y-49970000D02*
X65500000Y-49970000D01*
X65500000Y-48770000D01*
X66900000Y-48770000D01*
X66900000Y-49970000D01*
X66900000Y-49970000D01*
G37*
G36*
X74200000Y-49970000D02*
X72800000Y-49970000D01*
X72800000Y-48770000D01*
X74200000Y-48770000D01*
X74200000Y-49970000D01*
X74200000Y-49970000D01*
G37*
M02*
