%FSLAX45Y45*%
G04 Gerber Fmt 4.5, Leading zero omitted, Abs format (unit mm)*
G04 Created by KiCad (PCBNEW 4.0.7) date Sun Sep  2 09:00:28 2018*
%MOMM*%
%LPD*%
G01*
G04 APERTURE LIST*
%ADD10C,0.127000*%
%ADD11C,0.150000*%
%ADD12C,0.200000*%
%ADD13C,0.300000*%
G04 APERTURE END LIST*
D10*
D11*
X8060000Y-11820000D02*
X8040000Y-12450000D01*
X3835000Y-12756000D02*
X3880000Y-13500000D01*
X6285689Y-4965000D02*
G75*
G03X6285689Y-4965000I-290689J0D01*
G01*
X3695000Y-10405000D02*
X3710000Y-10905000D01*
X7810000Y-15340000D02*
X8040000Y-12450000D01*
X3990000Y-14860000D02*
X4015000Y-15020000D01*
X7785000Y-15410000D02*
X7810000Y-15340000D01*
X7605000Y-15590000D02*
X7785000Y-15410000D01*
X7505000Y-15655000D02*
X7605000Y-15590000D01*
X7400000Y-15700000D02*
X7505000Y-15655000D01*
X7150000Y-15755000D02*
X7400000Y-15700000D01*
X6810000Y-15790000D02*
X7150000Y-15755000D01*
X6105000Y-15810000D02*
X6810000Y-15790000D01*
X5350000Y-15805000D02*
X6105000Y-15810000D01*
X4745000Y-15750000D02*
X5350000Y-15805000D01*
X4575000Y-15710000D02*
X4745000Y-15750000D01*
X4440000Y-15655000D02*
X4575000Y-15710000D01*
X4350000Y-15590000D02*
X4440000Y-15655000D01*
X4255000Y-15500000D02*
X4350000Y-15590000D01*
X4185000Y-15405000D02*
X4255000Y-15500000D01*
X4050000Y-15150000D02*
X4185000Y-15405000D01*
X4015000Y-15020000D02*
X4050000Y-15150000D01*
X3970000Y-14670000D02*
X3990000Y-14860000D01*
X3880000Y-13500000D02*
X3970000Y-14670000D01*
X3790000Y-12105000D02*
X3835000Y-12755000D01*
X3740000Y-11405000D02*
X3790000Y-12105000D01*
X3710000Y-10905000D02*
X3740000Y-11405000D01*
X3660000Y-9395000D02*
X3695000Y-10405000D01*
X3660000Y-9095000D02*
X3660000Y-9395000D01*
X3695000Y-7750000D02*
X3660000Y-9095000D01*
X3760000Y-6495000D02*
X3695000Y-7750000D01*
X3810000Y-5955000D02*
X3760000Y-6495000D01*
X3885000Y-5430000D02*
X3810000Y-5955000D01*
X4000000Y-4900000D02*
X3885000Y-5430000D01*
X4065000Y-4775000D02*
X4000000Y-4900000D01*
X4155000Y-4685000D02*
X4065000Y-4775000D01*
X4280000Y-4600000D02*
X4155000Y-4685000D01*
X4400000Y-4545000D02*
X4280000Y-4600000D01*
X4540000Y-4500000D02*
X4400000Y-4545000D01*
X4690000Y-4470000D02*
X4540000Y-4500000D01*
X5265000Y-4415000D02*
X4690000Y-4470000D01*
X5765000Y-4400000D02*
X5265000Y-4415000D01*
X6260000Y-4400000D02*
X5765000Y-4400000D01*
X6750000Y-4430000D02*
X6260000Y-4400000D01*
X7270000Y-4480000D02*
X6750000Y-4430000D01*
X7500000Y-4550000D02*
X7270000Y-4480000D01*
X7755000Y-4710000D02*
X7500000Y-4550000D01*
X7890000Y-4940000D02*
X7755000Y-4710000D01*
X7935000Y-5150000D02*
X7890000Y-4940000D01*
X8035000Y-5860000D02*
X7935000Y-5150000D01*
X8080000Y-6600000D02*
X8035000Y-5860000D01*
X8110000Y-7100000D02*
X8080000Y-6600000D01*
X8135000Y-7500000D02*
X8110000Y-7100000D01*
X8155000Y-8000000D02*
X8135000Y-7500000D01*
X8140000Y-9100000D02*
X8155000Y-8000000D01*
X8130000Y-9500000D02*
X8140000Y-9100000D01*
X8105000Y-10240000D02*
X8130000Y-9500000D01*
X8060000Y-11820000D02*
X8105000Y-10240000D01*
D12*
X3810000Y-8055000D02*
X3960000Y-8205000D01*
X3960000Y-8055000D02*
X3810000Y-8205000D01*
X3810000Y-8130000D02*
X3960000Y-8280000D01*
X3960000Y-8130000D02*
X3810000Y-8280000D01*
X3810000Y-8180000D02*
X3960000Y-8330000D01*
X3960000Y-8180000D02*
X3810000Y-8330000D01*
X3810000Y-8255000D02*
X3960000Y-8405000D01*
X3960000Y-8255000D02*
X3810000Y-8405000D01*
X3810000Y-8305000D02*
X3960000Y-8455000D01*
X3960000Y-8305000D02*
X3810000Y-8455000D01*
X3810000Y-10055000D02*
X3960000Y-10205000D01*
X3960000Y-10055000D02*
X3810000Y-10205000D01*
X3810000Y-10130000D02*
X3960000Y-10280000D01*
X3960000Y-10130000D02*
X3810000Y-10280000D01*
X3810000Y-10180000D02*
X3960000Y-10330000D01*
X3960000Y-10180000D02*
X3810000Y-10330000D01*
X3810000Y-10255000D02*
X3960000Y-10405000D01*
X3960000Y-10255000D02*
X3810000Y-10405000D01*
X3810000Y-10305000D02*
X3960000Y-10455000D01*
X3960000Y-10305000D02*
X3810000Y-10455000D01*
X7860000Y-8055000D02*
X8010000Y-8205000D01*
X8010000Y-8055000D02*
X7860000Y-8205000D01*
X7860000Y-8105000D02*
X8010000Y-8255000D01*
X8010000Y-8105000D02*
X7860000Y-8255000D01*
X7860000Y-8180000D02*
X8010000Y-8330000D01*
X8010000Y-8180000D02*
X7860000Y-8330000D01*
X7860000Y-8230000D02*
X8010000Y-8380000D01*
X8010000Y-8230000D02*
X7860000Y-8380000D01*
X7860000Y-8305000D02*
X8010000Y-8455000D01*
X8010000Y-8305000D02*
X7860000Y-8455000D01*
X7860000Y-10055000D02*
X8010000Y-10205000D01*
X8010000Y-10055000D02*
X7860000Y-10205000D01*
X7860000Y-10105000D02*
X8010000Y-10255000D01*
X8010000Y-10105000D02*
X7860000Y-10255000D01*
X7860000Y-10180000D02*
X8010000Y-10330000D01*
X8010000Y-10180000D02*
X7860000Y-10330000D01*
X7860000Y-10255000D02*
X8010000Y-10405000D01*
X8010000Y-10255000D02*
X7860000Y-10405000D01*
X7860000Y-10305000D02*
X8010000Y-10455000D01*
X8010000Y-10305000D02*
X7860000Y-10455000D01*
D13*
X3923928Y-16283214D02*
X3923928Y-15983214D01*
X3995357Y-15983214D01*
X4038214Y-15997500D01*
X4066786Y-16026071D01*
X4081071Y-16054643D01*
X4095357Y-16111786D01*
X4095357Y-16154643D01*
X4081071Y-16211786D01*
X4066786Y-16240357D01*
X4038214Y-16268929D01*
X3995357Y-16283214D01*
X3923928Y-16283214D01*
X4223929Y-16283214D02*
X4223929Y-16083214D01*
X4223929Y-16140357D02*
X4238214Y-16111786D01*
X4252500Y-16097500D01*
X4281071Y-16083214D01*
X4309643Y-16083214D01*
X4409643Y-16283214D02*
X4409643Y-16083214D01*
X4409643Y-15983214D02*
X4395357Y-15997500D01*
X4409643Y-16011786D01*
X4423929Y-15997500D01*
X4409643Y-15983214D01*
X4409643Y-16011786D01*
X4595357Y-16283214D02*
X4566786Y-16268929D01*
X4552500Y-16240357D01*
X4552500Y-15983214D01*
X4752500Y-16283214D02*
X4723929Y-16268929D01*
X4709643Y-16240357D01*
X4709643Y-15983214D01*
X5095357Y-16283214D02*
X5095357Y-15983214D01*
X5195357Y-16197500D01*
X5295357Y-15983214D01*
X5295357Y-16283214D01*
X5566786Y-16283214D02*
X5566786Y-16126071D01*
X5552500Y-16097500D01*
X5523929Y-16083214D01*
X5466786Y-16083214D01*
X5438214Y-16097500D01*
X5566786Y-16268929D02*
X5538214Y-16283214D01*
X5466786Y-16283214D01*
X5438214Y-16268929D01*
X5423929Y-16240357D01*
X5423929Y-16211786D01*
X5438214Y-16183214D01*
X5466786Y-16168929D01*
X5538214Y-16168929D01*
X5566786Y-16154643D01*
X5709643Y-16083214D02*
X5709643Y-16383214D01*
X5709643Y-16097500D02*
X5738214Y-16083214D01*
X5795357Y-16083214D01*
X5823928Y-16097500D01*
X5838214Y-16111786D01*
X5852500Y-16140357D01*
X5852500Y-16226071D01*
X5838214Y-16254643D01*
X5823928Y-16268929D01*
X5795357Y-16283214D01*
X5738214Y-16283214D01*
X5709643Y-16268929D01*
X5981071Y-16254643D02*
X5995357Y-16268929D01*
X5981071Y-16283214D01*
X5966786Y-16268929D01*
X5981071Y-16254643D01*
X5981071Y-16283214D01*
X5981071Y-16097500D02*
X5995357Y-16111786D01*
X5981071Y-16126071D01*
X5966786Y-16111786D01*
X5981071Y-16097500D01*
X5981071Y-16126071D01*
X3502500Y-16702500D02*
X3652500Y-16852500D01*
X3652500Y-16702500D02*
X3502500Y-16852500D01*
X4081071Y-16913214D02*
X3909643Y-16913214D01*
X3995357Y-16913214D02*
X3995357Y-16613214D01*
X3966786Y-16656071D01*
X3938214Y-16684643D01*
X3909643Y-16698929D01*
X4209643Y-16884643D02*
X4223929Y-16898929D01*
X4209643Y-16913214D01*
X4195357Y-16898929D01*
X4209643Y-16884643D01*
X4209643Y-16913214D01*
X4495357Y-16613214D02*
X4352500Y-16613214D01*
X4338214Y-16756071D01*
X4352500Y-16741786D01*
X4381071Y-16727500D01*
X4452500Y-16727500D01*
X4481071Y-16741786D01*
X4495357Y-16756071D01*
X4509643Y-16784643D01*
X4509643Y-16856072D01*
X4495357Y-16884643D01*
X4481071Y-16898929D01*
X4452500Y-16913214D01*
X4381071Y-16913214D01*
X4352500Y-16898929D01*
X4338214Y-16884643D01*
X4695357Y-16613214D02*
X4723929Y-16613214D01*
X4752500Y-16627500D01*
X4766786Y-16641786D01*
X4781071Y-16670357D01*
X4795357Y-16727500D01*
X4795357Y-16798929D01*
X4781071Y-16856072D01*
X4766786Y-16884643D01*
X4752500Y-16898929D01*
X4723929Y-16913214D01*
X4695357Y-16913214D01*
X4666786Y-16898929D01*
X4652500Y-16884643D01*
X4638214Y-16856072D01*
X4623929Y-16798929D01*
X4623929Y-16727500D01*
X4638214Y-16670357D01*
X4652500Y-16641786D01*
X4666786Y-16627500D01*
X4695357Y-16613214D01*
X4923929Y-16913214D02*
X4923929Y-16713214D01*
X4923929Y-16741786D02*
X4938214Y-16727500D01*
X4966786Y-16713214D01*
X5009643Y-16713214D01*
X5038214Y-16727500D01*
X5052500Y-16756071D01*
X5052500Y-16913214D01*
X5052500Y-16756071D02*
X5066786Y-16727500D01*
X5095357Y-16713214D01*
X5138214Y-16713214D01*
X5166786Y-16727500D01*
X5181071Y-16756071D01*
X5181071Y-16913214D01*
X5323929Y-16913214D02*
X5323929Y-16713214D01*
X5323929Y-16741786D02*
X5338214Y-16727500D01*
X5366786Y-16713214D01*
X5409643Y-16713214D01*
X5438214Y-16727500D01*
X5452500Y-16756071D01*
X5452500Y-16913214D01*
X5452500Y-16756071D02*
X5466786Y-16727500D01*
X5495357Y-16713214D01*
X5538214Y-16713214D01*
X5566786Y-16727500D01*
X5581071Y-16756071D01*
X5581071Y-16913214D01*
X6166786Y-16598929D02*
X5909643Y-16984643D01*
X6552500Y-16613214D02*
X6581071Y-16613214D01*
X6609643Y-16627500D01*
X6623928Y-16641786D01*
X6638214Y-16670357D01*
X6652500Y-16727500D01*
X6652500Y-16798929D01*
X6638214Y-16856072D01*
X6623928Y-16884643D01*
X6609643Y-16898929D01*
X6581071Y-16913214D01*
X6552500Y-16913214D01*
X6523928Y-16898929D01*
X6509643Y-16884643D01*
X6495357Y-16856072D01*
X6481071Y-16798929D01*
X6481071Y-16727500D01*
X6495357Y-16670357D01*
X6509643Y-16641786D01*
X6523928Y-16627500D01*
X6552500Y-16613214D01*
X6781071Y-16884643D02*
X6795357Y-16898929D01*
X6781071Y-16913214D01*
X6766786Y-16898929D01*
X6781071Y-16884643D01*
X6781071Y-16913214D01*
X6981071Y-16613214D02*
X7009643Y-16613214D01*
X7038214Y-16627500D01*
X7052500Y-16641786D01*
X7066785Y-16670357D01*
X7081071Y-16727500D01*
X7081071Y-16798929D01*
X7066785Y-16856072D01*
X7052500Y-16884643D01*
X7038214Y-16898929D01*
X7009643Y-16913214D01*
X6981071Y-16913214D01*
X6952500Y-16898929D01*
X6938214Y-16884643D01*
X6923928Y-16856072D01*
X6909643Y-16798929D01*
X6909643Y-16727500D01*
X6923928Y-16670357D01*
X6938214Y-16641786D01*
X6952500Y-16627500D01*
X6981071Y-16613214D01*
X7352500Y-16613214D02*
X7209643Y-16613214D01*
X7195357Y-16756071D01*
X7209643Y-16741786D01*
X7238214Y-16727500D01*
X7309643Y-16727500D01*
X7338214Y-16741786D01*
X7352500Y-16756071D01*
X7366785Y-16784643D01*
X7366785Y-16856072D01*
X7352500Y-16884643D01*
X7338214Y-16898929D01*
X7309643Y-16913214D01*
X7238214Y-16913214D01*
X7209643Y-16898929D01*
X7195357Y-16884643D01*
X7509643Y-16913214D02*
X7566785Y-16913214D01*
X7595357Y-16898929D01*
X7609643Y-16884643D01*
X7638214Y-16841786D01*
X7652500Y-16784643D01*
X7652500Y-16670357D01*
X7638214Y-16641786D01*
X7623928Y-16627500D01*
X7595357Y-16613214D01*
X7538214Y-16613214D01*
X7509643Y-16627500D01*
X7495357Y-16641786D01*
X7481071Y-16670357D01*
X7481071Y-16741786D01*
X7495357Y-16770357D01*
X7509643Y-16784643D01*
X7538214Y-16798929D01*
X7595357Y-16798929D01*
X7623928Y-16784643D01*
X7638214Y-16770357D01*
X7652500Y-16741786D01*
X7766786Y-16613214D02*
X7766786Y-16670357D01*
X7881071Y-16613214D02*
X7881071Y-16670357D01*
X8323928Y-17027500D02*
X8309643Y-17013214D01*
X8281071Y-16970357D01*
X8266785Y-16941786D01*
X8252500Y-16898929D01*
X8238214Y-16827500D01*
X8238214Y-16770357D01*
X8252500Y-16698929D01*
X8266785Y-16656071D01*
X8281071Y-16627500D01*
X8309643Y-16584643D01*
X8323928Y-16570357D01*
X8423928Y-16641786D02*
X8438214Y-16627500D01*
X8466786Y-16613214D01*
X8538214Y-16613214D01*
X8566786Y-16627500D01*
X8581071Y-16641786D01*
X8595357Y-16670357D01*
X8595357Y-16698929D01*
X8581071Y-16741786D01*
X8409643Y-16913214D01*
X8595357Y-16913214D01*
X8781071Y-16613214D02*
X8809643Y-16613214D01*
X8838214Y-16627500D01*
X8852500Y-16641786D01*
X8866786Y-16670357D01*
X8881071Y-16727500D01*
X8881071Y-16798929D01*
X8866786Y-16856072D01*
X8852500Y-16884643D01*
X8838214Y-16898929D01*
X8809643Y-16913214D01*
X8781071Y-16913214D01*
X8752500Y-16898929D01*
X8738214Y-16884643D01*
X8723928Y-16856072D01*
X8709643Y-16798929D01*
X8709643Y-16727500D01*
X8723928Y-16670357D01*
X8738214Y-16641786D01*
X8752500Y-16627500D01*
X8781071Y-16613214D01*
X9238214Y-16913214D02*
X9238214Y-16613214D01*
X9366786Y-16913214D02*
X9366786Y-16756071D01*
X9352500Y-16727500D01*
X9323928Y-16713214D01*
X9281071Y-16713214D01*
X9252500Y-16727500D01*
X9238214Y-16741786D01*
X9552500Y-16913214D02*
X9523928Y-16898929D01*
X9509643Y-16884643D01*
X9495357Y-16856072D01*
X9495357Y-16770357D01*
X9509643Y-16741786D01*
X9523928Y-16727500D01*
X9552500Y-16713214D01*
X9595357Y-16713214D01*
X9623928Y-16727500D01*
X9638214Y-16741786D01*
X9652500Y-16770357D01*
X9652500Y-16856072D01*
X9638214Y-16884643D01*
X9623928Y-16898929D01*
X9595357Y-16913214D01*
X9552500Y-16913214D01*
X9823928Y-16913214D02*
X9795357Y-16898929D01*
X9781071Y-16870357D01*
X9781071Y-16613214D01*
X10052500Y-16898929D02*
X10023929Y-16913214D01*
X9966786Y-16913214D01*
X9938214Y-16898929D01*
X9923929Y-16870357D01*
X9923929Y-16756071D01*
X9938214Y-16727500D01*
X9966786Y-16713214D01*
X10023929Y-16713214D01*
X10052500Y-16727500D01*
X10066786Y-16756071D01*
X10066786Y-16784643D01*
X9923929Y-16813214D01*
X10181071Y-16898929D02*
X10209643Y-16913214D01*
X10266786Y-16913214D01*
X10295357Y-16898929D01*
X10309643Y-16870357D01*
X10309643Y-16856072D01*
X10295357Y-16827500D01*
X10266786Y-16813214D01*
X10223929Y-16813214D01*
X10195357Y-16798929D01*
X10181071Y-16770357D01*
X10181071Y-16756071D01*
X10195357Y-16727500D01*
X10223929Y-16713214D01*
X10266786Y-16713214D01*
X10295357Y-16727500D01*
X10409643Y-17027500D02*
X10423929Y-17013214D01*
X10452500Y-16970357D01*
X10466786Y-16941786D01*
X10481071Y-16898929D01*
X10495357Y-16827500D01*
X10495357Y-16770357D01*
X10481071Y-16698929D01*
X10466786Y-16656071D01*
X10452500Y-16627500D01*
X10423929Y-16584643D01*
X10409643Y-16570357D01*
X10952500Y-17027500D02*
X10938214Y-17013214D01*
X10909643Y-16970357D01*
X10895357Y-16941786D01*
X10881071Y-16898929D01*
X10866786Y-16827500D01*
X10866786Y-16770357D01*
X10881071Y-16698929D01*
X10895357Y-16656071D01*
X10909643Y-16627500D01*
X10938214Y-16584643D01*
X10952500Y-16570357D01*
X11066786Y-16713214D02*
X11066786Y-16913214D01*
X11066786Y-16741786D02*
X11081071Y-16727500D01*
X11109643Y-16713214D01*
X11152500Y-16713214D01*
X11181071Y-16727500D01*
X11195357Y-16756071D01*
X11195357Y-16913214D01*
X11381071Y-16913214D02*
X11352500Y-16898929D01*
X11338214Y-16884643D01*
X11323928Y-16856072D01*
X11323928Y-16770357D01*
X11338214Y-16741786D01*
X11352500Y-16727500D01*
X11381071Y-16713214D01*
X11423928Y-16713214D01*
X11452500Y-16727500D01*
X11466786Y-16741786D01*
X11481071Y-16770357D01*
X11481071Y-16856072D01*
X11466786Y-16884643D01*
X11452500Y-16898929D01*
X11423928Y-16913214D01*
X11381071Y-16913214D01*
X11566786Y-16713214D02*
X11681071Y-16713214D01*
X11609643Y-16613214D02*
X11609643Y-16870357D01*
X11623928Y-16898929D01*
X11652500Y-16913214D01*
X11681071Y-16913214D01*
X12009643Y-16713214D02*
X12009643Y-17013214D01*
X12009643Y-16727500D02*
X12038214Y-16713214D01*
X12095357Y-16713214D01*
X12123928Y-16727500D01*
X12138214Y-16741786D01*
X12152500Y-16770357D01*
X12152500Y-16856072D01*
X12138214Y-16884643D01*
X12123928Y-16898929D01*
X12095357Y-16913214D01*
X12038214Y-16913214D01*
X12009643Y-16898929D01*
X12323928Y-16913214D02*
X12295357Y-16898929D01*
X12281071Y-16870357D01*
X12281071Y-16613214D01*
X12566786Y-16913214D02*
X12566786Y-16756071D01*
X12552500Y-16727500D01*
X12523929Y-16713214D01*
X12466786Y-16713214D01*
X12438214Y-16727500D01*
X12566786Y-16898929D02*
X12538214Y-16913214D01*
X12466786Y-16913214D01*
X12438214Y-16898929D01*
X12423929Y-16870357D01*
X12423929Y-16841786D01*
X12438214Y-16813214D01*
X12466786Y-16798929D01*
X12538214Y-16798929D01*
X12566786Y-16784643D01*
X12666786Y-16713214D02*
X12781071Y-16713214D01*
X12709643Y-16613214D02*
X12709643Y-16870357D01*
X12723929Y-16898929D01*
X12752500Y-16913214D01*
X12781071Y-16913214D01*
X12995357Y-16898929D02*
X12966786Y-16913214D01*
X12909643Y-16913214D01*
X12881071Y-16898929D01*
X12866786Y-16870357D01*
X12866786Y-16756071D01*
X12881071Y-16727500D01*
X12909643Y-16713214D01*
X12966786Y-16713214D01*
X12995357Y-16727500D01*
X13009643Y-16756071D01*
X13009643Y-16784643D01*
X12866786Y-16813214D01*
X13266786Y-16913214D02*
X13266786Y-16613214D01*
X13266786Y-16898929D02*
X13238214Y-16913214D01*
X13181071Y-16913214D01*
X13152500Y-16898929D01*
X13138214Y-16884643D01*
X13123929Y-16856072D01*
X13123929Y-16770357D01*
X13138214Y-16741786D01*
X13152500Y-16727500D01*
X13181071Y-16713214D01*
X13238214Y-16713214D01*
X13266786Y-16727500D01*
X13381071Y-17027500D02*
X13395357Y-17013214D01*
X13423929Y-16970357D01*
X13438214Y-16941786D01*
X13452500Y-16898929D01*
X13466786Y-16827500D01*
X13466786Y-16770357D01*
X13452500Y-16698929D01*
X13438214Y-16656071D01*
X13423929Y-16627500D01*
X13395357Y-16584643D01*
X13381071Y-16570357D01*
M02*
