M48
;DRILL file {KiCad 4.0.7} date Mon Aug 27 18:32:14 2018
;FORMAT={-:-/ absolute / inch / decimal}
FMAT,2
INCH,TZ
T1C0.059
%
G90
G05
M72
T1
X1.5295Y-3.2008
X1.5295Y-3.2303
X1.5295Y-3.25
X1.5295Y-3.2795
X1.5295Y-3.2992
X1.5295Y-3.9882
X1.5295Y-4.0177
X1.5295Y-4.0374
X1.5295Y-4.0669
X1.5295Y-4.0866
X3.124Y-3.2008
X3.124Y-3.2205
X3.124Y-3.25
X3.124Y-3.2697
X3.124Y-3.2992
X3.124Y-3.9882
X3.124Y-4.0079
X3.124Y-4.0374
X3.124Y-4.0669
X3.124Y-4.0866
T0
M30
