G04 #@! TF.FileFunction,Soldermask,Top*
%FSLAX46Y46*%
G04 Gerber Fmt 4.6, Leading zero omitted, Abs format (unit mm)*
G04 Created by KiCad (PCBNEW 4.0.7) date Mon Aug 20 13:26:01 2018*
%MOMM*%
%LPD*%
G01*
G04 APERTURE LIST*
%ADD10C,0.100000*%
%ADD11R,2.100000X2.100000*%
%ADD12O,2.100000X2.100000*%
%ADD13R,1.700000X1.900000*%
%ADD14C,1.900000*%
%ADD15O,2.400000X4.900000*%
%ADD16R,1.000000X3.400000*%
%ADD17R,0.900000X2.400000*%
%ADD18R,0.900000X1.400000*%
G04 APERTURE END LIST*
D10*
D11*
X40460000Y-108920000D03*
D12*
X43000000Y-108920000D03*
X40460000Y-111460000D03*
X43000000Y-111460000D03*
X40460000Y-114000000D03*
X43000000Y-114000000D03*
D11*
X40460000Y-116460000D03*
D12*
X43000000Y-116460000D03*
X40460000Y-119000000D03*
X43000000Y-119000000D03*
D13*
X66675000Y-83900000D03*
X66675000Y-81200000D03*
X66700000Y-95250000D03*
X66700000Y-92550000D03*
X52800000Y-95300000D03*
X52800000Y-92600000D03*
X52750000Y-83750000D03*
X52750000Y-81050000D03*
D14*
X79450000Y-92800000D03*
X79450000Y-91550000D03*
X38950000Y-93050000D03*
X38950000Y-91800000D03*
X38950000Y-93550000D03*
X38950000Y-91050000D03*
X38950000Y-73550000D03*
X38950000Y-73050000D03*
X38950000Y-71050000D03*
X38950000Y-71550000D03*
X79450000Y-93550000D03*
X79450000Y-91050000D03*
X79450000Y-72800000D03*
D15*
X79450000Y-92300000D03*
X38950000Y-92300000D03*
X79450000Y-72300000D03*
X38950000Y-72300000D03*
D16*
X63200000Y-72300000D03*
X62200000Y-72300000D03*
X61200000Y-72300000D03*
X60200000Y-72300000D03*
X55200000Y-72300000D03*
X56200000Y-72300000D03*
X59200000Y-72300000D03*
X58200000Y-72300000D03*
X57200000Y-72300000D03*
D14*
X79450000Y-71050000D03*
X79450000Y-73550000D03*
X79450000Y-71550000D03*
D13*
X57675000Y-92675000D03*
X57675000Y-95375000D03*
X62400000Y-95350000D03*
X62400000Y-92650000D03*
X62450000Y-83900000D03*
X62450000Y-81200000D03*
X57750000Y-83825000D03*
X57750000Y-81125000D03*
D17*
X54930000Y-119820000D03*
D18*
X54430000Y-113320000D03*
M02*
