M48
;DRILL file {KiCad 4.0.7} date Mon Aug 20 13:26:05 2018
;FORMAT={-:-/ absolute / inch / decimal}
FMAT,2
INCH,TZ
T1C0.059
%
G90
G05
M72
T1
X1.5335Y-2.7972
X1.5335Y-2.8169
X1.5335Y-2.8465
X1.5335Y-2.876
X1.5335Y-2.8957
X1.5335Y-3.5846
X1.5335Y-3.6142
X1.5335Y-3.6339
X1.5335Y-3.6634
X1.5335Y-3.6831
X3.128Y-2.7972
X3.128Y-2.8169
X3.128Y-2.8465
X3.128Y-2.8661
X3.128Y-2.8957
X3.128Y-3.5846
X3.128Y-3.6043
X3.128Y-3.6339
X3.128Y-3.6535
X3.128Y-3.6831
T0
M30
