G04 #@! TF.FileFunction,Copper,L1,Top,Signal*
%FSLAX46Y46*%
G04 Gerber Fmt 4.6, Leading zero omitted, Abs format (unit mm)*
G04 Created by KiCad (PCBNEW 4.0.6) date Sun Nov  4 10:49:20 2018*
%MOMM*%
%LPD*%
G01*
G04 APERTURE LIST*
%ADD10C,0.100000*%
%ADD11R,1.700000X1.700000*%
%ADD12O,1.700000X1.700000*%
%ADD13C,2.000000*%
%ADD14R,0.600000X3.000000*%
%ADD15R,0.800000X0.800000*%
%ADD16R,1.000000X2.750000*%
%ADD17C,0.600000*%
%ADD18C,0.300000*%
%ADD19C,0.200000*%
%ADD20C,0.254000*%
G04 APERTURE END LIST*
D10*
D11*
X40460000Y-108920000D03*
D12*
X43000000Y-108920000D03*
X40460000Y-111460000D03*
X43000000Y-111460000D03*
X40460000Y-114000000D03*
X43000000Y-114000000D03*
D11*
X40460000Y-116460000D03*
D12*
X43000000Y-116460000D03*
X40460000Y-119000000D03*
X43000000Y-119000000D03*
D13*
X76530000Y-103800000D03*
D14*
X63280000Y-73800000D03*
X62280000Y-73800000D03*
X61280000Y-73800000D03*
X60280000Y-73800000D03*
X55280000Y-73800000D03*
X56280000Y-73800000D03*
X59280000Y-73800000D03*
X58280000Y-73800000D03*
X57280000Y-73800000D03*
D13*
X42030000Y-77300000D03*
D15*
X78030000Y-85170000D03*
X78030000Y-83570000D03*
X40540000Y-83500000D03*
X40540000Y-85100000D03*
X77980000Y-96540000D03*
X77980000Y-98140000D03*
X40530000Y-96660000D03*
X40530000Y-98260000D03*
D11*
X73634600Y-133324600D03*
D12*
X73634600Y-130784600D03*
X73634600Y-128244600D03*
X73634600Y-125704600D03*
X73634600Y-123164600D03*
X73634600Y-120624600D03*
X73634600Y-118084600D03*
X73634600Y-115544600D03*
D16*
X48088800Y-119359400D03*
X48088800Y-113609400D03*
X52088800Y-113609400D03*
X52088800Y-119359400D03*
X56946800Y-119430800D03*
X56946800Y-113680800D03*
X60946800Y-113680800D03*
X60946800Y-119430800D03*
X65938400Y-119227600D03*
X65938400Y-113477600D03*
X69938400Y-113477600D03*
X69938400Y-119227600D03*
D17*
X50630000Y-110260010D03*
X57280000Y-70720000D03*
X40540000Y-85100000D03*
X40530000Y-98260000D03*
X78120000Y-98220000D03*
X78120000Y-83570000D03*
X44020000Y-83190000D03*
X74030000Y-83220000D03*
X70600000Y-52230000D03*
X53030000Y-110260010D03*
X42760000Y-100420000D03*
X52230000Y-101650000D03*
X50630000Y-101650000D03*
X57020000Y-109560000D03*
X62260000Y-102310000D03*
X62280000Y-76320000D03*
X44136096Y-104500012D03*
X52080000Y-106250000D03*
X55280000Y-108700000D03*
X61270373Y-102300373D03*
X61280000Y-76330000D03*
X55280000Y-107900000D03*
X55270000Y-76350000D03*
X69230000Y-88850000D03*
X51160000Y-88880000D03*
X74070000Y-88880000D03*
X55280000Y-105500000D03*
X59290000Y-76330000D03*
X60290000Y-76320000D03*
X45300000Y-105880000D03*
X44879990Y-114300000D03*
X74020000Y-91590000D03*
X40530000Y-96660000D03*
X44040000Y-91580000D03*
X52300000Y-80890000D03*
X68503800Y-121285000D03*
X70840600Y-124409200D03*
X52882800Y-103301800D03*
X52238579Y-105139821D03*
X49414619Y-103729959D03*
X57099200Y-105308400D03*
X69933800Y-108356400D03*
X43980000Y-67580000D03*
X74580000Y-67580000D03*
X67233800Y-108356400D03*
X61010800Y-108305600D03*
D18*
X57280000Y-70720000D02*
X57280000Y-73800000D01*
X40540000Y-83500000D02*
X43710000Y-83500000D01*
X43710000Y-83500000D02*
X44020000Y-83190000D01*
X78030000Y-85170000D02*
X75880000Y-85170000D01*
X75880000Y-85170000D02*
X74030000Y-83320000D01*
X74030000Y-83320000D02*
X74030000Y-83220000D01*
D19*
X58280000Y-73800000D02*
X58280000Y-72100000D01*
X58280000Y-72100000D02*
X58380001Y-71999999D01*
X63280000Y-72100000D02*
X63280000Y-73800000D01*
X58380001Y-71999999D02*
X63179999Y-71999999D01*
X63179999Y-71999999D02*
X63280000Y-72100000D01*
D18*
X40460000Y-116460000D02*
X39310000Y-116460000D01*
X39310000Y-116460000D02*
X38500000Y-115650000D01*
X50630000Y-101650000D02*
X52230000Y-101650000D01*
X44136096Y-104500012D02*
X42549986Y-104500012D01*
X42549986Y-104500012D02*
X39259999Y-107789999D01*
X39259999Y-107789999D02*
X39259999Y-110259999D01*
X39259999Y-110259999D02*
X40460000Y-111460000D01*
X57530000Y-106960000D02*
X57530000Y-109050000D01*
X57530000Y-109050000D02*
X57020000Y-109560000D01*
X61880001Y-102609999D02*
X57530000Y-106960000D01*
X62260000Y-102310000D02*
X61960001Y-102609999D01*
X61960001Y-102609999D02*
X61880001Y-102609999D01*
X62280000Y-73800000D02*
X62280000Y-76320000D01*
X52080000Y-106250000D02*
X51780001Y-105950001D01*
X51780001Y-105950001D02*
X50070001Y-105950001D01*
X50070001Y-105950001D02*
X48620012Y-104500012D01*
X44136096Y-104500012D02*
X48620012Y-104500012D01*
X44950010Y-107180010D02*
X44950010Y-112049990D01*
X44950010Y-112049990D02*
X43000000Y-114000000D01*
X45737988Y-107180010D02*
X44950010Y-107180010D01*
X46467999Y-106449999D02*
X45737988Y-107180010D01*
X46467999Y-106449999D02*
X47092001Y-106449999D01*
X47092001Y-106449999D02*
X49342002Y-108700000D01*
X49342002Y-108700000D02*
X55280000Y-108700000D01*
X44450000Y-106680000D02*
X44450000Y-110010000D01*
X44450000Y-110010000D02*
X43000000Y-111460000D01*
X45530878Y-106680000D02*
X44450000Y-106680000D01*
X46260889Y-105949989D02*
X45530878Y-106680000D01*
X55280000Y-107900000D02*
X55730000Y-107900000D01*
X61270373Y-102359627D02*
X61270373Y-102300373D01*
X55730000Y-107900000D02*
X61270373Y-102359627D01*
X61280000Y-73800000D02*
X61280000Y-76330000D01*
X46260889Y-105949989D02*
X47299111Y-105949989D01*
X49249122Y-107900000D02*
X55280000Y-107900000D01*
X47299111Y-105949989D02*
X49249122Y-107900000D01*
X55280000Y-73800000D02*
X55280000Y-76340000D01*
X55280000Y-76340000D02*
X55270000Y-76350000D01*
X51160000Y-88880000D02*
X49979999Y-90060001D01*
X49979999Y-90060001D02*
X49979999Y-101962001D01*
X53517998Y-105500000D02*
X54230000Y-105500000D01*
X49979999Y-101962001D02*
X53517998Y-105500000D01*
X54230000Y-105500000D02*
X55280000Y-105500000D01*
X51160000Y-88880000D02*
X69200000Y-88880000D01*
X69200000Y-88880000D02*
X69230000Y-88850000D01*
X59280000Y-73800000D02*
X59280000Y-76320000D01*
X59280000Y-76320000D02*
X59290000Y-76330000D01*
X60290000Y-76320000D02*
X60290000Y-73810000D01*
X60290000Y-73810000D02*
X60280000Y-73800000D01*
X40460000Y-114000000D02*
X41660001Y-112799999D01*
X44263998Y-105880000D02*
X45300000Y-105880000D01*
X41660001Y-112799999D02*
X41660001Y-108483997D01*
X41660001Y-108483997D02*
X44263998Y-105880000D01*
X44879990Y-114300000D02*
X44879990Y-114580010D01*
X44879990Y-114580010D02*
X43000000Y-116460000D01*
X77980000Y-96540000D02*
X77980000Y-94600000D01*
X77980000Y-94600000D02*
X74970000Y-91590000D01*
X74970000Y-91590000D02*
X74020000Y-91590000D01*
X52300000Y-80890000D02*
X56280000Y-76910000D01*
X56280000Y-76910000D02*
X56280000Y-73800000D01*
X70840600Y-124409200D02*
X70840600Y-123621800D01*
X70840600Y-123621800D02*
X68503800Y-121285000D01*
X49414619Y-103729959D02*
X50824481Y-105139821D01*
X50824481Y-105139821D02*
X52238579Y-105139821D01*
X57099200Y-105308400D02*
X55092600Y-103301800D01*
X55092600Y-103301800D02*
X54043802Y-103301800D01*
X54043802Y-103301800D02*
X52882800Y-103301800D01*
X69938400Y-113477600D02*
X69938400Y-108361000D01*
X69938400Y-108361000D02*
X69933800Y-108356400D01*
X69938400Y-113477600D02*
X69938400Y-119227600D01*
X60946800Y-113680800D02*
X60946800Y-112005800D01*
X60946800Y-112005800D02*
X62538800Y-110413800D01*
X62538800Y-110413800D02*
X65176400Y-110413800D01*
X65176400Y-110413800D02*
X67233800Y-108356400D01*
X60946800Y-113680800D02*
X60946800Y-119430800D01*
X52088800Y-113609400D02*
X52088800Y-112734400D01*
X52088800Y-112734400D02*
X52888800Y-111934400D01*
X52888800Y-111934400D02*
X57382000Y-111934400D01*
X57382000Y-111934400D02*
X61010800Y-108305600D01*
X52088800Y-113609400D02*
X52088800Y-119359400D01*
D20*
G36*
X67444321Y-45007921D02*
X72561283Y-45499936D01*
X74702773Y-46151694D01*
X77025573Y-47609138D01*
X78229743Y-49660686D01*
X78650464Y-51624050D01*
X79643016Y-58671172D01*
X80091309Y-66043096D01*
X80391275Y-71042524D01*
X80391503Y-71043396D01*
X80391383Y-71044289D01*
X80418600Y-71479754D01*
X80315564Y-71376539D01*
X79806702Y-71165241D01*
X79255715Y-71164760D01*
X78746485Y-71375169D01*
X78356539Y-71764436D01*
X78145241Y-72273298D01*
X78144760Y-72824285D01*
X78145196Y-72825339D01*
X78144760Y-73324285D01*
X78186217Y-73424618D01*
X78145241Y-73523298D01*
X78144760Y-74074285D01*
X78145196Y-74075339D01*
X78144760Y-74574285D01*
X78186217Y-74674618D01*
X78145241Y-74773298D01*
X78144760Y-75324285D01*
X78355169Y-75833515D01*
X78744436Y-76223461D01*
X79253298Y-76434759D01*
X79804285Y-76435240D01*
X80313515Y-76224831D01*
X80674030Y-75864944D01*
X80839806Y-80009361D01*
X80690121Y-90986306D01*
X80671452Y-91733048D01*
X80315564Y-91376539D01*
X79806702Y-91165241D01*
X79255715Y-91164760D01*
X78746485Y-91375169D01*
X78356539Y-91764436D01*
X78145241Y-92273298D01*
X78144760Y-92824285D01*
X78145196Y-92825339D01*
X78144760Y-93324285D01*
X78186217Y-93424618D01*
X78145241Y-93523298D01*
X78145126Y-93654968D01*
X75525079Y-91034921D01*
X75270407Y-90864755D01*
X74970000Y-90805000D01*
X74557506Y-90805000D01*
X74550327Y-90797808D01*
X74206799Y-90655162D01*
X73834833Y-90654838D01*
X73491057Y-90796883D01*
X73227808Y-91059673D01*
X73085162Y-91403201D01*
X73084838Y-91775167D01*
X73226883Y-92118943D01*
X73489673Y-92382192D01*
X73833201Y-92524838D01*
X74205167Y-92525162D01*
X74548943Y-92383117D01*
X74557074Y-92375000D01*
X74644842Y-92375000D01*
X77195000Y-94925158D01*
X77195000Y-95633156D01*
X77128559Y-95675910D01*
X76983569Y-95888110D01*
X76932560Y-96140000D01*
X76932560Y-96940000D01*
X76976838Y-97175317D01*
X77083759Y-97341477D01*
X76983569Y-97488110D01*
X76932560Y-97740000D01*
X76932560Y-98540000D01*
X76976838Y-98775317D01*
X77115910Y-98991441D01*
X77328110Y-99136431D01*
X77580000Y-99187440D01*
X78380000Y-99187440D01*
X78615317Y-99143162D01*
X78831441Y-99004090D01*
X78976431Y-98791890D01*
X79027440Y-98540000D01*
X79027440Y-98472780D01*
X79054838Y-98406799D01*
X79055162Y-98034833D01*
X79027440Y-97967740D01*
X79027440Y-97740000D01*
X78983162Y-97504683D01*
X78876241Y-97338523D01*
X78976431Y-97191890D01*
X79027440Y-96940000D01*
X79027440Y-96340975D01*
X79253298Y-96434759D01*
X79804285Y-96435240D01*
X80313515Y-96224831D01*
X80556407Y-95982362D01*
X80340405Y-102376027D01*
X80340715Y-102377919D01*
X80340288Y-102379787D01*
X79890319Y-118178708D01*
X79690895Y-124460543D01*
X77399705Y-153249843D01*
X77235061Y-153710847D01*
X75600615Y-155345293D01*
X74714225Y-155921446D01*
X73781956Y-156320990D01*
X71387004Y-156847880D01*
X68053507Y-157191034D01*
X61042283Y-157389934D01*
X53534556Y-157340214D01*
X47564011Y-156797437D01*
X45966565Y-156421567D01*
X44746698Y-155924585D01*
X43954006Y-155352085D01*
X43084135Y-154527997D01*
X42452842Y-153671242D01*
X41164836Y-151238345D01*
X40845563Y-150052474D01*
X40604235Y-148507969D01*
X40407144Y-146635606D01*
X39508354Y-134951327D01*
X39058705Y-127517135D01*
X39057045Y-127510813D01*
X39058305Y-127500963D01*
X38640789Y-121470167D01*
X67568638Y-121470167D01*
X67710683Y-121813943D01*
X67973473Y-122077192D01*
X68317001Y-122219838D01*
X68328490Y-122219848D01*
X70030542Y-123921900D01*
X69905762Y-124222401D01*
X69905438Y-124594367D01*
X70047483Y-124938143D01*
X70310273Y-125201392D01*
X70653801Y-125344038D01*
X71025767Y-125344362D01*
X71369543Y-125202317D01*
X71632792Y-124939527D01*
X71775438Y-124595999D01*
X71775762Y-124224033D01*
X71633717Y-123880257D01*
X71625600Y-123872126D01*
X71625600Y-123621800D01*
X71624463Y-123616083D01*
X71565845Y-123321393D01*
X71395679Y-123066721D01*
X69578998Y-121250040D01*
X70438400Y-121250040D01*
X70673717Y-121205762D01*
X70889841Y-121066690D01*
X71034831Y-120854490D01*
X71085840Y-120602600D01*
X71085840Y-117852600D01*
X71041562Y-117617283D01*
X70902490Y-117401159D01*
X70723400Y-117278792D01*
X70723400Y-115544600D01*
X72120507Y-115544600D01*
X72233546Y-116112885D01*
X72555453Y-116594654D01*
X72884626Y-116814600D01*
X72555453Y-117034546D01*
X72233546Y-117516315D01*
X72120507Y-118084600D01*
X72233546Y-118652885D01*
X72555453Y-119134654D01*
X72884626Y-119354600D01*
X72555453Y-119574546D01*
X72233546Y-120056315D01*
X72120507Y-120624600D01*
X72233546Y-121192885D01*
X72555453Y-121674654D01*
X72884626Y-121894600D01*
X72555453Y-122114546D01*
X72233546Y-122596315D01*
X72120507Y-123164600D01*
X72233546Y-123732885D01*
X72555453Y-124214654D01*
X72884626Y-124434600D01*
X72555453Y-124654546D01*
X72233546Y-125136315D01*
X72120507Y-125704600D01*
X72233546Y-126272885D01*
X72555453Y-126754654D01*
X72884626Y-126974600D01*
X72555453Y-127194546D01*
X72233546Y-127676315D01*
X72120507Y-128244600D01*
X72233546Y-128812885D01*
X72555453Y-129294654D01*
X72884626Y-129514600D01*
X72555453Y-129734546D01*
X72233546Y-130216315D01*
X72120507Y-130784600D01*
X72233546Y-131352885D01*
X72555453Y-131834654D01*
X72597052Y-131862450D01*
X72549283Y-131871438D01*
X72333159Y-132010510D01*
X72188169Y-132222710D01*
X72137160Y-132474600D01*
X72137160Y-134174600D01*
X72181438Y-134409917D01*
X72320510Y-134626041D01*
X72532710Y-134771031D01*
X72784600Y-134822040D01*
X74484600Y-134822040D01*
X74719917Y-134777762D01*
X74936041Y-134638690D01*
X75081031Y-134426490D01*
X75132040Y-134174600D01*
X75132040Y-132474600D01*
X75087762Y-132239283D01*
X74948690Y-132023159D01*
X74736490Y-131878169D01*
X74669059Y-131864514D01*
X74713747Y-131834654D01*
X75035654Y-131352885D01*
X75148693Y-130784600D01*
X75035654Y-130216315D01*
X74713747Y-129734546D01*
X74384574Y-129514600D01*
X74713747Y-129294654D01*
X75035654Y-128812885D01*
X75148693Y-128244600D01*
X75035654Y-127676315D01*
X74713747Y-127194546D01*
X74384574Y-126974600D01*
X74713747Y-126754654D01*
X75035654Y-126272885D01*
X75148693Y-125704600D01*
X75035654Y-125136315D01*
X74713747Y-124654546D01*
X74384574Y-124434600D01*
X74713747Y-124214654D01*
X75035654Y-123732885D01*
X75148693Y-123164600D01*
X75035654Y-122596315D01*
X74713747Y-122114546D01*
X74384574Y-121894600D01*
X74713747Y-121674654D01*
X75035654Y-121192885D01*
X75148693Y-120624600D01*
X75035654Y-120056315D01*
X74713747Y-119574546D01*
X74384574Y-119354600D01*
X74713747Y-119134654D01*
X75035654Y-118652885D01*
X75148693Y-118084600D01*
X75035654Y-117516315D01*
X74713747Y-117034546D01*
X74384574Y-116814600D01*
X74713747Y-116594654D01*
X75035654Y-116112885D01*
X75148693Y-115544600D01*
X75035654Y-114976315D01*
X74713747Y-114494546D01*
X74231978Y-114172639D01*
X73663693Y-114059600D01*
X73605507Y-114059600D01*
X73037222Y-114172639D01*
X72555453Y-114494546D01*
X72233546Y-114976315D01*
X72120507Y-115544600D01*
X70723400Y-115544600D01*
X70723400Y-115423792D01*
X70889841Y-115316690D01*
X71034831Y-115104490D01*
X71085840Y-114852600D01*
X71085840Y-112102600D01*
X71041562Y-111867283D01*
X70902490Y-111651159D01*
X70723400Y-111528792D01*
X70723400Y-108889314D01*
X70725992Y-108886727D01*
X70868638Y-108543199D01*
X70868962Y-108171233D01*
X70726917Y-107827457D01*
X70464127Y-107564208D01*
X70120599Y-107421562D01*
X69748633Y-107421238D01*
X69404857Y-107563283D01*
X69141608Y-107826073D01*
X68998962Y-108169601D01*
X68998638Y-108541567D01*
X69140683Y-108885343D01*
X69153400Y-108898082D01*
X69153400Y-111531408D01*
X68986959Y-111638510D01*
X68841969Y-111850710D01*
X68790960Y-112102600D01*
X68790960Y-114852600D01*
X68835238Y-115087917D01*
X68974310Y-115304041D01*
X69153400Y-115426408D01*
X69153400Y-117281408D01*
X68986959Y-117388510D01*
X68841969Y-117600710D01*
X68790960Y-117852600D01*
X68790960Y-120391836D01*
X68690599Y-120350162D01*
X68318633Y-120349838D01*
X67974857Y-120491883D01*
X67711608Y-120754673D01*
X67568962Y-121098201D01*
X67568638Y-121470167D01*
X38640789Y-121470167D01*
X38608305Y-121000964D01*
X38608097Y-121000200D01*
X38608196Y-120999414D01*
X38108479Y-114003377D01*
X37809363Y-109018110D01*
X37772520Y-107789999D01*
X38474999Y-107789999D01*
X38474999Y-110259999D01*
X38534754Y-110560406D01*
X38704920Y-110815078D01*
X39012924Y-111123082D01*
X38945907Y-111460000D01*
X39058946Y-112028285D01*
X39380853Y-112510054D01*
X39710026Y-112730000D01*
X39380853Y-112949946D01*
X39058946Y-113431715D01*
X38945907Y-114000000D01*
X39058946Y-114568285D01*
X39363867Y-115024633D01*
X39250302Y-115071673D01*
X39071673Y-115250301D01*
X38975000Y-115483690D01*
X38975000Y-116174250D01*
X39133750Y-116333000D01*
X40333000Y-116333000D01*
X40333000Y-116313000D01*
X40587000Y-116313000D01*
X40587000Y-116333000D01*
X40607000Y-116333000D01*
X40607000Y-116587000D01*
X40587000Y-116587000D01*
X40587000Y-116607000D01*
X40333000Y-116607000D01*
X40333000Y-116587000D01*
X39133750Y-116587000D01*
X38975000Y-116745750D01*
X38975000Y-117436310D01*
X39071673Y-117669699D01*
X39250302Y-117848327D01*
X39424777Y-117920597D01*
X39380853Y-117949946D01*
X39058946Y-118431715D01*
X38945907Y-119000000D01*
X39058946Y-119568285D01*
X39380853Y-120050054D01*
X39862622Y-120371961D01*
X40430907Y-120485000D01*
X40489093Y-120485000D01*
X41057378Y-120371961D01*
X41539147Y-120050054D01*
X41730000Y-119764422D01*
X41920853Y-120050054D01*
X42402622Y-120371961D01*
X42970907Y-120485000D01*
X43029093Y-120485000D01*
X43597378Y-120371961D01*
X44079147Y-120050054D01*
X44349694Y-119645150D01*
X46953800Y-119645150D01*
X46953800Y-120860709D01*
X47050473Y-121094098D01*
X47229101Y-121272727D01*
X47462490Y-121369400D01*
X47803050Y-121369400D01*
X47961800Y-121210650D01*
X47961800Y-119486400D01*
X48215800Y-119486400D01*
X48215800Y-121210650D01*
X48374550Y-121369400D01*
X48715110Y-121369400D01*
X48948499Y-121272727D01*
X49127127Y-121094098D01*
X49223800Y-120860709D01*
X49223800Y-119645150D01*
X49065050Y-119486400D01*
X48215800Y-119486400D01*
X47961800Y-119486400D01*
X47112550Y-119486400D01*
X46953800Y-119645150D01*
X44349694Y-119645150D01*
X44401054Y-119568285D01*
X44514093Y-119000000D01*
X44401054Y-118431715D01*
X44079147Y-117949946D01*
X43941677Y-117858091D01*
X46953800Y-117858091D01*
X46953800Y-119073650D01*
X47112550Y-119232400D01*
X47961800Y-119232400D01*
X47961800Y-117508150D01*
X48215800Y-117508150D01*
X48215800Y-119232400D01*
X49065050Y-119232400D01*
X49223800Y-119073650D01*
X49223800Y-117858091D01*
X49127127Y-117624702D01*
X48948499Y-117446073D01*
X48715110Y-117349400D01*
X48374550Y-117349400D01*
X48215800Y-117508150D01*
X47961800Y-117508150D01*
X47803050Y-117349400D01*
X47462490Y-117349400D01*
X47229101Y-117446073D01*
X47050473Y-117624702D01*
X46953800Y-117858091D01*
X43941677Y-117858091D01*
X43749974Y-117730000D01*
X44079147Y-117510054D01*
X44401054Y-117028285D01*
X44514093Y-116460000D01*
X44447076Y-116123082D01*
X45435069Y-115135089D01*
X45571644Y-114930690D01*
X45672182Y-114830327D01*
X45814828Y-114486799D01*
X45815152Y-114114833D01*
X45724382Y-113895150D01*
X46953800Y-113895150D01*
X46953800Y-115110709D01*
X47050473Y-115344098D01*
X47229101Y-115522727D01*
X47462490Y-115619400D01*
X47803050Y-115619400D01*
X47961800Y-115460650D01*
X47961800Y-113736400D01*
X48215800Y-113736400D01*
X48215800Y-115460650D01*
X48374550Y-115619400D01*
X48715110Y-115619400D01*
X48948499Y-115522727D01*
X49127127Y-115344098D01*
X49223800Y-115110709D01*
X49223800Y-113895150D01*
X49065050Y-113736400D01*
X48215800Y-113736400D01*
X47961800Y-113736400D01*
X47112550Y-113736400D01*
X46953800Y-113895150D01*
X45724382Y-113895150D01*
X45673107Y-113771057D01*
X45410317Y-113507808D01*
X45066789Y-113365162D01*
X44745276Y-113364882D01*
X45505089Y-112605069D01*
X45675255Y-112350396D01*
X45723453Y-112108091D01*
X46953800Y-112108091D01*
X46953800Y-113323650D01*
X47112550Y-113482400D01*
X47961800Y-113482400D01*
X47961800Y-111758150D01*
X48215800Y-111758150D01*
X48215800Y-113482400D01*
X49065050Y-113482400D01*
X49223800Y-113323650D01*
X49223800Y-112234400D01*
X50941360Y-112234400D01*
X50941360Y-114984400D01*
X50985638Y-115219717D01*
X51124710Y-115435841D01*
X51303800Y-115558208D01*
X51303800Y-117413208D01*
X51137359Y-117520310D01*
X50992369Y-117732510D01*
X50941360Y-117984400D01*
X50941360Y-120734400D01*
X50985638Y-120969717D01*
X51124710Y-121185841D01*
X51336910Y-121330831D01*
X51588800Y-121381840D01*
X52588800Y-121381840D01*
X52824117Y-121337562D01*
X53040241Y-121198490D01*
X53185231Y-120986290D01*
X53236240Y-120734400D01*
X53236240Y-119716550D01*
X55811800Y-119716550D01*
X55811800Y-120932109D01*
X55908473Y-121165498D01*
X56087101Y-121344127D01*
X56320490Y-121440800D01*
X56661050Y-121440800D01*
X56819800Y-121282050D01*
X56819800Y-119557800D01*
X57073800Y-119557800D01*
X57073800Y-121282050D01*
X57232550Y-121440800D01*
X57573110Y-121440800D01*
X57806499Y-121344127D01*
X57985127Y-121165498D01*
X58081800Y-120932109D01*
X58081800Y-119716550D01*
X57923050Y-119557800D01*
X57073800Y-119557800D01*
X56819800Y-119557800D01*
X55970550Y-119557800D01*
X55811800Y-119716550D01*
X53236240Y-119716550D01*
X53236240Y-117984400D01*
X53225909Y-117929491D01*
X55811800Y-117929491D01*
X55811800Y-119145050D01*
X55970550Y-119303800D01*
X56819800Y-119303800D01*
X56819800Y-117579550D01*
X57073800Y-117579550D01*
X57073800Y-119303800D01*
X57923050Y-119303800D01*
X58081800Y-119145050D01*
X58081800Y-117929491D01*
X57985127Y-117696102D01*
X57806499Y-117517473D01*
X57573110Y-117420800D01*
X57232550Y-117420800D01*
X57073800Y-117579550D01*
X56819800Y-117579550D01*
X56661050Y-117420800D01*
X56320490Y-117420800D01*
X56087101Y-117517473D01*
X55908473Y-117696102D01*
X55811800Y-117929491D01*
X53225909Y-117929491D01*
X53191962Y-117749083D01*
X53052890Y-117532959D01*
X52873800Y-117410592D01*
X52873800Y-115555592D01*
X53040241Y-115448490D01*
X53185231Y-115236290D01*
X53236240Y-114984400D01*
X53236240Y-113966550D01*
X55811800Y-113966550D01*
X55811800Y-115182109D01*
X55908473Y-115415498D01*
X56087101Y-115594127D01*
X56320490Y-115690800D01*
X56661050Y-115690800D01*
X56819800Y-115532050D01*
X56819800Y-113807800D01*
X57073800Y-113807800D01*
X57073800Y-115532050D01*
X57232550Y-115690800D01*
X57573110Y-115690800D01*
X57806499Y-115594127D01*
X57985127Y-115415498D01*
X58081800Y-115182109D01*
X58081800Y-113966550D01*
X57923050Y-113807800D01*
X57073800Y-113807800D01*
X56819800Y-113807800D01*
X55970550Y-113807800D01*
X55811800Y-113966550D01*
X53236240Y-113966550D01*
X53236240Y-112719400D01*
X55811800Y-112719400D01*
X55811800Y-113395050D01*
X55970550Y-113553800D01*
X56819800Y-113553800D01*
X56819800Y-113533800D01*
X57073800Y-113533800D01*
X57073800Y-113553800D01*
X57923050Y-113553800D01*
X58081800Y-113395050D01*
X58081800Y-112344758D01*
X58120758Y-112305800D01*
X59799360Y-112305800D01*
X59799360Y-115055800D01*
X59843638Y-115291117D01*
X59982710Y-115507241D01*
X60161800Y-115629608D01*
X60161800Y-117484608D01*
X59995359Y-117591710D01*
X59850369Y-117803910D01*
X59799360Y-118055800D01*
X59799360Y-120805800D01*
X59843638Y-121041117D01*
X59982710Y-121257241D01*
X60194910Y-121402231D01*
X60446800Y-121453240D01*
X61446800Y-121453240D01*
X61682117Y-121408962D01*
X61898241Y-121269890D01*
X62043231Y-121057690D01*
X62094240Y-120805800D01*
X62094240Y-119513350D01*
X64803400Y-119513350D01*
X64803400Y-120728909D01*
X64900073Y-120962298D01*
X65078701Y-121140927D01*
X65312090Y-121237600D01*
X65652650Y-121237600D01*
X65811400Y-121078850D01*
X65811400Y-119354600D01*
X66065400Y-119354600D01*
X66065400Y-121078850D01*
X66224150Y-121237600D01*
X66564710Y-121237600D01*
X66798099Y-121140927D01*
X66976727Y-120962298D01*
X67073400Y-120728909D01*
X67073400Y-119513350D01*
X66914650Y-119354600D01*
X66065400Y-119354600D01*
X65811400Y-119354600D01*
X64962150Y-119354600D01*
X64803400Y-119513350D01*
X62094240Y-119513350D01*
X62094240Y-118055800D01*
X62049962Y-117820483D01*
X61989352Y-117726291D01*
X64803400Y-117726291D01*
X64803400Y-118941850D01*
X64962150Y-119100600D01*
X65811400Y-119100600D01*
X65811400Y-117376350D01*
X66065400Y-117376350D01*
X66065400Y-119100600D01*
X66914650Y-119100600D01*
X67073400Y-118941850D01*
X67073400Y-117726291D01*
X66976727Y-117492902D01*
X66798099Y-117314273D01*
X66564710Y-117217600D01*
X66224150Y-117217600D01*
X66065400Y-117376350D01*
X65811400Y-117376350D01*
X65652650Y-117217600D01*
X65312090Y-117217600D01*
X65078701Y-117314273D01*
X64900073Y-117492902D01*
X64803400Y-117726291D01*
X61989352Y-117726291D01*
X61910890Y-117604359D01*
X61731800Y-117481992D01*
X61731800Y-115626992D01*
X61898241Y-115519890D01*
X62043231Y-115307690D01*
X62094240Y-115055800D01*
X62094240Y-113763350D01*
X64803400Y-113763350D01*
X64803400Y-114978909D01*
X64900073Y-115212298D01*
X65078701Y-115390927D01*
X65312090Y-115487600D01*
X65652650Y-115487600D01*
X65811400Y-115328850D01*
X65811400Y-113604600D01*
X66065400Y-113604600D01*
X66065400Y-115328850D01*
X66224150Y-115487600D01*
X66564710Y-115487600D01*
X66798099Y-115390927D01*
X66976727Y-115212298D01*
X67073400Y-114978909D01*
X67073400Y-113763350D01*
X66914650Y-113604600D01*
X66065400Y-113604600D01*
X65811400Y-113604600D01*
X64962150Y-113604600D01*
X64803400Y-113763350D01*
X62094240Y-113763350D01*
X62094240Y-112305800D01*
X62049962Y-112070483D01*
X62027375Y-112035383D01*
X62086467Y-111976291D01*
X64803400Y-111976291D01*
X64803400Y-113191850D01*
X64962150Y-113350600D01*
X65811400Y-113350600D01*
X65811400Y-111626350D01*
X66065400Y-111626350D01*
X66065400Y-113350600D01*
X66914650Y-113350600D01*
X67073400Y-113191850D01*
X67073400Y-111976291D01*
X66976727Y-111742902D01*
X66798099Y-111564273D01*
X66564710Y-111467600D01*
X66224150Y-111467600D01*
X66065400Y-111626350D01*
X65811400Y-111626350D01*
X65652650Y-111467600D01*
X65312090Y-111467600D01*
X65078701Y-111564273D01*
X64900073Y-111742902D01*
X64803400Y-111976291D01*
X62086467Y-111976291D01*
X62863958Y-111198800D01*
X65176400Y-111198800D01*
X65476807Y-111139045D01*
X65731479Y-110968879D01*
X67408805Y-109291553D01*
X67418967Y-109291562D01*
X67762743Y-109149517D01*
X68025992Y-108886727D01*
X68168638Y-108543199D01*
X68168962Y-108171233D01*
X68026917Y-107827457D01*
X67764127Y-107564208D01*
X67420599Y-107421562D01*
X67048633Y-107421238D01*
X66704857Y-107563283D01*
X66441608Y-107826073D01*
X66298962Y-108169601D01*
X66298952Y-108181090D01*
X64851242Y-109628800D01*
X62538800Y-109628800D01*
X62238393Y-109688555D01*
X61983721Y-109858721D01*
X60391721Y-111450721D01*
X60225109Y-111700074D01*
X60211483Y-111702638D01*
X59995359Y-111841710D01*
X59850369Y-112053910D01*
X59799360Y-112305800D01*
X58120758Y-112305800D01*
X61185805Y-109240753D01*
X61195967Y-109240762D01*
X61539743Y-109098717D01*
X61802992Y-108835927D01*
X61945638Y-108492399D01*
X61945962Y-108120433D01*
X61803917Y-107776657D01*
X61541127Y-107513408D01*
X61197599Y-107370762D01*
X60825633Y-107370438D01*
X60481857Y-107512483D01*
X60218608Y-107775273D01*
X60075962Y-108118801D01*
X60075952Y-108130290D01*
X57056842Y-111149400D01*
X52888800Y-111149400D01*
X52588394Y-111209155D01*
X52333721Y-111379321D01*
X52126082Y-111586960D01*
X51588800Y-111586960D01*
X51353483Y-111631238D01*
X51137359Y-111770310D01*
X50992369Y-111982510D01*
X50941360Y-112234400D01*
X49223800Y-112234400D01*
X49223800Y-112108091D01*
X49127127Y-111874702D01*
X48948499Y-111696073D01*
X48715110Y-111599400D01*
X48374550Y-111599400D01*
X48215800Y-111758150D01*
X47961800Y-111758150D01*
X47803050Y-111599400D01*
X47462490Y-111599400D01*
X47229101Y-111696073D01*
X47050473Y-111874702D01*
X46953800Y-112108091D01*
X45723453Y-112108091D01*
X45735011Y-112049990D01*
X45735010Y-112049985D01*
X45735010Y-107965010D01*
X45737988Y-107965010D01*
X46038395Y-107905255D01*
X46293067Y-107735089D01*
X46780000Y-107248156D01*
X48786923Y-109255079D01*
X49041596Y-109425245D01*
X49342002Y-109485000D01*
X50082918Y-109485000D01*
X49837808Y-109729683D01*
X49695162Y-110073211D01*
X49694838Y-110445177D01*
X49836883Y-110788953D01*
X50099673Y-111052202D01*
X50443201Y-111194848D01*
X50815167Y-111195172D01*
X51158943Y-111053127D01*
X51422192Y-110790337D01*
X51564838Y-110446809D01*
X51565162Y-110074843D01*
X51423117Y-109731067D01*
X51177479Y-109485000D01*
X54742494Y-109485000D01*
X54749673Y-109492192D01*
X55093201Y-109634838D01*
X55465167Y-109635162D01*
X55808943Y-109493117D01*
X56072192Y-109230327D01*
X56214838Y-108886799D01*
X56215162Y-108514833D01*
X56210941Y-108504617D01*
X56285079Y-108455079D01*
X56745000Y-107995158D01*
X56745000Y-108661956D01*
X56491057Y-108766883D01*
X56227808Y-109029673D01*
X56085162Y-109373201D01*
X56084838Y-109745167D01*
X56226883Y-110088943D01*
X56489673Y-110352192D01*
X56833201Y-110494838D01*
X57205167Y-110495162D01*
X57548943Y-110353117D01*
X57812192Y-110090327D01*
X57954838Y-109746799D01*
X57954848Y-109735310D01*
X58085079Y-109605079D01*
X58255245Y-109350406D01*
X58315000Y-109050000D01*
X58315000Y-107285158D01*
X61476363Y-104123795D01*
X74894716Y-104123795D01*
X75143106Y-104724943D01*
X75602637Y-105185278D01*
X76203352Y-105434716D01*
X76853795Y-105435284D01*
X77454943Y-105186894D01*
X77915278Y-104727363D01*
X78164716Y-104126648D01*
X78165284Y-103476205D01*
X77916894Y-102875057D01*
X77457363Y-102414722D01*
X76856648Y-102165284D01*
X76206205Y-102164716D01*
X75605057Y-102413106D01*
X75144722Y-102872637D01*
X74895284Y-103473352D01*
X74894716Y-104123795D01*
X61476363Y-104123795D01*
X62273988Y-103326170D01*
X62395291Y-103245119D01*
X62445167Y-103245162D01*
X62788943Y-103103117D01*
X63052192Y-102840327D01*
X63194838Y-102496799D01*
X63195162Y-102124833D01*
X63053117Y-101781057D01*
X62790327Y-101517808D01*
X62446799Y-101375162D01*
X62074833Y-101374838D01*
X61776469Y-101498119D01*
X61457172Y-101365535D01*
X61085206Y-101365211D01*
X60741430Y-101507256D01*
X60478181Y-101770046D01*
X60335535Y-102113574D01*
X60335473Y-102184369D01*
X57816417Y-104703425D01*
X57629527Y-104516208D01*
X57285999Y-104373562D01*
X57274510Y-104373552D01*
X55647679Y-102746721D01*
X55393007Y-102576555D01*
X55092600Y-102516800D01*
X53420306Y-102516800D01*
X53413127Y-102509608D01*
X53069599Y-102366962D01*
X52697633Y-102366638D01*
X52353857Y-102508683D01*
X52090608Y-102771473D01*
X52034574Y-102906418D01*
X50764999Y-101636843D01*
X50764999Y-90385159D01*
X51335005Y-89815153D01*
X51345167Y-89815162D01*
X51688943Y-89673117D01*
X51697074Y-89665000D01*
X68754600Y-89665000D01*
X69043201Y-89784838D01*
X69415167Y-89785162D01*
X69758943Y-89643117D01*
X70022192Y-89380327D01*
X70153058Y-89065167D01*
X73134838Y-89065167D01*
X73276883Y-89408943D01*
X73539673Y-89672192D01*
X73883201Y-89814838D01*
X74255167Y-89815162D01*
X74598943Y-89673117D01*
X74862192Y-89410327D01*
X75004838Y-89066799D01*
X75005162Y-88694833D01*
X74863117Y-88351057D01*
X74600327Y-88087808D01*
X74256799Y-87945162D01*
X73884833Y-87944838D01*
X73541057Y-88086883D01*
X73277808Y-88349673D01*
X73135162Y-88693201D01*
X73134838Y-89065167D01*
X70153058Y-89065167D01*
X70164838Y-89036799D01*
X70165162Y-88664833D01*
X70023117Y-88321057D01*
X69760327Y-88057808D01*
X69416799Y-87915162D01*
X69044833Y-87914838D01*
X68701057Y-88056883D01*
X68662873Y-88095000D01*
X51697506Y-88095000D01*
X51690327Y-88087808D01*
X51346799Y-87945162D01*
X50974833Y-87944838D01*
X50631057Y-88086883D01*
X50367808Y-88349673D01*
X50225162Y-88693201D01*
X50225152Y-88704690D01*
X49424920Y-89504922D01*
X49254754Y-89759594D01*
X49254754Y-89759595D01*
X49194999Y-90060001D01*
X49194999Y-101962001D01*
X49254754Y-102262408D01*
X49424920Y-102517080D01*
X49775067Y-102867227D01*
X49601418Y-102795121D01*
X49229452Y-102794797D01*
X48885676Y-102936842D01*
X48622427Y-103199632D01*
X48479781Y-103543160D01*
X48479631Y-103715012D01*
X44673602Y-103715012D01*
X44666423Y-103707820D01*
X44322895Y-103565174D01*
X43950929Y-103564850D01*
X43607153Y-103706895D01*
X43599022Y-103715012D01*
X42549986Y-103715012D01*
X42249579Y-103774767D01*
X41994907Y-103944933D01*
X38704920Y-107234920D01*
X38534754Y-107489592D01*
X38534754Y-107489593D01*
X38474999Y-107789999D01*
X37772520Y-107789999D01*
X37659681Y-104028710D01*
X37659303Y-104027070D01*
X37659574Y-104025411D01*
X37310000Y-93937704D01*
X37310000Y-92824285D01*
X37644760Y-92824285D01*
X37686217Y-92924618D01*
X37645241Y-93023298D01*
X37644760Y-93574285D01*
X37645196Y-93575339D01*
X37644760Y-94074285D01*
X37686217Y-94174618D01*
X37645241Y-94273298D01*
X37644760Y-94824285D01*
X37645196Y-94825339D01*
X37644760Y-95324285D01*
X37855169Y-95833515D01*
X38244436Y-96223461D01*
X38753298Y-96434759D01*
X39304285Y-96435240D01*
X39482560Y-96361578D01*
X39482560Y-97060000D01*
X39526838Y-97295317D01*
X39633759Y-97461477D01*
X39533569Y-97608110D01*
X39482560Y-97860000D01*
X39482560Y-98660000D01*
X39526838Y-98895317D01*
X39665910Y-99111441D01*
X39878110Y-99256431D01*
X40130000Y-99307440D01*
X40930000Y-99307440D01*
X41165317Y-99263162D01*
X41381441Y-99124090D01*
X41526431Y-98911890D01*
X41577440Y-98660000D01*
X41577440Y-97860000D01*
X41533162Y-97624683D01*
X41426241Y-97458523D01*
X41526431Y-97311890D01*
X41577440Y-97060000D01*
X41577440Y-96260000D01*
X41533162Y-96024683D01*
X41394090Y-95808559D01*
X41181890Y-95663569D01*
X40930000Y-95612560D01*
X40296060Y-95612560D01*
X40414759Y-95326702D01*
X40415240Y-94775715D01*
X40414804Y-94774661D01*
X40415240Y-94275715D01*
X40373783Y-94175382D01*
X40414759Y-94076702D01*
X40415240Y-93525715D01*
X40414804Y-93524661D01*
X40415240Y-93025715D01*
X40373783Y-92925382D01*
X40414759Y-92826702D01*
X40415240Y-92275715D01*
X40204831Y-91766485D01*
X40203516Y-91765167D01*
X43104838Y-91765167D01*
X43246883Y-92108943D01*
X43509673Y-92372192D01*
X43853201Y-92514838D01*
X44225167Y-92515162D01*
X44568943Y-92373117D01*
X44832192Y-92110327D01*
X44974838Y-91766799D01*
X44975162Y-91394833D01*
X44833117Y-91051057D01*
X44570327Y-90787808D01*
X44226799Y-90645162D01*
X43854833Y-90644838D01*
X43511057Y-90786883D01*
X43247808Y-91049673D01*
X43105162Y-91393201D01*
X43104838Y-91765167D01*
X40203516Y-91765167D01*
X39815564Y-91376539D01*
X39306702Y-91165241D01*
X38755715Y-91164760D01*
X38246485Y-91375169D01*
X37856539Y-91764436D01*
X37645241Y-92273298D01*
X37644760Y-92824285D01*
X37310000Y-92824285D01*
X37310000Y-90959247D01*
X37514515Y-83100000D01*
X39492560Y-83100000D01*
X39492560Y-83900000D01*
X39536838Y-84135317D01*
X39643759Y-84301477D01*
X39543569Y-84448110D01*
X39492560Y-84700000D01*
X39492560Y-85500000D01*
X39536838Y-85735317D01*
X39675910Y-85951441D01*
X39888110Y-86096431D01*
X40140000Y-86147440D01*
X40940000Y-86147440D01*
X41175317Y-86103162D01*
X41391441Y-85964090D01*
X41536431Y-85751890D01*
X41587440Y-85500000D01*
X41587440Y-84700000D01*
X41543162Y-84464683D01*
X41436241Y-84298523D01*
X41536431Y-84151890D01*
X41587440Y-83900000D01*
X41587440Y-83429099D01*
X41598167Y-83375167D01*
X43084838Y-83375167D01*
X43226883Y-83718943D01*
X43489673Y-83982192D01*
X43833201Y-84124838D01*
X44205167Y-84125162D01*
X44548943Y-83983117D01*
X44812192Y-83720327D01*
X44943058Y-83405167D01*
X73094838Y-83405167D01*
X73236883Y-83748943D01*
X73499673Y-84012192D01*
X73691821Y-84091979D01*
X75324921Y-85725079D01*
X75579593Y-85895245D01*
X75880000Y-85955000D01*
X77123156Y-85955000D01*
X77165910Y-86021441D01*
X77378110Y-86166431D01*
X77630000Y-86217440D01*
X78430000Y-86217440D01*
X78665317Y-86173162D01*
X78881441Y-86034090D01*
X79026431Y-85821890D01*
X79077440Y-85570000D01*
X79077440Y-84770000D01*
X79033162Y-84534683D01*
X78926241Y-84368523D01*
X79026431Y-84221890D01*
X79077440Y-83970000D01*
X79077440Y-83170000D01*
X79033162Y-82934683D01*
X78894090Y-82718559D01*
X78681890Y-82573569D01*
X78430000Y-82522560D01*
X77630000Y-82522560D01*
X77394683Y-82566838D01*
X77178559Y-82705910D01*
X77033569Y-82918110D01*
X76982560Y-83170000D01*
X76982560Y-83970000D01*
X77026838Y-84205317D01*
X77133759Y-84371477D01*
X77124519Y-84385000D01*
X76205158Y-84385000D01*
X74965066Y-83144908D01*
X74965162Y-83034833D01*
X74823117Y-82691057D01*
X74560327Y-82427808D01*
X74216799Y-82285162D01*
X73844833Y-82284838D01*
X73501057Y-82426883D01*
X73237808Y-82689673D01*
X73095162Y-83033201D01*
X73094838Y-83405167D01*
X44943058Y-83405167D01*
X44954838Y-83376799D01*
X44955162Y-83004833D01*
X44813117Y-82661057D01*
X44550327Y-82397808D01*
X44206799Y-82255162D01*
X43834833Y-82254838D01*
X43491057Y-82396883D01*
X43227808Y-82659673D01*
X43085162Y-83003201D01*
X43084838Y-83375167D01*
X41598167Y-83375167D01*
X41635000Y-83190000D01*
X41575245Y-82889594D01*
X41405079Y-82634921D01*
X41150406Y-82464755D01*
X40850000Y-82405000D01*
X40610901Y-82452560D01*
X40140000Y-82452560D01*
X39904683Y-82496838D01*
X39688559Y-82635910D01*
X39543569Y-82848110D01*
X39492560Y-83100000D01*
X37514515Y-83100000D01*
X37567205Y-81075167D01*
X51364838Y-81075167D01*
X51506883Y-81418943D01*
X51769673Y-81682192D01*
X52113201Y-81824838D01*
X52485167Y-81825162D01*
X52828943Y-81683117D01*
X53092192Y-81420327D01*
X53234838Y-81076799D01*
X53234848Y-81065310D01*
X56835079Y-77465079D01*
X57005245Y-77210407D01*
X57065000Y-76910000D01*
X57065000Y-75947440D01*
X57580000Y-75947440D01*
X57788850Y-75908142D01*
X57853691Y-75935000D01*
X57994250Y-75935000D01*
X58153000Y-75776250D01*
X58153000Y-75586182D01*
X58176431Y-75551890D01*
X58227440Y-75300000D01*
X58227440Y-72300000D01*
X58332560Y-72300000D01*
X58332560Y-75300000D01*
X58376838Y-75535317D01*
X58407000Y-75582190D01*
X58407000Y-75776250D01*
X58478037Y-75847287D01*
X58355162Y-76143201D01*
X58354838Y-76515167D01*
X58496883Y-76858943D01*
X58759673Y-77122192D01*
X59103201Y-77264838D01*
X59475167Y-77265162D01*
X59802422Y-77129943D01*
X60103201Y-77254838D01*
X60475167Y-77255162D01*
X60773268Y-77131990D01*
X61093201Y-77264838D01*
X61465167Y-77265162D01*
X61792422Y-77129943D01*
X62093201Y-77254838D01*
X62465167Y-77255162D01*
X62808943Y-77113117D01*
X63072192Y-76850327D01*
X63214838Y-76506799D01*
X63215162Y-76134833D01*
X63092144Y-75837106D01*
X63153000Y-75776250D01*
X63153000Y-75586182D01*
X63176431Y-75551890D01*
X63227440Y-75300000D01*
X63227440Y-73927000D01*
X63407000Y-73927000D01*
X63407000Y-75776250D01*
X63565750Y-75935000D01*
X63706309Y-75935000D01*
X63939698Y-75838327D01*
X64118327Y-75659699D01*
X64215000Y-75426310D01*
X64215000Y-74085750D01*
X64056250Y-73927000D01*
X63407000Y-73927000D01*
X63227440Y-73927000D01*
X63227440Y-72300000D01*
X63183162Y-72064683D01*
X63153000Y-72017810D01*
X63153000Y-71823750D01*
X63407000Y-71823750D01*
X63407000Y-73673000D01*
X64056250Y-73673000D01*
X64215000Y-73514250D01*
X64215000Y-72173690D01*
X64118327Y-71940301D01*
X63939698Y-71761673D01*
X63706309Y-71665000D01*
X63565750Y-71665000D01*
X63407000Y-71823750D01*
X63153000Y-71823750D01*
X62994250Y-71665000D01*
X62853691Y-71665000D01*
X62783993Y-71693870D01*
X62580000Y-71652560D01*
X61980000Y-71652560D01*
X61772658Y-71691574D01*
X61580000Y-71652560D01*
X60980000Y-71652560D01*
X60772658Y-71691574D01*
X60580000Y-71652560D01*
X59980000Y-71652560D01*
X59772658Y-71691574D01*
X59580000Y-71652560D01*
X58980000Y-71652560D01*
X58771150Y-71691858D01*
X58706309Y-71665000D01*
X58565750Y-71665000D01*
X58407000Y-71823750D01*
X58407000Y-72013818D01*
X58383569Y-72048110D01*
X58332560Y-72300000D01*
X58227440Y-72300000D01*
X58183162Y-72064683D01*
X58153000Y-72017810D01*
X58153000Y-71823750D01*
X58065000Y-71735750D01*
X58065000Y-71257506D01*
X58072192Y-71250327D01*
X58214838Y-70906799D01*
X58215162Y-70534833D01*
X58073117Y-70191057D01*
X57810327Y-69927808D01*
X57466799Y-69785162D01*
X57094833Y-69784838D01*
X56751057Y-69926883D01*
X56487808Y-70189673D01*
X56345162Y-70533201D01*
X56344838Y-70905167D01*
X56486883Y-71248943D01*
X56495000Y-71257074D01*
X56495000Y-71652560D01*
X55980000Y-71652560D01*
X55772658Y-71691574D01*
X55580000Y-71652560D01*
X54980000Y-71652560D01*
X54744683Y-71696838D01*
X54528559Y-71835910D01*
X54383569Y-72048110D01*
X54332560Y-72300000D01*
X54332560Y-75300000D01*
X54376838Y-75535317D01*
X54495000Y-75718946D01*
X54495000Y-75802511D01*
X54477808Y-75819673D01*
X54335162Y-76163201D01*
X54334838Y-76535167D01*
X54476883Y-76878943D01*
X54739673Y-77142192D01*
X54879563Y-77200279D01*
X52124995Y-79954847D01*
X52114833Y-79954838D01*
X51771057Y-80096883D01*
X51507808Y-80359673D01*
X51365162Y-80703201D01*
X51364838Y-81075167D01*
X37567205Y-81075167D01*
X37657018Y-77623795D01*
X40394716Y-77623795D01*
X40643106Y-78224943D01*
X41102637Y-78685278D01*
X41703352Y-78934716D01*
X42353795Y-78935284D01*
X42954943Y-78686894D01*
X43415278Y-78227363D01*
X43664716Y-77626648D01*
X43665284Y-76976205D01*
X43416894Y-76375057D01*
X42957363Y-75914722D01*
X42356648Y-75665284D01*
X41706205Y-75664716D01*
X41105057Y-75913106D01*
X40644722Y-76372637D01*
X40395284Y-76973352D01*
X40394716Y-77623795D01*
X37657018Y-77623795D01*
X37659522Y-77527605D01*
X37759283Y-75601453D01*
X37855169Y-75833515D01*
X38244436Y-76223461D01*
X38753298Y-76434759D01*
X39304285Y-76435240D01*
X39813515Y-76224831D01*
X40203461Y-75835564D01*
X40414759Y-75326702D01*
X40415240Y-74775715D01*
X40414804Y-74774661D01*
X40415240Y-74275715D01*
X40373783Y-74175382D01*
X40414759Y-74076702D01*
X40415240Y-73525715D01*
X40373783Y-73425382D01*
X40414759Y-73326702D01*
X40415240Y-72775715D01*
X40414804Y-72774661D01*
X40415240Y-72275715D01*
X40204831Y-71766485D01*
X39815564Y-71376539D01*
X39306702Y-71165241D01*
X38755715Y-71164760D01*
X38246485Y-71375169D01*
X37963546Y-71657616D01*
X38165146Y-67765167D01*
X43044838Y-67765167D01*
X43186883Y-68108943D01*
X43449673Y-68372192D01*
X43793201Y-68514838D01*
X44165167Y-68515162D01*
X44508943Y-68373117D01*
X44772192Y-68110327D01*
X44914838Y-67766799D01*
X44914839Y-67765167D01*
X73644838Y-67765167D01*
X73786883Y-68108943D01*
X74049673Y-68372192D01*
X74393201Y-68514838D01*
X74765167Y-68515162D01*
X75108943Y-68373117D01*
X75372192Y-68110327D01*
X75514838Y-67766799D01*
X75515162Y-67394833D01*
X75373117Y-67051057D01*
X75110327Y-66787808D01*
X74766799Y-66645162D01*
X74394833Y-66644838D01*
X74051057Y-66786883D01*
X73787808Y-67049673D01*
X73645162Y-67393201D01*
X73644838Y-67765167D01*
X44914839Y-67765167D01*
X44915162Y-67394833D01*
X44773117Y-67051057D01*
X44510327Y-66787808D01*
X44166799Y-66645162D01*
X43794833Y-66644838D01*
X43451057Y-66786883D01*
X43187808Y-67049673D01*
X43045162Y-67393201D01*
X43044838Y-67765167D01*
X38165146Y-67765167D01*
X38308305Y-65001107D01*
X38805354Y-59632982D01*
X39549259Y-54425641D01*
X40585483Y-49650000D01*
X56333112Y-49650000D01*
X56608431Y-51034123D01*
X57392474Y-52207526D01*
X58565877Y-52991569D01*
X59950000Y-53266888D01*
X61334123Y-52991569D01*
X62507526Y-52207526D01*
X63291569Y-51034123D01*
X63361039Y-50684873D01*
X67264812Y-50684873D01*
X67429646Y-51083800D01*
X67734595Y-51389282D01*
X68133233Y-51554811D01*
X68564873Y-51555188D01*
X68963800Y-51390354D01*
X69269282Y-51085405D01*
X69434811Y-50686767D01*
X69434812Y-50684873D01*
X70264812Y-50684873D01*
X70429646Y-51083800D01*
X70734595Y-51389282D01*
X71133233Y-51554811D01*
X71564873Y-51555188D01*
X71963800Y-51390354D01*
X72269282Y-51085405D01*
X72434811Y-50686767D01*
X72435188Y-50255127D01*
X72270354Y-49856200D01*
X71965405Y-49550718D01*
X71566767Y-49385189D01*
X71135127Y-49384812D01*
X70736200Y-49549646D01*
X70430718Y-49854595D01*
X70265189Y-50253233D01*
X70264812Y-50684873D01*
X69434812Y-50684873D01*
X69435188Y-50255127D01*
X69270354Y-49856200D01*
X68965405Y-49550718D01*
X68566767Y-49385189D01*
X68135127Y-49384812D01*
X67736200Y-49549646D01*
X67430718Y-49854595D01*
X67265189Y-50253233D01*
X67264812Y-50684873D01*
X63361039Y-50684873D01*
X63566888Y-49650000D01*
X63291569Y-48265877D01*
X62507526Y-47092474D01*
X61334123Y-46308431D01*
X59950000Y-46033112D01*
X58565877Y-46308431D01*
X57392474Y-47092474D01*
X56608431Y-48265877D01*
X56333112Y-49650000D01*
X40585483Y-49650000D01*
X40673723Y-49243331D01*
X41229433Y-48174659D01*
X42004659Y-47399433D01*
X43149979Y-46620615D01*
X44257454Y-46113023D01*
X45578830Y-45688294D01*
X47003693Y-45403322D01*
X52694489Y-44858985D01*
X57660657Y-44710000D01*
X62578286Y-44710000D01*
X67444321Y-45007921D01*
X67444321Y-45007921D01*
G37*
X67444321Y-45007921D02*
X72561283Y-45499936D01*
X74702773Y-46151694D01*
X77025573Y-47609138D01*
X78229743Y-49660686D01*
X78650464Y-51624050D01*
X79643016Y-58671172D01*
X80091309Y-66043096D01*
X80391275Y-71042524D01*
X80391503Y-71043396D01*
X80391383Y-71044289D01*
X80418600Y-71479754D01*
X80315564Y-71376539D01*
X79806702Y-71165241D01*
X79255715Y-71164760D01*
X78746485Y-71375169D01*
X78356539Y-71764436D01*
X78145241Y-72273298D01*
X78144760Y-72824285D01*
X78145196Y-72825339D01*
X78144760Y-73324285D01*
X78186217Y-73424618D01*
X78145241Y-73523298D01*
X78144760Y-74074285D01*
X78145196Y-74075339D01*
X78144760Y-74574285D01*
X78186217Y-74674618D01*
X78145241Y-74773298D01*
X78144760Y-75324285D01*
X78355169Y-75833515D01*
X78744436Y-76223461D01*
X79253298Y-76434759D01*
X79804285Y-76435240D01*
X80313515Y-76224831D01*
X80674030Y-75864944D01*
X80839806Y-80009361D01*
X80690121Y-90986306D01*
X80671452Y-91733048D01*
X80315564Y-91376539D01*
X79806702Y-91165241D01*
X79255715Y-91164760D01*
X78746485Y-91375169D01*
X78356539Y-91764436D01*
X78145241Y-92273298D01*
X78144760Y-92824285D01*
X78145196Y-92825339D01*
X78144760Y-93324285D01*
X78186217Y-93424618D01*
X78145241Y-93523298D01*
X78145126Y-93654968D01*
X75525079Y-91034921D01*
X75270407Y-90864755D01*
X74970000Y-90805000D01*
X74557506Y-90805000D01*
X74550327Y-90797808D01*
X74206799Y-90655162D01*
X73834833Y-90654838D01*
X73491057Y-90796883D01*
X73227808Y-91059673D01*
X73085162Y-91403201D01*
X73084838Y-91775167D01*
X73226883Y-92118943D01*
X73489673Y-92382192D01*
X73833201Y-92524838D01*
X74205167Y-92525162D01*
X74548943Y-92383117D01*
X74557074Y-92375000D01*
X74644842Y-92375000D01*
X77195000Y-94925158D01*
X77195000Y-95633156D01*
X77128559Y-95675910D01*
X76983569Y-95888110D01*
X76932560Y-96140000D01*
X76932560Y-96940000D01*
X76976838Y-97175317D01*
X77083759Y-97341477D01*
X76983569Y-97488110D01*
X76932560Y-97740000D01*
X76932560Y-98540000D01*
X76976838Y-98775317D01*
X77115910Y-98991441D01*
X77328110Y-99136431D01*
X77580000Y-99187440D01*
X78380000Y-99187440D01*
X78615317Y-99143162D01*
X78831441Y-99004090D01*
X78976431Y-98791890D01*
X79027440Y-98540000D01*
X79027440Y-98472780D01*
X79054838Y-98406799D01*
X79055162Y-98034833D01*
X79027440Y-97967740D01*
X79027440Y-97740000D01*
X78983162Y-97504683D01*
X78876241Y-97338523D01*
X78976431Y-97191890D01*
X79027440Y-96940000D01*
X79027440Y-96340975D01*
X79253298Y-96434759D01*
X79804285Y-96435240D01*
X80313515Y-96224831D01*
X80556407Y-95982362D01*
X80340405Y-102376027D01*
X80340715Y-102377919D01*
X80340288Y-102379787D01*
X79890319Y-118178708D01*
X79690895Y-124460543D01*
X77399705Y-153249843D01*
X77235061Y-153710847D01*
X75600615Y-155345293D01*
X74714225Y-155921446D01*
X73781956Y-156320990D01*
X71387004Y-156847880D01*
X68053507Y-157191034D01*
X61042283Y-157389934D01*
X53534556Y-157340214D01*
X47564011Y-156797437D01*
X45966565Y-156421567D01*
X44746698Y-155924585D01*
X43954006Y-155352085D01*
X43084135Y-154527997D01*
X42452842Y-153671242D01*
X41164836Y-151238345D01*
X40845563Y-150052474D01*
X40604235Y-148507969D01*
X40407144Y-146635606D01*
X39508354Y-134951327D01*
X39058705Y-127517135D01*
X39057045Y-127510813D01*
X39058305Y-127500963D01*
X38640789Y-121470167D01*
X67568638Y-121470167D01*
X67710683Y-121813943D01*
X67973473Y-122077192D01*
X68317001Y-122219838D01*
X68328490Y-122219848D01*
X70030542Y-123921900D01*
X69905762Y-124222401D01*
X69905438Y-124594367D01*
X70047483Y-124938143D01*
X70310273Y-125201392D01*
X70653801Y-125344038D01*
X71025767Y-125344362D01*
X71369543Y-125202317D01*
X71632792Y-124939527D01*
X71775438Y-124595999D01*
X71775762Y-124224033D01*
X71633717Y-123880257D01*
X71625600Y-123872126D01*
X71625600Y-123621800D01*
X71624463Y-123616083D01*
X71565845Y-123321393D01*
X71395679Y-123066721D01*
X69578998Y-121250040D01*
X70438400Y-121250040D01*
X70673717Y-121205762D01*
X70889841Y-121066690D01*
X71034831Y-120854490D01*
X71085840Y-120602600D01*
X71085840Y-117852600D01*
X71041562Y-117617283D01*
X70902490Y-117401159D01*
X70723400Y-117278792D01*
X70723400Y-115544600D01*
X72120507Y-115544600D01*
X72233546Y-116112885D01*
X72555453Y-116594654D01*
X72884626Y-116814600D01*
X72555453Y-117034546D01*
X72233546Y-117516315D01*
X72120507Y-118084600D01*
X72233546Y-118652885D01*
X72555453Y-119134654D01*
X72884626Y-119354600D01*
X72555453Y-119574546D01*
X72233546Y-120056315D01*
X72120507Y-120624600D01*
X72233546Y-121192885D01*
X72555453Y-121674654D01*
X72884626Y-121894600D01*
X72555453Y-122114546D01*
X72233546Y-122596315D01*
X72120507Y-123164600D01*
X72233546Y-123732885D01*
X72555453Y-124214654D01*
X72884626Y-124434600D01*
X72555453Y-124654546D01*
X72233546Y-125136315D01*
X72120507Y-125704600D01*
X72233546Y-126272885D01*
X72555453Y-126754654D01*
X72884626Y-126974600D01*
X72555453Y-127194546D01*
X72233546Y-127676315D01*
X72120507Y-128244600D01*
X72233546Y-128812885D01*
X72555453Y-129294654D01*
X72884626Y-129514600D01*
X72555453Y-129734546D01*
X72233546Y-130216315D01*
X72120507Y-130784600D01*
X72233546Y-131352885D01*
X72555453Y-131834654D01*
X72597052Y-131862450D01*
X72549283Y-131871438D01*
X72333159Y-132010510D01*
X72188169Y-132222710D01*
X72137160Y-132474600D01*
X72137160Y-134174600D01*
X72181438Y-134409917D01*
X72320510Y-134626041D01*
X72532710Y-134771031D01*
X72784600Y-134822040D01*
X74484600Y-134822040D01*
X74719917Y-134777762D01*
X74936041Y-134638690D01*
X75081031Y-134426490D01*
X75132040Y-134174600D01*
X75132040Y-132474600D01*
X75087762Y-132239283D01*
X74948690Y-132023159D01*
X74736490Y-131878169D01*
X74669059Y-131864514D01*
X74713747Y-131834654D01*
X75035654Y-131352885D01*
X75148693Y-130784600D01*
X75035654Y-130216315D01*
X74713747Y-129734546D01*
X74384574Y-129514600D01*
X74713747Y-129294654D01*
X75035654Y-128812885D01*
X75148693Y-128244600D01*
X75035654Y-127676315D01*
X74713747Y-127194546D01*
X74384574Y-126974600D01*
X74713747Y-126754654D01*
X75035654Y-126272885D01*
X75148693Y-125704600D01*
X75035654Y-125136315D01*
X74713747Y-124654546D01*
X74384574Y-124434600D01*
X74713747Y-124214654D01*
X75035654Y-123732885D01*
X75148693Y-123164600D01*
X75035654Y-122596315D01*
X74713747Y-122114546D01*
X74384574Y-121894600D01*
X74713747Y-121674654D01*
X75035654Y-121192885D01*
X75148693Y-120624600D01*
X75035654Y-120056315D01*
X74713747Y-119574546D01*
X74384574Y-119354600D01*
X74713747Y-119134654D01*
X75035654Y-118652885D01*
X75148693Y-118084600D01*
X75035654Y-117516315D01*
X74713747Y-117034546D01*
X74384574Y-116814600D01*
X74713747Y-116594654D01*
X75035654Y-116112885D01*
X75148693Y-115544600D01*
X75035654Y-114976315D01*
X74713747Y-114494546D01*
X74231978Y-114172639D01*
X73663693Y-114059600D01*
X73605507Y-114059600D01*
X73037222Y-114172639D01*
X72555453Y-114494546D01*
X72233546Y-114976315D01*
X72120507Y-115544600D01*
X70723400Y-115544600D01*
X70723400Y-115423792D01*
X70889841Y-115316690D01*
X71034831Y-115104490D01*
X71085840Y-114852600D01*
X71085840Y-112102600D01*
X71041562Y-111867283D01*
X70902490Y-111651159D01*
X70723400Y-111528792D01*
X70723400Y-108889314D01*
X70725992Y-108886727D01*
X70868638Y-108543199D01*
X70868962Y-108171233D01*
X70726917Y-107827457D01*
X70464127Y-107564208D01*
X70120599Y-107421562D01*
X69748633Y-107421238D01*
X69404857Y-107563283D01*
X69141608Y-107826073D01*
X68998962Y-108169601D01*
X68998638Y-108541567D01*
X69140683Y-108885343D01*
X69153400Y-108898082D01*
X69153400Y-111531408D01*
X68986959Y-111638510D01*
X68841969Y-111850710D01*
X68790960Y-112102600D01*
X68790960Y-114852600D01*
X68835238Y-115087917D01*
X68974310Y-115304041D01*
X69153400Y-115426408D01*
X69153400Y-117281408D01*
X68986959Y-117388510D01*
X68841969Y-117600710D01*
X68790960Y-117852600D01*
X68790960Y-120391836D01*
X68690599Y-120350162D01*
X68318633Y-120349838D01*
X67974857Y-120491883D01*
X67711608Y-120754673D01*
X67568962Y-121098201D01*
X67568638Y-121470167D01*
X38640789Y-121470167D01*
X38608305Y-121000964D01*
X38608097Y-121000200D01*
X38608196Y-120999414D01*
X38108479Y-114003377D01*
X37809363Y-109018110D01*
X37772520Y-107789999D01*
X38474999Y-107789999D01*
X38474999Y-110259999D01*
X38534754Y-110560406D01*
X38704920Y-110815078D01*
X39012924Y-111123082D01*
X38945907Y-111460000D01*
X39058946Y-112028285D01*
X39380853Y-112510054D01*
X39710026Y-112730000D01*
X39380853Y-112949946D01*
X39058946Y-113431715D01*
X38945907Y-114000000D01*
X39058946Y-114568285D01*
X39363867Y-115024633D01*
X39250302Y-115071673D01*
X39071673Y-115250301D01*
X38975000Y-115483690D01*
X38975000Y-116174250D01*
X39133750Y-116333000D01*
X40333000Y-116333000D01*
X40333000Y-116313000D01*
X40587000Y-116313000D01*
X40587000Y-116333000D01*
X40607000Y-116333000D01*
X40607000Y-116587000D01*
X40587000Y-116587000D01*
X40587000Y-116607000D01*
X40333000Y-116607000D01*
X40333000Y-116587000D01*
X39133750Y-116587000D01*
X38975000Y-116745750D01*
X38975000Y-117436310D01*
X39071673Y-117669699D01*
X39250302Y-117848327D01*
X39424777Y-117920597D01*
X39380853Y-117949946D01*
X39058946Y-118431715D01*
X38945907Y-119000000D01*
X39058946Y-119568285D01*
X39380853Y-120050054D01*
X39862622Y-120371961D01*
X40430907Y-120485000D01*
X40489093Y-120485000D01*
X41057378Y-120371961D01*
X41539147Y-120050054D01*
X41730000Y-119764422D01*
X41920853Y-120050054D01*
X42402622Y-120371961D01*
X42970907Y-120485000D01*
X43029093Y-120485000D01*
X43597378Y-120371961D01*
X44079147Y-120050054D01*
X44349694Y-119645150D01*
X46953800Y-119645150D01*
X46953800Y-120860709D01*
X47050473Y-121094098D01*
X47229101Y-121272727D01*
X47462490Y-121369400D01*
X47803050Y-121369400D01*
X47961800Y-121210650D01*
X47961800Y-119486400D01*
X48215800Y-119486400D01*
X48215800Y-121210650D01*
X48374550Y-121369400D01*
X48715110Y-121369400D01*
X48948499Y-121272727D01*
X49127127Y-121094098D01*
X49223800Y-120860709D01*
X49223800Y-119645150D01*
X49065050Y-119486400D01*
X48215800Y-119486400D01*
X47961800Y-119486400D01*
X47112550Y-119486400D01*
X46953800Y-119645150D01*
X44349694Y-119645150D01*
X44401054Y-119568285D01*
X44514093Y-119000000D01*
X44401054Y-118431715D01*
X44079147Y-117949946D01*
X43941677Y-117858091D01*
X46953800Y-117858091D01*
X46953800Y-119073650D01*
X47112550Y-119232400D01*
X47961800Y-119232400D01*
X47961800Y-117508150D01*
X48215800Y-117508150D01*
X48215800Y-119232400D01*
X49065050Y-119232400D01*
X49223800Y-119073650D01*
X49223800Y-117858091D01*
X49127127Y-117624702D01*
X48948499Y-117446073D01*
X48715110Y-117349400D01*
X48374550Y-117349400D01*
X48215800Y-117508150D01*
X47961800Y-117508150D01*
X47803050Y-117349400D01*
X47462490Y-117349400D01*
X47229101Y-117446073D01*
X47050473Y-117624702D01*
X46953800Y-117858091D01*
X43941677Y-117858091D01*
X43749974Y-117730000D01*
X44079147Y-117510054D01*
X44401054Y-117028285D01*
X44514093Y-116460000D01*
X44447076Y-116123082D01*
X45435069Y-115135089D01*
X45571644Y-114930690D01*
X45672182Y-114830327D01*
X45814828Y-114486799D01*
X45815152Y-114114833D01*
X45724382Y-113895150D01*
X46953800Y-113895150D01*
X46953800Y-115110709D01*
X47050473Y-115344098D01*
X47229101Y-115522727D01*
X47462490Y-115619400D01*
X47803050Y-115619400D01*
X47961800Y-115460650D01*
X47961800Y-113736400D01*
X48215800Y-113736400D01*
X48215800Y-115460650D01*
X48374550Y-115619400D01*
X48715110Y-115619400D01*
X48948499Y-115522727D01*
X49127127Y-115344098D01*
X49223800Y-115110709D01*
X49223800Y-113895150D01*
X49065050Y-113736400D01*
X48215800Y-113736400D01*
X47961800Y-113736400D01*
X47112550Y-113736400D01*
X46953800Y-113895150D01*
X45724382Y-113895150D01*
X45673107Y-113771057D01*
X45410317Y-113507808D01*
X45066789Y-113365162D01*
X44745276Y-113364882D01*
X45505089Y-112605069D01*
X45675255Y-112350396D01*
X45723453Y-112108091D01*
X46953800Y-112108091D01*
X46953800Y-113323650D01*
X47112550Y-113482400D01*
X47961800Y-113482400D01*
X47961800Y-111758150D01*
X48215800Y-111758150D01*
X48215800Y-113482400D01*
X49065050Y-113482400D01*
X49223800Y-113323650D01*
X49223800Y-112234400D01*
X50941360Y-112234400D01*
X50941360Y-114984400D01*
X50985638Y-115219717D01*
X51124710Y-115435841D01*
X51303800Y-115558208D01*
X51303800Y-117413208D01*
X51137359Y-117520310D01*
X50992369Y-117732510D01*
X50941360Y-117984400D01*
X50941360Y-120734400D01*
X50985638Y-120969717D01*
X51124710Y-121185841D01*
X51336910Y-121330831D01*
X51588800Y-121381840D01*
X52588800Y-121381840D01*
X52824117Y-121337562D01*
X53040241Y-121198490D01*
X53185231Y-120986290D01*
X53236240Y-120734400D01*
X53236240Y-119716550D01*
X55811800Y-119716550D01*
X55811800Y-120932109D01*
X55908473Y-121165498D01*
X56087101Y-121344127D01*
X56320490Y-121440800D01*
X56661050Y-121440800D01*
X56819800Y-121282050D01*
X56819800Y-119557800D01*
X57073800Y-119557800D01*
X57073800Y-121282050D01*
X57232550Y-121440800D01*
X57573110Y-121440800D01*
X57806499Y-121344127D01*
X57985127Y-121165498D01*
X58081800Y-120932109D01*
X58081800Y-119716550D01*
X57923050Y-119557800D01*
X57073800Y-119557800D01*
X56819800Y-119557800D01*
X55970550Y-119557800D01*
X55811800Y-119716550D01*
X53236240Y-119716550D01*
X53236240Y-117984400D01*
X53225909Y-117929491D01*
X55811800Y-117929491D01*
X55811800Y-119145050D01*
X55970550Y-119303800D01*
X56819800Y-119303800D01*
X56819800Y-117579550D01*
X57073800Y-117579550D01*
X57073800Y-119303800D01*
X57923050Y-119303800D01*
X58081800Y-119145050D01*
X58081800Y-117929491D01*
X57985127Y-117696102D01*
X57806499Y-117517473D01*
X57573110Y-117420800D01*
X57232550Y-117420800D01*
X57073800Y-117579550D01*
X56819800Y-117579550D01*
X56661050Y-117420800D01*
X56320490Y-117420800D01*
X56087101Y-117517473D01*
X55908473Y-117696102D01*
X55811800Y-117929491D01*
X53225909Y-117929491D01*
X53191962Y-117749083D01*
X53052890Y-117532959D01*
X52873800Y-117410592D01*
X52873800Y-115555592D01*
X53040241Y-115448490D01*
X53185231Y-115236290D01*
X53236240Y-114984400D01*
X53236240Y-113966550D01*
X55811800Y-113966550D01*
X55811800Y-115182109D01*
X55908473Y-115415498D01*
X56087101Y-115594127D01*
X56320490Y-115690800D01*
X56661050Y-115690800D01*
X56819800Y-115532050D01*
X56819800Y-113807800D01*
X57073800Y-113807800D01*
X57073800Y-115532050D01*
X57232550Y-115690800D01*
X57573110Y-115690800D01*
X57806499Y-115594127D01*
X57985127Y-115415498D01*
X58081800Y-115182109D01*
X58081800Y-113966550D01*
X57923050Y-113807800D01*
X57073800Y-113807800D01*
X56819800Y-113807800D01*
X55970550Y-113807800D01*
X55811800Y-113966550D01*
X53236240Y-113966550D01*
X53236240Y-112719400D01*
X55811800Y-112719400D01*
X55811800Y-113395050D01*
X55970550Y-113553800D01*
X56819800Y-113553800D01*
X56819800Y-113533800D01*
X57073800Y-113533800D01*
X57073800Y-113553800D01*
X57923050Y-113553800D01*
X58081800Y-113395050D01*
X58081800Y-112344758D01*
X58120758Y-112305800D01*
X59799360Y-112305800D01*
X59799360Y-115055800D01*
X59843638Y-115291117D01*
X59982710Y-115507241D01*
X60161800Y-115629608D01*
X60161800Y-117484608D01*
X59995359Y-117591710D01*
X59850369Y-117803910D01*
X59799360Y-118055800D01*
X59799360Y-120805800D01*
X59843638Y-121041117D01*
X59982710Y-121257241D01*
X60194910Y-121402231D01*
X60446800Y-121453240D01*
X61446800Y-121453240D01*
X61682117Y-121408962D01*
X61898241Y-121269890D01*
X62043231Y-121057690D01*
X62094240Y-120805800D01*
X62094240Y-119513350D01*
X64803400Y-119513350D01*
X64803400Y-120728909D01*
X64900073Y-120962298D01*
X65078701Y-121140927D01*
X65312090Y-121237600D01*
X65652650Y-121237600D01*
X65811400Y-121078850D01*
X65811400Y-119354600D01*
X66065400Y-119354600D01*
X66065400Y-121078850D01*
X66224150Y-121237600D01*
X66564710Y-121237600D01*
X66798099Y-121140927D01*
X66976727Y-120962298D01*
X67073400Y-120728909D01*
X67073400Y-119513350D01*
X66914650Y-119354600D01*
X66065400Y-119354600D01*
X65811400Y-119354600D01*
X64962150Y-119354600D01*
X64803400Y-119513350D01*
X62094240Y-119513350D01*
X62094240Y-118055800D01*
X62049962Y-117820483D01*
X61989352Y-117726291D01*
X64803400Y-117726291D01*
X64803400Y-118941850D01*
X64962150Y-119100600D01*
X65811400Y-119100600D01*
X65811400Y-117376350D01*
X66065400Y-117376350D01*
X66065400Y-119100600D01*
X66914650Y-119100600D01*
X67073400Y-118941850D01*
X67073400Y-117726291D01*
X66976727Y-117492902D01*
X66798099Y-117314273D01*
X66564710Y-117217600D01*
X66224150Y-117217600D01*
X66065400Y-117376350D01*
X65811400Y-117376350D01*
X65652650Y-117217600D01*
X65312090Y-117217600D01*
X65078701Y-117314273D01*
X64900073Y-117492902D01*
X64803400Y-117726291D01*
X61989352Y-117726291D01*
X61910890Y-117604359D01*
X61731800Y-117481992D01*
X61731800Y-115626992D01*
X61898241Y-115519890D01*
X62043231Y-115307690D01*
X62094240Y-115055800D01*
X62094240Y-113763350D01*
X64803400Y-113763350D01*
X64803400Y-114978909D01*
X64900073Y-115212298D01*
X65078701Y-115390927D01*
X65312090Y-115487600D01*
X65652650Y-115487600D01*
X65811400Y-115328850D01*
X65811400Y-113604600D01*
X66065400Y-113604600D01*
X66065400Y-115328850D01*
X66224150Y-115487600D01*
X66564710Y-115487600D01*
X66798099Y-115390927D01*
X66976727Y-115212298D01*
X67073400Y-114978909D01*
X67073400Y-113763350D01*
X66914650Y-113604600D01*
X66065400Y-113604600D01*
X65811400Y-113604600D01*
X64962150Y-113604600D01*
X64803400Y-113763350D01*
X62094240Y-113763350D01*
X62094240Y-112305800D01*
X62049962Y-112070483D01*
X62027375Y-112035383D01*
X62086467Y-111976291D01*
X64803400Y-111976291D01*
X64803400Y-113191850D01*
X64962150Y-113350600D01*
X65811400Y-113350600D01*
X65811400Y-111626350D01*
X66065400Y-111626350D01*
X66065400Y-113350600D01*
X66914650Y-113350600D01*
X67073400Y-113191850D01*
X67073400Y-111976291D01*
X66976727Y-111742902D01*
X66798099Y-111564273D01*
X66564710Y-111467600D01*
X66224150Y-111467600D01*
X66065400Y-111626350D01*
X65811400Y-111626350D01*
X65652650Y-111467600D01*
X65312090Y-111467600D01*
X65078701Y-111564273D01*
X64900073Y-111742902D01*
X64803400Y-111976291D01*
X62086467Y-111976291D01*
X62863958Y-111198800D01*
X65176400Y-111198800D01*
X65476807Y-111139045D01*
X65731479Y-110968879D01*
X67408805Y-109291553D01*
X67418967Y-109291562D01*
X67762743Y-109149517D01*
X68025992Y-108886727D01*
X68168638Y-108543199D01*
X68168962Y-108171233D01*
X68026917Y-107827457D01*
X67764127Y-107564208D01*
X67420599Y-107421562D01*
X67048633Y-107421238D01*
X66704857Y-107563283D01*
X66441608Y-107826073D01*
X66298962Y-108169601D01*
X66298952Y-108181090D01*
X64851242Y-109628800D01*
X62538800Y-109628800D01*
X62238393Y-109688555D01*
X61983721Y-109858721D01*
X60391721Y-111450721D01*
X60225109Y-111700074D01*
X60211483Y-111702638D01*
X59995359Y-111841710D01*
X59850369Y-112053910D01*
X59799360Y-112305800D01*
X58120758Y-112305800D01*
X61185805Y-109240753D01*
X61195967Y-109240762D01*
X61539743Y-109098717D01*
X61802992Y-108835927D01*
X61945638Y-108492399D01*
X61945962Y-108120433D01*
X61803917Y-107776657D01*
X61541127Y-107513408D01*
X61197599Y-107370762D01*
X60825633Y-107370438D01*
X60481857Y-107512483D01*
X60218608Y-107775273D01*
X60075962Y-108118801D01*
X60075952Y-108130290D01*
X57056842Y-111149400D01*
X52888800Y-111149400D01*
X52588394Y-111209155D01*
X52333721Y-111379321D01*
X52126082Y-111586960D01*
X51588800Y-111586960D01*
X51353483Y-111631238D01*
X51137359Y-111770310D01*
X50992369Y-111982510D01*
X50941360Y-112234400D01*
X49223800Y-112234400D01*
X49223800Y-112108091D01*
X49127127Y-111874702D01*
X48948499Y-111696073D01*
X48715110Y-111599400D01*
X48374550Y-111599400D01*
X48215800Y-111758150D01*
X47961800Y-111758150D01*
X47803050Y-111599400D01*
X47462490Y-111599400D01*
X47229101Y-111696073D01*
X47050473Y-111874702D01*
X46953800Y-112108091D01*
X45723453Y-112108091D01*
X45735011Y-112049990D01*
X45735010Y-112049985D01*
X45735010Y-107965010D01*
X45737988Y-107965010D01*
X46038395Y-107905255D01*
X46293067Y-107735089D01*
X46780000Y-107248156D01*
X48786923Y-109255079D01*
X49041596Y-109425245D01*
X49342002Y-109485000D01*
X50082918Y-109485000D01*
X49837808Y-109729683D01*
X49695162Y-110073211D01*
X49694838Y-110445177D01*
X49836883Y-110788953D01*
X50099673Y-111052202D01*
X50443201Y-111194848D01*
X50815167Y-111195172D01*
X51158943Y-111053127D01*
X51422192Y-110790337D01*
X51564838Y-110446809D01*
X51565162Y-110074843D01*
X51423117Y-109731067D01*
X51177479Y-109485000D01*
X54742494Y-109485000D01*
X54749673Y-109492192D01*
X55093201Y-109634838D01*
X55465167Y-109635162D01*
X55808943Y-109493117D01*
X56072192Y-109230327D01*
X56214838Y-108886799D01*
X56215162Y-108514833D01*
X56210941Y-108504617D01*
X56285079Y-108455079D01*
X56745000Y-107995158D01*
X56745000Y-108661956D01*
X56491057Y-108766883D01*
X56227808Y-109029673D01*
X56085162Y-109373201D01*
X56084838Y-109745167D01*
X56226883Y-110088943D01*
X56489673Y-110352192D01*
X56833201Y-110494838D01*
X57205167Y-110495162D01*
X57548943Y-110353117D01*
X57812192Y-110090327D01*
X57954838Y-109746799D01*
X57954848Y-109735310D01*
X58085079Y-109605079D01*
X58255245Y-109350406D01*
X58315000Y-109050000D01*
X58315000Y-107285158D01*
X61476363Y-104123795D01*
X74894716Y-104123795D01*
X75143106Y-104724943D01*
X75602637Y-105185278D01*
X76203352Y-105434716D01*
X76853795Y-105435284D01*
X77454943Y-105186894D01*
X77915278Y-104727363D01*
X78164716Y-104126648D01*
X78165284Y-103476205D01*
X77916894Y-102875057D01*
X77457363Y-102414722D01*
X76856648Y-102165284D01*
X76206205Y-102164716D01*
X75605057Y-102413106D01*
X75144722Y-102872637D01*
X74895284Y-103473352D01*
X74894716Y-104123795D01*
X61476363Y-104123795D01*
X62273988Y-103326170D01*
X62395291Y-103245119D01*
X62445167Y-103245162D01*
X62788943Y-103103117D01*
X63052192Y-102840327D01*
X63194838Y-102496799D01*
X63195162Y-102124833D01*
X63053117Y-101781057D01*
X62790327Y-101517808D01*
X62446799Y-101375162D01*
X62074833Y-101374838D01*
X61776469Y-101498119D01*
X61457172Y-101365535D01*
X61085206Y-101365211D01*
X60741430Y-101507256D01*
X60478181Y-101770046D01*
X60335535Y-102113574D01*
X60335473Y-102184369D01*
X57816417Y-104703425D01*
X57629527Y-104516208D01*
X57285999Y-104373562D01*
X57274510Y-104373552D01*
X55647679Y-102746721D01*
X55393007Y-102576555D01*
X55092600Y-102516800D01*
X53420306Y-102516800D01*
X53413127Y-102509608D01*
X53069599Y-102366962D01*
X52697633Y-102366638D01*
X52353857Y-102508683D01*
X52090608Y-102771473D01*
X52034574Y-102906418D01*
X50764999Y-101636843D01*
X50764999Y-90385159D01*
X51335005Y-89815153D01*
X51345167Y-89815162D01*
X51688943Y-89673117D01*
X51697074Y-89665000D01*
X68754600Y-89665000D01*
X69043201Y-89784838D01*
X69415167Y-89785162D01*
X69758943Y-89643117D01*
X70022192Y-89380327D01*
X70153058Y-89065167D01*
X73134838Y-89065167D01*
X73276883Y-89408943D01*
X73539673Y-89672192D01*
X73883201Y-89814838D01*
X74255167Y-89815162D01*
X74598943Y-89673117D01*
X74862192Y-89410327D01*
X75004838Y-89066799D01*
X75005162Y-88694833D01*
X74863117Y-88351057D01*
X74600327Y-88087808D01*
X74256799Y-87945162D01*
X73884833Y-87944838D01*
X73541057Y-88086883D01*
X73277808Y-88349673D01*
X73135162Y-88693201D01*
X73134838Y-89065167D01*
X70153058Y-89065167D01*
X70164838Y-89036799D01*
X70165162Y-88664833D01*
X70023117Y-88321057D01*
X69760327Y-88057808D01*
X69416799Y-87915162D01*
X69044833Y-87914838D01*
X68701057Y-88056883D01*
X68662873Y-88095000D01*
X51697506Y-88095000D01*
X51690327Y-88087808D01*
X51346799Y-87945162D01*
X50974833Y-87944838D01*
X50631057Y-88086883D01*
X50367808Y-88349673D01*
X50225162Y-88693201D01*
X50225152Y-88704690D01*
X49424920Y-89504922D01*
X49254754Y-89759594D01*
X49254754Y-89759595D01*
X49194999Y-90060001D01*
X49194999Y-101962001D01*
X49254754Y-102262408D01*
X49424920Y-102517080D01*
X49775067Y-102867227D01*
X49601418Y-102795121D01*
X49229452Y-102794797D01*
X48885676Y-102936842D01*
X48622427Y-103199632D01*
X48479781Y-103543160D01*
X48479631Y-103715012D01*
X44673602Y-103715012D01*
X44666423Y-103707820D01*
X44322895Y-103565174D01*
X43950929Y-103564850D01*
X43607153Y-103706895D01*
X43599022Y-103715012D01*
X42549986Y-103715012D01*
X42249579Y-103774767D01*
X41994907Y-103944933D01*
X38704920Y-107234920D01*
X38534754Y-107489592D01*
X38534754Y-107489593D01*
X38474999Y-107789999D01*
X37772520Y-107789999D01*
X37659681Y-104028710D01*
X37659303Y-104027070D01*
X37659574Y-104025411D01*
X37310000Y-93937704D01*
X37310000Y-92824285D01*
X37644760Y-92824285D01*
X37686217Y-92924618D01*
X37645241Y-93023298D01*
X37644760Y-93574285D01*
X37645196Y-93575339D01*
X37644760Y-94074285D01*
X37686217Y-94174618D01*
X37645241Y-94273298D01*
X37644760Y-94824285D01*
X37645196Y-94825339D01*
X37644760Y-95324285D01*
X37855169Y-95833515D01*
X38244436Y-96223461D01*
X38753298Y-96434759D01*
X39304285Y-96435240D01*
X39482560Y-96361578D01*
X39482560Y-97060000D01*
X39526838Y-97295317D01*
X39633759Y-97461477D01*
X39533569Y-97608110D01*
X39482560Y-97860000D01*
X39482560Y-98660000D01*
X39526838Y-98895317D01*
X39665910Y-99111441D01*
X39878110Y-99256431D01*
X40130000Y-99307440D01*
X40930000Y-99307440D01*
X41165317Y-99263162D01*
X41381441Y-99124090D01*
X41526431Y-98911890D01*
X41577440Y-98660000D01*
X41577440Y-97860000D01*
X41533162Y-97624683D01*
X41426241Y-97458523D01*
X41526431Y-97311890D01*
X41577440Y-97060000D01*
X41577440Y-96260000D01*
X41533162Y-96024683D01*
X41394090Y-95808559D01*
X41181890Y-95663569D01*
X40930000Y-95612560D01*
X40296060Y-95612560D01*
X40414759Y-95326702D01*
X40415240Y-94775715D01*
X40414804Y-94774661D01*
X40415240Y-94275715D01*
X40373783Y-94175382D01*
X40414759Y-94076702D01*
X40415240Y-93525715D01*
X40414804Y-93524661D01*
X40415240Y-93025715D01*
X40373783Y-92925382D01*
X40414759Y-92826702D01*
X40415240Y-92275715D01*
X40204831Y-91766485D01*
X40203516Y-91765167D01*
X43104838Y-91765167D01*
X43246883Y-92108943D01*
X43509673Y-92372192D01*
X43853201Y-92514838D01*
X44225167Y-92515162D01*
X44568943Y-92373117D01*
X44832192Y-92110327D01*
X44974838Y-91766799D01*
X44975162Y-91394833D01*
X44833117Y-91051057D01*
X44570327Y-90787808D01*
X44226799Y-90645162D01*
X43854833Y-90644838D01*
X43511057Y-90786883D01*
X43247808Y-91049673D01*
X43105162Y-91393201D01*
X43104838Y-91765167D01*
X40203516Y-91765167D01*
X39815564Y-91376539D01*
X39306702Y-91165241D01*
X38755715Y-91164760D01*
X38246485Y-91375169D01*
X37856539Y-91764436D01*
X37645241Y-92273298D01*
X37644760Y-92824285D01*
X37310000Y-92824285D01*
X37310000Y-90959247D01*
X37514515Y-83100000D01*
X39492560Y-83100000D01*
X39492560Y-83900000D01*
X39536838Y-84135317D01*
X39643759Y-84301477D01*
X39543569Y-84448110D01*
X39492560Y-84700000D01*
X39492560Y-85500000D01*
X39536838Y-85735317D01*
X39675910Y-85951441D01*
X39888110Y-86096431D01*
X40140000Y-86147440D01*
X40940000Y-86147440D01*
X41175317Y-86103162D01*
X41391441Y-85964090D01*
X41536431Y-85751890D01*
X41587440Y-85500000D01*
X41587440Y-84700000D01*
X41543162Y-84464683D01*
X41436241Y-84298523D01*
X41536431Y-84151890D01*
X41587440Y-83900000D01*
X41587440Y-83429099D01*
X41598167Y-83375167D01*
X43084838Y-83375167D01*
X43226883Y-83718943D01*
X43489673Y-83982192D01*
X43833201Y-84124838D01*
X44205167Y-84125162D01*
X44548943Y-83983117D01*
X44812192Y-83720327D01*
X44943058Y-83405167D01*
X73094838Y-83405167D01*
X73236883Y-83748943D01*
X73499673Y-84012192D01*
X73691821Y-84091979D01*
X75324921Y-85725079D01*
X75579593Y-85895245D01*
X75880000Y-85955000D01*
X77123156Y-85955000D01*
X77165910Y-86021441D01*
X77378110Y-86166431D01*
X77630000Y-86217440D01*
X78430000Y-86217440D01*
X78665317Y-86173162D01*
X78881441Y-86034090D01*
X79026431Y-85821890D01*
X79077440Y-85570000D01*
X79077440Y-84770000D01*
X79033162Y-84534683D01*
X78926241Y-84368523D01*
X79026431Y-84221890D01*
X79077440Y-83970000D01*
X79077440Y-83170000D01*
X79033162Y-82934683D01*
X78894090Y-82718559D01*
X78681890Y-82573569D01*
X78430000Y-82522560D01*
X77630000Y-82522560D01*
X77394683Y-82566838D01*
X77178559Y-82705910D01*
X77033569Y-82918110D01*
X76982560Y-83170000D01*
X76982560Y-83970000D01*
X77026838Y-84205317D01*
X77133759Y-84371477D01*
X77124519Y-84385000D01*
X76205158Y-84385000D01*
X74965066Y-83144908D01*
X74965162Y-83034833D01*
X74823117Y-82691057D01*
X74560327Y-82427808D01*
X74216799Y-82285162D01*
X73844833Y-82284838D01*
X73501057Y-82426883D01*
X73237808Y-82689673D01*
X73095162Y-83033201D01*
X73094838Y-83405167D01*
X44943058Y-83405167D01*
X44954838Y-83376799D01*
X44955162Y-83004833D01*
X44813117Y-82661057D01*
X44550327Y-82397808D01*
X44206799Y-82255162D01*
X43834833Y-82254838D01*
X43491057Y-82396883D01*
X43227808Y-82659673D01*
X43085162Y-83003201D01*
X43084838Y-83375167D01*
X41598167Y-83375167D01*
X41635000Y-83190000D01*
X41575245Y-82889594D01*
X41405079Y-82634921D01*
X41150406Y-82464755D01*
X40850000Y-82405000D01*
X40610901Y-82452560D01*
X40140000Y-82452560D01*
X39904683Y-82496838D01*
X39688559Y-82635910D01*
X39543569Y-82848110D01*
X39492560Y-83100000D01*
X37514515Y-83100000D01*
X37567205Y-81075167D01*
X51364838Y-81075167D01*
X51506883Y-81418943D01*
X51769673Y-81682192D01*
X52113201Y-81824838D01*
X52485167Y-81825162D01*
X52828943Y-81683117D01*
X53092192Y-81420327D01*
X53234838Y-81076799D01*
X53234848Y-81065310D01*
X56835079Y-77465079D01*
X57005245Y-77210407D01*
X57065000Y-76910000D01*
X57065000Y-75947440D01*
X57580000Y-75947440D01*
X57788850Y-75908142D01*
X57853691Y-75935000D01*
X57994250Y-75935000D01*
X58153000Y-75776250D01*
X58153000Y-75586182D01*
X58176431Y-75551890D01*
X58227440Y-75300000D01*
X58227440Y-72300000D01*
X58332560Y-72300000D01*
X58332560Y-75300000D01*
X58376838Y-75535317D01*
X58407000Y-75582190D01*
X58407000Y-75776250D01*
X58478037Y-75847287D01*
X58355162Y-76143201D01*
X58354838Y-76515167D01*
X58496883Y-76858943D01*
X58759673Y-77122192D01*
X59103201Y-77264838D01*
X59475167Y-77265162D01*
X59802422Y-77129943D01*
X60103201Y-77254838D01*
X60475167Y-77255162D01*
X60773268Y-77131990D01*
X61093201Y-77264838D01*
X61465167Y-77265162D01*
X61792422Y-77129943D01*
X62093201Y-77254838D01*
X62465167Y-77255162D01*
X62808943Y-77113117D01*
X63072192Y-76850327D01*
X63214838Y-76506799D01*
X63215162Y-76134833D01*
X63092144Y-75837106D01*
X63153000Y-75776250D01*
X63153000Y-75586182D01*
X63176431Y-75551890D01*
X63227440Y-75300000D01*
X63227440Y-73927000D01*
X63407000Y-73927000D01*
X63407000Y-75776250D01*
X63565750Y-75935000D01*
X63706309Y-75935000D01*
X63939698Y-75838327D01*
X64118327Y-75659699D01*
X64215000Y-75426310D01*
X64215000Y-74085750D01*
X64056250Y-73927000D01*
X63407000Y-73927000D01*
X63227440Y-73927000D01*
X63227440Y-72300000D01*
X63183162Y-72064683D01*
X63153000Y-72017810D01*
X63153000Y-71823750D01*
X63407000Y-71823750D01*
X63407000Y-73673000D01*
X64056250Y-73673000D01*
X64215000Y-73514250D01*
X64215000Y-72173690D01*
X64118327Y-71940301D01*
X63939698Y-71761673D01*
X63706309Y-71665000D01*
X63565750Y-71665000D01*
X63407000Y-71823750D01*
X63153000Y-71823750D01*
X62994250Y-71665000D01*
X62853691Y-71665000D01*
X62783993Y-71693870D01*
X62580000Y-71652560D01*
X61980000Y-71652560D01*
X61772658Y-71691574D01*
X61580000Y-71652560D01*
X60980000Y-71652560D01*
X60772658Y-71691574D01*
X60580000Y-71652560D01*
X59980000Y-71652560D01*
X59772658Y-71691574D01*
X59580000Y-71652560D01*
X58980000Y-71652560D01*
X58771150Y-71691858D01*
X58706309Y-71665000D01*
X58565750Y-71665000D01*
X58407000Y-71823750D01*
X58407000Y-72013818D01*
X58383569Y-72048110D01*
X58332560Y-72300000D01*
X58227440Y-72300000D01*
X58183162Y-72064683D01*
X58153000Y-72017810D01*
X58153000Y-71823750D01*
X58065000Y-71735750D01*
X58065000Y-71257506D01*
X58072192Y-71250327D01*
X58214838Y-70906799D01*
X58215162Y-70534833D01*
X58073117Y-70191057D01*
X57810327Y-69927808D01*
X57466799Y-69785162D01*
X57094833Y-69784838D01*
X56751057Y-69926883D01*
X56487808Y-70189673D01*
X56345162Y-70533201D01*
X56344838Y-70905167D01*
X56486883Y-71248943D01*
X56495000Y-71257074D01*
X56495000Y-71652560D01*
X55980000Y-71652560D01*
X55772658Y-71691574D01*
X55580000Y-71652560D01*
X54980000Y-71652560D01*
X54744683Y-71696838D01*
X54528559Y-71835910D01*
X54383569Y-72048110D01*
X54332560Y-72300000D01*
X54332560Y-75300000D01*
X54376838Y-75535317D01*
X54495000Y-75718946D01*
X54495000Y-75802511D01*
X54477808Y-75819673D01*
X54335162Y-76163201D01*
X54334838Y-76535167D01*
X54476883Y-76878943D01*
X54739673Y-77142192D01*
X54879563Y-77200279D01*
X52124995Y-79954847D01*
X52114833Y-79954838D01*
X51771057Y-80096883D01*
X51507808Y-80359673D01*
X51365162Y-80703201D01*
X51364838Y-81075167D01*
X37567205Y-81075167D01*
X37657018Y-77623795D01*
X40394716Y-77623795D01*
X40643106Y-78224943D01*
X41102637Y-78685278D01*
X41703352Y-78934716D01*
X42353795Y-78935284D01*
X42954943Y-78686894D01*
X43415278Y-78227363D01*
X43664716Y-77626648D01*
X43665284Y-76976205D01*
X43416894Y-76375057D01*
X42957363Y-75914722D01*
X42356648Y-75665284D01*
X41706205Y-75664716D01*
X41105057Y-75913106D01*
X40644722Y-76372637D01*
X40395284Y-76973352D01*
X40394716Y-77623795D01*
X37657018Y-77623795D01*
X37659522Y-77527605D01*
X37759283Y-75601453D01*
X37855169Y-75833515D01*
X38244436Y-76223461D01*
X38753298Y-76434759D01*
X39304285Y-76435240D01*
X39813515Y-76224831D01*
X40203461Y-75835564D01*
X40414759Y-75326702D01*
X40415240Y-74775715D01*
X40414804Y-74774661D01*
X40415240Y-74275715D01*
X40373783Y-74175382D01*
X40414759Y-74076702D01*
X40415240Y-73525715D01*
X40373783Y-73425382D01*
X40414759Y-73326702D01*
X40415240Y-72775715D01*
X40414804Y-72774661D01*
X40415240Y-72275715D01*
X40204831Y-71766485D01*
X39815564Y-71376539D01*
X39306702Y-71165241D01*
X38755715Y-71164760D01*
X38246485Y-71375169D01*
X37963546Y-71657616D01*
X38165146Y-67765167D01*
X43044838Y-67765167D01*
X43186883Y-68108943D01*
X43449673Y-68372192D01*
X43793201Y-68514838D01*
X44165167Y-68515162D01*
X44508943Y-68373117D01*
X44772192Y-68110327D01*
X44914838Y-67766799D01*
X44914839Y-67765167D01*
X73644838Y-67765167D01*
X73786883Y-68108943D01*
X74049673Y-68372192D01*
X74393201Y-68514838D01*
X74765167Y-68515162D01*
X75108943Y-68373117D01*
X75372192Y-68110327D01*
X75514838Y-67766799D01*
X75515162Y-67394833D01*
X75373117Y-67051057D01*
X75110327Y-66787808D01*
X74766799Y-66645162D01*
X74394833Y-66644838D01*
X74051057Y-66786883D01*
X73787808Y-67049673D01*
X73645162Y-67393201D01*
X73644838Y-67765167D01*
X44914839Y-67765167D01*
X44915162Y-67394833D01*
X44773117Y-67051057D01*
X44510327Y-66787808D01*
X44166799Y-66645162D01*
X43794833Y-66644838D01*
X43451057Y-66786883D01*
X43187808Y-67049673D01*
X43045162Y-67393201D01*
X43044838Y-67765167D01*
X38165146Y-67765167D01*
X38308305Y-65001107D01*
X38805354Y-59632982D01*
X39549259Y-54425641D01*
X40585483Y-49650000D01*
X56333112Y-49650000D01*
X56608431Y-51034123D01*
X57392474Y-52207526D01*
X58565877Y-52991569D01*
X59950000Y-53266888D01*
X61334123Y-52991569D01*
X62507526Y-52207526D01*
X63291569Y-51034123D01*
X63361039Y-50684873D01*
X67264812Y-50684873D01*
X67429646Y-51083800D01*
X67734595Y-51389282D01*
X68133233Y-51554811D01*
X68564873Y-51555188D01*
X68963800Y-51390354D01*
X69269282Y-51085405D01*
X69434811Y-50686767D01*
X69434812Y-50684873D01*
X70264812Y-50684873D01*
X70429646Y-51083800D01*
X70734595Y-51389282D01*
X71133233Y-51554811D01*
X71564873Y-51555188D01*
X71963800Y-51390354D01*
X72269282Y-51085405D01*
X72434811Y-50686767D01*
X72435188Y-50255127D01*
X72270354Y-49856200D01*
X71965405Y-49550718D01*
X71566767Y-49385189D01*
X71135127Y-49384812D01*
X70736200Y-49549646D01*
X70430718Y-49854595D01*
X70265189Y-50253233D01*
X70264812Y-50684873D01*
X69434812Y-50684873D01*
X69435188Y-50255127D01*
X69270354Y-49856200D01*
X68965405Y-49550718D01*
X68566767Y-49385189D01*
X68135127Y-49384812D01*
X67736200Y-49549646D01*
X67430718Y-49854595D01*
X67265189Y-50253233D01*
X67264812Y-50684873D01*
X63361039Y-50684873D01*
X63566888Y-49650000D01*
X63291569Y-48265877D01*
X62507526Y-47092474D01*
X61334123Y-46308431D01*
X59950000Y-46033112D01*
X58565877Y-46308431D01*
X57392474Y-47092474D01*
X56608431Y-48265877D01*
X56333112Y-49650000D01*
X40585483Y-49650000D01*
X40673723Y-49243331D01*
X41229433Y-48174659D01*
X42004659Y-47399433D01*
X43149979Y-46620615D01*
X44257454Y-46113023D01*
X45578830Y-45688294D01*
X47003693Y-45403322D01*
X52694489Y-44858985D01*
X57660657Y-44710000D01*
X62578286Y-44710000D01*
X67444321Y-45007921D01*
M02*
