G04 #@! TF.FileFunction,Copper,L1,Top,Signal*
%FSLAX46Y46*%
G04 Gerber Fmt 4.6, Leading zero omitted, Abs format (unit mm)*
G04 Created by KiCad (PCBNEW 4.0.7) date Mon Aug 20 13:26:01 2018*
%MOMM*%
%LPD*%
G01*
G04 APERTURE LIST*
%ADD10C,0.100000*%
%ADD11R,1.700000X1.700000*%
%ADD12O,1.700000X1.700000*%
%ADD13R,1.300000X1.500000*%
%ADD14C,2.000000*%
%ADD15R,0.600000X3.000000*%
%ADD16R,0.500000X2.000000*%
%ADD17R,0.500000X1.000000*%
%ADD18C,0.600000*%
%ADD19C,1.000000*%
%ADD20C,0.300000*%
%ADD21C,0.254000*%
G04 APERTURE END LIST*
D10*
G36*
X74680000Y-118820000D02*
X54680000Y-118820000D01*
X54680000Y-120820000D01*
X74680000Y-120820000D01*
X74680000Y-118820000D01*
X74680000Y-118820000D01*
G37*
G36*
X74680000Y-112820000D02*
X54680000Y-112820000D01*
X54680000Y-113820000D01*
X74680000Y-113820000D01*
X74680000Y-112820000D01*
X74680000Y-112820000D01*
G37*
G36*
X74680000Y-113820000D02*
X73680000Y-113820000D01*
X73680000Y-118820000D01*
X74680000Y-118820000D01*
X74680000Y-113820000D01*
X74680000Y-113820000D01*
G37*
G36*
X74680000Y-120820000D02*
X73680000Y-120820000D01*
X73680000Y-124820000D01*
X74680000Y-124820000D01*
X74680000Y-120820000D01*
X74680000Y-120820000D01*
G37*
G36*
X74680000Y-124820000D02*
X63680000Y-124820000D01*
X63680000Y-125820000D01*
X74680000Y-125820000D01*
X74680000Y-124820000D01*
X74680000Y-124820000D01*
G37*
G36*
X63680000Y-124820000D02*
X62680000Y-124820000D01*
X62680000Y-130820000D01*
X63680000Y-130820000D01*
X63680000Y-124820000D01*
X63680000Y-124820000D01*
G37*
G36*
X74680000Y-129820000D02*
X63680000Y-129820000D01*
X63680000Y-130820000D01*
X74680000Y-130820000D01*
X74680000Y-129820000D01*
X74680000Y-129820000D01*
G37*
G36*
X74680000Y-130820000D02*
X73680000Y-130820000D01*
X73680000Y-134820000D01*
X74680000Y-134820000D01*
X74680000Y-130820000D01*
X74680000Y-130820000D01*
G37*
G36*
X74680000Y-134820000D02*
X63680000Y-134820000D01*
X63680000Y-135820000D01*
X74680000Y-135820000D01*
X74680000Y-134820000D01*
X74680000Y-134820000D01*
G37*
G36*
X63680000Y-134820000D02*
X62680000Y-134820000D01*
X62680000Y-140820000D01*
X63680000Y-140820000D01*
X63680000Y-134820000D01*
X63680000Y-134820000D01*
G37*
G36*
X74680000Y-139820000D02*
X63680000Y-139820000D01*
X63680000Y-140820000D01*
X74680000Y-140820000D01*
X74680000Y-139820000D01*
X74680000Y-139820000D01*
G37*
G36*
X74680000Y-140820000D02*
X73680000Y-140820000D01*
X73680000Y-144820000D01*
X74680000Y-144820000D01*
X74680000Y-140820000D01*
X74680000Y-140820000D01*
G37*
G36*
X74680000Y-144820000D02*
X63680000Y-144820000D01*
X63680000Y-145820000D01*
X74680000Y-145820000D01*
X74680000Y-144820000D01*
X74680000Y-144820000D01*
G37*
G36*
X63680000Y-144820000D02*
X62680000Y-144820000D01*
X62680000Y-150820000D01*
X63680000Y-150820000D01*
X63680000Y-144820000D01*
X63680000Y-144820000D01*
G37*
G36*
X74680000Y-149820000D02*
X63680000Y-149820000D01*
X63680000Y-150820000D01*
X74680000Y-150820000D01*
X74680000Y-149820000D01*
X74680000Y-149820000D01*
G37*
G36*
X74680000Y-150820000D02*
X73680000Y-150820000D01*
X73680000Y-154820000D01*
X74680000Y-154820000D01*
X74680000Y-150820000D01*
X74680000Y-150820000D01*
G37*
G36*
X74680000Y-154820000D02*
X65680000Y-154820000D01*
X65680000Y-155820000D01*
X74680000Y-155820000D01*
X74680000Y-154820000D01*
X74680000Y-154820000D01*
G37*
D11*
X40460000Y-108920000D03*
D12*
X43000000Y-108920000D03*
X40460000Y-111460000D03*
X43000000Y-111460000D03*
X40460000Y-114000000D03*
X43000000Y-114000000D03*
D11*
X40460000Y-116460000D03*
D12*
X43000000Y-116460000D03*
X40460000Y-119000000D03*
X43000000Y-119000000D03*
D13*
X66675000Y-83900000D03*
X66675000Y-81200000D03*
X66700000Y-95250000D03*
X66700000Y-92550000D03*
X52800000Y-95300000D03*
X52800000Y-92600000D03*
X52750000Y-83750000D03*
X52750000Y-81050000D03*
D14*
X76450000Y-102300000D03*
D15*
X63200000Y-72300000D03*
X62200000Y-72300000D03*
X61200000Y-72300000D03*
X60200000Y-72300000D03*
X55200000Y-72300000D03*
X56200000Y-72300000D03*
X59200000Y-72300000D03*
X58200000Y-72300000D03*
X57200000Y-72300000D03*
D14*
X41950000Y-75800000D03*
D13*
X57675000Y-92675000D03*
X57675000Y-95375000D03*
X62400000Y-95350000D03*
X62400000Y-92650000D03*
X62450000Y-83900000D03*
X62450000Y-81200000D03*
X57750000Y-83825000D03*
X57750000Y-81125000D03*
D16*
X54930000Y-119820000D03*
D17*
X54430000Y-113320000D03*
D18*
X57200000Y-72300000D03*
X50630000Y-110150000D03*
X65000000Y-98000000D03*
X51430000Y-110150000D03*
X38500000Y-103000000D03*
X43480000Y-132180000D03*
X53030000Y-110150000D03*
X52230000Y-101650000D03*
X50630000Y-101650000D03*
X73450000Y-109060000D03*
X73400000Y-106910000D03*
X73400000Y-104810000D03*
X73400000Y-102810000D03*
X60060000Y-111120000D03*
D19*
X78350000Y-88100000D03*
D18*
X57425158Y-109872654D03*
X57020000Y-107059992D03*
X44136096Y-104500012D03*
X41849970Y-99350000D03*
X52080000Y-106250000D03*
X55280000Y-108700000D03*
X55280000Y-107900000D03*
X52829620Y-105910380D03*
X59350000Y-95320000D03*
X48915512Y-105822696D03*
X49097553Y-103350001D03*
X50000000Y-107000000D03*
X50000000Y-103000000D03*
X51300000Y-123000000D03*
X50870000Y-120090000D03*
X54930000Y-119820000D03*
X68390000Y-111180000D03*
X62510000Y-109880000D03*
X46780000Y-107100000D03*
D20*
X54430000Y-113320000D02*
X53637998Y-113320000D01*
X53637998Y-113320000D02*
X50630000Y-110312002D01*
X50630000Y-110312002D02*
X50630000Y-110150000D01*
X66700000Y-95250000D02*
X66700000Y-96300000D01*
X66700000Y-96300000D02*
X65000000Y-98000000D01*
X62400000Y-92650000D02*
X66600000Y-92650000D01*
X66600000Y-92650000D02*
X66700000Y-92550000D01*
X62500000Y-92550000D02*
X62400000Y-92650000D01*
X62450000Y-81200000D02*
X66675000Y-81200000D01*
X66675000Y-81300000D02*
X66675000Y-81200000D01*
X52750000Y-81050000D02*
X57675000Y-81050000D01*
X57675000Y-81050000D02*
X57750000Y-81125000D01*
X53030000Y-110150000D02*
X51430000Y-110150000D01*
X40460000Y-116460000D02*
X39310000Y-116460000D01*
X39310000Y-116460000D02*
X38500000Y-115650000D01*
X38500000Y-115650000D02*
X38500000Y-103000000D01*
X50630000Y-101650000D02*
X52230000Y-101650000D01*
X53030000Y-110150000D02*
X53630000Y-110150000D01*
X53630000Y-110150000D02*
X54600000Y-111120000D01*
X54600000Y-111120000D02*
X60060000Y-111120000D01*
X57020000Y-107059992D02*
X57020000Y-109467496D01*
X57020000Y-109467496D02*
X57425158Y-109872654D01*
X62200000Y-72300000D02*
X62200000Y-70500000D01*
X62200000Y-70500000D02*
X61649989Y-69949989D01*
X61649989Y-69949989D02*
X53248649Y-69949989D01*
X53248649Y-69949989D02*
X41849970Y-81348668D01*
X41849970Y-81348668D02*
X41849970Y-99350000D01*
X52080000Y-106250000D02*
X51780001Y-105950001D01*
X51780001Y-105950001D02*
X50070001Y-105950001D01*
X50070001Y-105950001D02*
X48620012Y-104500012D01*
X40460000Y-111460000D02*
X41660001Y-110259999D01*
X41660001Y-110259999D02*
X41660001Y-106976107D01*
X41660001Y-106976107D02*
X44136096Y-104500012D01*
X44136096Y-104500012D02*
X48620012Y-104500012D01*
X43000000Y-114000000D02*
X46129999Y-110870001D01*
X46467999Y-106449999D02*
X47092001Y-106449999D01*
X46129999Y-110870001D02*
X46129999Y-106787999D01*
X46129999Y-106787999D02*
X46467999Y-106449999D01*
X47092001Y-106449999D02*
X49342002Y-108700000D01*
X49342002Y-108700000D02*
X55280000Y-108700000D01*
X43000000Y-111460000D02*
X41799999Y-112660001D01*
X39259999Y-107789999D02*
X40619998Y-106430000D01*
X41799999Y-112660001D02*
X39883999Y-112660001D01*
X40619998Y-106430000D02*
X41498988Y-106430000D01*
X39883999Y-112660001D02*
X39259999Y-112036001D01*
X61200000Y-70869998D02*
X61200000Y-72300000D01*
X39259999Y-112036001D02*
X39259999Y-107789999D01*
X53455759Y-70449999D02*
X60780001Y-70449999D01*
X60780001Y-70449999D02*
X61200000Y-70869998D01*
X41498988Y-106430000D02*
X42499970Y-105429018D01*
X42499970Y-105429018D02*
X42499970Y-81405788D01*
X42499970Y-81405788D02*
X53455759Y-70449999D01*
X43000000Y-111460000D02*
X45629989Y-108830011D01*
X45629989Y-108830011D02*
X45629989Y-106580889D01*
X45629989Y-106580889D02*
X46260889Y-105949989D01*
X46260889Y-105949989D02*
X47299111Y-105949989D01*
X49249122Y-107900000D02*
X55280000Y-107900000D01*
X47299111Y-105949989D02*
X49249122Y-107900000D01*
X48240021Y-103700021D02*
X48540002Y-104000002D01*
X48540002Y-104000002D02*
X50919242Y-104000002D01*
X50919242Y-104000002D02*
X52829620Y-105910380D01*
X42999980Y-99414220D02*
X47285781Y-103700021D01*
X47285781Y-103700021D02*
X48240021Y-103700021D01*
X55200000Y-72300000D02*
X52312878Y-72300000D01*
X52312878Y-72300000D02*
X42999980Y-81612898D01*
X42999980Y-81612898D02*
X42999980Y-99414220D01*
X59350000Y-95320000D02*
X57730000Y-95320000D01*
X57730000Y-95320000D02*
X57675000Y-95375000D01*
X48915512Y-105822696D02*
X48915512Y-105915512D01*
X48915512Y-105915512D02*
X50000000Y-107000000D01*
X43499990Y-99207110D02*
X47492891Y-103200011D01*
X47492891Y-103200011D02*
X48947563Y-103200011D01*
X48947563Y-103200011D02*
X49097553Y-103350001D01*
X51169997Y-74150001D02*
X43499990Y-81820008D01*
X43499990Y-81820008D02*
X43499990Y-99207110D01*
X51169997Y-74150001D02*
X59149999Y-74150001D01*
X59149999Y-74150001D02*
X59200000Y-74100000D01*
X59200000Y-74100000D02*
X59200000Y-72300000D01*
X50000000Y-103000000D02*
X49700001Y-102700001D01*
X49700001Y-102700001D02*
X47700001Y-102700001D01*
X47700001Y-102700001D02*
X44000000Y-99000000D01*
X44000000Y-99000000D02*
X44000000Y-82027118D01*
X44000000Y-82027118D02*
X51377107Y-74650011D01*
X51377107Y-74650011D02*
X59649989Y-74650011D01*
X59649989Y-74650011D02*
X60200000Y-74100000D01*
X60200000Y-74100000D02*
X60200000Y-72300000D01*
X51300000Y-123000000D02*
X51300000Y-120520000D01*
X51300000Y-120520000D02*
X50870000Y-120090000D01*
X68390000Y-111180000D02*
X63810000Y-111180000D01*
X63810000Y-111180000D02*
X62510000Y-109880000D01*
X43000000Y-116460000D02*
X46780000Y-112680000D01*
X46780000Y-112680000D02*
X46780000Y-107100000D01*
X62400000Y-95350000D02*
X61450000Y-95350000D01*
X61399999Y-95299999D02*
X61399999Y-90225001D01*
X61450000Y-95350000D02*
X61399999Y-95299999D01*
X61399999Y-90225001D02*
X66675000Y-84950000D01*
X66675000Y-84950000D02*
X66675000Y-83900000D01*
X62400000Y-95350000D02*
X62400000Y-95250000D01*
X52750000Y-83750000D02*
X53700000Y-83750000D01*
X53700000Y-83750000D02*
X55224999Y-82225001D01*
X55224999Y-82225001D02*
X59825001Y-82225001D01*
X59825001Y-82225001D02*
X61500000Y-83900000D01*
X61500000Y-83900000D02*
X62450000Y-83900000D01*
X52800000Y-95300000D02*
X51850000Y-95300000D01*
X51850000Y-95300000D02*
X51799999Y-95249999D01*
X51799999Y-95249999D02*
X51799999Y-90825001D01*
X51799999Y-90825001D02*
X57750000Y-84875000D01*
X57750000Y-84875000D02*
X57750000Y-83825000D01*
X52800000Y-95300000D02*
X52800000Y-95200000D01*
X57675000Y-92675000D02*
X52875000Y-92675000D01*
X52875000Y-92675000D02*
X52800000Y-92600000D01*
X57600000Y-92600000D02*
X57675000Y-92675000D01*
D21*
G36*
X67444321Y-45007921D02*
X72561283Y-45499936D01*
X74702773Y-46151694D01*
X77025573Y-47609138D01*
X78229743Y-49660686D01*
X78650464Y-51624050D01*
X79643016Y-58671172D01*
X80091309Y-66043096D01*
X80326800Y-69967934D01*
X80235564Y-69876539D01*
X79726702Y-69665241D01*
X79175715Y-69664760D01*
X78666485Y-69875169D01*
X78276539Y-70264436D01*
X78065241Y-70773298D01*
X78064760Y-71324285D01*
X78065196Y-71325339D01*
X78064760Y-71824285D01*
X78106217Y-71924618D01*
X78065241Y-72023298D01*
X78064760Y-72574285D01*
X78065196Y-72575339D01*
X78064760Y-73074285D01*
X78106217Y-73174618D01*
X78065241Y-73273298D01*
X78064760Y-73824285D01*
X78275169Y-74333515D01*
X78664436Y-74723461D01*
X79173298Y-74934759D01*
X79724285Y-74935240D01*
X80233515Y-74724831D01*
X80598637Y-74360345D01*
X80640884Y-75036310D01*
X80839806Y-80009361D01*
X80697537Y-90442447D01*
X80624831Y-90266485D01*
X80235564Y-89876539D01*
X79726702Y-89665241D01*
X79175715Y-89664760D01*
X78666485Y-89875169D01*
X78276539Y-90264436D01*
X78065241Y-90773298D01*
X78064760Y-91324285D01*
X78065196Y-91325339D01*
X78064760Y-91824285D01*
X78106217Y-91924618D01*
X78065241Y-92023298D01*
X78064760Y-92574285D01*
X78065196Y-92575339D01*
X78064760Y-93074285D01*
X78106217Y-93174618D01*
X78065241Y-93273298D01*
X78064760Y-93824285D01*
X78275169Y-94333515D01*
X78664436Y-94723461D01*
X79173298Y-94934759D01*
X79724285Y-94935240D01*
X80233515Y-94724831D01*
X80605952Y-94353042D01*
X80590300Y-94979132D01*
X80340405Y-102376027D01*
X80340715Y-102377919D01*
X80340288Y-102379787D01*
X79890319Y-118178708D01*
X79690895Y-124460543D01*
X77399705Y-153249843D01*
X77235061Y-153710847D01*
X75780494Y-155165414D01*
X78376765Y-112557724D01*
X78368375Y-112503996D01*
X78341150Y-112461566D01*
X78299563Y-112433071D01*
X78250166Y-112423000D01*
X75161068Y-112418960D01*
X75129013Y-112370987D01*
X74923004Y-112233336D01*
X74680000Y-112185000D01*
X54741431Y-112185000D01*
X54680000Y-112172560D01*
X54180000Y-112172560D01*
X53944683Y-112216838D01*
X53762333Y-112334177D01*
X51565012Y-110136856D01*
X51565162Y-109964833D01*
X51423117Y-109621057D01*
X51287297Y-109485000D01*
X54742494Y-109485000D01*
X54749673Y-109492192D01*
X55093201Y-109634838D01*
X55465167Y-109635162D01*
X55808943Y-109493117D01*
X56072192Y-109230327D01*
X56214838Y-108886799D01*
X56215162Y-108514833D01*
X56126352Y-108299896D01*
X56214838Y-108086799D01*
X56215162Y-107714833D01*
X56073117Y-107371057D01*
X55947439Y-107245159D01*
X56084838Y-107245159D01*
X56226883Y-107588935D01*
X56235000Y-107597066D01*
X56235000Y-109467496D01*
X56294755Y-109767903D01*
X56464921Y-110022575D01*
X56490005Y-110047659D01*
X56489996Y-110057821D01*
X56632041Y-110401597D01*
X56894831Y-110664846D01*
X57238359Y-110807492D01*
X57610325Y-110807816D01*
X57954101Y-110665771D01*
X58217350Y-110402981D01*
X58357623Y-110065167D01*
X61574838Y-110065167D01*
X61716883Y-110408943D01*
X61979673Y-110672192D01*
X62323201Y-110814838D01*
X62334690Y-110814848D01*
X63254921Y-111735079D01*
X63509594Y-111905245D01*
X63810000Y-111965001D01*
X63810005Y-111965000D01*
X67852494Y-111965000D01*
X67859673Y-111972192D01*
X68203201Y-112114838D01*
X68575167Y-112115162D01*
X68918943Y-111973117D01*
X69182192Y-111710327D01*
X69324838Y-111366799D01*
X69325162Y-110994833D01*
X69183117Y-110651057D01*
X68920327Y-110387808D01*
X68576799Y-110245162D01*
X68204833Y-110244838D01*
X67861057Y-110386883D01*
X67852926Y-110395000D01*
X64135158Y-110395000D01*
X63445153Y-109704995D01*
X63445162Y-109694833D01*
X63303117Y-109351057D01*
X63040327Y-109087808D01*
X62696799Y-108945162D01*
X62324833Y-108944838D01*
X61981057Y-109086883D01*
X61717808Y-109349673D01*
X61575162Y-109693201D01*
X61574838Y-110065167D01*
X58357623Y-110065167D01*
X58359996Y-110059453D01*
X58360320Y-109687487D01*
X58218275Y-109343711D01*
X57955485Y-109080462D01*
X57805000Y-109017975D01*
X57805000Y-107597498D01*
X57812192Y-107590319D01*
X57954838Y-107246791D01*
X57955162Y-106874825D01*
X57813117Y-106531049D01*
X57550327Y-106267800D01*
X57206799Y-106125154D01*
X56834833Y-106124830D01*
X56491057Y-106266875D01*
X56227808Y-106529665D01*
X56085162Y-106873193D01*
X56084838Y-107245159D01*
X55947439Y-107245159D01*
X55810327Y-107107808D01*
X55466799Y-106965162D01*
X55094833Y-106964838D01*
X54751057Y-107106883D01*
X54742926Y-107115000D01*
X52434972Y-107115000D01*
X52608943Y-107043117D01*
X52807044Y-106845361D01*
X53014787Y-106845542D01*
X53358563Y-106703497D01*
X53621812Y-106440707D01*
X53764458Y-106097179D01*
X53764782Y-105725213D01*
X53622737Y-105381437D01*
X53359947Y-105118188D01*
X53016419Y-104975542D01*
X53004929Y-104975532D01*
X51474321Y-103444923D01*
X51219649Y-103274757D01*
X50922831Y-103215716D01*
X50934838Y-103186799D01*
X50935162Y-102814833D01*
X50856227Y-102623795D01*
X74814716Y-102623795D01*
X75063106Y-103224943D01*
X75522637Y-103685278D01*
X76123352Y-103934716D01*
X76773795Y-103935284D01*
X77374943Y-103686894D01*
X77835278Y-103227363D01*
X78084716Y-102626648D01*
X78085284Y-101976205D01*
X77836894Y-101375057D01*
X77377363Y-100914722D01*
X76776648Y-100665284D01*
X76126205Y-100664716D01*
X75525057Y-100913106D01*
X75064722Y-101372637D01*
X74815284Y-101973352D01*
X74814716Y-102623795D01*
X50856227Y-102623795D01*
X50793117Y-102471057D01*
X50530327Y-102207808D01*
X50186799Y-102065162D01*
X50135644Y-102065117D01*
X50000408Y-101974756D01*
X49700001Y-101915001D01*
X48025159Y-101915001D01*
X44785000Y-98674842D01*
X44785000Y-90825001D01*
X51014999Y-90825001D01*
X51014999Y-95249999D01*
X51074754Y-95550406D01*
X51244920Y-95805078D01*
X51294921Y-95855079D01*
X51502560Y-95993819D01*
X51502560Y-96050000D01*
X51546838Y-96285317D01*
X51685910Y-96501441D01*
X51898110Y-96646431D01*
X52150000Y-96697440D01*
X53450000Y-96697440D01*
X53685317Y-96653162D01*
X53901441Y-96514090D01*
X54046431Y-96301890D01*
X54097440Y-96050000D01*
X54097440Y-94550000D01*
X54053162Y-94314683D01*
X53914090Y-94098559D01*
X53701890Y-93953569D01*
X53688803Y-93950919D01*
X53901441Y-93814090D01*
X54046431Y-93601890D01*
X54075164Y-93460000D01*
X56384146Y-93460000D01*
X56421838Y-93660317D01*
X56560910Y-93876441D01*
X56773110Y-94021431D01*
X56786197Y-94024081D01*
X56573559Y-94160910D01*
X56428569Y-94373110D01*
X56377560Y-94625000D01*
X56377560Y-96125000D01*
X56421838Y-96360317D01*
X56560910Y-96576441D01*
X56773110Y-96721431D01*
X57025000Y-96772440D01*
X58325000Y-96772440D01*
X58560317Y-96728162D01*
X58776441Y-96589090D01*
X58921431Y-96376890D01*
X58962983Y-96171700D01*
X59163201Y-96254838D01*
X59535167Y-96255162D01*
X59878943Y-96113117D01*
X60142192Y-95850327D01*
X60284838Y-95506799D01*
X60285162Y-95134833D01*
X60143117Y-94791057D01*
X59880327Y-94527808D01*
X59536799Y-94385162D01*
X59164833Y-94384838D01*
X58944389Y-94475923D01*
X58928162Y-94389683D01*
X58789090Y-94173559D01*
X58576890Y-94028569D01*
X58563803Y-94025919D01*
X58776441Y-93889090D01*
X58921431Y-93676890D01*
X58972440Y-93425000D01*
X58972440Y-91925000D01*
X58928162Y-91689683D01*
X58789090Y-91473559D01*
X58576890Y-91328569D01*
X58325000Y-91277560D01*
X57025000Y-91277560D01*
X56789683Y-91321838D01*
X56573559Y-91460910D01*
X56428569Y-91673110D01*
X56384648Y-91890000D01*
X54097440Y-91890000D01*
X54097440Y-91850000D01*
X54053162Y-91614683D01*
X53914090Y-91398559D01*
X53701890Y-91253569D01*
X53450000Y-91202560D01*
X52584999Y-91202560D01*
X52584999Y-91150159D01*
X58305079Y-85430079D01*
X58450120Y-85213009D01*
X58635317Y-85178162D01*
X58851441Y-85039090D01*
X58996431Y-84826890D01*
X59047440Y-84575000D01*
X59047440Y-83075000D01*
X59035210Y-83010001D01*
X59499843Y-83010001D01*
X60944921Y-84455079D01*
X61152560Y-84593819D01*
X61152560Y-84650000D01*
X61196838Y-84885317D01*
X61335910Y-85101441D01*
X61548110Y-85246431D01*
X61800000Y-85297440D01*
X63100000Y-85297440D01*
X63335317Y-85253162D01*
X63551441Y-85114090D01*
X63696431Y-84901890D01*
X63747440Y-84650000D01*
X63747440Y-83150000D01*
X63703162Y-82914683D01*
X63564090Y-82698559D01*
X63351890Y-82553569D01*
X63338803Y-82550919D01*
X63551441Y-82414090D01*
X63696431Y-82201890D01*
X63740352Y-81985000D01*
X65384146Y-81985000D01*
X65421838Y-82185317D01*
X65560910Y-82401441D01*
X65773110Y-82546431D01*
X65786197Y-82549081D01*
X65573559Y-82685910D01*
X65428569Y-82898110D01*
X65377560Y-83150000D01*
X65377560Y-84650000D01*
X65421838Y-84885317D01*
X65503155Y-85011687D01*
X60844920Y-89669922D01*
X60674754Y-89924594D01*
X60674754Y-89924595D01*
X60614999Y-90225001D01*
X60614999Y-95299999D01*
X60674754Y-95600406D01*
X60844920Y-95855078D01*
X60894921Y-95905079D01*
X61102560Y-96043819D01*
X61102560Y-96100000D01*
X61146838Y-96335317D01*
X61285910Y-96551441D01*
X61498110Y-96696431D01*
X61750000Y-96747440D01*
X63050000Y-96747440D01*
X63285317Y-96703162D01*
X63501441Y-96564090D01*
X63646431Y-96351890D01*
X63697440Y-96100000D01*
X63697440Y-94600000D01*
X63653162Y-94364683D01*
X63514090Y-94148559D01*
X63301890Y-94003569D01*
X63288803Y-94000919D01*
X63501441Y-93864090D01*
X63646431Y-93651890D01*
X63690352Y-93435000D01*
X65427962Y-93435000D01*
X65446838Y-93535317D01*
X65585910Y-93751441D01*
X65798110Y-93896431D01*
X65811197Y-93899081D01*
X65598559Y-94035910D01*
X65453569Y-94248110D01*
X65402560Y-94500000D01*
X65402560Y-96000000D01*
X65446838Y-96235317D01*
X65528155Y-96361687D01*
X64824995Y-97064847D01*
X64814833Y-97064838D01*
X64471057Y-97206883D01*
X64207808Y-97469673D01*
X64065162Y-97813201D01*
X64064838Y-98185167D01*
X64206883Y-98528943D01*
X64469673Y-98792192D01*
X64813201Y-98934838D01*
X65185167Y-98935162D01*
X65528943Y-98793117D01*
X65792192Y-98530327D01*
X65934838Y-98186799D01*
X65934848Y-98175310D01*
X67255079Y-96855079D01*
X67400120Y-96638009D01*
X67585317Y-96603162D01*
X67801441Y-96464090D01*
X67946431Y-96251890D01*
X67997440Y-96000000D01*
X67997440Y-94500000D01*
X67953162Y-94264683D01*
X67814090Y-94048559D01*
X67601890Y-93903569D01*
X67588803Y-93900919D01*
X67801441Y-93764090D01*
X67946431Y-93551890D01*
X67997440Y-93300000D01*
X67997440Y-91800000D01*
X67953162Y-91564683D01*
X67814090Y-91348559D01*
X67601890Y-91203569D01*
X67350000Y-91152560D01*
X66050000Y-91152560D01*
X65814683Y-91196838D01*
X65598559Y-91335910D01*
X65453569Y-91548110D01*
X65402560Y-91800000D01*
X65402560Y-91865000D01*
X63690854Y-91865000D01*
X63653162Y-91664683D01*
X63514090Y-91448559D01*
X63301890Y-91303569D01*
X63050000Y-91252560D01*
X62184999Y-91252560D01*
X62184999Y-90550159D01*
X67230079Y-85505079D01*
X67375120Y-85288009D01*
X67560317Y-85253162D01*
X67776441Y-85114090D01*
X67921431Y-84901890D01*
X67972440Y-84650000D01*
X67972440Y-83150000D01*
X67928162Y-82914683D01*
X67789090Y-82698559D01*
X67576890Y-82553569D01*
X67563803Y-82550919D01*
X67776441Y-82414090D01*
X67921431Y-82201890D01*
X67972440Y-81950000D01*
X67972440Y-80450000D01*
X67928162Y-80214683D01*
X67789090Y-79998559D01*
X67576890Y-79853569D01*
X67325000Y-79802560D01*
X66025000Y-79802560D01*
X65789683Y-79846838D01*
X65573559Y-79985910D01*
X65428569Y-80198110D01*
X65384648Y-80415000D01*
X63740854Y-80415000D01*
X63703162Y-80214683D01*
X63564090Y-79998559D01*
X63351890Y-79853569D01*
X63100000Y-79802560D01*
X61800000Y-79802560D01*
X61564683Y-79846838D01*
X61348559Y-79985910D01*
X61203569Y-80198110D01*
X61152560Y-80450000D01*
X61152560Y-81950000D01*
X61196838Y-82185317D01*
X61335910Y-82401441D01*
X61548110Y-82546431D01*
X61561197Y-82549081D01*
X61377467Y-82667309D01*
X60380080Y-81669922D01*
X60125408Y-81499756D01*
X59825001Y-81440001D01*
X59047440Y-81440001D01*
X59047440Y-80375000D01*
X59003162Y-80139683D01*
X58864090Y-79923559D01*
X58651890Y-79778569D01*
X58400000Y-79727560D01*
X57100000Y-79727560D01*
X56864683Y-79771838D01*
X56648559Y-79910910D01*
X56503569Y-80123110D01*
X56474836Y-80265000D01*
X54040854Y-80265000D01*
X54003162Y-80064683D01*
X53864090Y-79848559D01*
X53651890Y-79703569D01*
X53400000Y-79652560D01*
X52100000Y-79652560D01*
X51864683Y-79696838D01*
X51648559Y-79835910D01*
X51503569Y-80048110D01*
X51452560Y-80300000D01*
X51452560Y-81800000D01*
X51496838Y-82035317D01*
X51635910Y-82251441D01*
X51848110Y-82396431D01*
X51861197Y-82399081D01*
X51648559Y-82535910D01*
X51503569Y-82748110D01*
X51452560Y-83000000D01*
X51452560Y-84500000D01*
X51496838Y-84735317D01*
X51635910Y-84951441D01*
X51848110Y-85096431D01*
X52100000Y-85147440D01*
X53400000Y-85147440D01*
X53635317Y-85103162D01*
X53851441Y-84964090D01*
X53996431Y-84751890D01*
X54047440Y-84500000D01*
X54047440Y-84443819D01*
X54255079Y-84305079D01*
X55550157Y-83010001D01*
X56465723Y-83010001D01*
X56452560Y-83075000D01*
X56452560Y-84575000D01*
X56496838Y-84810317D01*
X56578155Y-84936687D01*
X51244920Y-90269922D01*
X51074754Y-90524594D01*
X51074754Y-90524595D01*
X51014999Y-90825001D01*
X44785000Y-90825001D01*
X44785000Y-82352276D01*
X51702265Y-75435011D01*
X59649989Y-75435011D01*
X59950396Y-75375256D01*
X60205068Y-75205090D01*
X60755079Y-74655079D01*
X60894555Y-74446337D01*
X60900000Y-74447440D01*
X61500000Y-74447440D01*
X61707342Y-74408426D01*
X61900000Y-74447440D01*
X62500000Y-74447440D01*
X62708850Y-74408142D01*
X62773691Y-74435000D01*
X62914250Y-74435000D01*
X63073000Y-74276250D01*
X63073000Y-74086182D01*
X63096431Y-74051890D01*
X63147440Y-73800000D01*
X63147440Y-72427000D01*
X63327000Y-72427000D01*
X63327000Y-74276250D01*
X63485750Y-74435000D01*
X63626309Y-74435000D01*
X63859698Y-74338327D01*
X64038327Y-74159699D01*
X64135000Y-73926310D01*
X64135000Y-72585750D01*
X63976250Y-72427000D01*
X63327000Y-72427000D01*
X63147440Y-72427000D01*
X63147440Y-70800000D01*
X63103162Y-70564683D01*
X63073000Y-70517810D01*
X63073000Y-70323750D01*
X63327000Y-70323750D01*
X63327000Y-72173000D01*
X63976250Y-72173000D01*
X64135000Y-72014250D01*
X64135000Y-70673690D01*
X64038327Y-70440301D01*
X63859698Y-70261673D01*
X63626309Y-70165000D01*
X63485750Y-70165000D01*
X63327000Y-70323750D01*
X63073000Y-70323750D01*
X62914250Y-70165000D01*
X62902131Y-70165000D01*
X62755079Y-69944921D01*
X62205068Y-69394910D01*
X61950396Y-69224744D01*
X61649989Y-69164989D01*
X53248649Y-69164989D01*
X52948243Y-69224744D01*
X52948241Y-69224745D01*
X52948242Y-69224745D01*
X52693570Y-69394910D01*
X41294891Y-80793589D01*
X41124725Y-81048261D01*
X41124725Y-81048262D01*
X41064970Y-81348668D01*
X41064970Y-98812494D01*
X41057778Y-98819673D01*
X40915132Y-99163201D01*
X40914808Y-99535167D01*
X41056853Y-99878943D01*
X41319643Y-100142192D01*
X41663171Y-100284838D01*
X41714970Y-100284883D01*
X41714970Y-105103860D01*
X41173830Y-105645000D01*
X40619998Y-105645000D01*
X40319591Y-105704755D01*
X40064919Y-105874921D01*
X38704920Y-107234920D01*
X38534754Y-107489592D01*
X38523128Y-107548039D01*
X38474999Y-107789999D01*
X38474999Y-112036001D01*
X38534754Y-112336408D01*
X38704920Y-112591080D01*
X39253854Y-113140014D01*
X39058946Y-113431715D01*
X38945907Y-114000000D01*
X39058946Y-114568285D01*
X39363867Y-115024633D01*
X39250302Y-115071673D01*
X39071673Y-115250301D01*
X38975000Y-115483690D01*
X38975000Y-116174250D01*
X39133750Y-116333000D01*
X40333000Y-116333000D01*
X40333000Y-116313000D01*
X40587000Y-116313000D01*
X40587000Y-116333000D01*
X40607000Y-116333000D01*
X40607000Y-116587000D01*
X40587000Y-116587000D01*
X40587000Y-116607000D01*
X40333000Y-116607000D01*
X40333000Y-116587000D01*
X39133750Y-116587000D01*
X38975000Y-116745750D01*
X38975000Y-117436310D01*
X39071673Y-117669699D01*
X39250302Y-117848327D01*
X39424777Y-117920597D01*
X39380853Y-117949946D01*
X39058946Y-118431715D01*
X38945907Y-119000000D01*
X39058946Y-119568285D01*
X39380853Y-120050054D01*
X39862622Y-120371961D01*
X40430907Y-120485000D01*
X40489093Y-120485000D01*
X41057378Y-120371961D01*
X41539147Y-120050054D01*
X41730000Y-119764422D01*
X41920853Y-120050054D01*
X42402622Y-120371961D01*
X42970907Y-120485000D01*
X43029093Y-120485000D01*
X43597378Y-120371961D01*
X43742240Y-120275167D01*
X49934838Y-120275167D01*
X50076883Y-120618943D01*
X50339673Y-120882192D01*
X50515000Y-120954994D01*
X50515000Y-122462494D01*
X50507808Y-122469673D01*
X50365162Y-122813201D01*
X50364838Y-123185167D01*
X50506883Y-123528943D01*
X50769673Y-123792192D01*
X51113201Y-123934838D01*
X51485167Y-123935162D01*
X51828943Y-123793117D01*
X52092192Y-123530327D01*
X52234838Y-123186799D01*
X52235162Y-122814833D01*
X52093117Y-122471057D01*
X52085000Y-122462926D01*
X52085000Y-120520000D01*
X52025245Y-120219594D01*
X51855079Y-119964921D01*
X51805153Y-119914995D01*
X51805162Y-119904833D01*
X51663117Y-119561057D01*
X51400327Y-119297808D01*
X51056799Y-119155162D01*
X50684833Y-119154838D01*
X50341057Y-119296883D01*
X50077808Y-119559673D01*
X49935162Y-119903201D01*
X49934838Y-120275167D01*
X43742240Y-120275167D01*
X44079147Y-120050054D01*
X44401054Y-119568285D01*
X44514093Y-119000000D01*
X44401054Y-118431715D01*
X44079147Y-117949946D01*
X43749974Y-117730000D01*
X44079147Y-117510054D01*
X44401054Y-117028285D01*
X44514093Y-116460000D01*
X44447076Y-116123082D01*
X47335079Y-113235079D01*
X47505245Y-112980407D01*
X47565000Y-112680000D01*
X47565000Y-108033156D01*
X48786923Y-109255079D01*
X49041596Y-109425245D01*
X49342002Y-109485000D01*
X49972716Y-109485000D01*
X49837808Y-109619673D01*
X49695162Y-109963201D01*
X49694838Y-110335167D01*
X49836883Y-110678943D01*
X50099673Y-110942192D01*
X50185792Y-110977952D01*
X53082919Y-113875079D01*
X53337592Y-114045245D01*
X53604524Y-114098342D01*
X53715910Y-114271441D01*
X53928110Y-114416431D01*
X54180000Y-114467440D01*
X54680000Y-114467440D01*
X54746113Y-114455000D01*
X55281838Y-114455000D01*
X55472683Y-118185000D01*
X55241431Y-118185000D01*
X55180000Y-118172560D01*
X54680000Y-118172560D01*
X54444683Y-118216838D01*
X54228559Y-118355910D01*
X54083569Y-118568110D01*
X54032560Y-118820000D01*
X54032560Y-119543137D01*
X53995162Y-119633201D01*
X53994838Y-120005167D01*
X54032560Y-120096461D01*
X54032560Y-120820000D01*
X54076838Y-121055317D01*
X54215910Y-121271441D01*
X54428110Y-121416431D01*
X54680000Y-121467440D01*
X55180000Y-121467440D01*
X55246113Y-121455000D01*
X55639993Y-121455000D01*
X57423166Y-156306489D01*
X57430307Y-156342458D01*
X57456256Y-156385680D01*
X57496976Y-156415401D01*
X57546051Y-156426939D01*
X71314892Y-156855303D01*
X68053507Y-157191034D01*
X61042283Y-157389934D01*
X53534556Y-157340214D01*
X47564011Y-156797437D01*
X45966565Y-156421567D01*
X44746698Y-155924585D01*
X43954006Y-155352085D01*
X43084135Y-154527997D01*
X42452842Y-153671242D01*
X41164836Y-151238345D01*
X40845563Y-150052474D01*
X40604235Y-148507969D01*
X40407144Y-146635606D01*
X39508354Y-134951327D01*
X39058705Y-127517135D01*
X39057045Y-127510813D01*
X39058305Y-127500963D01*
X38608305Y-121000964D01*
X38608097Y-121000200D01*
X38608196Y-120999414D01*
X38108479Y-114003377D01*
X37809363Y-109018110D01*
X37659681Y-104028710D01*
X37659303Y-104027070D01*
X37659574Y-104025411D01*
X37310000Y-93937704D01*
X37310000Y-91324285D01*
X37564760Y-91324285D01*
X37606217Y-91424618D01*
X37565241Y-91523298D01*
X37564760Y-92074285D01*
X37565196Y-92075339D01*
X37564760Y-92574285D01*
X37606217Y-92674618D01*
X37565241Y-92773298D01*
X37564760Y-93324285D01*
X37565196Y-93325339D01*
X37564760Y-93824285D01*
X37775169Y-94333515D01*
X38164436Y-94723461D01*
X38673298Y-94934759D01*
X39224285Y-94935240D01*
X39733515Y-94724831D01*
X40123461Y-94335564D01*
X40334759Y-93826702D01*
X40335240Y-93275715D01*
X40334804Y-93274661D01*
X40335240Y-92775715D01*
X40293783Y-92675382D01*
X40334759Y-92576702D01*
X40335240Y-92025715D01*
X40334804Y-92024661D01*
X40335240Y-91525715D01*
X40293783Y-91425382D01*
X40334759Y-91326702D01*
X40335240Y-90775715D01*
X40124831Y-90266485D01*
X39735564Y-89876539D01*
X39226702Y-89665241D01*
X38675715Y-89664760D01*
X38166485Y-89875169D01*
X37776539Y-90264436D01*
X37565241Y-90773298D01*
X37564760Y-91324285D01*
X37310000Y-91324285D01*
X37310000Y-90959247D01*
X37659522Y-77527605D01*
X37732229Y-76123795D01*
X40314716Y-76123795D01*
X40563106Y-76724943D01*
X41022637Y-77185278D01*
X41623352Y-77434716D01*
X42273795Y-77435284D01*
X42874943Y-77186894D01*
X43335278Y-76727363D01*
X43584716Y-76126648D01*
X43585284Y-75476205D01*
X43336894Y-74875057D01*
X42877363Y-74414722D01*
X42276648Y-74165284D01*
X41626205Y-74164716D01*
X41025057Y-74413106D01*
X40564722Y-74872637D01*
X40315284Y-75473352D01*
X40314716Y-76123795D01*
X37732229Y-76123795D01*
X37822498Y-74380926D01*
X38164436Y-74723461D01*
X38673298Y-74934759D01*
X39224285Y-74935240D01*
X39733515Y-74724831D01*
X40123461Y-74335564D01*
X40334759Y-73826702D01*
X40335240Y-73275715D01*
X40334804Y-73274661D01*
X40335240Y-72775715D01*
X40293783Y-72675382D01*
X40334759Y-72576702D01*
X40335240Y-72025715D01*
X40293783Y-71925382D01*
X40334759Y-71826702D01*
X40335240Y-71275715D01*
X40334804Y-71274661D01*
X40335240Y-70775715D01*
X40124831Y-70266485D01*
X39735564Y-69876539D01*
X39226702Y-69665241D01*
X38675715Y-69664760D01*
X38166485Y-69875169D01*
X38049832Y-69991619D01*
X38308305Y-65001107D01*
X38805354Y-59632982D01*
X39549259Y-54425641D01*
X40585483Y-49650000D01*
X56333112Y-49650000D01*
X56608431Y-51034123D01*
X57392474Y-52207526D01*
X58565877Y-52991569D01*
X59950000Y-53266888D01*
X61334123Y-52991569D01*
X62507526Y-52207526D01*
X63291569Y-51034123D01*
X63566888Y-49650000D01*
X63291569Y-48265877D01*
X62507526Y-47092474D01*
X61334123Y-46308431D01*
X59950000Y-46033112D01*
X58565877Y-46308431D01*
X57392474Y-47092474D01*
X56608431Y-48265877D01*
X56333112Y-49650000D01*
X40585483Y-49650000D01*
X40673723Y-49243331D01*
X41229433Y-48174659D01*
X42004659Y-47399433D01*
X43149979Y-46620615D01*
X44257454Y-46113023D01*
X45578830Y-45688294D01*
X47003693Y-45403322D01*
X52694489Y-44858985D01*
X57660657Y-44710000D01*
X62578286Y-44710000D01*
X67444321Y-45007921D01*
X67444321Y-45007921D01*
G37*
X67444321Y-45007921D02*
X72561283Y-45499936D01*
X74702773Y-46151694D01*
X77025573Y-47609138D01*
X78229743Y-49660686D01*
X78650464Y-51624050D01*
X79643016Y-58671172D01*
X80091309Y-66043096D01*
X80326800Y-69967934D01*
X80235564Y-69876539D01*
X79726702Y-69665241D01*
X79175715Y-69664760D01*
X78666485Y-69875169D01*
X78276539Y-70264436D01*
X78065241Y-70773298D01*
X78064760Y-71324285D01*
X78065196Y-71325339D01*
X78064760Y-71824285D01*
X78106217Y-71924618D01*
X78065241Y-72023298D01*
X78064760Y-72574285D01*
X78065196Y-72575339D01*
X78064760Y-73074285D01*
X78106217Y-73174618D01*
X78065241Y-73273298D01*
X78064760Y-73824285D01*
X78275169Y-74333515D01*
X78664436Y-74723461D01*
X79173298Y-74934759D01*
X79724285Y-74935240D01*
X80233515Y-74724831D01*
X80598637Y-74360345D01*
X80640884Y-75036310D01*
X80839806Y-80009361D01*
X80697537Y-90442447D01*
X80624831Y-90266485D01*
X80235564Y-89876539D01*
X79726702Y-89665241D01*
X79175715Y-89664760D01*
X78666485Y-89875169D01*
X78276539Y-90264436D01*
X78065241Y-90773298D01*
X78064760Y-91324285D01*
X78065196Y-91325339D01*
X78064760Y-91824285D01*
X78106217Y-91924618D01*
X78065241Y-92023298D01*
X78064760Y-92574285D01*
X78065196Y-92575339D01*
X78064760Y-93074285D01*
X78106217Y-93174618D01*
X78065241Y-93273298D01*
X78064760Y-93824285D01*
X78275169Y-94333515D01*
X78664436Y-94723461D01*
X79173298Y-94934759D01*
X79724285Y-94935240D01*
X80233515Y-94724831D01*
X80605952Y-94353042D01*
X80590300Y-94979132D01*
X80340405Y-102376027D01*
X80340715Y-102377919D01*
X80340288Y-102379787D01*
X79890319Y-118178708D01*
X79690895Y-124460543D01*
X77399705Y-153249843D01*
X77235061Y-153710847D01*
X75780494Y-155165414D01*
X78376765Y-112557724D01*
X78368375Y-112503996D01*
X78341150Y-112461566D01*
X78299563Y-112433071D01*
X78250166Y-112423000D01*
X75161068Y-112418960D01*
X75129013Y-112370987D01*
X74923004Y-112233336D01*
X74680000Y-112185000D01*
X54741431Y-112185000D01*
X54680000Y-112172560D01*
X54180000Y-112172560D01*
X53944683Y-112216838D01*
X53762333Y-112334177D01*
X51565012Y-110136856D01*
X51565162Y-109964833D01*
X51423117Y-109621057D01*
X51287297Y-109485000D01*
X54742494Y-109485000D01*
X54749673Y-109492192D01*
X55093201Y-109634838D01*
X55465167Y-109635162D01*
X55808943Y-109493117D01*
X56072192Y-109230327D01*
X56214838Y-108886799D01*
X56215162Y-108514833D01*
X56126352Y-108299896D01*
X56214838Y-108086799D01*
X56215162Y-107714833D01*
X56073117Y-107371057D01*
X55947439Y-107245159D01*
X56084838Y-107245159D01*
X56226883Y-107588935D01*
X56235000Y-107597066D01*
X56235000Y-109467496D01*
X56294755Y-109767903D01*
X56464921Y-110022575D01*
X56490005Y-110047659D01*
X56489996Y-110057821D01*
X56632041Y-110401597D01*
X56894831Y-110664846D01*
X57238359Y-110807492D01*
X57610325Y-110807816D01*
X57954101Y-110665771D01*
X58217350Y-110402981D01*
X58357623Y-110065167D01*
X61574838Y-110065167D01*
X61716883Y-110408943D01*
X61979673Y-110672192D01*
X62323201Y-110814838D01*
X62334690Y-110814848D01*
X63254921Y-111735079D01*
X63509594Y-111905245D01*
X63810000Y-111965001D01*
X63810005Y-111965000D01*
X67852494Y-111965000D01*
X67859673Y-111972192D01*
X68203201Y-112114838D01*
X68575167Y-112115162D01*
X68918943Y-111973117D01*
X69182192Y-111710327D01*
X69324838Y-111366799D01*
X69325162Y-110994833D01*
X69183117Y-110651057D01*
X68920327Y-110387808D01*
X68576799Y-110245162D01*
X68204833Y-110244838D01*
X67861057Y-110386883D01*
X67852926Y-110395000D01*
X64135158Y-110395000D01*
X63445153Y-109704995D01*
X63445162Y-109694833D01*
X63303117Y-109351057D01*
X63040327Y-109087808D01*
X62696799Y-108945162D01*
X62324833Y-108944838D01*
X61981057Y-109086883D01*
X61717808Y-109349673D01*
X61575162Y-109693201D01*
X61574838Y-110065167D01*
X58357623Y-110065167D01*
X58359996Y-110059453D01*
X58360320Y-109687487D01*
X58218275Y-109343711D01*
X57955485Y-109080462D01*
X57805000Y-109017975D01*
X57805000Y-107597498D01*
X57812192Y-107590319D01*
X57954838Y-107246791D01*
X57955162Y-106874825D01*
X57813117Y-106531049D01*
X57550327Y-106267800D01*
X57206799Y-106125154D01*
X56834833Y-106124830D01*
X56491057Y-106266875D01*
X56227808Y-106529665D01*
X56085162Y-106873193D01*
X56084838Y-107245159D01*
X55947439Y-107245159D01*
X55810327Y-107107808D01*
X55466799Y-106965162D01*
X55094833Y-106964838D01*
X54751057Y-107106883D01*
X54742926Y-107115000D01*
X52434972Y-107115000D01*
X52608943Y-107043117D01*
X52807044Y-106845361D01*
X53014787Y-106845542D01*
X53358563Y-106703497D01*
X53621812Y-106440707D01*
X53764458Y-106097179D01*
X53764782Y-105725213D01*
X53622737Y-105381437D01*
X53359947Y-105118188D01*
X53016419Y-104975542D01*
X53004929Y-104975532D01*
X51474321Y-103444923D01*
X51219649Y-103274757D01*
X50922831Y-103215716D01*
X50934838Y-103186799D01*
X50935162Y-102814833D01*
X50856227Y-102623795D01*
X74814716Y-102623795D01*
X75063106Y-103224943D01*
X75522637Y-103685278D01*
X76123352Y-103934716D01*
X76773795Y-103935284D01*
X77374943Y-103686894D01*
X77835278Y-103227363D01*
X78084716Y-102626648D01*
X78085284Y-101976205D01*
X77836894Y-101375057D01*
X77377363Y-100914722D01*
X76776648Y-100665284D01*
X76126205Y-100664716D01*
X75525057Y-100913106D01*
X75064722Y-101372637D01*
X74815284Y-101973352D01*
X74814716Y-102623795D01*
X50856227Y-102623795D01*
X50793117Y-102471057D01*
X50530327Y-102207808D01*
X50186799Y-102065162D01*
X50135644Y-102065117D01*
X50000408Y-101974756D01*
X49700001Y-101915001D01*
X48025159Y-101915001D01*
X44785000Y-98674842D01*
X44785000Y-90825001D01*
X51014999Y-90825001D01*
X51014999Y-95249999D01*
X51074754Y-95550406D01*
X51244920Y-95805078D01*
X51294921Y-95855079D01*
X51502560Y-95993819D01*
X51502560Y-96050000D01*
X51546838Y-96285317D01*
X51685910Y-96501441D01*
X51898110Y-96646431D01*
X52150000Y-96697440D01*
X53450000Y-96697440D01*
X53685317Y-96653162D01*
X53901441Y-96514090D01*
X54046431Y-96301890D01*
X54097440Y-96050000D01*
X54097440Y-94550000D01*
X54053162Y-94314683D01*
X53914090Y-94098559D01*
X53701890Y-93953569D01*
X53688803Y-93950919D01*
X53901441Y-93814090D01*
X54046431Y-93601890D01*
X54075164Y-93460000D01*
X56384146Y-93460000D01*
X56421838Y-93660317D01*
X56560910Y-93876441D01*
X56773110Y-94021431D01*
X56786197Y-94024081D01*
X56573559Y-94160910D01*
X56428569Y-94373110D01*
X56377560Y-94625000D01*
X56377560Y-96125000D01*
X56421838Y-96360317D01*
X56560910Y-96576441D01*
X56773110Y-96721431D01*
X57025000Y-96772440D01*
X58325000Y-96772440D01*
X58560317Y-96728162D01*
X58776441Y-96589090D01*
X58921431Y-96376890D01*
X58962983Y-96171700D01*
X59163201Y-96254838D01*
X59535167Y-96255162D01*
X59878943Y-96113117D01*
X60142192Y-95850327D01*
X60284838Y-95506799D01*
X60285162Y-95134833D01*
X60143117Y-94791057D01*
X59880327Y-94527808D01*
X59536799Y-94385162D01*
X59164833Y-94384838D01*
X58944389Y-94475923D01*
X58928162Y-94389683D01*
X58789090Y-94173559D01*
X58576890Y-94028569D01*
X58563803Y-94025919D01*
X58776441Y-93889090D01*
X58921431Y-93676890D01*
X58972440Y-93425000D01*
X58972440Y-91925000D01*
X58928162Y-91689683D01*
X58789090Y-91473559D01*
X58576890Y-91328569D01*
X58325000Y-91277560D01*
X57025000Y-91277560D01*
X56789683Y-91321838D01*
X56573559Y-91460910D01*
X56428569Y-91673110D01*
X56384648Y-91890000D01*
X54097440Y-91890000D01*
X54097440Y-91850000D01*
X54053162Y-91614683D01*
X53914090Y-91398559D01*
X53701890Y-91253569D01*
X53450000Y-91202560D01*
X52584999Y-91202560D01*
X52584999Y-91150159D01*
X58305079Y-85430079D01*
X58450120Y-85213009D01*
X58635317Y-85178162D01*
X58851441Y-85039090D01*
X58996431Y-84826890D01*
X59047440Y-84575000D01*
X59047440Y-83075000D01*
X59035210Y-83010001D01*
X59499843Y-83010001D01*
X60944921Y-84455079D01*
X61152560Y-84593819D01*
X61152560Y-84650000D01*
X61196838Y-84885317D01*
X61335910Y-85101441D01*
X61548110Y-85246431D01*
X61800000Y-85297440D01*
X63100000Y-85297440D01*
X63335317Y-85253162D01*
X63551441Y-85114090D01*
X63696431Y-84901890D01*
X63747440Y-84650000D01*
X63747440Y-83150000D01*
X63703162Y-82914683D01*
X63564090Y-82698559D01*
X63351890Y-82553569D01*
X63338803Y-82550919D01*
X63551441Y-82414090D01*
X63696431Y-82201890D01*
X63740352Y-81985000D01*
X65384146Y-81985000D01*
X65421838Y-82185317D01*
X65560910Y-82401441D01*
X65773110Y-82546431D01*
X65786197Y-82549081D01*
X65573559Y-82685910D01*
X65428569Y-82898110D01*
X65377560Y-83150000D01*
X65377560Y-84650000D01*
X65421838Y-84885317D01*
X65503155Y-85011687D01*
X60844920Y-89669922D01*
X60674754Y-89924594D01*
X60674754Y-89924595D01*
X60614999Y-90225001D01*
X60614999Y-95299999D01*
X60674754Y-95600406D01*
X60844920Y-95855078D01*
X60894921Y-95905079D01*
X61102560Y-96043819D01*
X61102560Y-96100000D01*
X61146838Y-96335317D01*
X61285910Y-96551441D01*
X61498110Y-96696431D01*
X61750000Y-96747440D01*
X63050000Y-96747440D01*
X63285317Y-96703162D01*
X63501441Y-96564090D01*
X63646431Y-96351890D01*
X63697440Y-96100000D01*
X63697440Y-94600000D01*
X63653162Y-94364683D01*
X63514090Y-94148559D01*
X63301890Y-94003569D01*
X63288803Y-94000919D01*
X63501441Y-93864090D01*
X63646431Y-93651890D01*
X63690352Y-93435000D01*
X65427962Y-93435000D01*
X65446838Y-93535317D01*
X65585910Y-93751441D01*
X65798110Y-93896431D01*
X65811197Y-93899081D01*
X65598559Y-94035910D01*
X65453569Y-94248110D01*
X65402560Y-94500000D01*
X65402560Y-96000000D01*
X65446838Y-96235317D01*
X65528155Y-96361687D01*
X64824995Y-97064847D01*
X64814833Y-97064838D01*
X64471057Y-97206883D01*
X64207808Y-97469673D01*
X64065162Y-97813201D01*
X64064838Y-98185167D01*
X64206883Y-98528943D01*
X64469673Y-98792192D01*
X64813201Y-98934838D01*
X65185167Y-98935162D01*
X65528943Y-98793117D01*
X65792192Y-98530327D01*
X65934838Y-98186799D01*
X65934848Y-98175310D01*
X67255079Y-96855079D01*
X67400120Y-96638009D01*
X67585317Y-96603162D01*
X67801441Y-96464090D01*
X67946431Y-96251890D01*
X67997440Y-96000000D01*
X67997440Y-94500000D01*
X67953162Y-94264683D01*
X67814090Y-94048559D01*
X67601890Y-93903569D01*
X67588803Y-93900919D01*
X67801441Y-93764090D01*
X67946431Y-93551890D01*
X67997440Y-93300000D01*
X67997440Y-91800000D01*
X67953162Y-91564683D01*
X67814090Y-91348559D01*
X67601890Y-91203569D01*
X67350000Y-91152560D01*
X66050000Y-91152560D01*
X65814683Y-91196838D01*
X65598559Y-91335910D01*
X65453569Y-91548110D01*
X65402560Y-91800000D01*
X65402560Y-91865000D01*
X63690854Y-91865000D01*
X63653162Y-91664683D01*
X63514090Y-91448559D01*
X63301890Y-91303569D01*
X63050000Y-91252560D01*
X62184999Y-91252560D01*
X62184999Y-90550159D01*
X67230079Y-85505079D01*
X67375120Y-85288009D01*
X67560317Y-85253162D01*
X67776441Y-85114090D01*
X67921431Y-84901890D01*
X67972440Y-84650000D01*
X67972440Y-83150000D01*
X67928162Y-82914683D01*
X67789090Y-82698559D01*
X67576890Y-82553569D01*
X67563803Y-82550919D01*
X67776441Y-82414090D01*
X67921431Y-82201890D01*
X67972440Y-81950000D01*
X67972440Y-80450000D01*
X67928162Y-80214683D01*
X67789090Y-79998559D01*
X67576890Y-79853569D01*
X67325000Y-79802560D01*
X66025000Y-79802560D01*
X65789683Y-79846838D01*
X65573559Y-79985910D01*
X65428569Y-80198110D01*
X65384648Y-80415000D01*
X63740854Y-80415000D01*
X63703162Y-80214683D01*
X63564090Y-79998559D01*
X63351890Y-79853569D01*
X63100000Y-79802560D01*
X61800000Y-79802560D01*
X61564683Y-79846838D01*
X61348559Y-79985910D01*
X61203569Y-80198110D01*
X61152560Y-80450000D01*
X61152560Y-81950000D01*
X61196838Y-82185317D01*
X61335910Y-82401441D01*
X61548110Y-82546431D01*
X61561197Y-82549081D01*
X61377467Y-82667309D01*
X60380080Y-81669922D01*
X60125408Y-81499756D01*
X59825001Y-81440001D01*
X59047440Y-81440001D01*
X59047440Y-80375000D01*
X59003162Y-80139683D01*
X58864090Y-79923559D01*
X58651890Y-79778569D01*
X58400000Y-79727560D01*
X57100000Y-79727560D01*
X56864683Y-79771838D01*
X56648559Y-79910910D01*
X56503569Y-80123110D01*
X56474836Y-80265000D01*
X54040854Y-80265000D01*
X54003162Y-80064683D01*
X53864090Y-79848559D01*
X53651890Y-79703569D01*
X53400000Y-79652560D01*
X52100000Y-79652560D01*
X51864683Y-79696838D01*
X51648559Y-79835910D01*
X51503569Y-80048110D01*
X51452560Y-80300000D01*
X51452560Y-81800000D01*
X51496838Y-82035317D01*
X51635910Y-82251441D01*
X51848110Y-82396431D01*
X51861197Y-82399081D01*
X51648559Y-82535910D01*
X51503569Y-82748110D01*
X51452560Y-83000000D01*
X51452560Y-84500000D01*
X51496838Y-84735317D01*
X51635910Y-84951441D01*
X51848110Y-85096431D01*
X52100000Y-85147440D01*
X53400000Y-85147440D01*
X53635317Y-85103162D01*
X53851441Y-84964090D01*
X53996431Y-84751890D01*
X54047440Y-84500000D01*
X54047440Y-84443819D01*
X54255079Y-84305079D01*
X55550157Y-83010001D01*
X56465723Y-83010001D01*
X56452560Y-83075000D01*
X56452560Y-84575000D01*
X56496838Y-84810317D01*
X56578155Y-84936687D01*
X51244920Y-90269922D01*
X51074754Y-90524594D01*
X51074754Y-90524595D01*
X51014999Y-90825001D01*
X44785000Y-90825001D01*
X44785000Y-82352276D01*
X51702265Y-75435011D01*
X59649989Y-75435011D01*
X59950396Y-75375256D01*
X60205068Y-75205090D01*
X60755079Y-74655079D01*
X60894555Y-74446337D01*
X60900000Y-74447440D01*
X61500000Y-74447440D01*
X61707342Y-74408426D01*
X61900000Y-74447440D01*
X62500000Y-74447440D01*
X62708850Y-74408142D01*
X62773691Y-74435000D01*
X62914250Y-74435000D01*
X63073000Y-74276250D01*
X63073000Y-74086182D01*
X63096431Y-74051890D01*
X63147440Y-73800000D01*
X63147440Y-72427000D01*
X63327000Y-72427000D01*
X63327000Y-74276250D01*
X63485750Y-74435000D01*
X63626309Y-74435000D01*
X63859698Y-74338327D01*
X64038327Y-74159699D01*
X64135000Y-73926310D01*
X64135000Y-72585750D01*
X63976250Y-72427000D01*
X63327000Y-72427000D01*
X63147440Y-72427000D01*
X63147440Y-70800000D01*
X63103162Y-70564683D01*
X63073000Y-70517810D01*
X63073000Y-70323750D01*
X63327000Y-70323750D01*
X63327000Y-72173000D01*
X63976250Y-72173000D01*
X64135000Y-72014250D01*
X64135000Y-70673690D01*
X64038327Y-70440301D01*
X63859698Y-70261673D01*
X63626309Y-70165000D01*
X63485750Y-70165000D01*
X63327000Y-70323750D01*
X63073000Y-70323750D01*
X62914250Y-70165000D01*
X62902131Y-70165000D01*
X62755079Y-69944921D01*
X62205068Y-69394910D01*
X61950396Y-69224744D01*
X61649989Y-69164989D01*
X53248649Y-69164989D01*
X52948243Y-69224744D01*
X52948241Y-69224745D01*
X52948242Y-69224745D01*
X52693570Y-69394910D01*
X41294891Y-80793589D01*
X41124725Y-81048261D01*
X41124725Y-81048262D01*
X41064970Y-81348668D01*
X41064970Y-98812494D01*
X41057778Y-98819673D01*
X40915132Y-99163201D01*
X40914808Y-99535167D01*
X41056853Y-99878943D01*
X41319643Y-100142192D01*
X41663171Y-100284838D01*
X41714970Y-100284883D01*
X41714970Y-105103860D01*
X41173830Y-105645000D01*
X40619998Y-105645000D01*
X40319591Y-105704755D01*
X40064919Y-105874921D01*
X38704920Y-107234920D01*
X38534754Y-107489592D01*
X38523128Y-107548039D01*
X38474999Y-107789999D01*
X38474999Y-112036001D01*
X38534754Y-112336408D01*
X38704920Y-112591080D01*
X39253854Y-113140014D01*
X39058946Y-113431715D01*
X38945907Y-114000000D01*
X39058946Y-114568285D01*
X39363867Y-115024633D01*
X39250302Y-115071673D01*
X39071673Y-115250301D01*
X38975000Y-115483690D01*
X38975000Y-116174250D01*
X39133750Y-116333000D01*
X40333000Y-116333000D01*
X40333000Y-116313000D01*
X40587000Y-116313000D01*
X40587000Y-116333000D01*
X40607000Y-116333000D01*
X40607000Y-116587000D01*
X40587000Y-116587000D01*
X40587000Y-116607000D01*
X40333000Y-116607000D01*
X40333000Y-116587000D01*
X39133750Y-116587000D01*
X38975000Y-116745750D01*
X38975000Y-117436310D01*
X39071673Y-117669699D01*
X39250302Y-117848327D01*
X39424777Y-117920597D01*
X39380853Y-117949946D01*
X39058946Y-118431715D01*
X38945907Y-119000000D01*
X39058946Y-119568285D01*
X39380853Y-120050054D01*
X39862622Y-120371961D01*
X40430907Y-120485000D01*
X40489093Y-120485000D01*
X41057378Y-120371961D01*
X41539147Y-120050054D01*
X41730000Y-119764422D01*
X41920853Y-120050054D01*
X42402622Y-120371961D01*
X42970907Y-120485000D01*
X43029093Y-120485000D01*
X43597378Y-120371961D01*
X43742240Y-120275167D01*
X49934838Y-120275167D01*
X50076883Y-120618943D01*
X50339673Y-120882192D01*
X50515000Y-120954994D01*
X50515000Y-122462494D01*
X50507808Y-122469673D01*
X50365162Y-122813201D01*
X50364838Y-123185167D01*
X50506883Y-123528943D01*
X50769673Y-123792192D01*
X51113201Y-123934838D01*
X51485167Y-123935162D01*
X51828943Y-123793117D01*
X52092192Y-123530327D01*
X52234838Y-123186799D01*
X52235162Y-122814833D01*
X52093117Y-122471057D01*
X52085000Y-122462926D01*
X52085000Y-120520000D01*
X52025245Y-120219594D01*
X51855079Y-119964921D01*
X51805153Y-119914995D01*
X51805162Y-119904833D01*
X51663117Y-119561057D01*
X51400327Y-119297808D01*
X51056799Y-119155162D01*
X50684833Y-119154838D01*
X50341057Y-119296883D01*
X50077808Y-119559673D01*
X49935162Y-119903201D01*
X49934838Y-120275167D01*
X43742240Y-120275167D01*
X44079147Y-120050054D01*
X44401054Y-119568285D01*
X44514093Y-119000000D01*
X44401054Y-118431715D01*
X44079147Y-117949946D01*
X43749974Y-117730000D01*
X44079147Y-117510054D01*
X44401054Y-117028285D01*
X44514093Y-116460000D01*
X44447076Y-116123082D01*
X47335079Y-113235079D01*
X47505245Y-112980407D01*
X47565000Y-112680000D01*
X47565000Y-108033156D01*
X48786923Y-109255079D01*
X49041596Y-109425245D01*
X49342002Y-109485000D01*
X49972716Y-109485000D01*
X49837808Y-109619673D01*
X49695162Y-109963201D01*
X49694838Y-110335167D01*
X49836883Y-110678943D01*
X50099673Y-110942192D01*
X50185792Y-110977952D01*
X53082919Y-113875079D01*
X53337592Y-114045245D01*
X53604524Y-114098342D01*
X53715910Y-114271441D01*
X53928110Y-114416431D01*
X54180000Y-114467440D01*
X54680000Y-114467440D01*
X54746113Y-114455000D01*
X55281838Y-114455000D01*
X55472683Y-118185000D01*
X55241431Y-118185000D01*
X55180000Y-118172560D01*
X54680000Y-118172560D01*
X54444683Y-118216838D01*
X54228559Y-118355910D01*
X54083569Y-118568110D01*
X54032560Y-118820000D01*
X54032560Y-119543137D01*
X53995162Y-119633201D01*
X53994838Y-120005167D01*
X54032560Y-120096461D01*
X54032560Y-120820000D01*
X54076838Y-121055317D01*
X54215910Y-121271441D01*
X54428110Y-121416431D01*
X54680000Y-121467440D01*
X55180000Y-121467440D01*
X55246113Y-121455000D01*
X55639993Y-121455000D01*
X57423166Y-156306489D01*
X57430307Y-156342458D01*
X57456256Y-156385680D01*
X57496976Y-156415401D01*
X57546051Y-156426939D01*
X71314892Y-156855303D01*
X68053507Y-157191034D01*
X61042283Y-157389934D01*
X53534556Y-157340214D01*
X47564011Y-156797437D01*
X45966565Y-156421567D01*
X44746698Y-155924585D01*
X43954006Y-155352085D01*
X43084135Y-154527997D01*
X42452842Y-153671242D01*
X41164836Y-151238345D01*
X40845563Y-150052474D01*
X40604235Y-148507969D01*
X40407144Y-146635606D01*
X39508354Y-134951327D01*
X39058705Y-127517135D01*
X39057045Y-127510813D01*
X39058305Y-127500963D01*
X38608305Y-121000964D01*
X38608097Y-121000200D01*
X38608196Y-120999414D01*
X38108479Y-114003377D01*
X37809363Y-109018110D01*
X37659681Y-104028710D01*
X37659303Y-104027070D01*
X37659574Y-104025411D01*
X37310000Y-93937704D01*
X37310000Y-91324285D01*
X37564760Y-91324285D01*
X37606217Y-91424618D01*
X37565241Y-91523298D01*
X37564760Y-92074285D01*
X37565196Y-92075339D01*
X37564760Y-92574285D01*
X37606217Y-92674618D01*
X37565241Y-92773298D01*
X37564760Y-93324285D01*
X37565196Y-93325339D01*
X37564760Y-93824285D01*
X37775169Y-94333515D01*
X38164436Y-94723461D01*
X38673298Y-94934759D01*
X39224285Y-94935240D01*
X39733515Y-94724831D01*
X40123461Y-94335564D01*
X40334759Y-93826702D01*
X40335240Y-93275715D01*
X40334804Y-93274661D01*
X40335240Y-92775715D01*
X40293783Y-92675382D01*
X40334759Y-92576702D01*
X40335240Y-92025715D01*
X40334804Y-92024661D01*
X40335240Y-91525715D01*
X40293783Y-91425382D01*
X40334759Y-91326702D01*
X40335240Y-90775715D01*
X40124831Y-90266485D01*
X39735564Y-89876539D01*
X39226702Y-89665241D01*
X38675715Y-89664760D01*
X38166485Y-89875169D01*
X37776539Y-90264436D01*
X37565241Y-90773298D01*
X37564760Y-91324285D01*
X37310000Y-91324285D01*
X37310000Y-90959247D01*
X37659522Y-77527605D01*
X37732229Y-76123795D01*
X40314716Y-76123795D01*
X40563106Y-76724943D01*
X41022637Y-77185278D01*
X41623352Y-77434716D01*
X42273795Y-77435284D01*
X42874943Y-77186894D01*
X43335278Y-76727363D01*
X43584716Y-76126648D01*
X43585284Y-75476205D01*
X43336894Y-74875057D01*
X42877363Y-74414722D01*
X42276648Y-74165284D01*
X41626205Y-74164716D01*
X41025057Y-74413106D01*
X40564722Y-74872637D01*
X40315284Y-75473352D01*
X40314716Y-76123795D01*
X37732229Y-76123795D01*
X37822498Y-74380926D01*
X38164436Y-74723461D01*
X38673298Y-74934759D01*
X39224285Y-74935240D01*
X39733515Y-74724831D01*
X40123461Y-74335564D01*
X40334759Y-73826702D01*
X40335240Y-73275715D01*
X40334804Y-73274661D01*
X40335240Y-72775715D01*
X40293783Y-72675382D01*
X40334759Y-72576702D01*
X40335240Y-72025715D01*
X40293783Y-71925382D01*
X40334759Y-71826702D01*
X40335240Y-71275715D01*
X40334804Y-71274661D01*
X40335240Y-70775715D01*
X40124831Y-70266485D01*
X39735564Y-69876539D01*
X39226702Y-69665241D01*
X38675715Y-69664760D01*
X38166485Y-69875169D01*
X38049832Y-69991619D01*
X38308305Y-65001107D01*
X38805354Y-59632982D01*
X39549259Y-54425641D01*
X40585483Y-49650000D01*
X56333112Y-49650000D01*
X56608431Y-51034123D01*
X57392474Y-52207526D01*
X58565877Y-52991569D01*
X59950000Y-53266888D01*
X61334123Y-52991569D01*
X62507526Y-52207526D01*
X63291569Y-51034123D01*
X63566888Y-49650000D01*
X63291569Y-48265877D01*
X62507526Y-47092474D01*
X61334123Y-46308431D01*
X59950000Y-46033112D01*
X58565877Y-46308431D01*
X57392474Y-47092474D01*
X56608431Y-48265877D01*
X56333112Y-49650000D01*
X40585483Y-49650000D01*
X40673723Y-49243331D01*
X41229433Y-48174659D01*
X42004659Y-47399433D01*
X43149979Y-46620615D01*
X44257454Y-46113023D01*
X45578830Y-45688294D01*
X47003693Y-45403322D01*
X52694489Y-44858985D01*
X57660657Y-44710000D01*
X62578286Y-44710000D01*
X67444321Y-45007921D01*
M02*
