G04 #@! TF.FileFunction,Copper,L2,Bot,Signal*
%FSLAX46Y46*%
G04 Gerber Fmt 4.6, Leading zero omitted, Abs format (unit mm)*
G04 Created by KiCad (PCBNEW 4.0.7) date Mon Aug 20 13:26:01 2018*
%MOMM*%
%LPD*%
G01*
G04 APERTURE LIST*
%ADD10C,0.100000*%
%ADD11R,1.700000X1.700000*%
%ADD12O,1.700000X1.700000*%
%ADD13R,2.750000X1.000000*%
%ADD14C,2.000000*%
%ADD15R,1.500000X3.000000*%
%ADD16O,2.000000X4.500000*%
%ADD17R,0.550000X0.300000*%
%ADD18R,0.300000X0.550000*%
%ADD19R,1.800000X1.800000*%
%ADD20R,0.600000X1.500000*%
%ADD21R,1.500000X0.600000*%
%ADD22R,1.250000X1.500000*%
%ADD23R,1.500000X1.250000*%
%ADD24R,1.000000X1.000000*%
%ADD25R,1.300000X1.500000*%
%ADD26R,1.500000X1.300000*%
%ADD27R,2.100000X1.800000*%
%ADD28R,2.540000X3.510000*%
%ADD29C,0.600000*%
%ADD30C,1.000000*%
%ADD31C,0.300000*%
%ADD32C,1.000000*%
%ADD33C,0.254000*%
G04 APERTURE END LIST*
D10*
D11*
X40460000Y-108920000D03*
D12*
X43000000Y-108920000D03*
X40460000Y-111460000D03*
X43000000Y-111460000D03*
X40460000Y-114000000D03*
X43000000Y-114000000D03*
D11*
X40460000Y-116460000D03*
D12*
X43000000Y-116460000D03*
X40460000Y-119000000D03*
X43000000Y-119000000D03*
D13*
X44025000Y-146100000D03*
X49775000Y-146100000D03*
X49775000Y-142100000D03*
X44025000Y-142100000D03*
D14*
X76450000Y-102300000D03*
D15*
X78200000Y-72300000D03*
X78200000Y-92300000D03*
X40200000Y-92300000D03*
X40200000Y-72300000D03*
D16*
X79450000Y-92300000D03*
X38950000Y-92300000D03*
X79450000Y-72300000D03*
X38950000Y-72300000D03*
D14*
X41950000Y-75800000D03*
D17*
X61400000Y-107710000D03*
X61400000Y-108210000D03*
X61400000Y-108710000D03*
X61400000Y-109210000D03*
X61400000Y-109710000D03*
D18*
X60800000Y-110310000D03*
X60300000Y-110310000D03*
X59800000Y-110310000D03*
X59300000Y-110310000D03*
X58800000Y-110310000D03*
D17*
X58200000Y-109710000D03*
X58200000Y-109210000D03*
X58200000Y-108710000D03*
X58200000Y-108210000D03*
X58200000Y-107710000D03*
D18*
X58800000Y-107110000D03*
X59300000Y-107110000D03*
X59800000Y-107110000D03*
X60300000Y-107110000D03*
X60800000Y-107110000D03*
D19*
X59800000Y-108710000D03*
D20*
X48230000Y-101650000D03*
X49030000Y-101650000D03*
X49830000Y-101650000D03*
X50630000Y-101650000D03*
X51430000Y-101650000D03*
X52230000Y-101650000D03*
X53030000Y-101650000D03*
X53830000Y-101650000D03*
D21*
X55280000Y-103100000D03*
X55280000Y-103900000D03*
X55280000Y-104700000D03*
X55280000Y-105500000D03*
X55280000Y-106300000D03*
X55280000Y-107100000D03*
X55280000Y-107900000D03*
X55280000Y-108700000D03*
D20*
X53830000Y-110150000D03*
X53030000Y-110150000D03*
X52230000Y-110150000D03*
X51430000Y-110150000D03*
X50630000Y-110150000D03*
X49830000Y-110150000D03*
X49030000Y-110150000D03*
X48230000Y-110150000D03*
D21*
X46780000Y-108700000D03*
X46780000Y-107900000D03*
X46780000Y-107100000D03*
X46780000Y-106300000D03*
X46780000Y-105500000D03*
X46780000Y-104700000D03*
X46780000Y-103900000D03*
X46780000Y-103100000D03*
D22*
X45960000Y-119930000D03*
X45960000Y-117430000D03*
D23*
X73400000Y-102810000D03*
X70900000Y-102810000D03*
X73400000Y-106910000D03*
X70900000Y-106910000D03*
X73400000Y-104810000D03*
X70900000Y-104810000D03*
X73390000Y-109050000D03*
X70890000Y-109050000D03*
D22*
X52790000Y-126190000D03*
X52790000Y-128690000D03*
X49800000Y-126160000D03*
X49800000Y-128660000D03*
X46720000Y-126160000D03*
X46720000Y-128660000D03*
D23*
X70890000Y-111180000D03*
X68390000Y-111180000D03*
D22*
X53310000Y-117370000D03*
X53310000Y-119870000D03*
D24*
X38500000Y-103000000D03*
X41000000Y-103000000D03*
D25*
X48440000Y-117410000D03*
X48440000Y-120110000D03*
X43420000Y-125640000D03*
X43420000Y-122940000D03*
D26*
X51300000Y-123000000D03*
X54000000Y-123000000D03*
X49000000Y-123000000D03*
X46300000Y-123000000D03*
X47870000Y-113990000D03*
X50570000Y-113990000D03*
D25*
X50870000Y-120090000D03*
X50870000Y-117390000D03*
X48730000Y-98710000D03*
X48730000Y-96010000D03*
X40000000Y-99000000D03*
X40000000Y-96300000D03*
D26*
X42000000Y-105000000D03*
X39300000Y-105000000D03*
D25*
X43480000Y-132180000D03*
X43480000Y-129480000D03*
D27*
X64430000Y-103350000D03*
X67330000Y-103350000D03*
X67330000Y-105650000D03*
X64430000Y-105650000D03*
X46300000Y-95600000D03*
X43400000Y-95600000D03*
X43400000Y-93300000D03*
X46300000Y-93300000D03*
D28*
X74350000Y-88100000D03*
X44990000Y-88100000D03*
D29*
X57200000Y-72300000D03*
X50630000Y-110150000D03*
X65000000Y-98000000D03*
X51430000Y-110150000D03*
X38500000Y-103000000D03*
X43480000Y-132180000D03*
X53030000Y-110150000D03*
X52230000Y-101650000D03*
X50630000Y-101650000D03*
X73450000Y-109060000D03*
X73400000Y-106910000D03*
X73400000Y-104810000D03*
X73400000Y-102810000D03*
X60060000Y-111120000D03*
D30*
X78350000Y-88100000D03*
D29*
X57425158Y-109872654D03*
X57020000Y-107059992D03*
X44136096Y-104500012D03*
X41849970Y-99350000D03*
X52080000Y-106250000D03*
X55280000Y-108700000D03*
X55280000Y-107900000D03*
X52829620Y-105910380D03*
X59350000Y-95320000D03*
X48915512Y-105822696D03*
X49097553Y-103350001D03*
X50000000Y-107000000D03*
X50000000Y-103000000D03*
X51300000Y-123000000D03*
X50870000Y-120090000D03*
X54930000Y-119820000D03*
X68390000Y-111180000D03*
X62510000Y-109880000D03*
X46780000Y-107100000D03*
D31*
X40000000Y-96300000D02*
X42700000Y-96300000D01*
X42700000Y-96300000D02*
X43400000Y-95600000D01*
X49830000Y-101650000D02*
X49830000Y-100769998D01*
X49830000Y-100769998D02*
X50049999Y-100549999D01*
X50049999Y-100549999D02*
X51379999Y-100549999D01*
X51379999Y-100549999D02*
X51430000Y-100600000D01*
X51430000Y-100600000D02*
X51430000Y-101650000D01*
X50630000Y-110150000D02*
X50630000Y-108407998D01*
X50630000Y-108407998D02*
X51430000Y-107607998D01*
X51430000Y-107607998D02*
X51430000Y-101650000D01*
X59300000Y-111322002D02*
X50752002Y-111322002D01*
X50752002Y-111322002D02*
X50630000Y-111200000D01*
X50630000Y-111200000D02*
X50630000Y-110150000D01*
X60800000Y-110310000D02*
X60800000Y-111342002D01*
X60800000Y-111342002D02*
X60372001Y-111770001D01*
X60372001Y-111770001D02*
X59747999Y-111770001D01*
X59747999Y-111770001D02*
X59300000Y-111322002D01*
X59300000Y-111322002D02*
X59300000Y-110310000D01*
X49830000Y-101650000D02*
X49830000Y-100360000D01*
X51430000Y-101650000D02*
X51430000Y-100260000D01*
X61400000Y-107710000D02*
X62350000Y-107710000D01*
X39300000Y-105000000D02*
X39300000Y-103800000D01*
X39300000Y-103800000D02*
X38500000Y-103000000D01*
X60060000Y-110310000D02*
X60300000Y-110310000D01*
X59800000Y-110310000D02*
X60060000Y-110310000D01*
X60060000Y-110310000D02*
X60060000Y-111120000D01*
D32*
X74350000Y-88100000D02*
X78350000Y-88100000D01*
D31*
X57425158Y-109872654D02*
X57425158Y-109409842D01*
X57425158Y-109409842D02*
X57625000Y-109210000D01*
X57625000Y-109210000D02*
X58200000Y-109210000D01*
X55280000Y-107100000D02*
X56979992Y-107100000D01*
X56979992Y-107100000D02*
X57020000Y-107059992D01*
X41849970Y-99350000D02*
X41849970Y-102213886D01*
X41849970Y-102213886D02*
X44136096Y-104500012D01*
X53830000Y-110150000D02*
X53830000Y-108000000D01*
X53830000Y-108000000D02*
X52080000Y-106250000D01*
X58200000Y-108710000D02*
X57417880Y-108710000D01*
X56204998Y-109922882D02*
X56204998Y-110150000D01*
X57417880Y-108710000D02*
X56204998Y-109922882D01*
X53830000Y-110150000D02*
X56204998Y-110150000D01*
X55130000Y-108550000D02*
X55280000Y-108700000D01*
X58200000Y-108210000D02*
X56727120Y-108210000D01*
X56727120Y-108210000D02*
X56237120Y-108700000D01*
X56237120Y-108700000D02*
X55280000Y-108700000D01*
X55280000Y-107900000D02*
X56330000Y-107900000D01*
X56330000Y-107900000D02*
X56520008Y-107709992D01*
X56520008Y-107709992D02*
X57849992Y-107709992D01*
X57849992Y-107709992D02*
X57850000Y-107710000D01*
X57850000Y-107710000D02*
X58200000Y-107710000D01*
X55280000Y-106300000D02*
X58115000Y-106300000D01*
X58115000Y-106300000D02*
X58800000Y-106985000D01*
X58800000Y-106985000D02*
X58800000Y-107110000D01*
X46300000Y-95600000D02*
X48320000Y-95600000D01*
X48320000Y-95600000D02*
X48730000Y-96010000D01*
X53830000Y-101650000D02*
X53830000Y-100402880D01*
X53830000Y-100402880D02*
X48937110Y-95509990D01*
X48937110Y-95509990D02*
X48522890Y-95509990D01*
X48522890Y-95509990D02*
X48376440Y-95656440D01*
X48730000Y-96110000D02*
X48730000Y-96010000D01*
X52829620Y-105910380D02*
X53240000Y-105500000D01*
X53240000Y-105500000D02*
X55280000Y-105500000D01*
X55280000Y-104700000D02*
X56330000Y-104700000D01*
X56330000Y-104700000D02*
X59350000Y-101680000D01*
X59350000Y-101680000D02*
X59350000Y-95320000D01*
X49499990Y-105281079D02*
X49457129Y-105281079D01*
X49457129Y-105281079D02*
X48915512Y-105822696D01*
X49097553Y-103350001D02*
X49135553Y-103312001D01*
X49135553Y-103312001D02*
X49392001Y-103312001D01*
X49392001Y-103312001D02*
X49499990Y-103419990D01*
X49499990Y-103419990D02*
X49499990Y-105281079D01*
X48230000Y-110150000D02*
X48230000Y-109100000D01*
X48230000Y-109100000D02*
X50000000Y-107330000D01*
X50000000Y-107330000D02*
X50000000Y-107000000D01*
X46780000Y-107900000D02*
X47830000Y-107900000D01*
X47830000Y-107900000D02*
X50000000Y-105730000D01*
X50000000Y-105730000D02*
X50000000Y-103000000D01*
X41690000Y-135870000D02*
X41799999Y-135760001D01*
X41799999Y-115339999D02*
X40460000Y-114000000D01*
X41799999Y-135760001D02*
X41799999Y-115339999D01*
X42350000Y-146100000D02*
X41690000Y-145440000D01*
X41690000Y-145440000D02*
X41690000Y-135870000D01*
X44025000Y-146100000D02*
X42350000Y-146100000D01*
X44025000Y-146100000D02*
X49775000Y-146100000D01*
X41000000Y-103000000D02*
X41000000Y-99050000D01*
X41000000Y-99050000D02*
X40950000Y-99000000D01*
X40950000Y-99000000D02*
X40000000Y-99000000D01*
X42000000Y-105000000D02*
X41900000Y-105000000D01*
X41900000Y-105000000D02*
X39259999Y-107640001D01*
X39259999Y-112799999D02*
X40460000Y-114000000D01*
X39259999Y-107640001D02*
X39259999Y-112799999D01*
X41000000Y-103000000D02*
X41000000Y-104000000D01*
X41000000Y-104000000D02*
X42000000Y-105000000D01*
X40460000Y-114000000D02*
X41799999Y-112660001D01*
X43576001Y-107719999D02*
X43576001Y-107653999D01*
X41799999Y-112660001D02*
X41799999Y-110744001D01*
X41799999Y-110744001D02*
X42423999Y-110120001D01*
X44200001Y-108343999D02*
X43576001Y-107719999D01*
X42423999Y-110120001D02*
X43576001Y-110120001D01*
X43576001Y-110120001D02*
X44200001Y-109496001D01*
X44200001Y-109496001D02*
X44200001Y-108343999D01*
X43576001Y-107653999D02*
X45730000Y-105500000D01*
X45730000Y-105500000D02*
X46780000Y-105500000D01*
X43000000Y-108920000D02*
X43000000Y-107480000D01*
X43000000Y-107480000D02*
X45780000Y-104700000D01*
X45780000Y-104700000D02*
X46780000Y-104700000D01*
X41080000Y-108920000D02*
X42499990Y-107500010D01*
X42499990Y-107500010D02*
X42499990Y-107130010D01*
X42499990Y-107130010D02*
X45730000Y-103900000D01*
X45730000Y-103900000D02*
X46780000Y-103900000D01*
X40460000Y-108920000D02*
X41080000Y-108920000D01*
X45960000Y-117430000D02*
X48420000Y-117430000D01*
X48420000Y-117430000D02*
X48440000Y-117410000D01*
X50870000Y-120090000D02*
X50870000Y-119990000D01*
X51400000Y-123000000D02*
X51300000Y-123000000D01*
X50870000Y-120090000D02*
X53090000Y-120090000D01*
X53090000Y-120090000D02*
X53310000Y-119870000D01*
X48440000Y-120110000D02*
X50850000Y-120110000D01*
X50850000Y-120110000D02*
X50870000Y-120090000D01*
X52790000Y-126190000D02*
X51865000Y-126190000D01*
X51865000Y-126190000D02*
X51300000Y-125625000D01*
X51300000Y-125625000D02*
X51300000Y-123000000D01*
X49000000Y-123000000D02*
X49000000Y-122050000D01*
X49000000Y-122050000D02*
X49050001Y-121999999D01*
X49050001Y-121999999D02*
X52899999Y-121999999D01*
X52899999Y-121999999D02*
X53900000Y-123000000D01*
X53900000Y-123000000D02*
X54000000Y-123000000D01*
X49800000Y-126160000D02*
X49800000Y-125110000D01*
X49800000Y-125110000D02*
X49000000Y-124310000D01*
X49000000Y-124310000D02*
X49000000Y-123000000D01*
X54930000Y-119820000D02*
X54930000Y-121120000D01*
X54930000Y-121120000D02*
X54550011Y-121499989D01*
X54550011Y-121499989D02*
X47900011Y-121499989D01*
X47900011Y-121499989D02*
X46400000Y-123000000D01*
X46400000Y-123000000D02*
X46300000Y-123000000D01*
X46720000Y-126160000D02*
X46720000Y-123420000D01*
X46720000Y-123420000D02*
X46300000Y-123000000D01*
X43420000Y-125640000D02*
X43420000Y-129420000D01*
X43420000Y-129420000D02*
X43480000Y-129480000D01*
X43280000Y-94850000D02*
X43280000Y-93650000D01*
X48730000Y-98710000D02*
X48730000Y-98610000D01*
X48730000Y-98610000D02*
X46970001Y-96850001D01*
X46970001Y-96850001D02*
X44969999Y-96850001D01*
X44969999Y-96850001D02*
X44899999Y-96780001D01*
X44899999Y-96780001D02*
X44899999Y-94562879D01*
X44899999Y-94562879D02*
X43487110Y-93149990D01*
X43487110Y-93149990D02*
X43400000Y-93149990D01*
X48730000Y-98710000D02*
X51140000Y-98710000D01*
X51140000Y-98710000D02*
X53030000Y-100600000D01*
X53030000Y-100600000D02*
X53030000Y-101650000D01*
X46090000Y-115170000D02*
X46090000Y-111820000D01*
X46090000Y-111820000D02*
X46460000Y-111450000D01*
X44730000Y-116530000D02*
X46090000Y-115170000D01*
X45035000Y-119930000D02*
X44730000Y-119625000D01*
X44730000Y-119625000D02*
X44730000Y-116530000D01*
X45960000Y-119930000D02*
X45035000Y-119930000D01*
X50992891Y-112270011D02*
X60579111Y-112270011D01*
X46460000Y-111450000D02*
X50172880Y-111450000D01*
X50172880Y-111450000D02*
X50992891Y-112270011D01*
X60579111Y-112270011D02*
X61400000Y-111449122D01*
X61400000Y-111449122D02*
X61400000Y-109710000D01*
X43420000Y-122940000D02*
X43420000Y-122840000D01*
X43420000Y-122840000D02*
X45960000Y-120300000D01*
X45960000Y-120300000D02*
X45960000Y-119930000D01*
X47870000Y-113990000D02*
X47870000Y-113040000D01*
X47870000Y-113040000D02*
X48139979Y-112770021D01*
X48139979Y-112770021D02*
X60786221Y-112770021D01*
X60786221Y-112770021D02*
X62510000Y-111046242D01*
X62510000Y-111046242D02*
X62510000Y-109880000D01*
X61400000Y-109210000D02*
X61840000Y-109210000D01*
X61840000Y-109210000D02*
X62510000Y-109880000D01*
X50870000Y-117390000D02*
X50870000Y-117290000D01*
X50870000Y-117290000D02*
X47870000Y-114290000D01*
X47870000Y-114290000D02*
X47870000Y-113990000D01*
X50570000Y-113990000D02*
X60273362Y-113990000D01*
X63160001Y-111103361D02*
X63160001Y-109590001D01*
X60273362Y-113990000D02*
X63160001Y-111103361D01*
X63160001Y-109590001D02*
X62280000Y-108710000D01*
X62280000Y-108710000D02*
X61400000Y-108710000D01*
X50570000Y-113990000D02*
X50670000Y-113990000D01*
X50670000Y-113990000D02*
X53310000Y-116630000D01*
X53310000Y-116630000D02*
X53310000Y-117370000D01*
X59300000Y-107110000D02*
X59300000Y-106280000D01*
X59300000Y-106280000D02*
X62230000Y-103350000D01*
X62230000Y-103350000D02*
X64430000Y-103350000D01*
X61860000Y-105920000D02*
X63510000Y-107570000D01*
X63510000Y-107570000D02*
X65260000Y-107570000D01*
X67180000Y-105650000D02*
X67330000Y-105650000D01*
X65260000Y-107570000D02*
X67180000Y-105650000D01*
X60415000Y-105920000D02*
X61860000Y-105920000D01*
X59800000Y-107110000D02*
X59800000Y-106535000D01*
X59800000Y-106535000D02*
X60415000Y-105920000D01*
X46630001Y-107249999D02*
X46780000Y-107100000D01*
X43000000Y-119000000D02*
X43000000Y-118236002D01*
X43000000Y-118236002D02*
X44229990Y-117006012D01*
X44229990Y-117006012D02*
X44229990Y-110173132D01*
X45660000Y-106300000D02*
X46780000Y-106300000D01*
X44229990Y-110173132D02*
X44700011Y-109703111D01*
X44700011Y-109703111D02*
X44700011Y-108136889D01*
X44700011Y-108136889D02*
X44280000Y-107716878D01*
X44280000Y-107716878D02*
X44280000Y-107680000D01*
X44280000Y-107680000D02*
X45660000Y-106300000D01*
D33*
G36*
X67444321Y-45007921D02*
X72561283Y-45499936D01*
X74702773Y-46151694D01*
X77025573Y-47609138D01*
X78229743Y-49660686D01*
X78650464Y-51624050D01*
X79643016Y-58671172D01*
X80091309Y-66043096D01*
X80306972Y-69637476D01*
X80075687Y-69482937D01*
X79450000Y-69358480D01*
X78824313Y-69482937D01*
X78293880Y-69837360D01*
X78083271Y-70152560D01*
X77450000Y-70152560D01*
X77214683Y-70196838D01*
X76998559Y-70335910D01*
X76853569Y-70548110D01*
X76802560Y-70800000D01*
X76802560Y-73800000D01*
X76846838Y-74035317D01*
X76985910Y-74251441D01*
X77198110Y-74396431D01*
X77450000Y-74447440D01*
X78083271Y-74447440D01*
X78293880Y-74762640D01*
X78824313Y-75117063D01*
X79450000Y-75241520D01*
X80075687Y-75117063D01*
X80606120Y-74762640D01*
X80622269Y-74738471D01*
X80640884Y-75036310D01*
X80839806Y-80009361D01*
X80703795Y-89983541D01*
X80606120Y-89837360D01*
X80075687Y-89482937D01*
X79450000Y-89358480D01*
X78824313Y-89482937D01*
X78293880Y-89837360D01*
X78083271Y-90152560D01*
X77450000Y-90152560D01*
X77214683Y-90196838D01*
X76998559Y-90335910D01*
X76853569Y-90548110D01*
X76802560Y-90800000D01*
X76802560Y-93800000D01*
X76846838Y-94035317D01*
X76985910Y-94251441D01*
X77198110Y-94396431D01*
X77450000Y-94447440D01*
X78083271Y-94447440D01*
X78293880Y-94762640D01*
X78824313Y-95117063D01*
X79450000Y-95241520D01*
X80075687Y-95117063D01*
X80595536Y-94769712D01*
X80590300Y-94979132D01*
X80340405Y-102376027D01*
X80340715Y-102377919D01*
X80340288Y-102379787D01*
X79890319Y-118178708D01*
X79690895Y-124460543D01*
X77399705Y-153249843D01*
X77235061Y-153710847D01*
X75600615Y-155345293D01*
X74714225Y-155921446D01*
X73781956Y-156320990D01*
X71387004Y-156847880D01*
X68053507Y-157191034D01*
X61042283Y-157389934D01*
X53534556Y-157340214D01*
X47564011Y-156797437D01*
X45966565Y-156421567D01*
X44746698Y-155924585D01*
X43954006Y-155352085D01*
X43084135Y-154527997D01*
X42452842Y-153671242D01*
X41164836Y-151238345D01*
X40845563Y-150052474D01*
X40604235Y-148507969D01*
X40407144Y-146635606D01*
X39508354Y-134951327D01*
X39058705Y-127517135D01*
X39057045Y-127510813D01*
X39058305Y-127500963D01*
X38608305Y-121000964D01*
X38608097Y-121000200D01*
X38608196Y-120999414D01*
X38490873Y-119356890D01*
X39018524Y-119356890D01*
X39188355Y-119766924D01*
X39578642Y-120195183D01*
X40103108Y-120441486D01*
X40333000Y-120320819D01*
X40333000Y-119127000D01*
X39139845Y-119127000D01*
X39018524Y-119356890D01*
X38490873Y-119356890D01*
X38108479Y-114003377D01*
X37809363Y-109018110D01*
X37659905Y-104036163D01*
X37748110Y-104096431D01*
X37945802Y-104136465D01*
X37902560Y-104350000D01*
X37902560Y-105650000D01*
X37946838Y-105885317D01*
X38085910Y-106101441D01*
X38298110Y-106246431D01*
X38550000Y-106297440D01*
X39492402Y-106297440D01*
X38704920Y-107084922D01*
X38534754Y-107339594D01*
X38482956Y-107600000D01*
X38474999Y-107640001D01*
X38474999Y-112799999D01*
X38534754Y-113100406D01*
X38704920Y-113355078D01*
X39012924Y-113663082D01*
X38945907Y-114000000D01*
X39058946Y-114568285D01*
X39358804Y-115017056D01*
X39158559Y-115145910D01*
X39013569Y-115358110D01*
X38962560Y-115610000D01*
X38962560Y-117310000D01*
X39006838Y-117545317D01*
X39145910Y-117761441D01*
X39358110Y-117906431D01*
X39466107Y-117928301D01*
X39188355Y-118233076D01*
X39018524Y-118643110D01*
X39139845Y-118873000D01*
X40333000Y-118873000D01*
X40333000Y-118853000D01*
X40587000Y-118853000D01*
X40587000Y-118873000D01*
X40607000Y-118873000D01*
X40607000Y-119127000D01*
X40587000Y-119127000D01*
X40587000Y-120320819D01*
X40816892Y-120441486D01*
X41014999Y-120348450D01*
X41014999Y-135494397D01*
X40964755Y-135569593D01*
X40964755Y-135569594D01*
X40905000Y-135870000D01*
X40905000Y-145440000D01*
X40964755Y-145740407D01*
X41134921Y-145995079D01*
X41794921Y-146655079D01*
X42044274Y-146821691D01*
X42046838Y-146835317D01*
X42185910Y-147051441D01*
X42398110Y-147196431D01*
X42650000Y-147247440D01*
X45400000Y-147247440D01*
X45635317Y-147203162D01*
X45851441Y-147064090D01*
X45973808Y-146885000D01*
X47828808Y-146885000D01*
X47935910Y-147051441D01*
X48148110Y-147196431D01*
X48400000Y-147247440D01*
X51150000Y-147247440D01*
X51385317Y-147203162D01*
X51601441Y-147064090D01*
X51746431Y-146851890D01*
X51797440Y-146600000D01*
X51797440Y-145600000D01*
X51753162Y-145364683D01*
X51614090Y-145148559D01*
X51401890Y-145003569D01*
X51150000Y-144952560D01*
X48400000Y-144952560D01*
X48164683Y-144996838D01*
X47948559Y-145135910D01*
X47826192Y-145315000D01*
X45971192Y-145315000D01*
X45864090Y-145148559D01*
X45651890Y-145003569D01*
X45400000Y-144952560D01*
X42650000Y-144952560D01*
X42475000Y-144985489D01*
X42475000Y-143214832D01*
X42523691Y-143235000D01*
X43739250Y-143235000D01*
X43898000Y-143076250D01*
X43898000Y-142227000D01*
X44152000Y-142227000D01*
X44152000Y-143076250D01*
X44310750Y-143235000D01*
X45526309Y-143235000D01*
X45759698Y-143138327D01*
X45938327Y-142959699D01*
X46035000Y-142726310D01*
X46035000Y-142385750D01*
X47765000Y-142385750D01*
X47765000Y-142726310D01*
X47861673Y-142959699D01*
X48040302Y-143138327D01*
X48273691Y-143235000D01*
X49489250Y-143235000D01*
X49648000Y-143076250D01*
X49648000Y-142227000D01*
X49902000Y-142227000D01*
X49902000Y-143076250D01*
X50060750Y-143235000D01*
X51276309Y-143235000D01*
X51509698Y-143138327D01*
X51688327Y-142959699D01*
X51785000Y-142726310D01*
X51785000Y-142385750D01*
X51626250Y-142227000D01*
X49902000Y-142227000D01*
X49648000Y-142227000D01*
X47923750Y-142227000D01*
X47765000Y-142385750D01*
X46035000Y-142385750D01*
X45876250Y-142227000D01*
X44152000Y-142227000D01*
X43898000Y-142227000D01*
X43878000Y-142227000D01*
X43878000Y-141973000D01*
X43898000Y-141973000D01*
X43898000Y-141123750D01*
X44152000Y-141123750D01*
X44152000Y-141973000D01*
X45876250Y-141973000D01*
X46035000Y-141814250D01*
X46035000Y-141473690D01*
X47765000Y-141473690D01*
X47765000Y-141814250D01*
X47923750Y-141973000D01*
X49648000Y-141973000D01*
X49648000Y-141123750D01*
X49902000Y-141123750D01*
X49902000Y-141973000D01*
X51626250Y-141973000D01*
X51785000Y-141814250D01*
X51785000Y-141473690D01*
X51688327Y-141240301D01*
X51509698Y-141061673D01*
X51276309Y-140965000D01*
X50060750Y-140965000D01*
X49902000Y-141123750D01*
X49648000Y-141123750D01*
X49489250Y-140965000D01*
X48273691Y-140965000D01*
X48040302Y-141061673D01*
X47861673Y-141240301D01*
X47765000Y-141473690D01*
X46035000Y-141473690D01*
X45938327Y-141240301D01*
X45759698Y-141061673D01*
X45526309Y-140965000D01*
X44310750Y-140965000D01*
X44152000Y-141123750D01*
X43898000Y-141123750D01*
X43739250Y-140965000D01*
X42523691Y-140965000D01*
X42475000Y-140985168D01*
X42475000Y-136135604D01*
X42525244Y-136060408D01*
X42584999Y-135760001D01*
X42584999Y-133527826D01*
X42830000Y-133577440D01*
X44130000Y-133577440D01*
X44365317Y-133533162D01*
X44581441Y-133394090D01*
X44726431Y-133181890D01*
X44777440Y-132930000D01*
X44777440Y-131430000D01*
X44733162Y-131194683D01*
X44594090Y-130978559D01*
X44381890Y-130833569D01*
X44368803Y-130830919D01*
X44581441Y-130694090D01*
X44726431Y-130481890D01*
X44777440Y-130230000D01*
X44777440Y-128945750D01*
X45460000Y-128945750D01*
X45460000Y-129536309D01*
X45556673Y-129769698D01*
X45735301Y-129948327D01*
X45968690Y-130045000D01*
X46434250Y-130045000D01*
X46593000Y-129886250D01*
X46593000Y-128787000D01*
X46847000Y-128787000D01*
X46847000Y-129886250D01*
X47005750Y-130045000D01*
X47471310Y-130045000D01*
X47704699Y-129948327D01*
X47883327Y-129769698D01*
X47980000Y-129536309D01*
X47980000Y-128945750D01*
X48540000Y-128945750D01*
X48540000Y-129536309D01*
X48636673Y-129769698D01*
X48815301Y-129948327D01*
X49048690Y-130045000D01*
X49514250Y-130045000D01*
X49673000Y-129886250D01*
X49673000Y-128787000D01*
X49927000Y-128787000D01*
X49927000Y-129886250D01*
X50085750Y-130045000D01*
X50551310Y-130045000D01*
X50784699Y-129948327D01*
X50963327Y-129769698D01*
X51060000Y-129536309D01*
X51060000Y-128975750D01*
X51530000Y-128975750D01*
X51530000Y-129566309D01*
X51626673Y-129799698D01*
X51805301Y-129978327D01*
X52038690Y-130075000D01*
X52504250Y-130075000D01*
X52663000Y-129916250D01*
X52663000Y-128817000D01*
X52917000Y-128817000D01*
X52917000Y-129916250D01*
X53075750Y-130075000D01*
X53541310Y-130075000D01*
X53774699Y-129978327D01*
X53953327Y-129799698D01*
X54050000Y-129566309D01*
X54050000Y-128975750D01*
X53891250Y-128817000D01*
X52917000Y-128817000D01*
X52663000Y-128817000D01*
X51688750Y-128817000D01*
X51530000Y-128975750D01*
X51060000Y-128975750D01*
X51060000Y-128945750D01*
X50901250Y-128787000D01*
X49927000Y-128787000D01*
X49673000Y-128787000D01*
X48698750Y-128787000D01*
X48540000Y-128945750D01*
X47980000Y-128945750D01*
X47821250Y-128787000D01*
X46847000Y-128787000D01*
X46593000Y-128787000D01*
X45618750Y-128787000D01*
X45460000Y-128945750D01*
X44777440Y-128945750D01*
X44777440Y-128730000D01*
X44733162Y-128494683D01*
X44594090Y-128278559D01*
X44381890Y-128133569D01*
X44205000Y-128097748D01*
X44205000Y-127012038D01*
X44305317Y-126993162D01*
X44521441Y-126854090D01*
X44666431Y-126641890D01*
X44717440Y-126390000D01*
X44717440Y-124890000D01*
X44673162Y-124654683D01*
X44534090Y-124438559D01*
X44321890Y-124293569D01*
X44308803Y-124290919D01*
X44521441Y-124154090D01*
X44666431Y-123941890D01*
X44717440Y-123690000D01*
X44717440Y-122652718D01*
X44902560Y-122467598D01*
X44902560Y-123650000D01*
X44946838Y-123885317D01*
X45085910Y-124101441D01*
X45298110Y-124246431D01*
X45550000Y-124297440D01*
X45935000Y-124297440D01*
X45935000Y-124792666D01*
X45859683Y-124806838D01*
X45643559Y-124945910D01*
X45498569Y-125158110D01*
X45447560Y-125410000D01*
X45447560Y-126910000D01*
X45491838Y-127145317D01*
X45630910Y-127361441D01*
X45699006Y-127407969D01*
X45556673Y-127550302D01*
X45460000Y-127783691D01*
X45460000Y-128374250D01*
X45618750Y-128533000D01*
X46593000Y-128533000D01*
X46593000Y-128513000D01*
X46847000Y-128513000D01*
X46847000Y-128533000D01*
X47821250Y-128533000D01*
X47980000Y-128374250D01*
X47980000Y-127783691D01*
X47883327Y-127550302D01*
X47742090Y-127409064D01*
X47796441Y-127374090D01*
X47941431Y-127161890D01*
X47992440Y-126910000D01*
X47992440Y-125410000D01*
X47948162Y-125174683D01*
X47809090Y-124958559D01*
X47596890Y-124813569D01*
X47505000Y-124794961D01*
X47505000Y-124108881D01*
X47646431Y-123901890D01*
X47649081Y-123888803D01*
X47785910Y-124101441D01*
X47998110Y-124246431D01*
X48215000Y-124290352D01*
X48215000Y-124310000D01*
X48274755Y-124610407D01*
X48444921Y-124865079D01*
X48643265Y-125063423D01*
X48578569Y-125158110D01*
X48527560Y-125410000D01*
X48527560Y-126910000D01*
X48571838Y-127145317D01*
X48710910Y-127361441D01*
X48779006Y-127407969D01*
X48636673Y-127550302D01*
X48540000Y-127783691D01*
X48540000Y-128374250D01*
X48698750Y-128533000D01*
X49673000Y-128533000D01*
X49673000Y-128513000D01*
X49927000Y-128513000D01*
X49927000Y-128533000D01*
X50901250Y-128533000D01*
X51060000Y-128374250D01*
X51060000Y-127783691D01*
X50963327Y-127550302D01*
X50822090Y-127409064D01*
X50876441Y-127374090D01*
X51021431Y-127161890D01*
X51072440Y-126910000D01*
X51072440Y-126507598D01*
X51309921Y-126745079D01*
X51517560Y-126883818D01*
X51517560Y-126940000D01*
X51561838Y-127175317D01*
X51700910Y-127391441D01*
X51769006Y-127437969D01*
X51626673Y-127580302D01*
X51530000Y-127813691D01*
X51530000Y-128404250D01*
X51688750Y-128563000D01*
X52663000Y-128563000D01*
X52663000Y-128543000D01*
X52917000Y-128543000D01*
X52917000Y-128563000D01*
X53891250Y-128563000D01*
X54050000Y-128404250D01*
X54050000Y-127813691D01*
X53953327Y-127580302D01*
X53812090Y-127439064D01*
X53866441Y-127404090D01*
X54011431Y-127191890D01*
X54062440Y-126940000D01*
X54062440Y-125440000D01*
X54018162Y-125204683D01*
X53879090Y-124988559D01*
X53666890Y-124843569D01*
X53415000Y-124792560D01*
X52165000Y-124792560D01*
X52085000Y-124807613D01*
X52085000Y-124290854D01*
X52285317Y-124253162D01*
X52501441Y-124114090D01*
X52646431Y-123901890D01*
X52649081Y-123888803D01*
X52785910Y-124101441D01*
X52998110Y-124246431D01*
X53250000Y-124297440D01*
X54750000Y-124297440D01*
X54985317Y-124253162D01*
X55201441Y-124114090D01*
X55346431Y-123901890D01*
X55397440Y-123650000D01*
X55397440Y-122350000D01*
X55353162Y-122114683D01*
X55232691Y-121927467D01*
X55485079Y-121675079D01*
X55655245Y-121420406D01*
X55715001Y-121120000D01*
X55715000Y-121119995D01*
X55715000Y-120357506D01*
X55722192Y-120350327D01*
X55864838Y-120006799D01*
X55865162Y-119634833D01*
X55723117Y-119291057D01*
X55460327Y-119027808D01*
X55116799Y-118885162D01*
X54744833Y-118884838D01*
X54553098Y-118964061D01*
X54538162Y-118884683D01*
X54399090Y-118668559D01*
X54329289Y-118620866D01*
X54386441Y-118584090D01*
X54531431Y-118371890D01*
X54582440Y-118120000D01*
X54582440Y-116620000D01*
X54538162Y-116384683D01*
X54399090Y-116168559D01*
X54186890Y-116023569D01*
X53935000Y-115972560D01*
X53762718Y-115972560D01*
X52565158Y-114775000D01*
X60273362Y-114775000D01*
X60573769Y-114715245D01*
X60828441Y-114545079D01*
X63715080Y-111658440D01*
X63885246Y-111403768D01*
X63945001Y-111103361D01*
X63945001Y-110555000D01*
X66992560Y-110555000D01*
X66992560Y-111805000D01*
X67036838Y-112040317D01*
X67175910Y-112256441D01*
X67388110Y-112401431D01*
X67640000Y-112452440D01*
X69140000Y-112452440D01*
X69375317Y-112408162D01*
X69591441Y-112269090D01*
X69637969Y-112200994D01*
X69780302Y-112343327D01*
X70013691Y-112440000D01*
X70604250Y-112440000D01*
X70763000Y-112281250D01*
X70763000Y-111307000D01*
X71017000Y-111307000D01*
X71017000Y-112281250D01*
X71175750Y-112440000D01*
X71766309Y-112440000D01*
X71999698Y-112343327D01*
X72178327Y-112164699D01*
X72275000Y-111931310D01*
X72275000Y-111465750D01*
X72116250Y-111307000D01*
X71017000Y-111307000D01*
X70763000Y-111307000D01*
X70743000Y-111307000D01*
X70743000Y-111053000D01*
X70763000Y-111053000D01*
X70763000Y-109177000D01*
X69663750Y-109177000D01*
X69505000Y-109335750D01*
X69505000Y-109801310D01*
X69601673Y-110034699D01*
X69681974Y-110115000D01*
X69639064Y-110157910D01*
X69604090Y-110103559D01*
X69391890Y-109958569D01*
X69140000Y-109907560D01*
X67640000Y-109907560D01*
X67404683Y-109951838D01*
X67188559Y-110090910D01*
X67043569Y-110303110D01*
X66992560Y-110555000D01*
X63945001Y-110555000D01*
X63945001Y-109590001D01*
X63929168Y-109510406D01*
X63885246Y-109289594D01*
X63715080Y-109034922D01*
X62835079Y-108154921D01*
X62580407Y-107984755D01*
X62297700Y-107928521D01*
X62278162Y-107824683D01*
X62154204Y-107632046D01*
X62308046Y-107478204D01*
X62954921Y-108125079D01*
X63209593Y-108295245D01*
X63510000Y-108355000D01*
X65260000Y-108355000D01*
X65543087Y-108298690D01*
X69505000Y-108298690D01*
X69505000Y-108764250D01*
X69663750Y-108923000D01*
X70763000Y-108923000D01*
X70763000Y-108021250D01*
X70773000Y-108011250D01*
X70773000Y-107948750D01*
X71017000Y-107948750D01*
X71017000Y-108923000D01*
X71037000Y-108923000D01*
X71037000Y-109177000D01*
X71017000Y-109177000D01*
X71017000Y-111053000D01*
X72116250Y-111053000D01*
X72275000Y-110894250D01*
X72275000Y-110428690D01*
X72178327Y-110195301D01*
X72098026Y-110115000D01*
X72140936Y-110072090D01*
X72175910Y-110126441D01*
X72388110Y-110271431D01*
X72640000Y-110322440D01*
X74140000Y-110322440D01*
X74375317Y-110278162D01*
X74591441Y-110139090D01*
X74736431Y-109926890D01*
X74787440Y-109675000D01*
X74787440Y-108425000D01*
X74743162Y-108189683D01*
X74611266Y-107984711D01*
X74746431Y-107786890D01*
X74797440Y-107535000D01*
X74797440Y-106285000D01*
X74753162Y-106049683D01*
X74629671Y-105857773D01*
X74746431Y-105686890D01*
X74797440Y-105435000D01*
X74797440Y-104185000D01*
X74753162Y-103949683D01*
X74662810Y-103809273D01*
X74746431Y-103686890D01*
X74797440Y-103435000D01*
X74797440Y-102623795D01*
X74814716Y-102623795D01*
X75063106Y-103224943D01*
X75522637Y-103685278D01*
X76123352Y-103934716D01*
X76773795Y-103935284D01*
X77374943Y-103686894D01*
X77835278Y-103227363D01*
X78084716Y-102626648D01*
X78085284Y-101976205D01*
X77836894Y-101375057D01*
X77377363Y-100914722D01*
X76776648Y-100665284D01*
X76126205Y-100664716D01*
X75525057Y-100913106D01*
X75064722Y-101372637D01*
X74815284Y-101973352D01*
X74814716Y-102623795D01*
X74797440Y-102623795D01*
X74797440Y-102185000D01*
X74753162Y-101949683D01*
X74614090Y-101733559D01*
X74401890Y-101588569D01*
X74150000Y-101537560D01*
X72650000Y-101537560D01*
X72414683Y-101581838D01*
X72198559Y-101720910D01*
X72152031Y-101789006D01*
X72009698Y-101646673D01*
X71776309Y-101550000D01*
X71185750Y-101550000D01*
X71027000Y-101708750D01*
X71027000Y-102683000D01*
X71047000Y-102683000D01*
X71047000Y-102937000D01*
X71027000Y-102937000D01*
X71027000Y-104683000D01*
X71047000Y-104683000D01*
X71047000Y-104937000D01*
X71027000Y-104937000D01*
X71027000Y-106783000D01*
X71047000Y-106783000D01*
X71047000Y-107037000D01*
X71027000Y-107037000D01*
X71027000Y-107938750D01*
X71017000Y-107948750D01*
X70773000Y-107948750D01*
X70773000Y-107037000D01*
X69673750Y-107037000D01*
X69515000Y-107195750D01*
X69515000Y-107661310D01*
X69611673Y-107894699D01*
X69691974Y-107975000D01*
X69601673Y-108065301D01*
X69505000Y-108298690D01*
X65543087Y-108298690D01*
X65560407Y-108295245D01*
X65815079Y-108125079D01*
X66742718Y-107197440D01*
X68380000Y-107197440D01*
X68615317Y-107153162D01*
X68831441Y-107014090D01*
X68976431Y-106801890D01*
X69027440Y-106550000D01*
X69027440Y-105095750D01*
X69515000Y-105095750D01*
X69515000Y-105561310D01*
X69611673Y-105794699D01*
X69676974Y-105860000D01*
X69611673Y-105925301D01*
X69515000Y-106158690D01*
X69515000Y-106624250D01*
X69673750Y-106783000D01*
X70773000Y-106783000D01*
X70773000Y-104937000D01*
X69673750Y-104937000D01*
X69515000Y-105095750D01*
X69027440Y-105095750D01*
X69027440Y-104750000D01*
X68983162Y-104514683D01*
X68967662Y-104490595D01*
X69015000Y-104376310D01*
X69015000Y-103635750D01*
X68856250Y-103477000D01*
X67457000Y-103477000D01*
X67457000Y-103497000D01*
X67203000Y-103497000D01*
X67203000Y-103477000D01*
X67183000Y-103477000D01*
X67183000Y-103223000D01*
X67203000Y-103223000D01*
X67203000Y-101973750D01*
X67457000Y-101973750D01*
X67457000Y-103223000D01*
X68856250Y-103223000D01*
X68983500Y-103095750D01*
X69515000Y-103095750D01*
X69515000Y-103561310D01*
X69611673Y-103794699D01*
X69626974Y-103810000D01*
X69611673Y-103825301D01*
X69515000Y-104058690D01*
X69515000Y-104524250D01*
X69673750Y-104683000D01*
X70773000Y-104683000D01*
X70773000Y-102937000D01*
X69673750Y-102937000D01*
X69515000Y-103095750D01*
X68983500Y-103095750D01*
X69015000Y-103064250D01*
X69015000Y-102323690D01*
X68918327Y-102090301D01*
X68886716Y-102058690D01*
X69515000Y-102058690D01*
X69515000Y-102524250D01*
X69673750Y-102683000D01*
X70773000Y-102683000D01*
X70773000Y-101708750D01*
X70614250Y-101550000D01*
X70023691Y-101550000D01*
X69790302Y-101646673D01*
X69611673Y-101825301D01*
X69515000Y-102058690D01*
X68886716Y-102058690D01*
X68739698Y-101911673D01*
X68506309Y-101815000D01*
X67615750Y-101815000D01*
X67457000Y-101973750D01*
X67203000Y-101973750D01*
X67044250Y-101815000D01*
X66153691Y-101815000D01*
X65920302Y-101911673D01*
X65878340Y-101953634D01*
X65731890Y-101853569D01*
X65480000Y-101802560D01*
X63380000Y-101802560D01*
X63144683Y-101846838D01*
X62928559Y-101985910D01*
X62783569Y-102198110D01*
X62732560Y-102450000D01*
X62732560Y-102565000D01*
X62230000Y-102565000D01*
X61929594Y-102624755D01*
X61674921Y-102794921D01*
X58744921Y-105724921D01*
X58706933Y-105781775D01*
X58670079Y-105744921D01*
X58415407Y-105574755D01*
X58115000Y-105515000D01*
X56677440Y-105515000D01*
X56677440Y-105393819D01*
X56885079Y-105255079D01*
X59905079Y-102235079D01*
X60075245Y-101980407D01*
X60135000Y-101680000D01*
X60135000Y-95857506D01*
X60142192Y-95850327D01*
X60284838Y-95506799D01*
X60285162Y-95134833D01*
X60143117Y-94791057D01*
X59880327Y-94527808D01*
X59536799Y-94385162D01*
X59164833Y-94384838D01*
X58821057Y-94526883D01*
X58557808Y-94789673D01*
X58415162Y-95133201D01*
X58414838Y-95505167D01*
X58556883Y-95848943D01*
X58565000Y-95857074D01*
X58565000Y-101354842D01*
X56677440Y-103242402D01*
X56677440Y-102800000D01*
X56633162Y-102564683D01*
X56494090Y-102348559D01*
X56281890Y-102203569D01*
X56030000Y-102152560D01*
X54777440Y-102152560D01*
X54777440Y-100900000D01*
X54733162Y-100664683D01*
X54615000Y-100481054D01*
X54615000Y-100402880D01*
X54555245Y-100102474D01*
X54385079Y-99847801D01*
X50027440Y-95490162D01*
X50027440Y-95260000D01*
X49983162Y-95024683D01*
X49844090Y-94808559D01*
X49631890Y-94663569D01*
X49380000Y-94612560D01*
X48080000Y-94612560D01*
X47984373Y-94630554D01*
X47953162Y-94464683D01*
X47945658Y-94453021D01*
X47946431Y-94451890D01*
X47997440Y-94200000D01*
X47997440Y-92400000D01*
X47953162Y-92164683D01*
X47814090Y-91948559D01*
X47601890Y-91803569D01*
X47350000Y-91752560D01*
X45250000Y-91752560D01*
X45014683Y-91796838D01*
X44848523Y-91903759D01*
X44701890Y-91803569D01*
X44450000Y-91752560D01*
X42350000Y-91752560D01*
X42114683Y-91796838D01*
X41898559Y-91935910D01*
X41753569Y-92148110D01*
X41702560Y-92400000D01*
X41702560Y-94200000D01*
X41746838Y-94435317D01*
X41762338Y-94459405D01*
X41715000Y-94573690D01*
X41715000Y-95314250D01*
X41873750Y-95473000D01*
X42826573Y-95473000D01*
X42979594Y-95575245D01*
X43280000Y-95635000D01*
X43547000Y-95581890D01*
X43547000Y-95727000D01*
X43527000Y-95727000D01*
X43527000Y-96976250D01*
X43685750Y-97135000D01*
X44211231Y-97135000D01*
X44344920Y-97335080D01*
X44414920Y-97405080D01*
X44669592Y-97575246D01*
X44969999Y-97635001D01*
X46644843Y-97635001D01*
X47432560Y-98422718D01*
X47432560Y-99460000D01*
X47476838Y-99695317D01*
X47615910Y-99911441D01*
X47828110Y-100056431D01*
X48080000Y-100107440D01*
X49380000Y-100107440D01*
X49615317Y-100063162D01*
X49831441Y-99924090D01*
X49976431Y-99711890D01*
X50020352Y-99495000D01*
X50814842Y-99495000D01*
X51647221Y-100327379D01*
X51478559Y-100435910D01*
X51430866Y-100505711D01*
X51394090Y-100448559D01*
X51184823Y-100305573D01*
X51144250Y-100265000D01*
X51003691Y-100265000D01*
X50999665Y-100266668D01*
X50930000Y-100252560D01*
X50330000Y-100252560D01*
X50258676Y-100265981D01*
X50256309Y-100265000D01*
X50115750Y-100265000D01*
X50064471Y-100316279D01*
X49878559Y-100435910D01*
X49830866Y-100505711D01*
X49794090Y-100448559D01*
X49584823Y-100305573D01*
X49544250Y-100265000D01*
X49403691Y-100265000D01*
X49399665Y-100266668D01*
X49330000Y-100252560D01*
X48730000Y-100252560D01*
X48626329Y-100272067D01*
X48530000Y-100252560D01*
X47930000Y-100252560D01*
X47694683Y-100296838D01*
X47478559Y-100435910D01*
X47333569Y-100648110D01*
X47282560Y-100900000D01*
X47282560Y-102152560D01*
X46030000Y-102152560D01*
X45794683Y-102196838D01*
X45578559Y-102335910D01*
X45433569Y-102548110D01*
X45382560Y-102800000D01*
X45382560Y-103206181D01*
X45174921Y-103344921D01*
X44739159Y-103780683D01*
X44666423Y-103707820D01*
X44322895Y-103565174D01*
X44311406Y-103565164D01*
X42634970Y-101888728D01*
X42634970Y-99887506D01*
X42642162Y-99880327D01*
X42784808Y-99536799D01*
X42785132Y-99164833D01*
X42643087Y-98821057D01*
X42380297Y-98557808D01*
X42036769Y-98415162D01*
X41664803Y-98414838D01*
X41530492Y-98470334D01*
X41505079Y-98444921D01*
X41297440Y-98306181D01*
X41297440Y-98250000D01*
X41253162Y-98014683D01*
X41114090Y-97798559D01*
X40901890Y-97653569D01*
X40868510Y-97646809D01*
X41009699Y-97588327D01*
X41188327Y-97409698D01*
X41285000Y-97176309D01*
X41285000Y-96585750D01*
X41126250Y-96427000D01*
X40127000Y-96427000D01*
X40127000Y-96447000D01*
X39873000Y-96447000D01*
X39873000Y-96427000D01*
X38873750Y-96427000D01*
X38715000Y-96585750D01*
X38715000Y-97176309D01*
X38811673Y-97409698D01*
X38990301Y-97588327D01*
X39126287Y-97644654D01*
X39114683Y-97646838D01*
X38898559Y-97785910D01*
X38753569Y-97998110D01*
X38702560Y-98250000D01*
X38702560Y-99750000D01*
X38746838Y-99985317D01*
X38885910Y-100201441D01*
X39098110Y-100346431D01*
X39350000Y-100397440D01*
X40215000Y-100397440D01*
X40215000Y-101928808D01*
X40048559Y-102035910D01*
X39903569Y-102248110D01*
X39852560Y-102500000D01*
X39852560Y-103242402D01*
X39647440Y-103037282D01*
X39647440Y-102500000D01*
X39603162Y-102264683D01*
X39464090Y-102048559D01*
X39251890Y-101903569D01*
X39000000Y-101852560D01*
X38000000Y-101852560D01*
X37764683Y-101896838D01*
X37589713Y-102009428D01*
X37310000Y-93937704D01*
X37310000Y-90993480D01*
X37315000Y-90993480D01*
X37315000Y-93606520D01*
X37439457Y-94232207D01*
X37793880Y-94762640D01*
X38324313Y-95117063D01*
X38802602Y-95212201D01*
X38715000Y-95423691D01*
X38715000Y-96014250D01*
X38873750Y-96173000D01*
X39873000Y-96173000D01*
X39873000Y-95073750D01*
X40127000Y-95073750D01*
X40127000Y-96173000D01*
X41126250Y-96173000D01*
X41285000Y-96014250D01*
X41285000Y-95885750D01*
X41715000Y-95885750D01*
X41715000Y-96626310D01*
X41811673Y-96859699D01*
X41990302Y-97038327D01*
X42223691Y-97135000D01*
X43114250Y-97135000D01*
X43273000Y-96976250D01*
X43273000Y-95727000D01*
X41873750Y-95727000D01*
X41715000Y-95885750D01*
X41285000Y-95885750D01*
X41285000Y-95423691D01*
X41188327Y-95190302D01*
X41009699Y-95011673D01*
X40776310Y-94915000D01*
X40285750Y-94915000D01*
X40127000Y-95073750D01*
X39873000Y-95073750D01*
X39779878Y-94980628D01*
X40106120Y-94762640D01*
X40316729Y-94447440D01*
X40950000Y-94447440D01*
X41185317Y-94403162D01*
X41401441Y-94264090D01*
X41546431Y-94051890D01*
X41597440Y-93800000D01*
X41597440Y-90800000D01*
X41553162Y-90564683D01*
X41414090Y-90348559D01*
X41201890Y-90203569D01*
X40950000Y-90152560D01*
X40316729Y-90152560D01*
X40106120Y-89837360D01*
X39575687Y-89482937D01*
X38950000Y-89358480D01*
X38324313Y-89482937D01*
X37793880Y-89837360D01*
X37439457Y-90367793D01*
X37315000Y-90993480D01*
X37310000Y-90993480D01*
X37310000Y-90959247D01*
X37376968Y-88385750D01*
X43085000Y-88385750D01*
X43085000Y-89981310D01*
X43181673Y-90214699D01*
X43360302Y-90393327D01*
X43593691Y-90490000D01*
X44704250Y-90490000D01*
X44863000Y-90331250D01*
X44863000Y-88227000D01*
X45117000Y-88227000D01*
X45117000Y-90331250D01*
X45275750Y-90490000D01*
X46386309Y-90490000D01*
X46619698Y-90393327D01*
X46798327Y-90214699D01*
X46895000Y-89981310D01*
X46895000Y-88385750D01*
X46736250Y-88227000D01*
X45117000Y-88227000D01*
X44863000Y-88227000D01*
X43243750Y-88227000D01*
X43085000Y-88385750D01*
X37376968Y-88385750D01*
X37433359Y-86218690D01*
X43085000Y-86218690D01*
X43085000Y-87814250D01*
X43243750Y-87973000D01*
X44863000Y-87973000D01*
X44863000Y-85868750D01*
X45117000Y-85868750D01*
X45117000Y-87973000D01*
X46736250Y-87973000D01*
X46895000Y-87814250D01*
X46895000Y-86345000D01*
X72432560Y-86345000D01*
X72432560Y-89855000D01*
X72476838Y-90090317D01*
X72615910Y-90306441D01*
X72828110Y-90451431D01*
X73080000Y-90502440D01*
X75620000Y-90502440D01*
X75855317Y-90458162D01*
X76071441Y-90319090D01*
X76216431Y-90106890D01*
X76267440Y-89855000D01*
X76267440Y-89235000D01*
X78349009Y-89235000D01*
X78574775Y-89235197D01*
X78992086Y-89062767D01*
X79311645Y-88743765D01*
X79484803Y-88326756D01*
X79485197Y-87875225D01*
X79312767Y-87457914D01*
X78993765Y-87138355D01*
X78576756Y-86965197D01*
X78125225Y-86964803D01*
X78124748Y-86965000D01*
X76267440Y-86965000D01*
X76267440Y-86345000D01*
X76223162Y-86109683D01*
X76084090Y-85893559D01*
X75871890Y-85748569D01*
X75620000Y-85697560D01*
X73080000Y-85697560D01*
X72844683Y-85741838D01*
X72628559Y-85880910D01*
X72483569Y-86093110D01*
X72432560Y-86345000D01*
X46895000Y-86345000D01*
X46895000Y-86218690D01*
X46798327Y-85985301D01*
X46619698Y-85806673D01*
X46386309Y-85710000D01*
X45275750Y-85710000D01*
X45117000Y-85868750D01*
X44863000Y-85868750D01*
X44704250Y-85710000D01*
X43593691Y-85710000D01*
X43360302Y-85806673D01*
X43181673Y-85985301D01*
X43085000Y-86218690D01*
X37433359Y-86218690D01*
X37659522Y-77527605D01*
X37802432Y-74768354D01*
X38324313Y-75117063D01*
X38950000Y-75241520D01*
X39575687Y-75117063D01*
X40106120Y-74762640D01*
X40316729Y-74447440D01*
X40950000Y-74447440D01*
X41000108Y-74438012D01*
X40564722Y-74872637D01*
X40315284Y-75473352D01*
X40314716Y-76123795D01*
X40563106Y-76724943D01*
X41022637Y-77185278D01*
X41623352Y-77434716D01*
X42273795Y-77435284D01*
X42874943Y-77186894D01*
X43335278Y-76727363D01*
X43584716Y-76126648D01*
X43585284Y-75476205D01*
X43336894Y-74875057D01*
X42877363Y-74414722D01*
X42276648Y-74165284D01*
X41626205Y-74164716D01*
X41407632Y-74255029D01*
X41546431Y-74051890D01*
X41597440Y-73800000D01*
X41597440Y-70800000D01*
X41553162Y-70564683D01*
X41414090Y-70348559D01*
X41201890Y-70203569D01*
X40950000Y-70152560D01*
X40316729Y-70152560D01*
X40106120Y-69837360D01*
X39575687Y-69482937D01*
X38950000Y-69358480D01*
X38324313Y-69482937D01*
X38067283Y-69654678D01*
X38308305Y-65001107D01*
X38805354Y-59632982D01*
X39549259Y-54425641D01*
X40585483Y-49650000D01*
X56333112Y-49650000D01*
X56608431Y-51034123D01*
X57392474Y-52207526D01*
X58565877Y-52991569D01*
X59950000Y-53266888D01*
X61334123Y-52991569D01*
X62507526Y-52207526D01*
X63291569Y-51034123D01*
X63566888Y-49650000D01*
X63291569Y-48265877D01*
X62507526Y-47092474D01*
X61334123Y-46308431D01*
X59950000Y-46033112D01*
X58565877Y-46308431D01*
X57392474Y-47092474D01*
X56608431Y-48265877D01*
X56333112Y-49650000D01*
X40585483Y-49650000D01*
X40673723Y-49243331D01*
X41229433Y-48174659D01*
X42004659Y-47399433D01*
X43149979Y-46620615D01*
X44257454Y-46113023D01*
X45578830Y-45688294D01*
X47003693Y-45403322D01*
X52694489Y-44858985D01*
X57660657Y-44710000D01*
X62578286Y-44710000D01*
X67444321Y-45007921D01*
X67444321Y-45007921D01*
G37*
X67444321Y-45007921D02*
X72561283Y-45499936D01*
X74702773Y-46151694D01*
X77025573Y-47609138D01*
X78229743Y-49660686D01*
X78650464Y-51624050D01*
X79643016Y-58671172D01*
X80091309Y-66043096D01*
X80306972Y-69637476D01*
X80075687Y-69482937D01*
X79450000Y-69358480D01*
X78824313Y-69482937D01*
X78293880Y-69837360D01*
X78083271Y-70152560D01*
X77450000Y-70152560D01*
X77214683Y-70196838D01*
X76998559Y-70335910D01*
X76853569Y-70548110D01*
X76802560Y-70800000D01*
X76802560Y-73800000D01*
X76846838Y-74035317D01*
X76985910Y-74251441D01*
X77198110Y-74396431D01*
X77450000Y-74447440D01*
X78083271Y-74447440D01*
X78293880Y-74762640D01*
X78824313Y-75117063D01*
X79450000Y-75241520D01*
X80075687Y-75117063D01*
X80606120Y-74762640D01*
X80622269Y-74738471D01*
X80640884Y-75036310D01*
X80839806Y-80009361D01*
X80703795Y-89983541D01*
X80606120Y-89837360D01*
X80075687Y-89482937D01*
X79450000Y-89358480D01*
X78824313Y-89482937D01*
X78293880Y-89837360D01*
X78083271Y-90152560D01*
X77450000Y-90152560D01*
X77214683Y-90196838D01*
X76998559Y-90335910D01*
X76853569Y-90548110D01*
X76802560Y-90800000D01*
X76802560Y-93800000D01*
X76846838Y-94035317D01*
X76985910Y-94251441D01*
X77198110Y-94396431D01*
X77450000Y-94447440D01*
X78083271Y-94447440D01*
X78293880Y-94762640D01*
X78824313Y-95117063D01*
X79450000Y-95241520D01*
X80075687Y-95117063D01*
X80595536Y-94769712D01*
X80590300Y-94979132D01*
X80340405Y-102376027D01*
X80340715Y-102377919D01*
X80340288Y-102379787D01*
X79890319Y-118178708D01*
X79690895Y-124460543D01*
X77399705Y-153249843D01*
X77235061Y-153710847D01*
X75600615Y-155345293D01*
X74714225Y-155921446D01*
X73781956Y-156320990D01*
X71387004Y-156847880D01*
X68053507Y-157191034D01*
X61042283Y-157389934D01*
X53534556Y-157340214D01*
X47564011Y-156797437D01*
X45966565Y-156421567D01*
X44746698Y-155924585D01*
X43954006Y-155352085D01*
X43084135Y-154527997D01*
X42452842Y-153671242D01*
X41164836Y-151238345D01*
X40845563Y-150052474D01*
X40604235Y-148507969D01*
X40407144Y-146635606D01*
X39508354Y-134951327D01*
X39058705Y-127517135D01*
X39057045Y-127510813D01*
X39058305Y-127500963D01*
X38608305Y-121000964D01*
X38608097Y-121000200D01*
X38608196Y-120999414D01*
X38490873Y-119356890D01*
X39018524Y-119356890D01*
X39188355Y-119766924D01*
X39578642Y-120195183D01*
X40103108Y-120441486D01*
X40333000Y-120320819D01*
X40333000Y-119127000D01*
X39139845Y-119127000D01*
X39018524Y-119356890D01*
X38490873Y-119356890D01*
X38108479Y-114003377D01*
X37809363Y-109018110D01*
X37659905Y-104036163D01*
X37748110Y-104096431D01*
X37945802Y-104136465D01*
X37902560Y-104350000D01*
X37902560Y-105650000D01*
X37946838Y-105885317D01*
X38085910Y-106101441D01*
X38298110Y-106246431D01*
X38550000Y-106297440D01*
X39492402Y-106297440D01*
X38704920Y-107084922D01*
X38534754Y-107339594D01*
X38482956Y-107600000D01*
X38474999Y-107640001D01*
X38474999Y-112799999D01*
X38534754Y-113100406D01*
X38704920Y-113355078D01*
X39012924Y-113663082D01*
X38945907Y-114000000D01*
X39058946Y-114568285D01*
X39358804Y-115017056D01*
X39158559Y-115145910D01*
X39013569Y-115358110D01*
X38962560Y-115610000D01*
X38962560Y-117310000D01*
X39006838Y-117545317D01*
X39145910Y-117761441D01*
X39358110Y-117906431D01*
X39466107Y-117928301D01*
X39188355Y-118233076D01*
X39018524Y-118643110D01*
X39139845Y-118873000D01*
X40333000Y-118873000D01*
X40333000Y-118853000D01*
X40587000Y-118853000D01*
X40587000Y-118873000D01*
X40607000Y-118873000D01*
X40607000Y-119127000D01*
X40587000Y-119127000D01*
X40587000Y-120320819D01*
X40816892Y-120441486D01*
X41014999Y-120348450D01*
X41014999Y-135494397D01*
X40964755Y-135569593D01*
X40964755Y-135569594D01*
X40905000Y-135870000D01*
X40905000Y-145440000D01*
X40964755Y-145740407D01*
X41134921Y-145995079D01*
X41794921Y-146655079D01*
X42044274Y-146821691D01*
X42046838Y-146835317D01*
X42185910Y-147051441D01*
X42398110Y-147196431D01*
X42650000Y-147247440D01*
X45400000Y-147247440D01*
X45635317Y-147203162D01*
X45851441Y-147064090D01*
X45973808Y-146885000D01*
X47828808Y-146885000D01*
X47935910Y-147051441D01*
X48148110Y-147196431D01*
X48400000Y-147247440D01*
X51150000Y-147247440D01*
X51385317Y-147203162D01*
X51601441Y-147064090D01*
X51746431Y-146851890D01*
X51797440Y-146600000D01*
X51797440Y-145600000D01*
X51753162Y-145364683D01*
X51614090Y-145148559D01*
X51401890Y-145003569D01*
X51150000Y-144952560D01*
X48400000Y-144952560D01*
X48164683Y-144996838D01*
X47948559Y-145135910D01*
X47826192Y-145315000D01*
X45971192Y-145315000D01*
X45864090Y-145148559D01*
X45651890Y-145003569D01*
X45400000Y-144952560D01*
X42650000Y-144952560D01*
X42475000Y-144985489D01*
X42475000Y-143214832D01*
X42523691Y-143235000D01*
X43739250Y-143235000D01*
X43898000Y-143076250D01*
X43898000Y-142227000D01*
X44152000Y-142227000D01*
X44152000Y-143076250D01*
X44310750Y-143235000D01*
X45526309Y-143235000D01*
X45759698Y-143138327D01*
X45938327Y-142959699D01*
X46035000Y-142726310D01*
X46035000Y-142385750D01*
X47765000Y-142385750D01*
X47765000Y-142726310D01*
X47861673Y-142959699D01*
X48040302Y-143138327D01*
X48273691Y-143235000D01*
X49489250Y-143235000D01*
X49648000Y-143076250D01*
X49648000Y-142227000D01*
X49902000Y-142227000D01*
X49902000Y-143076250D01*
X50060750Y-143235000D01*
X51276309Y-143235000D01*
X51509698Y-143138327D01*
X51688327Y-142959699D01*
X51785000Y-142726310D01*
X51785000Y-142385750D01*
X51626250Y-142227000D01*
X49902000Y-142227000D01*
X49648000Y-142227000D01*
X47923750Y-142227000D01*
X47765000Y-142385750D01*
X46035000Y-142385750D01*
X45876250Y-142227000D01*
X44152000Y-142227000D01*
X43898000Y-142227000D01*
X43878000Y-142227000D01*
X43878000Y-141973000D01*
X43898000Y-141973000D01*
X43898000Y-141123750D01*
X44152000Y-141123750D01*
X44152000Y-141973000D01*
X45876250Y-141973000D01*
X46035000Y-141814250D01*
X46035000Y-141473690D01*
X47765000Y-141473690D01*
X47765000Y-141814250D01*
X47923750Y-141973000D01*
X49648000Y-141973000D01*
X49648000Y-141123750D01*
X49902000Y-141123750D01*
X49902000Y-141973000D01*
X51626250Y-141973000D01*
X51785000Y-141814250D01*
X51785000Y-141473690D01*
X51688327Y-141240301D01*
X51509698Y-141061673D01*
X51276309Y-140965000D01*
X50060750Y-140965000D01*
X49902000Y-141123750D01*
X49648000Y-141123750D01*
X49489250Y-140965000D01*
X48273691Y-140965000D01*
X48040302Y-141061673D01*
X47861673Y-141240301D01*
X47765000Y-141473690D01*
X46035000Y-141473690D01*
X45938327Y-141240301D01*
X45759698Y-141061673D01*
X45526309Y-140965000D01*
X44310750Y-140965000D01*
X44152000Y-141123750D01*
X43898000Y-141123750D01*
X43739250Y-140965000D01*
X42523691Y-140965000D01*
X42475000Y-140985168D01*
X42475000Y-136135604D01*
X42525244Y-136060408D01*
X42584999Y-135760001D01*
X42584999Y-133527826D01*
X42830000Y-133577440D01*
X44130000Y-133577440D01*
X44365317Y-133533162D01*
X44581441Y-133394090D01*
X44726431Y-133181890D01*
X44777440Y-132930000D01*
X44777440Y-131430000D01*
X44733162Y-131194683D01*
X44594090Y-130978559D01*
X44381890Y-130833569D01*
X44368803Y-130830919D01*
X44581441Y-130694090D01*
X44726431Y-130481890D01*
X44777440Y-130230000D01*
X44777440Y-128945750D01*
X45460000Y-128945750D01*
X45460000Y-129536309D01*
X45556673Y-129769698D01*
X45735301Y-129948327D01*
X45968690Y-130045000D01*
X46434250Y-130045000D01*
X46593000Y-129886250D01*
X46593000Y-128787000D01*
X46847000Y-128787000D01*
X46847000Y-129886250D01*
X47005750Y-130045000D01*
X47471310Y-130045000D01*
X47704699Y-129948327D01*
X47883327Y-129769698D01*
X47980000Y-129536309D01*
X47980000Y-128945750D01*
X48540000Y-128945750D01*
X48540000Y-129536309D01*
X48636673Y-129769698D01*
X48815301Y-129948327D01*
X49048690Y-130045000D01*
X49514250Y-130045000D01*
X49673000Y-129886250D01*
X49673000Y-128787000D01*
X49927000Y-128787000D01*
X49927000Y-129886250D01*
X50085750Y-130045000D01*
X50551310Y-130045000D01*
X50784699Y-129948327D01*
X50963327Y-129769698D01*
X51060000Y-129536309D01*
X51060000Y-128975750D01*
X51530000Y-128975750D01*
X51530000Y-129566309D01*
X51626673Y-129799698D01*
X51805301Y-129978327D01*
X52038690Y-130075000D01*
X52504250Y-130075000D01*
X52663000Y-129916250D01*
X52663000Y-128817000D01*
X52917000Y-128817000D01*
X52917000Y-129916250D01*
X53075750Y-130075000D01*
X53541310Y-130075000D01*
X53774699Y-129978327D01*
X53953327Y-129799698D01*
X54050000Y-129566309D01*
X54050000Y-128975750D01*
X53891250Y-128817000D01*
X52917000Y-128817000D01*
X52663000Y-128817000D01*
X51688750Y-128817000D01*
X51530000Y-128975750D01*
X51060000Y-128975750D01*
X51060000Y-128945750D01*
X50901250Y-128787000D01*
X49927000Y-128787000D01*
X49673000Y-128787000D01*
X48698750Y-128787000D01*
X48540000Y-128945750D01*
X47980000Y-128945750D01*
X47821250Y-128787000D01*
X46847000Y-128787000D01*
X46593000Y-128787000D01*
X45618750Y-128787000D01*
X45460000Y-128945750D01*
X44777440Y-128945750D01*
X44777440Y-128730000D01*
X44733162Y-128494683D01*
X44594090Y-128278559D01*
X44381890Y-128133569D01*
X44205000Y-128097748D01*
X44205000Y-127012038D01*
X44305317Y-126993162D01*
X44521441Y-126854090D01*
X44666431Y-126641890D01*
X44717440Y-126390000D01*
X44717440Y-124890000D01*
X44673162Y-124654683D01*
X44534090Y-124438559D01*
X44321890Y-124293569D01*
X44308803Y-124290919D01*
X44521441Y-124154090D01*
X44666431Y-123941890D01*
X44717440Y-123690000D01*
X44717440Y-122652718D01*
X44902560Y-122467598D01*
X44902560Y-123650000D01*
X44946838Y-123885317D01*
X45085910Y-124101441D01*
X45298110Y-124246431D01*
X45550000Y-124297440D01*
X45935000Y-124297440D01*
X45935000Y-124792666D01*
X45859683Y-124806838D01*
X45643559Y-124945910D01*
X45498569Y-125158110D01*
X45447560Y-125410000D01*
X45447560Y-126910000D01*
X45491838Y-127145317D01*
X45630910Y-127361441D01*
X45699006Y-127407969D01*
X45556673Y-127550302D01*
X45460000Y-127783691D01*
X45460000Y-128374250D01*
X45618750Y-128533000D01*
X46593000Y-128533000D01*
X46593000Y-128513000D01*
X46847000Y-128513000D01*
X46847000Y-128533000D01*
X47821250Y-128533000D01*
X47980000Y-128374250D01*
X47980000Y-127783691D01*
X47883327Y-127550302D01*
X47742090Y-127409064D01*
X47796441Y-127374090D01*
X47941431Y-127161890D01*
X47992440Y-126910000D01*
X47992440Y-125410000D01*
X47948162Y-125174683D01*
X47809090Y-124958559D01*
X47596890Y-124813569D01*
X47505000Y-124794961D01*
X47505000Y-124108881D01*
X47646431Y-123901890D01*
X47649081Y-123888803D01*
X47785910Y-124101441D01*
X47998110Y-124246431D01*
X48215000Y-124290352D01*
X48215000Y-124310000D01*
X48274755Y-124610407D01*
X48444921Y-124865079D01*
X48643265Y-125063423D01*
X48578569Y-125158110D01*
X48527560Y-125410000D01*
X48527560Y-126910000D01*
X48571838Y-127145317D01*
X48710910Y-127361441D01*
X48779006Y-127407969D01*
X48636673Y-127550302D01*
X48540000Y-127783691D01*
X48540000Y-128374250D01*
X48698750Y-128533000D01*
X49673000Y-128533000D01*
X49673000Y-128513000D01*
X49927000Y-128513000D01*
X49927000Y-128533000D01*
X50901250Y-128533000D01*
X51060000Y-128374250D01*
X51060000Y-127783691D01*
X50963327Y-127550302D01*
X50822090Y-127409064D01*
X50876441Y-127374090D01*
X51021431Y-127161890D01*
X51072440Y-126910000D01*
X51072440Y-126507598D01*
X51309921Y-126745079D01*
X51517560Y-126883818D01*
X51517560Y-126940000D01*
X51561838Y-127175317D01*
X51700910Y-127391441D01*
X51769006Y-127437969D01*
X51626673Y-127580302D01*
X51530000Y-127813691D01*
X51530000Y-128404250D01*
X51688750Y-128563000D01*
X52663000Y-128563000D01*
X52663000Y-128543000D01*
X52917000Y-128543000D01*
X52917000Y-128563000D01*
X53891250Y-128563000D01*
X54050000Y-128404250D01*
X54050000Y-127813691D01*
X53953327Y-127580302D01*
X53812090Y-127439064D01*
X53866441Y-127404090D01*
X54011431Y-127191890D01*
X54062440Y-126940000D01*
X54062440Y-125440000D01*
X54018162Y-125204683D01*
X53879090Y-124988559D01*
X53666890Y-124843569D01*
X53415000Y-124792560D01*
X52165000Y-124792560D01*
X52085000Y-124807613D01*
X52085000Y-124290854D01*
X52285317Y-124253162D01*
X52501441Y-124114090D01*
X52646431Y-123901890D01*
X52649081Y-123888803D01*
X52785910Y-124101441D01*
X52998110Y-124246431D01*
X53250000Y-124297440D01*
X54750000Y-124297440D01*
X54985317Y-124253162D01*
X55201441Y-124114090D01*
X55346431Y-123901890D01*
X55397440Y-123650000D01*
X55397440Y-122350000D01*
X55353162Y-122114683D01*
X55232691Y-121927467D01*
X55485079Y-121675079D01*
X55655245Y-121420406D01*
X55715001Y-121120000D01*
X55715000Y-121119995D01*
X55715000Y-120357506D01*
X55722192Y-120350327D01*
X55864838Y-120006799D01*
X55865162Y-119634833D01*
X55723117Y-119291057D01*
X55460327Y-119027808D01*
X55116799Y-118885162D01*
X54744833Y-118884838D01*
X54553098Y-118964061D01*
X54538162Y-118884683D01*
X54399090Y-118668559D01*
X54329289Y-118620866D01*
X54386441Y-118584090D01*
X54531431Y-118371890D01*
X54582440Y-118120000D01*
X54582440Y-116620000D01*
X54538162Y-116384683D01*
X54399090Y-116168559D01*
X54186890Y-116023569D01*
X53935000Y-115972560D01*
X53762718Y-115972560D01*
X52565158Y-114775000D01*
X60273362Y-114775000D01*
X60573769Y-114715245D01*
X60828441Y-114545079D01*
X63715080Y-111658440D01*
X63885246Y-111403768D01*
X63945001Y-111103361D01*
X63945001Y-110555000D01*
X66992560Y-110555000D01*
X66992560Y-111805000D01*
X67036838Y-112040317D01*
X67175910Y-112256441D01*
X67388110Y-112401431D01*
X67640000Y-112452440D01*
X69140000Y-112452440D01*
X69375317Y-112408162D01*
X69591441Y-112269090D01*
X69637969Y-112200994D01*
X69780302Y-112343327D01*
X70013691Y-112440000D01*
X70604250Y-112440000D01*
X70763000Y-112281250D01*
X70763000Y-111307000D01*
X71017000Y-111307000D01*
X71017000Y-112281250D01*
X71175750Y-112440000D01*
X71766309Y-112440000D01*
X71999698Y-112343327D01*
X72178327Y-112164699D01*
X72275000Y-111931310D01*
X72275000Y-111465750D01*
X72116250Y-111307000D01*
X71017000Y-111307000D01*
X70763000Y-111307000D01*
X70743000Y-111307000D01*
X70743000Y-111053000D01*
X70763000Y-111053000D01*
X70763000Y-109177000D01*
X69663750Y-109177000D01*
X69505000Y-109335750D01*
X69505000Y-109801310D01*
X69601673Y-110034699D01*
X69681974Y-110115000D01*
X69639064Y-110157910D01*
X69604090Y-110103559D01*
X69391890Y-109958569D01*
X69140000Y-109907560D01*
X67640000Y-109907560D01*
X67404683Y-109951838D01*
X67188559Y-110090910D01*
X67043569Y-110303110D01*
X66992560Y-110555000D01*
X63945001Y-110555000D01*
X63945001Y-109590001D01*
X63929168Y-109510406D01*
X63885246Y-109289594D01*
X63715080Y-109034922D01*
X62835079Y-108154921D01*
X62580407Y-107984755D01*
X62297700Y-107928521D01*
X62278162Y-107824683D01*
X62154204Y-107632046D01*
X62308046Y-107478204D01*
X62954921Y-108125079D01*
X63209593Y-108295245D01*
X63510000Y-108355000D01*
X65260000Y-108355000D01*
X65543087Y-108298690D01*
X69505000Y-108298690D01*
X69505000Y-108764250D01*
X69663750Y-108923000D01*
X70763000Y-108923000D01*
X70763000Y-108021250D01*
X70773000Y-108011250D01*
X70773000Y-107948750D01*
X71017000Y-107948750D01*
X71017000Y-108923000D01*
X71037000Y-108923000D01*
X71037000Y-109177000D01*
X71017000Y-109177000D01*
X71017000Y-111053000D01*
X72116250Y-111053000D01*
X72275000Y-110894250D01*
X72275000Y-110428690D01*
X72178327Y-110195301D01*
X72098026Y-110115000D01*
X72140936Y-110072090D01*
X72175910Y-110126441D01*
X72388110Y-110271431D01*
X72640000Y-110322440D01*
X74140000Y-110322440D01*
X74375317Y-110278162D01*
X74591441Y-110139090D01*
X74736431Y-109926890D01*
X74787440Y-109675000D01*
X74787440Y-108425000D01*
X74743162Y-108189683D01*
X74611266Y-107984711D01*
X74746431Y-107786890D01*
X74797440Y-107535000D01*
X74797440Y-106285000D01*
X74753162Y-106049683D01*
X74629671Y-105857773D01*
X74746431Y-105686890D01*
X74797440Y-105435000D01*
X74797440Y-104185000D01*
X74753162Y-103949683D01*
X74662810Y-103809273D01*
X74746431Y-103686890D01*
X74797440Y-103435000D01*
X74797440Y-102623795D01*
X74814716Y-102623795D01*
X75063106Y-103224943D01*
X75522637Y-103685278D01*
X76123352Y-103934716D01*
X76773795Y-103935284D01*
X77374943Y-103686894D01*
X77835278Y-103227363D01*
X78084716Y-102626648D01*
X78085284Y-101976205D01*
X77836894Y-101375057D01*
X77377363Y-100914722D01*
X76776648Y-100665284D01*
X76126205Y-100664716D01*
X75525057Y-100913106D01*
X75064722Y-101372637D01*
X74815284Y-101973352D01*
X74814716Y-102623795D01*
X74797440Y-102623795D01*
X74797440Y-102185000D01*
X74753162Y-101949683D01*
X74614090Y-101733559D01*
X74401890Y-101588569D01*
X74150000Y-101537560D01*
X72650000Y-101537560D01*
X72414683Y-101581838D01*
X72198559Y-101720910D01*
X72152031Y-101789006D01*
X72009698Y-101646673D01*
X71776309Y-101550000D01*
X71185750Y-101550000D01*
X71027000Y-101708750D01*
X71027000Y-102683000D01*
X71047000Y-102683000D01*
X71047000Y-102937000D01*
X71027000Y-102937000D01*
X71027000Y-104683000D01*
X71047000Y-104683000D01*
X71047000Y-104937000D01*
X71027000Y-104937000D01*
X71027000Y-106783000D01*
X71047000Y-106783000D01*
X71047000Y-107037000D01*
X71027000Y-107037000D01*
X71027000Y-107938750D01*
X71017000Y-107948750D01*
X70773000Y-107948750D01*
X70773000Y-107037000D01*
X69673750Y-107037000D01*
X69515000Y-107195750D01*
X69515000Y-107661310D01*
X69611673Y-107894699D01*
X69691974Y-107975000D01*
X69601673Y-108065301D01*
X69505000Y-108298690D01*
X65543087Y-108298690D01*
X65560407Y-108295245D01*
X65815079Y-108125079D01*
X66742718Y-107197440D01*
X68380000Y-107197440D01*
X68615317Y-107153162D01*
X68831441Y-107014090D01*
X68976431Y-106801890D01*
X69027440Y-106550000D01*
X69027440Y-105095750D01*
X69515000Y-105095750D01*
X69515000Y-105561310D01*
X69611673Y-105794699D01*
X69676974Y-105860000D01*
X69611673Y-105925301D01*
X69515000Y-106158690D01*
X69515000Y-106624250D01*
X69673750Y-106783000D01*
X70773000Y-106783000D01*
X70773000Y-104937000D01*
X69673750Y-104937000D01*
X69515000Y-105095750D01*
X69027440Y-105095750D01*
X69027440Y-104750000D01*
X68983162Y-104514683D01*
X68967662Y-104490595D01*
X69015000Y-104376310D01*
X69015000Y-103635750D01*
X68856250Y-103477000D01*
X67457000Y-103477000D01*
X67457000Y-103497000D01*
X67203000Y-103497000D01*
X67203000Y-103477000D01*
X67183000Y-103477000D01*
X67183000Y-103223000D01*
X67203000Y-103223000D01*
X67203000Y-101973750D01*
X67457000Y-101973750D01*
X67457000Y-103223000D01*
X68856250Y-103223000D01*
X68983500Y-103095750D01*
X69515000Y-103095750D01*
X69515000Y-103561310D01*
X69611673Y-103794699D01*
X69626974Y-103810000D01*
X69611673Y-103825301D01*
X69515000Y-104058690D01*
X69515000Y-104524250D01*
X69673750Y-104683000D01*
X70773000Y-104683000D01*
X70773000Y-102937000D01*
X69673750Y-102937000D01*
X69515000Y-103095750D01*
X68983500Y-103095750D01*
X69015000Y-103064250D01*
X69015000Y-102323690D01*
X68918327Y-102090301D01*
X68886716Y-102058690D01*
X69515000Y-102058690D01*
X69515000Y-102524250D01*
X69673750Y-102683000D01*
X70773000Y-102683000D01*
X70773000Y-101708750D01*
X70614250Y-101550000D01*
X70023691Y-101550000D01*
X69790302Y-101646673D01*
X69611673Y-101825301D01*
X69515000Y-102058690D01*
X68886716Y-102058690D01*
X68739698Y-101911673D01*
X68506309Y-101815000D01*
X67615750Y-101815000D01*
X67457000Y-101973750D01*
X67203000Y-101973750D01*
X67044250Y-101815000D01*
X66153691Y-101815000D01*
X65920302Y-101911673D01*
X65878340Y-101953634D01*
X65731890Y-101853569D01*
X65480000Y-101802560D01*
X63380000Y-101802560D01*
X63144683Y-101846838D01*
X62928559Y-101985910D01*
X62783569Y-102198110D01*
X62732560Y-102450000D01*
X62732560Y-102565000D01*
X62230000Y-102565000D01*
X61929594Y-102624755D01*
X61674921Y-102794921D01*
X58744921Y-105724921D01*
X58706933Y-105781775D01*
X58670079Y-105744921D01*
X58415407Y-105574755D01*
X58115000Y-105515000D01*
X56677440Y-105515000D01*
X56677440Y-105393819D01*
X56885079Y-105255079D01*
X59905079Y-102235079D01*
X60075245Y-101980407D01*
X60135000Y-101680000D01*
X60135000Y-95857506D01*
X60142192Y-95850327D01*
X60284838Y-95506799D01*
X60285162Y-95134833D01*
X60143117Y-94791057D01*
X59880327Y-94527808D01*
X59536799Y-94385162D01*
X59164833Y-94384838D01*
X58821057Y-94526883D01*
X58557808Y-94789673D01*
X58415162Y-95133201D01*
X58414838Y-95505167D01*
X58556883Y-95848943D01*
X58565000Y-95857074D01*
X58565000Y-101354842D01*
X56677440Y-103242402D01*
X56677440Y-102800000D01*
X56633162Y-102564683D01*
X56494090Y-102348559D01*
X56281890Y-102203569D01*
X56030000Y-102152560D01*
X54777440Y-102152560D01*
X54777440Y-100900000D01*
X54733162Y-100664683D01*
X54615000Y-100481054D01*
X54615000Y-100402880D01*
X54555245Y-100102474D01*
X54385079Y-99847801D01*
X50027440Y-95490162D01*
X50027440Y-95260000D01*
X49983162Y-95024683D01*
X49844090Y-94808559D01*
X49631890Y-94663569D01*
X49380000Y-94612560D01*
X48080000Y-94612560D01*
X47984373Y-94630554D01*
X47953162Y-94464683D01*
X47945658Y-94453021D01*
X47946431Y-94451890D01*
X47997440Y-94200000D01*
X47997440Y-92400000D01*
X47953162Y-92164683D01*
X47814090Y-91948559D01*
X47601890Y-91803569D01*
X47350000Y-91752560D01*
X45250000Y-91752560D01*
X45014683Y-91796838D01*
X44848523Y-91903759D01*
X44701890Y-91803569D01*
X44450000Y-91752560D01*
X42350000Y-91752560D01*
X42114683Y-91796838D01*
X41898559Y-91935910D01*
X41753569Y-92148110D01*
X41702560Y-92400000D01*
X41702560Y-94200000D01*
X41746838Y-94435317D01*
X41762338Y-94459405D01*
X41715000Y-94573690D01*
X41715000Y-95314250D01*
X41873750Y-95473000D01*
X42826573Y-95473000D01*
X42979594Y-95575245D01*
X43280000Y-95635000D01*
X43547000Y-95581890D01*
X43547000Y-95727000D01*
X43527000Y-95727000D01*
X43527000Y-96976250D01*
X43685750Y-97135000D01*
X44211231Y-97135000D01*
X44344920Y-97335080D01*
X44414920Y-97405080D01*
X44669592Y-97575246D01*
X44969999Y-97635001D01*
X46644843Y-97635001D01*
X47432560Y-98422718D01*
X47432560Y-99460000D01*
X47476838Y-99695317D01*
X47615910Y-99911441D01*
X47828110Y-100056431D01*
X48080000Y-100107440D01*
X49380000Y-100107440D01*
X49615317Y-100063162D01*
X49831441Y-99924090D01*
X49976431Y-99711890D01*
X50020352Y-99495000D01*
X50814842Y-99495000D01*
X51647221Y-100327379D01*
X51478559Y-100435910D01*
X51430866Y-100505711D01*
X51394090Y-100448559D01*
X51184823Y-100305573D01*
X51144250Y-100265000D01*
X51003691Y-100265000D01*
X50999665Y-100266668D01*
X50930000Y-100252560D01*
X50330000Y-100252560D01*
X50258676Y-100265981D01*
X50256309Y-100265000D01*
X50115750Y-100265000D01*
X50064471Y-100316279D01*
X49878559Y-100435910D01*
X49830866Y-100505711D01*
X49794090Y-100448559D01*
X49584823Y-100305573D01*
X49544250Y-100265000D01*
X49403691Y-100265000D01*
X49399665Y-100266668D01*
X49330000Y-100252560D01*
X48730000Y-100252560D01*
X48626329Y-100272067D01*
X48530000Y-100252560D01*
X47930000Y-100252560D01*
X47694683Y-100296838D01*
X47478559Y-100435910D01*
X47333569Y-100648110D01*
X47282560Y-100900000D01*
X47282560Y-102152560D01*
X46030000Y-102152560D01*
X45794683Y-102196838D01*
X45578559Y-102335910D01*
X45433569Y-102548110D01*
X45382560Y-102800000D01*
X45382560Y-103206181D01*
X45174921Y-103344921D01*
X44739159Y-103780683D01*
X44666423Y-103707820D01*
X44322895Y-103565174D01*
X44311406Y-103565164D01*
X42634970Y-101888728D01*
X42634970Y-99887506D01*
X42642162Y-99880327D01*
X42784808Y-99536799D01*
X42785132Y-99164833D01*
X42643087Y-98821057D01*
X42380297Y-98557808D01*
X42036769Y-98415162D01*
X41664803Y-98414838D01*
X41530492Y-98470334D01*
X41505079Y-98444921D01*
X41297440Y-98306181D01*
X41297440Y-98250000D01*
X41253162Y-98014683D01*
X41114090Y-97798559D01*
X40901890Y-97653569D01*
X40868510Y-97646809D01*
X41009699Y-97588327D01*
X41188327Y-97409698D01*
X41285000Y-97176309D01*
X41285000Y-96585750D01*
X41126250Y-96427000D01*
X40127000Y-96427000D01*
X40127000Y-96447000D01*
X39873000Y-96447000D01*
X39873000Y-96427000D01*
X38873750Y-96427000D01*
X38715000Y-96585750D01*
X38715000Y-97176309D01*
X38811673Y-97409698D01*
X38990301Y-97588327D01*
X39126287Y-97644654D01*
X39114683Y-97646838D01*
X38898559Y-97785910D01*
X38753569Y-97998110D01*
X38702560Y-98250000D01*
X38702560Y-99750000D01*
X38746838Y-99985317D01*
X38885910Y-100201441D01*
X39098110Y-100346431D01*
X39350000Y-100397440D01*
X40215000Y-100397440D01*
X40215000Y-101928808D01*
X40048559Y-102035910D01*
X39903569Y-102248110D01*
X39852560Y-102500000D01*
X39852560Y-103242402D01*
X39647440Y-103037282D01*
X39647440Y-102500000D01*
X39603162Y-102264683D01*
X39464090Y-102048559D01*
X39251890Y-101903569D01*
X39000000Y-101852560D01*
X38000000Y-101852560D01*
X37764683Y-101896838D01*
X37589713Y-102009428D01*
X37310000Y-93937704D01*
X37310000Y-90993480D01*
X37315000Y-90993480D01*
X37315000Y-93606520D01*
X37439457Y-94232207D01*
X37793880Y-94762640D01*
X38324313Y-95117063D01*
X38802602Y-95212201D01*
X38715000Y-95423691D01*
X38715000Y-96014250D01*
X38873750Y-96173000D01*
X39873000Y-96173000D01*
X39873000Y-95073750D01*
X40127000Y-95073750D01*
X40127000Y-96173000D01*
X41126250Y-96173000D01*
X41285000Y-96014250D01*
X41285000Y-95885750D01*
X41715000Y-95885750D01*
X41715000Y-96626310D01*
X41811673Y-96859699D01*
X41990302Y-97038327D01*
X42223691Y-97135000D01*
X43114250Y-97135000D01*
X43273000Y-96976250D01*
X43273000Y-95727000D01*
X41873750Y-95727000D01*
X41715000Y-95885750D01*
X41285000Y-95885750D01*
X41285000Y-95423691D01*
X41188327Y-95190302D01*
X41009699Y-95011673D01*
X40776310Y-94915000D01*
X40285750Y-94915000D01*
X40127000Y-95073750D01*
X39873000Y-95073750D01*
X39779878Y-94980628D01*
X40106120Y-94762640D01*
X40316729Y-94447440D01*
X40950000Y-94447440D01*
X41185317Y-94403162D01*
X41401441Y-94264090D01*
X41546431Y-94051890D01*
X41597440Y-93800000D01*
X41597440Y-90800000D01*
X41553162Y-90564683D01*
X41414090Y-90348559D01*
X41201890Y-90203569D01*
X40950000Y-90152560D01*
X40316729Y-90152560D01*
X40106120Y-89837360D01*
X39575687Y-89482937D01*
X38950000Y-89358480D01*
X38324313Y-89482937D01*
X37793880Y-89837360D01*
X37439457Y-90367793D01*
X37315000Y-90993480D01*
X37310000Y-90993480D01*
X37310000Y-90959247D01*
X37376968Y-88385750D01*
X43085000Y-88385750D01*
X43085000Y-89981310D01*
X43181673Y-90214699D01*
X43360302Y-90393327D01*
X43593691Y-90490000D01*
X44704250Y-90490000D01*
X44863000Y-90331250D01*
X44863000Y-88227000D01*
X45117000Y-88227000D01*
X45117000Y-90331250D01*
X45275750Y-90490000D01*
X46386309Y-90490000D01*
X46619698Y-90393327D01*
X46798327Y-90214699D01*
X46895000Y-89981310D01*
X46895000Y-88385750D01*
X46736250Y-88227000D01*
X45117000Y-88227000D01*
X44863000Y-88227000D01*
X43243750Y-88227000D01*
X43085000Y-88385750D01*
X37376968Y-88385750D01*
X37433359Y-86218690D01*
X43085000Y-86218690D01*
X43085000Y-87814250D01*
X43243750Y-87973000D01*
X44863000Y-87973000D01*
X44863000Y-85868750D01*
X45117000Y-85868750D01*
X45117000Y-87973000D01*
X46736250Y-87973000D01*
X46895000Y-87814250D01*
X46895000Y-86345000D01*
X72432560Y-86345000D01*
X72432560Y-89855000D01*
X72476838Y-90090317D01*
X72615910Y-90306441D01*
X72828110Y-90451431D01*
X73080000Y-90502440D01*
X75620000Y-90502440D01*
X75855317Y-90458162D01*
X76071441Y-90319090D01*
X76216431Y-90106890D01*
X76267440Y-89855000D01*
X76267440Y-89235000D01*
X78349009Y-89235000D01*
X78574775Y-89235197D01*
X78992086Y-89062767D01*
X79311645Y-88743765D01*
X79484803Y-88326756D01*
X79485197Y-87875225D01*
X79312767Y-87457914D01*
X78993765Y-87138355D01*
X78576756Y-86965197D01*
X78125225Y-86964803D01*
X78124748Y-86965000D01*
X76267440Y-86965000D01*
X76267440Y-86345000D01*
X76223162Y-86109683D01*
X76084090Y-85893559D01*
X75871890Y-85748569D01*
X75620000Y-85697560D01*
X73080000Y-85697560D01*
X72844683Y-85741838D01*
X72628559Y-85880910D01*
X72483569Y-86093110D01*
X72432560Y-86345000D01*
X46895000Y-86345000D01*
X46895000Y-86218690D01*
X46798327Y-85985301D01*
X46619698Y-85806673D01*
X46386309Y-85710000D01*
X45275750Y-85710000D01*
X45117000Y-85868750D01*
X44863000Y-85868750D01*
X44704250Y-85710000D01*
X43593691Y-85710000D01*
X43360302Y-85806673D01*
X43181673Y-85985301D01*
X43085000Y-86218690D01*
X37433359Y-86218690D01*
X37659522Y-77527605D01*
X37802432Y-74768354D01*
X38324313Y-75117063D01*
X38950000Y-75241520D01*
X39575687Y-75117063D01*
X40106120Y-74762640D01*
X40316729Y-74447440D01*
X40950000Y-74447440D01*
X41000108Y-74438012D01*
X40564722Y-74872637D01*
X40315284Y-75473352D01*
X40314716Y-76123795D01*
X40563106Y-76724943D01*
X41022637Y-77185278D01*
X41623352Y-77434716D01*
X42273795Y-77435284D01*
X42874943Y-77186894D01*
X43335278Y-76727363D01*
X43584716Y-76126648D01*
X43585284Y-75476205D01*
X43336894Y-74875057D01*
X42877363Y-74414722D01*
X42276648Y-74165284D01*
X41626205Y-74164716D01*
X41407632Y-74255029D01*
X41546431Y-74051890D01*
X41597440Y-73800000D01*
X41597440Y-70800000D01*
X41553162Y-70564683D01*
X41414090Y-70348559D01*
X41201890Y-70203569D01*
X40950000Y-70152560D01*
X40316729Y-70152560D01*
X40106120Y-69837360D01*
X39575687Y-69482937D01*
X38950000Y-69358480D01*
X38324313Y-69482937D01*
X38067283Y-69654678D01*
X38308305Y-65001107D01*
X38805354Y-59632982D01*
X39549259Y-54425641D01*
X40585483Y-49650000D01*
X56333112Y-49650000D01*
X56608431Y-51034123D01*
X57392474Y-52207526D01*
X58565877Y-52991569D01*
X59950000Y-53266888D01*
X61334123Y-52991569D01*
X62507526Y-52207526D01*
X63291569Y-51034123D01*
X63566888Y-49650000D01*
X63291569Y-48265877D01*
X62507526Y-47092474D01*
X61334123Y-46308431D01*
X59950000Y-46033112D01*
X58565877Y-46308431D01*
X57392474Y-47092474D01*
X56608431Y-48265877D01*
X56333112Y-49650000D01*
X40585483Y-49650000D01*
X40673723Y-49243331D01*
X41229433Y-48174659D01*
X42004659Y-47399433D01*
X43149979Y-46620615D01*
X44257454Y-46113023D01*
X45578830Y-45688294D01*
X47003693Y-45403322D01*
X52694489Y-44858985D01*
X57660657Y-44710000D01*
X62578286Y-44710000D01*
X67444321Y-45007921D01*
G36*
X51465910Y-102851441D02*
X51675177Y-102994427D01*
X51715750Y-103035000D01*
X51856309Y-103035000D01*
X51860335Y-103033332D01*
X51930000Y-103047440D01*
X52530000Y-103047440D01*
X52633671Y-103027933D01*
X52730000Y-103047440D01*
X53330000Y-103047440D01*
X53433671Y-103027933D01*
X53530000Y-103047440D01*
X53882560Y-103047440D01*
X53882560Y-103400000D01*
X53902067Y-103503671D01*
X53882560Y-103600000D01*
X53882560Y-104200000D01*
X53902067Y-104303671D01*
X53882560Y-104400000D01*
X53882560Y-104715000D01*
X53240000Y-104715000D01*
X52939593Y-104774755D01*
X52684921Y-104944921D01*
X52654615Y-104975227D01*
X52644453Y-104975218D01*
X52300677Y-105117263D01*
X52102576Y-105315019D01*
X51894833Y-105314838D01*
X51551057Y-105456883D01*
X51287808Y-105719673D01*
X51145162Y-106063201D01*
X51144838Y-106435167D01*
X51286883Y-106778943D01*
X51549673Y-107042192D01*
X51893201Y-107184838D01*
X51904690Y-107184848D01*
X53045000Y-108325158D01*
X53045000Y-108752560D01*
X52730000Y-108752560D01*
X52626329Y-108772067D01*
X52530000Y-108752560D01*
X51930000Y-108752560D01*
X51826329Y-108772067D01*
X51730000Y-108752560D01*
X51130000Y-108752560D01*
X51058676Y-108765981D01*
X51056309Y-108765000D01*
X50915750Y-108765000D01*
X50864471Y-108816279D01*
X50678559Y-108935910D01*
X50630866Y-109005711D01*
X50594090Y-108948559D01*
X50384823Y-108805573D01*
X50344250Y-108765000D01*
X50203691Y-108765000D01*
X50199665Y-108766668D01*
X50130000Y-108752560D01*
X49687598Y-108752560D01*
X50555079Y-107885079D01*
X50725245Y-107630407D01*
X50733497Y-107588919D01*
X50792192Y-107530327D01*
X50934838Y-107186799D01*
X50935162Y-106814833D01*
X50793117Y-106471057D01*
X50576083Y-106253644D01*
X50590653Y-106231838D01*
X50725245Y-106030406D01*
X50785000Y-105730000D01*
X50785000Y-103537506D01*
X50792192Y-103530327D01*
X50934838Y-103186799D01*
X50934960Y-103046507D01*
X51001324Y-103034019D01*
X51003691Y-103035000D01*
X51144250Y-103035000D01*
X51195529Y-102983721D01*
X51381441Y-102864090D01*
X51429134Y-102794289D01*
X51465910Y-102851441D01*
X51465910Y-102851441D01*
G37*
X51465910Y-102851441D02*
X51675177Y-102994427D01*
X51715750Y-103035000D01*
X51856309Y-103035000D01*
X51860335Y-103033332D01*
X51930000Y-103047440D01*
X52530000Y-103047440D01*
X52633671Y-103027933D01*
X52730000Y-103047440D01*
X53330000Y-103047440D01*
X53433671Y-103027933D01*
X53530000Y-103047440D01*
X53882560Y-103047440D01*
X53882560Y-103400000D01*
X53902067Y-103503671D01*
X53882560Y-103600000D01*
X53882560Y-104200000D01*
X53902067Y-104303671D01*
X53882560Y-104400000D01*
X53882560Y-104715000D01*
X53240000Y-104715000D01*
X52939593Y-104774755D01*
X52684921Y-104944921D01*
X52654615Y-104975227D01*
X52644453Y-104975218D01*
X52300677Y-105117263D01*
X52102576Y-105315019D01*
X51894833Y-105314838D01*
X51551057Y-105456883D01*
X51287808Y-105719673D01*
X51145162Y-106063201D01*
X51144838Y-106435167D01*
X51286883Y-106778943D01*
X51549673Y-107042192D01*
X51893201Y-107184838D01*
X51904690Y-107184848D01*
X53045000Y-108325158D01*
X53045000Y-108752560D01*
X52730000Y-108752560D01*
X52626329Y-108772067D01*
X52530000Y-108752560D01*
X51930000Y-108752560D01*
X51826329Y-108772067D01*
X51730000Y-108752560D01*
X51130000Y-108752560D01*
X51058676Y-108765981D01*
X51056309Y-108765000D01*
X50915750Y-108765000D01*
X50864471Y-108816279D01*
X50678559Y-108935910D01*
X50630866Y-109005711D01*
X50594090Y-108948559D01*
X50384823Y-108805573D01*
X50344250Y-108765000D01*
X50203691Y-108765000D01*
X50199665Y-108766668D01*
X50130000Y-108752560D01*
X49687598Y-108752560D01*
X50555079Y-107885079D01*
X50725245Y-107630407D01*
X50733497Y-107588919D01*
X50792192Y-107530327D01*
X50934838Y-107186799D01*
X50935162Y-106814833D01*
X50793117Y-106471057D01*
X50576083Y-106253644D01*
X50590653Y-106231838D01*
X50725245Y-106030406D01*
X50785000Y-105730000D01*
X50785000Y-103537506D01*
X50792192Y-103530327D01*
X50934838Y-103186799D01*
X50934960Y-103046507D01*
X51001324Y-103034019D01*
X51003691Y-103035000D01*
X51144250Y-103035000D01*
X51195529Y-102983721D01*
X51381441Y-102864090D01*
X51429134Y-102794289D01*
X51465910Y-102851441D01*
M02*
