M48
;DRILL file {KiCad 4.0.7} date Mon Aug 20 13:26:05 2018
;FORMAT={-:-/ absolute / inch / decimal}
FMAT,2
INCH,TZ
T1C0.016
T2C0.039
T3C0.079
%
G90
G05
M72
T1
X1.5157Y-4.0551
X1.6476Y-3.9114
X1.7118Y-5.2039
X1.7376Y-4.1142
X1.8417Y-4.2165
X1.9258Y-4.1662
X1.933Y-4.0689
X1.9685Y-4.0551
X1.9685Y-4.2126
X1.9933Y-4.002
X1.9933Y-4.3366
X2.0028Y-4.728
X2.0197Y-4.8425
X2.0248Y-4.3366
X2.0504Y-4.1831
X2.0563Y-4.002
X2.0799Y-4.1697
X2.0878Y-4.3366
X2.1626Y-4.7173
X2.1764Y-4.248
X2.1764Y-4.2795
X2.2449Y-4.215
X2.252Y-2.8465
X2.2608Y-4.3257
X2.3366Y-3.7528
X2.3646Y-4.3748
X2.461Y-4.326
X2.5591Y-3.8583
X2.6925Y-4.3772
X2.8898Y-4.0476
X2.8898Y-4.1264
X2.8898Y-4.2091
X2.8917Y-4.2937
X3.0846Y-3.4685
T2
X1.5929Y-4.2882
X1.5929Y-4.3882
X1.5929Y-4.4882
X1.5929Y-4.585
X1.5929Y-4.685
X1.6929Y-4.2882
X1.6929Y-4.3882
X1.6929Y-4.4882
X1.6929Y-4.585
X1.6929Y-4.685
T3
X1.6516Y-2.9843
X3.0098Y-4.0276
T0
M30
