  0
SECTION
  2
HEADER
  9
$ACADVER
  1
AC1014
  9
$HANDSEED
  5
FFFF
  9
$MEASUREMENT
 70
     1
  0
ENDSEC
  0
SECTION
  2
TABLES
  0
TABLE
  2
VPORT
  5
8
330
0
100
AcDbSymbolTable
 70
     4
  0
VPORT
  5
2E
330
8
100
AcDbSymbolTableRecord
100
AcDbViewportTableRecord
  2
*ACTIVE
 70
     0
 10
0.0
 20
0.0
 11
1.0
 21
1.0
 12
210.0
 22
148.5
 13
0.0
 23
0.0
 14
10.0
 24
10.0
 15
10.0
 25
10.0
 16
0.0
 26
0.0
 36
1.0
 17
0.0
 27
0.0
 37
0.0
 40
341.0
 41
1.24
 42
50.0
 43
0.0
 44
0.0
 50
0.0
 51
0.0
 71
     0
 72
   100
 73
     1
 74
     3
 75
     0
 76
     0
 77
     0
 78
     0
  0
ENDTAB
  0
TABLE
  2
LTYPE
  5
5
330
0
100
AcDbSymbolTable
 70
     1
  0
LTYPE
  5
14
330
5
100
AcDbSymbolTableRecord
100
AcDbLinetypeTableRecord
  2
BYBLOCK
 70
     0
  3

 72
    65
 73
     0
 40
0.0
  0
LTYPE
  5
15
330
5
100
AcDbSymbolTableRecord
100
AcDbLinetypeTableRecord
  2
BYLAYER
 70
     0
  3

 72
    65
 73
     0
 40
0.0
  0
LTYPE
  5
16
330
5
100
AcDbSymbolTableRecord
100
AcDbLinetypeTableRecord
  2
CONTINUOUS
 70
     0
  3
Solid line
 72
    65
 73
     0
 40
0.0
  0
ENDTAB
  0
TABLE
  2
LAYER
  5
2
100
AcDbSymbolTable
 70
2
  0
LAYER
  5
50
100
AcDbSymbolTableRecord
100
AcDbLayerTableRecord
  2
0
 70
0
  6
CONTINUOUS
  0
LAYER
  5
51
100
AcDbSymbolTableRecord
100
AcDbLayerTableRecord
  2
Edge
 70
0
  6
CONTINUOUS
  0
ENDTAB
  0
TABLE
  2
STYLE
  5
3
330
0
100
AcDbSymbolTable
 70
     1
  0
STYLE
  5
11
330
3
100
AcDbSymbolTableRecord
100
AcDbTextStyleTableRecord
  2
STANDARD
 70
     0
 40
0.0
 41
1.0
 50
0.0
 71
     0
 42
2.5
  3
txt
  4

  0
ENDTAB
  0
TABLE
  2
VIEW
  5
6
330
0
100
AcDbSymbolTable
 70
     0
  0
ENDTAB
  0
TABLE
  2
UCS
  5
7
330
0
100
AcDbSymbolTable
 70
     0
  0
ENDTAB
  0
TABLE
  2
APPID
  5
9
330
0
100
AcDbSymbolTable
 70
     2
  0
APPID
  5
12
330
9
100
AcDbSymbolTableRecord
100
AcDbRegAppTableRecord
  2
ACAD
 70
     0
  0
ENDTAB
  0
TABLE
  2
DIMSTYLE
  5
A
330
0
100
AcDbSymbolTable
 70
     1
  0
DIMSTYLE
105
27
330
A
100
AcDbSymbolTableRecord
100
AcDbDimStyleTableRecord
  2
ISO-25
 70
     0
  3

  4

  5

  6

  7

 40
1.0
 41
2.5
 42
0.625
 43
3.75
 44
1.25
 45
0.0
 46
0.0
 47
0.0
 48
0.0
140
2.5
141
2.5
142
0.0
143
0.03937007874016
144
1.0
145
0.0
146
1.0
147
0.625
 71
     0
 72
     0
 73
     0
 74
     0
 75
     0
 76
     0
 77
     1
 78
     8
170
     0
171
     3
172
     1
173
     0
174
     0
175
     0
176
     0
177
     0
178
     0
270
     2
271
     2
272
     2
273
     2
274
     3
340
11
275
     0
280
     0
281
     0
282
     0
283
     0
284
     8
285
     0
286
     0
287
     3
288
     0
  0
ENDTAB
  0
TABLE
  2
BLOCK_RECORD
  5
1
330
0
100
AcDbSymbolTable
 70
     1
  0
BLOCK_RECORD
  5
1F
330
1
100
AcDbSymbolTableRecord
100
AcDbBlockTableRecord
  2
*MODEL_SPACE
  0
BLOCK_RECORD
  5
1B
330
1
100
AcDbSymbolTableRecord
100
AcDbBlockTableRecord
  2
*PAPER_SPACE
  0
ENDTAB
  0
ENDSEC
  0
SECTION
  2
BLOCKS
  0
BLOCK
  5
20
330
1F
100
AcDbEntity
  8
0
100
AcDbBlockBegin
  2
*MODEL_SPACE
 70
     0
 10
0.0
 20
0.0
 30
0.0
  3
*MODEL_SPACE
  1

  0
ENDBLK
  5
21
330
1F
100
AcDbEntity
  8
0
100
AcDbBlockEnd
  0
BLOCK
  5
1C
330
1B
100
AcDbEntity
 67
     1
  8
0
100
AcDbBlockBegin
  2
*PAPER_SPACE
  1

  0
ENDBLK
  5
1D
330
1B
100
AcDbEntity
 67
     1
  8
0
100
AcDbBlockEnd
  0
ENDSEC
  0
SECTION
  2
ENTITIES
  0
LWPOLYLINE
  5
100
100
AcDbEntity
  8
Edge
 62
7
100
AcDbPolyline
 90
80
 70
1
 10
79.777344
 20
216.447266
 30
0.0
 10
74.830078
 20
216.265625
 30
0.0
 10
74.847658
 20
215.765625
 30
0.0
 10
74.810548
 20
216.263672
 30
0.0
 10
71.951173
 20
216.056641
 30
0.0
 10
69.019532
 20
215.730469
 30
0.0
 10
67.574220
 20
215.435547
 30
0.0
 10
66.191407
 20
215.009766
 30
0.0
 10
64.894532
 20
214.412109
 30
0.0
 10
63.718751
 20
213.609375
 30
0.0
 10
62.802735
 20
212.707031
 30
0.0
 10
62.167970
 20
211.490234
 30
0.0
 10
61.005860
 20
206.189453
 30
0.0
 10
60.236329
 20
200.859375
 30
0.0
 10
59.757813
 20
195.496090
 30
0.0
 10
59.476563
 20
190.140620
 30
0.0
 10
59.085939
 20
183.113280
 30
0.0
 10
58.884767
 20
174.712890
 30
0.0
 10
58.822267
 20
171.318360
 30
0.0
 10
58.792967
 20
170.230470
 30
0.0
 10
58.781247
 20
169.921880
 30
0.0
 10
58.769527
 20
169.781250
 30
0.0
 10
58.757807
 20
169.443360
 30
0.0
 10
58.759807
 20
168.750000
 30
0.0
 10
58.800827
 20
166.466800
 30
0.0
 10
58.984421
 20
159.625000
 30
0.0
 10
59.423874
 20
147.906250
 30
0.0
 10
59.709030
 20
143.525390
 30
0.0
 10
60.234421
 20
136.080080
 30
0.0
 10
60.826218
 20
127.726560
 30
0.0
 10
61.060593
 20
124.134770
 30
0.0
 10
61.357468
 20
119.498050
 30
0.0
 10
61.945358
 20
112.621090
 30
0.0
 10
62.281296
 20
110.240230
 30
0.0
 10
62.609421
 20
108.964840
 30
0.0
 10
63.367234
 20
107.457030
 30
0.0
 10
63.978562
 20
106.396480
 30
0.0
 10
64.748093
 20
105.404300
 30
0.0
 10
65.615280
 20
104.558590
 30
0.0
 10
66.525437
 20
103.925780
 30
0.0
 10
67.855515
 20
103.353520
 30
0.0
 10
69.582077
 20
102.955080
 30
0.0
 10
75.582077
 20
102.400390
 30
0.0
 10
83.091843
 20
102.339890
 30
0.0
 10
90.228562
 20
102.585990
 30
0.0
 10
93.660202
 20
102.910210
 30
0.0
 10
96.128952
 20
103.457080
 30
0.0
 10
97.177780
 20
103.918020
 30
0.0
 10
98.144577
 20
104.541070
 30
0.0
 10
100.002000
 20
106.345750
 30
0.0
 10
100.052800
 20
106.421950
 30
0.0
 10
100.086000
 20
106.490350
 30
0.0
 10
100.252010
 20
107.048950
 30
0.0
 10
101.248110
 20
114.822390
 30
0.0
 10
101.841860
 20
122.216920
 30
0.0
 10
102.546940
 20
136.009890
 30
0.0
 10
102.546940
 20
136.019890
 30
0.0
 10
102.546940
 20
136.021890
 30
0.0
 10
102.566440
 20
136.621500
 30
0.0
 10
102.617240
 20
138.178140
 30
0.0
 10
102.627240
 20
138.449630
 30
0.0
 10
102.629240
 20
138.549230
 30
0.0
 10
102.629240
 20
138.551230
 30
0.0
 10
102.617540
 20
138.551230
 30
0.0
 10
102.930040
 20
149.934040
 30
0.0
 10
103.406600
 20
164.205530
 30
0.0
 10
103.707380
 20
175.639120
 30
0.0
 10
103.685880
 20
180.660610
 30
0.0
 10
103.488610
 20
185.664510
 30
0.0
 10
102.471030
 20
201.771934
 30
0.0
 10
102.471030
 20
201.810994
 30
0.0
 10
101.478850
 20
208.859822
 30
0.0
 10
101.019860
 20
211.086385
 30
0.0
 10
100.316740
 20
212.445759
 30
0.0
 10
99.681967
 20
213.387166
 30
0.0
 10
99.664387
 20
213.646931
 30
0.0
 10
97.164387
 20
214.957478
 30
0.0
 10
94.865559
 20
215.654744
 30
0.0
 10
89.763997
 20
216.168416
 30
0.0
 10
84.752278
 20
216.422322
 30
0.0
  0
LWPOLYLINE
  5
101
100
AcDbEntity
  8
Edge
 62
7
100
AcDbPolyline
 90
71
 70
1
 10
79.792974
 20
215.447266
 30
0.0
 10
84.724614
 20
215.421876
 30
0.0
 10
89.687505
 20
215.169923
 30
0.0
 10
94.669927
 20
214.669923
 30
0.0
 10
96.783208
 20
214.027345
 30
0.0
 10
98.705083
 20
213.021485
 30
0.0
 10
98.703083
 20
213.050785
 30
0.0
 10
99.453083
 20
211.935551
 30
0.0
 10
100.068320
 20
210.750004
 30
0.0
 10
100.494100
 20
208.689457
 30
0.0
 10
101.470660
 20
201.740238
 30
0.0
 10
102.490190
 20
185.613280
 30
0.0
 10
102.685510
 20
180.638670
 30
0.0
 10
102.707010
 20
175.650390
 30
0.0
 10
102.406230
 20
164.234380
 30
0.0
 10
101.929670
 20
149.962890
 30
0.0
 10
101.546860
 20
136.072270
 30
0.0
 10
101.546860
 20
136.060570
 30
0.0
 10
101.546860
 20
136.052570
 30
0.0
 10
101.546860
 20
136.050570
 30
0.0
 10
101.546860
 20
136.048570
 30
0.0
 10
100.843730
 20
122.282940
 30
0.0
 10
100.253890
 20
114.925520
 30
0.0
 10
99.271462
 20
107.257550
 30
0.0
 10
99.175762
 20
106.937240
 30
0.0
 10
97.517559
 20
105.327860
 30
0.0
 10
96.703106
 20
104.800520
 30
0.0
 10
95.816387
 20
104.411850
 30
0.0
 10
93.503887
 20
103.900130
 30
0.0
 10
90.164043
 20
103.583720
 30
0.0
 10
83.078106
 20
103.339580
 30
0.0
 10
75.632793
 20
103.400080
 30
0.0
 10
69.742169
 20
103.943050
 30
0.0
 10
68.167950
 20
104.308280
 30
0.0
 10
67.013653
 20
104.804380
 30
0.0
 10
66.253887
 20
105.331720
 30
0.0
 10
65.496075
 20
106.071960
 30
0.0
 10
64.810528
 20
106.956720
 30
0.0
 10
64.246075
 20
107.933280
 30
0.0
 10
63.550762
 20
109.316100
 30
0.0
 10
63.263653
 20
110.435240
 30
0.0
 10
62.937481
 20
112.734070
 30
0.0
 10
62.353497
 20
119.571960
 30
0.0
 10
62.056622
 20
124.200860
 30
0.0
 10
61.822247
 20
127.792660
 30
0.0
 10
61.230450
 20
136.150080
 30
0.0
 10
60.705059
 20
143.591490
 30
0.0
 10
60.423809
 20
147.956720
 30
0.0
 10
59.984356
 20
159.655940
 30
0.0
 10
59.800762
 20
166.489920
 30
0.0
 10
59.759742
 20
168.761410
 30
0.0
 10
59.757742
 20
169.427420
 30
0.0
 10
59.769462
 20
169.722350
 30
0.0
 10
59.781182
 20
169.862970
 30
0.0
 10
59.792902
 20
170.198910
 30
0.0
 10
59.822202
 20
171.294610
 30
0.0
 10
59.884702
 20
174.693050
 30
0.0
 10
60.085874
 20
183.071960
 30
0.0
 10
60.476498
 20
190.085630
 30
0.0
 10
60.755795
 20
195.425470
 30
0.0
 10
61.230405
 20
200.743835
 30
0.0
 10
61.990170
 20
206.011413
 30
0.0
 10
63.117124
 20
211.146178
 30
0.0
 10
63.617124
 20
212.105163
 30
0.0
 10
64.355405
 20
212.835632
 30
0.0
 10
65.388608
 20
213.538756
 30
0.0
 10
66.548764
 20
214.073913
 30
0.0
 10
67.822202
 20
214.464538
 30
0.0
 10
69.175717
 20
214.739928
 30
0.0
 10
72.042905
 20
215.060241
 30
0.0
 10
74.865170
 20
215.265319
 30
0.0
  0
ENDSEC
  0
SECTION
  2
OBJECTS
  0
DICTIONARY
  5
C
330
0
100
AcDbDictionary
  3
ACAD_GROUP
350
D
  3
ACAD_MLINESTYLE
350
17
  0
DICTIONARY
  5
D
330
C
100
AcDbDictionary
  0
DICTIONARY
  5
1A
330
C
100
AcDbDictionary
  0
DICTIONARY
  5
17
330
C
100
AcDbDictionary
  3
STANDARD
350
18
  0
DICTIONARY
  5
19
330
C
100
AcDbDictionary
  0
ENDSEC
  0
EOF
